<svg width="288" height="29" viewBox="0 0 288 29" fill="none" xmlns="http://www.w3.org/2000/svg">
<path fill-rule="evenodd" clip-rule="evenodd" d="M44.5 20.5H0V19.5H44.5V20.5Z" fill="#828FA1"/>
<path fill-rule="evenodd" clip-rule="evenodd" d="M51.1494 19.5H44.5V20.5H51.1494C55.0629 20.5 58.8947 19.3798 62.192 17.2717L82.8395 4.07082C85.9759 2.06557 89.6208 1 93.3434 1H100.5V0H93.3434C89.4299 0 85.5981 1.12022 82.3008 3.2283L61.6533 16.4292C58.5169 18.4344 54.872 19.5 51.1494 19.5Z" fill="#828FA1"/>
<path fill-rule="evenodd" clip-rule="evenodd" d="M187.5 1H100.5V0H187.5V1Z" fill="#828FA1"/>
<path d="M121.426 18V9.41602H126.629L126.564 10.6758H123.014V12.8906H126.389V14.1504H123.014V16.7344H126.693L126.641 18H121.426ZM130.818 18L127.695 9.41602H129.33L131.146 14.7188C131.216 14.9023 131.378 15.4395 131.632 16.3301C131.648 16.2676 131.72 16.0117 131.849 15.5625C131.978 15.1094 132.062 14.832 132.101 14.7305C132.148 14.5977 132.445 13.7168 132.992 12.0879C133.539 10.4551 133.837 9.56445 133.888 9.41602H135.505L132.423 18H130.818ZM136.812 18V9.41602H142.015L141.95 10.6758H138.399V12.8906H141.774V14.1504H138.399V16.7344H142.079L142.026 18H136.812ZM144.042 18V9.41602H145.729C146.034 9.89258 146.653 10.8535 147.586 12.2988C148.52 13.7441 149.088 14.623 149.292 14.9355C149.35 15.0254 149.45 15.1777 149.59 15.3926C149.735 15.6035 149.836 15.7539 149.895 15.8438C149.868 14.5039 149.854 13.8086 149.854 13.7578V9.41602H151.301V18H149.59L145.717 11.9648L145.436 11.502C145.467 12.5332 145.483 13.2578 145.483 13.6758V18H144.042ZM155.285 18V10.6875H152.783V9.41602H159.369V10.6875H156.879V18H155.285ZM163.265 18.1172C162.23 18.1172 161.302 17.8789 160.482 17.4023L160.869 16.1426C161.236 16.3457 161.634 16.5098 162.064 16.6348C162.498 16.7598 162.92 16.8223 163.33 16.8223C163.834 16.8223 164.214 16.7148 164.472 16.5C164.73 16.2812 164.859 15.9688 164.859 15.5625C164.859 15.0234 164.5 14.6504 163.781 14.4434C163.73 14.4277 163.588 14.3867 163.353 14.3203C163.119 14.25 162.898 14.1836 162.691 14.1211C162.488 14.0547 162.341 14.0039 162.252 13.9688C161.099 13.5625 160.523 12.8047 160.523 11.6953C160.523 10.918 160.798 10.3184 161.349 9.89648C161.904 9.47461 162.638 9.26367 163.552 9.26367C164.588 9.26367 165.48 9.47656 166.23 9.90234L165.75 11.0625C164.984 10.7188 164.273 10.5469 163.617 10.5469C163.144 10.5469 162.787 10.6309 162.545 10.7988C162.306 10.9629 162.179 11.2383 162.164 11.625C162.164 12.1016 162.4 12.4121 162.873 12.5566C162.966 12.5918 163.197 12.668 163.564 12.7852C163.931 12.9023 164.17 12.9785 164.279 13.0137C165.064 13.2715 165.625 13.5918 165.961 13.9746C166.3 14.3574 166.47 14.8906 166.47 15.5742C166.47 16.3906 166.181 17.0195 165.603 17.4609C165.025 17.8984 164.246 18.1172 163.265 18.1172Z" fill="#00FFFF"/>
<path fill-rule="evenodd" clip-rule="evenodd" d="M194.149 1H187.5V0H194.149C198.063 0 201.895 1.12022 205.192 3.2283L225.84 16.4292C228.976 18.4344 232.621 19.5 236.343 19.5H243.5V20.5H236.343C232.43 20.5 228.598 19.3798 225.301 17.2717L204.653 4.07082C201.517 2.06557 197.872 1 194.149 1Z" fill="#828FA1"/>
<path fill-rule="evenodd" clip-rule="evenodd" d="M288 20.5H243.5V19.5H288V20.5Z" fill="#828FA1"/>
</svg>
