<svg width="979" height="661" viewBox="0 0 979 661" fill="none" xmlns="http://www.w3.org/2000/svg">
<path fill-rule="evenodd" clip-rule="evenodd" d="M331.797 -368.157C59.6984 -256.242 -70.1416 55.5689 41.7913 328.293C153.724 601.016 465.043 731.378 737.142 619.463C1009.24 507.548 1139.08 195.737 1027.15 -76.9865C915.215 -349.71 603.896 -480.072 331.797 -368.157ZM40.7583 328.717C-71.4093 55.4219 58.7029 -257.043 331.372 -369.192C604.041 -481.342 916.013 -350.707 1028.18 -77.4114C1140.35 195.884 1010.24 508.349 737.567 620.498C464.898 732.648 152.926 602.013 40.7583 328.717Z" fill="url(#paint0_linear_387_14759)"/>
<path fill-rule="evenodd" clip-rule="evenodd" d="M331.795 -368.159C114.274 -278.692 28.4483 14.8831 140.428 287.72C252.407 560.558 519.619 708.928 737.14 619.461C954.66 529.995 1040.49 236.42 928.506 -36.4179C816.527 -309.255 549.315 -457.625 331.795 -368.159ZM139.395 288.145C27.274 14.9636 113.076 -279.409 331.37 -369.194C549.664 -458.979 817.419 -310.024 929.539 -36.8427C1041.66 236.339 955.859 530.712 737.564 620.497C519.27 710.281 251.516 561.327 139.395 288.145Z" fill="url(#paint1_linear_387_14759)"/>
<path fill-rule="evenodd" clip-rule="evenodd" d="M182.316 -137.743C165.498 -26.3784 183.076 110.724 239.069 247.151C295.063 383.578 378.849 493.449 469.02 560.809C559.201 628.177 655.679 652.969 737.142 619.463C818.604 585.957 869.804 500.425 886.624 389.048C903.442 277.683 885.863 140.581 829.87 4.15341C773.877 -132.274 690.091 -242.145 599.92 -309.505C509.738 -376.872 413.26 -401.663 331.797 -368.157C250.335 -334.651 199.136 -249.121 182.316 -137.743ZM181.211 -137.912C198.063 -249.496 249.404 -335.479 331.372 -369.192C413.34 -402.906 510.238 -377.894 600.587 -310.402C690.946 -242.901 774.846 -132.854 830.903 3.72852C886.96 140.311 904.581 277.619 887.728 389.216C870.877 500.8 819.535 586.785 737.567 620.498C655.599 654.212 558.702 629.199 468.353 561.706C377.993 494.205 294.093 384.158 238.036 247.576C181.979 110.993 164.358 -26.3143 181.211 -137.912Z" fill="url(#paint2_linear_387_14759)"/>
<path fill-rule="evenodd" clip-rule="evenodd" d="M252.073 -166.521C253.086 -62.4691 281.706 70.1237 337.711 206.58C393.716 343.035 466.483 457.47 538.837 532.179C575.016 569.535 611.07 596.938 644.853 612.206C678.634 627.473 710.094 630.587 737.144 619.461C764.195 608.335 784.38 583.979 797.681 549.347C810.983 514.713 817.378 469.851 816.871 417.823C815.858 313.771 787.238 181.179 731.233 44.7228C675.228 -91.733 602.461 -206.168 530.107 -280.877C493.928 -318.233 457.874 -345.635 424.091 -360.903C390.31 -376.171 358.85 -379.285 331.8 -368.159C304.749 -357.033 284.564 -332.677 271.263 -298.045C257.961 -263.411 251.566 -218.549 252.073 -166.521ZM270.22 -298.447C283.59 -333.259 303.948 -357.914 331.375 -369.194C358.801 -380.475 390.594 -377.27 424.55 -361.923C458.504 -346.578 494.671 -319.072 530.908 -281.656C603.384 -206.821 676.221 -92.2558 732.266 44.2979C788.312 180.852 816.973 313.587 817.988 417.813C818.496 469.925 812.093 514.94 798.724 549.75C785.354 584.561 764.996 609.216 737.569 620.496C710.143 631.777 678.35 628.572 644.395 613.226C610.44 597.88 574.273 570.374 538.036 532.958C465.56 458.123 392.723 343.558 336.678 207.004C280.632 70.4506 251.971 -62.2844 250.956 -166.511C250.448 -218.623 256.851 -263.638 270.22 -298.447Z" fill="url(#paint3_linear_387_14759)"/>
<path fill-rule="evenodd" clip-rule="evenodd" d="M321.809 -195.31C340.664 -98.5587 380.332 29.5279 436.348 166.009C492.363 302.491 554.109 421.497 608.648 503.571C635.92 544.613 661.374 576.395 683.393 596.511C694.403 606.57 704.53 613.689 713.575 617.598C722.618 621.507 730.521 622.185 737.142 619.461C743.764 616.738 748.909 610.694 752.594 601.55C756.281 592.404 758.483 580.214 759.248 565.311C760.779 535.509 756.56 494.993 747.131 446.613C728.276 349.861 688.608 221.775 632.592 85.2933C576.577 -51.188 514.831 -170.194 460.292 -252.269C433.02 -293.31 407.566 -325.092 385.547 -345.208C374.537 -355.267 364.41 -362.386 355.365 -366.296C346.322 -370.205 338.419 -370.882 331.798 -368.159C325.176 -365.435 320.031 -359.391 316.346 -350.247C312.66 -341.101 310.457 -328.911 309.692 -314.008C308.161 -284.207 312.38 -243.691 321.809 -195.31ZM315.31 -350.667C319.061 -359.974 324.375 -366.316 331.373 -369.194C338.37 -372.072 346.603 -371.302 355.807 -367.323C365.01 -363.345 375.243 -356.136 386.3 -346.035C408.416 -325.829 433.929 -293.961 461.222 -252.889C515.813 -170.736 577.591 -51.6597 633.626 84.8685C689.66 221.397 729.354 349.556 748.228 446.399C757.664 494.816 761.902 535.435 760.364 565.37C759.595 580.335 757.381 592.663 753.63 601.97C749.879 611.277 744.565 617.619 737.567 620.497C730.57 623.375 722.337 622.605 713.133 618.626C703.93 614.648 693.697 607.439 682.64 597.337C660.524 577.132 635.011 545.264 607.718 504.191C553.127 422.038 491.349 302.962 435.315 166.434C379.28 29.906 339.586 -98.2532 320.712 -195.097C311.276 -243.514 307.038 -284.133 308.576 -314.067C309.345 -329.033 311.559 -341.361 315.31 -350.667Z" fill="url(#paint4_linear_387_14759)"/>
<path fill-rule="evenodd" clip-rule="evenodd" d="M332.1 -368.889L737.869 619.767L736.836 620.192L331.067 -368.464L332.1 -368.889Z" fill="url(#paint5_linear_387_14759)"/>
<defs>
<linearGradient id="paint0_linear_387_14759" x1="414.41" y1="-41.4797" x2="733.674" y2="618.722" gradientUnits="userSpaceOnUse">
<stop stop-color="#0645F8" stop-opacity="0.17"/>
<stop offset="1" stop-color="#00FFFF"/>
</linearGradient>
<linearGradient id="paint1_linear_387_14759" x1="414.41" y1="-41.4797" x2="733.674" y2="618.722" gradientUnits="userSpaceOnUse">
<stop stop-color="#0645F8" stop-opacity="0.17"/>
<stop offset="1" stop-color="#00FFFF"/>
</linearGradient>
<linearGradient id="paint2_linear_387_14759" x1="414.41" y1="-41.4797" x2="733.674" y2="618.722" gradientUnits="userSpaceOnUse">
<stop stop-color="#0645F8" stop-opacity="0.17"/>
<stop offset="1" stop-color="#00FFFF"/>
</linearGradient>
<linearGradient id="paint3_linear_387_14759" x1="414.41" y1="-41.4797" x2="733.674" y2="618.722" gradientUnits="userSpaceOnUse">
<stop stop-color="#0645F8" stop-opacity="0.17"/>
<stop offset="1" stop-color="#00FFFF"/>
</linearGradient>
<linearGradient id="paint4_linear_387_14759" x1="414.41" y1="-41.4797" x2="733.674" y2="618.722" gradientUnits="userSpaceOnUse">
<stop stop-color="#0645F8" stop-opacity="0.17"/>
<stop offset="1" stop-color="#00FFFF"/>
</linearGradient>
<linearGradient id="paint5_linear_387_14759" x1="414.41" y1="-41.4797" x2="733.674" y2="618.722" gradientUnits="userSpaceOnUse">
<stop stop-color="#0645F8" stop-opacity="0.17"/>
<stop offset="1" stop-color="#00FFFF"/>
</linearGradient>
</defs>
</svg>
