<svg width="82" height="16" viewBox="0 0 82 16" fill="none" xmlns="http://www.w3.org/2000/svg">
<path d="M1 7C0.447715 7 5.14311e-08 7.44772 0 8C-5.14311e-08 8.55228 0.447715 9 1 9L1 7ZM81.7071 8.70711C82.0976 8.31659 82.0976 7.68343 81.7071 7.2929L75.3431 0.928939C74.9526 0.538415 74.3195 0.538415 73.9289 0.928939C73.5384 1.31946 73.5384 1.95263 73.9289 2.34315L79.5858 8.00001L73.9289 13.6569C73.5384 14.0474 73.5384 14.6806 73.9289 15.0711C74.3195 15.4616 74.9526 15.4616 75.3431 15.0711L81.7071 8.70711ZM1 9L81 9.00001L81 7.00001L1 7L1 9Z" fill="#2F5BD8"/>
</svg>
