<svg width="287" height="29" viewBox="0 0 287 29" fill="none" xmlns="http://www.w3.org/2000/svg">
<path fill-rule="evenodd" clip-rule="evenodd" d="M24.5 20.5H0V19.5H24.5V20.5Z" fill="#828FA1"/>
<path fill-rule="evenodd" clip-rule="evenodd" d="M31.1494 19.5H24.5V20.5H31.1494C35.0629 20.5 38.8947 19.3798 42.192 17.2717L62.8395 4.07082C65.9759 2.06557 69.6208 1 73.3434 1H80.5V0H73.3434C69.4299 0 65.5981 1.12022 62.3008 3.2283L41.6533 16.4292C38.5169 18.4344 34.872 19.5 31.1494 19.5Z" fill="#828FA1"/>
<path fill-rule="evenodd" clip-rule="evenodd" d="M206.5 1H80.5V0H206.5V1Z" fill="#828FA1"/>
<path d="M91.2891 20L88.5684 9.98535H90.4141L92.3555 17.7783L94.6387 10.0332H96.4092L98.5762 17.8057L100.559 9.98535H102.404L99.6016 20H97.6807L95.541 12.665L93.1963 20H91.2891ZM104.031 20V9.98535H105.883V14.0801H110.409V9.98535H112.261V20H110.409V15.543H105.883V20H104.031ZM113.881 20L117.565 9.97852H119.582L123.212 20H121.311L120.32 17.1699H116.813L115.815 20H113.881ZM117.278 15.7891H119.849C119.028 13.1595 118.607 11.8014 118.584 11.7148L117.278 15.7891ZM126.158 20V11.4688H123.239V9.98535H130.922V11.4688H128.017V20H126.158ZM138.632 20L135.911 9.98535H137.757L139.698 17.7783L141.982 10.0332H143.752L145.919 17.8057L147.902 9.98535H149.747L146.945 20H145.024L142.884 12.665L140.539 20H138.632ZM151.374 20V9.98535H157.444L157.369 11.4551H153.226V14.0391H157.164V15.5088H153.226V18.5234H157.519L157.458 20H151.374ZM162.973 20L166.658 9.97852H168.674L172.304 20H170.404L169.413 17.1699H165.906L164.908 20H162.973ZM166.371 15.7891H168.941C168.121 13.1595 167.699 11.8014 167.676 11.7148L166.371 15.7891ZM173.814 20V9.95801H177.526C178.032 9.95801 178.47 9.98079 178.839 10.0264C179.213 10.0719 179.566 10.1562 179.898 10.2793C180.236 10.3978 180.507 10.5596 180.712 10.7646C180.922 10.9697 181.086 11.2386 181.204 11.5713C181.327 11.8994 181.389 12.2891 181.389 12.7402C181.389 14.071 180.785 14.946 179.577 15.3652C179.823 15.6432 180.129 16.1582 180.493 16.9102L181.983 20H179.96L178.791 17.3818C178.349 16.443 178.075 15.887 177.971 15.7139C177.893 15.7093 177.636 15.707 177.198 15.707L175.646 15.6934V20H173.814ZM177.69 14.3672C178.401 14.3672 178.912 14.2419 179.222 13.9912C179.532 13.736 179.686 13.3281 179.686 12.7676C179.686 12.2754 179.529 11.9131 179.215 11.6807C178.9 11.4482 178.42 11.332 177.772 11.332H175.646V14.3604C175.715 14.3604 176.054 14.3626 176.665 14.3672C177.276 14.3672 177.617 14.3672 177.69 14.3672ZM183.87 20V9.98535H189.94L189.865 11.4551H185.722V14.0391H189.66V15.5088H185.722V18.5234H190.015L189.954 20H183.87ZM193.432 16.9375C193.478 16.5775 193.576 16.2129 193.726 15.8438C193.877 15.4746 194.041 15.1419 194.219 14.8457C194.401 14.5495 194.579 14.2624 194.752 13.9844C194.93 13.7064 195.075 13.4307 195.189 13.1572C195.308 12.8792 195.367 12.624 195.367 12.3916C195.362 11.9906 195.235 11.6738 194.984 11.4414C194.738 11.209 194.394 11.0928 193.952 11.0928C193.669 11.0928 193.396 11.1292 193.132 11.2021C192.867 11.2705 192.665 11.3389 192.523 11.4072C192.387 11.4756 192.229 11.5645 192.052 11.6738L191.573 10.5391C191.947 10.2975 192.334 10.1175 192.735 9.99902C193.136 9.87598 193.606 9.81445 194.143 9.81445C194.467 9.81445 194.781 9.86458 195.087 9.96484C195.397 10.0605 195.679 10.2018 195.934 10.3887C196.194 10.571 196.402 10.8148 196.556 11.1201C196.716 11.4255 196.796 11.7695 196.796 12.1523C196.796 12.4622 196.741 12.7676 196.632 13.0684C196.522 13.3691 196.372 13.6654 196.181 13.957C195.989 14.2487 195.786 14.5335 195.572 14.8115C195.362 15.0895 195.125 15.4222 194.861 15.8096C194.601 16.1924 194.378 16.5684 194.191 16.9375H193.432ZM193.795 20.123C193.499 20.123 193.248 20.0205 193.043 19.8154C192.838 19.6104 192.735 19.3665 192.735 19.084C192.735 18.7969 192.838 18.5485 193.043 18.3389C193.248 18.1292 193.499 18.0244 193.795 18.0244C194.086 18.0244 194.333 18.1292 194.533 18.3389C194.734 18.5485 194.834 18.7969 194.834 19.084C194.834 19.3665 194.734 19.6104 194.533 19.8154C194.333 20.0205 194.086 20.123 193.795 20.123Z" fill="#00FFFF"/>
<path fill-rule="evenodd" clip-rule="evenodd" d="M213.149 1H206.5V0H213.149C217.063 0 220.895 1.12022 224.192 3.2283L244.84 16.4292C247.976 18.4344 251.621 19.5 255.343 19.5H262.5V20.5H255.343C251.43 20.5 247.598 19.3798 244.301 17.2717L223.653 4.07082C220.517 2.06557 216.872 1 213.149 1Z" fill="#828FA1"/>
<path fill-rule="evenodd" clip-rule="evenodd" d="M287 20.5H262.5V19.5H287V20.5Z" fill="#828FA1"/>
</svg>
