<svg width="134" height="114" viewBox="0 0 134 114" fill="none" xmlns="http://www.w3.org/2000/svg">
<path fill-rule="evenodd" clip-rule="evenodd" d="M108.462 46.961C109.103 48.5328 110.225 49.8594 111.667 50.7503C114.448 51.9713 117.277 49.8468 118.119 46.4309C118.526 44.7798 118.4 43.0436 117.76 41.4718C117.12 39.9 115.997 38.5734 114.555 37.6825C111.774 36.4616 108.946 38.5861 108.103 42.0019C107.696 43.6531 107.822 45.3892 108.462 46.961ZM117.174 41.7107C117.763 43.1583 117.879 44.7578 117.504 46.2794C117.113 47.8639 116.272 49.1061 115.259 49.8095C114.272 50.4948 113.117 50.6795 111.962 50.188C110.652 49.3679 109.633 48.1559 109.049 46.7222C108.459 45.2745 108.343 43.6751 108.718 42.1535C109.109 40.5689 109.95 39.3268 110.963 38.6234C111.95 37.9381 113.105 37.7534 114.26 38.2449C115.57 39.065 116.59 40.2769 117.174 41.7107Z" fill="#2F5BD8"/>
<path fill-rule="evenodd" clip-rule="evenodd" d="M88.1289 33.1346C88.5361 31.4834 88.4104 29.7473 87.7701 28.1755C87.1298 26.6037 86.0076 25.2771 84.5649 24.3862C81.7843 23.1652 78.9558 25.2897 78.1136 28.7055C77.7065 30.3567 77.8321 32.0929 78.4725 33.6647C79.1128 35.2365 80.2349 36.5631 81.6777 37.454C84.4582 38.6749 87.2868 36.5504 88.1289 33.1346ZM81.972 36.8916C83.127 37.3831 84.2822 37.1984 85.2691 36.5131C86.2821 35.8097 87.1237 34.5676 87.5143 32.983C87.8895 31.4614 87.7736 29.862 87.1839 28.4143C86.5998 26.9806 85.5806 25.7686 84.2705 24.9486C83.1156 24.457 81.9603 24.6417 80.9734 25.327C79.9605 26.0304 79.1189 27.2726 78.7282 28.8571C78.3531 30.3787 78.4689 31.9782 79.0587 33.4258C79.6428 34.8596 80.662 36.0715 81.972 36.8916Z" fill="#2F5BD8"/>
<path fill-rule="evenodd" clip-rule="evenodd" d="M101.557 79.9823C102.197 81.5541 103.319 82.8807 104.762 83.7716C107.543 84.9925 110.371 82.868 111.213 79.4522C111.62 77.8011 111.495 76.0649 110.854 74.4931C110.214 72.9213 109.092 71.5947 107.649 70.7038C104.869 69.4829 102.04 71.6074 101.198 75.0232C100.791 76.6744 100.916 78.4105 101.557 79.9823ZM110.268 74.732C110.858 76.1796 110.974 77.7791 110.599 79.3007C110.208 80.8852 109.366 82.1274 108.353 82.8307C107.367 83.5161 106.211 83.7008 105.056 83.2092C103.746 82.3892 102.727 81.1772 102.143 79.7435C101.553 78.2958 101.437 76.6963 101.813 75.1748C102.203 73.5902 103.045 72.3481 104.058 71.6447C105.045 70.9594 106.2 70.7747 107.355 71.2662C108.665 72.0862 109.684 73.2982 110.268 74.732Z" fill="#2F5BD8"/>
<path d="M71.6288 61.7377C71.2536 63.2593 71.3695 64.8588 71.9592 66.3064C72.5433 67.7402 73.5625 68.9521 74.8726 69.7722C76.0275 70.2637 77.1828 70.079 78.1697 69.3937C79.1826 68.6903 80.0242 67.4482 80.4149 65.8637L81.0295 66.0152C80.1873 69.431 77.3588 71.5555 74.5782 70.3346C73.1354 69.4437 72.0133 68.1171 71.373 66.5453C70.7327 64.9735 70.607 63.2373 71.0142 61.5862C71.8563 58.1704 74.6849 56.0459 77.4654 57.2668C78.9082 58.1577 80.0303 59.4843 80.6706 61.0561C81.311 62.6279 81.4366 64.364 81.0295 66.0152L80.4149 65.8637C80.79 64.3421 80.6742 62.7426 80.0844 61.2949C79.5003 59.8612 78.4811 58.6492 77.1711 57.8292C76.0161 57.3376 74.8609 57.5224 73.874 58.2077C72.861 58.911 72.0194 60.1532 71.6288 61.7377Z" fill="#2F5BD8"/>
<path fill-rule="evenodd" clip-rule="evenodd" d="M120.768 25.2863C123.365 26.5584 125.477 28.6413 126.786 31.2219C128.095 33.8025 128.53 36.7414 128.027 39.597L116.593 93.1444C116.392 94.3961 115.898 95.5834 115.152 96.6095C114.406 97.6356 113.429 98.4714 112.3 99.0488C111.171 99.6261 109.923 99.9286 108.657 99.9317C107.392 99.9347 106.144 99.6382 105.016 99.0662L68.3969 82.7523C65.7999 81.4801 63.6883 79.3973 62.3793 76.8166C61.0704 74.236 60.6348 71.2971 61.1382 68.4416L72.5723 14.8942C72.7735 13.6425 73.2672 12.4552 74.0133 11.4291C74.7593 10.403 75.7365 9.56715 76.8651 8.9898C77.9938 8.41244 79.2419 8.10991 80.5077 8.10688C81.7735 8.10384 83.0211 8.40038 84.1487 8.97232L120.768 25.2863ZM73.1948 15.0106L61.7597 68.5625C61.2831 71.2799 61.6988 74.0755 62.9439 76.5303C64.1889 78.985 66.1964 80.9667 68.6651 82.1788L105.288 98.4945L105.303 98.5017C106.341 99.0283 107.49 99.3015 108.656 99.2987C109.822 99.2959 110.972 99.0172 112.012 98.4852C113.052 97.9532 113.952 97.1829 114.64 96.2372C115.327 95.2915 115.782 94.1973 115.968 93.0439L115.97 93.028L127.405 39.4761C127.882 36.7587 127.466 33.9631 126.221 31.5083C124.976 29.0536 122.969 27.0718 120.5 25.8598L83.8766 9.54409L83.8624 9.53689C82.824 9.01024 81.6751 8.7371 80.5092 8.7399C79.3433 8.7427 78.1934 9.02136 77.1534 9.55336C76.1134 10.0854 75.2128 10.8556 74.5253 11.8013C73.8377 12.747 73.3827 13.8412 73.1973 14.9946L73.1948 15.0106Z" fill="#2F5BD8"/>
<path fill-rule="evenodd" clip-rule="evenodd" d="M62.0705 99.1926C64.1636 98.9705 64.0044 97.9603 61.6843 96.9242C59.1706 95.8589 56.451 95.3636 53.72 95.4737C51.627 95.6958 51.7861 96.706 54.1062 97.7421C56.6199 98.8073 59.3395 99.3026 62.0705 99.1926ZM61.4317 97.5046C59.0122 96.4803 56.3952 96.0026 53.7666 96.1054C53.3571 96.1503 53.099 96.2234 52.9537 96.2901C52.9961 96.3384 53.0624 96.4038 53.1653 96.4852C53.4169 96.6841 53.8086 96.9156 54.3588 97.1617C56.7784 98.186 59.3954 98.6637 62.024 98.5609C62.4334 98.516 62.6915 98.4429 62.8368 98.3762C62.7944 98.3279 62.7281 98.2625 62.6252 98.1811C62.3737 97.9822 61.9819 97.7507 61.4317 97.5046Z" fill="#2F5BD8"/>
<path fill-rule="evenodd" clip-rule="evenodd" d="M83.7078 101.461C86.0279 102.497 86.1871 103.508 84.094 103.73C81.363 103.84 78.6434 103.344 76.1297 102.279C73.8096 101.243 73.6504 100.233 75.7435 100.011C78.4745 99.9006 81.1941 100.396 83.7078 101.461ZM84.0474 103.098C81.4188 103.201 78.8018 102.723 76.3823 101.699C75.8321 101.453 75.4403 101.221 75.1888 101.022C75.0859 100.941 75.0196 100.875 74.9772 100.827C75.1224 100.76 75.3806 100.687 75.79 100.642C78.4186 100.54 81.0356 101.017 83.4552 102.042C84.0054 102.288 84.3971 102.519 84.6487 102.718C84.7516 102.799 84.8179 102.865 84.8603 102.913C84.715 102.98 84.4569 103.053 84.0474 103.098Z" fill="#2F5BD8"/>
<path fill-rule="evenodd" clip-rule="evenodd" d="M59.1083 92.6194C61.2013 92.3973 61.0422 91.3871 58.7221 90.351C56.2084 89.2857 53.4888 88.7904 50.7578 88.9005C48.6647 89.1225 48.8239 90.1328 51.144 91.1689C53.6577 92.2341 56.3773 92.7294 59.1083 92.6194ZM51.3966 90.5884C53.8161 91.6128 56.4331 92.0905 59.0617 91.9877C59.4712 91.9428 59.7293 91.8697 59.8746 91.803C59.8322 91.7547 59.7659 91.6892 59.663 91.6079C59.4114 91.409 59.0197 91.1775 58.4695 90.9314C56.0499 89.9071 53.433 89.4293 50.8043 89.5321C50.3949 89.577 50.1368 89.6502 49.9915 89.7169C50.0339 89.7651 50.1002 89.8306 50.2031 89.912C50.4546 90.1108 50.8464 90.3423 51.3966 90.5884Z" fill="#2F5BD8"/>
<path fill-rule="evenodd" clip-rule="evenodd" d="M64.7709 103.536C67.0909 104.572 67.2501 105.582 65.1571 105.805C62.426 105.916 59.7061 105.421 57.1927 104.354C54.8727 103.318 54.7135 102.308 56.8066 102.086C59.5377 101.974 62.2575 102.47 64.7709 103.536ZM65.1104 105.173C62.4817 105.277 59.8646 104.799 57.4455 103.774C56.8952 103.528 56.5034 103.296 56.2519 103.097C56.149 103.016 56.0826 102.95 56.0403 102.902C56.1856 102.835 56.4437 102.762 56.8533 102.717C59.4819 102.613 62.099 103.091 64.5181 104.116C65.0684 104.363 65.4602 104.594 65.7117 104.793C65.8147 104.874 65.881 104.94 65.9233 104.988C65.7781 105.055 65.5199 105.128 65.1104 105.173Z" fill="#2F5BD8"/>
<path fill-rule="evenodd" clip-rule="evenodd" d="M39.7175 92.379C37.2038 91.3138 34.4842 90.8185 31.7532 90.9285C29.6601 91.1506 29.8193 92.1608 32.1393 93.1969C34.6531 94.2622 37.3726 94.7575 40.1037 94.6475C42.1967 94.4254 42.0375 93.4152 39.7175 92.379ZM40.0571 94.0158C40.4665 93.9709 40.7247 93.8978 40.8699 93.8311C40.8276 93.7828 40.7613 93.7173 40.6583 93.6359C40.4068 93.4371 40.015 93.2056 39.4648 92.9595C37.0453 91.9352 34.4283 91.4574 31.7997 91.5602C31.3903 91.6051 31.1321 91.6782 30.9869 91.7449C31.0292 91.7932 31.0955 91.8587 31.1985 91.94C31.45 92.1389 31.8418 92.3704 32.392 92.6165C34.8115 93.6408 37.4285 94.1186 40.0571 94.0158Z" fill="#2F5BD8"/>
<path fill-rule="evenodd" clip-rule="evenodd" d="M94.4698 101.858C99.6354 104.162 99.2924 106.548 93.6066 107.147L71.5777 109.516C64.8588 109.953 58.1315 108.894 51.8794 106.417L21.3229 92.8089C16.1573 90.5047 16.5003 88.1189 22.1536 87.4959L44.2149 85.1506C50.9339 84.7138 57.6612 85.7723 63.9133 88.2499L94.4698 101.858ZM93.5389 106.518L71.5234 108.885C64.9066 109.313 58.2821 108.271 52.1248 105.833L21.5807 92.2308C20.3198 91.6683 19.4417 91.1203 18.907 90.6284C18.3545 90.1201 18.2816 89.7833 18.307 89.6174C18.332 89.4529 18.4998 89.155 19.1794 88.8388C19.8374 88.5327 20.8418 88.2774 22.2216 88.1253L44.2689 85.7814C50.8858 85.3533 57.5104 86.3956 63.6679 88.8336L94.2119 102.436C95.4731 102.998 96.3509 103.546 96.8851 104.038C97.4375 104.546 97.5077 104.881 97.4821 105.043C97.4567 105.205 97.2881 105.502 96.603 105.816C95.9401 106.12 94.929 106.371 93.5402 106.518L93.5389 106.518Z" fill="#2F5BD8"/>
<path fill-rule="evenodd" clip-rule="evenodd" d="M23.7831 21.9183C22.3656 23.4946 21.3975 25.4229 20.9809 27.5003C20.5643 29.5776 20.7145 31.7272 21.4157 33.7227C23.0564 36.6522 26.7761 36.1681 29.6965 32.6189C31.114 31.0426 32.082 29.1143 32.4987 27.0369C32.9153 24.9596 32.7651 22.81 32.0639 20.8146C30.4232 17.885 26.7035 18.3691 23.7831 21.9183ZM24.2538 22.3416L23.7831 21.9183L24.2719 22.3205C25.6668 20.6253 27.1944 19.7354 28.4864 19.5645C29.7163 19.4018 30.7916 19.8753 31.4851 21.0773C32.1327 22.9503 32.2686 24.9648 31.878 26.9125C31.4837 28.8785 30.5675 30.7036 29.2258 32.1956L29.2165 32.2059L29.2077 32.2167C27.8128 33.9119 26.2852 34.8018 24.9932 34.9727C23.7633 35.1355 22.688 34.662 21.9945 33.46C21.3469 31.5869 21.211 29.5725 21.6016 27.6248C21.9959 25.6587 22.9121 23.8336 24.2538 22.3416Z" fill="#2F5BD8"/>
<path d="M38.7027 59.4895C39.1193 57.4122 40.0873 55.4838 41.5048 53.9076L41.9755 54.3308C40.6338 55.8228 39.7176 57.6479 39.3233 59.614C38.9325 61.5629 39.0688 63.5785 39.7174 65.4525C40.3996 66.6672 41.472 67.1405 42.7045 66.9744C44.0001 66.7998 45.5341 65.9016 46.9294 64.2059L46.9389 64.1944L46.9489 64.1833C48.2999 62.6906 49.2235 60.8611 49.6219 58.8889C50.0166 56.935 49.8811 54.9133 49.2305 53.034C48.537 51.8319 47.4617 51.3584 46.2318 51.5211C44.9397 51.6921 43.4122 52.582 42.0172 54.2772L41.5284 53.875C44.4489 50.3258 48.1686 49.8417 49.8092 52.7712C50.5136 54.7732 50.6633 56.9304 50.2424 59.0143C49.8215 61.0981 48.8456 63.031 47.4182 64.6081C44.4978 68.1573 40.7545 68.674 39.1374 65.7119C38.4362 63.7164 38.286 61.5669 38.7027 59.4895Z" fill="#2F5BD8"/>
<path fill-rule="evenodd" clip-rule="evenodd" d="M29.2116 8.00976L57.6879 4.94754C58.9096 4.66885 60.1824 4.71991 61.3758 5.09547C62.5692 5.47104 63.6405 6.15762 64.48 7.08496C65.3195 8.0123 65.897 9.14709 66.1535 10.3732C66.41 11.5993 66.3362 12.8726 65.9397 14.0629L54.4289 67.3062C53.6702 70.1825 52.0882 72.7766 49.8778 74.7687C47.6675 76.7608 44.9253 78.0639 41.9892 78.5175L13.4156 81.5091C12.1938 81.7878 10.9211 81.7367 9.72768 81.3612C8.53425 80.9856 7.46297 80.299 6.62349 79.3717C5.784 78.4443 5.20646 77.3095 4.94997 76.0835C4.69349 74.8574 4.76726 73.584 5.16375 72.3937L16.8044 19.2446C17.5569 16.3684 19.1323 13.7725 21.3367 11.7763C23.5412 9.78019 26.2784 8.47095 29.2116 8.00976ZM53.8132 67.1584C53.0845 69.9102 51.5695 72.3919 49.454 74.2985C47.3389 76.2047 44.7161 77.4527 41.9078 77.8896L13.3118 80.8835L13.2748 80.8919C12.1624 81.1457 11.0038 81.0991 9.9177 80.7573C8.83159 80.4155 7.85672 79.7907 7.09278 78.9468C6.32883 78.103 5.80311 77.0701 5.56959 75.9538C5.33607 74.8376 5.40319 73.678 5.76433 72.5937L5.77494 72.5619L17.42 19.3926C18.1426 16.6404 19.6515 14.1563 21.7616 12.2456C23.8711 10.3354 26.4893 9.08161 29.2949 8.63749L57.7925 5.57296L57.8287 5.56471C58.9411 5.31096 60.0997 5.35751 61.1858 5.6993C62.2719 6.04109 63.2467 6.6659 64.0107 7.50979C64.7746 8.3537 65.3004 9.38655 65.5339 10.5028C65.7674 11.6191 65.7003 12.7787 65.3391 13.8629L65.3283 13.8955L53.8132 67.1584Z" fill="#2F5BD8"/>
<path fill-rule="evenodd" clip-rule="evenodd" d="M132.97 35.9473L132.969 35.9521L119.498 99.9711L119.494 99.9868C118.834 102.48 117.461 104.728 115.544 106.454C113.627 108.18 111.249 109.309 108.703 109.702L108.688 109.704L69.4949 113.916L69.4817 113.917C63.8365 114.286 58.1836 113.398 52.9301 111.316L52.9179 111.312L6.60023 90.7053L6.58988 90.7002C4.32217 89.5909 2.47763 87.7738 1.33322 85.5221C0.188818 83.2705 -0.193612 80.7061 0.242816 78.2139L0.244606 78.2036L13.6528 14.127L13.657 14.111C14.3165 11.6177 15.6894 9.36955 17.6065 7.64343C19.5237 5.91731 21.9017 4.78834 24.4479 4.39586L24.4623 4.39364L63.6558 0.181931L63.669 0.18107C69.3142 -0.188316 74.9671 0.699716 80.2206 2.78137L80.2317 2.78578L126.735 23.2772L126.749 23.284C129.026 24.4212 130.866 26.2741 131.99 28.5598C133.113 30.8455 133.457 33.4382 132.971 35.9425L132.97 35.9473ZM79.9874 3.36988L126.466 23.8503C128.619 24.9256 130.359 26.6776 131.422 28.839C132.484 31.0005 132.81 33.4527 132.349 35.8217L118.882 99.8249C118.254 102.199 116.946 104.34 115.121 105.984C113.295 107.628 111.03 108.703 108.606 109.076L69.4404 113.285C63.8886 113.648 58.3295 112.775 53.1633 110.728L6.86806 90.1316C4.72387 89.0827 2.97973 87.3646 1.89753 85.2353C0.815345 83.1061 0.453504 80.6806 0.86635 78.3231L14.269 14.2729C14.897 11.8985 16.2044 9.75766 18.0301 8.11388C19.8558 6.47008 22.1202 5.39517 24.5444 5.02149L63.7103 0.812744C69.2621 0.449475 74.8212 1.32281 79.9874 3.36988Z" fill="#2F5BD8"/>
</svg>
