<svg width="88" height="92" viewBox="0 0 88 92" fill="none" xmlns="http://www.w3.org/2000/svg">
<path fill-rule="evenodd" clip-rule="evenodd" d="M34.7859 30.1003C34.5412 30.2913 34.3016 30.4982 34.0644 30.7132C31.9528 32.6497 31.0254 38.2596 32.9676 44.33C33.0184 44.4885 33.071 44.6474 33.1257 44.8065L38.5575 40.5257C38.7879 40.3369 39.0565 40.2004 39.3445 40.1257C39.6325 40.0511 39.9329 40.0401 40.2248 40.0935C40.5167 40.1469 40.7929 40.2635 41.0343 40.4351C41.2757 40.6066 41.4764 40.829 41.6224 41.0868C41.9645 41.6206 42.0976 42.2628 41.9964 42.8912C41.8951 43.5195 41.5666 44.0902 41.0734 44.4946L35.1307 49.1783C35.0503 49.2252 35.0201 49.2859 35.139 49.4675L35.994 50.8163C36.0722 50.9385 36.1957 51.1006 36.3602 51.3165C36.6138 51.6494 36.9649 52.1103 37.3979 52.7502C37.4821 52.8748 37.5695 53.0062 37.6599 53.1447L43.5891 48.4741C43.8196 48.2853 44.0882 48.1488 44.3761 48.0741C44.6641 47.9995 44.9645 47.9885 45.2564 48.0419C45.5483 48.0953 45.8245 48.2119 46.066 48.3834C46.3074 48.555 46.5081 48.7774 46.654 49.0352C46.9972 49.5689 47.1312 50.2115 47.0304 50.8405C46.9296 51.4694 46.6011 52.0408 46.1076 52.4457L40.7325 56.6713C40.8596 56.7723 40.9885 56.8712 41.1189 56.9679C44.8472 59.7327 49.8569 60.742 52.1464 59.206C52.3396 59.0755 52.5276 58.9396 52.7051 58.7983C56.1036 56.1208 57.0224 51.7537 57.0947 51.4099L57.0973 51.3976C58.0859 51.2969 59.973 52.4764 60.0701 52.5385C61.0266 53.1567 61.817 53.9991 62.3732 54.9931L62.3728 54.9965C62.3314 55.3291 61.6372 60.9206 55.3401 65.8852C49.8411 70.2156 40.645 72.6386 32.1623 63.4459L31.2721 64.1498C31.0416 64.338 30.773 64.474 30.4852 64.5482C30.1974 64.6224 29.8973 64.633 29.6057 64.5793C29.3142 64.5257 29.0383 64.409 28.7972 64.2375C28.5561 64.0659 28.3557 63.8437 28.2099 63.5861C27.8567 63.0525 27.715 62.4055 27.8121 61.7706C27.9092 61.1356 28.2383 60.5577 28.7356 60.1489L29.2304 59.7563C28.6419 58.8588 28.1638 58.0723 27.8197 57.5063L27.8193 57.5056C27.6617 57.2464 27.5323 57.0335 27.4333 56.8775L27.1336 56.4074C27.0767 56.3171 27.0242 56.2377 26.9767 56.1686C26.8806 56.0284 26.8056 55.9303 26.7583 55.8682C26.7177 55.8151 26.6974 55.7885 26.7013 55.7847L26.2119 56.1719C25.9841 56.3565 25.7196 56.4903 25.4364 56.5642C25.1531 56.6381 24.8577 56.6504 24.57 56.6002C24.2824 56.5501 24.0092 56.4387 23.7691 56.2735C23.529 56.1084 23.3275 55.8934 23.1782 55.6431C22.8355 55.1098 22.7015 54.468 22.8018 53.8397C22.902 53.2113 23.2295 52.6403 23.7219 52.2352L24.569 51.5679C18.7106 38.2949 23.9563 29.5374 29.4903 25.1782C35.61 20.3586 40.089 20.6957 40.5966 20.7339L40.6238 20.7359L40.6335 20.7365C41.273 21.6733 41.6901 22.7445 41.8533 23.8691L41.8564 23.8951C41.891 24.1803 42.1552 26.3597 41.7596 27.3296C39.2142 27.5351 36.7845 28.5004 34.7859 30.1003ZM41.5304 42.8161C41.4477 43.329 41.18 43.7955 40.7774 44.1269L34.8577 48.7925C34.7612 48.8565 34.6045 48.9947 34.589 49.2429C34.576 49.4502 34.677 49.6232 34.7421 49.723L35.5953 51.069L35.5964 51.0707C35.6857 51.2102 35.8279 51.397 36 51.6227L36.0008 51.6238C36.0672 51.711 36.1381 51.8041 36.2121 51.9025C36.4895 52.2715 36.844 52.7579 37.2645 53.4026L37.5465 53.8348L43.8847 48.8421L43.8883 48.8392C44.0659 48.6937 44.2729 48.5885 44.4946 48.531C44.7163 48.4736 44.9473 48.4652 45.1714 48.5062C45.3955 48.5472 45.6075 48.6367 45.7925 48.7682C45.9776 48.8997 46.1314 49.0702 46.2433 49.2678L46.2498 49.2793L46.257 49.2904C46.5371 49.7261 46.6468 50.2511 46.5643 50.7658C46.4821 51.2791 46.2144 51.746 45.8118 52.0778L39.9712 56.6694L40.4389 57.0409C42.3767 58.5803 44.7038 59.6421 46.8598 60.1162C48.9914 60.5849 51.064 60.5006 52.4093 59.598L52.4106 59.5972C52.6116 59.4614 52.8096 59.3184 52.9984 59.1681C56.0401 56.7709 57.1656 53.0964 57.4688 51.8876C57.5743 51.906 57.6941 51.9352 57.8268 51.9759C58.114 52.064 58.4227 52.1936 58.7146 52.3329C59.2944 52.6098 59.7701 52.907 59.815 52.9357C60.6627 53.4837 61.3703 54.2207 61.8835 55.0884C61.7372 56.0391 60.7364 61.0296 55.0481 65.5143C52.3597 67.6314 48.786 69.2666 44.8703 69.2647C40.9708 69.2627 36.6723 67.6373 32.5091 63.1258L32.2125 62.8044L30.9765 63.7818L30.9736 63.7842C30.7959 63.9293 30.589 64.034 30.3674 64.0911C30.1458 64.1482 29.9151 64.1563 29.6912 64.1151C29.4673 64.0739 29.2557 63.9844 29.0709 63.8529C28.8861 63.7214 28.7324 63.551 28.6207 63.3536L28.6126 63.3393L28.6035 63.3257C28.3153 62.8901 28.1992 62.3615 28.2787 61.8419C28.358 61.3235 28.6263 60.851 29.0323 60.516L29.8616 59.8581L29.6251 59.4975C29.0398 58.6049 28.5761 57.8418 28.2343 57.2793C28.073 57.014 27.9389 56.7933 27.8319 56.6246L27.5329 56.1556L27.5323 56.1546C27.3886 55.9269 27.2704 55.7635 27.1892 55.6553C27.1691 55.6285 27.1515 55.6054 27.137 55.5865L27.1342 55.5828C27.1206 55.565 27.1115 55.5531 27.1046 55.5438C27.1003 55.538 27.0992 55.5364 27.0992 55.5364C27.0992 55.5364 27.1032 55.5422 27.1077 55.5495L27.108 55.5499C27.1085 55.5508 27.0977 55.537 27.0795 55.5138C26.9933 55.404 26.7422 55.084 26.755 55.1194L26.5858 55.2839L26.4084 55.4145L25.9189 55.8018L25.9147 55.8052C25.7391 55.9475 25.5353 56.0506 25.3172 56.1075C25.0992 56.1643 24.872 56.1737 24.6511 56.1352C24.4302 56.0967 24.2207 56.0112 24.0366 55.8846C23.8525 55.758 23.698 55.5932 23.5836 55.4013L23.5796 55.3945L23.5753 55.3879C23.2956 54.9527 23.1858 54.4282 23.2679 53.914C23.3497 53.4013 23.6165 52.9347 24.0181 52.6027L25.1486 51.7122L25.0008 51.3773C22.1103 44.8284 21.9748 39.4349 23.2109 35.1616C24.4491 30.8811 27.0765 27.6804 29.7823 25.549C32.8904 23.1012 35.5522 22.0176 37.4504 21.5441C38.9093 21.1801 39.926 21.1738 40.369 21.1929C40.8959 22.0217 41.2425 22.9541 41.3851 23.9298L41.3876 23.9503C41.4045 24.0902 41.4712 24.6411 41.4946 25.2831C41.5074 25.6341 41.5069 26.0039 41.4797 26.3415C41.4629 26.5501 41.4367 26.7344 41.4019 26.8889C38.8799 27.1542 36.4809 28.1396 34.4931 29.73C34.2371 29.9299 33.989 30.1445 33.7474 30.3634L33.7454 30.3653C32.5353 31.475 31.7438 33.5763 31.5071 36.1169C31.2682 38.6803 31.5846 41.7739 32.6793 44.9598L32.8954 45.5889L38.8532 40.8937L38.8566 40.8908C39.0343 40.7453 39.2413 40.6401 39.463 40.5827C39.6847 40.5252 39.9157 40.5168 40.1398 40.5578C40.3639 40.5988 40.5759 40.6883 40.7609 40.8198C40.9459 40.9513 41.0998 41.1218 41.2117 41.3194L41.2181 41.3306L41.225 41.3414C41.5042 41.7771 41.6132 42.3019 41.5304 42.8161Z" fill="url(#paint0_radial_387_15659)"/>
<path fill-rule="evenodd" clip-rule="evenodd" d="M20.4932 13.097C36.8885 0.16055 59.537 4.47098 71.0851 22.7227C82.6331 40.9745 78.7011 66.2576 62.3059 79.194C45.9106 92.1305 23.2645 87.8177 11.7165 69.5659C0.168399 51.3141 4.10039 26.031 20.4932 13.097ZM20.7533 13.4276C36.9372 0.657973 59.3032 4.89311 70.7279 22.95C82.1679 41.031 78.2599 66.0699 62.0458 78.8634C45.862 91.633 23.4984 87.3956 12.0736 69.3386C0.633565 51.2576 4.54162 26.2187 20.7533 13.4276Z" fill="url(#paint1_radial_387_15659)"/>
<path fill-rule="evenodd" clip-rule="evenodd" d="M17.3357 8.96331C25.2308 2.74263 34.4411 0.121707 43.4043 0.797964C43.6733 0.784416 43.9424 0.771718 44.2114 0.760201C45.6349 0.69927 47.0577 0.671483 48.4763 0.726677C51.3959 0.848656 54.2889 1.31446 57.0952 2.11442C65.7517 4.56093 73.2668 10.1569 78.547 17.3732C83.383 24.0416 86.433 31.8421 87.4095 40.0395C88.4998 48.8535 87.2222 57.8135 83.7078 65.9995C80.1731 74.1363 74.2496 81.2684 66.6314 85.8862C63.1824 87.9869 59.092 89.1823 55.1627 90.0904C53.8158 90.1901 52.6197 90.3815 51.4594 90.5671C50.2676 90.7577 49.1135 90.9424 47.8723 91.0155C46.7295 91.0829 45.5846 91.1295 44.4403 91.176L44.1405 91.1882C30.3421 92.3711 16.3265 85.6423 7.72989 72.0954C-5.25292 51.6365 -0.949418 23.3701 17.3357 8.96331ZM73.5532 20.1713C60.709 -0.0691601 35.6798 -4.88959 17.6278 9.33402C-0.455298 23.5817 -4.7329 51.575 8.12844 71.8425C20.9727 92.0831 45.9992 96.906 64.0512 82.6825C82.137 68.4322 86.4146 40.4388 73.5532 20.1713ZM66.3259 81.4161C65.0345 82.5955 63.6497 83.6688 62.1924 84.6376C62.9192 84.1382 63.6365 83.6101 64.3433 83.0532C65.3851 82.2323 66.3815 81.3665 67.332 80.4597C67.0022 80.7835 66.6668 81.1023 66.3259 81.4161ZM56.9658 2.56836L56.9668 2.56865C65.5115 4.98355 72.9413 10.5115 78.1661 17.652C82.954 24.2546 85.9739 31.9784 86.9408 40.0953L86.941 40.0974C88.021 48.8275 86.7558 57.7027 83.2749 65.8115C79.7757 73.8664 73.9143 80.9197 66.3868 85.4826L66.3859 85.4831C62.9802 87.5574 58.937 88.7336 55.0573 89.6303C53.9867 89.6253 53.1451 89.8206 52.3239 90.0111C51.7677 90.1402 51.2207 90.2671 50.6184 90.3281C56.4367 88.6338 62.1433 85.8754 66.6442 81.7646L66.6455 81.7634C73.4009 75.5475 77.9881 67.3424 80.1399 58.4944L80.1403 58.493C82.2795 49.5742 82.0007 40.2606 79.3325 31.515C76.6747 22.7201 71.2735 14.5627 64.06 8.91321C59.079 5.01228 53.2029 2.31655 47.0036 1.16904C47.4884 1.17038 47.9731 1.17948 48.4577 1.19833C51.3399 1.31884 54.1956 1.7787 56.9658 2.56836Z" fill="url(#paint2_radial_387_15659)"/>
<defs>
<radialGradient id="paint0_radial_387_15659" cx="0" cy="0" r="1" gradientUnits="userSpaceOnUse" gradientTransform="translate(10.5 92.5) rotate(-53.455) scale(105.802 106.094)">
<stop stop-color="#032B96"/>
<stop offset="0.462005" stop-color="#2F5BD8"/>
<stop offset="1" stop-color="#00FFFF" stop-opacity="0.43"/>
</radialGradient>
<radialGradient id="paint1_radial_387_15659" cx="0" cy="0" r="1" gradientUnits="userSpaceOnUse" gradientTransform="translate(10.5 92.5) rotate(-53.455) scale(105.802 106.094)">
<stop stop-color="#032B96"/>
<stop offset="0.462005" stop-color="#2F5BD8"/>
<stop offset="1" stop-color="#00FFFF" stop-opacity="0.43"/>
</radialGradient>
<radialGradient id="paint2_radial_387_15659" cx="0" cy="0" r="1" gradientUnits="userSpaceOnUse" gradientTransform="translate(10.5 92.5) rotate(-53.455) scale(105.802 106.094)">
<stop stop-color="#032B96"/>
<stop offset="0.462005" stop-color="#2F5BD8"/>
<stop offset="1" stop-color="#00FFFF" stop-opacity="0.43"/>
</radialGradient>
</defs>
</svg>
