<svg width="264" height="253" viewBox="0 0 264 253" fill="none" xmlns="http://www.w3.org/2000/svg">
<path fill-rule="evenodd" clip-rule="evenodd" d="M133.972 70.1265C133.326 70.4652 132.685 70.843 132.046 71.2402C126.336 74.8394 121.827 87.4748 123.805 102.375C123.851 102.724 123.901 103.075 123.955 103.427L138.311 95.8131C138.923 95.4733 139.601 95.2706 140.298 95.219C140.996 95.1674 141.695 95.2682 142.347 95.5143C142.999 95.7605 143.589 96.146 144.075 96.644C144.561 97.1421 144.932 97.7406 145.161 98.3978C145.727 99.7757 145.765 101.316 145.267 102.726C144.769 104.137 143.77 105.318 142.46 106.046L126.753 114.377C126.548 114.451 126.452 114.579 126.651 115.049L128.061 118.526C128.19 118.841 128.408 119.268 128.697 119.836C129.153 120.73 129.787 121.974 130.538 123.687C130.667 123.98 130.799 124.287 130.934 124.609L146.604 116.302C147.216 115.963 147.894 115.76 148.591 115.708C149.288 115.657 149.988 115.758 150.64 116.004C151.292 116.25 151.882 116.635 152.368 117.133C152.854 117.631 153.224 118.23 153.454 118.887C154.023 120.265 154.062 121.807 153.565 123.219C153.068 124.631 152.069 125.814 150.757 126.542L136.556 134.053C136.782 134.311 137.013 134.567 137.247 134.818C144.705 142.828 155.919 147.306 161.878 144.708C162.379 144.488 162.871 144.252 163.341 144C172.322 139.238 176.281 129.528 176.593 128.764L176.604 128.736C178.932 128.919 182.799 132.439 182.998 132.623C184.949 134.454 186.422 136.734 187.291 139.265L187.288 139.273C187.053 140.024 183.099 152.659 166.455 161.491C151.923 169.192 129.645 170.93 113.896 146.114L111.543 147.367C110.931 147.706 110.253 147.907 109.556 147.958C108.86 148.008 108.161 147.907 107.51 147.66C106.858 147.414 106.27 147.028 105.784 146.53C105.299 146.032 104.929 145.434 104.7 144.778C104.108 143.395 104.052 141.84 104.543 140.413C105.035 138.986 106.038 137.788 107.36 137.052L108.669 136.352C107.685 134.03 106.91 132.011 106.353 130.558C106.097 129.892 105.887 129.345 105.724 128.942L105.228 127.729C105.117 127.452 105.013 127.214 104.921 127.012C104.778 126.699 104.663 126.473 104.587 126.325C104.515 126.185 104.48 126.115 104.49 126.108L103.196 126.798C102.592 127.129 101.924 127.327 101.239 127.379C100.553 127.431 99.8644 127.335 99.2205 127.098C98.5766 126.861 97.992 126.489 97.5062 126.006C97.0205 125.524 96.6449 124.942 96.405 124.3C95.8367 122.924 95.7967 121.384 96.2924 119.973C96.7882 118.563 97.7852 117.38 99.0939 116.65L101.332 115.464C93.3653 82.3173 109.172 64.2753 123.797 56.5226C139.97 47.9514 150.183 50.6127 151.34 50.9143C151.378 50.9241 151.406 50.9315 151.425 50.9358C152.509 53.37 153.024 56.0217 152.928 58.6903L152.925 58.7517C152.885 59.4266 152.58 64.5754 151.258 66.6511C145.287 66.0568 139.264 67.2676 133.972 70.1265ZM144.324 102.393C143.909 103.57 143.076 104.557 141.982 105.167L126.332 113.468C126.098 113.568 125.709 113.801 125.58 114.325C125.472 114.762 125.619 115.175 125.727 115.431L127.134 118.902L127.136 118.906C127.282 119.261 127.529 119.746 127.83 120.338C127.948 120.569 128.075 120.817 128.206 121.08C128.693 122.051 129.31 123.327 130.012 124.997L130.436 126.005L147.081 117.181L147.089 117.177C147.575 116.907 148.113 116.747 148.665 116.706C149.218 116.665 149.771 116.745 150.287 116.939C150.803 117.134 151.268 117.439 151.652 117.832C152.036 118.225 152.328 118.698 152.509 119.216L152.519 119.243L152.529 119.269C153.004 120.419 153.038 121.706 152.622 122.887C152.207 124.064 151.374 125.053 150.28 125.663L134.97 133.76L135.804 134.712C139.626 139.072 144.546 142.495 149.316 144.491C154.037 146.466 158.829 147.128 162.277 145.625L162.28 145.624C162.8 145.395 163.315 145.149 163.812 144.882C171.915 140.585 176.05 132.45 177.199 129.889C177.466 129.98 177.767 130.112 178.098 130.283C178.731 130.611 179.395 131.043 180.014 131.49C181.244 132.378 182.223 133.268 182.315 133.354C184.067 134.998 185.408 137.026 186.234 139.279C185.531 141.335 181.144 152.564 165.987 160.608C158.866 164.381 149.892 166.668 140.811 165.013C131.763 163.363 122.484 157.78 114.741 145.578L114.244 144.796L111.066 146.488L111.059 146.492C110.573 146.76 110.036 146.92 109.484 146.96C108.932 147 108.379 146.92 107.864 146.725C107.349 146.53 106.884 146.225 106.5 145.832C106.117 145.439 105.825 144.967 105.645 144.448L105.633 144.416L105.619 144.384C105.125 143.231 105.078 141.932 105.489 140.739C105.899 139.548 106.736 138.547 107.839 137.93L109.946 136.804L109.589 135.962C108.611 133.652 107.857 131.687 107.303 130.242C107.042 129.562 106.825 128.997 106.65 128.566L106.156 127.356L106.155 127.353C105.92 126.77 105.716 126.345 105.575 126.063C105.526 125.965 105.499 125.913 105.477 125.87L105.477 125.869C105.459 125.835 105.445 125.808 105.426 125.769C105.42 125.756 105.417 125.75 105.416 125.748C105.416 125.748 105.416 125.748 105.416 125.749C105.418 125.752 105.422 125.762 105.427 125.775L105.427 125.776C105.432 125.786 105.458 125.854 105.475 125.949C105.482 125.995 105.5 126.114 105.477 126.265C105.453 126.42 105.363 126.727 105.048 126.938L104.02 125.225L102.726 125.915L102.716 125.921C102.236 126.183 101.707 126.34 101.163 126.382C100.62 126.423 100.075 126.347 99.5656 126.159C99.0564 125.972 98.5946 125.678 98.2111 125.297C97.8275 124.916 97.5311 124.457 97.3416 123.95L97.3357 123.934L97.3293 123.919C96.8553 122.77 96.8213 121.484 97.2358 120.305C97.6494 119.128 98.4804 118.14 99.5721 117.529L102.486 115.984L102.305 115.23C98.3685 98.8541 100.322 86.3014 104.988 76.9157C109.661 67.5159 117.098 61.2053 124.265 57.4061C132.492 53.0459 139.116 51.6548 143.719 51.3565C147.326 51.1228 149.713 51.5577 150.701 51.786C151.592 53.9537 152.011 56.29 151.929 58.6411L151.927 58.6892C151.907 59.0195 151.829 60.3257 151.613 61.8241C151.495 62.6435 151.338 63.5026 151.131 64.2771C150.995 64.7878 150.845 65.2336 150.685 65.5965C144.738 65.135 138.77 66.3994 133.502 69.2437C132.829 69.5968 132.167 69.9872 131.518 70.3912L131.513 70.3943C128.283 72.4302 125.581 76.9242 123.969 82.6878C122.344 88.4979 121.776 95.7673 122.966 103.578L123.179 104.971L138.788 96.6921L138.796 96.6874C139.282 96.4179 139.82 96.2572 140.372 96.2163C140.925 96.1754 141.478 96.2553 141.994 96.4499C142.51 96.6446 142.976 96.9493 143.359 97.3425C143.743 97.7357 144.036 98.2082 144.217 98.7271L144.226 98.7529L144.236 98.7781C144.709 99.9276 144.741 101.214 144.324 102.393Z" fill="url(#paint0_radial_387_15663)"/>
<path fill-rule="evenodd" clip-rule="evenodd" d="M83.4828 185.675C134.556 227.446 200.765 230.719 231.491 193.116C262.217 155.515 245.969 91.4089 194.895 49.6402C143.822 7.87288 77.6115 4.59799 46.8863 42.1993C16.1597 79.8024 32.4085 143.907 83.4828 185.675ZM165.174 218.001C191.68 219.328 215.519 210.831 230.592 192.383C245.668 173.934 249.28 148.91 242.743 123.228C236.204 97.545 219.526 71.2827 194.161 50.5398C168.795 29.7955 139.706 18.6421 113.202 17.3167C86.6965 15.9898 62.8609 24.4859 47.7845 42.9348C32.7098 61.3851 29.0961 86.4071 35.6332 112.089C42.1721 137.772 58.8522 164.033 84.2168 184.779C109.581 205.522 138.67 216.675 165.174 218.001Z" fill="url(#paint1_radial_387_15663)"/>
<path fill-rule="evenodd" clip-rule="evenodd" d="M238.396 196.965C206.206 236.296 136.131 232.304 81.9336 187.968C27.7357 143.633 9.78395 75.7358 41.9733 36.405C74.1623 -2.92903 144.283 1.00974 198.48 45.3453C252.678 89.6808 270.516 157.488 238.396 196.965ZM168.484 222.683C196.531 224.292 221.694 215.537 237.496 196.232C253.265 176.851 256.837 150.441 249.684 123.273C242.534 96.106 224.675 68.2742 197.745 46.2435C170.817 24.2141 139.966 12.2507 111.906 10.6579C83.8476 9.0632 58.6715 17.8302 42.8698 37.139C27.0726 56.4457 23.5093 82.8416 30.6815 110.014C37.8488 137.185 55.7378 165.041 82.669 187.07C109.597 209.099 140.437 221.074 168.484 222.683Z" fill="url(#paint2_radial_387_15663)"/>
<path fill-rule="evenodd" clip-rule="evenodd" d="M229.708 223.496L245.398 204.408C245.688 204.068 245.975 203.725 246.257 203.38L246.854 202.638L247.736 201.566L247.708 201.544C280.484 158.696 260.92 86.8043 203.154 39.5692C144.555 -8.34914 68.8857 -12.7126 34.0468 29.8498C33.194 30.8923 32.3711 31.9555 31.5822 33.0342L17.5547 50.0145L17.5263 49.992C-17.2562 92.5962 2.02962 165.886 60.6286 213.804C117.551 260.349 190.668 265.788 226.702 227.108L226.725 227.126L227.055 226.725C227.994 225.701 228.907 224.649 229.794 223.567L229.708 223.496ZM170.697 231.272C200.532 232.98 227.36 223.848 244.507 203.667L244.943 203.15L245.358 202.646L245.952 201.908C262.544 181.032 266.242 152.796 258.602 123.762C250.872 94.3852 231.551 64.2886 202.42 40.4657C173.289 16.646 139.95 3.68194 109.623 1.93761C80.3831 0.256631 54.0275 8.99676 36.8253 28.3785L36.8896 28.4324L32.5002 33.7448C17.4626 54.3339 14.3279 81.5211 21.6811 109.45C29.4183 138.833 48.752 168.943 77.8846 192.764C107.016 216.583 140.364 229.532 170.697 231.272ZM77.1491 193.662C130.972 237.671 199.228 244.894 236.961 212.847L226.178 225.963C208.983 244.667 182.995 253.094 154.205 251.437C123.859 249.687 90.495 236.726 61.3641 212.906C32.2346 189.084 12.912 158.986 5.18192 129.609C-2.54168 100.261 1.31877 71.7279 18.3766 50.7879L18.4032 50.809L26.5192 40.9837C2.66799 84.3402 23.3862 149.697 77.1491 193.662Z" fill="url(#paint3_radial_387_15663)"/>
<defs>
<radialGradient id="paint0_radial_387_15663" cx="0" cy="0" r="1" gradientUnits="userSpaceOnUse" gradientTransform="translate(178.931 248.107) rotate(-103.51) scale(266.357 283.788)">
<stop stop-color="#032B96"/>
<stop offset="0.462005" stop-color="#2F5BD8"/>
<stop offset="1" stop-color="#00FFFF" stop-opacity="0.43"/>
</radialGradient>
<radialGradient id="paint1_radial_387_15663" cx="0" cy="0" r="1" gradientUnits="userSpaceOnUse" gradientTransform="translate(178.931 248.107) rotate(-103.51) scale(266.357 283.788)">
<stop stop-color="#032B96"/>
<stop offset="0.462005" stop-color="#2F5BD8"/>
<stop offset="1" stop-color="#00FFFF" stop-opacity="0.43"/>
</radialGradient>
<radialGradient id="paint2_radial_387_15663" cx="0" cy="0" r="1" gradientUnits="userSpaceOnUse" gradientTransform="translate(178.931 248.107) rotate(-103.51) scale(266.357 283.788)">
<stop stop-color="#032B96"/>
<stop offset="0.462005" stop-color="#2F5BD8"/>
<stop offset="1" stop-color="#00FFFF" stop-opacity="0.43"/>
</radialGradient>
<radialGradient id="paint3_radial_387_15663" cx="0" cy="0" r="1" gradientUnits="userSpaceOnUse" gradientTransform="translate(178.931 248.107) rotate(-103.51) scale(266.357 283.788)">
<stop stop-color="#032B96"/>
<stop offset="0.462005" stop-color="#2F5BD8"/>
<stop offset="1" stop-color="#00FFFF" stop-opacity="0.43"/>
</radialGradient>
</defs>
</svg>
