<svg width="179" height="173" viewBox="0 0 179 173" fill="none" xmlns="http://www.w3.org/2000/svg">
<path fill-rule="evenodd" clip-rule="evenodd" d="M118.969 66.4813C118.562 66.0297 118.125 65.5901 117.673 65.1566C113.598 61.2985 102.512 60.2604 90.9209 64.8915C90.6182 65.0125 90.3152 65.1373 90.012 65.266L99.1233 75.2867C99.524 75.7109 99.8277 76.2168 100.013 76.769C100.199 77.3213 100.262 77.9066 100.198 78.4842C100.133 79.0617 99.9438 79.6175 99.642 80.1127C99.3401 80.6079 98.9333 81.0307 98.4499 81.3514C97.4542 82.0933 96.2181 82.4418 94.9766 82.3307C93.7352 82.2196 92.5751 81.6566 91.717 80.7487L81.7481 69.7855C81.6454 69.6349 81.5227 69.5843 81.1843 69.8416L78.6673 71.6978C78.4394 71.8674 78.1398 72.131 77.7407 72.4821C77.1253 73.0235 76.2734 73.773 75.083 74.7069C74.8513 74.8887 74.6067 75.0776 74.3485 75.2732L84.29 86.2119C84.6907 86.636 84.9944 87.1419 85.1799 87.6942C85.3655 88.2465 85.4284 88.8318 85.3642 89.4093C85.3001 89.9869 85.1105 90.5427 84.8087 91.0379C84.5068 91.5331 84.1 91.9559 83.6166 92.2766C82.6212 93.0205 81.3844 93.3708 80.1418 93.2607C78.8993 93.1505 77.7378 92.5877 76.8788 91.6794L67.883 81.7617C67.7032 82.024 67.5278 82.2894 67.3568 82.5575C62.4699 90.222 61.189 100.147 64.5052 104.408C64.7868 104.768 65.0782 105.116 65.3788 105.443C71.0779 111.713 79.7357 112.906 80.4172 113L80.4416 113.003C80.7747 114.92 78.7306 118.77 78.6227 118.968C77.547 120.922 76.0103 122.582 74.1452 123.805L74.1386 123.805C73.483 123.77 62.4643 123.185 51.8979 111.568C42.6803 101.423 36.679 83.7926 53.4671 65.954L51.9694 64.3122C51.5698 63.8877 51.2672 63.3819 51.0826 62.8299C50.898 62.2779 50.8359 61.693 50.9005 61.1161C50.9651 60.5392 51.155 59.9841 51.4568 59.4895C51.7587 58.9949 52.1653 58.5728 52.6482 58.2524C53.642 57.4889 54.8863 57.1228 56.1401 57.225C57.3939 57.3271 58.5681 57.8903 59.4354 58.8054L60.2704 59.7179C61.9426 58.4446 63.4132 57.402 64.4714 56.6519L64.4726 56.651C64.9573 56.3074 65.3553 56.0253 65.6465 55.8104L66.5235 55.1601C66.692 55.0365 66.8398 54.9229 66.9683 54.8207C67.2288 54.6136 67.4103 54.4536 67.5249 54.3525C67.6231 54.2659 67.6723 54.2225 67.6804 54.2297L66.8563 53.327C66.4643 52.9075 66.1665 52.4093 65.9831 51.8662C65.7997 51.323 65.735 50.7475 65.7933 50.1787C65.8516 49.6099 66.0316 49.061 66.321 48.5691C66.6105 48.0773 67.0027 47.6539 67.4712 47.3278C68.4656 46.5848 69.7009 46.2346 70.9422 46.3438C72.1835 46.453 73.3441 47.014 74.2035 47.9201L75.6237 49.4828C100.745 36.2084 118.576 45.2483 127.854 55.4578C138.113 66.748 138.072 75.5442 138.068 76.5412L138.067 76.5946L138.068 76.6136C136.326 77.9919 134.291 78.9544 132.116 79.4283L132.066 79.438C131.514 79.5448 127.293 80.3615 125.343 79.7225C124.591 74.7783 122.37 70.1651 118.969 66.4813ZM95.059 81.41C94.0457 81.3193 93.0975 80.8605 92.3946 80.1199L82.4642 69.199C82.3258 69.0193 82.0342 68.7324 81.5473 68.7362C81.1405 68.7395 80.8165 68.9605 80.6305 69.1014L78.1187 70.9539L78.1155 70.9562C77.8553 71.1498 77.5101 71.4535 77.0928 71.8207L77.0908 71.8224C76.9296 71.9643 76.7576 72.1156 76.5755 72.2737C75.893 72.8665 74.9916 73.6261 73.7903 74.5364L72.9847 75.1469L83.6119 86.8401L83.618 86.8466C83.9269 87.1736 84.1608 87.5634 84.3037 87.9886C84.4465 88.4137 84.4948 88.8638 84.4455 89.3073C84.3963 89.7508 84.2507 90.1772 84.0193 90.5568C83.788 90.9364 83.4761 91.2604 83.1056 91.5063L83.084 91.5206L83.0632 91.5361C82.2508 92.1433 81.2403 92.43 80.2234 92.3399C79.2094 92.25 78.2603 91.7916 77.5567 91.0508L67.7818 80.2743L67.1205 81.2391C64.3805 85.2369 62.6271 89.9293 61.9982 94.2064C61.3765 98.4351 61.8271 102.472 63.7757 104.976L63.7776 104.978C64.0705 105.352 64.3771 105.719 64.6967 106.067C69.799 111.679 77.1323 113.371 79.5357 113.796C79.5142 114.005 79.4737 114.243 79.4125 114.508C79.2799 115.081 79.0694 115.702 78.8374 116.292C78.3765 117.462 77.8615 118.433 77.8117 118.524C76.8579 120.256 75.5159 121.74 73.8915 122.862C72.0142 122.707 62.1272 121.44 52.5821 110.946C48.0757 105.987 44.3885 99.2308 43.8525 91.5815C43.3186 83.9634 45.9011 75.3423 54.1403 66.5875L54.7273 65.9638L52.6474 63.6839L52.6425 63.6787C52.3345 63.3515 52.1014 62.9617 51.9593 62.5367C51.8172 62.1118 51.7695 61.6621 51.8191 61.2191C51.8688 60.776 52.0145 60.3502 52.2459 59.9711C52.4773 59.592 52.7889 59.2684 53.1592 59.0228L53.1859 59.005L53.2114 58.9855C54.0224 58.3624 55.039 58.0627 56.0651 58.1463C57.0887 58.2297 58.0487 58.6887 58.7591 59.4357L60.1586 60.965L60.8305 60.4533C62.4935 59.1869 63.9202 58.1758 64.9719 57.4305C65.468 57.0789 65.8807 56.7864 66.1954 56.5542L67.0704 55.9054L67.0723 55.904C67.4972 55.592 67.8002 55.3386 68.0003 55.165C68.0498 55.122 68.0926 55.0844 68.1276 55.0535L68.1344 55.0475C68.1674 55.0185 68.1894 54.9991 68.2064 54.9844C68.2172 54.9751 68.2201 54.9728 68.2201 54.9728C68.2201 54.9728 68.2095 54.9814 68.1958 54.9912L68.195 54.9918C68.195 54.9918 68.2189 54.9698 68.2616 54.9311C68.4642 54.7477 69.0547 54.213 68.9874 54.243L68.6427 53.9351L68.3631 53.6065L67.5391 52.7037L67.5317 52.6958C67.2295 52.3724 67.0001 51.9886 66.8589 51.5704C66.7177 51.1523 66.6681 50.7098 66.7128 50.2729C66.7576 49.8361 66.8958 49.415 67.1177 49.038C67.3396 48.6609 67.6402 48.3365 67.9993 48.0865L68.0121 48.0776L68.0245 48.0683C68.8361 47.4619 69.8454 47.1752 70.8612 47.2646C71.8741 47.3537 72.8224 47.8106 73.5263 48.5494L75.4217 50.635L76.0556 50.3001C88.4502 43.7505 98.9678 42.7421 107.486 44.5677C116.019 46.3963 122.633 51.0876 127.17 56.0794C132.381 61.8135 134.864 66.864 136.051 70.5068C136.963 73.3066 137.116 75.2918 137.14 76.1598C135.593 77.3034 133.82 78.109 131.933 78.5221L131.893 78.5298C131.623 78.5822 130.556 78.7883 129.305 78.9227C128.621 78.9961 127.898 79.0461 127.235 79.0395C126.825 79.0354 126.461 79.0097 126.155 78.9628C125.289 74.0727 123.033 69.5222 119.652 65.8584C119.226 65.3859 118.773 64.9308 118.312 64.489L118.308 64.4854C115.973 62.2745 111.76 61.018 106.764 60.9058C101.723 60.7927 95.7235 61.8374 89.6508 64.4151L88.4518 64.9241L98.4453 75.9151L98.4513 75.9214C98.7602 76.2484 98.9941 76.6382 99.137 77.0634C99.2798 77.4886 99.3281 77.9386 99.2788 78.3822C99.2296 78.8256 99.0841 79.252 98.8527 79.6316C98.6213 80.0112 98.3095 80.3353 97.9389 80.5811L97.9179 80.5951L97.8976 80.6102C97.085 81.2157 96.075 81.501 95.059 81.41Z" fill="url(#paint0_radial_387_15660)"/>
<path fill-rule="evenodd" clip-rule="evenodd" d="M150.214 36.2163C177.746 66.4606 172.449 111.299 138.386 136.374C104.324 161.45 54.3915 157.255 26.8596 127.011C-0.672193 96.7665 4.63028 51.9328 38.6926 26.8572C72.755 1.78148 122.687 5.97646 150.214 36.2163ZM149.604 36.77C176.781 66.6243 171.592 110.9 137.893 135.708C104.149 160.549 54.6973 156.367 27.4696 126.457C0.292895 96.6029 5.48704 52.3315 39.1859 27.5234C72.9296 2.68238 122.382 6.86428 149.604 36.77Z" fill="url(#paint1_radial_387_15660)"/>
<path fill-rule="evenodd" clip-rule="evenodd" d="M157.854 29.4782C171.095 44.0434 177.485 61.6743 177.399 79.277C177.463 79.8008 177.525 80.3246 177.585 80.8486C177.9 83.6209 178.15 86.3966 178.238 89.1753C178.402 94.8957 177.891 100.611 176.716 106.204C173.13 123.451 163.234 138.904 149.865 150.214C137.506 160.58 122.688 167.614 106.809 170.652C89.7414 173.997 72.0619 172.737 55.5861 167C39.2036 161.217 24.4542 150.629 14.3829 136.383C9.80367 129.935 6.90442 122.11 4.58882 114.559C4.20822 111.942 3.66953 109.632 3.14692 107.39C2.61015 105.088 2.09036 102.859 1.77626 100.445C1.48704 98.2218 1.23822 95.9915 0.989566 93.7627L0.92434 93.1787C-3.28896 66.3867 7.92323 38.0794 33.2016 19.4182C71.3777 -8.76457 127.189 -4.2552 157.854 29.4782ZM143.711 140.844C181.479 112.962 187.445 63.4032 157.17 30.1C126.844 -3.26077 71.5696 -7.7572 33.7506 20.1619C-4.01817 48.0439 -9.98904 97.598 20.2857 130.901C50.6172 164.267 105.892 168.763 143.711 140.844ZM23.0732 135.17C20.5911 132.81 18.3035 130.253 16.2101 127.54C17.2859 128.891 18.4163 130.219 19.6017 131.523C21.3489 133.445 23.1777 135.272 25.0802 137.004C24.4022 136.404 23.7331 135.793 23.0732 135.17ZM175.811 106.013L175.811 106.016C172.271 123.04 162.497 138.317 149.268 149.508C137.03 159.771 122.358 166.736 106.635 169.744L106.631 169.744C89.7262 173.058 72.2141 171.81 55.8936 166.128C39.6759 160.403 25.0892 149.926 15.1377 135.85L15.1366 135.848C10.6148 129.481 7.75968 121.745 5.47309 114.29C5.33507 112.198 4.83762 110.58 4.35223 109.003C4.02343 107.934 3.7001 106.883 3.49786 105.715C7.60981 116.847 13.7851 127.614 22.4362 135.84L22.4387 135.842C35.5129 148.182 52.174 156.012 69.7551 158.995L69.758 158.996C87.4757 161.945 105.631 160.116 122.348 153.698C139.162 147.293 154.353 135.617 164.395 120.747C171.328 110.479 175.784 98.628 177.171 86.3594C177.235 87.3067 177.284 88.2548 177.314 89.204C177.476 94.851 176.972 100.493 175.811 106.013Z" fill="url(#paint2_radial_387_15660)"/>
<defs>
<radialGradient id="paint0_radial_387_15660" cx="0" cy="0" r="1" gradientUnits="userSpaceOnUse" gradientTransform="translate(-13.3867 203) rotate(-49.1155) scale(241.392 242.06)">
<stop stop-color="#032B96"/>
<stop offset="0.120093" stop-color="#2F5BD8"/>
<stop offset="1" stop-color="#00FFFF" stop-opacity="0.43"/>
</radialGradient>
<radialGradient id="paint1_radial_387_15660" cx="0" cy="0" r="1" gradientUnits="userSpaceOnUse" gradientTransform="translate(-13.3867 203) rotate(-49.1155) scale(241.392 242.06)">
<stop stop-color="#032B96"/>
<stop offset="0.120093" stop-color="#2F5BD8"/>
<stop offset="1" stop-color="#00FFFF" stop-opacity="0.43"/>
</radialGradient>
<radialGradient id="paint2_radial_387_15660" cx="0" cy="0" r="1" gradientUnits="userSpaceOnUse" gradientTransform="translate(-13.3867 203) rotate(-49.1155) scale(241.392 242.06)">
<stop stop-color="#032B96"/>
<stop offset="0.120093" stop-color="#2F5BD8"/>
<stop offset="1" stop-color="#00FFFF" stop-opacity="0.43"/>
</radialGradient>
</defs>
</svg>
