<svg width="355" height="329" viewBox="0 0 355 329" fill="none" xmlns="http://www.w3.org/2000/svg">
<path fill-rule="evenodd" clip-rule="evenodd" d="M227.889 312.149C227.889 312.149 237.733 318.579 239.193 325.27C244.995 324.459 250.502 322.195 255.2 318.69C259.913 315.173 263.657 310.522 266.08 305.173L266.118 305.091L266.163 305.013L267.688 305.902C265.141 311.522 261.207 316.409 256.255 320.104C251.303 323.799 245.494 326.181 239.375 327.026C238.473 327.222 237.502 327.367 236.513 327.477L171.432 327.877C171.432 327.877 158.041 330.314 139.548 315.78L9.35039 218.146C6.99149 217.075 4.95951 215.412 3.44735 213.328C3.24021 213.043 3.04274 212.749 2.85558 212.449L2.85596 212.448C1.07046 209.408 0.404372 205.839 0.972369 202.354L0.97308 202.35L0.970146 202.351C1.08093 201.685 1.20981 201.024 1.35649 200.367C2.49466 195.27 4.7039 190.459 7.84654 186.258L101.379 55.1994C101.379 55.1994 102.641 53.5641 104.561 51.336L104.571 51.3308C109.344 45.7035 115.366 41.2637 122.157 38.3663L180.695 3.08265C180.695 3.08265 197.444 -7.9459 222.177 15.4847C246.909 38.9153 344.817 122.099 344.817 122.099C350.008 127.869 353.245 135.126 354.072 142.845C354.899 150.563 353.273 158.354 349.424 165.115C335.751 189.111 267.688 305.902 267.688 305.902C266.163 305.013 266.163 305.013 266.164 305.012L266.166 305.008L266.175 304.992L266.212 304.928L266.359 304.677L266.931 303.696L269.114 299.948C271.002 296.708 273.714 292.052 277.011 286.39C283.606 275.066 292.541 259.718 301.903 243.62C320.63 211.42 341.059 176.232 347.891 164.243C351.557 157.802 353.105 150.382 352.318 143.033C351.535 135.722 348.48 128.846 343.584 123.366L343.393 123.204L342.569 122.504C341.845 121.888 340.781 120.983 339.418 119.823C336.692 117.502 332.771 114.161 327.987 110.078C318.421 101.912 305.407 90.7803 291.621 78.9159C264.065 55.2025 233.367 28.5168 220.963 16.7656C208.857 5.2967 198.889 2.42085 192.12 2.26119C188.714 2.18086 186.055 2.78573 184.268 3.39544C183.374 3.70054 182.699 4.00696 182.259 4.22941C182.039 4.3406 181.878 4.43064 181.778 4.48878C181.728 4.51784 181.694 4.53891 181.675 4.55063L181.663 4.5578L181.661 4.55899L181.659 4.5604L181.659 4.56063L181.658 4.56102L181.636 4.57569L181.606 4.59384L123.068 39.8775L122.963 39.941L122.85 39.9892C118.014 42.0526 113.582 44.9284 109.743 48.4781L167.041 16.8766C167.041 16.8766 174.24 15.7934 162.985 36.0516L78.3206 161.238C66.6376 173.813 52.4563 183.82 36.6868 190.617L2.87862 201.724C2.81935 202.03 2.76413 202.336 2.71297 202.644C2.25139 205.483 2.71695 208.384 4.02948 210.924C6.56495 208.315 12.1175 205.451 22.9931 202.698L53.0916 192.592C67.9917 193.021 82.2963 198.448 93.6972 207.994L227.889 312.149ZM3.32854 199.719L36.0607 188.966C51.5347 182.284 65.4549 172.465 76.9356 160.136L161.48 35.1273C164.241 30.1514 165.835 26.5478 166.692 23.9555C167.563 21.3191 167.619 19.8815 167.495 19.1693C167.452 18.9211 167.391 18.7853 167.353 18.7193L105.702 52.722C104.845 53.7219 104.132 54.5877 103.625 55.2156C103.352 55.5533 103.139 55.8217 102.995 56.0047C102.922 56.0962 102.868 56.1663 102.831 56.213L102.798 56.2562L9.28503 187.286L9.27354 187.302L9.26168 187.318C6.4822 191.034 4.46962 195.249 3.32854 199.719ZM259.753 308.872C247.137 315.252 233.381 305.952 233.381 305.952L102.166 204.584C79.1566 182.84 94.802 150.954 94.802 150.954L131.503 97.0181L183.512 20.5136C194.881 3.75233 210.953 15.3063 210.953 15.3063C210.953 15.3063 298.828 92.2494 327.049 115.78C355.27 139.31 346.691 154.617 346.691 154.617L292.828 249.833L259.753 308.872ZM234.409 304.516L103.315 203.242C92.3922 192.878 90.6109 180.12 91.6117 169.785C92.1134 164.605 93.3138 160.072 94.3913 156.833C94.9292 155.215 95.4344 153.927 95.8023 153.048C95.9862 152.609 96.1355 152.273 96.2373 152.05C96.2615 151.997 96.283 151.95 96.3016 151.91L96.3364 151.836L132.961 98.0107L132.962 98.0101L184.971 21.5056L184.972 21.5041C187.646 17.5619 190.522 15.3867 193.266 14.2613C196.019 13.1319 198.763 13.0091 201.241 13.3705C203.728 13.7333 205.915 14.5805 207.49 15.3489C208.274 15.7312 208.897 16.0887 209.317 16.3466C209.527 16.4755 209.686 16.5789 209.789 16.6476L209.864 16.6984L210.043 16.8554L210.784 17.504C211.435 18.0734 212.393 18.9115 213.622 19.9866C216.08 22.1367 219.623 25.2344 223.963 29.0253C232.643 36.6069 244.511 46.9609 257.26 58.0505C282.752 80.2238 311.792 105.356 325.919 117.135C339.824 128.728 344.444 138.112 345.724 144.376C346.365 147.513 346.18 149.923 345.861 151.509C345.7 152.305 345.505 152.899 345.358 153.278C345.285 153.467 345.224 153.603 345.186 153.683C345.167 153.723 345.154 153.749 345.148 153.761L345.146 153.764L345.144 153.768L345.144 153.768L291.292 248.964L291.289 248.97L258.483 307.528C252.881 310.166 247.007 309.534 242.35 308.116C239.97 307.391 237.957 306.475 236.541 305.739C235.835 305.372 235.281 305.053 234.909 304.828C234.723 304.716 234.582 304.628 234.491 304.569C234.457 304.547 234.429 304.529 234.409 304.516ZM5.00571 212.468C6.32347 214.22 8.06456 215.62 10.0758 216.533L10.2509 216.613L10.4048 216.728L140.603 314.362L140.619 314.374L140.635 314.387C149.673 321.49 157.397 324.397 162.789 325.547C165.489 326.123 167.616 326.262 169.045 326.26C169.759 326.26 170.299 326.224 170.649 326.191C170.824 326.174 170.951 326.158 171.029 326.147L171.085 326.139L171.108 326.136L171.112 326.135L171.114 326.135L171.115 326.135L171.118 326.134L171.119 326.134L171.263 326.108L171.417 326.107L236.404 325.707C236.76 325.667 237.11 325.622 237.452 325.572C237.232 324.615 236.785 323.602 236.139 322.554C235.173 320.987 233.842 319.469 232.457 318.122C231.078 316.782 229.687 315.652 228.638 314.855C228.114 314.458 227.68 314.146 227.378 313.936C227.29 313.875 227.214 313.822 227.15 313.778L227.033 313.699L226.947 313.641L226.927 313.628L226.924 313.626L226.924 313.626L226.923 313.625L226.864 313.587L226.807 313.543L92.6153 209.388L92.5895 209.368L92.5644 209.347C81.5482 200.122 67.7451 194.85 53.353 194.365L23.5548 204.371L23.4912 204.392L23.4261 204.409C16.9777 206.041 12.5123 207.691 9.48596 209.257C7.19064 210.446 5.8101 211.541 5.00571 212.468ZM284.511 158.582C289.777 168.994 302.526 173.158 312.993 167.864C323.461 162.571 327.662 149.834 322.397 139.422C317.131 129.01 304.382 124.846 293.914 130.139C283.447 135.433 279.245 148.17 284.511 158.582ZM313.79 169.439C302.458 175.17 288.645 170.665 282.936 159.378C277.228 148.091 281.787 134.296 293.118 128.565C304.45 122.834 318.263 127.338 323.971 138.626C329.68 149.913 325.121 163.708 313.79 169.439ZM254.016 268.693C243.548 273.986 230.799 269.822 225.534 259.41C220.268 248.998 224.469 236.261 234.937 230.968C245.405 225.674 258.154 229.838 263.42 240.25C268.685 250.662 264.484 263.399 254.016 268.693ZM223.959 260.206C229.667 271.494 243.481 275.998 254.812 270.267C266.144 264.536 270.702 250.741 264.994 239.454C259.286 228.166 245.472 223.662 234.141 229.393C222.809 235.124 218.251 248.919 223.959 260.206ZM128.364 181.059C133.63 191.471 146.379 195.635 156.847 190.341C167.315 185.048 171.516 172.311 166.25 161.899C160.985 151.487 148.236 147.323 137.768 152.616C127.3 157.91 123.099 170.647 128.364 181.059ZM157.643 191.916C146.312 197.647 132.498 193.143 126.79 181.855C121.082 170.568 125.64 156.773 136.972 151.042C148.303 145.311 162.117 149.815 167.825 161.103C173.533 172.39 168.975 186.185 157.643 191.916ZM221.294 88.4311C210.826 93.725 198.077 89.5604 192.811 79.1487C187.546 68.7371 191.747 56 202.215 50.7061C212.682 45.4122 225.431 49.5768 230.697 59.9885C235.963 70.4002 231.761 83.1372 221.294 88.4311ZM191.237 79.9451C196.945 91.2321 210.758 95.7365 222.09 90.0057C233.421 84.275 237.98 70.4793 232.272 59.1922C226.563 47.9051 212.75 43.4008 201.418 49.1315C190.087 54.8623 185.528 68.658 191.237 79.9451ZM136 60.8734C139.04 58.7859 142.745 55.3585 146.349 51.0715C149.953 46.7846 152.691 42.5483 154.222 39.1995C154.992 37.5134 155.413 36.1461 155.531 35.1612C155.618 34.4309 155.518 34.1383 155.478 34.0525C155.386 34.0278 155.08 33.9815 154.374 34.1943C153.422 34.4815 152.145 35.1336 150.615 36.1846C147.575 38.272 143.87 41.6995 140.266 45.9864C136.662 50.2733 133.924 54.5097 132.393 57.8584C131.623 59.5446 131.202 60.9118 131.084 61.8968C130.997 62.627 131.097 62.9196 131.137 63.0055C131.229 63.0301 131.535 63.0765 132.241 62.8636C133.193 62.5765 134.47 61.9244 136 60.8734ZM147.703 52.2032C140.351 60.9489 132.422 66.3937 129.994 64.3645C127.567 62.3353 131.559 53.6005 138.912 44.8548C146.264 36.1091 154.193 30.6643 156.62 32.6935C159.048 34.7227 155.056 43.4575 147.703 52.2032ZM40.4964 164.503C36.8924 168.79 33.187 172.218 30.1474 174.305C28.6169 175.356 27.3402 176.008 26.3881 176.295C25.6822 176.508 25.3759 176.462 25.2841 176.437C25.2437 176.351 25.1444 176.059 25.2314 175.329C25.3487 174.344 25.7697 172.976 26.5404 171.29C28.071 167.941 30.8087 163.705 34.4127 159.418C38.0167 155.131 41.7221 151.704 44.7617 149.616C46.2922 148.565 47.5688 147.913 48.521 147.626C49.2269 147.413 49.5332 147.46 49.625 147.484C49.6654 147.57 49.7647 147.863 49.6777 148.593C49.5604 149.578 49.1393 150.945 48.3687 152.631C46.8381 155.98 44.1004 160.216 40.4964 164.503ZM24.1416 177.796C26.5692 179.825 34.4976 174.381 41.8502 165.635C49.2027 156.889 53.1952 148.155 50.7675 146.125C48.3399 144.096 40.4114 149.541 33.0589 158.287C25.7063 167.032 21.7139 175.767 24.1416 177.796ZM107.961 235.316C107.973 235.225 107.98 234.916 107.666 234.241C107.247 233.344 106.422 232.18 105.164 230.823C102.667 228.13 98.7478 224.975 93.9896 222.046C89.2314 219.118 84.6455 217.037 81.1098 216.018C79.3296 215.505 77.915 215.29 76.9223 215.319C76.1757 215.34 75.9014 215.485 75.8252 215.537C75.8129 215.627 75.8056 215.937 76.1203 216.611C76.5385 217.509 77.3642 218.673 78.6214 220.029C81.1184 222.723 85.0381 225.877 89.7963 228.806C94.5544 231.735 99.1404 233.815 102.676 234.835C104.456 235.348 105.871 235.563 106.864 235.534C107.61 235.512 107.884 235.368 107.961 235.316ZM109.472 236.246C107.8 238.941 98.5746 236.281 88.8661 230.306C79.1577 224.33 72.6425 217.301 74.3142 214.607C75.9859 211.912 85.2113 214.571 94.9198 220.547C104.628 226.522 111.143 233.551 109.472 236.246ZM86.8182 240.463C87.1328 241.138 87.1256 241.447 87.1133 241.538C87.0371 241.589 86.7628 241.734 86.0161 241.756C85.0235 241.785 83.6089 241.57 81.8287 241.057C78.293 240.037 73.707 237.957 68.9489 235.028C64.1907 232.099 60.271 228.945 57.774 226.251C56.5168 224.895 55.6911 223.73 55.2729 222.833C54.9583 222.158 54.9655 221.849 54.9778 221.758C55.054 221.707 55.3283 221.562 56.075 221.54C57.0676 221.512 58.4821 221.726 60.2624 222.24C63.7981 223.259 68.3841 225.339 73.1422 228.268C77.9004 231.197 81.8201 234.351 84.3171 237.045C85.5743 238.402 86.3999 239.566 86.8182 240.463ZM68.0187 236.527C77.7272 242.503 86.9526 245.163 88.6243 242.468C90.2959 239.773 83.7808 232.744 74.0723 226.769C64.3639 220.793 55.1385 218.134 53.4668 220.828C51.7951 223.523 58.3102 230.552 68.0187 236.527ZM67.188 246.501C67.2003 246.41 67.2077 246.101 66.8931 245.426C66.475 244.528 65.6495 243.364 64.3926 242.008C61.8961 239.313 57.9769 236.158 53.2193 233.229C48.4617 230.299 43.876 228.218 40.3405 227.198C38.5604 226.684 37.1459 226.469 36.1532 226.498C35.4065 226.519 35.1322 226.664 35.056 226.716C35.0437 226.807 35.0364 227.116 35.3509 227.791C35.769 228.688 36.5945 229.852 37.8515 231.209C40.348 233.903 44.2671 237.058 49.0247 239.988C53.7824 242.917 58.368 244.999 61.9036 246.019C63.6837 246.532 65.0982 246.747 66.0908 246.719C66.8375 246.697 67.1118 246.552 67.188 246.501ZM68.6989 247.431C67.0267 250.126 57.8018 247.464 48.0944 241.487C38.3869 235.51 31.8731 228.48 33.5452 225.785C35.2173 223.091 44.4423 225.752 54.1497 231.729C63.8571 237.707 70.371 244.737 68.6989 247.431ZM153.832 311.855C154.147 312.529 154.14 312.839 154.127 312.93C154.051 312.981 153.777 313.126 153.03 313.148C152.038 313.176 150.623 312.962 148.843 312.448C145.307 311.429 140.721 309.348 135.963 306.42C131.205 303.491 127.285 300.336 124.788 297.643C123.531 296.286 122.705 295.122 122.287 294.225C121.972 293.55 121.98 293.241 121.992 293.15C122.068 293.098 122.342 292.954 123.089 292.932C124.082 292.903 125.496 293.118 127.277 293.631C130.812 294.651 135.398 296.731 140.156 299.66C144.915 302.589 148.834 305.743 151.331 308.437C152.588 309.793 153.414 310.957 153.832 311.855ZM135.033 307.919C144.741 313.895 153.967 316.554 155.638 313.86C157.31 311.165 150.795 304.136 141.086 298.16C131.378 292.185 122.153 289.525 120.481 292.22C118.809 294.915 125.324 301.944 135.033 307.919ZM178.389 310.067C178.401 309.976 178.408 309.666 178.094 308.992C177.676 308.094 176.85 306.93 175.593 305.573C173.097 302.879 169.178 299.724 164.42 296.794C159.662 293.865 155.077 291.784 151.541 290.764C149.761 290.25 148.347 290.035 147.354 290.064C146.607 290.085 146.333 290.23 146.257 290.281C146.244 290.372 146.237 290.682 146.552 291.356C146.97 292.254 147.795 293.418 149.052 294.774C151.549 297.469 155.468 300.624 160.225 303.554C164.983 306.483 169.569 308.564 173.104 309.584C174.884 310.098 176.299 310.313 177.292 310.284C178.038 310.263 178.313 310.118 178.389 310.067ZM179.9 310.997C178.227 313.691 169.002 311.03 159.295 305.053C149.588 299.076 143.074 292.046 144.746 289.351C146.418 286.657 155.643 289.318 165.35 295.295C175.058 301.272 181.572 308.302 179.9 310.997ZM203.448 306.476C203.762 307.151 203.755 307.46 203.743 307.551C203.666 307.603 203.392 307.748 202.645 307.769C201.653 307.798 200.238 307.583 198.458 307.069C194.923 306.049 190.337 303.968 185.579 301.039C180.822 298.109 176.903 294.954 174.406 292.259C173.149 290.903 172.324 289.739 171.906 288.841C171.591 288.167 171.598 287.857 171.611 287.766C171.687 287.715 171.961 287.57 172.708 287.549C173.701 287.52 175.115 287.735 176.895 288.249C180.431 289.269 185.016 291.35 189.774 294.279C194.532 297.209 198.451 300.364 200.947 303.058C202.204 304.415 203.03 305.579 203.448 306.476ZM184.649 302.538C194.356 308.515 203.581 311.176 205.253 308.482C206.926 305.787 200.412 298.757 190.704 292.78C180.997 286.803 171.772 284.142 170.1 286.836C168.428 289.531 174.942 296.561 184.649 302.538Z" fill="url(#paint0_radial_387_15655)"/>
<defs>
<radialGradient id="paint0_radial_387_15655" cx="0" cy="0" r="1" gradientUnits="userSpaceOnUse" gradientTransform="translate(107.849 338.312) rotate(-57.8145) scale(368.304 356.016)">
<stop stop-color="#032B96"/>
<stop offset="0.462005" stop-color="#2F5BD8"/>
<stop offset="1" stop-color="#00FFFF" stop-opacity="0.43"/>
</radialGradient>
</defs>
</svg>
