<svg width="140" height="45" viewBox="0 0 140 45" fill="none" xmlns="http://www.w3.org/2000/svg">
<path d="M140 0.574219H106.5L120 24.5742H140V0.574219Z" fill="#E41A42"/>
<path d="M69.5 0.574219V29.0742H76V11.0742L83 26.0742H88L94.5 11.0742V29.0742H101V7.07422H104.5L101 0.574219H93.5L85.5 17.5742L77.5 0.574219H69.5Z" fill="white"/>
<path d="M119.5 13.0742L109.5 29.5742H102.5L119.5 0.574219L136.5 29.5742H128.5L119.5 13.0742Z" fill="white"/>
<path d="M6 20.5736L0 21.5736C0 21.5736 1.16347 24.0001 1.5 24.5C2 25.2427 2.85118 26.7341 4 27.5C5.38942 28.4263 7.29439 29.2705 9.5 29.5736C11 29.7797 13.1548 30 15.5 29.5736C17.237 29.2578 19 28.768 20 28.0736C22.0911 26.6214 23.0223 25.0743 23.5 22.5736C23.8682 20.6461 23.83 19.3518 23 17.5736C22.0055 15.443 20.6831 14.4468 18.5 13.5736C16 12.5737 14 12.5737 12 12.0736C10.5573 11.7129 9 11.0737 8.5 10.5736C7.8826 9.95606 7.39169 9.44009 7.5 8.5736C7.58732 7.87501 7.98293 7.05152 8.5 6.57372C9.407 5.7356 10.2775 5.74837 11.5 5.57372C11.788 5.53258 12.2551 5.49208 14 6.07372C15.7449 6.65536 15.8287 6.98461 16.5 7.57372C17.1227 8.12014 17.5 9.0736 17.5 9.0736L23.5 7.5736C23.5 7.5736 22.4389 5.62294 21.5 4.5736C20.198 3.11842 19.2655 2.40762 17.5 1.5736C14.8283 0.311493 12.9416 -0.20551 10 0.07372C7.35603 0.324695 5.52847 0.859283 3.5 2.5736C1.63133 4.15286 0.850398 5.65219 0.5 8.0736C0.246768 9.82355 0.5 11.1531 1 12.0737C1.92305 13.7733 3.2885 14.5723 4.95205 15.5457L5 15.5737C8.68068 17.7276 14.5 17.5736 15.5 18.5736C16.5 19.5736 16.5873 20.0257 16.5 21.0736C16.4275 21.9438 16.2266 22.5892 15.5 23.0736C14 24.0737 12 24.0738 11.5 24.0737C11 24.0736 8.72253 24.1215 7.5 23.0736C6.63554 22.3326 6 20.5736 6 20.5736Z" fill="white"/>
<path d="M27 29.5742V7.07422H31L34.5 13.5742V29.5742H27Z" fill="white"/>
<path d="M65.0007 15.0728H59.0007V22.0728C59.0007 22.0728 55.7221 23.7211 53.5007 23.5728C51.4023 23.4327 49.6564 22.8693 48.0005 21.5728C46.4631 20.3689 46.0269 19.4531 45.5007 17.5728C44.9718 15.683 45.356 13.9262 46.0005 12.0728C46.6943 10.0779 47.295 9.31837 49.0007 8.07277C50.647 6.87051 51.9622 6.55438 54.0007 6.57277C55.6108 6.58729 56.5075 6.97012 58.0007 7.57277C59.4605 8.16198 61.5007 9.57277 61.5007 9.57277L65.5007 5.07277C65.5007 5.07277 61.2152 1.90084 58.0007 1.07277C54.5971 0.195992 52.384 0.12085 49.0007 1.07277C46.5005 1.77621 44.2657 3.01624 42.0005 5.57276C39.857 7.99191 38.9019 10.3656 38.5005 13.5728C38.2502 15.5728 38.5001 18.0729 39.5006 21.0728C39.8929 22.249 41.8696 25.5548 44.5007 27.0728C47.2901 28.682 49.7801 29.4993 53.0005 29.4993C54.5006 29.4993 56.5278 29.5733 59.0005 28.9993C61.5523 28.4069 65.0007 26.0728 65.0007 26.0728V15.0728Z" fill="white"/>
<path d="M35 0.574219H27L31 6.57422H35V0.574219Z" fill="#E41A42"/>
<path fill-rule="evenodd" clip-rule="evenodd" d="M47 44.5742L51 35.5742H53.5L58 44.5742H54.5L54 43.0742H51L50.5 44.5742H47ZM53.5 40.5742H51.5L52.5 38.5742L53.5 40.5742Z" fill="white"/>
<path fill-rule="evenodd" clip-rule="evenodd" d="M82 44.5742L86 35.5742H88.5L93 44.5742H89.5L89 43.0742H86L85.5 44.5742H82ZM88.5 40.5742H86.5L87.5 38.5742L88.5 40.5742Z" fill="white"/>
<path d="M77.5 35.5742H74.5V44.0742H77.5V35.5742Z" fill="white"/>
<path d="M63.4309 41.7776L61 42.0791C61 42.0791 61.6311 43.1344 61.7588 43.2851C61.9485 43.509 62.2714 43.8079 62.7072 44.0388C63.0866 44.2398 63.7674 44.3996 64.6042 44.491C65.4848 44.5872 66.0059 44.6174 66.8805 44.491C67.5395 44.3958 68.2083 44.2482 68.5877 44.0388C69.3811 43.601 69.7343 43.1345 69.9156 42.3806C70.0553 41.7995 70.0408 41.4092 69.7259 40.8731C69.3486 40.2308 68.8469 39.9304 68.0186 39.6672C67.0702 39.3657 66.3114 39.3657 65.5526 39.2149C65.0053 39.1062 64.4145 38.9135 64.2248 38.7627C63.9905 38.5765 63.8043 38.421 63.8454 38.1597C63.8785 37.9491 64.0286 37.7008 64.2248 37.5568C64.4209 37.4127 65.3629 37.1548 66.3114 37.406C67.2599 37.6573 67.6392 38.3105 67.6392 38.3105L69.9156 37.8582C69.9156 37.8582 69.513 37.2701 69.1568 36.9537C68.6628 36.515 68.3091 36.1571 67.6392 35.9056C66.6256 35.5251 65.9099 35.5129 64.7939 35.5971C63.7908 35.6727 63.0974 35.8339 62.3278 36.3508C61.6189 36.8269 61.3226 37.2789 61.1897 38.009C61.0936 38.5366 61.1897 38.9374 61.3794 39.215C61.7296 39.7274 62.2476 39.9683 62.8787 40.2617L62.8969 40.2702C64.2933 40.9196 66.5011 40.8731 66.8805 41.1746C67.2599 41.4761 67.293 41.6124 67.2599 41.9283C67.2323 42.1907 67.1561 42.3853 66.8805 42.5313C66.3114 42.8329 65.5526 42.8329 65.3629 42.8329C65.1732 42.8328 64.4638 42.8473 64 42.5313C63.672 42.3079 63.4309 41.7776 63.4309 41.7776Z" fill="white"/>
</svg>
