<svg width="140" height="46" viewBox="0 0 140 46" fill="none" xmlns="http://www.w3.org/2000/svg">
<path d="M140 0.574219H106.5L120 24.5742H140V0.574219Z" fill="#E41A42"/>
<path d="M69.5 0.574219V29.0742H76V11.0742L83 26.0742H88L94.5 11.0742V29.0742H101V7.07422H104.5L101 0.574219H93.5L85.5 17.5742L77.5 0.574219H69.5Z" fill="white"/>
<path d="M119.5 13.0742L109.5 29.5742H102.5L119.5 0.574219L136.5 29.5742H128.5L119.5 13.0742Z" fill="white"/>
<path d="M6 20.5736L0 21.5736C0 21.5736 1.16347 24.0001 1.5 24.5C2 25.2427 2.85118 26.7341 4 27.5C5.38942 28.4263 7.29439 29.2705 9.5 29.5736C11 29.7797 13.1548 30 15.5 29.5736C17.237 29.2578 19 28.768 20 28.0736C22.0911 26.6214 23.0223 25.0743 23.5 22.5736C23.8682 20.6461 23.83 19.3518 23 17.5736C22.0055 15.443 20.6831 14.4468 18.5 13.5736C16 12.5737 14 12.5737 12 12.0736C10.5573 11.7129 9 11.0737 8.5 10.5736C7.8826 9.95606 7.39169 9.44009 7.5 8.5736C7.58732 7.87501 7.98293 7.05152 8.5 6.57372C9.407 5.7356 10.2775 5.74837 11.5 5.57372C11.788 5.53258 12.2551 5.49208 14 6.07372C15.7449 6.65536 15.8287 6.98461 16.5 7.57372C17.1227 8.12014 17.5 9.0736 17.5 9.0736L23.5 7.5736C23.5 7.5736 22.4389 5.62294 21.5 4.5736C20.198 3.11842 19.2655 2.40762 17.5 1.5736C14.8283 0.311493 12.9416 -0.20551 10 0.07372C7.35603 0.324695 5.52847 0.859283 3.5 2.5736C1.63133 4.15286 0.850398 5.65219 0.5 8.0736C0.246768 9.82355 0.5 11.1531 1 12.0737C1.92305 13.7733 3.2885 14.5723 4.95205 15.5457L5 15.5737C8.68068 17.7276 14.5 17.5736 15.5 18.5736C16.5 19.5736 16.5873 20.0257 16.5 21.0736C16.4275 21.9438 16.2266 22.5892 15.5 23.0736C14 24.0737 12 24.0738 11.5 24.0737C11 24.0736 8.72253 24.1215 7.5 23.0736C6.63554 22.3326 6 20.5736 6 20.5736Z" fill="white"/>
<path d="M27 29.5742V7.07422H31L34.5 13.5742V29.5742H27Z" fill="white"/>
<path d="M65.0007 15.0728H59.0007V22.0728C59.0007 22.0728 55.7221 23.7211 53.5007 23.5728C51.4023 23.4327 49.6564 22.8693 48.0005 21.5728C46.4631 20.3689 46.0269 19.4531 45.5007 17.5728C44.9718 15.683 45.356 13.9262 46.0005 12.0728C46.6943 10.0779 47.295 9.31837 49.0007 8.07277C50.647 6.87051 51.9622 6.55438 54.0007 6.57277C55.6108 6.58729 56.5075 6.97012 58.0007 7.57277C59.4605 8.16198 61.5007 9.57277 61.5007 9.57277L65.5007 5.07277C65.5007 5.07277 61.2152 1.90084 58.0007 1.07277C54.5971 0.195992 52.384 0.12085 49.0007 1.07277C46.5005 1.77621 44.2657 3.01624 42.0005 5.57276C39.857 7.99191 38.9019 10.3656 38.5005 13.5728C38.2502 15.5728 38.5001 18.0729 39.5006 21.0728C39.8929 22.249 41.8696 25.5548 44.5007 27.0728C47.2901 28.682 49.7801 29.4993 53.0005 29.4993C54.5006 29.4993 56.5278 29.5733 59.0005 28.9993C61.5523 28.4069 65.0007 26.0728 65.0007 26.0728V15.0728Z" fill="white"/>
<path d="M35 0.574219H27L31 6.57422H35V0.574219Z" fill="#E41A42"/>
<path d="M48 36H45V41.5C45 41.5 45.007 42.9828 46 44C46.993 45.0172 48.0785 45.5 49.5 45.5C50.9215 45.5 52.007 45.0172 53 44C54.1076 42.8654 54 41.5 54 41.5V36H51L51 41C51 41 50.9597 42.5 49.5 42.5C48.0403 42.5 48 41 48 41L48 36Z" fill="white"/>
<path fill-rule="evenodd" clip-rule="evenodd" d="M77 45C79.7614 45 82 42.7614 82 40C82 37.2386 79.7614 35 77 35C74.2386 35 72 37.2386 72 40C72 42.7614 74.2386 45 77 45ZM77 42C78.1046 42 79 41.1046 79 40C79 38.8954 78.1046 38 77 38C75.8954 38 75 38.8954 75 40C75 41.1046 75.8954 42 77 42Z" fill="#D9D9D9"/>
<path fill-rule="evenodd" clip-rule="evenodd" d="M59 45V36C59 36 63 36 65 36C66 36 67.4466 37.344 67.5 39C67.5806 41.5 65.5 42 65.5 42L67.5 45H64L62.5 42.5V45H59ZM64 39C64 37.8242 62.5 38 62.5 38V40C62.5 40 64 40.1758 64 39Z" fill="white"/>
<path fill-rule="evenodd" clip-rule="evenodd" d="M87 45V36L93 36C94 36 95.5 37.1085 95.5 39.5C95.5 42 93 42.5 93 42.5H90.5V45H87ZM90.5 38V40C90.5 40 92 40.1758 92 39C92 37.8242 90.5 38 90.5 38Z" fill="white"/>
<path d="M32.5 36V45H40V42.5H35.5V41.5H39.5V39H35.5V38H40V36H32.5Z" fill="white"/>
<path d="M101 36V45H108.5V42.5H104V41.5H108V39H104V38H108.5V36H101Z" fill="white"/>
</svg>
