<svg width="506" height="506" viewBox="0 0 506 506" fill="none" xmlns="http://www.w3.org/2000/svg">
<path fill-rule="evenodd" clip-rule="evenodd" d="M502.575 224.592C518.198 362.763 418.968 487.451 280.938 503.09C142.908 518.729 18.3476 419.397 2.72451 281.226C-12.8986 143.054 86.3318 18.3664 224.362 2.7273C362.392 -12.9118 486.952 86.4203 502.575 224.592ZM503.674 224.467C519.366 363.246 419.699 488.482 281.062 504.19C142.426 519.898 17.3175 420.129 1.62575 281.35C-14.066 142.572 85.6006 17.3353 224.237 1.62742C362.874 -14.0804 487.982 85.6884 503.674 224.467ZM239.132 133.395C271.783 129.696 301.357 153.91 305.163 187.577C308.97 221.243 285.551 251.462 252.9 255.161C220.25 258.86 190.676 234.646 186.869 200.98C183.062 167.313 206.482 137.095 239.132 133.395ZM145.888 378.181L144.144 362.763C141.154 336.316 158.756 316.951 182.513 303.53C206.241 290.126 235.773 282.871 255.777 280.604C275.782 278.338 306.186 278.802 332.307 286.558C358.459 294.324 379.94 309.261 382.93 335.708L384.673 351.126C385.581 359.148 379.997 366.314 372.272 367.19L161.562 391.063C153.837 391.939 146.795 386.203 145.888 378.181ZM306.262 187.452C302.39 153.207 272.294 128.524 239.008 132.295C205.722 136.067 181.898 166.859 185.77 201.104C189.643 235.35 219.739 260.032 253.025 256.261C286.31 252.49 310.134 221.698 306.262 187.452ZM143.046 362.887L144.789 378.305C145.762 386.906 153.327 393.111 161.687 392.163L372.396 368.289C380.756 367.342 386.745 359.602 385.772 351.001L384.029 335.583C377.897 281.348 295.867 274.948 255.653 279.504C215.439 284.061 136.913 308.652 143.046 362.887Z" fill="url(#paint0_linear_1_12)"/>
<defs>
<linearGradient id="paint0_linear_1_12" x1="385.337" y1="525.528" x2="607.128" y2="251.855" gradientUnits="userSpaceOnUse">
<stop stop-color="#0745F9" stop-opacity="0.42"/>
<stop offset="1" stop-color="#00FFFF"/>
</linearGradient>
</defs>
</svg>
