<svg width="299" height="299" viewBox="0 0 299 299" fill="none" xmlns="http://www.w3.org/2000/svg">
<path fill-rule="evenodd" clip-rule="evenodd" d="M297.453 149.433C297.453 231.351 231.114 297.758 149.28 297.758C67.4454 297.758 1.10577 231.351 1.10577 149.433C1.10577 67.5146 67.4454 1.10691 149.28 1.10691C231.114 1.10691 297.453 67.5146 297.453 149.433ZM298.559 149.433C298.559 231.962 231.724 298.865 149.28 298.865C66.8347 298.865 0 231.962 0 149.433C0 66.9032 66.8347 0 149.28 0C231.724 0 298.559 66.9032 298.559 149.433ZM149.277 78.8122C168.432 78.8122 183.998 94.7827 183.998 114.565C183.998 134.348 168.432 150.318 149.277 150.318C130.122 150.318 114.556 134.348 114.556 114.565C114.556 94.7827 130.122 78.8122 149.277 78.8122ZM78.7286 215.884V206.715C78.7286 191.264 90.1323 181.181 104.914 174.906C119.665 168.644 137.423 166.355 149.277 166.355C161.131 166.355 178.889 168.644 193.64 174.906C208.422 181.181 219.825 191.264 219.825 206.715V215.884C219.825 220.417 216.262 224.038 211.93 224.038H86.6244C82.292 224.038 78.7286 220.417 78.7286 215.884ZM185.104 114.565C185.104 94.2001 169.072 77.7053 149.277 77.7053C129.483 77.7053 113.45 94.2001 113.45 114.565C113.45 134.93 129.483 151.425 149.277 151.425C169.072 151.425 185.104 134.93 185.104 114.565ZM77.6228 206.715V215.884C77.6228 220.999 81.653 225.145 86.6244 225.145H211.93C216.901 225.145 220.931 220.999 220.931 215.884V206.715C220.931 174.463 173.192 165.248 149.277 165.248C125.362 165.248 77.6228 174.463 77.6228 206.715Z" fill="url(#paint0_linear_1_8)"/>
<defs>
<linearGradient id="paint0_linear_1_8" x1="940.765" y1="457.881" x2="1066.5" y2="21.7228" gradientUnits="userSpaceOnUse">
<stop stop-color="#0745F9" stop-opacity="0.42"/>
<stop offset="1" stop-color="#00FFFF"/>
</linearGradient>
</defs>
</svg>
