<svg width="112" height="112" viewBox="0 0 112 112" fill="none" xmlns="http://www.w3.org/2000/svg">
<path fill-rule="evenodd" clip-rule="evenodd" d="M106.029 76.2417C94.6674 104.126 62.8755 117.511 35.0198 106.138C7.16405 94.7644 -6.2071 62.9399 5.15447 35.0556C16.5161 7.17138 48.308 -6.21346 76.1637 5.15976C104.019 16.533 117.391 48.3575 106.029 76.2417ZM107.053 76.6598C95.4606 105.11 63.0234 118.767 34.6022 107.163C6.18096 95.5585 -7.46163 63.0879 4.13059 34.6376C15.7228 6.18728 48.1601 -7.46927 76.5813 4.13483C105.003 15.7389 118.645 48.2094 107.053 76.6598ZM65.2468 31.9469C71.4788 34.4914 74.4546 41.7723 71.8138 48.2533C69.1731 54.7344 61.9592 57.855 55.7272 55.3105C49.4952 52.7661 46.5195 45.4852 49.1602 39.0041C51.801 32.523 59.0148 29.4024 65.2468 31.9469ZM22.5781 68.8891L23.866 65.7283C25.8763 60.7944 30.8481 58.9618 36.7277 58.8806C42.5749 58.7998 48.9241 60.4815 52.9504 62.1254C56.9767 63.7693 62.6898 67.0125 66.8126 71.1639C70.9581 75.3383 73.2313 80.129 71.2209 85.0629L69.933 88.2237C69.4344 89.4475 68.0927 90.0005 66.9706 89.5424L23.7741 71.9057C22.652 71.4476 22.0795 70.113 22.5781 68.8891ZM72.8377 48.6714C75.6982 41.6509 72.4882 33.708 65.6645 30.922C58.8407 28.1359 50.9969 31.5656 48.1363 38.5861C45.2758 45.6066 48.4858 53.5494 55.3096 56.3355C62.1333 59.1215 69.9772 55.6919 72.8377 48.6714ZM22.8421 65.3103L21.5542 68.4711C20.8358 70.2343 21.6427 72.2309 23.3565 72.9306L66.553 90.5674C68.2668 91.2671 70.2385 90.405 70.9569 88.6418L72.2448 85.4809C76.7751 74.3625 61.6121 64.4665 53.3681 61.1005C45.124 57.7345 27.3724 54.1919 22.8421 65.3103Z" fill="url(#paint0_linear_1_7)"/>
<defs>
<linearGradient id="paint0_linear_1_7" x1="1128.63" y1="379.777" x2="1254.37" y2="-56.3815" gradientUnits="userSpaceOnUse">
<stop stop-color="#0745F9" stop-opacity="0.42"/>
<stop offset="1" stop-color="#00FFFF"/>
</linearGradient>
</defs>
</svg>
