<svg width="236" height="237" viewBox="0 0 236 237" fill="none" xmlns="http://www.w3.org/2000/svg">
<path fill-rule="evenodd" clip-rule="evenodd" d="M232.325 142.257C219.002 205.469 157.009 245.901 93.8616 232.563C30.7138 219.226 -9.67656 157.17 3.6472 93.9577C16.971 30.7452 78.9633 -9.68648 142.111 3.65093C205.259 16.9883 245.649 79.0442 232.325 142.257ZM233.407 142.485C219.958 206.296 157.379 247.11 93.6332 233.647C29.8879 220.183 -10.8846 157.54 2.56523 93.7291C16.0151 29.9185 78.5941 -10.8958 142.339 2.56786C206.085 16.0315 246.857 78.6746 233.407 142.485ZM129.444 63.7325C144.124 66.833 153.483 81.5953 150.285 96.7714C147.086 111.947 132.566 121.666 117.887 118.566C103.207 115.465 93.8476 100.703 97.0464 85.5269C100.245 70.3508 114.765 60.6321 129.444 63.7325ZM52.8333 158.015L54.3276 150.925C56.8164 139.118 67.1557 133.218 79.5751 130.787C91.9628 128.362 106.033 129.488 115.177 131.419C124.321 133.351 137.647 138.011 148 145.239C158.38 152.486 165.457 162.063 162.968 173.871L161.474 180.961C160.76 184.345 157.533 186.476 154.315 185.797L57.4302 165.334C54.2117 164.654 52.1199 161.399 52.8333 158.015ZM151.367 96.9999C154.685 81.2538 144.977 65.882 129.673 62.6495C114.368 59.4169 99.2833 69.5523 95.9644 85.2984C92.6455 101.045 102.354 116.416 117.658 119.649C132.963 122.881 148.048 112.746 151.367 96.9999ZM53.2457 150.697L51.7513 157.786C50.9178 161.741 53.3581 165.605 57.202 166.417L154.086 186.88C157.93 187.692 161.722 185.144 162.556 181.189L164.05 174.1C169.306 149.163 133.896 134.242 115.406 130.336C96.9153 126.431 58.5019 125.76 53.2457 150.697Z" fill="url(#paint0_linear_1_11)"/>
<defs>
<linearGradient id="paint0_linear_1_11" x1="568.18" y1="256.75" x2="771.897" y2="-98.9993" gradientUnits="userSpaceOnUse">
<stop stop-color="#0745F9" stop-opacity="0.42"/>
<stop offset="1" stop-color="#00FFFF"/>
</linearGradient>
</defs>
</svg>
