<svg width="133" height="133" viewBox="0 0 133 133" fill="none" xmlns="http://www.w3.org/2000/svg">
<path fill-rule="evenodd" clip-rule="evenodd" d="M129.975 52.7285C137.48 87.9511 115.039 122.595 79.8526 130.108C44.666 137.62 10.0576 115.157 2.55256 79.9344C-4.95247 44.7117 17.4879 10.0679 52.6745 2.55513C87.8611 -4.95759 122.47 17.5058 129.975 52.7285ZM131.056 52.4976C138.688 88.3181 115.867 123.55 80.0833 131.19C44.2994 138.831 9.1035 115.986 1.47107 80.1653C-6.16135 44.3447 16.6599 9.11282 52.4438 1.47258C88.2277 -6.16766 123.424 16.677 131.056 52.4976ZM59.8605 36.2841C67.827 34.5831 75.7454 39.8413 77.5075 48.1108C79.2695 56.3802 74.1833 64.4151 66.2169 66.116C58.2504 67.8169 50.332 62.5587 48.57 54.2892C46.8079 46.0198 51.894 37.985 59.8605 36.2841ZM42.3898 101.585L41.5419 97.6057C40.1912 91.2668 43.9521 86.049 49.7167 82.0053C55.4549 77.9803 62.8678 75.3671 67.9566 74.2805C73.0453 73.194 80.8782 72.5521 87.7576 73.8832C94.6688 75.2204 100.229 78.4481 101.58 84.787L102.428 88.7666C102.779 90.4169 101.761 91.9797 100.228 92.3069L45.8413 103.919C44.3085 104.246 42.7415 103.236 42.3898 101.585ZM78.5889 47.8799C76.7055 39.0407 68.2213 33.3671 59.6298 35.2015C51.0383 37.0359 45.6051 45.681 47.4885 54.5202C49.3719 63.3593 57.8561 69.0329 66.4476 67.1985C75.0391 65.3642 80.4723 56.7191 78.5889 47.8799ZM40.4605 97.8366L41.3084 101.816C41.7814 104.036 43.9141 105.462 46.0719 105.002L100.459 93.3895C102.616 92.9288 103.982 90.7557 103.509 88.5357L102.661 84.5561C99.6785 70.5574 78.1057 70.9818 67.7259 73.198C57.3461 75.4142 37.4778 83.8379 40.4605 97.8366Z" fill="url(#paint0_linear_1_9)"/>
<defs>
<linearGradient id="paint0_linear_1_9" x1="474.496" y1="385.746" x2="600.232" y2="-50.4121" gradientUnits="userSpaceOnUse">
<stop stop-color="#0745F9" stop-opacity="0.42"/>
<stop offset="1" stop-color="#00FFFF"/>
</linearGradient>
</defs>
</svg>
