<svg width="280" height="262" viewBox="0 0 280 262" fill="none" xmlns="http://www.w3.org/2000/svg">
<path d="M2.06593 18.1996L1.4274 18.2558L1.64522 18.8587C5.32142 29.0334 8.86297 39.3691 12.2644 49.8575C33.3178 114.778 49.0005 185.552 57.9964 260.26L58.0535 260.735L58.5295 260.693L278.561 241.31L279.083 241.264L279.006 240.746C277.443 230.151 275.628 219.65 273.568 209.251C261.037 145.983 239.444 86.472 210.374 32.1008C204.847 21.7638 199.05 11.6126 192.993 1.65662L192.993 1.65657C192.752 1.26085 192.511 0.865241 192.269 0.469865L191.357 0.770536L191.423 1.51894L2.06593 18.1996ZM240.592 211.714L86.4325 225.294C77.2669 162.755 63.5134 103.047 45.893 47.2796L175.03 35.9038C205.209 89.4519 227.657 148.56 240.592 211.714Z" stroke="url(#paint0_linear_193_19214)" stroke-width="0.986718"/>
<defs>
<linearGradient id="paint0_linear_193_19214" x1="-337.94" y1="510.379" x2="-157.834" y2="904.33" gradientUnits="userSpaceOnUse">
<stop stop-color="#0745F9" stop-opacity="0.42"/>
<stop offset="1" stop-color="#00FFFF"/>
</linearGradient>
</defs>
</svg>
