<svg width="277" height="260" viewBox="0 0 277 260" fill="none" xmlns="http://www.w3.org/2000/svg">
<path d="M192.175 34.443C201.342 97.1569 215.123 157.026 232.792 212.93M103.189 224.842C72.9062 171.164 50.3894 111.898 37.4293 48.5699M192.663 34.3716L192.596 33.9106L192.132 33.9515L37.2867 47.592L36.7362 47.6405L36.8465 48.1819C49.8011 111.745 72.374 171.224 102.759 225.085L102.915 225.362L103.232 225.334L232.988 213.903L233.601 213.849L233.415 213.263C215.681 157.247 201.852 97.2403 192.663 34.3716ZM37.924 48.5264L191.754 34.9753C200.919 97.508 214.671 157.211 232.289 212.974L103.462 224.323C73.2923 170.777 50.8532 111.674 37.924 48.5264ZM264.979 210.701C268.316 220.992 271.788 231.137 275.39 241.128L86.4682 257.77L86.1804 257.795C80.1922 247.939 74.4587 237.891 68.9902 227.66C39.9738 173.377 18.4225 113.963 5.91559 50.7975C3.89322 40.5836 2.10733 30.2715 0.564603 19.8672L219.268 0.601385C228.28 75.1905 243.952 145.86 264.979 210.701Z" stroke="url(#paint0_linear_7_10)" stroke-width="0.986718"/>
<defs>
<linearGradient id="paint0_linear_7_10" x1="564.57" y1="107.646" x2="744.677" y2="501.597" gradientUnits="userSpaceOnUse">
<stop stop-color="#0745F9" stop-opacity="0.42"/>
<stop offset="1" stop-color="#00FFFF"/>
</linearGradient>
</defs>
</svg>
