<svg width="337" height="223" viewBox="0 0 337 223" fill="none" xmlns="http://www.w3.org/2000/svg">
<path d="M219.556 148.612C163.602 121.681 112.232 85.4742 67.4577 41.677M150.024 33.9083C170.845 75.7933 194.266 114.199 219.878 148.22M220.312 149.522L220.918 148.78C195.075 114.575 171.45 75.9018 150.466 33.6887L150.316 33.3873L149.981 33.4169L66.9504 40.7311L65.8835 40.8251L66.6483 41.5749C111.828 85.8663 163.738 122.427 220.312 149.522ZM149.732 34.4293C170.372 75.9083 193.563 113.977 218.91 147.753C163.465 120.95 112.541 85.0234 68.1051 41.6199L149.732 34.4293ZM26.3954 44.4936C17.6438 35.1404 9.1659 25.4992 0.976873 15.583L168.86 0.794042C201.096 70.0256 240.01 129.218 283.325 175.029C299.711 192.359 316.727 207.776 334.251 221.096C311.104 216.05 288.399 209.601 266.232 201.831C174.958 169.839 92.7989 115.461 26.3954 44.4936Z" stroke="url(#paint0_linear_7_9)" stroke-width="0.986718"/>
<defs>
<linearGradient id="paint0_linear_7_9" x1="426.991" y1="-208.241" x2="607.098" y2="185.709" gradientUnits="userSpaceOnUse">
<stop stop-color="#0745F9" stop-opacity="0.42"/>
<stop offset="1" stop-color="#00FFFF"/>
</linearGradient>
</defs>
</svg>
