<svg width="198" height="244" viewBox="0 0 198 244" fill="none" xmlns="http://www.w3.org/2000/svg">
<path d="M1.22777 242.631L1.01333 243.331L1.7428 243.267L196.394 226.12L196.886 226.076L196.843 225.585L177.143 1.95809L177.086 1.30662L176.475 1.54072C166.245 5.46242 155.992 10.6319 145.804 17.1045C104.058 43.6269 63.4026 92.0297 29.8681 166.154C23.5988 180.012 17.7044 194.541 12.2164 209.69C8.34794 220.368 4.68138 231.355 1.22777 242.631ZM148.888 55.1499L161.319 196.269L48.595 206.199C52.1708 197.071 55.8976 188.227 59.7647 179.68C87.2579 118.909 118.553 79.1119 148.888 55.1499Z" stroke="url(#paint0_linear_193_19212)" stroke-width="0.986718"/>
<defs>
<linearGradient id="paint0_linear_193_19212" x1="240.748" y1="760.748" x2="420.855" y2="1154.7" gradientUnits="userSpaceOnUse">
<stop stop-color="#0745F9" stop-opacity="0.42"/>
<stop offset="1" stop-color="#00FFFF"/>
</linearGradient>
</defs>
</svg>
