<svg width="195" height="242" viewBox="0 0 195 242" fill="none" xmlns="http://www.w3.org/2000/svg">
<path d="M137.324 63.6826C109.649 124.856 78.1085 164.831 47.5328 188.809M46.5779 189.214L46.6575 190.117L47.3726 189.56C78.172 165.562 109.935 125.42 137.774 63.886C141.755 55.0855 145.587 45.9729 149.26 36.5617L149.548 35.8212L148.757 35.8909L34.4538 45.96L33.9624 46.0033L34.0057 46.4947L46.5779 189.214ZM136.875 63.4793C109.299 124.432 77.8998 164.284 47.4811 188.222L35.0319 46.8996L148.051 36.9437C144.473 46.0768 140.744 54.9262 136.875 63.4793ZM50.0332 225.395C40.0977 231.683 30.1063 236.723 20.1421 240.569L0.534748 17.9882L194.258 0.92291C190.873 11.9385 187.283 22.6753 183.501 33.1166C178.02 48.2486 172.133 62.7595 165.872 76.598C132.317 150.769 91.6653 199.044 50.0332 225.395Z" stroke="url(#paint0_linear_7_7)" stroke-width="0.986718"/>
<defs>
<linearGradient id="paint0_linear_7_7" x1="-95.6659" y1="-159.834" x2="84.4408" y2="234.117" gradientUnits="userSpaceOnUse">
<stop stop-color="#0745F9" stop-opacity="0.42"/>
<stop offset="1" stop-color="#00FFFF"/>
</linearGradient>
</defs>
</svg>
