<svg width="236" height="270" viewBox="0 0 236 270" fill="none" xmlns="http://www.w3.org/2000/svg">
<path d="M234.587 0.647076L45.5135 17.3027L45.4565 16.6557L44.5056 16.5193C44.3507 16.9155 44.1961 17.3118 44.0419 17.7083C39.8191 28.5698 35.8859 39.5782 32.2513 50.7222C13.1338 109.338 2.27817 171.707 1.00031 236.192C0.790275 246.791 0.838995 257.447 1.1523 268.153L1.1676 268.676L1.68874 268.63L221.387 249.277L221.863 249.235L221.836 248.758C217.632 173.627 220.7 101.201 230.08 33.6004C231.595 22.6789 233.275 11.8832 235.116 1.22248L235.225 0.590829L234.587 0.647076ZM33.8996 232.852C35.5947 168.409 47.3627 106.287 67.7157 48.2877L196.519 36.9413C188.919 94.9305 185.816 156.124 187.725 219.301L33.8996 232.852Z" stroke="url(#paint0_linear_193_19217)" stroke-width="0.986718"/>
<defs>
<linearGradient id="paint0_linear_193_19217" x1="572.97" y1="433.067" x2="753.077" y2="827.017" gradientUnits="userSpaceOnUse">
<stop stop-color="#0745F9" stop-opacity="0.42"/>
<stop offset="1" stop-color="#00FFFF"/>
</linearGradient>
</defs>
</svg>
