<svg width="235" height="268" viewBox="0 0 235 268" fill="none" xmlns="http://www.w3.org/2000/svg">
<path d="M202.105 35.2431C200.416 99.862 188.607 162.151 168.175 220.297M38.1511 231.255C45.7746 173.123 48.8774 111.767 46.9389 48.4165M168.219 220.788L168.535 220.76L168.641 220.46C189.142 162.117 200.968 99.6075 202.611 34.7592L202.625 34.2067L202.075 34.2552L46.8956 47.9251L46.4315 47.9659L46.4458 48.4316C48.389 111.938 45.2641 173.439 37.5962 231.692L37.5159 232.302L38.1286 232.248L168.219 220.788ZM201.61 35.2866C199.92 99.7223 188.159 161.838 167.815 219.833L38.6545 231.211C46.2526 173.227 49.3549 112.039 47.4462 48.8671L201.61 35.2866ZM190.345 249.799L1.13876 266.466C2.93867 256 4.58394 245.404 6.0707 234.687C15.4376 167.169 18.5138 94.8483 14.3468 19.8326L233.384 0.537387C233.684 11.0512 233.728 21.5168 233.523 31.927C232.252 96.3064 221.419 158.573 202.34 217.093C198.744 228.121 194.856 239.017 190.683 249.769L190.345 249.799Z" stroke="url(#paint0_linear_7_13)" stroke-width="0.986718"/>
<defs>
<linearGradient id="paint0_linear_7_13" x1="-389.356" y1="192.858" x2="-209.249" y2="586.809" gradientUnits="userSpaceOnUse">
<stop stop-color="#0745F9" stop-opacity="0.42"/>
<stop offset="1" stop-color="#00FFFF"/>
</linearGradient>
</defs>
</svg>
