<svg width="281" height="265" viewBox="0 0 281 265" fill="none" xmlns="http://www.w3.org/2000/svg">
<path d="M80.5936 230.208C61.3602 176.175 46.0901 116.295 36.1756 52.0556M80.1288 230.373L80.2568 230.733L80.6369 230.699L245.877 216.143L246.369 216.1L246.326 215.608L230.367 34.4538L230.324 33.9623L229.833 34.0056L36.057 51.0755L35.5326 51.1217L35.6126 51.642C45.5296 116.096 60.8357 176.173 80.1288 230.373ZM245.299 215.203L80.9305 229.683C61.7713 175.784 46.5562 116.068 36.6681 52.0122L229.428 35.0318L245.299 215.203ZM59.5453 263.517C35.3269 201.007 16.3961 130.489 4.81909 54.2914C3.262 44.0429 1.83794 33.6918 0.551939 23.2435L258.339 0.5348L279.796 244.115L59.5453 263.517Z" stroke="url(#paint0_linear_7_11)" stroke-width="0.986718"/>
<defs>
<linearGradient id="paint0_linear_7_11" x1="268.125" y1="137.135" x2="448.232" y2="531.086" gradientUnits="userSpaceOnUse">
<stop stop-color="#0745F9" stop-opacity="0.42"/>
<stop offset="1" stop-color="#00FFFF"/>
</linearGradient>
</defs>
</svg>
