<svg width="215" height="225" viewBox="0 0 215 225" fill="none" xmlns="http://www.w3.org/2000/svg">
<path d="M177.783 177.121C143.565 158.82 105.633 125.01 67.8025 69.7814M51.6874 44.4165L50.8956 44.4863L51.3095 45.1649C56.5703 53.7891 61.9368 62.0913 67.3954 70.0602C105.45 125.615 143.63 159.551 178.071 177.834L178.874 178.26L178.794 177.355L166.238 34.8208L166.195 34.3293L165.704 34.3726L51.6874 44.4165ZM68.2095 69.5025C62.9043 61.7577 57.6857 53.6966 52.5664 45.3296L165.299 35.3988L177.731 176.533C143.675 158.244 105.904 124.531 68.2095 69.5025ZM16.993 47.7592C11.4435 38.1399 6.03251 28.1959 0.773151 17.9419L194.21 0.901776L213.81 223.4C203.325 221.334 192.604 218.096 181.721 213.619C136.211 194.898 87.8572 154.504 41.952 87.4887C33.3685 74.958 25.0354 61.6997 16.993 47.7592Z" stroke="url(#paint0_linear_7_8)" stroke-width="0.986718"/>
<defs>
<linearGradient id="paint0_linear_7_8" x1="175.695" y1="-183.764" x2="355.802" y2="210.187" gradientUnits="userSpaceOnUse">
<stop stop-color="#0745F9" stop-opacity="0.42"/>
<stop offset="1" stop-color="#00FFFF"/>
</linearGradient>
</defs>
</svg>
