<svg width="340" height="225" viewBox="0 0 340 225" fill="none" xmlns="http://www.w3.org/2000/svg">
<path d="M337.774 209.248L338.707 209.166L338.112 208.443C329.723 198.257 321.03 188.359 312.05 178.763C245.431 107.584 162.982 53.0687 71.3806 21.0534C48.4913 13.0534 25.0306 6.45835 1.10283 1.35927L0.703992 2.23649C18.7985 15.8069 36.3633 31.6197 53.262 49.4777C96.6073 95.2835 135.563 154.538 167.823 223.893L167.969 224.206L168.314 224.176L337.774 209.248ZM187.699 189.528C167.014 147.96 143.767 109.817 118.355 75.9873C173.975 102.805 225.056 138.8 269.615 182.312L187.699 189.528Z" stroke="url(#paint0_linear_193_19210)" stroke-width="0.986718"/>
<defs>
<linearGradient id="paint0_linear_193_19210" x1="-141.109" y1="789.969" x2="38.9977" y2="1183.92" gradientUnits="userSpaceOnUse">
<stop stop-color="#0745F9" stop-opacity="0.42"/>
<stop offset="1" stop-color="#00FFFF"/>
</linearGradient>
</defs>
</svg>
