<svg width="219" height="227" viewBox="0 0 219 227" fill="none" xmlns="http://www.w3.org/2000/svg">
<path d="M21.2152 225.135L21.2585 225.626L21.75 225.583L216.688 208.41L217.418 208.346L217.084 207.694C211.713 197.195 206.182 187.019 200.506 177.182C192.454 163.226 184.11 149.951 175.515 137.402C129.437 70.1352 80.8348 29.5548 35.0064 10.7934C23.845 6.22407 12.848 2.94896 2.0924 0.898185L1.45127 0.775939L1.50854 1.42611L21.2152 225.135ZM164.077 180.104L51.0662 190.059L38.6184 48.753C72.7537 67.0047 110.636 100.753 148.443 155.946C153.745 163.686 158.961 171.743 164.077 180.104Z" stroke="url(#paint0_linear_193_19211)" stroke-width="0.986718"/>
<defs>
<linearGradient id="paint0_linear_193_19211" x1="-10.6003" y1="766.968" x2="169.506" y2="1160.92" gradientUnits="userSpaceOnUse">
<stop stop-color="#0745F9" stop-opacity="0.42"/>
<stop offset="1" stop-color="#00FFFF"/>
</linearGradient>
</defs>
</svg>
