<svg width="299" height="265" viewBox="0 0 299 265" fill="none" xmlns="http://www.w3.org/2000/svg">
<path d="M297.904 1.33703L297.357 0.543454C274.682 9.77441 252.731 20.398 231.59 32.3061C147.218 79.8294 75.7498 147.81 22.7079 229.376C15.5434 240.393 8.71495 251.658 2.23633 263.155L1.77657 263.971L2.70944 263.888L171.835 248.99L172.18 248.96L172.269 248.625C191.878 174.809 219.82 109.742 254.418 57.1054C267.932 36.5453 282.46 17.883 297.904 1.33703ZM146.691 218.264L65.1095 225.451C101.254 174.988 145.082 130.745 194.949 94.6831C175.916 132.346 159.752 173.851 146.691 218.264Z" stroke="url(#paint0_linear_193_19213)" stroke-width="0.986718"/>
<defs>
<linearGradient id="paint0_linear_193_19213" x1="492.975" y1="759.236" x2="673.082" y2="1153.19" gradientUnits="userSpaceOnUse">
<stop stop-color="#0745F9" stop-opacity="0.42"/>
<stop offset="1" stop-color="#00FFFF"/>
</linearGradient>
</defs>
</svg>
