<svg width="261" height="268" viewBox="0 0 261 268" fill="none" xmlns="http://www.w3.org/2000/svg">
<path d="M228.571 35.1326C230.039 100.116 225.473 161.743 215.982 218.306M229.053 34.6269L229.04 34.1006L228.516 34.1468L34.4538 51.242L33.9624 51.2853L34.0057 51.7767L49.9637 232.931L50.007 233.422L50.4985 233.379L216.026 218.798L216.406 218.764L216.469 218.388C225.989 161.65 230.557 99.8222 229.053 34.6269ZM35.0319 52.1816L228.078 35.1759C229.541 99.9738 225 161.43 215.559 217.848L50.9033 232.353L35.0319 52.1816ZM0.534748 23.2702L258.609 0.536209C259.169 11.0484 259.577 21.4892 259.835 31.852C261.758 108.9 255.447 181.641 242.53 247.423L21.9919 266.85L0.534748 23.2702Z" stroke="url(#paint0_linear_7_12)" stroke-width="0.986718"/>
<defs>
<linearGradient id="paint0_linear_7_12" x1="-67.3653" y1="166.714" x2="112.741" y2="560.665" gradientUnits="userSpaceOnUse">
<stop stop-color="#0745F9" stop-opacity="0.42"/>
<stop offset="1" stop-color="#00FFFF"/>
</linearGradient>
</defs>
</svg>
