<svg width="297" height="263" viewBox="0 0 297 263" fill="none" xmlns="http://www.w3.org/2000/svg">
<path d="M234.264 37.8882C197.715 89.0082 153.292 133.766 102.7 170.129M102.314 169.799C121.657 131.737 138.06 89.7142 151.277 44.7035M235.043 37.6462L235.665 36.7743L234.598 36.8683L151.233 44.2121L150.898 44.2416L150.803 44.5645C137.484 89.9264 120.927 132.247 101.388 170.531L102.115 171.156C153.289 134.524 198.182 89.3236 235.043 37.6462ZM151.655 45.1654L233.616 37.9453C197.331 88.6185 153.3 133.022 103.186 169.172C122.31 131.396 138.546 89.7451 151.655 45.1654ZM66.0412 230.613C45.5767 242.11 24.3537 252.402 2.45142 261.39C17.3771 245.232 31.4376 227.099 44.5435 207.193C79.2548 154.473 107.276 89.3044 126.941 15.3922L295.159 0.573715C288.83 11.7688 282.168 22.7437 275.186 33.4827C222.106 115.13 150.538 183.143 66.0412 230.613Z" stroke="url(#paint0_linear_7_6)" stroke-width="0.986718"/>
<defs>
<linearGradient id="paint0_linear_7_6" x1="-246.191" y1="-138.034" x2="-66.0845" y2="255.916" gradientUnits="userSpaceOnUse">
<stop stop-color="#0745F9" stop-opacity="0.42"/>
<stop offset="1" stop-color="#00FFFF"/>
</linearGradient>
</defs>
</svg>
