<svg width="959" height="279" viewBox="0 0 959 279" fill="none" xmlns="http://www.w3.org/2000/svg">
<path d="M175.103 174.926L177.077 174.021L176.79 173.392L174.265 174.549L174.425 174.901L174.346 174.939C175.162 176.641 175.817 178.432 176.292 180.293L176.96 180.121C176.5 178.32 175.876 176.582 175.103 174.926Z" fill="url(#paint0_linear_476_18692)"/>
<path d="M182.126 171.706L187.176 169.391L186.889 168.762L181.839 171.077L182.126 171.706Z" fill="url(#paint1_linear_476_18692)"/>
<path d="M192.225 167.076L197.275 164.761L196.988 164.131L191.938 166.446L192.225 167.076Z" fill="url(#paint2_linear_476_18692)"/>
<path d="M202.324 162.446L207.374 160.131L207.087 159.501L202.038 161.816L202.324 162.446Z" fill="url(#paint3_linear_476_18692)"/>
<path d="M212.423 157.816L217.473 155.501L217.186 154.871L212.137 157.186L212.423 157.816Z" fill="url(#paint4_linear_476_18692)"/>
<path d="M222.523 153.185L227.572 150.87L227.285 150.241L222.236 152.556L222.523 153.185Z" fill="url(#paint5_linear_476_18692)"/>
<path d="M232.622 148.555L237.671 146.24L237.385 145.611L232.335 147.926L232.622 148.555Z" fill="url(#paint6_linear_476_18692)"/>
<path d="M242.721 143.925L247.77 141.61L247.484 140.981L242.434 143.296L242.721 143.925Z" fill="url(#paint7_linear_476_18692)"/>
<path d="M252.82 139.295L257.87 136.98L257.583 136.35L252.533 138.665L252.82 139.295Z" fill="url(#paint8_linear_476_18692)"/>
<path d="M262.919 134.665L267.969 132.35L267.682 131.72L262.632 134.035L262.919 134.665Z" fill="url(#paint9_linear_476_18692)"/>
<path d="M273.018 130.035L278.068 127.72L277.781 127.09L272.731 129.405L273.018 130.035Z" fill="url(#paint10_linear_476_18692)"/>
<path d="M283.117 125.405L288.167 123.089L287.88 122.46L282.831 124.775L283.117 125.405Z" fill="url(#paint11_linear_476_18692)"/>
<path d="M293.216 120.774L298.266 118.459L297.979 117.83L292.93 120.145L293.216 120.774Z" fill="url(#paint12_linear_476_18692)"/>
<path d="M303.316 116.144L308.365 113.829L308.078 113.2L303.029 115.515L303.316 116.144Z" fill="url(#paint13_linear_476_18692)"/>
<path d="M313.415 111.514L318.464 109.199L318.177 108.569L313.128 110.885L313.415 111.514Z" fill="url(#paint14_linear_476_18692)"/>
<path d="M323.514 106.884L328.563 104.569L328.277 103.939L323.227 106.254L323.514 106.884Z" fill="url(#paint15_linear_476_18692)"/>
<path d="M333.613 102.254L338.663 99.9387L338.376 99.3092L333.326 101.624L333.613 102.254Z" fill="url(#paint16_linear_476_18692)"/>
<path d="M343.712 97.6236L348.762 95.3085L348.475 94.679L343.425 96.9941L343.712 97.6236Z" fill="url(#paint17_linear_476_18692)"/>
<path d="M353.811 92.9934L358.861 90.6783L358.574 90.0488L353.524 92.3639L353.811 92.9934Z" fill="url(#paint18_linear_476_18692)"/>
<path d="M363.91 88.3633L368.96 86.0482L368.673 85.4187L363.624 87.7337L363.91 88.3633Z" fill="url(#paint19_linear_476_18692)"/>
<path d="M374.009 83.7331L379.059 81.418L378.772 80.7885L373.723 83.1036L374.009 83.7331Z" fill="url(#paint20_linear_476_18692)"/>
<path d="M384.109 79.103L389.158 76.7879L388.871 76.1584L383.822 78.4734L384.109 79.103Z" fill="url(#paint21_linear_476_18692)"/>
<path d="M394.208 74.4728L399.257 72.1577L398.97 71.5282L393.921 73.8433L394.208 74.4728Z" fill="url(#paint22_linear_476_18692)"/>
<path d="M404.307 69.8426L409.356 67.5276L409.07 66.898L404.02 69.2131L404.307 69.8426Z" fill="url(#paint23_linear_476_18692)"/>
<path d="M414.406 65.2125L419.456 62.8974L419.169 62.2679L414.119 64.583L414.406 65.2125Z" fill="url(#paint24_linear_476_18692)"/>
<path d="M424.505 60.5823L429.555 58.2672L429.268 57.6377L424.218 59.9528L424.505 60.5823Z" fill="url(#paint25_linear_476_18692)"/>
<path d="M434.604 55.9522L439.654 53.6371L439.367 53.0076L434.317 55.3226L434.604 55.9522Z" fill="url(#paint26_linear_476_18692)"/>
<path d="M444.703 51.322L449.753 49.0069L449.466 48.3774L444.417 50.6925L444.703 51.322Z" fill="url(#paint27_linear_476_18692)"/>
<path d="M454.802 46.6918L459.852 44.3768L459.565 43.7472L454.516 46.0623L454.802 46.6918Z" fill="url(#paint28_linear_476_18692)"/>
<path d="M464.902 42.0617L469.951 39.7466L469.664 39.1171L464.615 41.4322L464.902 42.0617Z" fill="url(#paint29_linear_476_18692)"/>
<path d="M475.001 37.4315L480.05 35.1164L479.763 34.4869L474.714 36.802L475.001 37.4315Z" fill="url(#paint30_linear_476_18692)"/>
<path d="M485.1 32.8014L490.149 30.4863L489.863 29.8568L484.813 32.1718L485.1 32.8014Z" fill="url(#paint31_linear_476_18692)"/>
<path d="M495.199 28.1712L500.248 25.8561L499.962 25.2266L494.912 27.5417L495.199 28.1712Z" fill="url(#paint32_linear_476_18692)"/>
<path d="M505.298 23.541L510.348 21.226L510.061 20.5964L505.011 22.9115L505.298 23.541Z" fill="url(#paint33_linear_476_18692)"/>
<path d="M515.397 18.9109L520.447 16.5958L520.16 15.9663L515.11 18.2814L515.397 18.9109Z" fill="url(#paint34_linear_476_18692)"/>
<path d="M525.496 14.2807L530.546 11.9656L530.259 11.3361L525.209 13.6512L525.496 14.2807Z" fill="url(#paint35_linear_476_18692)"/>
<path d="M535.595 9.65055L540.645 7.33548L540.358 6.70596L535.309 9.02104L535.595 9.65055Z" fill="url(#paint36_linear_476_18692)"/>
<path d="M545.695 5.02039L550.744 2.70531L550.457 2.07581L545.408 4.39088L545.695 5.02039Z" fill="url(#paint37_linear_476_18692)"/>
<path d="M555.794 0.390244L560.843 -1.92484L560.556 -2.55435L555.507 -0.239281L555.794 0.390244Z" fill="url(#paint38_linear_476_18692)"/>
<path d="M565.893 -4.23991L570.942 -6.55501L570.656 -7.18452L565.606 -4.86944L565.893 -4.23991Z" fill="url(#paint39_linear_476_18692)"/>
<path d="M575.992 -8.87009L581.041 -11.1852L580.755 -11.8147L575.705 -9.4996L575.992 -8.87009Z" fill="url(#paint40_linear_476_18692)"/>
<path d="M586.091 -13.5002L591.141 -15.8153L590.854 -16.4448L585.804 -14.1298L586.091 -13.5002Z" fill="url(#paint41_linear_476_18692)"/>
<path d="M596.19 -18.1304L601.24 -20.4455L600.953 -21.075L595.903 -18.7599L596.19 -18.1304Z" fill="url(#paint42_linear_476_18692)"/>
<path d="M606.289 -22.7606L611.339 -25.0756L611.052 -25.7052L606.002 -23.3901L606.289 -22.7606Z" fill="url(#paint43_linear_476_18692)"/>
<path d="M616.388 -27.3907L621.438 -29.7058L621.151 -30.3353L616.102 -28.0202L616.388 -27.3907Z" fill="url(#paint44_linear_476_18692)"/>
<path d="M626.487 -32.0209L631.537 -34.336L631.25 -34.9655L626.201 -32.6504L626.487 -32.0209Z" fill="url(#paint45_linear_476_18692)"/>
<path d="M636.587 -36.651L641.636 -38.9661L641.349 -39.5956L636.3 -37.2806L636.587 -36.651Z" fill="url(#paint46_linear_476_18692)"/>
<path d="M646.686 -41.2812L651.735 -43.5963L651.449 -44.2258L646.399 -41.9107L646.686 -41.2812Z" fill="url(#paint47_linear_476_18692)"/>
<path d="M656.785 -45.9114L661.834 -48.2264L661.548 -48.856L656.498 -46.5409L656.785 -45.9114Z" fill="url(#paint48_linear_476_18692)"/>
<path d="M666.884 -50.5415L671.934 -52.8566L671.647 -53.4861L666.597 -51.171L666.884 -50.5415Z" fill="url(#paint49_linear_476_18692)"/>
<path d="M676.983 -55.1717L682.033 -57.4868L681.746 -58.1163L676.696 -55.8012L676.983 -55.1717Z" fill="url(#paint50_linear_476_18692)"/>
<path d="M687.082 -59.8018L692.132 -62.1169L691.845 -62.7464L686.795 -60.4314L687.082 -59.8018Z" fill="url(#paint51_linear_476_18692)"/>
<path d="M697.181 -64.432L702.231 -66.7471L701.944 -67.3766L696.895 -65.0615L697.181 -64.432Z" fill="url(#paint52_linear_476_18692)"/>
<path d="M707.28 -69.0622L712.33 -71.3772L712.043 -72.0068L706.994 -69.6917L707.28 -69.0622Z" fill="url(#paint53_linear_476_18692)"/>
<path d="M717.38 -73.6923L722.429 -76.0074L722.142 -76.6369L717.093 -74.3218L717.38 -73.6923Z" fill="url(#paint54_linear_476_18692)"/>
<path d="M727.479 -78.3225L732.528 -80.6376L732.241 -81.2671L727.192 -78.952L727.479 -78.3225Z" fill="url(#paint55_linear_476_18692)"/>
<path fill-rule="evenodd" clip-rule="evenodd" d="M737.578 -82.9526L742.627 -85.2677L742.53 -85.4815L764.656 -92.0194L764.44 -92.677L748.541 -87.9788L752.727 -89.8979L752.44 -90.5274L747.39 -88.2123L747.62 -87.7069L218.948 68.5102C213.338 53.592 198.975 42.9813 182.141 42.9813C160.422 42.9813 142.815 60.6445 142.815 82.4331C142.815 104.222 160.422 121.885 182.141 121.885C203.86 121.885 221.467 104.222 221.467 82.4331C221.467 77.7764 220.663 73.3081 219.186 69.1603L739.447 -84.5705L737.291 -83.5821L737.578 -82.9526ZM220.777 82.4331C220.777 103.839 203.479 121.193 182.141 121.193C160.803 121.193 143.505 103.839 143.505 82.4331C143.505 61.0267 160.803 43.6734 182.141 43.6734C203.479 43.6734 220.777 61.0267 220.777 82.4331Z" fill="url(#paint56_linear_476_18692)"/>
<path d="M757.776 -92.213L760.301 -93.3705L760.014 -94L757.489 -92.8425L757.776 -92.213Z" fill="url(#paint57_linear_476_18692)"/>
<path fill-rule="evenodd" clip-rule="evenodd" d="M767.199 -92.6775L767.2 -92.6781L766.752 -93.2042L761.044 -88.3083L335.019 174.543C326.18 160.769 310.762 151.647 293.219 151.647C265.785 151.647 243.545 173.958 243.545 201.481C243.545 229.003 265.785 251.315 293.219 251.315C320.654 251.315 342.894 229.003 342.894 201.481C342.894 191.804 340.145 182.772 335.388 175.128L757.669 -85.4134L490.95 143.361C483.775 135.681 473.572 130.883 462.252 130.883C440.533 130.883 422.926 148.546 422.926 170.334C422.926 192.123 440.533 209.786 462.252 209.786C483.971 209.786 501.578 192.123 501.578 170.334C501.578 160.151 497.732 150.869 491.418 143.87L761.451 -87.7471L764.643 -89.7163L573.784 232.364C570.184 230.328 566.028 229.166 561.601 229.166C547.884 229.166 536.764 240.322 536.764 254.083C536.764 267.844 547.884 279 561.601 279C575.319 279 586.439 267.844 586.439 254.083C586.439 245.01 581.605 237.07 574.38 232.712L765.747 -90.2259L766.178 -90.057L766.489 -90.8554L766.504 -90.8645L763.75 101.111L764.44 101.121C728.623 101.121 699.587 130.249 699.587 166.182C699.587 202.114 728.623 231.243 764.44 231.243C800.258 231.243 829.294 202.114 829.294 166.182C829.294 130.249 800.258 101.121 764.44 101.121L767.2 -91.294L766.87 -91.8322L767.199 -92.6746L767.2 -92.6771L767.199 -92.6775ZM765.569 -91.279L764.826 -90.642L765.402 -90.9972L765.569 -91.279ZM573.431 232.959L573.427 232.966L574.02 233.32L574.027 233.307C581.05 237.544 585.749 245.263 585.749 254.083C585.749 267.462 574.938 278.308 561.601 278.308C548.265 278.308 537.454 267.462 537.454 254.083C537.454 240.704 548.265 229.858 561.601 229.858C565.899 229.858 569.935 230.985 573.431 232.959ZM342.204 201.481C342.204 228.621 320.273 250.622 293.219 250.622C266.166 250.622 244.235 228.621 244.235 201.481C244.235 174.34 266.166 152.339 293.219 152.339C320.273 152.339 342.204 174.34 342.204 201.481ZM462.252 209.094C483.59 209.094 500.888 191.741 500.888 170.334C500.888 148.928 483.59 131.575 462.252 131.575C440.914 131.575 423.616 148.928 423.616 170.334C423.616 191.741 440.914 209.094 462.252 209.094ZM764.44 230.55C799.877 230.55 828.604 201.732 828.604 166.182C828.604 130.632 799.877 101.813 764.44 101.813C729.004 101.813 700.277 130.632 700.277 166.182C700.277 201.732 729.004 230.55 764.44 230.55Z" fill="url(#paint58_linear_476_18692)"/>
<path fill-rule="evenodd" clip-rule="evenodd" d="M959 239.894C959 254.993 946.799 267.234 931.748 267.234C916.697 267.234 904.496 254.993 904.496 239.894C904.496 229.492 910.287 220.446 918.811 215.825L767.961 -90.9872L768.58 -91.2934L919.423 215.504C923.124 213.618 927.312 212.555 931.748 212.555C946.799 212.555 959 224.795 959 239.894ZM958.31 239.894C958.31 254.611 946.418 266.542 931.748 266.542C917.078 266.542 905.186 254.611 905.186 239.894C905.186 225.177 917.078 213.247 931.748 213.247C946.418 213.247 958.31 225.177 958.31 239.894Z" fill="url(#paint59_linear_476_18692)"/>
<path d="M177.588 191.72L176.904 191.623C177.036 190.69 177.124 189.742 177.165 188.781C177.207 187.819 177.202 186.867 177.151 185.926L177.84 185.889C177.892 186.852 177.897 187.827 177.855 188.811C177.812 189.794 177.722 190.765 177.588 191.72Z" fill="url(#paint60_linear_476_18692)"/>
<path d="M171.945 169.654L171.394 170.07C170.254 168.547 168.967 167.139 167.554 165.868L168.015 165.353C169.461 166.654 170.778 168.096 171.945 169.654Z" fill="url(#paint61_linear_476_18692)"/>
<path d="M163.327 161.899L162.975 162.495C161.356 161.532 159.634 160.722 157.827 160.085L158.056 159.432C159.906 160.084 161.669 160.913 163.327 161.899Z" fill="url(#paint62_linear_476_18692)"/>
<path d="M152.405 158.052L152.308 158.737C151.378 158.605 150.433 158.517 149.475 158.475C148.516 158.434 147.567 158.439 146.629 158.489L146.592 157.798C147.552 157.747 148.524 157.741 149.504 157.784C150.485 157.827 151.452 157.917 152.405 158.052Z" fill="url(#paint63_linear_476_18692)"/>
<path d="M140.843 158.682L141.014 159.352C139.159 159.829 137.374 160.485 135.677 161.304L135.378 160.68C137.115 159.842 138.943 159.169 140.843 158.682Z" fill="url(#paint64_linear_476_18692)"/>
<path d="M130.409 163.712L130.823 164.265C129.306 165.409 127.902 166.7 126.635 168.117L126.121 167.655C127.419 166.204 128.855 164.883 130.409 163.712Z" fill="url(#paint65_linear_476_18692)"/>
<path d="M122.679 172.358L123.272 172.711C122.312 174.336 121.505 176.063 120.871 177.875L120.22 177.646C120.869 175.79 121.696 174.021 122.679 172.358Z" fill="url(#paint66_linear_476_18692)"/>
<path d="M118.844 183.315C118.709 184.271 118.619 185.241 118.577 186.225C118.534 187.209 118.54 188.183 118.591 189.147L119.28 189.109C119.23 188.169 119.224 187.216 119.266 186.255C119.308 185.294 119.395 184.345 119.527 183.412L118.844 183.315Z" fill="url(#paint67_linear_476_18692)"/>
<path d="M119.472 194.914L120.14 194.743C120.615 196.603 121.27 198.395 122.085 200.096L121.464 200.396C120.628 198.654 119.958 196.82 119.472 194.914Z" fill="url(#paint68_linear_476_18692)"/>
<path d="M124.486 205.382L125.038 204.966C126.178 206.488 127.464 207.896 128.877 209.168L128.416 209.683C126.97 208.381 125.653 206.94 124.486 205.382Z" fill="url(#paint69_linear_476_18692)"/>
<path d="M133.105 213.136L133.457 212.541C135.076 213.504 136.798 214.314 138.604 214.95L138.375 215.603C136.526 214.952 134.762 214.122 133.105 213.136Z" fill="url(#paint70_linear_476_18692)"/>
<path d="M144.027 216.984L144.123 216.298C145.053 216.43 145.999 216.518 146.957 216.56C147.915 216.602 148.864 216.596 149.802 216.546L149.839 217.237C148.879 217.289 147.908 217.294 146.927 217.252C145.946 217.209 144.979 217.119 144.027 216.984Z" fill="url(#paint71_linear_476_18692)"/>
<path d="M155.589 216.354L155.418 215.683C157.272 215.207 159.058 214.55 160.754 213.732L161.053 214.355C159.316 215.193 157.488 215.866 155.589 216.354Z" fill="url(#paint72_linear_476_18692)"/>
<path d="M166.022 211.323L165.608 210.77C167.126 209.626 168.529 208.336 169.797 206.918L170.31 207.38C169.013 208.831 167.576 210.152 166.022 211.323Z" fill="url(#paint73_linear_476_18692)"/>
<path d="M173.753 202.677L173.159 202.324C174.119 200.7 174.926 198.972 175.56 197.16L176.211 197.389C175.562 199.245 174.735 201.014 173.753 202.677Z" fill="url(#paint74_linear_476_18692)"/>
<path d="M675.213 188.68C674.592 187.944 673.93 187.231 673.226 186.544C672.523 185.857 671.794 185.213 671.043 184.61L670.612 185.151C671.346 185.739 672.058 186.369 672.745 187.04C673.432 187.711 674.08 188.408 674.686 189.127L675.213 188.68Z" fill="url(#paint75_linear_476_18692)"/>
<path d="M666.166 181.43C664.533 180.583 662.839 179.898 661.108 179.375L661.909 177.321L661.266 177.069L660.244 179.69L660.602 179.831L660.571 179.939C662.38 180.46 664.149 181.162 665.849 182.045L666.166 181.43Z" fill="url(#paint76_linear_476_18692)"/>
<path d="M655.041 178.218C653.105 178.055 651.157 178.082 649.225 178.298L649.302 178.986C651.188 178.775 653.092 178.749 654.984 178.908L655.041 178.218Z" fill="url(#paint77_linear_476_18692)"/>
<path d="M643.536 179.51C641.699 180.095 639.909 180.863 638.193 181.815L638.526 182.421C640.202 181.491 641.951 180.741 643.745 180.17L643.536 179.51Z" fill="url(#paint78_linear_476_18692)"/>
<path d="M633.404 185.127C632.67 185.75 631.959 186.415 631.275 187.12C630.59 187.826 629.948 188.557 629.347 189.31L629.886 189.743C630.473 189.007 631.1 188.293 631.769 187.603C632.438 186.913 633.133 186.264 633.85 185.656L633.404 185.127Z" fill="url(#paint79_linear_476_18692)"/>
<path d="M626.178 194.203C625.277 195.95 624.56 197.767 624.028 199.625L624.691 199.816C625.211 198.001 625.91 196.227 626.79 194.521L626.178 194.203Z" fill="url(#paint80_linear_476_18692)"/>
<path d="M622.976 205.363C622.813 207.306 622.84 209.261 623.055 211.198L623.741 211.121C623.53 209.229 623.504 207.319 623.663 205.421L622.976 205.363Z" fill="url(#paint81_linear_476_18692)"/>
<path d="M624.263 216.906C624.846 218.748 625.612 220.545 626.561 222.266L627.164 221.931C626.238 220.25 625.49 218.496 624.921 216.696L624.263 216.906Z" fill="url(#paint82_linear_476_18692)"/>
<path d="M631.849 229.206C631.146 228.519 630.484 227.806 629.863 227.07L630.389 226.623C630.996 227.342 631.643 228.039 632.33 228.71C633.018 229.381 633.73 230.011 634.463 230.599L634.032 231.14C633.281 230.537 632.553 229.893 631.849 229.206Z" fill="url(#paint83_linear_476_18692)"/>
<path d="M638.909 234.32C640.651 235.223 642.462 235.942 644.314 236.477L644.504 235.811C642.695 235.29 640.927 234.588 639.227 233.705L638.909 234.32Z" fill="url(#paint84_linear_476_18692)"/>
<path d="M650.034 237.532C651.97 237.695 653.919 237.668 655.85 237.452L655.773 236.764C653.887 236.975 651.983 237.002 650.092 236.842L650.034 237.532Z" fill="url(#paint85_linear_476_18692)"/>
<path d="M661.54 236.24C663.376 235.655 665.167 234.887 666.883 233.935L666.549 233.33C664.873 234.259 663.125 235.009 661.331 235.58L661.54 236.24Z" fill="url(#paint86_linear_476_18692)"/>
<path d="M671.671 230.623C672.405 230 673.116 229.335 673.801 228.63C674.485 227.924 675.128 227.193 675.728 226.44L675.19 226.007C674.603 226.743 673.975 227.457 673.306 228.147C672.637 228.837 671.943 229.486 671.226 230.094L671.671 230.623Z" fill="url(#paint87_linear_476_18692)"/>
<path d="M678.898 221.547C679.799 219.8 680.515 217.984 681.048 216.126L680.385 215.934C679.865 217.749 679.165 219.523 678.285 221.229L678.898 221.547Z" fill="url(#paint88_linear_476_18692)"/>
<path d="M682.1 210.387C682.263 208.444 682.236 206.489 682.02 204.552L681.334 204.629C681.545 206.521 681.571 208.431 681.412 210.329L682.1 210.387Z" fill="url(#paint89_linear_476_18692)"/>
<path d="M680.812 198.844C680.229 197.002 679.463 195.205 678.515 193.484L677.911 193.819C678.837 195.5 679.585 197.254 680.154 199.054L680.812 198.844Z" fill="url(#paint90_linear_476_18692)"/>
<path fill-rule="evenodd" clip-rule="evenodd" d="M19.6629 232.626C30.5225 232.626 39.3259 223.795 39.3259 212.9C39.3259 202.006 30.5225 193.174 19.6629 193.174C8.8034 193.174 0 202.006 0 212.9C0 223.795 8.8034 232.626 19.6629 232.626ZM19.6629 231.934C30.1415 231.934 38.636 223.412 38.636 212.9C38.636 202.388 30.1415 193.866 19.6629 193.866C9.18444 193.866 0.689928 202.388 0.689928 212.9C0.689928 223.412 9.18444 231.934 19.6629 231.934Z" fill="url(#paint91_linear_476_18692)"/>
<path d="M665.998 166.836L663.953 172.079L663.311 171.826L665.355 166.584L665.998 166.836Z" fill="url(#paint92_linear_476_18692)"/>
<path d="M670.087 156.35L668.042 161.593L667.4 161.341L669.444 156.098L670.087 156.35Z" fill="url(#paint93_linear_476_18692)"/>
<path d="M674.176 145.865L672.131 151.108L671.489 150.856L673.533 145.613L674.176 145.865Z" fill="url(#paint94_linear_476_18692)"/>
<path d="M678.265 135.38L676.22 140.622L675.578 140.37L677.622 135.127L678.265 135.38Z" fill="url(#paint95_linear_476_18692)"/>
<path d="M682.354 124.894L680.309 130.137L679.667 129.885L681.711 124.642L682.354 124.894Z" fill="url(#paint96_linear_476_18692)"/>
<path d="M686.443 114.409L684.398 119.651L683.756 119.399L685.8 114.157L686.443 114.409Z" fill="url(#paint97_linear_476_18692)"/>
<path d="M690.532 103.923L688.487 109.166L687.845 108.914L689.889 103.671L690.532 103.923Z" fill="url(#paint98_linear_476_18692)"/>
<path d="M694.621 93.4379L692.576 98.6806L691.934 98.4284L693.978 93.1857L694.621 93.4379Z" fill="url(#paint99_linear_476_18692)"/>
<path d="M698.71 82.9525L696.665 88.1952L696.022 87.943L698.067 82.7003L698.71 82.9525Z" fill="url(#paint100_linear_476_18692)"/>
<path d="M702.799 72.467L700.754 77.7097L700.112 77.4576L702.156 72.2149L702.799 72.467Z" fill="url(#paint101_linear_476_18692)"/>
<path d="M706.887 61.9816L704.843 67.2243L704.201 66.9722L706.245 61.7294L706.887 61.9816Z" fill="url(#paint102_linear_476_18692)"/>
<path d="M710.977 51.4962L708.932 56.7389L708.289 56.4867L710.334 51.244L710.977 51.4962Z" fill="url(#paint103_linear_476_18692)"/>
<path d="M715.065 41.0108L713.021 46.2535L712.378 46.0013L714.423 40.7586L715.065 41.0108Z" fill="url(#paint104_linear_476_18692)"/>
<path d="M719.154 30.5253L717.11 35.7681L716.467 35.5159L718.512 30.2732L719.154 30.5253Z" fill="url(#paint105_linear_476_18692)"/>
<path d="M723.243 20.0399L721.199 25.2826L720.556 25.0305L722.601 19.7878L723.243 20.0399Z" fill="url(#paint106_linear_476_18692)"/>
<path d="M727.332 9.5545L725.288 14.7972L724.645 14.545L726.69 9.30233L727.332 9.5545Z" fill="url(#paint107_linear_476_18692)"/>
<path d="M731.421 -0.930931L729.377 4.31178L728.734 4.05962L730.779 -1.18309L731.421 -0.930931Z" fill="url(#paint108_linear_476_18692)"/>
<path d="M735.51 -11.4164L733.466 -6.17365L732.823 -6.42581L734.868 -11.6685L735.51 -11.4164Z" fill="url(#paint109_linear_476_18692)"/>
<path d="M739.599 -21.9018L737.555 -16.6591L736.912 -16.9112L738.957 -22.1539L739.599 -21.9018Z" fill="url(#paint110_linear_476_18692)"/>
<path d="M743.688 -32.3872L741.644 -27.1445L741.001 -27.3967L743.046 -32.6394L743.688 -32.3872Z" fill="url(#paint111_linear_476_18692)"/>
<path d="M747.777 -42.8726L745.733 -37.6299L745.09 -37.8821L747.135 -43.1248L747.777 -42.8726Z" fill="url(#paint112_linear_476_18692)"/>
<path d="M751.866 -53.358L749.822 -48.1153L749.179 -48.3675L751.224 -53.6102L751.866 -53.358Z" fill="url(#paint113_linear_476_18692)"/>
<path d="M755.955 -63.8435L753.911 -58.6008L753.268 -58.8529L755.313 -64.0956L755.955 -63.8435Z" fill="url(#paint114_linear_476_18692)"/>
<path d="M760.044 -74.3289L758 -69.0862L757.357 -69.3383L759.402 -74.5811L760.044 -74.3289Z" fill="url(#paint115_linear_476_18692)"/>
<path d="M764.133 -84.8143L762.089 -79.5716L761.446 -79.8238L763.491 -85.0665L764.133 -84.8143Z" fill="url(#paint116_linear_476_18692)"/>
<path d="M413.484 237.893C414.318 238.707 415.053 239.584 415.689 240.51L415.122 240.903C414.51 240.014 413.804 239.171 413.003 238.389C412.201 237.607 411.342 236.922 410.44 236.333L410.816 235.753C411.756 236.366 412.65 237.079 413.484 237.893Z" fill="url(#paint117_linear_476_18692)"/>
<path d="M418.375 246.774C418.85 249.018 418.881 251.338 418.468 253.594L417.79 253.469C418.187 251.302 418.156 249.073 417.7 246.918L418.375 246.774Z" fill="url(#paint118_linear_476_18692)"/>
<path d="M415.955 259.93C415.344 260.873 414.633 261.77 413.821 262.606C413.01 263.443 412.135 264.181 411.213 264.819L410.821 264.249C411.707 263.636 412.547 262.928 413.327 262.124C414.107 261.32 414.79 260.458 415.376 259.553L415.955 259.93Z" fill="url(#paint119_linear_476_18692)"/>
<path d="M404.968 267.513C402.732 267.989 400.419 268.021 398.17 267.607L398.295 266.926C400.455 267.324 402.677 267.294 404.825 266.836L404.968 267.513Z" fill="url(#paint120_linear_476_18692)"/>
<path d="M389.187 262.945C390.021 263.759 390.915 264.472 391.855 265.085L392.231 264.505C391.328 263.916 390.469 263.231 389.668 262.449C388.866 261.666 388.16 260.824 387.549 259.935L386.981 260.328C387.618 261.254 388.353 262.131 389.187 262.945Z" fill="url(#paint121_linear_476_18692)"/>
<path d="M384.296 254.063C383.821 251.82 383.789 249.5 384.202 247.244L384.881 247.369C384.484 249.536 384.514 251.765 384.97 253.92L384.296 254.063Z" fill="url(#paint122_linear_476_18692)"/>
<path d="M386.716 240.908C387.327 239.965 388.038 239.068 388.849 238.231C389.661 237.395 390.535 236.657 391.458 236.019L391.85 236.589C390.964 237.202 390.124 237.91 389.344 238.714C388.564 239.518 387.881 240.38 387.294 241.285L386.716 240.908Z" fill="url(#paint123_linear_476_18692)"/>
<path d="M397.702 233.325C399.939 232.848 402.252 232.817 404.5 233.231L404.376 233.912C402.216 233.514 399.994 233.544 397.846 234.002L397.702 233.325Z" fill="url(#paint124_linear_476_18692)"/>
<defs>
<linearGradient id="paint0_linear_476_18692" x1="731.324" y1="293.535" x2="827.112" y2="-10.6621" gradientUnits="userSpaceOnUse">
<stop stop-color="#0745F9" stop-opacity="0.42"/>
<stop offset="1" stop-color="#00FFFF"/>
</linearGradient>
<linearGradient id="paint1_linear_476_18692" x1="731.324" y1="293.535" x2="827.112" y2="-10.6621" gradientUnits="userSpaceOnUse">
<stop stop-color="#0745F9" stop-opacity="0.42"/>
<stop offset="1" stop-color="#00FFFF"/>
</linearGradient>
<linearGradient id="paint2_linear_476_18692" x1="731.324" y1="293.535" x2="827.112" y2="-10.6621" gradientUnits="userSpaceOnUse">
<stop stop-color="#0745F9" stop-opacity="0.42"/>
<stop offset="1" stop-color="#00FFFF"/>
</linearGradient>
<linearGradient id="paint3_linear_476_18692" x1="731.324" y1="293.535" x2="827.112" y2="-10.6621" gradientUnits="userSpaceOnUse">
<stop stop-color="#0745F9" stop-opacity="0.42"/>
<stop offset="1" stop-color="#00FFFF"/>
</linearGradient>
<linearGradient id="paint4_linear_476_18692" x1="731.324" y1="293.535" x2="827.112" y2="-10.6621" gradientUnits="userSpaceOnUse">
<stop stop-color="#0745F9" stop-opacity="0.42"/>
<stop offset="1" stop-color="#00FFFF"/>
</linearGradient>
<linearGradient id="paint5_linear_476_18692" x1="731.324" y1="293.535" x2="827.112" y2="-10.6621" gradientUnits="userSpaceOnUse">
<stop stop-color="#0745F9" stop-opacity="0.42"/>
<stop offset="1" stop-color="#00FFFF"/>
</linearGradient>
<linearGradient id="paint6_linear_476_18692" x1="731.324" y1="293.535" x2="827.112" y2="-10.6621" gradientUnits="userSpaceOnUse">
<stop stop-color="#0745F9" stop-opacity="0.42"/>
<stop offset="1" stop-color="#00FFFF"/>
</linearGradient>
<linearGradient id="paint7_linear_476_18692" x1="731.324" y1="293.535" x2="827.112" y2="-10.6621" gradientUnits="userSpaceOnUse">
<stop stop-color="#0745F9" stop-opacity="0.42"/>
<stop offset="1" stop-color="#00FFFF"/>
</linearGradient>
<linearGradient id="paint8_linear_476_18692" x1="731.324" y1="293.535" x2="827.112" y2="-10.6621" gradientUnits="userSpaceOnUse">
<stop stop-color="#0745F9" stop-opacity="0.42"/>
<stop offset="1" stop-color="#00FFFF"/>
</linearGradient>
<linearGradient id="paint9_linear_476_18692" x1="731.324" y1="293.535" x2="827.112" y2="-10.6621" gradientUnits="userSpaceOnUse">
<stop stop-color="#0745F9" stop-opacity="0.42"/>
<stop offset="1" stop-color="#00FFFF"/>
</linearGradient>
<linearGradient id="paint10_linear_476_18692" x1="731.324" y1="293.535" x2="827.112" y2="-10.6621" gradientUnits="userSpaceOnUse">
<stop stop-color="#0745F9" stop-opacity="0.42"/>
<stop offset="1" stop-color="#00FFFF"/>
</linearGradient>
<linearGradient id="paint11_linear_476_18692" x1="731.324" y1="293.535" x2="827.112" y2="-10.6621" gradientUnits="userSpaceOnUse">
<stop stop-color="#0745F9" stop-opacity="0.42"/>
<stop offset="1" stop-color="#00FFFF"/>
</linearGradient>
<linearGradient id="paint12_linear_476_18692" x1="731.324" y1="293.535" x2="827.112" y2="-10.6621" gradientUnits="userSpaceOnUse">
<stop stop-color="#0745F9" stop-opacity="0.42"/>
<stop offset="1" stop-color="#00FFFF"/>
</linearGradient>
<linearGradient id="paint13_linear_476_18692" x1="731.324" y1="293.535" x2="827.112" y2="-10.6621" gradientUnits="userSpaceOnUse">
<stop stop-color="#0745F9" stop-opacity="0.42"/>
<stop offset="1" stop-color="#00FFFF"/>
</linearGradient>
<linearGradient id="paint14_linear_476_18692" x1="731.324" y1="293.535" x2="827.112" y2="-10.6621" gradientUnits="userSpaceOnUse">
<stop stop-color="#0745F9" stop-opacity="0.42"/>
<stop offset="1" stop-color="#00FFFF"/>
</linearGradient>
<linearGradient id="paint15_linear_476_18692" x1="731.324" y1="293.535" x2="827.112" y2="-10.6621" gradientUnits="userSpaceOnUse">
<stop stop-color="#0745F9" stop-opacity="0.42"/>
<stop offset="1" stop-color="#00FFFF"/>
</linearGradient>
<linearGradient id="paint16_linear_476_18692" x1="731.324" y1="293.535" x2="827.112" y2="-10.6621" gradientUnits="userSpaceOnUse">
<stop stop-color="#0745F9" stop-opacity="0.42"/>
<stop offset="1" stop-color="#00FFFF"/>
</linearGradient>
<linearGradient id="paint17_linear_476_18692" x1="731.324" y1="293.535" x2="827.112" y2="-10.6621" gradientUnits="userSpaceOnUse">
<stop stop-color="#0745F9" stop-opacity="0.42"/>
<stop offset="1" stop-color="#00FFFF"/>
</linearGradient>
<linearGradient id="paint18_linear_476_18692" x1="731.324" y1="293.535" x2="827.112" y2="-10.6621" gradientUnits="userSpaceOnUse">
<stop stop-color="#0745F9" stop-opacity="0.42"/>
<stop offset="1" stop-color="#00FFFF"/>
</linearGradient>
<linearGradient id="paint19_linear_476_18692" x1="731.324" y1="293.535" x2="827.112" y2="-10.6621" gradientUnits="userSpaceOnUse">
<stop stop-color="#0745F9" stop-opacity="0.42"/>
<stop offset="1" stop-color="#00FFFF"/>
</linearGradient>
<linearGradient id="paint20_linear_476_18692" x1="731.324" y1="293.535" x2="827.112" y2="-10.6621" gradientUnits="userSpaceOnUse">
<stop stop-color="#0745F9" stop-opacity="0.42"/>
<stop offset="1" stop-color="#00FFFF"/>
</linearGradient>
<linearGradient id="paint21_linear_476_18692" x1="731.324" y1="293.535" x2="827.112" y2="-10.6621" gradientUnits="userSpaceOnUse">
<stop stop-color="#0745F9" stop-opacity="0.42"/>
<stop offset="1" stop-color="#00FFFF"/>
</linearGradient>
<linearGradient id="paint22_linear_476_18692" x1="731.324" y1="293.535" x2="827.112" y2="-10.6621" gradientUnits="userSpaceOnUse">
<stop stop-color="#0745F9" stop-opacity="0.42"/>
<stop offset="1" stop-color="#00FFFF"/>
</linearGradient>
<linearGradient id="paint23_linear_476_18692" x1="731.324" y1="293.535" x2="827.112" y2="-10.6621" gradientUnits="userSpaceOnUse">
<stop stop-color="#0745F9" stop-opacity="0.42"/>
<stop offset="1" stop-color="#00FFFF"/>
</linearGradient>
<linearGradient id="paint24_linear_476_18692" x1="731.324" y1="293.535" x2="827.112" y2="-10.6621" gradientUnits="userSpaceOnUse">
<stop stop-color="#0745F9" stop-opacity="0.42"/>
<stop offset="1" stop-color="#00FFFF"/>
</linearGradient>
<linearGradient id="paint25_linear_476_18692" x1="731.324" y1="293.535" x2="827.112" y2="-10.6621" gradientUnits="userSpaceOnUse">
<stop stop-color="#0745F9" stop-opacity="0.42"/>
<stop offset="1" stop-color="#00FFFF"/>
</linearGradient>
<linearGradient id="paint26_linear_476_18692" x1="731.324" y1="293.535" x2="827.112" y2="-10.6621" gradientUnits="userSpaceOnUse">
<stop stop-color="#0745F9" stop-opacity="0.42"/>
<stop offset="1" stop-color="#00FFFF"/>
</linearGradient>
<linearGradient id="paint27_linear_476_18692" x1="731.324" y1="293.535" x2="827.112" y2="-10.6621" gradientUnits="userSpaceOnUse">
<stop stop-color="#0745F9" stop-opacity="0.42"/>
<stop offset="1" stop-color="#00FFFF"/>
</linearGradient>
<linearGradient id="paint28_linear_476_18692" x1="731.324" y1="293.535" x2="827.112" y2="-10.6621" gradientUnits="userSpaceOnUse">
<stop stop-color="#0745F9" stop-opacity="0.42"/>
<stop offset="1" stop-color="#00FFFF"/>
</linearGradient>
<linearGradient id="paint29_linear_476_18692" x1="731.324" y1="293.535" x2="827.112" y2="-10.6621" gradientUnits="userSpaceOnUse">
<stop stop-color="#0745F9" stop-opacity="0.42"/>
<stop offset="1" stop-color="#00FFFF"/>
</linearGradient>
<linearGradient id="paint30_linear_476_18692" x1="731.324" y1="293.535" x2="827.112" y2="-10.6621" gradientUnits="userSpaceOnUse">
<stop stop-color="#0745F9" stop-opacity="0.42"/>
<stop offset="1" stop-color="#00FFFF"/>
</linearGradient>
<linearGradient id="paint31_linear_476_18692" x1="731.324" y1="293.535" x2="827.112" y2="-10.6621" gradientUnits="userSpaceOnUse">
<stop stop-color="#0745F9" stop-opacity="0.42"/>
<stop offset="1" stop-color="#00FFFF"/>
</linearGradient>
<linearGradient id="paint32_linear_476_18692" x1="731.324" y1="293.535" x2="827.112" y2="-10.6621" gradientUnits="userSpaceOnUse">
<stop stop-color="#0745F9" stop-opacity="0.42"/>
<stop offset="1" stop-color="#00FFFF"/>
</linearGradient>
<linearGradient id="paint33_linear_476_18692" x1="731.324" y1="293.535" x2="827.112" y2="-10.6621" gradientUnits="userSpaceOnUse">
<stop stop-color="#0745F9" stop-opacity="0.42"/>
<stop offset="1" stop-color="#00FFFF"/>
</linearGradient>
<linearGradient id="paint34_linear_476_18692" x1="731.324" y1="293.535" x2="827.112" y2="-10.6621" gradientUnits="userSpaceOnUse">
<stop stop-color="#0745F9" stop-opacity="0.42"/>
<stop offset="1" stop-color="#00FFFF"/>
</linearGradient>
<linearGradient id="paint35_linear_476_18692" x1="731.324" y1="293.535" x2="827.112" y2="-10.6621" gradientUnits="userSpaceOnUse">
<stop stop-color="#0745F9" stop-opacity="0.42"/>
<stop offset="1" stop-color="#00FFFF"/>
</linearGradient>
<linearGradient id="paint36_linear_476_18692" x1="731.324" y1="293.535" x2="827.112" y2="-10.6621" gradientUnits="userSpaceOnUse">
<stop stop-color="#0745F9" stop-opacity="0.42"/>
<stop offset="1" stop-color="#00FFFF"/>
</linearGradient>
<linearGradient id="paint37_linear_476_18692" x1="731.324" y1="293.535" x2="827.112" y2="-10.6621" gradientUnits="userSpaceOnUse">
<stop stop-color="#0745F9" stop-opacity="0.42"/>
<stop offset="1" stop-color="#00FFFF"/>
</linearGradient>
<linearGradient id="paint38_linear_476_18692" x1="731.324" y1="293.535" x2="827.112" y2="-10.6621" gradientUnits="userSpaceOnUse">
<stop stop-color="#0745F9" stop-opacity="0.42"/>
<stop offset="1" stop-color="#00FFFF"/>
</linearGradient>
<linearGradient id="paint39_linear_476_18692" x1="731.324" y1="293.535" x2="827.112" y2="-10.6621" gradientUnits="userSpaceOnUse">
<stop stop-color="#0745F9" stop-opacity="0.42"/>
<stop offset="1" stop-color="#00FFFF"/>
</linearGradient>
<linearGradient id="paint40_linear_476_18692" x1="731.324" y1="293.535" x2="827.112" y2="-10.6621" gradientUnits="userSpaceOnUse">
<stop stop-color="#0745F9" stop-opacity="0.42"/>
<stop offset="1" stop-color="#00FFFF"/>
</linearGradient>
<linearGradient id="paint41_linear_476_18692" x1="731.324" y1="293.535" x2="827.112" y2="-10.6621" gradientUnits="userSpaceOnUse">
<stop stop-color="#0745F9" stop-opacity="0.42"/>
<stop offset="1" stop-color="#00FFFF"/>
</linearGradient>
<linearGradient id="paint42_linear_476_18692" x1="731.324" y1="293.535" x2="827.112" y2="-10.6621" gradientUnits="userSpaceOnUse">
<stop stop-color="#0745F9" stop-opacity="0.42"/>
<stop offset="1" stop-color="#00FFFF"/>
</linearGradient>
<linearGradient id="paint43_linear_476_18692" x1="731.324" y1="293.535" x2="827.112" y2="-10.6621" gradientUnits="userSpaceOnUse">
<stop stop-color="#0745F9" stop-opacity="0.42"/>
<stop offset="1" stop-color="#00FFFF"/>
</linearGradient>
<linearGradient id="paint44_linear_476_18692" x1="731.324" y1="293.535" x2="827.112" y2="-10.6621" gradientUnits="userSpaceOnUse">
<stop stop-color="#0745F9" stop-opacity="0.42"/>
<stop offset="1" stop-color="#00FFFF"/>
</linearGradient>
<linearGradient id="paint45_linear_476_18692" x1="731.324" y1="293.535" x2="827.112" y2="-10.6621" gradientUnits="userSpaceOnUse">
<stop stop-color="#0745F9" stop-opacity="0.42"/>
<stop offset="1" stop-color="#00FFFF"/>
</linearGradient>
<linearGradient id="paint46_linear_476_18692" x1="731.324" y1="293.535" x2="827.112" y2="-10.6621" gradientUnits="userSpaceOnUse">
<stop stop-color="#0745F9" stop-opacity="0.42"/>
<stop offset="1" stop-color="#00FFFF"/>
</linearGradient>
<linearGradient id="paint47_linear_476_18692" x1="731.324" y1="293.535" x2="827.112" y2="-10.6621" gradientUnits="userSpaceOnUse">
<stop stop-color="#0745F9" stop-opacity="0.42"/>
<stop offset="1" stop-color="#00FFFF"/>
</linearGradient>
<linearGradient id="paint48_linear_476_18692" x1="731.324" y1="293.535" x2="827.112" y2="-10.6621" gradientUnits="userSpaceOnUse">
<stop stop-color="#0745F9" stop-opacity="0.42"/>
<stop offset="1" stop-color="#00FFFF"/>
</linearGradient>
<linearGradient id="paint49_linear_476_18692" x1="731.324" y1="293.535" x2="827.112" y2="-10.6621" gradientUnits="userSpaceOnUse">
<stop stop-color="#0745F9" stop-opacity="0.42"/>
<stop offset="1" stop-color="#00FFFF"/>
</linearGradient>
<linearGradient id="paint50_linear_476_18692" x1="731.324" y1="293.535" x2="827.112" y2="-10.6621" gradientUnits="userSpaceOnUse">
<stop stop-color="#0745F9" stop-opacity="0.42"/>
<stop offset="1" stop-color="#00FFFF"/>
</linearGradient>
<linearGradient id="paint51_linear_476_18692" x1="731.324" y1="293.535" x2="827.112" y2="-10.6621" gradientUnits="userSpaceOnUse">
<stop stop-color="#0745F9" stop-opacity="0.42"/>
<stop offset="1" stop-color="#00FFFF"/>
</linearGradient>
<linearGradient id="paint52_linear_476_18692" x1="731.324" y1="293.535" x2="827.112" y2="-10.6621" gradientUnits="userSpaceOnUse">
<stop stop-color="#0745F9" stop-opacity="0.42"/>
<stop offset="1" stop-color="#00FFFF"/>
</linearGradient>
<linearGradient id="paint53_linear_476_18692" x1="731.324" y1="293.535" x2="827.112" y2="-10.6621" gradientUnits="userSpaceOnUse">
<stop stop-color="#0745F9" stop-opacity="0.42"/>
<stop offset="1" stop-color="#00FFFF"/>
</linearGradient>
<linearGradient id="paint54_linear_476_18692" x1="731.324" y1="293.535" x2="827.112" y2="-10.6621" gradientUnits="userSpaceOnUse">
<stop stop-color="#0745F9" stop-opacity="0.42"/>
<stop offset="1" stop-color="#00FFFF"/>
</linearGradient>
<linearGradient id="paint55_linear_476_18692" x1="731.324" y1="293.535" x2="827.112" y2="-10.6621" gradientUnits="userSpaceOnUse">
<stop stop-color="#0745F9" stop-opacity="0.42"/>
<stop offset="1" stop-color="#00FFFF"/>
</linearGradient>
<linearGradient id="paint56_linear_476_18692" x1="731.324" y1="293.535" x2="827.112" y2="-10.6621" gradientUnits="userSpaceOnUse">
<stop stop-color="#0745F9" stop-opacity="0.42"/>
<stop offset="1" stop-color="#00FFFF"/>
</linearGradient>
<linearGradient id="paint57_linear_476_18692" x1="731.324" y1="293.535" x2="827.112" y2="-10.6621" gradientUnits="userSpaceOnUse">
<stop stop-color="#0745F9" stop-opacity="0.42"/>
<stop offset="1" stop-color="#00FFFF"/>
</linearGradient>
<linearGradient id="paint58_linear_476_18692" x1="731.324" y1="293.535" x2="827.112" y2="-10.6621" gradientUnits="userSpaceOnUse">
<stop stop-color="#0745F9" stop-opacity="0.42"/>
<stop offset="1" stop-color="#00FFFF"/>
</linearGradient>
<linearGradient id="paint59_linear_476_18692" x1="731.324" y1="293.535" x2="827.112" y2="-10.6621" gradientUnits="userSpaceOnUse">
<stop stop-color="#0745F9" stop-opacity="0.42"/>
<stop offset="1" stop-color="#00FFFF"/>
</linearGradient>
<linearGradient id="paint60_linear_476_18692" x1="731.324" y1="293.535" x2="827.112" y2="-10.6621" gradientUnits="userSpaceOnUse">
<stop stop-color="#0745F9" stop-opacity="0.42"/>
<stop offset="1" stop-color="#00FFFF"/>
</linearGradient>
<linearGradient id="paint61_linear_476_18692" x1="731.324" y1="293.535" x2="827.112" y2="-10.6621" gradientUnits="userSpaceOnUse">
<stop stop-color="#0745F9" stop-opacity="0.42"/>
<stop offset="1" stop-color="#00FFFF"/>
</linearGradient>
<linearGradient id="paint62_linear_476_18692" x1="731.324" y1="293.535" x2="827.112" y2="-10.6621" gradientUnits="userSpaceOnUse">
<stop stop-color="#0745F9" stop-opacity="0.42"/>
<stop offset="1" stop-color="#00FFFF"/>
</linearGradient>
<linearGradient id="paint63_linear_476_18692" x1="731.324" y1="293.535" x2="827.112" y2="-10.6621" gradientUnits="userSpaceOnUse">
<stop stop-color="#0745F9" stop-opacity="0.42"/>
<stop offset="1" stop-color="#00FFFF"/>
</linearGradient>
<linearGradient id="paint64_linear_476_18692" x1="731.324" y1="293.535" x2="827.112" y2="-10.6621" gradientUnits="userSpaceOnUse">
<stop stop-color="#0745F9" stop-opacity="0.42"/>
<stop offset="1" stop-color="#00FFFF"/>
</linearGradient>
<linearGradient id="paint65_linear_476_18692" x1="731.324" y1="293.535" x2="827.112" y2="-10.6621" gradientUnits="userSpaceOnUse">
<stop stop-color="#0745F9" stop-opacity="0.42"/>
<stop offset="1" stop-color="#00FFFF"/>
</linearGradient>
<linearGradient id="paint66_linear_476_18692" x1="731.324" y1="293.535" x2="827.112" y2="-10.6621" gradientUnits="userSpaceOnUse">
<stop stop-color="#0745F9" stop-opacity="0.42"/>
<stop offset="1" stop-color="#00FFFF"/>
</linearGradient>
<linearGradient id="paint67_linear_476_18692" x1="731.324" y1="293.535" x2="827.112" y2="-10.6621" gradientUnits="userSpaceOnUse">
<stop stop-color="#0745F9" stop-opacity="0.42"/>
<stop offset="1" stop-color="#00FFFF"/>
</linearGradient>
<linearGradient id="paint68_linear_476_18692" x1="731.324" y1="293.535" x2="827.112" y2="-10.6621" gradientUnits="userSpaceOnUse">
<stop stop-color="#0745F9" stop-opacity="0.42"/>
<stop offset="1" stop-color="#00FFFF"/>
</linearGradient>
<linearGradient id="paint69_linear_476_18692" x1="731.324" y1="293.535" x2="827.112" y2="-10.6621" gradientUnits="userSpaceOnUse">
<stop stop-color="#0745F9" stop-opacity="0.42"/>
<stop offset="1" stop-color="#00FFFF"/>
</linearGradient>
<linearGradient id="paint70_linear_476_18692" x1="731.324" y1="293.535" x2="827.112" y2="-10.6621" gradientUnits="userSpaceOnUse">
<stop stop-color="#0745F9" stop-opacity="0.42"/>
<stop offset="1" stop-color="#00FFFF"/>
</linearGradient>
<linearGradient id="paint71_linear_476_18692" x1="731.324" y1="293.535" x2="827.112" y2="-10.6621" gradientUnits="userSpaceOnUse">
<stop stop-color="#0745F9" stop-opacity="0.42"/>
<stop offset="1" stop-color="#00FFFF"/>
</linearGradient>
<linearGradient id="paint72_linear_476_18692" x1="731.324" y1="293.535" x2="827.112" y2="-10.6621" gradientUnits="userSpaceOnUse">
<stop stop-color="#0745F9" stop-opacity="0.42"/>
<stop offset="1" stop-color="#00FFFF"/>
</linearGradient>
<linearGradient id="paint73_linear_476_18692" x1="731.324" y1="293.535" x2="827.112" y2="-10.6621" gradientUnits="userSpaceOnUse">
<stop stop-color="#0745F9" stop-opacity="0.42"/>
<stop offset="1" stop-color="#00FFFF"/>
</linearGradient>
<linearGradient id="paint74_linear_476_18692" x1="731.324" y1="293.535" x2="827.112" y2="-10.6621" gradientUnits="userSpaceOnUse">
<stop stop-color="#0745F9" stop-opacity="0.42"/>
<stop offset="1" stop-color="#00FFFF"/>
</linearGradient>
<linearGradient id="paint75_linear_476_18692" x1="731.324" y1="293.535" x2="827.112" y2="-10.6621" gradientUnits="userSpaceOnUse">
<stop stop-color="#0745F9" stop-opacity="0.42"/>
<stop offset="1" stop-color="#00FFFF"/>
</linearGradient>
<linearGradient id="paint76_linear_476_18692" x1="731.324" y1="293.535" x2="827.112" y2="-10.6621" gradientUnits="userSpaceOnUse">
<stop stop-color="#0745F9" stop-opacity="0.42"/>
<stop offset="1" stop-color="#00FFFF"/>
</linearGradient>
<linearGradient id="paint77_linear_476_18692" x1="731.324" y1="293.535" x2="827.112" y2="-10.6621" gradientUnits="userSpaceOnUse">
<stop stop-color="#0745F9" stop-opacity="0.42"/>
<stop offset="1" stop-color="#00FFFF"/>
</linearGradient>
<linearGradient id="paint78_linear_476_18692" x1="731.324" y1="293.535" x2="827.112" y2="-10.6621" gradientUnits="userSpaceOnUse">
<stop stop-color="#0745F9" stop-opacity="0.42"/>
<stop offset="1" stop-color="#00FFFF"/>
</linearGradient>
<linearGradient id="paint79_linear_476_18692" x1="731.324" y1="293.535" x2="827.112" y2="-10.6621" gradientUnits="userSpaceOnUse">
<stop stop-color="#0745F9" stop-opacity="0.42"/>
<stop offset="1" stop-color="#00FFFF"/>
</linearGradient>
<linearGradient id="paint80_linear_476_18692" x1="731.324" y1="293.535" x2="827.112" y2="-10.6621" gradientUnits="userSpaceOnUse">
<stop stop-color="#0745F9" stop-opacity="0.42"/>
<stop offset="1" stop-color="#00FFFF"/>
</linearGradient>
<linearGradient id="paint81_linear_476_18692" x1="731.324" y1="293.535" x2="827.112" y2="-10.6621" gradientUnits="userSpaceOnUse">
<stop stop-color="#0745F9" stop-opacity="0.42"/>
<stop offset="1" stop-color="#00FFFF"/>
</linearGradient>
<linearGradient id="paint82_linear_476_18692" x1="731.324" y1="293.535" x2="827.112" y2="-10.6621" gradientUnits="userSpaceOnUse">
<stop stop-color="#0745F9" stop-opacity="0.42"/>
<stop offset="1" stop-color="#00FFFF"/>
</linearGradient>
<linearGradient id="paint83_linear_476_18692" x1="731.324" y1="293.535" x2="827.112" y2="-10.6621" gradientUnits="userSpaceOnUse">
<stop stop-color="#0745F9" stop-opacity="0.42"/>
<stop offset="1" stop-color="#00FFFF"/>
</linearGradient>
<linearGradient id="paint84_linear_476_18692" x1="731.324" y1="293.535" x2="827.112" y2="-10.6621" gradientUnits="userSpaceOnUse">
<stop stop-color="#0745F9" stop-opacity="0.42"/>
<stop offset="1" stop-color="#00FFFF"/>
</linearGradient>
<linearGradient id="paint85_linear_476_18692" x1="731.324" y1="293.535" x2="827.112" y2="-10.6621" gradientUnits="userSpaceOnUse">
<stop stop-color="#0745F9" stop-opacity="0.42"/>
<stop offset="1" stop-color="#00FFFF"/>
</linearGradient>
<linearGradient id="paint86_linear_476_18692" x1="731.324" y1="293.535" x2="827.112" y2="-10.6621" gradientUnits="userSpaceOnUse">
<stop stop-color="#0745F9" stop-opacity="0.42"/>
<stop offset="1" stop-color="#00FFFF"/>
</linearGradient>
<linearGradient id="paint87_linear_476_18692" x1="731.324" y1="293.535" x2="827.112" y2="-10.6621" gradientUnits="userSpaceOnUse">
<stop stop-color="#0745F9" stop-opacity="0.42"/>
<stop offset="1" stop-color="#00FFFF"/>
</linearGradient>
<linearGradient id="paint88_linear_476_18692" x1="731.324" y1="293.535" x2="827.112" y2="-10.6621" gradientUnits="userSpaceOnUse">
<stop stop-color="#0745F9" stop-opacity="0.42"/>
<stop offset="1" stop-color="#00FFFF"/>
</linearGradient>
<linearGradient id="paint89_linear_476_18692" x1="731.324" y1="293.535" x2="827.112" y2="-10.6621" gradientUnits="userSpaceOnUse">
<stop stop-color="#0745F9" stop-opacity="0.42"/>
<stop offset="1" stop-color="#00FFFF"/>
</linearGradient>
<linearGradient id="paint90_linear_476_18692" x1="731.324" y1="293.535" x2="827.112" y2="-10.6621" gradientUnits="userSpaceOnUse">
<stop stop-color="#0745F9" stop-opacity="0.42"/>
<stop offset="1" stop-color="#00FFFF"/>
</linearGradient>
<linearGradient id="paint91_linear_476_18692" x1="731.324" y1="293.535" x2="827.112" y2="-10.6621" gradientUnits="userSpaceOnUse">
<stop stop-color="#0745F9" stop-opacity="0.42"/>
<stop offset="1" stop-color="#00FFFF"/>
</linearGradient>
<linearGradient id="paint92_linear_476_18692" x1="731.324" y1="293.535" x2="827.112" y2="-10.6621" gradientUnits="userSpaceOnUse">
<stop stop-color="#0745F9" stop-opacity="0.42"/>
<stop offset="1" stop-color="#00FFFF"/>
</linearGradient>
<linearGradient id="paint93_linear_476_18692" x1="731.324" y1="293.535" x2="827.112" y2="-10.6621" gradientUnits="userSpaceOnUse">
<stop stop-color="#0745F9" stop-opacity="0.42"/>
<stop offset="1" stop-color="#00FFFF"/>
</linearGradient>
<linearGradient id="paint94_linear_476_18692" x1="731.324" y1="293.535" x2="827.112" y2="-10.6621" gradientUnits="userSpaceOnUse">
<stop stop-color="#0745F9" stop-opacity="0.42"/>
<stop offset="1" stop-color="#00FFFF"/>
</linearGradient>
<linearGradient id="paint95_linear_476_18692" x1="731.324" y1="293.535" x2="827.112" y2="-10.6621" gradientUnits="userSpaceOnUse">
<stop stop-color="#0745F9" stop-opacity="0.42"/>
<stop offset="1" stop-color="#00FFFF"/>
</linearGradient>
<linearGradient id="paint96_linear_476_18692" x1="731.324" y1="293.535" x2="827.112" y2="-10.6621" gradientUnits="userSpaceOnUse">
<stop stop-color="#0745F9" stop-opacity="0.42"/>
<stop offset="1" stop-color="#00FFFF"/>
</linearGradient>
<linearGradient id="paint97_linear_476_18692" x1="731.324" y1="293.535" x2="827.112" y2="-10.6621" gradientUnits="userSpaceOnUse">
<stop stop-color="#0745F9" stop-opacity="0.42"/>
<stop offset="1" stop-color="#00FFFF"/>
</linearGradient>
<linearGradient id="paint98_linear_476_18692" x1="731.324" y1="293.535" x2="827.112" y2="-10.6621" gradientUnits="userSpaceOnUse">
<stop stop-color="#0745F9" stop-opacity="0.42"/>
<stop offset="1" stop-color="#00FFFF"/>
</linearGradient>
<linearGradient id="paint99_linear_476_18692" x1="731.324" y1="293.535" x2="827.112" y2="-10.6621" gradientUnits="userSpaceOnUse">
<stop stop-color="#0745F9" stop-opacity="0.42"/>
<stop offset="1" stop-color="#00FFFF"/>
</linearGradient>
<linearGradient id="paint100_linear_476_18692" x1="731.324" y1="293.535" x2="827.112" y2="-10.6621" gradientUnits="userSpaceOnUse">
<stop stop-color="#0745F9" stop-opacity="0.42"/>
<stop offset="1" stop-color="#00FFFF"/>
</linearGradient>
<linearGradient id="paint101_linear_476_18692" x1="731.324" y1="293.535" x2="827.112" y2="-10.6621" gradientUnits="userSpaceOnUse">
<stop stop-color="#0745F9" stop-opacity="0.42"/>
<stop offset="1" stop-color="#00FFFF"/>
</linearGradient>
<linearGradient id="paint102_linear_476_18692" x1="731.324" y1="293.535" x2="827.112" y2="-10.6621" gradientUnits="userSpaceOnUse">
<stop stop-color="#0745F9" stop-opacity="0.42"/>
<stop offset="1" stop-color="#00FFFF"/>
</linearGradient>
<linearGradient id="paint103_linear_476_18692" x1="731.324" y1="293.535" x2="827.112" y2="-10.6621" gradientUnits="userSpaceOnUse">
<stop stop-color="#0745F9" stop-opacity="0.42"/>
<stop offset="1" stop-color="#00FFFF"/>
</linearGradient>
<linearGradient id="paint104_linear_476_18692" x1="731.324" y1="293.535" x2="827.112" y2="-10.6621" gradientUnits="userSpaceOnUse">
<stop stop-color="#0745F9" stop-opacity="0.42"/>
<stop offset="1" stop-color="#00FFFF"/>
</linearGradient>
<linearGradient id="paint105_linear_476_18692" x1="731.324" y1="293.535" x2="827.112" y2="-10.6621" gradientUnits="userSpaceOnUse">
<stop stop-color="#0745F9" stop-opacity="0.42"/>
<stop offset="1" stop-color="#00FFFF"/>
</linearGradient>
<linearGradient id="paint106_linear_476_18692" x1="731.324" y1="293.535" x2="827.112" y2="-10.6621" gradientUnits="userSpaceOnUse">
<stop stop-color="#0745F9" stop-opacity="0.42"/>
<stop offset="1" stop-color="#00FFFF"/>
</linearGradient>
<linearGradient id="paint107_linear_476_18692" x1="731.324" y1="293.535" x2="827.112" y2="-10.6621" gradientUnits="userSpaceOnUse">
<stop stop-color="#0745F9" stop-opacity="0.42"/>
<stop offset="1" stop-color="#00FFFF"/>
</linearGradient>
<linearGradient id="paint108_linear_476_18692" x1="731.324" y1="293.535" x2="827.112" y2="-10.6621" gradientUnits="userSpaceOnUse">
<stop stop-color="#0745F9" stop-opacity="0.42"/>
<stop offset="1" stop-color="#00FFFF"/>
</linearGradient>
<linearGradient id="paint109_linear_476_18692" x1="731.324" y1="293.535" x2="827.112" y2="-10.6621" gradientUnits="userSpaceOnUse">
<stop stop-color="#0745F9" stop-opacity="0.42"/>
<stop offset="1" stop-color="#00FFFF"/>
</linearGradient>
<linearGradient id="paint110_linear_476_18692" x1="731.324" y1="293.535" x2="827.112" y2="-10.6621" gradientUnits="userSpaceOnUse">
<stop stop-color="#0745F9" stop-opacity="0.42"/>
<stop offset="1" stop-color="#00FFFF"/>
</linearGradient>
<linearGradient id="paint111_linear_476_18692" x1="731.324" y1="293.535" x2="827.112" y2="-10.6621" gradientUnits="userSpaceOnUse">
<stop stop-color="#0745F9" stop-opacity="0.42"/>
<stop offset="1" stop-color="#00FFFF"/>
</linearGradient>
<linearGradient id="paint112_linear_476_18692" x1="731.324" y1="293.535" x2="827.112" y2="-10.6621" gradientUnits="userSpaceOnUse">
<stop stop-color="#0745F9" stop-opacity="0.42"/>
<stop offset="1" stop-color="#00FFFF"/>
</linearGradient>
<linearGradient id="paint113_linear_476_18692" x1="731.324" y1="293.535" x2="827.112" y2="-10.6621" gradientUnits="userSpaceOnUse">
<stop stop-color="#0745F9" stop-opacity="0.42"/>
<stop offset="1" stop-color="#00FFFF"/>
</linearGradient>
<linearGradient id="paint114_linear_476_18692" x1="731.324" y1="293.535" x2="827.112" y2="-10.6621" gradientUnits="userSpaceOnUse">
<stop stop-color="#0745F9" stop-opacity="0.42"/>
<stop offset="1" stop-color="#00FFFF"/>
</linearGradient>
<linearGradient id="paint115_linear_476_18692" x1="731.324" y1="293.535" x2="827.112" y2="-10.6621" gradientUnits="userSpaceOnUse">
<stop stop-color="#0745F9" stop-opacity="0.42"/>
<stop offset="1" stop-color="#00FFFF"/>
</linearGradient>
<linearGradient id="paint116_linear_476_18692" x1="731.324" y1="293.535" x2="827.112" y2="-10.6621" gradientUnits="userSpaceOnUse">
<stop stop-color="#0745F9" stop-opacity="0.42"/>
<stop offset="1" stop-color="#00FFFF"/>
</linearGradient>
<linearGradient id="paint117_linear_476_18692" x1="731.324" y1="293.535" x2="827.112" y2="-10.6621" gradientUnits="userSpaceOnUse">
<stop stop-color="#0745F9" stop-opacity="0.42"/>
<stop offset="1" stop-color="#00FFFF"/>
</linearGradient>
<linearGradient id="paint118_linear_476_18692" x1="731.324" y1="293.535" x2="827.112" y2="-10.6621" gradientUnits="userSpaceOnUse">
<stop stop-color="#0745F9" stop-opacity="0.42"/>
<stop offset="1" stop-color="#00FFFF"/>
</linearGradient>
<linearGradient id="paint119_linear_476_18692" x1="731.324" y1="293.535" x2="827.112" y2="-10.6621" gradientUnits="userSpaceOnUse">
<stop stop-color="#0745F9" stop-opacity="0.42"/>
<stop offset="1" stop-color="#00FFFF"/>
</linearGradient>
<linearGradient id="paint120_linear_476_18692" x1="731.324" y1="293.535" x2="827.112" y2="-10.6621" gradientUnits="userSpaceOnUse">
<stop stop-color="#0745F9" stop-opacity="0.42"/>
<stop offset="1" stop-color="#00FFFF"/>
</linearGradient>
<linearGradient id="paint121_linear_476_18692" x1="731.324" y1="293.535" x2="827.112" y2="-10.6621" gradientUnits="userSpaceOnUse">
<stop stop-color="#0745F9" stop-opacity="0.42"/>
<stop offset="1" stop-color="#00FFFF"/>
</linearGradient>
<linearGradient id="paint122_linear_476_18692" x1="731.324" y1="293.535" x2="827.112" y2="-10.6621" gradientUnits="userSpaceOnUse">
<stop stop-color="#0745F9" stop-opacity="0.42"/>
<stop offset="1" stop-color="#00FFFF"/>
</linearGradient>
<linearGradient id="paint123_linear_476_18692" x1="731.324" y1="293.535" x2="827.112" y2="-10.6621" gradientUnits="userSpaceOnUse">
<stop stop-color="#0745F9" stop-opacity="0.42"/>
<stop offset="1" stop-color="#00FFFF"/>
</linearGradient>
<linearGradient id="paint124_linear_476_18692" x1="731.324" y1="293.535" x2="827.112" y2="-10.6621" gradientUnits="userSpaceOnUse">
<stop stop-color="#0745F9" stop-opacity="0.42"/>
<stop offset="1" stop-color="#00FFFF"/>
</linearGradient>
</defs>
</svg>
