<svg width="320" height="194" viewBox="0 0 320 194" fill="none" xmlns="http://www.w3.org/2000/svg">
<path d="M-57.4047 135.127L-56.2874 134.615L-56.4498 134.259L-57.8793 134.914L-57.7886 135.113L-57.8335 135.135C-57.3716 136.097 -57.0009 137.11 -56.7319 138.163L-56.3535 138.066C-56.6138 137.047 -56.9673 136.064 -57.4047 135.127Z" fill="url(#paint0_linear_476_18759)"/>
<path d="M-53.4283 133.306L-50.5691 131.996L-50.7315 131.64L-53.5906 132.95L-53.4283 133.306Z" fill="url(#paint1_linear_476_18759)"/>
<path d="M-47.71 130.686L-44.8509 129.377L-45.0132 129.021L-47.8724 130.33L-47.71 130.686Z" fill="url(#paint2_linear_476_18759)"/>
<path d="M-41.9917 128.067L-39.1326 126.758L-39.295 126.401L-42.1541 127.711L-41.9917 128.067Z" fill="url(#paint3_linear_476_18759)"/>
<path d="M-36.2735 125.448L-33.4143 124.138L-33.5767 123.782L-36.4358 125.092L-36.2735 125.448Z" fill="url(#paint4_linear_476_18759)"/>
<path d="M-30.5552 122.829L-27.696 121.519L-27.8584 121.163L-30.7176 122.473L-30.5552 122.829Z" fill="url(#paint5_linear_476_18759)"/>
<path d="M-24.8369 120.21L-21.9778 118.9L-22.1402 118.544L-24.9993 119.853L-24.8369 120.21Z" fill="url(#paint6_linear_476_18759)"/>
<path d="M-19.1186 117.59L-16.2595 116.281L-16.4219 115.925L-19.281 117.234L-19.1186 117.59Z" fill="url(#paint7_linear_476_18759)"/>
<path d="M-13.4004 114.971L-10.5412 113.662L-10.7036 113.305L-13.5627 114.615L-13.4004 114.971Z" fill="url(#paint8_linear_476_18759)"/>
<path d="M-7.6821 112.352L-4.82297 111.042L-4.98534 110.686L-7.84447 111.996L-7.6821 112.352Z" fill="url(#paint9_linear_476_18759)"/>
<path d="M-1.96382 109.733L0.895309 108.423L0.732941 108.067L-2.12619 109.377L-1.96382 109.733Z" fill="url(#paint10_linear_476_18759)"/>
<path d="M3.75446 107.114L6.61359 105.804L6.45122 105.448L3.59207 106.757L3.75446 107.114Z" fill="url(#paint11_linear_476_18759)"/>
<path d="M9.47272 104.494L12.3319 103.185L12.1695 102.829L9.31033 104.138L9.47272 104.494Z" fill="url(#paint12_linear_476_18759)"/>
<path d="M15.191 101.875L18.0501 100.566L17.8878 100.209L15.0286 101.519L15.191 101.875Z" fill="url(#paint13_linear_476_18759)"/>
<path d="M20.9093 99.2559L23.7684 97.9463L23.606 97.5902L20.7469 98.8998L20.9093 99.2559Z" fill="url(#paint14_linear_476_18759)"/>
<path d="M26.6275 96.6367L29.4867 95.3271L29.3243 94.971L26.4652 96.2806L26.6275 96.6367Z" fill="url(#paint15_linear_476_18759)"/>
<path d="M32.3458 94.0175L35.2049 92.7079L35.0426 92.3518L32.1834 93.6614L32.3458 94.0175Z" fill="url(#paint16_linear_476_18759)"/>
<path d="M38.0641 91.3983L40.9232 90.0887L40.7608 89.7326L37.9017 91.0422L38.0641 91.3983Z" fill="url(#paint17_linear_476_18759)"/>
<path d="M43.7823 88.7791L46.6415 87.4695L46.4791 87.1134L43.62 88.423L43.7823 88.7791Z" fill="url(#paint18_linear_476_18759)"/>
<path d="M49.5006 86.1599L52.3598 84.8503L52.1974 84.4942L49.3382 85.8038L49.5006 86.1599Z" fill="url(#paint19_linear_476_18759)"/>
<path d="M55.2189 83.5407L58.078 82.2311L57.9157 81.875L55.0565 83.1846L55.2189 83.5407Z" fill="url(#paint20_linear_476_18759)"/>
<path d="M60.9372 80.9215L63.7963 79.6119L63.6339 79.2558L60.7748 80.5654L60.9372 80.9215Z" fill="url(#paint21_linear_476_18759)"/>
<path d="M66.6554 78.3023L69.5146 76.9927L69.3522 76.6366L66.4931 77.9462L66.6554 78.3023Z" fill="url(#paint22_linear_476_18759)"/>
<path d="M72.3737 75.6831L75.2328 74.3735L75.0705 74.0174L72.2113 75.327L72.3737 75.6831Z" fill="url(#paint23_linear_476_18759)"/>
<path d="M78.092 73.0639L80.9511 71.7543L80.7887 71.3982L77.9296 72.7078L78.092 73.0639Z" fill="url(#paint24_linear_476_18759)"/>
<path d="M83.8103 70.4447L86.6694 69.1351L86.507 68.779L83.6479 70.0886L83.8103 70.4447Z" fill="url(#paint25_linear_476_18759)"/>
<path d="M89.5285 67.8255L92.3876 66.5159L92.2253 66.1598L89.3661 67.4694L89.5285 67.8255Z" fill="url(#paint26_linear_476_18759)"/>
<path d="M95.2468 65.2063L98.1059 63.8967L97.9436 63.5406L95.0844 64.8502L95.2468 65.2063Z" fill="url(#paint27_linear_476_18759)"/>
<path d="M100.965 62.5871L103.824 61.2775L103.662 60.9214L100.803 62.231L100.965 62.5871Z" fill="url(#paint28_linear_476_18759)"/>
<path d="M106.683 59.9679L109.543 58.6583L109.38 58.3021L106.521 59.6118L106.683 59.9679Z" fill="url(#paint29_linear_476_18759)"/>
<path d="M112.402 57.3487L115.261 56.0391L115.098 55.683L112.239 56.9926L112.402 57.3487Z" fill="url(#paint30_linear_476_18759)"/>
<path d="M118.12 54.7295L120.979 53.4199L120.817 53.0638L117.958 54.3733L118.12 54.7295Z" fill="url(#paint31_linear_476_18759)"/>
<path d="M123.838 52.1103L126.697 50.8006L126.535 50.4445L123.676 51.7542L123.838 52.1103Z" fill="url(#paint32_linear_476_18759)"/>
<path d="M129.556 49.491L132.416 48.1814L132.253 47.8253L129.394 49.1349L129.556 49.491Z" fill="url(#paint33_linear_476_18759)"/>
<path d="M135.275 46.8718L138.134 45.5622L137.971 45.2061L135.112 46.5157L135.275 46.8718Z" fill="url(#paint34_linear_476_18759)"/>
<path d="M140.993 44.2526L143.852 42.943L143.69 42.5869L140.831 43.8965L140.993 44.2526Z" fill="url(#paint35_linear_476_18759)"/>
<path d="M146.711 41.6334L149.57 40.3238L149.408 39.9677L146.549 41.2773L146.711 41.6334Z" fill="url(#paint36_linear_476_18759)"/>
<path d="M152.43 39.0142L155.289 37.7046L155.126 37.3485L152.267 38.6581L152.43 39.0142Z" fill="url(#paint37_linear_476_18759)"/>
<path d="M158.148 36.395L161.007 35.0854L160.845 34.7293L157.985 36.0389L158.148 36.395Z" fill="url(#paint38_linear_476_18759)"/>
<path d="M163.866 33.7758L166.725 32.4662L166.563 32.1101L163.704 33.4197L163.866 33.7758Z" fill="url(#paint39_linear_476_18759)"/>
<path d="M169.584 31.1566L172.443 29.847L172.281 29.4909L169.422 30.8005L169.584 31.1566Z" fill="url(#paint40_linear_476_18759)"/>
<path d="M175.303 28.5374L178.162 27.2278L177.999 26.8717L175.14 28.1813L175.303 28.5374Z" fill="url(#paint41_linear_476_18759)"/>
<path d="M181.021 25.9182L183.88 24.6086L183.718 24.2525L180.858 25.5621L181.021 25.9182Z" fill="url(#paint42_linear_476_18759)"/>
<path d="M186.739 23.299L189.598 21.9894L189.436 21.6333L186.577 22.9429L186.739 23.299Z" fill="url(#paint43_linear_476_18759)"/>
<path d="M192.457 20.6798L195.317 19.3702L195.154 19.0141L192.295 20.3237L192.457 20.6798Z" fill="url(#paint44_linear_476_18759)"/>
<path d="M198.176 18.0606L201.035 16.751L200.872 16.3949L198.013 17.7045L198.176 18.0606Z" fill="url(#paint45_linear_476_18759)"/>
<path d="M203.894 15.4414L206.753 14.1318L206.591 13.7757L203.732 15.0853L203.894 15.4414Z" fill="url(#paint46_linear_476_18759)"/>
<path d="M209.612 12.8222L212.471 11.5126L212.309 11.1565L209.45 12.4661L209.612 12.8222Z" fill="url(#paint47_linear_476_18759)"/>
<path d="M215.331 10.203L218.19 8.89335L218.027 8.53725L215.168 9.84685L215.331 10.203Z" fill="url(#paint48_linear_476_18759)"/>
<path d="M221.049 7.58375L223.908 6.27415L223.746 5.91804L220.886 7.22764L221.049 7.58375Z" fill="url(#paint49_linear_476_18759)"/>
<path d="M226.767 4.96455L229.626 3.65494L229.464 3.29884L226.605 4.60844L226.767 4.96455Z" fill="url(#paint50_linear_476_18759)"/>
<path d="M232.485 2.34534L235.344 1.03574L235.182 0.679632L232.323 1.98923L232.485 2.34534Z" fill="url(#paint51_linear_476_18759)"/>
<path d="M238.204 -0.273867L241.063 -1.58347L240.9 -1.93957L238.041 -0.629971L238.204 -0.273867Z" fill="url(#paint52_linear_476_18759)"/>
<path d="M243.922 -2.89307L246.781 -4.20267L246.619 -4.55878L243.759 -3.24918L243.922 -2.89307Z" fill="url(#paint53_linear_476_18759)"/>
<path d="M249.64 -5.51228L252.499 -6.82188L252.337 -7.17799L249.478 -5.86838L249.64 -5.51228Z" fill="url(#paint54_linear_476_18759)"/>
<path d="M255.358 -8.13148L258.218 -9.44109L258.055 -9.79719L255.196 -8.48759L255.358 -8.13148Z" fill="url(#paint55_linear_476_18759)"/>
<path fill-rule="evenodd" clip-rule="evenodd" d="M261.077 -10.7507L263.936 -12.0603L263.881 -12.1812L276.409 -15.8796L276.287 -16.2516L267.284 -13.5939L269.654 -14.6795L269.492 -15.0356L266.633 -13.726L266.763 -13.4401L-32.5792 74.9294C-35.7556 66.4904 -43.8884 60.4881 -53.4198 60.4881C-65.7175 60.4881 -75.6868 70.4798 -75.6868 82.8053C-75.6868 95.1308 -65.7175 105.123 -53.4198 105.123C-41.1222 105.123 -31.1529 95.1308 -31.1529 82.8053C-31.1529 80.1711 -31.6083 77.6434 -32.4445 75.2971L262.135 -11.6659L260.914 -11.1068L261.077 -10.7507ZM-31.5436 82.8053C-31.5436 94.9145 -41.3379 104.731 -53.4198 104.731C-65.5018 104.731 -75.2961 94.9145 -75.2961 82.8053C-75.2961 70.6961 -65.5018 60.8796 -53.4198 60.8796C-41.3379 60.8796 -31.5436 70.6961 -31.5436 82.8053Z" fill="url(#paint56_linear_476_18759)"/>
<path d="M272.513 -15.9891L273.943 -16.6439L273.78 -17L272.351 -16.3452L272.513 -15.9891Z" fill="url(#paint57_linear_476_18759)"/>
<path fill-rule="evenodd" clip-rule="evenodd" d="M277.849 -16.2519L277.849 -16.2522L277.595 -16.5498L274.364 -13.7803L33.1417 134.91C28.1373 127.119 19.4071 121.958 9.4744 121.958C-6.05951 121.958 -18.6522 134.58 -18.6522 150.149C-18.6522 165.718 -6.05951 178.339 9.4744 178.339C25.0083 178.339 37.601 165.718 37.601 150.149C37.601 144.675 36.0445 139.566 33.3509 135.241L272.452 -12.1427L121.433 117.271C117.37 112.927 111.593 110.212 105.183 110.212C92.8854 110.212 82.9161 120.204 82.9161 132.53C82.9161 144.855 92.8854 154.847 105.183 154.847C117.481 154.847 127.45 144.855 127.45 132.53C127.45 126.769 125.272 121.519 121.697 117.559L274.594 -13.4628L276.401 -14.5768L168.334 167.619C166.296 166.467 163.943 165.81 161.436 165.81C153.669 165.81 147.373 172.12 147.373 179.905C147.373 187.689 153.669 194 161.436 194C169.203 194 175.5 187.689 175.5 179.905C175.5 174.772 172.763 170.281 168.672 167.816L277.027 -14.8651L277.27 -14.7695L277.447 -15.2212L277.455 -15.2263L275.896 93.371L276.287 93.3766C256.006 93.3766 239.566 109.854 239.566 130.18C239.566 150.507 256.006 166.984 276.287 166.984C296.567 166.984 313.007 150.507 313.007 130.18C313.007 109.854 296.567 93.3766 276.287 93.3766L277.849 -15.4693L277.662 -15.7737L277.848 -16.2503L277.849 -16.2516L277.849 -16.2519ZM276.926 -15.4608L276.505 -15.1005L276.831 -15.3013L276.926 -15.4608ZM168.134 167.956L168.132 167.959L168.468 168.159L168.472 168.152C172.449 170.549 175.109 174.916 175.109 179.905C175.109 187.473 168.987 193.608 161.436 193.608C153.885 193.608 147.764 187.473 147.764 179.905C147.764 172.337 153.885 166.201 161.436 166.201C163.87 166.201 166.155 166.839 168.134 167.956ZM37.2104 150.149C37.2104 165.501 24.7925 177.947 9.4744 177.947C-5.84377 177.947 -18.2616 165.501 -18.2616 150.149C-18.2616 134.796 -5.84377 122.35 9.4744 122.35C24.7925 122.35 37.2104 134.796 37.2104 150.149ZM105.183 154.455C117.265 154.455 127.059 144.639 127.059 132.53C127.059 120.42 117.265 110.604 105.183 110.604C93.1011 110.604 83.3068 120.42 83.3068 132.53C83.3068 144.639 93.1011 154.455 105.183 154.455ZM276.287 166.593C296.351 166.593 312.617 150.29 312.617 130.18C312.617 110.07 296.351 93.7681 276.287 93.7681C256.222 93.7681 239.956 110.07 239.956 130.18C239.956 150.29 256.222 166.593 276.287 166.593Z" fill="url(#paint58_linear_476_18759)"/>
<path fill-rule="evenodd" clip-rule="evenodd" d="M386.449 171.878C386.449 180.42 379.541 187.344 371.019 187.344C362.497 187.344 355.588 180.42 355.588 171.878C355.588 165.994 358.867 160.877 363.694 158.263L278.28 -15.2957L278.63 -15.4689L364.04 158.081C366.136 157.014 368.507 156.413 371.019 156.413C379.541 156.413 386.449 163.337 386.449 171.878ZM386.059 171.878C386.059 180.204 379.325 186.952 371.019 186.952C362.712 186.952 355.979 180.204 355.979 171.878C355.979 163.553 362.712 156.805 371.019 156.805C379.325 156.805 386.059 163.553 386.059 171.878Z" fill="url(#paint59_linear_476_18759)"/>
<path d="M-55.9981 144.627L-56.3849 144.572C-56.3104 144.045 -56.2607 143.508 -56.2372 142.964C-56.2136 142.421 -56.2166 141.882 -56.2451 141.35L-55.855 141.329C-55.8258 141.874 -55.8227 142.425 -55.8469 142.981C-55.871 143.538 -55.9219 144.087 -55.9981 144.627Z" fill="url(#paint60_linear_476_18759)"/>
<path d="M-59.1928 132.145L-59.5051 132.38C-60.1507 131.519 -60.8791 130.722 -61.6791 130.003L-61.4182 129.711C-60.5993 130.448 -59.8536 131.263 -59.1928 132.145Z" fill="url(#paint61_linear_476_18759)"/>
<path d="M-64.0728 127.758L-64.272 128.095C-65.1887 127.55 -66.1638 127.092 -67.1866 126.732L-67.0572 126.363C-66.0098 126.731 -65.0114 127.2 -64.0728 127.758Z" fill="url(#paint62_linear_476_18759)"/>
<path d="M-70.257 125.582L-70.3117 125.969C-70.8384 125.895 -71.3735 125.845 -71.9161 125.821C-72.4587 125.798 -72.9962 125.801 -73.5273 125.829L-73.5482 125.438C-73.0045 125.409 -72.4544 125.406 -71.8991 125.43C-71.3439 125.454 -70.7962 125.505 -70.257 125.582Z" fill="url(#paint63_linear_476_18759)"/>
<path d="M-76.8036 125.938L-76.7067 126.317C-77.7568 126.587 -78.7679 126.958 -79.7282 127.421L-79.8976 127.068C-78.9142 126.594 -77.8789 126.214 -76.8036 125.938Z" fill="url(#paint64_linear_476_18759)"/>
<path d="M-82.7113 128.784L-82.4767 129.097C-83.3359 129.744 -84.1306 130.474 -84.8483 131.275L-85.1391 131.014C-84.4044 130.193 -83.5909 129.446 -82.7113 128.784Z" fill="url(#paint65_linear_476_18759)"/>
<path d="M-87.0882 133.675L-86.7522 133.874C-87.2957 134.793 -87.7528 135.77 -88.1119 136.795L-88.4805 136.666C-88.1127 135.616 -87.6447 134.615 -87.0882 133.675Z" fill="url(#paint66_linear_476_18759)"/>
<path d="M-89.2596 139.873C-89.3359 140.413 -89.3867 140.962 -89.4108 141.519C-89.435 142.075 -89.4319 142.626 -89.4027 143.171L-89.0127 143.15C-89.0411 142.618 -89.0442 142.079 -89.0206 141.536C-88.997 140.992 -88.9473 140.455 -88.8728 139.928L-89.2596 139.873Z" fill="url(#paint67_linear_476_18759)"/>
<path d="M-88.9043 146.434L-88.5258 146.337C-88.2569 147.389 -87.8861 148.403 -87.4242 149.365L-87.7763 149.535C-88.2492 148.55 -88.6288 147.512 -88.9043 146.434Z" fill="url(#paint68_linear_476_18759)"/>
<path d="M-86.0649 152.355L-85.7526 152.12C-85.107 152.981 -84.3786 153.778 -83.5786 154.497L-83.8395 154.788C-84.6584 154.052 -85.4041 153.237 -86.0649 152.355Z" fill="url(#paint69_linear_476_18759)"/>
<path d="M-81.1849 156.742L-80.9857 156.405C-80.069 156.95 -79.0939 157.408 -78.0711 157.768L-78.2005 158.137C-79.2479 157.769 -80.2464 157.3 -81.1849 156.742Z" fill="url(#paint70_linear_476_18759)"/>
<path d="M-75.0007 158.918L-74.946 158.531C-74.4194 158.605 -73.8842 158.655 -73.3416 158.679C-72.799 158.702 -72.2616 158.699 -71.7305 158.671L-71.7096 159.062C-72.2532 159.091 -72.8034 159.094 -73.3586 159.07C-73.9138 159.046 -74.4616 158.995 -75.0007 158.918Z" fill="url(#paint71_linear_476_18759)"/>
<path d="M-68.4541 158.562L-68.5511 158.183C-67.501 157.913 -66.4899 157.542 -65.5295 157.079L-65.3602 157.432C-66.3435 157.906 -67.3788 158.286 -68.4541 158.562Z" fill="url(#paint72_linear_476_18759)"/>
<path d="M-62.5464 155.716L-62.7811 155.403C-61.9218 154.756 -61.1272 154.026 -60.4094 153.225L-60.1187 153.486C-60.8534 154.307 -61.6668 155.054 -62.5464 155.716Z" fill="url(#paint73_linear_476_18759)"/>
<path d="M-58.1695 150.825L-58.5056 150.626C-57.9621 149.707 -57.5049 148.73 -57.1459 147.705L-56.7773 147.834C-57.145 148.884 -57.6131 149.885 -58.1695 150.825Z" fill="url(#paint74_linear_476_18759)"/>
<path d="M225.765 142.908C225.413 142.491 225.038 142.088 224.64 141.699C224.242 141.311 223.829 140.946 223.404 140.605L223.16 140.911C223.575 141.244 223.978 141.6 224.367 141.98C224.757 142.359 225.123 142.754 225.467 143.16L225.765 142.908Z" fill="url(#paint75_linear_476_18759)"/>
<path d="M220.642 138.806C219.718 138.327 218.759 137.94 217.778 137.644L218.232 136.482L217.868 136.339L217.289 137.822L217.492 137.902L217.474 137.963C218.499 138.258 219.5 138.655 220.463 139.154L220.642 138.806Z" fill="url(#paint76_linear_476_18759)"/>
<path d="M214.343 136.99C213.247 136.897 212.144 136.912 211.05 137.035L211.094 137.424C212.162 137.304 213.24 137.289 214.311 137.38L214.343 136.99Z" fill="url(#paint77_linear_476_18759)"/>
<path d="M207.829 137.72C206.789 138.051 205.775 138.486 204.803 139.024L204.992 139.367C205.941 138.841 206.931 138.417 207.947 138.093L207.829 137.72Z" fill="url(#paint78_linear_476_18759)"/>
<path d="M202.092 140.898C201.676 141.25 201.274 141.626 200.886 142.025C200.499 142.424 200.135 142.838 199.795 143.264L200.1 143.509C200.432 143.092 200.788 142.688 201.166 142.298C201.545 141.908 201.938 141.541 202.344 141.197L202.092 140.898Z" fill="url(#paint79_linear_476_18759)"/>
<path d="M198 146.032C197.49 147.02 197.084 148.048 196.783 149.099L197.158 149.207C197.453 148.18 197.849 147.177 198.347 146.212L198 146.032Z" fill="url(#paint80_linear_476_18759)"/>
<path d="M196.187 152.345C196.095 153.444 196.11 154.55 196.232 155.645L196.621 155.602C196.501 154.531 196.487 153.451 196.577 152.378L196.187 152.345Z" fill="url(#paint81_linear_476_18759)"/>
<path d="M196.916 158.874C197.246 159.917 197.68 160.933 198.217 161.906L198.559 161.717C198.035 160.766 197.611 159.774 197.289 158.756L196.916 158.874Z" fill="url(#paint82_linear_476_18759)"/>
<path d="M201.212 165.832C200.813 165.444 200.438 165.041 200.087 164.624L200.385 164.371C200.728 164.778 201.095 165.172 201.484 165.552C201.873 165.931 202.276 166.288 202.692 166.621L202.448 166.926C202.023 166.585 201.61 166.221 201.212 165.832Z" fill="url(#paint83_linear_476_18759)"/>
<path d="M205.209 168.725C206.195 169.236 207.22 169.643 208.269 169.945L208.377 169.569C207.353 169.274 206.351 168.877 205.389 168.377L205.209 168.725Z" fill="url(#paint84_linear_476_18759)"/>
<path d="M211.508 170.542C212.604 170.634 213.708 170.619 214.801 170.497L214.758 170.108C213.69 170.227 212.612 170.242 211.541 170.152L211.508 170.542Z" fill="url(#paint85_linear_476_18759)"/>
<path d="M218.023 169.811C219.063 169.48 220.077 169.046 221.048 168.508L220.859 168.165C219.91 168.691 218.92 169.115 217.905 169.438L218.023 169.811Z" fill="url(#paint86_linear_476_18759)"/>
<path d="M223.759 166.634C224.175 166.281 224.578 165.906 224.965 165.506C225.353 165.107 225.717 164.694 226.057 164.267L225.752 164.023C225.419 164.439 225.064 164.843 224.685 165.233C224.306 165.623 223.913 165.991 223.507 166.335L223.759 166.634Z" fill="url(#paint87_linear_476_18759)"/>
<path d="M227.851 161.5C228.361 160.512 228.767 159.484 229.069 158.433L228.693 158.325C228.399 159.351 228.003 160.355 227.504 161.32L227.851 161.5Z" fill="url(#paint88_linear_476_18759)"/>
<path d="M229.664 155.187C229.756 154.088 229.741 152.982 229.619 151.886L229.231 151.93C229.35 153 229.365 154.08 229.275 155.154L229.664 155.187Z" fill="url(#paint89_linear_476_18759)"/>
<path d="M228.935 148.657C228.605 147.615 228.171 146.599 227.634 145.625L227.292 145.814C227.817 146.765 228.24 147.758 228.563 148.776L228.935 148.657Z" fill="url(#paint90_linear_476_18759)"/>
<path fill-rule="evenodd" clip-rule="evenodd" d="M-145.417 167.767C-139.268 167.767 -134.284 162.771 -134.284 156.608C-134.284 150.446 -139.268 145.45 -145.417 145.45C-151.566 145.45 -156.551 150.446 -156.551 156.608C-156.551 162.771 -151.566 167.767 -145.417 167.767ZM-145.417 167.376C-139.484 167.376 -134.675 162.555 -134.675 156.608C-134.675 150.662 -139.484 145.841 -145.417 145.841C-151.35 145.841 -156.16 150.662 -156.16 156.608C-156.16 162.555 -151.35 167.376 -145.417 167.376Z" fill="url(#paint91_linear_476_18759)"/>
<path d="M220.547 130.551L219.389 133.516L219.026 133.374L220.183 130.408L220.547 130.551Z" fill="url(#paint92_linear_476_18759)"/>
<path d="M222.862 124.619L221.705 127.585L221.341 127.442L222.498 124.476L222.862 124.619Z" fill="url(#paint93_linear_476_18759)"/>
<path d="M225.177 118.688L224.02 121.653L223.656 121.511L224.814 118.545L225.177 118.688Z" fill="url(#paint94_linear_476_18759)"/>
<path d="M227.493 112.756L226.335 115.722L225.971 115.579L227.129 112.614L227.493 112.756Z" fill="url(#paint95_linear_476_18759)"/>
<path d="M229.808 106.825L228.65 109.791L228.286 109.648L229.444 106.682L229.808 106.825Z" fill="url(#paint96_linear_476_18759)"/>
<path d="M232.123 100.893L230.966 103.859L230.602 103.716L231.759 100.751L232.123 100.893Z" fill="url(#paint97_linear_476_18759)"/>
<path d="M234.438 94.962L233.281 97.9277L232.917 97.785L234.075 94.8193L234.438 94.962Z" fill="url(#paint98_linear_476_18759)"/>
<path d="M236.754 89.0305L235.596 91.9962L235.232 91.8536L236.39 88.8879L236.754 89.0305Z" fill="url(#paint99_linear_476_18759)"/>
<path d="M239.069 83.0991L237.911 86.0648L237.547 85.9222L238.705 82.9565L239.069 83.0991Z" fill="url(#paint100_linear_476_18759)"/>
<path d="M241.384 77.1677L240.227 80.1334L239.863 79.9907L241.02 77.025L241.384 77.1677Z" fill="url(#paint101_linear_476_18759)"/>
<path d="M243.699 71.2362L242.542 74.202L242.178 74.0593L243.336 71.0936L243.699 71.2362Z" fill="url(#paint102_linear_476_18759)"/>
<path d="M246.015 65.3048L244.857 68.2705L244.493 68.1279L245.651 65.1622L246.015 65.3048Z" fill="url(#paint103_linear_476_18759)"/>
<path d="M248.33 59.3734L247.172 62.3391L246.808 62.1964L247.966 59.2307L248.33 59.3734Z" fill="url(#paint104_linear_476_18759)"/>
<path d="M250.645 53.4419L249.487 56.4077L249.124 56.265L250.281 53.2993L250.645 53.4419Z" fill="url(#paint105_linear_476_18759)"/>
<path d="M252.96 47.5105L251.803 50.4762L251.439 50.3336L252.597 47.3679L252.96 47.5105Z" fill="url(#paint106_linear_476_18759)"/>
<path d="M255.276 41.5791L254.118 44.5448L253.754 44.4022L254.912 41.4364L255.276 41.5791Z" fill="url(#paint107_linear_476_18759)"/>
<path d="M257.591 35.6476L256.433 38.6134L256.069 38.4707L257.227 35.505L257.591 35.6476Z" fill="url(#paint108_linear_476_18759)"/>
<path d="M259.906 29.7162L258.748 32.6819L258.385 32.5393L259.542 29.5736L259.906 29.7162Z" fill="url(#paint109_linear_476_18759)"/>
<path d="M262.221 23.7848L261.064 26.7505L260.7 26.6079L261.858 23.6421L262.221 23.7848Z" fill="url(#paint110_linear_476_18759)"/>
<path d="M264.537 17.8534L263.379 20.8191L263.015 20.6764L264.173 17.7107L264.537 17.8534Z" fill="url(#paint111_linear_476_18759)"/>
<path d="M266.852 11.9219L265.694 14.8876L265.33 14.745L266.488 11.7793L266.852 11.9219Z" fill="url(#paint112_linear_476_18759)"/>
<path d="M269.167 5.99049L268.009 8.9562L267.646 8.81356L268.803 5.84784L269.167 5.99049Z" fill="url(#paint113_linear_476_18759)"/>
<path d="M271.482 0.0590553L270.325 3.02477L269.961 2.88213L271.118 -0.0835915L271.482 0.0590553Z" fill="url(#paint114_linear_476_18759)"/>
<path d="M273.798 -5.87238L272.64 -2.90666L272.276 -3.04931L273.434 -6.01502L273.798 -5.87238Z" fill="url(#paint115_linear_476_18759)"/>
<path d="M276.113 -11.8038L274.955 -8.83809L274.591 -8.98074L275.749 -11.9465L276.113 -11.8038Z" fill="url(#paint116_linear_476_18759)"/>
<path d="M77.5699 170.746C78.0421 171.207 78.4584 171.703 78.8188 172.227L78.4972 172.449C78.1512 171.946 77.7513 171.47 77.2975 171.027C76.8437 170.584 76.3573 170.197 75.8464 169.864L76.0593 169.536C76.5914 169.882 77.0978 170.286 77.5699 170.746Z" fill="url(#paint117_linear_476_18759)"/>
<path d="M80.3394 175.77C80.6081 177.04 80.6261 178.352 80.3921 179.628L80.0079 179.557C80.2326 178.332 80.2154 177.071 79.9572 175.852L80.3394 175.77Z" fill="url(#paint118_linear_476_18759)"/>
<path d="M78.9688 183.212C78.623 183.746 78.2204 184.253 77.761 184.726C77.3016 185.2 76.8064 185.617 76.2839 185.978L76.0621 185.656C76.5638 185.309 77.0394 184.908 77.481 184.453C77.9225 183.999 78.3092 183.511 78.6413 182.999L78.9688 183.212Z" fill="url(#paint119_linear_476_18759)"/>
<path d="M72.7482 187.502C71.4819 187.771 70.1723 187.789 68.8992 187.555L68.9698 187.17C70.1927 187.395 71.4508 187.378 72.6671 187.119L72.7482 187.502Z" fill="url(#paint120_linear_476_18759)"/>
<path d="M63.8125 184.918C64.2846 185.378 64.791 185.782 65.3232 186.128L65.5361 185.8C65.0251 185.467 64.5387 185.08 64.0849 184.637C63.6311 184.195 63.2312 183.718 62.8853 183.215L62.5637 183.437C62.924 183.961 63.3403 184.457 63.8125 184.918Z" fill="url(#paint121_linear_476_18759)"/>
<path d="M61.043 179.894C60.7743 178.625 60.7563 177.312 60.9903 176.036L61.3745 176.107C61.1498 177.332 61.167 178.593 61.4252 179.812L61.043 179.894Z" fill="url(#paint122_linear_476_18759)"/>
<path d="M62.4136 172.452C62.7595 171.919 63.1621 171.411 63.6215 170.938C64.0809 170.465 64.576 170.047 65.0985 169.686L65.3203 170.008C64.8186 170.355 64.343 170.756 63.9015 171.211C63.4599 171.666 63.0732 172.153 62.7411 172.665L62.4136 172.452Z" fill="url(#paint123_linear_476_18759)"/>
<path d="M68.6342 168.162C69.9005 167.893 71.2101 167.875 72.4833 168.109L72.4127 168.494C71.1897 168.269 69.9316 168.286 68.7153 168.545L68.6342 168.162Z" fill="url(#paint124_linear_476_18759)"/>
<defs>
<linearGradient id="paint0_linear_476_18759" x1="257.536" y1="202.222" x2="311.68" y2="30.1138" gradientUnits="userSpaceOnUse">
<stop stop-color="#0745F9" stop-opacity="0.42"/>
<stop offset="1" stop-color="#00FFFF"/>
</linearGradient>
<linearGradient id="paint1_linear_476_18759" x1="257.536" y1="202.222" x2="311.68" y2="30.1138" gradientUnits="userSpaceOnUse">
<stop stop-color="#0745F9" stop-opacity="0.42"/>
<stop offset="1" stop-color="#00FFFF"/>
</linearGradient>
<linearGradient id="paint2_linear_476_18759" x1="257.536" y1="202.222" x2="311.68" y2="30.1138" gradientUnits="userSpaceOnUse">
<stop stop-color="#0745F9" stop-opacity="0.42"/>
<stop offset="1" stop-color="#00FFFF"/>
</linearGradient>
<linearGradient id="paint3_linear_476_18759" x1="257.536" y1="202.222" x2="311.68" y2="30.1138" gradientUnits="userSpaceOnUse">
<stop stop-color="#0745F9" stop-opacity="0.42"/>
<stop offset="1" stop-color="#00FFFF"/>
</linearGradient>
<linearGradient id="paint4_linear_476_18759" x1="257.536" y1="202.222" x2="311.68" y2="30.1138" gradientUnits="userSpaceOnUse">
<stop stop-color="#0745F9" stop-opacity="0.42"/>
<stop offset="1" stop-color="#00FFFF"/>
</linearGradient>
<linearGradient id="paint5_linear_476_18759" x1="257.536" y1="202.222" x2="311.68" y2="30.1138" gradientUnits="userSpaceOnUse">
<stop stop-color="#0745F9" stop-opacity="0.42"/>
<stop offset="1" stop-color="#00FFFF"/>
</linearGradient>
<linearGradient id="paint6_linear_476_18759" x1="257.536" y1="202.222" x2="311.68" y2="30.1138" gradientUnits="userSpaceOnUse">
<stop stop-color="#0745F9" stop-opacity="0.42"/>
<stop offset="1" stop-color="#00FFFF"/>
</linearGradient>
<linearGradient id="paint7_linear_476_18759" x1="257.536" y1="202.222" x2="311.68" y2="30.1138" gradientUnits="userSpaceOnUse">
<stop stop-color="#0745F9" stop-opacity="0.42"/>
<stop offset="1" stop-color="#00FFFF"/>
</linearGradient>
<linearGradient id="paint8_linear_476_18759" x1="257.536" y1="202.222" x2="311.68" y2="30.1138" gradientUnits="userSpaceOnUse">
<stop stop-color="#0745F9" stop-opacity="0.42"/>
<stop offset="1" stop-color="#00FFFF"/>
</linearGradient>
<linearGradient id="paint9_linear_476_18759" x1="257.536" y1="202.222" x2="311.68" y2="30.1138" gradientUnits="userSpaceOnUse">
<stop stop-color="#0745F9" stop-opacity="0.42"/>
<stop offset="1" stop-color="#00FFFF"/>
</linearGradient>
<linearGradient id="paint10_linear_476_18759" x1="257.536" y1="202.222" x2="311.68" y2="30.1138" gradientUnits="userSpaceOnUse">
<stop stop-color="#0745F9" stop-opacity="0.42"/>
<stop offset="1" stop-color="#00FFFF"/>
</linearGradient>
<linearGradient id="paint11_linear_476_18759" x1="257.536" y1="202.222" x2="311.68" y2="30.1138" gradientUnits="userSpaceOnUse">
<stop stop-color="#0745F9" stop-opacity="0.42"/>
<stop offset="1" stop-color="#00FFFF"/>
</linearGradient>
<linearGradient id="paint12_linear_476_18759" x1="257.536" y1="202.222" x2="311.68" y2="30.1138" gradientUnits="userSpaceOnUse">
<stop stop-color="#0745F9" stop-opacity="0.42"/>
<stop offset="1" stop-color="#00FFFF"/>
</linearGradient>
<linearGradient id="paint13_linear_476_18759" x1="257.536" y1="202.222" x2="311.68" y2="30.1138" gradientUnits="userSpaceOnUse">
<stop stop-color="#0745F9" stop-opacity="0.42"/>
<stop offset="1" stop-color="#00FFFF"/>
</linearGradient>
<linearGradient id="paint14_linear_476_18759" x1="257.536" y1="202.222" x2="311.68" y2="30.1138" gradientUnits="userSpaceOnUse">
<stop stop-color="#0745F9" stop-opacity="0.42"/>
<stop offset="1" stop-color="#00FFFF"/>
</linearGradient>
<linearGradient id="paint15_linear_476_18759" x1="257.536" y1="202.222" x2="311.68" y2="30.1138" gradientUnits="userSpaceOnUse">
<stop stop-color="#0745F9" stop-opacity="0.42"/>
<stop offset="1" stop-color="#00FFFF"/>
</linearGradient>
<linearGradient id="paint16_linear_476_18759" x1="257.536" y1="202.222" x2="311.68" y2="30.1138" gradientUnits="userSpaceOnUse">
<stop stop-color="#0745F9" stop-opacity="0.42"/>
<stop offset="1" stop-color="#00FFFF"/>
</linearGradient>
<linearGradient id="paint17_linear_476_18759" x1="257.536" y1="202.222" x2="311.68" y2="30.1138" gradientUnits="userSpaceOnUse">
<stop stop-color="#0745F9" stop-opacity="0.42"/>
<stop offset="1" stop-color="#00FFFF"/>
</linearGradient>
<linearGradient id="paint18_linear_476_18759" x1="257.536" y1="202.222" x2="311.68" y2="30.1138" gradientUnits="userSpaceOnUse">
<stop stop-color="#0745F9" stop-opacity="0.42"/>
<stop offset="1" stop-color="#00FFFF"/>
</linearGradient>
<linearGradient id="paint19_linear_476_18759" x1="257.536" y1="202.222" x2="311.68" y2="30.1138" gradientUnits="userSpaceOnUse">
<stop stop-color="#0745F9" stop-opacity="0.42"/>
<stop offset="1" stop-color="#00FFFF"/>
</linearGradient>
<linearGradient id="paint20_linear_476_18759" x1="257.536" y1="202.222" x2="311.68" y2="30.1138" gradientUnits="userSpaceOnUse">
<stop stop-color="#0745F9" stop-opacity="0.42"/>
<stop offset="1" stop-color="#00FFFF"/>
</linearGradient>
<linearGradient id="paint21_linear_476_18759" x1="257.536" y1="202.222" x2="311.68" y2="30.1138" gradientUnits="userSpaceOnUse">
<stop stop-color="#0745F9" stop-opacity="0.42"/>
<stop offset="1" stop-color="#00FFFF"/>
</linearGradient>
<linearGradient id="paint22_linear_476_18759" x1="257.536" y1="202.222" x2="311.68" y2="30.1138" gradientUnits="userSpaceOnUse">
<stop stop-color="#0745F9" stop-opacity="0.42"/>
<stop offset="1" stop-color="#00FFFF"/>
</linearGradient>
<linearGradient id="paint23_linear_476_18759" x1="257.536" y1="202.222" x2="311.68" y2="30.1138" gradientUnits="userSpaceOnUse">
<stop stop-color="#0745F9" stop-opacity="0.42"/>
<stop offset="1" stop-color="#00FFFF"/>
</linearGradient>
<linearGradient id="paint24_linear_476_18759" x1="257.536" y1="202.222" x2="311.68" y2="30.1138" gradientUnits="userSpaceOnUse">
<stop stop-color="#0745F9" stop-opacity="0.42"/>
<stop offset="1" stop-color="#00FFFF"/>
</linearGradient>
<linearGradient id="paint25_linear_476_18759" x1="257.536" y1="202.222" x2="311.68" y2="30.1138" gradientUnits="userSpaceOnUse">
<stop stop-color="#0745F9" stop-opacity="0.42"/>
<stop offset="1" stop-color="#00FFFF"/>
</linearGradient>
<linearGradient id="paint26_linear_476_18759" x1="257.536" y1="202.222" x2="311.68" y2="30.1138" gradientUnits="userSpaceOnUse">
<stop stop-color="#0745F9" stop-opacity="0.42"/>
<stop offset="1" stop-color="#00FFFF"/>
</linearGradient>
<linearGradient id="paint27_linear_476_18759" x1="257.536" y1="202.222" x2="311.68" y2="30.1138" gradientUnits="userSpaceOnUse">
<stop stop-color="#0745F9" stop-opacity="0.42"/>
<stop offset="1" stop-color="#00FFFF"/>
</linearGradient>
<linearGradient id="paint28_linear_476_18759" x1="257.536" y1="202.222" x2="311.68" y2="30.1138" gradientUnits="userSpaceOnUse">
<stop stop-color="#0745F9" stop-opacity="0.42"/>
<stop offset="1" stop-color="#00FFFF"/>
</linearGradient>
<linearGradient id="paint29_linear_476_18759" x1="257.536" y1="202.222" x2="311.68" y2="30.1138" gradientUnits="userSpaceOnUse">
<stop stop-color="#0745F9" stop-opacity="0.42"/>
<stop offset="1" stop-color="#00FFFF"/>
</linearGradient>
<linearGradient id="paint30_linear_476_18759" x1="257.536" y1="202.222" x2="311.68" y2="30.1138" gradientUnits="userSpaceOnUse">
<stop stop-color="#0745F9" stop-opacity="0.42"/>
<stop offset="1" stop-color="#00FFFF"/>
</linearGradient>
<linearGradient id="paint31_linear_476_18759" x1="257.536" y1="202.222" x2="311.68" y2="30.1138" gradientUnits="userSpaceOnUse">
<stop stop-color="#0745F9" stop-opacity="0.42"/>
<stop offset="1" stop-color="#00FFFF"/>
</linearGradient>
<linearGradient id="paint32_linear_476_18759" x1="257.536" y1="202.222" x2="311.68" y2="30.1138" gradientUnits="userSpaceOnUse">
<stop stop-color="#0745F9" stop-opacity="0.42"/>
<stop offset="1" stop-color="#00FFFF"/>
</linearGradient>
<linearGradient id="paint33_linear_476_18759" x1="257.536" y1="202.222" x2="311.68" y2="30.1138" gradientUnits="userSpaceOnUse">
<stop stop-color="#0745F9" stop-opacity="0.42"/>
<stop offset="1" stop-color="#00FFFF"/>
</linearGradient>
<linearGradient id="paint34_linear_476_18759" x1="257.536" y1="202.222" x2="311.68" y2="30.1138" gradientUnits="userSpaceOnUse">
<stop stop-color="#0745F9" stop-opacity="0.42"/>
<stop offset="1" stop-color="#00FFFF"/>
</linearGradient>
<linearGradient id="paint35_linear_476_18759" x1="257.536" y1="202.222" x2="311.68" y2="30.1138" gradientUnits="userSpaceOnUse">
<stop stop-color="#0745F9" stop-opacity="0.42"/>
<stop offset="1" stop-color="#00FFFF"/>
</linearGradient>
<linearGradient id="paint36_linear_476_18759" x1="257.536" y1="202.222" x2="311.68" y2="30.1138" gradientUnits="userSpaceOnUse">
<stop stop-color="#0745F9" stop-opacity="0.42"/>
<stop offset="1" stop-color="#00FFFF"/>
</linearGradient>
<linearGradient id="paint37_linear_476_18759" x1="257.536" y1="202.222" x2="311.68" y2="30.1138" gradientUnits="userSpaceOnUse">
<stop stop-color="#0745F9" stop-opacity="0.42"/>
<stop offset="1" stop-color="#00FFFF"/>
</linearGradient>
<linearGradient id="paint38_linear_476_18759" x1="257.536" y1="202.222" x2="311.68" y2="30.1138" gradientUnits="userSpaceOnUse">
<stop stop-color="#0745F9" stop-opacity="0.42"/>
<stop offset="1" stop-color="#00FFFF"/>
</linearGradient>
<linearGradient id="paint39_linear_476_18759" x1="257.536" y1="202.222" x2="311.68" y2="30.1138" gradientUnits="userSpaceOnUse">
<stop stop-color="#0745F9" stop-opacity="0.42"/>
<stop offset="1" stop-color="#00FFFF"/>
</linearGradient>
<linearGradient id="paint40_linear_476_18759" x1="257.536" y1="202.222" x2="311.68" y2="30.1138" gradientUnits="userSpaceOnUse">
<stop stop-color="#0745F9" stop-opacity="0.42"/>
<stop offset="1" stop-color="#00FFFF"/>
</linearGradient>
<linearGradient id="paint41_linear_476_18759" x1="257.536" y1="202.222" x2="311.68" y2="30.1138" gradientUnits="userSpaceOnUse">
<stop stop-color="#0745F9" stop-opacity="0.42"/>
<stop offset="1" stop-color="#00FFFF"/>
</linearGradient>
<linearGradient id="paint42_linear_476_18759" x1="257.536" y1="202.222" x2="311.68" y2="30.1138" gradientUnits="userSpaceOnUse">
<stop stop-color="#0745F9" stop-opacity="0.42"/>
<stop offset="1" stop-color="#00FFFF"/>
</linearGradient>
<linearGradient id="paint43_linear_476_18759" x1="257.536" y1="202.222" x2="311.68" y2="30.1138" gradientUnits="userSpaceOnUse">
<stop stop-color="#0745F9" stop-opacity="0.42"/>
<stop offset="1" stop-color="#00FFFF"/>
</linearGradient>
<linearGradient id="paint44_linear_476_18759" x1="257.536" y1="202.222" x2="311.68" y2="30.1138" gradientUnits="userSpaceOnUse">
<stop stop-color="#0745F9" stop-opacity="0.42"/>
<stop offset="1" stop-color="#00FFFF"/>
</linearGradient>
<linearGradient id="paint45_linear_476_18759" x1="257.536" y1="202.222" x2="311.68" y2="30.1138" gradientUnits="userSpaceOnUse">
<stop stop-color="#0745F9" stop-opacity="0.42"/>
<stop offset="1" stop-color="#00FFFF"/>
</linearGradient>
<linearGradient id="paint46_linear_476_18759" x1="257.536" y1="202.222" x2="311.68" y2="30.1138" gradientUnits="userSpaceOnUse">
<stop stop-color="#0745F9" stop-opacity="0.42"/>
<stop offset="1" stop-color="#00FFFF"/>
</linearGradient>
<linearGradient id="paint47_linear_476_18759" x1="257.536" y1="202.222" x2="311.68" y2="30.1138" gradientUnits="userSpaceOnUse">
<stop stop-color="#0745F9" stop-opacity="0.42"/>
<stop offset="1" stop-color="#00FFFF"/>
</linearGradient>
<linearGradient id="paint48_linear_476_18759" x1="257.536" y1="202.222" x2="311.68" y2="30.1138" gradientUnits="userSpaceOnUse">
<stop stop-color="#0745F9" stop-opacity="0.42"/>
<stop offset="1" stop-color="#00FFFF"/>
</linearGradient>
<linearGradient id="paint49_linear_476_18759" x1="257.536" y1="202.222" x2="311.68" y2="30.1138" gradientUnits="userSpaceOnUse">
<stop stop-color="#0745F9" stop-opacity="0.42"/>
<stop offset="1" stop-color="#00FFFF"/>
</linearGradient>
<linearGradient id="paint50_linear_476_18759" x1="257.536" y1="202.222" x2="311.68" y2="30.1138" gradientUnits="userSpaceOnUse">
<stop stop-color="#0745F9" stop-opacity="0.42"/>
<stop offset="1" stop-color="#00FFFF"/>
</linearGradient>
<linearGradient id="paint51_linear_476_18759" x1="257.536" y1="202.222" x2="311.68" y2="30.1138" gradientUnits="userSpaceOnUse">
<stop stop-color="#0745F9" stop-opacity="0.42"/>
<stop offset="1" stop-color="#00FFFF"/>
</linearGradient>
<linearGradient id="paint52_linear_476_18759" x1="257.536" y1="202.222" x2="311.68" y2="30.1138" gradientUnits="userSpaceOnUse">
<stop stop-color="#0745F9" stop-opacity="0.42"/>
<stop offset="1" stop-color="#00FFFF"/>
</linearGradient>
<linearGradient id="paint53_linear_476_18759" x1="257.536" y1="202.222" x2="311.68" y2="30.1138" gradientUnits="userSpaceOnUse">
<stop stop-color="#0745F9" stop-opacity="0.42"/>
<stop offset="1" stop-color="#00FFFF"/>
</linearGradient>
<linearGradient id="paint54_linear_476_18759" x1="257.536" y1="202.222" x2="311.68" y2="30.1138" gradientUnits="userSpaceOnUse">
<stop stop-color="#0745F9" stop-opacity="0.42"/>
<stop offset="1" stop-color="#00FFFF"/>
</linearGradient>
<linearGradient id="paint55_linear_476_18759" x1="257.536" y1="202.222" x2="311.68" y2="30.1138" gradientUnits="userSpaceOnUse">
<stop stop-color="#0745F9" stop-opacity="0.42"/>
<stop offset="1" stop-color="#00FFFF"/>
</linearGradient>
<linearGradient id="paint56_linear_476_18759" x1="257.536" y1="202.222" x2="311.68" y2="30.1138" gradientUnits="userSpaceOnUse">
<stop stop-color="#0745F9" stop-opacity="0.42"/>
<stop offset="1" stop-color="#00FFFF"/>
</linearGradient>
<linearGradient id="paint57_linear_476_18759" x1="257.536" y1="202.222" x2="311.68" y2="30.1138" gradientUnits="userSpaceOnUse">
<stop stop-color="#0745F9" stop-opacity="0.42"/>
<stop offset="1" stop-color="#00FFFF"/>
</linearGradient>
<linearGradient id="paint58_linear_476_18759" x1="257.536" y1="202.222" x2="311.68" y2="30.1138" gradientUnits="userSpaceOnUse">
<stop stop-color="#0745F9" stop-opacity="0.42"/>
<stop offset="1" stop-color="#00FFFF"/>
</linearGradient>
<linearGradient id="paint59_linear_476_18759" x1="257.536" y1="202.222" x2="311.68" y2="30.1138" gradientUnits="userSpaceOnUse">
<stop stop-color="#0745F9" stop-opacity="0.42"/>
<stop offset="1" stop-color="#00FFFF"/>
</linearGradient>
<linearGradient id="paint60_linear_476_18759" x1="257.536" y1="202.222" x2="311.68" y2="30.1138" gradientUnits="userSpaceOnUse">
<stop stop-color="#0745F9" stop-opacity="0.42"/>
<stop offset="1" stop-color="#00FFFF"/>
</linearGradient>
<linearGradient id="paint61_linear_476_18759" x1="257.536" y1="202.222" x2="311.68" y2="30.1138" gradientUnits="userSpaceOnUse">
<stop stop-color="#0745F9" stop-opacity="0.42"/>
<stop offset="1" stop-color="#00FFFF"/>
</linearGradient>
<linearGradient id="paint62_linear_476_18759" x1="257.536" y1="202.222" x2="311.68" y2="30.1138" gradientUnits="userSpaceOnUse">
<stop stop-color="#0745F9" stop-opacity="0.42"/>
<stop offset="1" stop-color="#00FFFF"/>
</linearGradient>
<linearGradient id="paint63_linear_476_18759" x1="257.536" y1="202.222" x2="311.68" y2="30.1138" gradientUnits="userSpaceOnUse">
<stop stop-color="#0745F9" stop-opacity="0.42"/>
<stop offset="1" stop-color="#00FFFF"/>
</linearGradient>
<linearGradient id="paint64_linear_476_18759" x1="257.536" y1="202.222" x2="311.68" y2="30.1138" gradientUnits="userSpaceOnUse">
<stop stop-color="#0745F9" stop-opacity="0.42"/>
<stop offset="1" stop-color="#00FFFF"/>
</linearGradient>
<linearGradient id="paint65_linear_476_18759" x1="257.536" y1="202.222" x2="311.68" y2="30.1138" gradientUnits="userSpaceOnUse">
<stop stop-color="#0745F9" stop-opacity="0.42"/>
<stop offset="1" stop-color="#00FFFF"/>
</linearGradient>
<linearGradient id="paint66_linear_476_18759" x1="257.536" y1="202.222" x2="311.68" y2="30.1138" gradientUnits="userSpaceOnUse">
<stop stop-color="#0745F9" stop-opacity="0.42"/>
<stop offset="1" stop-color="#00FFFF"/>
</linearGradient>
<linearGradient id="paint67_linear_476_18759" x1="257.536" y1="202.222" x2="311.68" y2="30.1138" gradientUnits="userSpaceOnUse">
<stop stop-color="#0745F9" stop-opacity="0.42"/>
<stop offset="1" stop-color="#00FFFF"/>
</linearGradient>
<linearGradient id="paint68_linear_476_18759" x1="257.536" y1="202.222" x2="311.68" y2="30.1138" gradientUnits="userSpaceOnUse">
<stop stop-color="#0745F9" stop-opacity="0.42"/>
<stop offset="1" stop-color="#00FFFF"/>
</linearGradient>
<linearGradient id="paint69_linear_476_18759" x1="257.536" y1="202.222" x2="311.68" y2="30.1138" gradientUnits="userSpaceOnUse">
<stop stop-color="#0745F9" stop-opacity="0.42"/>
<stop offset="1" stop-color="#00FFFF"/>
</linearGradient>
<linearGradient id="paint70_linear_476_18759" x1="257.536" y1="202.222" x2="311.68" y2="30.1138" gradientUnits="userSpaceOnUse">
<stop stop-color="#0745F9" stop-opacity="0.42"/>
<stop offset="1" stop-color="#00FFFF"/>
</linearGradient>
<linearGradient id="paint71_linear_476_18759" x1="257.536" y1="202.222" x2="311.68" y2="30.1138" gradientUnits="userSpaceOnUse">
<stop stop-color="#0745F9" stop-opacity="0.42"/>
<stop offset="1" stop-color="#00FFFF"/>
</linearGradient>
<linearGradient id="paint72_linear_476_18759" x1="257.536" y1="202.222" x2="311.68" y2="30.1138" gradientUnits="userSpaceOnUse">
<stop stop-color="#0745F9" stop-opacity="0.42"/>
<stop offset="1" stop-color="#00FFFF"/>
</linearGradient>
<linearGradient id="paint73_linear_476_18759" x1="257.536" y1="202.222" x2="311.68" y2="30.1138" gradientUnits="userSpaceOnUse">
<stop stop-color="#0745F9" stop-opacity="0.42"/>
<stop offset="1" stop-color="#00FFFF"/>
</linearGradient>
<linearGradient id="paint74_linear_476_18759" x1="257.536" y1="202.222" x2="311.68" y2="30.1138" gradientUnits="userSpaceOnUse">
<stop stop-color="#0745F9" stop-opacity="0.42"/>
<stop offset="1" stop-color="#00FFFF"/>
</linearGradient>
<linearGradient id="paint75_linear_476_18759" x1="257.536" y1="202.222" x2="311.68" y2="30.1138" gradientUnits="userSpaceOnUse">
<stop stop-color="#0745F9" stop-opacity="0.42"/>
<stop offset="1" stop-color="#00FFFF"/>
</linearGradient>
<linearGradient id="paint76_linear_476_18759" x1="257.536" y1="202.222" x2="311.68" y2="30.1138" gradientUnits="userSpaceOnUse">
<stop stop-color="#0745F9" stop-opacity="0.42"/>
<stop offset="1" stop-color="#00FFFF"/>
</linearGradient>
<linearGradient id="paint77_linear_476_18759" x1="257.536" y1="202.222" x2="311.68" y2="30.1138" gradientUnits="userSpaceOnUse">
<stop stop-color="#0745F9" stop-opacity="0.42"/>
<stop offset="1" stop-color="#00FFFF"/>
</linearGradient>
<linearGradient id="paint78_linear_476_18759" x1="257.536" y1="202.222" x2="311.68" y2="30.1138" gradientUnits="userSpaceOnUse">
<stop stop-color="#0745F9" stop-opacity="0.42"/>
<stop offset="1" stop-color="#00FFFF"/>
</linearGradient>
<linearGradient id="paint79_linear_476_18759" x1="257.536" y1="202.222" x2="311.68" y2="30.1138" gradientUnits="userSpaceOnUse">
<stop stop-color="#0745F9" stop-opacity="0.42"/>
<stop offset="1" stop-color="#00FFFF"/>
</linearGradient>
<linearGradient id="paint80_linear_476_18759" x1="257.536" y1="202.222" x2="311.68" y2="30.1138" gradientUnits="userSpaceOnUse">
<stop stop-color="#0745F9" stop-opacity="0.42"/>
<stop offset="1" stop-color="#00FFFF"/>
</linearGradient>
<linearGradient id="paint81_linear_476_18759" x1="257.536" y1="202.222" x2="311.68" y2="30.1138" gradientUnits="userSpaceOnUse">
<stop stop-color="#0745F9" stop-opacity="0.42"/>
<stop offset="1" stop-color="#00FFFF"/>
</linearGradient>
<linearGradient id="paint82_linear_476_18759" x1="257.536" y1="202.222" x2="311.68" y2="30.1138" gradientUnits="userSpaceOnUse">
<stop stop-color="#0745F9" stop-opacity="0.42"/>
<stop offset="1" stop-color="#00FFFF"/>
</linearGradient>
<linearGradient id="paint83_linear_476_18759" x1="257.536" y1="202.222" x2="311.68" y2="30.1138" gradientUnits="userSpaceOnUse">
<stop stop-color="#0745F9" stop-opacity="0.42"/>
<stop offset="1" stop-color="#00FFFF"/>
</linearGradient>
<linearGradient id="paint84_linear_476_18759" x1="257.536" y1="202.222" x2="311.68" y2="30.1138" gradientUnits="userSpaceOnUse">
<stop stop-color="#0745F9" stop-opacity="0.42"/>
<stop offset="1" stop-color="#00FFFF"/>
</linearGradient>
<linearGradient id="paint85_linear_476_18759" x1="257.536" y1="202.222" x2="311.68" y2="30.1138" gradientUnits="userSpaceOnUse">
<stop stop-color="#0745F9" stop-opacity="0.42"/>
<stop offset="1" stop-color="#00FFFF"/>
</linearGradient>
<linearGradient id="paint86_linear_476_18759" x1="257.536" y1="202.222" x2="311.68" y2="30.1138" gradientUnits="userSpaceOnUse">
<stop stop-color="#0745F9" stop-opacity="0.42"/>
<stop offset="1" stop-color="#00FFFF"/>
</linearGradient>
<linearGradient id="paint87_linear_476_18759" x1="257.536" y1="202.222" x2="311.68" y2="30.1138" gradientUnits="userSpaceOnUse">
<stop stop-color="#0745F9" stop-opacity="0.42"/>
<stop offset="1" stop-color="#00FFFF"/>
</linearGradient>
<linearGradient id="paint88_linear_476_18759" x1="257.536" y1="202.222" x2="311.68" y2="30.1138" gradientUnits="userSpaceOnUse">
<stop stop-color="#0745F9" stop-opacity="0.42"/>
<stop offset="1" stop-color="#00FFFF"/>
</linearGradient>
<linearGradient id="paint89_linear_476_18759" x1="257.536" y1="202.222" x2="311.68" y2="30.1138" gradientUnits="userSpaceOnUse">
<stop stop-color="#0745F9" stop-opacity="0.42"/>
<stop offset="1" stop-color="#00FFFF"/>
</linearGradient>
<linearGradient id="paint90_linear_476_18759" x1="257.536" y1="202.222" x2="311.68" y2="30.1138" gradientUnits="userSpaceOnUse">
<stop stop-color="#0745F9" stop-opacity="0.42"/>
<stop offset="1" stop-color="#00FFFF"/>
</linearGradient>
<linearGradient id="paint91_linear_476_18759" x1="257.536" y1="202.222" x2="311.68" y2="30.1138" gradientUnits="userSpaceOnUse">
<stop stop-color="#0745F9" stop-opacity="0.42"/>
<stop offset="1" stop-color="#00FFFF"/>
</linearGradient>
<linearGradient id="paint92_linear_476_18759" x1="257.536" y1="202.222" x2="311.68" y2="30.1138" gradientUnits="userSpaceOnUse">
<stop stop-color="#0745F9" stop-opacity="0.42"/>
<stop offset="1" stop-color="#00FFFF"/>
</linearGradient>
<linearGradient id="paint93_linear_476_18759" x1="257.536" y1="202.222" x2="311.68" y2="30.1138" gradientUnits="userSpaceOnUse">
<stop stop-color="#0745F9" stop-opacity="0.42"/>
<stop offset="1" stop-color="#00FFFF"/>
</linearGradient>
<linearGradient id="paint94_linear_476_18759" x1="257.536" y1="202.222" x2="311.68" y2="30.1138" gradientUnits="userSpaceOnUse">
<stop stop-color="#0745F9" stop-opacity="0.42"/>
<stop offset="1" stop-color="#00FFFF"/>
</linearGradient>
<linearGradient id="paint95_linear_476_18759" x1="257.536" y1="202.222" x2="311.68" y2="30.1138" gradientUnits="userSpaceOnUse">
<stop stop-color="#0745F9" stop-opacity="0.42"/>
<stop offset="1" stop-color="#00FFFF"/>
</linearGradient>
<linearGradient id="paint96_linear_476_18759" x1="257.536" y1="202.222" x2="311.68" y2="30.1138" gradientUnits="userSpaceOnUse">
<stop stop-color="#0745F9" stop-opacity="0.42"/>
<stop offset="1" stop-color="#00FFFF"/>
</linearGradient>
<linearGradient id="paint97_linear_476_18759" x1="257.536" y1="202.222" x2="311.68" y2="30.1138" gradientUnits="userSpaceOnUse">
<stop stop-color="#0745F9" stop-opacity="0.42"/>
<stop offset="1" stop-color="#00FFFF"/>
</linearGradient>
<linearGradient id="paint98_linear_476_18759" x1="257.536" y1="202.222" x2="311.68" y2="30.1138" gradientUnits="userSpaceOnUse">
<stop stop-color="#0745F9" stop-opacity="0.42"/>
<stop offset="1" stop-color="#00FFFF"/>
</linearGradient>
<linearGradient id="paint99_linear_476_18759" x1="257.536" y1="202.222" x2="311.68" y2="30.1138" gradientUnits="userSpaceOnUse">
<stop stop-color="#0745F9" stop-opacity="0.42"/>
<stop offset="1" stop-color="#00FFFF"/>
</linearGradient>
<linearGradient id="paint100_linear_476_18759" x1="257.536" y1="202.222" x2="311.68" y2="30.1138" gradientUnits="userSpaceOnUse">
<stop stop-color="#0745F9" stop-opacity="0.42"/>
<stop offset="1" stop-color="#00FFFF"/>
</linearGradient>
<linearGradient id="paint101_linear_476_18759" x1="257.536" y1="202.222" x2="311.68" y2="30.1138" gradientUnits="userSpaceOnUse">
<stop stop-color="#0745F9" stop-opacity="0.42"/>
<stop offset="1" stop-color="#00FFFF"/>
</linearGradient>
<linearGradient id="paint102_linear_476_18759" x1="257.536" y1="202.222" x2="311.68" y2="30.1138" gradientUnits="userSpaceOnUse">
<stop stop-color="#0745F9" stop-opacity="0.42"/>
<stop offset="1" stop-color="#00FFFF"/>
</linearGradient>
<linearGradient id="paint103_linear_476_18759" x1="257.536" y1="202.222" x2="311.68" y2="30.1138" gradientUnits="userSpaceOnUse">
<stop stop-color="#0745F9" stop-opacity="0.42"/>
<stop offset="1" stop-color="#00FFFF"/>
</linearGradient>
<linearGradient id="paint104_linear_476_18759" x1="257.536" y1="202.222" x2="311.68" y2="30.1138" gradientUnits="userSpaceOnUse">
<stop stop-color="#0745F9" stop-opacity="0.42"/>
<stop offset="1" stop-color="#00FFFF"/>
</linearGradient>
<linearGradient id="paint105_linear_476_18759" x1="257.536" y1="202.222" x2="311.68" y2="30.1138" gradientUnits="userSpaceOnUse">
<stop stop-color="#0745F9" stop-opacity="0.42"/>
<stop offset="1" stop-color="#00FFFF"/>
</linearGradient>
<linearGradient id="paint106_linear_476_18759" x1="257.536" y1="202.222" x2="311.68" y2="30.1138" gradientUnits="userSpaceOnUse">
<stop stop-color="#0745F9" stop-opacity="0.42"/>
<stop offset="1" stop-color="#00FFFF"/>
</linearGradient>
<linearGradient id="paint107_linear_476_18759" x1="257.536" y1="202.222" x2="311.68" y2="30.1138" gradientUnits="userSpaceOnUse">
<stop stop-color="#0745F9" stop-opacity="0.42"/>
<stop offset="1" stop-color="#00FFFF"/>
</linearGradient>
<linearGradient id="paint108_linear_476_18759" x1="257.536" y1="202.222" x2="311.68" y2="30.1138" gradientUnits="userSpaceOnUse">
<stop stop-color="#0745F9" stop-opacity="0.42"/>
<stop offset="1" stop-color="#00FFFF"/>
</linearGradient>
<linearGradient id="paint109_linear_476_18759" x1="257.536" y1="202.222" x2="311.68" y2="30.1138" gradientUnits="userSpaceOnUse">
<stop stop-color="#0745F9" stop-opacity="0.42"/>
<stop offset="1" stop-color="#00FFFF"/>
</linearGradient>
<linearGradient id="paint110_linear_476_18759" x1="257.536" y1="202.222" x2="311.68" y2="30.1138" gradientUnits="userSpaceOnUse">
<stop stop-color="#0745F9" stop-opacity="0.42"/>
<stop offset="1" stop-color="#00FFFF"/>
</linearGradient>
<linearGradient id="paint111_linear_476_18759" x1="257.536" y1="202.222" x2="311.68" y2="30.1138" gradientUnits="userSpaceOnUse">
<stop stop-color="#0745F9" stop-opacity="0.42"/>
<stop offset="1" stop-color="#00FFFF"/>
</linearGradient>
<linearGradient id="paint112_linear_476_18759" x1="257.536" y1="202.222" x2="311.68" y2="30.1138" gradientUnits="userSpaceOnUse">
<stop stop-color="#0745F9" stop-opacity="0.42"/>
<stop offset="1" stop-color="#00FFFF"/>
</linearGradient>
<linearGradient id="paint113_linear_476_18759" x1="257.536" y1="202.222" x2="311.68" y2="30.1138" gradientUnits="userSpaceOnUse">
<stop stop-color="#0745F9" stop-opacity="0.42"/>
<stop offset="1" stop-color="#00FFFF"/>
</linearGradient>
<linearGradient id="paint114_linear_476_18759" x1="257.536" y1="202.222" x2="311.68" y2="30.1138" gradientUnits="userSpaceOnUse">
<stop stop-color="#0745F9" stop-opacity="0.42"/>
<stop offset="1" stop-color="#00FFFF"/>
</linearGradient>
<linearGradient id="paint115_linear_476_18759" x1="257.536" y1="202.222" x2="311.68" y2="30.1138" gradientUnits="userSpaceOnUse">
<stop stop-color="#0745F9" stop-opacity="0.42"/>
<stop offset="1" stop-color="#00FFFF"/>
</linearGradient>
<linearGradient id="paint116_linear_476_18759" x1="257.536" y1="202.222" x2="311.68" y2="30.1138" gradientUnits="userSpaceOnUse">
<stop stop-color="#0745F9" stop-opacity="0.42"/>
<stop offset="1" stop-color="#00FFFF"/>
</linearGradient>
<linearGradient id="paint117_linear_476_18759" x1="257.536" y1="202.222" x2="311.68" y2="30.1138" gradientUnits="userSpaceOnUse">
<stop stop-color="#0745F9" stop-opacity="0.42"/>
<stop offset="1" stop-color="#00FFFF"/>
</linearGradient>
<linearGradient id="paint118_linear_476_18759" x1="257.536" y1="202.222" x2="311.68" y2="30.1138" gradientUnits="userSpaceOnUse">
<stop stop-color="#0745F9" stop-opacity="0.42"/>
<stop offset="1" stop-color="#00FFFF"/>
</linearGradient>
<linearGradient id="paint119_linear_476_18759" x1="257.536" y1="202.222" x2="311.68" y2="30.1138" gradientUnits="userSpaceOnUse">
<stop stop-color="#0745F9" stop-opacity="0.42"/>
<stop offset="1" stop-color="#00FFFF"/>
</linearGradient>
<linearGradient id="paint120_linear_476_18759" x1="257.536" y1="202.222" x2="311.68" y2="30.1138" gradientUnits="userSpaceOnUse">
<stop stop-color="#0745F9" stop-opacity="0.42"/>
<stop offset="1" stop-color="#00FFFF"/>
</linearGradient>
<linearGradient id="paint121_linear_476_18759" x1="257.536" y1="202.222" x2="311.68" y2="30.1138" gradientUnits="userSpaceOnUse">
<stop stop-color="#0745F9" stop-opacity="0.42"/>
<stop offset="1" stop-color="#00FFFF"/>
</linearGradient>
<linearGradient id="paint122_linear_476_18759" x1="257.536" y1="202.222" x2="311.68" y2="30.1138" gradientUnits="userSpaceOnUse">
<stop stop-color="#0745F9" stop-opacity="0.42"/>
<stop offset="1" stop-color="#00FFFF"/>
</linearGradient>
<linearGradient id="paint123_linear_476_18759" x1="257.536" y1="202.222" x2="311.68" y2="30.1138" gradientUnits="userSpaceOnUse">
<stop stop-color="#0745F9" stop-opacity="0.42"/>
<stop offset="1" stop-color="#00FFFF"/>
</linearGradient>
<linearGradient id="paint124_linear_476_18759" x1="257.536" y1="202.222" x2="311.68" y2="30.1138" gradientUnits="userSpaceOnUse">
<stop stop-color="#0745F9" stop-opacity="0.42"/>
<stop offset="1" stop-color="#00FFFF"/>
</linearGradient>
</defs>
</svg>
