<svg width="320" height="169" viewBox="0 0 320 169" fill="none" xmlns="http://www.w3.org/2000/svg">
<path fill-rule="evenodd" clip-rule="evenodd" d="M429.976 56.1034C435.782 107.361 398.907 153.616 347.614 159.417C296.321 165.219 250.034 128.37 244.228 77.1129C238.423 25.8557 275.297 -20.3996 326.59 -26.2011C377.883 -32.0027 424.171 4.84625 429.976 56.1034ZM430.385 56.0572C436.216 107.54 399.179 153.998 347.661 159.825C296.142 165.653 249.651 128.642 243.82 77.159C237.989 25.6765 275.026 -20.7821 326.544 -26.6092C378.062 -32.4363 424.553 4.57473 430.385 56.0572ZM332.079 22.2725C344.212 20.9001 355.202 29.8828 356.617 42.372C358.031 54.8612 349.329 66.0713 337.195 67.4436C325.062 68.816 314.072 59.8333 312.658 47.3441C311.243 34.8549 319.946 23.6448 332.079 22.2725ZM297.429 113.08L296.781 107.36C295.67 97.5496 302.211 90.3656 311.039 85.387C319.856 80.4144 330.831 77.7231 338.264 76.8823C345.698 76.0415 356.997 76.2136 366.703 79.091C376.422 81.9718 384.404 87.513 385.515 97.3238L386.163 103.043C386.5 106.019 384.425 108.678 381.555 109.003L303.253 117.859C300.383 118.184 297.766 116.056 297.429 113.08ZM357.025 42.3258C355.586 29.6219 344.402 20.4654 332.033 21.8645C319.664 23.2635 310.81 34.6863 312.249 47.3903C313.688 60.0942 324.872 69.2507 337.242 67.8516C349.611 66.4526 358.464 55.0298 357.025 42.3258ZM296.373 107.406L297.02 113.126C297.382 116.317 300.193 118.618 303.3 118.267L381.601 109.411C384.707 109.059 386.933 106.188 386.571 102.997L385.924 97.2776C383.645 77.1582 353.162 74.784 338.218 76.4743C323.274 78.1645 294.094 87.2871 296.373 107.406Z" fill="url(#paint0_linear_464_13780)"/>
<path fill-rule="evenodd" clip-rule="evenodd" d="M240.45 133.432C235.499 156.882 212.462 171.88 188.996 166.933C165.53 161.985 150.521 138.964 155.472 115.514C160.423 92.0647 183.46 77.0658 206.926 82.0136C230.392 86.9613 245.402 109.982 240.45 133.432ZM240.853 133.517C235.855 157.188 212.6 172.329 188.912 167.335C165.223 162.34 150.072 139.101 155.07 115.43C160.068 91.758 183.323 76.6172 207.011 81.6118C230.699 86.6064 245.851 109.845 240.853 133.517ZM202.219 104.302C207.674 105.452 211.152 110.928 209.964 116.558C208.775 122.188 203.379 125.793 197.924 124.643C192.469 123.493 188.991 118.017 190.18 112.387C191.369 106.757 196.764 103.152 202.219 104.302ZM173.75 139.278L174.305 136.648C175.23 132.267 179.072 130.079 183.687 129.177C188.291 128.277 193.519 128.695 196.917 129.412C200.315 130.128 205.267 131.857 209.115 134.538C212.972 137.226 215.602 140.78 214.677 145.16L214.121 147.79C213.856 149.045 212.657 149.836 211.461 149.584L175.458 141.993C174.262 141.74 173.485 140.533 173.75 139.278ZM210.366 116.643C211.599 110.802 207.991 105.099 202.304 103.9C196.617 102.701 191.011 106.461 189.778 112.302C188.544 118.143 192.152 123.846 197.839 125.045C203.527 126.244 209.132 122.484 210.366 116.643ZM173.903 136.563L173.348 139.193C173.038 140.66 173.945 142.093 175.373 142.394L211.376 149.986C212.805 150.287 214.214 149.342 214.524 147.875L215.079 145.245C217.032 135.994 203.874 130.458 197.002 129.01C190.131 127.561 175.856 127.312 173.903 136.563Z" fill="url(#paint1_linear_464_13780)"/>
<path fill-rule="evenodd" clip-rule="evenodd" d="M192.392 32.3662C195.181 45.4327 186.842 58.2845 173.766 61.0714C160.691 63.8584 147.83 55.5252 145.041 42.4588C142.252 29.3923 150.591 16.5405 163.667 13.7535C176.742 10.9666 189.603 19.2997 192.392 32.3662ZM192.794 32.2806C195.63 45.5688 187.149 58.6387 173.852 61.473C160.554 64.3073 147.475 55.8327 144.639 42.5444C141.803 29.2561 150.283 16.1862 163.581 13.3519C176.878 10.5177 189.957 18.9923 192.794 32.2806ZM166.337 26.2659C169.297 25.6349 172.24 27.5855 172.895 30.6532C173.55 33.7209 171.66 36.7016 168.699 37.3326C165.739 37.9635 162.796 36.0129 162.141 32.9452C161.487 29.8775 163.377 26.8969 166.337 26.2659ZM159.845 50.4905L159.53 49.0142C159.028 46.6627 160.425 44.7271 162.568 43.227C164.7 41.7338 167.455 40.7644 169.346 40.3613C171.237 39.9583 174.147 39.7202 176.704 40.214C179.272 40.71 181.338 41.9074 181.84 44.2589L182.155 45.7352C182.286 46.3474 181.907 46.9272 181.338 47.0486L161.127 51.3563C160.558 51.4777 159.975 51.1027 159.845 50.4905ZM173.297 30.5676C172.597 27.2885 169.444 25.1838 166.251 25.8643C163.059 26.5448 161.04 29.7518 161.74 33.0309C162.439 36.3099 165.592 38.4146 168.785 37.7341C171.977 37.0536 173.996 33.8466 173.297 30.5676ZM159.128 49.0999L159.443 50.5762C159.619 51.3997 160.411 51.9288 161.213 51.7579L181.424 47.4501C182.225 47.2792 182.733 46.4731 182.557 45.6496L182.242 44.1732C181.134 38.9802 173.117 39.1376 169.26 39.9598C165.403 40.7819 158.019 43.9068 159.128 49.0999Z" fill="url(#paint2_linear_464_13780)"/>
<path fill-rule="evenodd" clip-rule="evenodd" d="M-29.5882 83.3033C-33.8102 93.6475 -45.6243 98.6128 -55.9757 94.3937C-66.3271 90.1746 -71.2959 78.3688 -67.0738 68.0246C-62.8518 57.6804 -51.0377 52.7151 -40.6863 56.9342C-30.3349 61.1533 -25.3661 72.9591 -29.5882 83.3033ZM-29.2077 83.4584C-33.5154 94.0125 -45.5694 99.0787 -56.1309 94.7739C-66.6924 90.4692 -71.762 78.4237 -67.4543 67.8695C-63.1466 57.3154 -51.0926 52.2492 -40.5311 56.554C-29.9696 60.8587 -24.8999 72.9042 -29.2077 83.4584ZM-44.7431 66.8714C-42.4272 67.8153 -41.3214 70.5162 -42.3028 72.9205C-43.2841 75.3248 -45.9648 76.4824 -48.2807 75.5385C-50.5965 74.5946 -51.7023 71.8936 -50.721 69.4893C-49.7397 67.0851 -47.059 65.9274 -44.7431 66.8714ZM-60.5991 80.5757L-60.1205 79.4032C-59.3734 77.5729 -57.5259 76.893 -55.341 76.8629C-53.1681 76.8329 -50.8087 77.4568 -49.3125 78.0666C-47.8163 78.6765 -45.6933 79.8795 -44.1612 81.4196C-42.6207 82.9682 -41.776 84.7454 -42.5231 86.5757L-43.0017 87.7482C-43.187 88.2022 -43.6856 88.4074 -44.1025 88.2374L-60.1546 81.6948C-60.5716 81.5248 -60.7844 81.0297 -60.5991 80.5757ZM-41.9223 73.0756C-40.8593 70.4712 -42.0522 67.5247 -44.5879 66.4911C-47.1237 65.4576 -50.0385 66.7299 -51.1015 69.3343C-52.1645 71.9386 -50.9716 74.8852 -48.4358 75.9187C-45.9001 76.9523 -42.9853 75.68 -41.9223 73.0756ZM-60.501 79.2481L-60.9796 80.4206C-61.2465 81.0747 -60.9467 81.8154 -60.3098 82.075L-44.2577 88.6176C-43.6209 88.8772 -42.8882 88.5574 -42.6212 87.9033L-42.1426 86.7307C-40.4591 82.6062 -46.0938 78.9351 -49.1573 77.6864C-52.2209 76.4377 -58.8175 75.1235 -60.501 79.2481Z" fill="url(#paint3_linear_464_13780)"/>
<path fill-rule="evenodd" clip-rule="evenodd" d="M111.359 81.4806C111.359 111.87 86.7071 136.505 56.297 136.505C25.8868 136.505 1.23458 111.87 1.23458 81.4806C1.23458 51.0917 25.8868 26.4566 56.297 26.4566C86.7071 26.4566 111.359 51.0917 111.359 81.4806ZM111.77 81.4806C111.77 112.096 86.934 136.915 56.297 136.915C25.6599 136.915 0.823669 112.096 0.823669 81.4806C0.823669 50.8649 25.6599 26.0459 56.297 26.0459C86.934 26.0459 111.77 50.8649 111.77 81.4806ZM56.296 55.2827C63.4143 55.2827 69.1987 61.2072 69.1987 68.546C69.1987 75.8847 63.4143 81.8092 56.296 81.8092C49.1777 81.8092 43.3933 75.8847 43.3933 68.546C43.3933 61.2072 49.1777 55.2827 56.296 55.2827ZM30.0797 106.132V102.731C30.0797 96.9989 34.3174 93.2581 39.8103 90.9304C45.2921 88.6074 51.891 87.7582 56.296 87.7582C60.701 87.7582 67.2999 88.6074 72.7817 90.9304C78.2746 93.2581 82.5123 96.9989 82.5123 102.731V106.132C82.5123 107.813 81.1881 109.157 79.5782 109.157H33.0139C31.4039 109.157 30.0797 107.813 30.0797 106.132ZM69.6096 68.546C69.6096 60.9911 63.6518 54.8721 56.296 54.8721C48.9403 54.8721 42.9824 60.9911 42.9824 68.546C42.9824 76.1008 48.9403 82.2198 56.296 82.2198C63.6518 82.2198 69.6096 76.1008 69.6096 68.546ZM29.6688 102.731V106.132C29.6688 108.029 31.1665 109.568 33.0139 109.568H79.5782C81.4256 109.568 82.9232 108.029 82.9232 106.132V102.731C82.9232 90.766 65.1828 87.3475 56.296 87.3475C47.4092 87.3475 29.6688 90.766 29.6688 102.731Z" fill="url(#paint4_linear_464_13780)"/>
<defs>
<linearGradient id="paint0_linear_464_13780" x1="312.289" y1="175.905" x2="362.713" y2="16.6203" gradientUnits="userSpaceOnUse">
<stop stop-color="#0745F9" stop-opacity="0.42"/>
<stop offset="1" stop-color="#00FFFF"/>
</linearGradient>
<linearGradient id="paint1_linear_464_13780" x1="312.289" y1="175.905" x2="362.713" y2="16.6203" gradientUnits="userSpaceOnUse">
<stop stop-color="#0745F9" stop-opacity="0.42"/>
<stop offset="1" stop-color="#00FFFF"/>
</linearGradient>
<linearGradient id="paint2_linear_464_13780" x1="312.289" y1="175.905" x2="362.713" y2="16.6203" gradientUnits="userSpaceOnUse">
<stop stop-color="#0745F9" stop-opacity="0.42"/>
<stop offset="1" stop-color="#00FFFF"/>
</linearGradient>
<linearGradient id="paint3_linear_464_13780" x1="312.289" y1="175.905" x2="362.713" y2="16.6203" gradientUnits="userSpaceOnUse">
<stop stop-color="#0745F9" stop-opacity="0.42"/>
<stop offset="1" stop-color="#00FFFF"/>
</linearGradient>
<linearGradient id="paint4_linear_464_13780" x1="312.289" y1="175.905" x2="362.713" y2="16.6203" gradientUnits="userSpaceOnUse">
<stop stop-color="#0745F9" stop-opacity="0.42"/>
<stop offset="1" stop-color="#00FFFF"/>
</linearGradient>
</defs>
</svg>
