<svg width="752" height="179" viewBox="0 0 752 179" fill="none" xmlns="http://www.w3.org/2000/svg">
<path d="M137.307 97.2474L138.855 96.5368L138.63 96.0423L136.65 96.9515L136.776 97.2279L136.713 97.2579C137.353 98.5946 137.867 100.002 138.239 101.463L138.763 101.328C138.403 99.9136 137.913 98.5486 137.307 97.2474Z" fill="url(#paint0_linear_476_18731)"/>
<path d="M142.814 94.7182L146.774 92.8997L146.549 92.4052L142.589 94.2237L142.814 94.7182Z" fill="url(#paint1_linear_476_18731)"/>
<path d="M150.733 91.0811L154.693 89.2626L154.468 88.7681L150.509 90.5866L150.733 91.0811Z" fill="url(#paint2_linear_476_18731)"/>
<path d="M158.653 87.444L162.612 85.6255L162.387 85.131L158.428 86.9495L158.653 87.444Z" fill="url(#paint3_linear_476_18731)"/>
<path d="M166.572 83.8069L170.532 81.9884L170.307 81.4939L166.347 83.3124L166.572 83.8069Z" fill="url(#paint4_linear_476_18731)"/>
<path d="M174.491 80.1698L178.451 78.3513L178.226 77.8568L174.266 79.6753L174.491 80.1698Z" fill="url(#paint5_linear_476_18731)"/>
<path d="M182.41 76.5327L186.37 74.7142L186.145 74.2197L182.186 76.0382L182.41 76.5327Z" fill="url(#paint6_linear_476_18731)"/>
<path d="M190.33 72.8956L194.289 71.0771L194.064 70.5826L190.105 72.4011L190.33 72.8956Z" fill="url(#paint7_linear_476_18731)"/>
<path d="M198.249 69.2585L202.208 67.44L201.984 66.9455L198.024 68.764L198.249 69.2585Z" fill="url(#paint8_linear_476_18731)"/>
<path d="M206.168 65.6214L210.128 63.8029L209.903 63.3084L205.943 65.127L206.168 65.6214Z" fill="url(#paint9_linear_476_18731)"/>
<path d="M214.087 61.9843L218.047 60.1658L217.822 59.6713L213.862 61.4899L214.087 61.9843Z" fill="url(#paint10_linear_476_18731)"/>
<path d="M222.007 58.3473L225.966 56.5287L225.741 56.0342L221.782 57.8528L222.007 58.3473Z" fill="url(#paint11_linear_476_18731)"/>
<path d="M229.926 54.7102L233.885 52.8916L233.66 52.3971L229.701 54.2157L229.926 54.7102Z" fill="url(#paint12_linear_476_18731)"/>
<path d="M237.845 51.0731L241.805 49.2545L241.58 48.76L237.62 50.5786L237.845 51.0731Z" fill="url(#paint13_linear_476_18731)"/>
<path d="M245.764 47.436L249.724 45.6174L249.499 45.1229L245.539 46.9415L245.764 47.436Z" fill="url(#paint14_linear_476_18731)"/>
<path d="M253.683 43.7989L257.643 41.9803L257.418 41.4858L253.459 43.3044L253.683 43.7989Z" fill="url(#paint15_linear_476_18731)"/>
<path d="M261.603 40.1618L265.562 38.3432L265.337 37.8487L261.378 39.6673L261.603 40.1618Z" fill="url(#paint16_linear_476_18731)"/>
<path d="M269.522 36.5247L273.482 34.7061L273.257 34.2116L269.297 36.0302L269.522 36.5247Z" fill="url(#paint17_linear_476_18731)"/>
<path d="M277.441 32.8876L281.401 31.069L281.176 30.5746L277.216 32.3931L277.441 32.8876Z" fill="url(#paint18_linear_476_18731)"/>
<path d="M285.36 29.2505L289.32 27.4319L289.095 26.9375L285.135 28.756L285.36 29.2505Z" fill="url(#paint19_linear_476_18731)"/>
<path d="M293.28 25.6134L297.239 23.7949L297.014 23.3004L293.055 25.1189L293.28 25.6134Z" fill="url(#paint20_linear_476_18731)"/>
<path d="M301.199 21.9763L305.158 20.1578L304.934 19.6633L300.974 21.4818L301.199 21.9763Z" fill="url(#paint21_linear_476_18731)"/>
<path d="M309.118 18.3392L313.078 16.5207L312.853 16.0262L308.893 17.8447L309.118 18.3392Z" fill="url(#paint22_linear_476_18731)"/>
<path d="M317.037 14.7021L320.997 12.8836L320.772 12.3891L316.812 14.2076L317.037 14.7021Z" fill="url(#paint23_linear_476_18731)"/>
<path d="M324.956 11.065L328.916 9.24648L328.691 8.75198L324.732 10.5705L324.956 11.065Z" fill="url(#paint24_linear_476_18731)"/>
<path d="M332.876 7.42793L336.835 5.60938L336.61 5.11488L332.651 6.93343L332.876 7.42793Z" fill="url(#paint25_linear_476_18731)"/>
<path d="M340.795 3.79083L344.755 1.97228L344.53 1.47778L340.57 3.29633L340.795 3.79083Z" fill="url(#paint26_linear_476_18731)"/>
<path d="M348.714 0.15374L352.674 -1.66481L352.449 -2.15931L348.489 -0.340767L348.714 0.15374Z" fill="url(#paint27_linear_476_18731)"/>
<path d="M356.633 -3.48336L360.593 -5.3019L360.368 -5.79641L356.409 -3.97786L356.633 -3.48336Z" fill="url(#paint28_linear_476_18731)"/>
<path d="M364.553 -7.12046L368.512 -8.93901L368.287 -9.43351L364.328 -7.61495L364.553 -7.12046Z" fill="url(#paint29_linear_476_18731)"/>
<path d="M372.472 -10.7576L376.431 -12.5761L376.207 -13.0706L372.247 -11.252L372.472 -10.7576Z" fill="url(#paint30_linear_476_18731)"/>
<path d="M380.391 -14.3946L384.351 -16.2132L384.126 -16.7077L380.166 -14.8891L380.391 -14.3946Z" fill="url(#paint31_linear_476_18731)"/>
<path d="M388.31 -18.0317L392.27 -19.8503L392.045 -20.3448L388.085 -18.5262L388.31 -18.0317Z" fill="url(#paint32_linear_476_18731)"/>
<path d="M396.23 -21.6688L400.189 -23.4874L399.964 -23.9819L396.005 -22.1633L396.23 -21.6688Z" fill="url(#paint33_linear_476_18731)"/>
<path d="M404.149 -25.3059L408.108 -27.1245L407.884 -27.619L403.924 -25.8004L404.149 -25.3059Z" fill="url(#paint34_linear_476_18731)"/>
<path d="M412.068 -28.943L416.028 -30.7616L415.803 -31.2561L411.843 -29.4375L412.068 -28.943Z" fill="url(#paint35_linear_476_18731)"/>
<path d="M419.987 -32.5801L423.947 -34.3987L423.722 -34.8932L419.762 -33.0746L419.987 -32.5801Z" fill="url(#paint36_linear_476_18731)"/>
<path d="M427.906 -36.2172L431.866 -38.0358L431.641 -38.5303L427.682 -36.7117L427.906 -36.2172Z" fill="url(#paint37_linear_476_18731)"/>
<path d="M435.826 -39.8543L439.785 -41.6729L439.56 -42.1674L435.601 -40.3488L435.826 -39.8543Z" fill="url(#paint38_linear_476_18731)"/>
<path d="M443.745 -43.4914L447.705 -45.31L447.48 -45.8045L443.52 -43.9859L443.745 -43.4914Z" fill="url(#paint39_linear_476_18731)"/>
<path d="M451.664 -47.1285L455.624 -48.9471L455.399 -49.4416L451.439 -47.623L451.664 -47.1285Z" fill="url(#paint40_linear_476_18731)"/>
<path d="M459.583 -50.7656L463.543 -52.5842L463.318 -53.0787L459.358 -51.2601L459.583 -50.7656Z" fill="url(#paint41_linear_476_18731)"/>
<path d="M467.503 -54.4027L471.462 -56.2213L471.237 -56.7158L467.278 -54.8972L467.503 -54.4027Z" fill="url(#paint42_linear_476_18731)"/>
<path d="M475.422 -58.0398L479.381 -59.8584L479.157 -60.3528L475.197 -58.5343L475.422 -58.0398Z" fill="url(#paint43_linear_476_18731)"/>
<path d="M483.341 -61.6769L487.301 -63.4954L487.076 -63.9899L483.116 -62.1714L483.341 -61.6769Z" fill="url(#paint44_linear_476_18731)"/>
<path d="M491.26 -65.314L495.22 -67.1325L494.995 -67.627L491.035 -65.8085L491.26 -65.314Z" fill="url(#paint45_linear_476_18731)"/>
<path d="M499.18 -68.9511L503.139 -70.7696L502.914 -71.2641L498.955 -69.4456L499.18 -68.9511Z" fill="url(#paint46_linear_476_18731)"/>
<path d="M507.099 -72.5882L511.058 -74.4067L510.833 -74.9012L506.874 -73.0827L507.099 -72.5882Z" fill="url(#paint47_linear_476_18731)"/>
<path d="M515.018 -76.2253L518.978 -78.0438L518.753 -78.5383L514.793 -76.7198L515.018 -76.2253Z" fill="url(#paint48_linear_476_18731)"/>
<path d="M522.937 -79.8624L526.897 -81.6809L526.672 -82.1754L522.712 -80.3569L522.937 -79.8624Z" fill="url(#paint49_linear_476_18731)"/>
<path d="M530.856 -83.4995L534.816 -85.318L534.591 -85.8125L530.632 -83.994L530.856 -83.4995Z" fill="url(#paint50_linear_476_18731)"/>
<path d="M538.776 -87.1366L542.735 -88.9551L542.51 -89.4496L538.551 -87.6311L538.776 -87.1366Z" fill="url(#paint51_linear_476_18731)"/>
<path d="M546.695 -90.7737L550.654 -92.5922L550.43 -93.0867L546.47 -91.2682L546.695 -90.7737Z" fill="url(#paint52_linear_476_18731)"/>
<path d="M554.614 -94.4108L558.574 -96.2293L558.349 -96.7238L554.389 -94.9053L554.614 -94.4108Z" fill="url(#paint53_linear_476_18731)"/>
<path d="M562.533 -98.0479L566.493 -99.8664L566.268 -100.361L562.308 -98.5424L562.533 -98.0479Z" fill="url(#paint54_linear_476_18731)"/>
<path d="M570.453 -101.685L574.412 -103.503L574.187 -103.998L570.228 -102.179L570.453 -101.685Z" fill="url(#paint55_linear_476_18731)"/>
<path fill-rule="evenodd" clip-rule="evenodd" d="M578.372 -105.322L582.331 -107.141L582.255 -107.309L599.605 -112.444L599.436 -112.961L586.968 -109.27L590.251 -110.778L590.026 -111.272L586.066 -109.454L586.247 -109.057L171.688 13.6555C167.289 1.93687 156.026 -6.39809 142.826 -6.39809C125.795 -6.39809 111.988 7.47674 111.988 24.5922C111.988 41.7077 125.795 55.5825 142.826 55.5825C159.857 55.5825 173.663 41.7077 173.663 24.5922C173.663 20.9342 173.033 17.4243 171.875 14.1662L579.837 -106.593L578.147 -105.817L578.372 -105.322ZM173.122 24.5922C173.122 41.4074 159.558 55.0388 142.826 55.0388C126.094 55.0388 112.53 41.4074 112.53 24.5922C112.53 7.77701 126.094 -5.8544 142.826 -5.8544C159.558 -5.8544 173.122 7.77701 173.122 24.5922Z" fill="url(#paint56_linear_476_18731)"/>
<path d="M594.21 -112.596L596.19 -113.506L595.965 -114L593.985 -113.091L594.21 -112.596Z" fill="url(#paint57_linear_476_18731)"/>
<path fill-rule="evenodd" clip-rule="evenodd" d="M601.599 -112.961L601.6 -112.962L601.249 -113.375L596.773 -109.529L262.705 96.9466C255.774 86.1268 243.684 78.9611 229.928 78.9611C208.415 78.9611 190.976 96.4872 190.976 118.107C190.976 139.726 208.415 157.252 229.928 157.252C251.441 157.252 268.881 139.726 268.881 118.107C268.881 110.506 266.725 103.411 262.995 97.4058L594.126 -107.255L384.979 72.4525C379.352 66.4197 371.352 62.6504 362.475 62.6504C345.444 62.6504 331.637 76.5253 331.637 93.6407C331.637 110.756 345.444 124.631 362.475 124.631C379.506 124.631 393.312 110.756 393.312 93.6407C393.312 85.6417 390.297 78.3505 385.346 72.8527L597.092 -109.088L599.595 -110.635L449.933 142.366C447.11 140.767 443.851 139.854 440.38 139.854C429.623 139.854 420.904 148.617 420.904 159.427C420.904 170.237 429.623 179 440.38 179C451.136 179 459.856 170.237 459.856 159.427C459.856 152.3 456.066 146.063 450.4 142.64L600.461 -111.035L600.798 -110.903L601.043 -111.53L601.054 -111.537L598.895 39.264L599.436 39.2718C571.35 39.2718 548.581 62.1531 548.581 90.3786C548.581 118.604 571.35 141.485 599.436 141.485C627.522 141.485 650.291 118.604 650.291 90.3786C650.291 62.1531 627.522 39.2718 599.436 39.2718L601.6 -111.874L601.341 -112.297L601.599 -112.959L601.6 -112.961L601.599 -112.961ZM600.321 -111.863L599.739 -111.362L600.19 -111.641L600.321 -111.863ZM449.656 142.834L449.653 142.839L450.118 143.117L450.124 143.107C455.631 146.435 459.315 152.499 459.315 159.427C459.315 169.937 450.838 178.456 440.38 178.456C429.922 178.456 421.445 169.937 421.445 159.427C421.445 148.918 429.922 140.398 440.38 140.398C443.75 140.398 446.915 141.283 449.656 142.834ZM268.34 118.107C268.34 139.426 251.142 156.709 229.928 156.709C208.714 156.709 191.517 139.426 191.517 118.107C191.517 96.7875 208.714 79.5048 229.928 79.5048C251.142 79.5048 268.34 96.7875 268.34 118.107ZM362.475 124.087C379.207 124.087 392.771 110.456 392.771 93.6407C392.771 76.8255 379.207 63.1941 362.475 63.1941C345.743 63.1941 332.178 76.8255 332.178 93.6407C332.178 110.456 345.743 124.087 362.475 124.087ZM599.436 140.942C627.224 140.942 649.75 118.304 649.75 90.3786C649.75 62.4533 627.224 39.8155 599.436 39.8155C571.648 39.8155 549.122 62.4533 549.122 90.3786C549.122 118.304 571.648 140.942 599.436 140.942Z" fill="url(#paint58_linear_476_18731)"/>
<path fill-rule="evenodd" clip-rule="evenodd" d="M752 148.282C752 160.142 742.432 169.757 730.63 169.757C718.828 169.757 709.26 160.142 709.26 148.282C709.26 140.11 713.802 133.005 720.486 129.375L602.197 -111.633L602.682 -111.874L720.965 129.122C723.868 127.641 727.152 126.806 730.63 126.806C742.432 126.806 752 136.421 752 148.282ZM751.459 148.282C751.459 159.842 742.134 169.214 730.63 169.214C719.127 169.214 709.801 159.842 709.801 148.282C709.801 136.721 719.127 127.349 730.63 127.349C742.134 127.349 751.459 136.721 751.459 148.282Z" fill="url(#paint59_linear_476_18731)"/>
<path d="M139.255 110.44L138.72 110.363C138.823 109.631 138.892 108.886 138.924 108.131C138.957 107.375 138.953 106.627 138.913 105.888L139.453 105.859C139.494 106.616 139.498 107.381 139.465 108.154C139.431 108.927 139.361 109.689 139.255 110.44Z" fill="url(#paint60_linear_476_18731)"/>
<path d="M134.831 93.1062L134.398 93.4328C133.504 92.2369 132.496 91.1309 131.388 90.132L131.749 89.7273C132.883 90.7499 133.916 91.882 134.831 93.1062Z" fill="url(#paint61_linear_476_18731)"/>
<path d="M128.073 87.0146L127.797 87.4823C126.527 86.7258 125.177 86.0896 123.76 85.5899L123.94 85.0769C125.39 85.5887 126.773 86.2401 128.073 87.0146Z" fill="url(#paint62_linear_476_18731)"/>
<path d="M119.508 83.9925L119.432 84.5308C118.703 84.4272 117.962 84.358 117.21 84.3252C116.459 84.2924 115.715 84.2966 114.979 84.3362L114.95 83.7933C115.703 83.7527 116.465 83.7484 117.234 83.782C118.003 83.8156 118.761 83.8864 119.508 83.9925Z" fill="url(#paint63_linear_476_18731)"/>
<path d="M110.442 84.4871L110.576 85.0138C109.122 85.3881 107.721 85.9041 106.391 86.5469L106.157 86.0569C107.519 85.3988 108.953 84.8704 110.442 84.4871Z" fill="url(#paint64_linear_476_18731)"/>
<path d="M102.26 88.4387L102.585 88.8734C101.395 89.7719 100.295 90.7857 99.3007 91.8991L98.898 91.536C99.9155 90.3962 101.042 89.3585 102.26 88.4387Z" fill="url(#paint65_linear_476_18731)"/>
<path d="M96.1987 95.2306L96.664 95.5078C95.9113 96.7836 95.2783 98.1407 94.781 99.5642L94.2705 99.3841C94.7797 97.9264 95.428 96.5368 96.1987 95.2306Z" fill="url(#paint66_linear_476_18731)"/>
<path d="M93.1914 103.838C93.0858 104.588 93.0155 105.35 92.982 106.123C92.9486 106.896 92.9529 107.661 92.9932 108.418L93.5335 108.389C93.494 107.65 93.4898 106.902 93.5225 106.147C93.5552 105.391 93.624 104.647 93.7271 103.914L93.1914 103.838Z" fill="url(#paint67_linear_476_18731)"/>
<path d="M93.6836 112.949L94.2077 112.814C94.5802 114.275 95.0936 115.683 95.7333 117.019L95.2457 117.255C94.5908 115.886 94.065 114.445 93.6836 112.949Z" fill="url(#paint68_linear_476_18731)"/>
<path d="M97.6158 121.171L98.0483 120.844C98.9423 122.04 99.9511 123.146 101.059 124.145L100.698 124.55C99.5636 123.527 98.531 122.395 97.6158 121.171Z" fill="url(#paint69_linear_476_18731)"/>
<path d="M104.374 127.263L104.65 126.795C105.92 127.551 107.27 128.188 108.686 128.687L108.507 129.2C107.057 128.689 105.674 128.037 104.374 127.263Z" fill="url(#paint70_linear_476_18731)"/>
<path d="M112.939 130.285L113.014 129.746C113.744 129.85 114.485 129.919 115.236 129.952C115.988 129.985 116.732 129.981 117.468 129.941L117.497 130.484C116.744 130.524 115.982 130.529 115.213 130.495C114.444 130.462 113.685 130.391 112.939 130.285Z" fill="url(#paint71_linear_476_18731)"/>
<path d="M122.005 129.79L121.871 129.263C123.325 128.889 124.725 128.373 126.055 127.73L126.29 128.22C124.928 128.878 123.494 129.407 122.005 129.79Z" fill="url(#paint72_linear_476_18731)"/>
<path d="M130.187 125.838L129.862 125.404C131.052 124.505 132.152 123.492 133.146 122.378L133.549 122.741C132.531 123.881 131.405 124.919 130.187 125.838Z" fill="url(#paint73_linear_476_18731)"/>
<path d="M136.248 119.047L135.783 118.769C136.535 117.494 137.168 116.136 137.666 114.713L138.176 114.893C137.667 116.351 137.019 117.74 136.248 119.047Z" fill="url(#paint74_linear_476_18731)"/>
<path d="M529.468 108.052C528.981 107.473 528.462 106.913 527.91 106.374C527.359 105.834 526.787 105.328 526.199 104.855L525.861 105.279C526.436 105.742 526.994 106.236 527.533 106.763C528.072 107.29 528.58 107.838 529.055 108.403L529.468 108.052Z" fill="url(#paint75_linear_476_18731)"/>
<path d="M522.374 102.357C521.094 101.691 519.766 101.153 518.408 100.743L519.036 99.129L518.532 98.9309L517.73 100.99L518.011 101.101L517.987 101.185C519.406 101.595 520.792 102.146 522.126 102.84L522.374 102.357Z" fill="url(#paint76_linear_476_18731)"/>
<path d="M513.651 99.8338C512.133 99.7054 510.605 99.7265 509.09 99.8965L509.15 100.437C510.63 100.271 512.122 100.25 513.606 100.376L513.651 99.8338Z" fill="url(#paint77_linear_476_18731)"/>
<path d="M504.629 100.848C503.189 101.308 501.784 101.911 500.439 102.659L500.701 103.135C502.015 102.405 503.386 101.815 504.792 101.367L504.629 100.848Z" fill="url(#paint78_linear_476_18731)"/>
<path d="M496.684 105.261C496.108 105.75 495.551 106.272 495.014 106.826C494.478 107.381 493.974 107.955 493.503 108.547L493.925 108.886C494.385 108.308 494.878 107.747 495.402 107.206C495.927 106.664 496.471 106.154 497.034 105.676L496.684 105.261Z" fill="url(#paint79_linear_476_18731)"/>
<path d="M491.017 112.39C490.311 113.762 489.749 115.189 489.331 116.649L489.851 116.799C490.259 115.374 490.808 113.98 491.498 112.64L491.017 112.39Z" fill="url(#paint80_linear_476_18731)"/>
<path d="M488.507 121.157C488.379 122.683 488.4 124.218 488.569 125.74L489.107 125.68C488.941 124.193 488.921 122.693 489.046 121.202L488.507 121.157Z" fill="url(#paint81_linear_476_18731)"/>
<path d="M489.516 130.223C489.973 131.671 490.574 133.082 491.318 134.434L491.791 134.171C491.065 132.851 490.478 131.473 490.032 130.059L489.516 130.223Z" fill="url(#paint82_linear_476_18731)"/>
<path d="M495.465 139.886C494.913 139.346 494.394 138.786 493.907 138.208L494.32 137.856C494.796 138.422 495.303 138.969 495.842 139.496C496.381 140.023 496.939 140.518 497.515 140.98L497.177 141.405C496.588 140.931 496.016 140.425 495.465 139.886Z" fill="url(#paint83_linear_476_18731)"/>
<path d="M501.001 143.903C502.366 144.613 503.786 145.177 505.239 145.597L505.388 145.074C503.97 144.664 502.583 144.113 501.25 143.42L501.001 143.903Z" fill="url(#paint84_linear_476_18731)"/>
<path d="M509.724 146.426C511.243 146.554 512.771 146.533 514.285 146.363L514.225 145.823C512.746 145.989 511.253 146.009 509.77 145.884L509.724 146.426Z" fill="url(#paint85_linear_476_18731)"/>
<path d="M518.746 145.411C520.187 144.952 521.591 144.348 522.936 143.601L522.675 143.125C521.361 143.855 519.989 144.444 518.583 144.893L518.746 145.411Z" fill="url(#paint86_linear_476_18731)"/>
<path d="M526.691 140.999C527.267 140.509 527.824 139.987 528.361 139.433C528.898 138.879 529.401 138.304 529.872 137.713L529.45 137.373C528.99 137.951 528.498 138.512 527.973 139.054C527.449 139.596 526.904 140.105 526.342 140.584L526.691 140.999Z" fill="url(#paint87_linear_476_18731)"/>
<path d="M532.358 133.869C533.064 132.497 533.626 131.07 534.044 129.611L533.524 129.46C533.116 130.886 532.567 132.28 531.877 133.619L532.358 133.869Z" fill="url(#paint88_linear_476_18731)"/>
<path d="M534.869 125.103C534.996 123.577 534.975 122.041 534.806 120.519L534.268 120.58C534.434 122.066 534.454 123.567 534.329 125.057L534.869 125.103Z" fill="url(#paint89_linear_476_18731)"/>
<path d="M533.859 116.036C533.402 114.589 532.801 113.177 532.058 111.825L531.584 112.088C532.31 113.409 532.897 114.787 533.343 116.2L533.859 116.036Z" fill="url(#paint90_linear_476_18731)"/>
<path fill-rule="evenodd" clip-rule="evenodd" d="M15.4187 142.572C23.9342 142.572 30.8374 135.635 30.8374 127.077C30.8374 118.519 23.9342 111.582 15.4187 111.582C6.90319 111.582 0 118.519 0 127.077C0 135.635 6.90319 142.572 15.4187 142.572ZM15.4187 142.029C23.6354 142.029 30.2964 135.335 30.2964 127.077C30.2964 118.82 23.6354 112.126 15.4187 112.126C7.20198 112.126 0.541007 118.82 0.541007 127.077C0.541007 135.335 7.20198 142.029 15.4187 142.029Z" fill="url(#paint91_linear_476_18731)"/>
<path d="M522.242 90.8925L520.639 95.0107L520.135 94.8127L521.738 90.6944L522.242 90.8925Z" fill="url(#paint92_linear_476_18731)"/>
<path d="M525.449 82.6559L523.845 86.7742L523.342 86.5761L524.945 82.4579L525.449 82.6559Z" fill="url(#paint93_linear_476_18731)"/>
<path d="M528.655 74.4194L527.052 78.5377L526.548 78.3396L528.151 74.2213L528.655 74.4194Z" fill="url(#paint94_linear_476_18731)"/>
<path d="M531.861 66.1829L530.258 70.3011L529.754 70.1031L531.357 65.9848L531.861 66.1829Z" fill="url(#paint95_linear_476_18731)"/>
<path d="M535.068 57.9463L533.464 62.0646L532.961 61.8665L534.564 57.7482L535.068 57.9463Z" fill="url(#paint96_linear_476_18731)"/>
<path d="M538.274 49.7098L536.671 53.8281L536.167 53.63L537.77 49.5117L538.274 49.7098Z" fill="url(#paint97_linear_476_18731)"/>
<path d="M541.48 41.4732L539.877 45.5915L539.373 45.3934L540.977 41.2752L541.48 41.4732Z" fill="url(#paint98_linear_476_18731)"/>
<path d="M544.687 33.2367L543.084 37.355L542.58 37.1569L544.183 33.0386L544.687 33.2367Z" fill="url(#paint99_linear_476_18731)"/>
<path d="M547.893 25.0002L546.29 29.1184L545.786 28.9204L547.389 24.8021L547.893 25.0002Z" fill="url(#paint100_linear_476_18731)"/>
<path d="M551.1 16.7636L549.496 20.8819L548.993 20.6838L550.596 16.5656L551.1 16.7636Z" fill="url(#paint101_linear_476_18731)"/>
<path d="M554.306 8.5271L552.703 12.6454L552.199 12.4473L553.802 8.32903L554.306 8.5271Z" fill="url(#paint102_linear_476_18731)"/>
<path d="M557.512 0.290565L555.909 4.40884L555.405 4.21075L557.009 0.0924759L557.512 0.290565Z" fill="url(#paint103_linear_476_18731)"/>
<path d="M560.719 -7.94597L559.116 -3.82771L558.612 -4.02579L560.215 -8.14406L560.719 -7.94597Z" fill="url(#paint104_linear_476_18731)"/>
<path d="M563.925 -16.1825L562.322 -12.0642L561.818 -12.2623L563.421 -16.3806L563.925 -16.1825Z" fill="url(#paint105_linear_476_18731)"/>
<path d="M567.131 -24.4191L565.528 -20.3008L565.024 -20.4989L566.628 -24.6171L567.131 -24.4191Z" fill="url(#paint106_linear_476_18731)"/>
<path d="M570.338 -32.6556L568.735 -28.5373L568.231 -28.7354L569.834 -32.8537L570.338 -32.6556Z" fill="url(#paint107_linear_476_18731)"/>
<path d="M573.544 -40.8921L571.941 -36.7739L571.437 -36.9719L573.04 -41.0902L573.544 -40.8921Z" fill="url(#paint108_linear_476_18731)"/>
<path d="M576.751 -49.1287L575.147 -45.0104L574.644 -45.2085L576.247 -49.3268L576.751 -49.1287Z" fill="url(#paint109_linear_476_18731)"/>
<path d="M579.957 -57.3652L578.354 -53.2469L577.85 -53.445L579.453 -57.5633L579.957 -57.3652Z" fill="url(#paint110_linear_476_18731)"/>
<path d="M583.163 -65.6017L581.56 -61.4835L581.056 -61.6816L582.66 -65.7998L583.163 -65.6017Z" fill="url(#paint111_linear_476_18731)"/>
<path d="M586.37 -73.8383L584.767 -69.72L584.263 -69.9181L585.866 -74.0364L586.37 -73.8383Z" fill="url(#paint112_linear_476_18731)"/>
<path d="M589.576 -82.0748L587.973 -77.9566L587.469 -78.1546L589.072 -82.2729L589.576 -82.0748Z" fill="url(#paint113_linear_476_18731)"/>
<path d="M592.783 -90.3114L591.179 -86.1931L590.675 -86.3912L592.279 -90.5094L592.783 -90.3114Z" fill="url(#paint114_linear_476_18731)"/>
<path d="M595.989 -98.5479L594.386 -94.4296L593.882 -94.6277L595.485 -98.746L595.989 -98.5479Z" fill="url(#paint115_linear_476_18731)"/>
<path d="M599.195 -106.784L597.592 -102.666L597.088 -102.864L598.691 -106.983L599.195 -106.784Z" fill="url(#paint116_linear_476_18731)"/>
<path d="M324.234 146.709C324.887 147.349 325.464 148.038 325.963 148.765L325.518 149.074C325.038 148.376 324.485 147.714 323.856 147.099C323.228 146.485 322.554 145.946 321.847 145.484L322.141 145.028C322.878 145.51 323.58 146.07 324.234 146.709Z" fill="url(#paint117_linear_476_18731)"/>
<path d="M328.069 153.686C328.441 155.448 328.466 157.271 328.142 159.043L327.61 158.945C327.921 157.243 327.897 155.492 327.54 153.799L328.069 153.686Z" fill="url(#paint118_linear_476_18731)"/>
<path d="M326.171 164.02C325.692 164.761 325.134 165.465 324.498 166.122C323.862 166.78 323.176 167.359 322.452 167.861L322.145 167.413C322.84 166.931 323.499 166.375 324.11 165.743C324.722 165.112 325.257 164.435 325.717 163.724L326.171 164.02Z" fill="url(#paint119_linear_476_18731)"/>
<path d="M317.556 169.977C315.802 170.351 313.989 170.376 312.225 170.05L312.323 169.515C314.017 169.828 315.759 169.804 317.444 169.445L317.556 169.977Z" fill="url(#paint120_linear_476_18731)"/>
<path d="M305.181 166.388C305.835 167.028 306.536 167.588 307.273 168.069L307.568 167.614C306.86 167.151 306.187 166.613 305.558 165.999C304.93 165.384 304.376 164.722 303.897 164.024L303.451 164.333C303.95 165.06 304.527 165.749 305.181 166.388Z" fill="url(#paint121_linear_476_18731)"/>
<path d="M301.345 159.412C300.973 157.649 300.948 155.827 301.272 154.055L301.805 154.153C301.493 155.855 301.517 157.606 301.875 159.299L301.345 159.412Z" fill="url(#paint122_linear_476_18731)"/>
<path d="M303.243 149.078C303.723 148.337 304.28 147.632 304.916 146.975C305.553 146.318 306.238 145.739 306.962 145.237L307.269 145.685C306.574 146.166 305.916 146.723 305.304 147.354C304.693 147.986 304.157 148.663 303.697 149.374L303.243 149.078Z" fill="url(#paint123_linear_476_18731)"/>
<path d="M311.858 143.121C313.612 142.747 315.426 142.722 317.189 143.048L317.091 143.582C315.398 143.269 313.655 143.293 311.971 143.653L311.858 143.121Z" fill="url(#paint124_linear_476_18731)"/>
<defs>
<linearGradient id="paint0_linear_476_18731" x1="573.468" y1="190.417" x2="648.819" y2="-48.4607" gradientUnits="userSpaceOnUse">
<stop stop-color="#0745F9" stop-opacity="0.42"/>
<stop offset="1" stop-color="#00FFFF"/>
</linearGradient>
<linearGradient id="paint1_linear_476_18731" x1="573.468" y1="190.417" x2="648.819" y2="-48.4607" gradientUnits="userSpaceOnUse">
<stop stop-color="#0745F9" stop-opacity="0.42"/>
<stop offset="1" stop-color="#00FFFF"/>
</linearGradient>
<linearGradient id="paint2_linear_476_18731" x1="573.468" y1="190.417" x2="648.819" y2="-48.4607" gradientUnits="userSpaceOnUse">
<stop stop-color="#0745F9" stop-opacity="0.42"/>
<stop offset="1" stop-color="#00FFFF"/>
</linearGradient>
<linearGradient id="paint3_linear_476_18731" x1="573.468" y1="190.417" x2="648.819" y2="-48.4607" gradientUnits="userSpaceOnUse">
<stop stop-color="#0745F9" stop-opacity="0.42"/>
<stop offset="1" stop-color="#00FFFF"/>
</linearGradient>
<linearGradient id="paint4_linear_476_18731" x1="573.468" y1="190.417" x2="648.819" y2="-48.4607" gradientUnits="userSpaceOnUse">
<stop stop-color="#0745F9" stop-opacity="0.42"/>
<stop offset="1" stop-color="#00FFFF"/>
</linearGradient>
<linearGradient id="paint5_linear_476_18731" x1="573.468" y1="190.417" x2="648.819" y2="-48.4607" gradientUnits="userSpaceOnUse">
<stop stop-color="#0745F9" stop-opacity="0.42"/>
<stop offset="1" stop-color="#00FFFF"/>
</linearGradient>
<linearGradient id="paint6_linear_476_18731" x1="573.468" y1="190.417" x2="648.819" y2="-48.4607" gradientUnits="userSpaceOnUse">
<stop stop-color="#0745F9" stop-opacity="0.42"/>
<stop offset="1" stop-color="#00FFFF"/>
</linearGradient>
<linearGradient id="paint7_linear_476_18731" x1="573.468" y1="190.417" x2="648.819" y2="-48.4607" gradientUnits="userSpaceOnUse">
<stop stop-color="#0745F9" stop-opacity="0.42"/>
<stop offset="1" stop-color="#00FFFF"/>
</linearGradient>
<linearGradient id="paint8_linear_476_18731" x1="573.468" y1="190.417" x2="648.819" y2="-48.4607" gradientUnits="userSpaceOnUse">
<stop stop-color="#0745F9" stop-opacity="0.42"/>
<stop offset="1" stop-color="#00FFFF"/>
</linearGradient>
<linearGradient id="paint9_linear_476_18731" x1="573.468" y1="190.417" x2="648.819" y2="-48.4607" gradientUnits="userSpaceOnUse">
<stop stop-color="#0745F9" stop-opacity="0.42"/>
<stop offset="1" stop-color="#00FFFF"/>
</linearGradient>
<linearGradient id="paint10_linear_476_18731" x1="573.468" y1="190.417" x2="648.819" y2="-48.4607" gradientUnits="userSpaceOnUse">
<stop stop-color="#0745F9" stop-opacity="0.42"/>
<stop offset="1" stop-color="#00FFFF"/>
</linearGradient>
<linearGradient id="paint11_linear_476_18731" x1="573.468" y1="190.417" x2="648.819" y2="-48.4607" gradientUnits="userSpaceOnUse">
<stop stop-color="#0745F9" stop-opacity="0.42"/>
<stop offset="1" stop-color="#00FFFF"/>
</linearGradient>
<linearGradient id="paint12_linear_476_18731" x1="573.468" y1="190.417" x2="648.819" y2="-48.4607" gradientUnits="userSpaceOnUse">
<stop stop-color="#0745F9" stop-opacity="0.42"/>
<stop offset="1" stop-color="#00FFFF"/>
</linearGradient>
<linearGradient id="paint13_linear_476_18731" x1="573.468" y1="190.417" x2="648.819" y2="-48.4607" gradientUnits="userSpaceOnUse">
<stop stop-color="#0745F9" stop-opacity="0.42"/>
<stop offset="1" stop-color="#00FFFF"/>
</linearGradient>
<linearGradient id="paint14_linear_476_18731" x1="573.468" y1="190.417" x2="648.819" y2="-48.4607" gradientUnits="userSpaceOnUse">
<stop stop-color="#0745F9" stop-opacity="0.42"/>
<stop offset="1" stop-color="#00FFFF"/>
</linearGradient>
<linearGradient id="paint15_linear_476_18731" x1="573.468" y1="190.417" x2="648.819" y2="-48.4607" gradientUnits="userSpaceOnUse">
<stop stop-color="#0745F9" stop-opacity="0.42"/>
<stop offset="1" stop-color="#00FFFF"/>
</linearGradient>
<linearGradient id="paint16_linear_476_18731" x1="573.468" y1="190.417" x2="648.819" y2="-48.4607" gradientUnits="userSpaceOnUse">
<stop stop-color="#0745F9" stop-opacity="0.42"/>
<stop offset="1" stop-color="#00FFFF"/>
</linearGradient>
<linearGradient id="paint17_linear_476_18731" x1="573.468" y1="190.417" x2="648.819" y2="-48.4607" gradientUnits="userSpaceOnUse">
<stop stop-color="#0745F9" stop-opacity="0.42"/>
<stop offset="1" stop-color="#00FFFF"/>
</linearGradient>
<linearGradient id="paint18_linear_476_18731" x1="573.468" y1="190.417" x2="648.819" y2="-48.4607" gradientUnits="userSpaceOnUse">
<stop stop-color="#0745F9" stop-opacity="0.42"/>
<stop offset="1" stop-color="#00FFFF"/>
</linearGradient>
<linearGradient id="paint19_linear_476_18731" x1="573.468" y1="190.417" x2="648.819" y2="-48.4607" gradientUnits="userSpaceOnUse">
<stop stop-color="#0745F9" stop-opacity="0.42"/>
<stop offset="1" stop-color="#00FFFF"/>
</linearGradient>
<linearGradient id="paint20_linear_476_18731" x1="573.468" y1="190.417" x2="648.819" y2="-48.4607" gradientUnits="userSpaceOnUse">
<stop stop-color="#0745F9" stop-opacity="0.42"/>
<stop offset="1" stop-color="#00FFFF"/>
</linearGradient>
<linearGradient id="paint21_linear_476_18731" x1="573.468" y1="190.417" x2="648.819" y2="-48.4607" gradientUnits="userSpaceOnUse">
<stop stop-color="#0745F9" stop-opacity="0.42"/>
<stop offset="1" stop-color="#00FFFF"/>
</linearGradient>
<linearGradient id="paint22_linear_476_18731" x1="573.468" y1="190.417" x2="648.819" y2="-48.4607" gradientUnits="userSpaceOnUse">
<stop stop-color="#0745F9" stop-opacity="0.42"/>
<stop offset="1" stop-color="#00FFFF"/>
</linearGradient>
<linearGradient id="paint23_linear_476_18731" x1="573.468" y1="190.417" x2="648.819" y2="-48.4607" gradientUnits="userSpaceOnUse">
<stop stop-color="#0745F9" stop-opacity="0.42"/>
<stop offset="1" stop-color="#00FFFF"/>
</linearGradient>
<linearGradient id="paint24_linear_476_18731" x1="573.468" y1="190.417" x2="648.819" y2="-48.4607" gradientUnits="userSpaceOnUse">
<stop stop-color="#0745F9" stop-opacity="0.42"/>
<stop offset="1" stop-color="#00FFFF"/>
</linearGradient>
<linearGradient id="paint25_linear_476_18731" x1="573.468" y1="190.417" x2="648.819" y2="-48.4607" gradientUnits="userSpaceOnUse">
<stop stop-color="#0745F9" stop-opacity="0.42"/>
<stop offset="1" stop-color="#00FFFF"/>
</linearGradient>
<linearGradient id="paint26_linear_476_18731" x1="573.468" y1="190.417" x2="648.819" y2="-48.4607" gradientUnits="userSpaceOnUse">
<stop stop-color="#0745F9" stop-opacity="0.42"/>
<stop offset="1" stop-color="#00FFFF"/>
</linearGradient>
<linearGradient id="paint27_linear_476_18731" x1="573.468" y1="190.417" x2="648.819" y2="-48.4607" gradientUnits="userSpaceOnUse">
<stop stop-color="#0745F9" stop-opacity="0.42"/>
<stop offset="1" stop-color="#00FFFF"/>
</linearGradient>
<linearGradient id="paint28_linear_476_18731" x1="573.468" y1="190.417" x2="648.819" y2="-48.4607" gradientUnits="userSpaceOnUse">
<stop stop-color="#0745F9" stop-opacity="0.42"/>
<stop offset="1" stop-color="#00FFFF"/>
</linearGradient>
<linearGradient id="paint29_linear_476_18731" x1="573.468" y1="190.417" x2="648.819" y2="-48.4607" gradientUnits="userSpaceOnUse">
<stop stop-color="#0745F9" stop-opacity="0.42"/>
<stop offset="1" stop-color="#00FFFF"/>
</linearGradient>
<linearGradient id="paint30_linear_476_18731" x1="573.468" y1="190.417" x2="648.819" y2="-48.4607" gradientUnits="userSpaceOnUse">
<stop stop-color="#0745F9" stop-opacity="0.42"/>
<stop offset="1" stop-color="#00FFFF"/>
</linearGradient>
<linearGradient id="paint31_linear_476_18731" x1="573.468" y1="190.417" x2="648.819" y2="-48.4607" gradientUnits="userSpaceOnUse">
<stop stop-color="#0745F9" stop-opacity="0.42"/>
<stop offset="1" stop-color="#00FFFF"/>
</linearGradient>
<linearGradient id="paint32_linear_476_18731" x1="573.468" y1="190.417" x2="648.819" y2="-48.4607" gradientUnits="userSpaceOnUse">
<stop stop-color="#0745F9" stop-opacity="0.42"/>
<stop offset="1" stop-color="#00FFFF"/>
</linearGradient>
<linearGradient id="paint33_linear_476_18731" x1="573.468" y1="190.417" x2="648.819" y2="-48.4607" gradientUnits="userSpaceOnUse">
<stop stop-color="#0745F9" stop-opacity="0.42"/>
<stop offset="1" stop-color="#00FFFF"/>
</linearGradient>
<linearGradient id="paint34_linear_476_18731" x1="573.468" y1="190.417" x2="648.819" y2="-48.4607" gradientUnits="userSpaceOnUse">
<stop stop-color="#0745F9" stop-opacity="0.42"/>
<stop offset="1" stop-color="#00FFFF"/>
</linearGradient>
<linearGradient id="paint35_linear_476_18731" x1="573.468" y1="190.417" x2="648.819" y2="-48.4607" gradientUnits="userSpaceOnUse">
<stop stop-color="#0745F9" stop-opacity="0.42"/>
<stop offset="1" stop-color="#00FFFF"/>
</linearGradient>
<linearGradient id="paint36_linear_476_18731" x1="573.468" y1="190.417" x2="648.819" y2="-48.4607" gradientUnits="userSpaceOnUse">
<stop stop-color="#0745F9" stop-opacity="0.42"/>
<stop offset="1" stop-color="#00FFFF"/>
</linearGradient>
<linearGradient id="paint37_linear_476_18731" x1="573.468" y1="190.417" x2="648.819" y2="-48.4607" gradientUnits="userSpaceOnUse">
<stop stop-color="#0745F9" stop-opacity="0.42"/>
<stop offset="1" stop-color="#00FFFF"/>
</linearGradient>
<linearGradient id="paint38_linear_476_18731" x1="573.468" y1="190.417" x2="648.819" y2="-48.4607" gradientUnits="userSpaceOnUse">
<stop stop-color="#0745F9" stop-opacity="0.42"/>
<stop offset="1" stop-color="#00FFFF"/>
</linearGradient>
<linearGradient id="paint39_linear_476_18731" x1="573.468" y1="190.417" x2="648.819" y2="-48.4607" gradientUnits="userSpaceOnUse">
<stop stop-color="#0745F9" stop-opacity="0.42"/>
<stop offset="1" stop-color="#00FFFF"/>
</linearGradient>
<linearGradient id="paint40_linear_476_18731" x1="573.468" y1="190.417" x2="648.819" y2="-48.4607" gradientUnits="userSpaceOnUse">
<stop stop-color="#0745F9" stop-opacity="0.42"/>
<stop offset="1" stop-color="#00FFFF"/>
</linearGradient>
<linearGradient id="paint41_linear_476_18731" x1="573.468" y1="190.417" x2="648.819" y2="-48.4607" gradientUnits="userSpaceOnUse">
<stop stop-color="#0745F9" stop-opacity="0.42"/>
<stop offset="1" stop-color="#00FFFF"/>
</linearGradient>
<linearGradient id="paint42_linear_476_18731" x1="573.468" y1="190.417" x2="648.819" y2="-48.4607" gradientUnits="userSpaceOnUse">
<stop stop-color="#0745F9" stop-opacity="0.42"/>
<stop offset="1" stop-color="#00FFFF"/>
</linearGradient>
<linearGradient id="paint43_linear_476_18731" x1="573.468" y1="190.417" x2="648.819" y2="-48.4607" gradientUnits="userSpaceOnUse">
<stop stop-color="#0745F9" stop-opacity="0.42"/>
<stop offset="1" stop-color="#00FFFF"/>
</linearGradient>
<linearGradient id="paint44_linear_476_18731" x1="573.468" y1="190.417" x2="648.819" y2="-48.4607" gradientUnits="userSpaceOnUse">
<stop stop-color="#0745F9" stop-opacity="0.42"/>
<stop offset="1" stop-color="#00FFFF"/>
</linearGradient>
<linearGradient id="paint45_linear_476_18731" x1="573.468" y1="190.417" x2="648.819" y2="-48.4607" gradientUnits="userSpaceOnUse">
<stop stop-color="#0745F9" stop-opacity="0.42"/>
<stop offset="1" stop-color="#00FFFF"/>
</linearGradient>
<linearGradient id="paint46_linear_476_18731" x1="573.468" y1="190.417" x2="648.819" y2="-48.4607" gradientUnits="userSpaceOnUse">
<stop stop-color="#0745F9" stop-opacity="0.42"/>
<stop offset="1" stop-color="#00FFFF"/>
</linearGradient>
<linearGradient id="paint47_linear_476_18731" x1="573.468" y1="190.417" x2="648.819" y2="-48.4607" gradientUnits="userSpaceOnUse">
<stop stop-color="#0745F9" stop-opacity="0.42"/>
<stop offset="1" stop-color="#00FFFF"/>
</linearGradient>
<linearGradient id="paint48_linear_476_18731" x1="573.468" y1="190.417" x2="648.819" y2="-48.4607" gradientUnits="userSpaceOnUse">
<stop stop-color="#0745F9" stop-opacity="0.42"/>
<stop offset="1" stop-color="#00FFFF"/>
</linearGradient>
<linearGradient id="paint49_linear_476_18731" x1="573.468" y1="190.417" x2="648.819" y2="-48.4607" gradientUnits="userSpaceOnUse">
<stop stop-color="#0745F9" stop-opacity="0.42"/>
<stop offset="1" stop-color="#00FFFF"/>
</linearGradient>
<linearGradient id="paint50_linear_476_18731" x1="573.468" y1="190.417" x2="648.819" y2="-48.4607" gradientUnits="userSpaceOnUse">
<stop stop-color="#0745F9" stop-opacity="0.42"/>
<stop offset="1" stop-color="#00FFFF"/>
</linearGradient>
<linearGradient id="paint51_linear_476_18731" x1="573.468" y1="190.417" x2="648.819" y2="-48.4607" gradientUnits="userSpaceOnUse">
<stop stop-color="#0745F9" stop-opacity="0.42"/>
<stop offset="1" stop-color="#00FFFF"/>
</linearGradient>
<linearGradient id="paint52_linear_476_18731" x1="573.468" y1="190.417" x2="648.819" y2="-48.4607" gradientUnits="userSpaceOnUse">
<stop stop-color="#0745F9" stop-opacity="0.42"/>
<stop offset="1" stop-color="#00FFFF"/>
</linearGradient>
<linearGradient id="paint53_linear_476_18731" x1="573.468" y1="190.417" x2="648.819" y2="-48.4607" gradientUnits="userSpaceOnUse">
<stop stop-color="#0745F9" stop-opacity="0.42"/>
<stop offset="1" stop-color="#00FFFF"/>
</linearGradient>
<linearGradient id="paint54_linear_476_18731" x1="573.468" y1="190.417" x2="648.819" y2="-48.4607" gradientUnits="userSpaceOnUse">
<stop stop-color="#0745F9" stop-opacity="0.42"/>
<stop offset="1" stop-color="#00FFFF"/>
</linearGradient>
<linearGradient id="paint55_linear_476_18731" x1="573.468" y1="190.417" x2="648.819" y2="-48.4607" gradientUnits="userSpaceOnUse">
<stop stop-color="#0745F9" stop-opacity="0.42"/>
<stop offset="1" stop-color="#00FFFF"/>
</linearGradient>
<linearGradient id="paint56_linear_476_18731" x1="573.468" y1="190.417" x2="648.819" y2="-48.4607" gradientUnits="userSpaceOnUse">
<stop stop-color="#0745F9" stop-opacity="0.42"/>
<stop offset="1" stop-color="#00FFFF"/>
</linearGradient>
<linearGradient id="paint57_linear_476_18731" x1="573.468" y1="190.417" x2="648.819" y2="-48.4607" gradientUnits="userSpaceOnUse">
<stop stop-color="#0745F9" stop-opacity="0.42"/>
<stop offset="1" stop-color="#00FFFF"/>
</linearGradient>
<linearGradient id="paint58_linear_476_18731" x1="573.468" y1="190.417" x2="648.819" y2="-48.4607" gradientUnits="userSpaceOnUse">
<stop stop-color="#0745F9" stop-opacity="0.42"/>
<stop offset="1" stop-color="#00FFFF"/>
</linearGradient>
<linearGradient id="paint59_linear_476_18731" x1="573.468" y1="190.417" x2="648.819" y2="-48.4607" gradientUnits="userSpaceOnUse">
<stop stop-color="#0745F9" stop-opacity="0.42"/>
<stop offset="1" stop-color="#00FFFF"/>
</linearGradient>
<linearGradient id="paint60_linear_476_18731" x1="573.468" y1="190.417" x2="648.819" y2="-48.4607" gradientUnits="userSpaceOnUse">
<stop stop-color="#0745F9" stop-opacity="0.42"/>
<stop offset="1" stop-color="#00FFFF"/>
</linearGradient>
<linearGradient id="paint61_linear_476_18731" x1="573.468" y1="190.417" x2="648.819" y2="-48.4607" gradientUnits="userSpaceOnUse">
<stop stop-color="#0745F9" stop-opacity="0.42"/>
<stop offset="1" stop-color="#00FFFF"/>
</linearGradient>
<linearGradient id="paint62_linear_476_18731" x1="573.468" y1="190.417" x2="648.819" y2="-48.4607" gradientUnits="userSpaceOnUse">
<stop stop-color="#0745F9" stop-opacity="0.42"/>
<stop offset="1" stop-color="#00FFFF"/>
</linearGradient>
<linearGradient id="paint63_linear_476_18731" x1="573.468" y1="190.417" x2="648.819" y2="-48.4607" gradientUnits="userSpaceOnUse">
<stop stop-color="#0745F9" stop-opacity="0.42"/>
<stop offset="1" stop-color="#00FFFF"/>
</linearGradient>
<linearGradient id="paint64_linear_476_18731" x1="573.468" y1="190.417" x2="648.819" y2="-48.4607" gradientUnits="userSpaceOnUse">
<stop stop-color="#0745F9" stop-opacity="0.42"/>
<stop offset="1" stop-color="#00FFFF"/>
</linearGradient>
<linearGradient id="paint65_linear_476_18731" x1="573.468" y1="190.417" x2="648.819" y2="-48.4607" gradientUnits="userSpaceOnUse">
<stop stop-color="#0745F9" stop-opacity="0.42"/>
<stop offset="1" stop-color="#00FFFF"/>
</linearGradient>
<linearGradient id="paint66_linear_476_18731" x1="573.468" y1="190.417" x2="648.819" y2="-48.4607" gradientUnits="userSpaceOnUse">
<stop stop-color="#0745F9" stop-opacity="0.42"/>
<stop offset="1" stop-color="#00FFFF"/>
</linearGradient>
<linearGradient id="paint67_linear_476_18731" x1="573.468" y1="190.417" x2="648.819" y2="-48.4607" gradientUnits="userSpaceOnUse">
<stop stop-color="#0745F9" stop-opacity="0.42"/>
<stop offset="1" stop-color="#00FFFF"/>
</linearGradient>
<linearGradient id="paint68_linear_476_18731" x1="573.468" y1="190.417" x2="648.819" y2="-48.4607" gradientUnits="userSpaceOnUse">
<stop stop-color="#0745F9" stop-opacity="0.42"/>
<stop offset="1" stop-color="#00FFFF"/>
</linearGradient>
<linearGradient id="paint69_linear_476_18731" x1="573.468" y1="190.417" x2="648.819" y2="-48.4607" gradientUnits="userSpaceOnUse">
<stop stop-color="#0745F9" stop-opacity="0.42"/>
<stop offset="1" stop-color="#00FFFF"/>
</linearGradient>
<linearGradient id="paint70_linear_476_18731" x1="573.468" y1="190.417" x2="648.819" y2="-48.4607" gradientUnits="userSpaceOnUse">
<stop stop-color="#0745F9" stop-opacity="0.42"/>
<stop offset="1" stop-color="#00FFFF"/>
</linearGradient>
<linearGradient id="paint71_linear_476_18731" x1="573.468" y1="190.417" x2="648.819" y2="-48.4607" gradientUnits="userSpaceOnUse">
<stop stop-color="#0745F9" stop-opacity="0.42"/>
<stop offset="1" stop-color="#00FFFF"/>
</linearGradient>
<linearGradient id="paint72_linear_476_18731" x1="573.468" y1="190.417" x2="648.819" y2="-48.4607" gradientUnits="userSpaceOnUse">
<stop stop-color="#0745F9" stop-opacity="0.42"/>
<stop offset="1" stop-color="#00FFFF"/>
</linearGradient>
<linearGradient id="paint73_linear_476_18731" x1="573.468" y1="190.417" x2="648.819" y2="-48.4607" gradientUnits="userSpaceOnUse">
<stop stop-color="#0745F9" stop-opacity="0.42"/>
<stop offset="1" stop-color="#00FFFF"/>
</linearGradient>
<linearGradient id="paint74_linear_476_18731" x1="573.468" y1="190.417" x2="648.819" y2="-48.4607" gradientUnits="userSpaceOnUse">
<stop stop-color="#0745F9" stop-opacity="0.42"/>
<stop offset="1" stop-color="#00FFFF"/>
</linearGradient>
<linearGradient id="paint75_linear_476_18731" x1="573.468" y1="190.417" x2="648.819" y2="-48.4607" gradientUnits="userSpaceOnUse">
<stop stop-color="#0745F9" stop-opacity="0.42"/>
<stop offset="1" stop-color="#00FFFF"/>
</linearGradient>
<linearGradient id="paint76_linear_476_18731" x1="573.468" y1="190.417" x2="648.819" y2="-48.4607" gradientUnits="userSpaceOnUse">
<stop stop-color="#0745F9" stop-opacity="0.42"/>
<stop offset="1" stop-color="#00FFFF"/>
</linearGradient>
<linearGradient id="paint77_linear_476_18731" x1="573.468" y1="190.417" x2="648.819" y2="-48.4607" gradientUnits="userSpaceOnUse">
<stop stop-color="#0745F9" stop-opacity="0.42"/>
<stop offset="1" stop-color="#00FFFF"/>
</linearGradient>
<linearGradient id="paint78_linear_476_18731" x1="573.468" y1="190.417" x2="648.819" y2="-48.4607" gradientUnits="userSpaceOnUse">
<stop stop-color="#0745F9" stop-opacity="0.42"/>
<stop offset="1" stop-color="#00FFFF"/>
</linearGradient>
<linearGradient id="paint79_linear_476_18731" x1="573.468" y1="190.417" x2="648.819" y2="-48.4607" gradientUnits="userSpaceOnUse">
<stop stop-color="#0745F9" stop-opacity="0.42"/>
<stop offset="1" stop-color="#00FFFF"/>
</linearGradient>
<linearGradient id="paint80_linear_476_18731" x1="573.468" y1="190.417" x2="648.819" y2="-48.4607" gradientUnits="userSpaceOnUse">
<stop stop-color="#0745F9" stop-opacity="0.42"/>
<stop offset="1" stop-color="#00FFFF"/>
</linearGradient>
<linearGradient id="paint81_linear_476_18731" x1="573.468" y1="190.417" x2="648.819" y2="-48.4607" gradientUnits="userSpaceOnUse">
<stop stop-color="#0745F9" stop-opacity="0.42"/>
<stop offset="1" stop-color="#00FFFF"/>
</linearGradient>
<linearGradient id="paint82_linear_476_18731" x1="573.468" y1="190.417" x2="648.819" y2="-48.4607" gradientUnits="userSpaceOnUse">
<stop stop-color="#0745F9" stop-opacity="0.42"/>
<stop offset="1" stop-color="#00FFFF"/>
</linearGradient>
<linearGradient id="paint83_linear_476_18731" x1="573.468" y1="190.417" x2="648.819" y2="-48.4607" gradientUnits="userSpaceOnUse">
<stop stop-color="#0745F9" stop-opacity="0.42"/>
<stop offset="1" stop-color="#00FFFF"/>
</linearGradient>
<linearGradient id="paint84_linear_476_18731" x1="573.468" y1="190.417" x2="648.819" y2="-48.4607" gradientUnits="userSpaceOnUse">
<stop stop-color="#0745F9" stop-opacity="0.42"/>
<stop offset="1" stop-color="#00FFFF"/>
</linearGradient>
<linearGradient id="paint85_linear_476_18731" x1="573.468" y1="190.417" x2="648.819" y2="-48.4607" gradientUnits="userSpaceOnUse">
<stop stop-color="#0745F9" stop-opacity="0.42"/>
<stop offset="1" stop-color="#00FFFF"/>
</linearGradient>
<linearGradient id="paint86_linear_476_18731" x1="573.468" y1="190.417" x2="648.819" y2="-48.4607" gradientUnits="userSpaceOnUse">
<stop stop-color="#0745F9" stop-opacity="0.42"/>
<stop offset="1" stop-color="#00FFFF"/>
</linearGradient>
<linearGradient id="paint87_linear_476_18731" x1="573.468" y1="190.417" x2="648.819" y2="-48.4607" gradientUnits="userSpaceOnUse">
<stop stop-color="#0745F9" stop-opacity="0.42"/>
<stop offset="1" stop-color="#00FFFF"/>
</linearGradient>
<linearGradient id="paint88_linear_476_18731" x1="573.468" y1="190.417" x2="648.819" y2="-48.4607" gradientUnits="userSpaceOnUse">
<stop stop-color="#0745F9" stop-opacity="0.42"/>
<stop offset="1" stop-color="#00FFFF"/>
</linearGradient>
<linearGradient id="paint89_linear_476_18731" x1="573.468" y1="190.417" x2="648.819" y2="-48.4607" gradientUnits="userSpaceOnUse">
<stop stop-color="#0745F9" stop-opacity="0.42"/>
<stop offset="1" stop-color="#00FFFF"/>
</linearGradient>
<linearGradient id="paint90_linear_476_18731" x1="573.468" y1="190.417" x2="648.819" y2="-48.4607" gradientUnits="userSpaceOnUse">
<stop stop-color="#0745F9" stop-opacity="0.42"/>
<stop offset="1" stop-color="#00FFFF"/>
</linearGradient>
<linearGradient id="paint91_linear_476_18731" x1="573.468" y1="190.417" x2="648.819" y2="-48.4607" gradientUnits="userSpaceOnUse">
<stop stop-color="#0745F9" stop-opacity="0.42"/>
<stop offset="1" stop-color="#00FFFF"/>
</linearGradient>
<linearGradient id="paint92_linear_476_18731" x1="573.468" y1="190.417" x2="648.819" y2="-48.4607" gradientUnits="userSpaceOnUse">
<stop stop-color="#0745F9" stop-opacity="0.42"/>
<stop offset="1" stop-color="#00FFFF"/>
</linearGradient>
<linearGradient id="paint93_linear_476_18731" x1="573.468" y1="190.417" x2="648.819" y2="-48.4607" gradientUnits="userSpaceOnUse">
<stop stop-color="#0745F9" stop-opacity="0.42"/>
<stop offset="1" stop-color="#00FFFF"/>
</linearGradient>
<linearGradient id="paint94_linear_476_18731" x1="573.468" y1="190.417" x2="648.819" y2="-48.4607" gradientUnits="userSpaceOnUse">
<stop stop-color="#0745F9" stop-opacity="0.42"/>
<stop offset="1" stop-color="#00FFFF"/>
</linearGradient>
<linearGradient id="paint95_linear_476_18731" x1="573.468" y1="190.417" x2="648.819" y2="-48.4607" gradientUnits="userSpaceOnUse">
<stop stop-color="#0745F9" stop-opacity="0.42"/>
<stop offset="1" stop-color="#00FFFF"/>
</linearGradient>
<linearGradient id="paint96_linear_476_18731" x1="573.468" y1="190.417" x2="648.819" y2="-48.4607" gradientUnits="userSpaceOnUse">
<stop stop-color="#0745F9" stop-opacity="0.42"/>
<stop offset="1" stop-color="#00FFFF"/>
</linearGradient>
<linearGradient id="paint97_linear_476_18731" x1="573.468" y1="190.417" x2="648.819" y2="-48.4607" gradientUnits="userSpaceOnUse">
<stop stop-color="#0745F9" stop-opacity="0.42"/>
<stop offset="1" stop-color="#00FFFF"/>
</linearGradient>
<linearGradient id="paint98_linear_476_18731" x1="573.468" y1="190.417" x2="648.819" y2="-48.4607" gradientUnits="userSpaceOnUse">
<stop stop-color="#0745F9" stop-opacity="0.42"/>
<stop offset="1" stop-color="#00FFFF"/>
</linearGradient>
<linearGradient id="paint99_linear_476_18731" x1="573.468" y1="190.417" x2="648.819" y2="-48.4607" gradientUnits="userSpaceOnUse">
<stop stop-color="#0745F9" stop-opacity="0.42"/>
<stop offset="1" stop-color="#00FFFF"/>
</linearGradient>
<linearGradient id="paint100_linear_476_18731" x1="573.468" y1="190.417" x2="648.819" y2="-48.4607" gradientUnits="userSpaceOnUse">
<stop stop-color="#0745F9" stop-opacity="0.42"/>
<stop offset="1" stop-color="#00FFFF"/>
</linearGradient>
<linearGradient id="paint101_linear_476_18731" x1="573.468" y1="190.417" x2="648.819" y2="-48.4607" gradientUnits="userSpaceOnUse">
<stop stop-color="#0745F9" stop-opacity="0.42"/>
<stop offset="1" stop-color="#00FFFF"/>
</linearGradient>
<linearGradient id="paint102_linear_476_18731" x1="573.468" y1="190.417" x2="648.819" y2="-48.4607" gradientUnits="userSpaceOnUse">
<stop stop-color="#0745F9" stop-opacity="0.42"/>
<stop offset="1" stop-color="#00FFFF"/>
</linearGradient>
<linearGradient id="paint103_linear_476_18731" x1="573.468" y1="190.417" x2="648.819" y2="-48.4607" gradientUnits="userSpaceOnUse">
<stop stop-color="#0745F9" stop-opacity="0.42"/>
<stop offset="1" stop-color="#00FFFF"/>
</linearGradient>
<linearGradient id="paint104_linear_476_18731" x1="573.468" y1="190.417" x2="648.819" y2="-48.4607" gradientUnits="userSpaceOnUse">
<stop stop-color="#0745F9" stop-opacity="0.42"/>
<stop offset="1" stop-color="#00FFFF"/>
</linearGradient>
<linearGradient id="paint105_linear_476_18731" x1="573.468" y1="190.417" x2="648.819" y2="-48.4607" gradientUnits="userSpaceOnUse">
<stop stop-color="#0745F9" stop-opacity="0.42"/>
<stop offset="1" stop-color="#00FFFF"/>
</linearGradient>
<linearGradient id="paint106_linear_476_18731" x1="573.468" y1="190.417" x2="648.819" y2="-48.4607" gradientUnits="userSpaceOnUse">
<stop stop-color="#0745F9" stop-opacity="0.42"/>
<stop offset="1" stop-color="#00FFFF"/>
</linearGradient>
<linearGradient id="paint107_linear_476_18731" x1="573.468" y1="190.417" x2="648.819" y2="-48.4607" gradientUnits="userSpaceOnUse">
<stop stop-color="#0745F9" stop-opacity="0.42"/>
<stop offset="1" stop-color="#00FFFF"/>
</linearGradient>
<linearGradient id="paint108_linear_476_18731" x1="573.468" y1="190.417" x2="648.819" y2="-48.4607" gradientUnits="userSpaceOnUse">
<stop stop-color="#0745F9" stop-opacity="0.42"/>
<stop offset="1" stop-color="#00FFFF"/>
</linearGradient>
<linearGradient id="paint109_linear_476_18731" x1="573.468" y1="190.417" x2="648.819" y2="-48.4607" gradientUnits="userSpaceOnUse">
<stop stop-color="#0745F9" stop-opacity="0.42"/>
<stop offset="1" stop-color="#00FFFF"/>
</linearGradient>
<linearGradient id="paint110_linear_476_18731" x1="573.468" y1="190.417" x2="648.819" y2="-48.4607" gradientUnits="userSpaceOnUse">
<stop stop-color="#0745F9" stop-opacity="0.42"/>
<stop offset="1" stop-color="#00FFFF"/>
</linearGradient>
<linearGradient id="paint111_linear_476_18731" x1="573.468" y1="190.417" x2="648.819" y2="-48.4607" gradientUnits="userSpaceOnUse">
<stop stop-color="#0745F9" stop-opacity="0.42"/>
<stop offset="1" stop-color="#00FFFF"/>
</linearGradient>
<linearGradient id="paint112_linear_476_18731" x1="573.468" y1="190.417" x2="648.819" y2="-48.4607" gradientUnits="userSpaceOnUse">
<stop stop-color="#0745F9" stop-opacity="0.42"/>
<stop offset="1" stop-color="#00FFFF"/>
</linearGradient>
<linearGradient id="paint113_linear_476_18731" x1="573.468" y1="190.417" x2="648.819" y2="-48.4607" gradientUnits="userSpaceOnUse">
<stop stop-color="#0745F9" stop-opacity="0.42"/>
<stop offset="1" stop-color="#00FFFF"/>
</linearGradient>
<linearGradient id="paint114_linear_476_18731" x1="573.468" y1="190.417" x2="648.819" y2="-48.4607" gradientUnits="userSpaceOnUse">
<stop stop-color="#0745F9" stop-opacity="0.42"/>
<stop offset="1" stop-color="#00FFFF"/>
</linearGradient>
<linearGradient id="paint115_linear_476_18731" x1="573.468" y1="190.417" x2="648.819" y2="-48.4607" gradientUnits="userSpaceOnUse">
<stop stop-color="#0745F9" stop-opacity="0.42"/>
<stop offset="1" stop-color="#00FFFF"/>
</linearGradient>
<linearGradient id="paint116_linear_476_18731" x1="573.468" y1="190.417" x2="648.819" y2="-48.4607" gradientUnits="userSpaceOnUse">
<stop stop-color="#0745F9" stop-opacity="0.42"/>
<stop offset="1" stop-color="#00FFFF"/>
</linearGradient>
<linearGradient id="paint117_linear_476_18731" x1="573.468" y1="190.417" x2="648.819" y2="-48.4607" gradientUnits="userSpaceOnUse">
<stop stop-color="#0745F9" stop-opacity="0.42"/>
<stop offset="1" stop-color="#00FFFF"/>
</linearGradient>
<linearGradient id="paint118_linear_476_18731" x1="573.468" y1="190.417" x2="648.819" y2="-48.4607" gradientUnits="userSpaceOnUse">
<stop stop-color="#0745F9" stop-opacity="0.42"/>
<stop offset="1" stop-color="#00FFFF"/>
</linearGradient>
<linearGradient id="paint119_linear_476_18731" x1="573.468" y1="190.417" x2="648.819" y2="-48.4607" gradientUnits="userSpaceOnUse">
<stop stop-color="#0745F9" stop-opacity="0.42"/>
<stop offset="1" stop-color="#00FFFF"/>
</linearGradient>
<linearGradient id="paint120_linear_476_18731" x1="573.468" y1="190.417" x2="648.819" y2="-48.4607" gradientUnits="userSpaceOnUse">
<stop stop-color="#0745F9" stop-opacity="0.42"/>
<stop offset="1" stop-color="#00FFFF"/>
</linearGradient>
<linearGradient id="paint121_linear_476_18731" x1="573.468" y1="190.417" x2="648.819" y2="-48.4607" gradientUnits="userSpaceOnUse">
<stop stop-color="#0745F9" stop-opacity="0.42"/>
<stop offset="1" stop-color="#00FFFF"/>
</linearGradient>
<linearGradient id="paint122_linear_476_18731" x1="573.468" y1="190.417" x2="648.819" y2="-48.4607" gradientUnits="userSpaceOnUse">
<stop stop-color="#0745F9" stop-opacity="0.42"/>
<stop offset="1" stop-color="#00FFFF"/>
</linearGradient>
<linearGradient id="paint123_linear_476_18731" x1="573.468" y1="190.417" x2="648.819" y2="-48.4607" gradientUnits="userSpaceOnUse">
<stop stop-color="#0745F9" stop-opacity="0.42"/>
<stop offset="1" stop-color="#00FFFF"/>
</linearGradient>
<linearGradient id="paint124_linear_476_18731" x1="573.468" y1="190.417" x2="648.819" y2="-48.4607" gradientUnits="userSpaceOnUse">
<stop stop-color="#0745F9" stop-opacity="0.42"/>
<stop offset="1" stop-color="#00FFFF"/>
</linearGradient>
</defs>
</svg>
