<svg width="288" height="29" viewBox="0 0 288 29" fill="none" xmlns="http://www.w3.org/2000/svg">
<path fill-rule="evenodd" clip-rule="evenodd" d="M18 20.5H0V19.5H18V20.5Z" fill="#828FA1"/>
<path fill-rule="evenodd" clip-rule="evenodd" d="M24.6494 19.5H18V20.5H24.6494C28.5629 20.5 32.3947 19.3798 35.692 17.2717L56.3395 4.07082C59.4759 2.06557 63.1208 1 66.8434 1H74V0H66.8434C62.9299 0 59.0981 1.12022 55.8008 3.2283L35.1533 16.4292C32.0169 18.4344 28.372 19.5 24.6494 19.5Z" fill="#828FA1"/>
<path fill-rule="evenodd" clip-rule="evenodd" d="M214 1H74V0H214V1Z" fill="#828FA1"/>
<path d="M97.5087 18.1172C96.4735 18.1172 95.5458 17.8789 94.7255 17.4023L95.1122 16.1426C95.4794 16.3457 95.8778 16.5098 96.3075 16.6348C96.7411 16.7598 97.163 16.8223 97.5731 16.8223C98.077 16.8223 98.4579 16.7148 98.7157 16.5C98.9735 16.2812 99.1024 15.9688 99.1024 15.5625C99.1024 15.0234 98.743 14.6504 98.0243 14.4434C97.9735 14.4277 97.8309 14.3867 97.5966 14.3203C97.3622 14.25 97.1415 14.1836 96.9345 14.1211C96.7313 14.0547 96.5848 14.0039 96.495 13.9688C95.3427 13.5625 94.7665 12.8047 94.7665 11.6953C94.7665 10.918 95.0419 10.3184 95.5927 9.89648C96.1473 9.47461 96.8817 9.26367 97.7958 9.26367C98.8309 9.26367 99.7235 9.47656 100.474 9.90234L99.993 11.0625C99.2274 10.7188 98.5165 10.5469 97.8602 10.5469C97.3876 10.5469 97.0302 10.6309 96.788 10.7988C96.5497 10.9629 96.4227 11.2383 96.4071 11.625C96.4071 12.1016 96.6434 12.4121 97.1161 12.5566C97.2098 12.5918 97.4403 12.668 97.8075 12.7852C98.1747 12.9023 98.413 12.9785 98.5223 13.0137C99.3075 13.2715 99.868 13.5918 100.204 13.9746C100.544 14.3574 100.714 14.8906 100.714 15.5742C100.714 16.3906 100.425 17.0195 99.8466 17.4609C99.2684 17.8984 98.4891 18.1172 97.5087 18.1172ZM101.61 18L104.768 9.41016H106.496L109.608 18H107.979L107.129 15.5742H104.123L103.268 18H101.61ZM104.522 14.3906H106.725C106.022 12.1367 105.661 10.9727 105.641 10.8984L104.522 14.3906ZM110.943 18V9.41602H116.023L115.965 10.6758H112.519V13.1133H115.795V14.3613H112.519V18H110.943ZM117.892 18V9.41602H123.095L123.031 10.6758H119.48V12.8906H122.855V14.1504H119.48V16.7344H123.16L123.107 18H117.892ZM132.61 18.123C131.301 18.123 130.278 17.7285 129.54 16.9395C128.805 16.1504 128.438 15.0703 128.438 13.6992C128.438 12.8281 128.61 12.0625 128.954 11.4023C129.297 10.7383 129.803 10.2207 130.471 9.84961C131.139 9.47852 131.928 9.29297 132.838 9.29297C133.881 9.29297 134.776 9.51758 135.522 9.9668L135.006 11.1504C134.295 10.7676 133.583 10.5762 132.868 10.5762C132 10.5762 131.319 10.8574 130.823 11.4199C130.327 11.9824 130.079 12.748 130.079 13.7168C130.079 14.6777 130.299 15.4375 130.741 15.9961C131.182 16.5547 131.829 16.834 132.68 16.834C133.227 16.834 133.723 16.748 134.168 16.5762V14.584H132.37L132.381 13.3359H135.663V17.4785C135.131 17.6973 134.627 17.8594 134.151 17.9648C133.678 18.0703 133.165 18.123 132.61 18.123ZM136.904 18L140.062 9.41016H141.791L144.902 18H143.273L142.424 15.5742H139.418L138.562 18H136.904ZM139.816 14.3906H142.02C141.316 12.1367 140.955 10.9727 140.936 10.8984L139.816 14.3906ZM146.238 18V9.41602H148.113L150.709 15.6152L153.322 9.41602H155.173V18H153.709V13.7578L153.755 11.3262L153.539 11.9707L151.341 17.4141H149.982L147.832 11.9414L147.615 11.2969L147.667 13.7812V18H146.238ZM157.511 18V9.41602H160.189C161.325 9.41602 162.173 9.58203 162.731 9.91406C163.29 10.2461 163.569 10.7988 163.569 11.5723C163.569 11.6973 163.562 11.8203 163.546 11.9414C163.53 12.0625 163.495 12.2012 163.44 12.3574C163.386 12.5098 163.314 12.6484 163.224 12.7734C163.134 12.8984 163.009 13.0215 162.849 13.1426C162.689 13.2598 162.501 13.3516 162.286 13.418C162.817 13.5469 163.224 13.7949 163.505 14.1621C163.786 14.5254 163.927 14.9746 163.927 15.5098C163.927 16.3184 163.64 16.9355 163.065 17.3613C162.495 17.7871 161.704 18 160.692 18H157.511ZM159.099 16.8516H160.476C161.694 16.8516 162.304 16.375 162.304 15.4219C162.304 14.9414 162.151 14.5957 161.847 14.3848C161.542 14.1738 161.071 14.0684 160.435 14.0684H159.099V16.8516ZM159.099 12.9609H160.458C161.509 12.9609 162.034 12.5605 162.034 11.7598C162.034 11.3105 161.882 11.002 161.577 10.834C161.276 10.666 160.796 10.582 160.136 10.582H159.099V12.9609ZM165.807 18V9.41602H167.395V16.7344H170.987L170.94 18H165.807ZM172.609 18V9.41602H174.197V18H172.609ZM176.576 18V9.41602H178.263C178.568 9.89258 179.187 10.8535 180.121 12.2988C181.054 13.7441 181.623 14.623 181.826 14.9355C181.884 15.0254 181.984 15.1777 182.125 15.3926C182.269 15.6035 182.371 15.7539 182.429 15.8438C182.402 14.5039 182.388 13.8086 182.388 13.7578V9.41602H183.836V18H182.125L178.252 11.9648L177.97 11.502C178.002 12.5332 178.017 13.2578 178.017 13.6758V18H176.576ZM189.993 18.123C188.685 18.123 187.661 17.7285 186.923 16.9395C186.189 16.1504 185.821 15.0703 185.821 13.6992C185.821 12.8281 185.993 12.0625 186.337 11.4023C186.681 10.7383 187.187 10.2207 187.855 9.84961C188.523 9.47852 189.312 9.29297 190.222 9.29297C191.265 9.29297 192.159 9.51758 192.905 9.9668L192.39 11.1504C191.679 10.7676 190.966 10.5762 190.251 10.5762C189.384 10.5762 188.702 10.8574 188.206 11.4199C187.71 11.9824 187.462 12.748 187.462 13.7168C187.462 14.6777 187.683 15.4375 188.124 15.9961C188.566 16.5547 189.212 16.834 190.064 16.834C190.61 16.834 191.107 16.748 191.552 16.5762V14.584H189.753L189.765 13.3359H193.046V17.4785C192.515 17.6973 192.011 17.8594 191.534 17.9648C191.062 18.0703 190.548 18.123 189.993 18.123Z" fill="#00FFFF"/>
<path fill-rule="evenodd" clip-rule="evenodd" d="M220.649 1H214V0H220.649C224.563 0 228.395 1.12022 231.692 3.2283L252.34 16.4292C255.476 18.4344 259.121 19.5 262.843 19.5H270V20.5H262.843C258.93 20.5 255.098 19.3798 251.801 17.2717L231.153 4.07082C228.017 2.06557 224.372 1 220.649 1Z" fill="#828FA1"/>
<path fill-rule="evenodd" clip-rule="evenodd" d="M288 20.5H270V19.5H288V20.5Z" fill="#828FA1"/>
</svg>
