<svg width="1317" height="411" viewBox="0 0 1317 411" fill="none" xmlns="http://www.w3.org/2000/svg">
<path fill-rule="evenodd" clip-rule="evenodd" d="M550.013 119.587L550.046 119.607C550.289 119.753 550.636 119.831 551.09 119.831H551.54C551.9 119.756 552.122 119.688 552.411 119.515L552.443 119.495L552.478 119.478C552.802 119.316 552.883 119.228 552.919 119.176L553.037 118.998L553.219 118.884L561.105 113.932L561.107 113.93C586.96 97.6014 602.376 69.7597 602.376 39.1927V29.6529C602.376 23.7841 597.595 19.0033 591.726 19.0033C589.431 19.0033 587.608 17.1796 587.608 14.8845C587.608 7.27298 581.451 1.11621 573.839 1.11621H551.641H551.549H550.999H550.907H528.709C521.097 1.11621 514.94 7.27297 514.94 14.8845C514.94 17.1797 513.117 19.0033 510.822 19.0033C504.953 19.0033 500.172 23.7841 500.172 29.6529V39.1927C500.172 69.7621 515.59 97.6943 541.44 113.93L541.442 113.931L549.147 118.793L549.383 118.942L549.508 119.192C549.552 119.28 549.697 119.429 549.978 119.57L550.013 119.587ZM561.639 114.777L553.751 119.731C553.567 120.006 553.292 120.189 552.925 120.373C552.466 120.648 552.099 120.74 551.641 120.831H551.09C550.54 120.831 549.99 120.74 549.531 120.464C549.164 120.281 548.797 120.006 548.614 119.639L540.909 114.777C514.766 98.3577 499.172 70.1053 499.172 39.1927V29.6529C499.172 23.2319 504.401 18.0033 510.822 18.0033C512.564 18.0033 513.94 16.6274 513.94 14.8845C513.94 6.72069 520.545 0.116211 528.709 0.116211H550.907H550.999H551.549H551.641H573.839C582.003 0.116211 588.608 6.72069 588.608 14.8845C588.608 16.6274 589.983 18.0033 591.726 18.0033C598.147 18.0033 603.376 23.2319 603.376 29.6529V39.1927C603.376 70.1053 587.782 98.266 561.639 114.777ZM542.959 82.5285L542.964 82.5364C543.422 83.3208 544.28 83.7831 545.127 83.7831H545.219C546.054 83.7831 546.859 83.3268 547.331 82.6554L577.414 38.3569L577.422 38.3449L577.431 38.3332C578.284 37.1521 577.959 35.4991 576.769 34.7057L576.754 34.6953L576.739 34.6843C575.557 33.8313 573.904 34.1555 573.111 35.3456L573.106 35.3536L546.137 74.9804L545.264 76.2632L544.457 74.9382L535.009 59.437C534.295 58.2679 532.708 57.8447 531.421 58.5825C530.259 59.3003 529.84 60.8833 530.577 62.1668L542.955 82.5207L542.959 82.5285ZM529.717 62.6765L542.1 83.0402C542.742 84.141 543.935 84.7831 545.127 84.7831H545.219C546.411 84.7831 547.512 84.141 548.154 83.2237L578.241 38.9187C579.434 37.2676 578.975 34.9744 577.324 33.8736C575.673 32.6812 573.38 33.1398 572.279 34.7909L545.928 73.5099L545.311 74.4177L544.739 73.4801L535.863 58.9156C534.854 57.2645 532.652 56.7141 530.909 57.7231C529.258 58.7321 528.708 60.9336 529.717 62.6765ZM865.287 177.801H862.144V169.975C862.144 161.847 855.546 155.249 847.418 155.249C839.291 155.249 832.693 161.847 832.693 169.975V177.801H829.55V169.975C829.55 160.104 837.58 152.106 847.418 152.106C857.29 152.106 865.287 160.136 865.287 169.975V177.801ZM866.287 178.453V177.801V169.975C866.287 159.585 857.843 151.106 847.418 151.106C837.029 151.106 828.55 159.55 828.55 169.975V177.801V178.453H826.293C824.729 178.419 823.478 179.704 823.478 181.268V214.661C823.478 216.225 824.729 217.476 826.293 217.476H868.512C870.076 217.476 871.327 216.225 871.327 214.661V181.268C871.327 179.704 870.076 178.453 868.512 178.453H866.287ZM861.144 178.453V177.801V169.975C861.144 162.4 854.994 156.249 847.418 156.249C839.843 156.249 833.693 162.4 833.693 169.975V177.801V178.453H861.144ZM826.271 179.453L826.282 179.453H826.293H868.512C869.524 179.453 870.327 180.257 870.327 181.268V214.661C870.327 215.673 869.524 216.476 868.512 216.476H826.293C825.282 216.476 824.478 215.673 824.478 214.661V181.268C824.478 180.236 825.297 179.432 826.271 179.453ZM842.477 206.202L842.247 207.391H843.459H846.899H847.941H851.381H852.593L852.363 206.202L850.138 194.685C851.46 193.812 852.347 192.292 852.347 190.581C852.347 187.451 849.425 184.959 846.126 185.825C844.409 186.267 843.019 187.701 842.623 189.418L842.623 189.42C842.128 191.589 843.076 193.604 844.702 194.681L842.477 206.202ZM851.347 190.581C851.347 192.179 850.374 193.569 849.018 194.16L851.188 205.391L851.381 206.391H850.363H847.941H846.899H844.477H843.459L843.652 205.391L845.822 194.16C844.188 193.43 843.146 191.623 843.598 189.642C843.91 188.287 845.022 187.141 846.378 186.793C849.018 186.098 851.347 188.079 851.347 190.581ZM1205.78 409.59L1205.75 409.571L1205.71 409.553C1205.25 409.32 1204.92 409.032 1204.78 408.758L1204.66 408.509L1204.42 408.36L1192.83 401.045L1192.82 401.044C1153.78 376.521 1130.49 334.329 1130.49 288.158V273.803C1130.49 264.694 1137.91 257.274 1147.02 257.274C1150.19 257.274 1152.71 254.756 1152.71 251.581C1152.71 239.849 1162.2 230.359 1173.93 230.359H1207.34H1207.47H1208.3H1208.44H1241.84C1253.57 230.359 1263.06 239.849 1263.06 251.581C1263.06 254.756 1265.58 257.274 1268.76 257.274C1277.87 257.274 1285.29 264.694 1285.29 273.803V288.158C1285.29 334.327 1262 376.382 1222.95 401.044L1222.95 401.045L1211.08 408.497L1210.9 408.611L1210.78 408.789C1210.66 408.981 1210.44 409.161 1209.93 409.415L1209.89 409.433L1209.86 409.452C1209.34 409.763 1208.94 409.878 1208.34 410H1207.61C1206.88 410 1206.26 409.875 1205.78 409.59ZM1211.62 409.344L1223.49 401.89C1262.82 377.046 1286.29 334.672 1286.29 288.158V273.803C1286.29 264.142 1278.42 256.274 1268.76 256.274C1266.13 256.274 1264.06 254.204 1264.06 251.581C1264.06 239.297 1254.13 229.359 1241.84 229.359H1208.44H1208.3H1207.47H1207.34H1173.93C1161.65 229.359 1151.71 239.297 1151.71 251.581C1151.71 254.204 1149.64 256.274 1147.02 256.274C1137.36 256.274 1129.49 264.142 1129.49 273.803V288.158C1129.49 334.672 1152.95 377.184 1192.29 401.89L1203.89 409.206C1204.16 409.758 1204.71 410.172 1205.27 410.448C1205.96 410.862 1206.78 411 1207.61 411H1208.44C1209.13 410.862 1209.68 410.724 1210.37 410.31C1210.92 410.034 1211.34 409.758 1211.62 409.344ZM1194.95 353.63L1194.95 353.622L1194.94 353.614L1176.31 322.982C1175.07 320.819 1175.76 318.125 1177.76 316.898C1179.93 315.651 1182.63 316.352 1183.85 318.355L1198.06 341.68L1198.87 343.005L1199.75 341.722L1240.32 282.095L1240.33 282.087C1241.68 280.064 1244.49 279.508 1246.5 280.963L1246.52 280.974L1246.53 280.985C1248.56 282.333 1249.11 285.144 1247.66 287.158L1247.65 287.17L1247.64 287.182L1202.38 353.836L1202.37 353.842C1201.58 354.976 1200.22 355.756 1198.78 355.756H1198.64C1197.19 355.756 1195.73 354.97 1194.95 353.63ZM1194.09 354.134L1175.45 323.492C1173.94 320.87 1174.76 317.557 1177.25 316.039C1179.87 314.521 1183.18 315.349 1184.7 317.833L1198.35 340.222L1198.92 341.159L1199.54 340.252L1239.5 281.533C1241.15 279.048 1244.6 278.358 1247.09 280.152C1249.57 281.809 1250.26 285.259 1248.47 287.744L1203.2 354.41C1202.23 355.79 1200.57 356.756 1198.78 356.756H1198.64C1196.85 356.756 1195.05 355.79 1194.09 354.134ZM404.535 191.223H682.277C690.203 191.314 697.779 194.498 703.393 200.096L745.625 242.346C748.249 245.025 751.381 247.152 754.838 248.603C758.295 250.054 762.007 250.8 765.755 250.796H929.052C932.777 250.781 936.462 250.026 939.893 248.576C943.325 247.125 946.434 245.008 949.042 242.346L991.273 200.096C996.904 194.523 1004.47 191.344 1012.39 191.223H1352.92V192.209V193.195H1013.8C1006.29 193.332 999.135 196.359 993.807 201.645L951.575 243.895C945.979 249.519 938.391 252.707 930.46 252.768H766.459C758.485 252.714 750.851 249.527 745.203 243.895L702.971 201.645C697.592 196.35 690.385 193.325 682.84 193.195H404.535V200.377L398.06 192.49L404.535 184.604V191.223ZM193.236 117.426V127.989L183.663 116.44L193.236 104.751V115.454H431.423C434.357 115.462 437.261 116.052 439.967 117.188C442.673 118.324 445.128 119.984 447.189 122.073L479.004 152.916C482.788 156.604 487.802 158.761 493.081 158.972H615.413C620.701 158.802 625.729 156.639 629.49 152.916L661.305 122.073C665.538 117.871 671.248 115.495 677.212 115.454H1316.74V116.44V117.426H677.212C671.927 117.61 666.904 119.771 663.135 123.482L631.32 154.325C629.242 156.431 626.764 158.101 624.033 159.238C621.302 160.374 618.371 160.954 615.413 160.944H494.348C488.385 160.903 482.674 158.527 478.441 154.325L446.485 123.482C442.724 119.759 437.696 117.596 432.408 117.426H193.236ZM80.4401 134.081H89.2865V116.467C89.2865 95.1051 71.9244 77.6721 50.492 77.6721C29.1305 77.6721 11.6976 95.0342 11.6976 116.467V134.081H20.5439V116.467C20.5439 99.9379 33.9633 86.5185 50.492 86.5185C67.0207 86.5185 80.4401 99.9379 80.4401 116.467V134.081ZM90.2865 134.081V134.349H94.9792C98.2771 134.349 100.915 136.987 100.915 140.285V210.713C100.915 214.011 98.2771 216.649 94.9792 216.649H5.93627C2.63838 216.649 0 214.011 0 210.713V140.285C0 136.987 2.63838 134.275 5.93627 134.349H10.6976V134.081V116.467C10.6976 94.4807 28.5794 76.6721 50.492 76.6721C72.4779 76.6721 90.2865 94.554 90.2865 116.467V134.081ZM79.4401 134.081V134.349H21.5439V134.081V116.467C21.5439 100.49 34.5156 87.5185 50.492 87.5185C66.4684 87.5185 79.4401 100.49 79.4401 116.467V134.081ZM5.92516 135.349L5.91405 135.349C3.20607 135.288 1 137.519 1 140.285V210.713C1 213.459 3.19066 215.649 5.93627 215.649H94.9792C97.7248 215.649 99.9154 213.459 99.9154 210.713V140.285C99.9154 137.539 97.7248 135.349 94.9792 135.349H5.93627H5.92516ZM40.928 194.271L41.1578 193.081L45.9976 168.029C42.5581 166.119 40.4614 162.094 41.4579 157.725L41.4584 157.722C42.2014 154.503 44.8238 151.797 48.0442 150.97C54.2724 149.333 59.7757 154.021 59.7757 159.926C59.7757 163.413 57.8192 166.48 54.992 168.034L59.8308 193.081L60.0606 194.271H58.849H51.5936H49.395H42.1397H40.928ZM53.8655 167.474C56.7236 166.228 58.7757 163.297 58.7757 159.926C58.7757 154.649 53.8655 150.472 48.2957 151.938C45.4376 152.67 43.0924 155.089 42.4328 157.947C41.4801 162.124 43.6787 165.935 47.1232 167.474L42.3328 192.271L42.1397 193.271H43.1581H49.395H51.5936H57.8305H58.849L58.6558 192.271L53.8655 167.474Z" fill="url(#paint0_radial_1293_15061)"/>
<defs>
<radialGradient id="paint0_radial_1293_15061" cx="0" cy="0" r="1" gradientUnits="userSpaceOnUse" gradientTransform="translate(998 -74.9999) rotate(133.645) scale(583.172 557.614)">
<stop stop-color="#032B96"/>
<stop offset="0.451244" stop-color="#2F5BD8"/>
<stop offset="1" stop-color="#00FFFF" stop-opacity="0.43"/>
</radialGradient>
</defs>
</svg>
