<svg width="288" height="29" viewBox="0 0 288 29" fill="none" xmlns="http://www.w3.org/2000/svg">
<path fill-rule="evenodd" clip-rule="evenodd" d="M18.5 20.5H0V19.5H18.5V20.5Z" fill="#828FA1"/>
<path fill-rule="evenodd" clip-rule="evenodd" d="M25.1494 19.5H18.5V20.5H25.1494C29.0629 20.5 32.8947 19.3798 36.192 17.2717L56.8395 4.07082C59.9759 2.06557 63.6208 1 67.3434 1H74.5V0H67.3434C63.4299 0 59.5981 1.12022 56.3008 3.2283L35.6533 16.4292C32.5169 18.4344 28.872 19.5 25.1494 19.5Z" fill="#828FA1"/>
<path fill-rule="evenodd" clip-rule="evenodd" d="M213.5 1H74.5V0H213.5V1Z" fill="#828FA1"/>
<path d="M95.8678 18V9.41602H97.4557V12.9258H101.335V9.41602H102.923V18H101.335V14.1797H97.4557V18H95.8678ZM107.211 16.0137C107.637 16.5566 108.266 16.8281 109.098 16.8281C109.93 16.8281 110.557 16.5586 110.979 16.0195C111.404 15.4766 111.617 14.7109 111.617 13.7227C111.617 12.7227 111.404 11.9473 110.979 11.3965C110.557 10.8457 109.932 10.5703 109.104 10.5703C108.272 10.5703 107.641 10.8477 107.211 11.4023C106.785 11.9531 106.572 12.7266 106.572 13.7227C106.572 14.707 106.785 15.4707 107.211 16.0137ZM109.092 18.123C107.799 18.123 106.778 17.7324 106.028 16.9512C105.281 16.166 104.908 15.084 104.908 13.7051C104.908 12.3184 105.283 11.2363 106.033 10.459C106.783 9.68164 107.805 9.29297 109.098 9.29297C110.391 9.29297 111.41 9.68359 112.156 10.4648C112.903 11.2422 113.276 12.3242 113.276 13.7109C113.276 15.082 112.901 16.1602 112.151 16.9453C111.401 17.7305 110.381 18.123 109.092 18.123ZM115.261 18V9.41602H116.849V16.7344H120.441L120.394 18H115.261ZM123.616 16.7285H124.753C125.734 16.7285 126.48 16.4727 126.991 15.9609C127.503 15.4453 127.759 14.6953 127.759 13.7109C127.759 12.6562 127.495 11.8906 126.968 11.4141C126.441 10.9336 125.646 10.6934 124.583 10.6934H123.616V16.7285ZM122.029 18V9.41602H124.513C125.263 9.41602 125.935 9.50195 126.529 9.67383C127.122 9.8457 127.632 10.1055 128.058 10.4531C128.488 10.7969 128.816 11.2422 129.042 11.7891C129.273 12.332 129.388 12.9609 129.388 13.6758C129.388 15.0625 128.97 16.1309 128.134 16.8809C127.298 17.627 126.14 18 124.659 18H122.029ZM131.415 18V9.41602H133.003V18H131.415ZM135.381 18V9.41602H137.069C137.373 9.89258 137.992 10.8535 138.926 12.2988C139.86 13.7441 140.428 14.623 140.631 14.9355C140.69 15.0254 140.789 15.1777 140.93 15.3926C141.074 15.6035 141.176 15.7539 141.235 15.8438C141.207 14.5039 141.194 13.8086 141.194 13.7578V9.41602H142.641V18H140.93L137.057 11.9648L136.776 11.502C136.807 12.5332 136.823 13.2578 136.823 13.6758V18H135.381ZM148.799 18.123C147.49 18.123 146.467 17.7285 145.728 16.9395C144.994 16.1504 144.627 15.0703 144.627 13.6992C144.627 12.8281 144.799 12.0625 145.142 11.4023C145.486 10.7383 145.992 10.2207 146.66 9.84961C147.328 9.47852 148.117 9.29297 149.027 9.29297C150.07 9.29297 150.965 9.51758 151.711 9.9668L151.195 11.1504C150.484 10.7676 149.771 10.5762 149.056 10.5762C148.189 10.5762 147.508 10.8574 147.011 11.4199C146.515 11.9824 146.267 12.748 146.267 13.7168C146.267 14.6777 146.488 15.4375 146.929 15.9961C147.371 16.5547 148.017 16.834 148.869 16.834C149.416 16.834 149.912 16.748 150.357 16.5762V14.584H148.558L148.57 13.3359H151.851V17.4785C151.32 17.6973 150.816 17.8594 150.34 17.9648C149.867 18.0703 149.353 18.123 148.799 18.123ZM157.692 18V9.41602H159.38C159.684 9.89258 160.304 10.8535 161.237 12.2988C162.171 13.7441 162.739 14.623 162.942 14.9355C163.001 15.0254 163.1 15.1777 163.241 15.3926C163.386 15.6035 163.487 15.7539 163.546 15.8438C163.518 14.5039 163.505 13.8086 163.505 13.7578V9.41602H164.952V18H163.241L159.368 11.9648L159.087 11.502C159.118 12.5332 159.134 13.2578 159.134 13.6758V18H157.692ZM167.278 18V9.41602H172.481L172.416 10.6758H168.866V12.8906H172.241V14.1504H168.866V16.7344H172.545L172.493 18H167.278ZM175.973 18L173.64 9.41602H175.223L176.887 16.0957L178.844 9.45703H180.361L182.219 16.1191L183.918 9.41602H185.5L183.098 18H181.451L179.617 11.7129L177.607 18H175.973ZM189.419 18.1172C188.384 18.1172 187.456 17.8789 186.636 17.4023L187.023 16.1426C187.39 16.3457 187.788 16.5098 188.218 16.6348C188.652 16.7598 189.074 16.8223 189.484 16.8223C189.988 16.8223 190.369 16.7148 190.626 16.5C190.884 16.2812 191.013 15.9688 191.013 15.5625C191.013 15.0234 190.654 14.6504 189.935 14.4434C189.884 14.4277 189.742 14.3867 189.507 14.3203C189.273 14.25 189.052 14.1836 188.845 14.1211C188.642 14.0547 188.495 14.0039 188.406 13.9688C187.253 13.5625 186.677 12.8047 186.677 11.6953C186.677 10.918 186.952 10.3184 187.503 9.89648C188.058 9.47461 188.792 9.26367 189.706 9.26367C190.742 9.26367 191.634 9.47656 192.384 9.90234L191.904 11.0625C191.138 10.7188 190.427 10.5469 189.771 10.5469C189.298 10.5469 188.941 10.6309 188.699 10.7988C188.46 10.9629 188.333 11.2383 188.318 11.625C188.318 12.1016 188.554 12.4121 189.027 12.5566C189.12 12.5918 189.351 12.668 189.718 12.7852C190.085 12.9023 190.324 12.9785 190.433 13.0137C191.218 13.2715 191.779 13.5918 192.115 13.9746C192.454 14.3574 192.624 14.8906 192.624 15.5742C192.624 16.3906 192.335 17.0195 191.757 17.4609C191.179 17.8984 190.4 18.1172 189.419 18.1172Z" fill="#00FFFF"/>
<path fill-rule="evenodd" clip-rule="evenodd" d="M220.149 1H213.5V0H220.149C224.063 0 227.895 1.12022 231.192 3.2283L251.84 16.4292C254.976 18.4344 258.621 19.5 262.343 19.5H269.5V20.5H262.343C258.43 20.5 254.598 19.3798 251.301 17.2717L230.653 4.07082C227.517 2.06557 223.872 1 220.149 1Z" fill="#828FA1"/>
<path fill-rule="evenodd" clip-rule="evenodd" d="M288 20.5H269.5V19.5H288V20.5Z" fill="#828FA1"/>
</svg>
