<svg width="1390" height="29" viewBox="0 0 1390 29" fill="none" xmlns="http://www.w3.org/2000/svg">
<path fill-rule="evenodd" clip-rule="evenodd" d="M534.5 20.5H0V19.5H534.5V20.5Z" fill="#828FA1"/>
<path fill-rule="evenodd" clip-rule="evenodd" d="M541.149 19.5H534.5V20.5H541.149C545.063 20.5 548.895 19.3798 552.192 17.2717L572.84 4.07082C575.976 2.06557 579.621 1 583.343 1H590.5V0H583.343C579.43 0 575.598 1.12022 572.301 3.2283L551.653 16.4292C548.517 18.4344 544.872 19.5 541.149 19.5Z" fill="#828FA1"/>
<path fill-rule="evenodd" clip-rule="evenodd" d="M799.5 1H590.5V0H799.5V1Z" fill="#828FA1"/>
<path d="M631.734 22V10.5547H633.852V15.2344H639.023V10.5547H641.141V22H639.023V16.9062H633.852V22H631.734ZM646.859 19.3516C647.426 20.0755 648.265 20.4375 649.374 20.4375C650.484 20.4375 651.32 20.0781 651.882 19.3594C652.45 18.6354 652.734 17.6146 652.734 16.2969C652.734 14.9635 652.45 13.9297 651.882 13.1953C651.32 12.4609 650.486 12.0938 649.382 12.0938C648.273 12.0938 647.432 12.4635 646.859 13.2031C646.291 13.9375 646.007 14.9688 646.007 16.2969C646.007 17.6094 646.291 18.6276 646.859 19.3516ZM649.367 22.1641C647.643 22.1641 646.281 21.6432 645.281 20.6016C644.286 19.5547 643.788 18.112 643.788 16.2734C643.788 14.4245 644.288 12.9818 645.288 11.9453C646.288 10.9089 647.65 10.3906 649.374 10.3906C651.098 10.3906 652.458 10.9115 653.453 11.9531C654.447 12.9896 654.945 14.4323 654.945 16.2812C654.945 18.1094 654.445 19.5469 653.445 20.5938C652.445 21.6406 651.085 22.1641 649.367 22.1641ZM659.327 22L656.218 10.5547H658.327L660.546 19.4609L663.155 10.6094H665.178L667.655 19.4922L669.921 10.5547H672.03L668.827 22H666.632L664.186 13.6172L661.507 22H659.327ZM678.974 22V10.5547H681.091V22H678.974ZM686.473 22V12.25H683.138V10.5547H691.919V12.25H688.598V22H686.473ZM700.73 22L697.621 10.5547H699.73L701.949 19.4609L704.558 10.6094H706.582L709.058 19.4922L711.324 10.5547H713.433L710.23 22H708.035L705.589 13.6172L702.91 22H700.73ZM718.058 19.3516C718.625 20.0755 719.464 20.4375 720.573 20.4375C721.683 20.4375 722.518 20.0781 723.081 19.3594C723.649 18.6354 723.933 17.6146 723.933 16.2969C723.933 14.9635 723.649 13.9297 723.081 13.1953C722.518 12.4609 721.685 12.0938 720.581 12.0938C719.472 12.0938 718.63 12.4635 718.058 13.2031C717.49 13.9375 717.206 14.9688 717.206 16.2969C717.206 17.6094 717.49 18.6276 718.058 19.3516ZM720.565 22.1641C718.841 22.1641 717.479 21.6432 716.479 20.6016C715.485 19.5547 714.987 18.112 714.987 16.2734C714.987 14.4245 715.487 12.9818 716.487 11.9453C717.487 10.9089 718.849 10.3906 720.573 10.3906C722.297 10.3906 723.656 10.9115 724.651 11.9531C725.646 12.9896 726.143 14.4323 726.143 16.2812C726.143 18.1094 725.643 19.5469 724.643 20.5938C723.643 21.6406 722.284 22.1641 720.565 22.1641ZM728.737 22V10.5234H732.979C733.557 10.5234 734.057 10.5495 734.479 10.6016C734.906 10.6536 735.309 10.75 735.69 10.8906C736.075 11.026 736.385 11.2109 736.619 11.4453C736.859 11.6797 737.046 11.987 737.182 12.3672C737.323 12.7422 737.393 13.1875 737.393 13.7031C737.393 15.224 736.703 16.224 735.323 16.7031C735.604 17.0208 735.953 17.6094 736.369 18.4688L738.073 22H735.76L734.424 19.0078C733.919 17.9349 733.606 17.2995 733.487 17.1016C733.398 17.0964 733.104 17.0938 732.604 17.0938L730.83 17.0781V22H728.737ZM733.166 15.5625C733.979 15.5625 734.562 15.4193 734.916 15.1328C735.27 14.8411 735.448 14.375 735.448 13.7344C735.448 13.1719 735.268 12.7578 734.908 12.4922C734.549 12.2266 734 12.0938 733.26 12.0938H730.83V15.5547C730.908 15.5547 731.296 15.5573 731.994 15.5625C732.692 15.5625 733.083 15.5625 733.166 15.5625ZM740.22 22V10.5547H742.345V15.7109C742.715 15.2214 743.47 14.3073 744.611 12.9688C745.757 11.6302 746.439 10.8255 746.658 10.5547H749.166L744.838 15.7031L749.439 22H746.955L743.22 16.8672L742.345 17.6016V22H740.22ZM754.61 22.1562C753.23 22.1562 751.993 21.8385 750.899 21.2031L751.415 19.5234C751.905 19.7943 752.436 20.013 753.009 20.1797C753.587 20.3464 754.149 20.4297 754.696 20.4297C755.368 20.4297 755.876 20.2865 756.22 20C756.563 19.7083 756.735 19.2917 756.735 18.75C756.735 18.0312 756.256 17.5339 755.298 17.2578C755.23 17.237 755.04 17.1823 754.728 17.0938C754.415 17 754.121 16.9115 753.845 16.8281C753.574 16.7396 753.379 16.6719 753.259 16.625C751.722 16.0833 750.954 15.0729 750.954 13.5938C750.954 12.5573 751.321 11.7578 752.056 11.1953C752.795 10.6328 753.774 10.3516 754.993 10.3516C756.373 10.3516 757.563 10.6354 758.563 11.2031L757.923 12.75C756.902 12.2917 755.954 12.0625 755.079 12.0625C754.449 12.0625 753.972 12.1745 753.649 12.3984C753.332 12.6172 753.162 12.9844 753.142 13.5C753.142 14.1354 753.457 14.5495 754.087 14.7422C754.212 14.7891 754.519 14.8906 755.009 15.0469C755.498 15.2031 755.816 15.3047 755.962 15.3516C757.009 15.6953 757.756 16.1224 758.204 16.6328C758.657 17.1432 758.884 17.8542 758.884 18.7656C758.884 19.8542 758.498 20.6927 757.728 21.2812C756.957 21.8646 755.918 22.1562 754.61 22.1562Z" fill="#00FFFF"/>
<path fill-rule="evenodd" clip-rule="evenodd" d="M806.149 1H799.5V0H806.149C810.063 0 813.895 1.12022 817.192 3.2283L837.84 16.4292C840.976 18.4344 844.621 19.5 848.343 19.5H855.5V20.5H848.343C844.43 20.5 840.598 19.3798 837.301 17.2717L816.653 4.07082C813.517 2.06557 809.872 1 806.149 1Z" fill="#828FA1"/>
<path fill-rule="evenodd" clip-rule="evenodd" d="M1390 20.5H855.5V19.5H1390V20.5Z" fill="#828FA1"/>
</svg>
