<svg width="99" height="116" viewBox="0 0 99 116" fill="none" xmlns="http://www.w3.org/2000/svg">
<path fill-rule="evenodd" clip-rule="evenodd" d="M88.6211 1.54108C89.1008 1.02107 89.701 0.68581 90.4783 0.503661C90.6999 0.451721 91.0577 0.432859 91.5932 0.444917C92.2824 0.460405 92.4367 0.481701 92.8164 0.613791C94.6448 1.24985 95.3499 2.91829 94.5084 4.61775C94.2405 5.15878 93.9457 5.51113 93.3312 6.02461C93.0334 6.27341 92.7897 6.49224 92.7897 6.51088C92.7897 6.55861 94.5901 8.5008 94.6344 8.5008C94.6949 8.5008 95.0177 7.55858 95.0987 7.14561C95.1405 6.93265 95.1916 6.56547 95.2123 6.32972L95.2499 5.90104H96.4192H97.5885L97.552 6.32972C97.4975 6.97087 97.3625 7.75157 97.2147 8.27954C97.0755 8.77693 96.6712 9.68839 96.4665 9.96662C96.3993 10.0579 96.3273 10.1621 96.3064 10.1982C96.283 10.2384 96.7188 10.7398 97.4362 11.498L98.604 12.7323L97.043 12.7481L95.4819 12.764L95.0594 12.3203L94.637 11.8766L94.298 12.1306C93.3121 12.8696 91.9926 13.1942 90.5688 13.0482C88.4584 12.8317 87.1101 11.7858 86.7768 10.1068C86.6012 9.22259 86.7686 8.26389 87.2202 7.56704C87.4882 7.15352 88.0602 6.59402 88.5887 6.22828L89.0187 5.9308L88.7255 5.57021C87.6711 4.27326 87.6282 2.61738 88.6211 1.54108ZM92.1329 4.37631C92.7135 3.7038 92.6202 2.90534 91.9185 2.54071C91.4994 2.32294 90.8967 2.39833 90.5686 2.70964C90.2391 3.02228 90.1371 3.60573 90.3349 4.04802C90.4178 4.23349 91.1033 5.06558 91.2131 5.11409C91.2695 5.13903 91.936 4.60437 92.1329 4.37631ZM93.1227 10.418C93.1436 10.3204 93.0073 10.189 92.709 9.87403C92.4402 9.59032 91.824 8.94381 91.3396 8.43736L90.459 7.51654L90.1454 7.77359C89.482 8.31749 89.1422 8.93933 89.224 9.45961C89.4402 10.8347 91.2422 11.463 92.7353 10.6839C92.9749 10.559 93.105 10.5005 93.1227 10.418ZM1.86485 80.389C1.87453 80.3476 7.48669 64.4918 14.3364 45.1539L26.7903 9.99428H36.473H46.1557L58.3523 45.1049C65.0604 64.4157 70.5632 80.2715 70.5807 80.3399L70.6126 80.4644H61.2903H51.968L44.1114 54.5221C38.8934 37.2927 36.2409 28.6124 36.2133 28.6767C36.1905 28.7299 32.599 40.3479 28.232 54.4944C23.8652 68.641 20.2683 80.2715 20.2391 80.3399L20.1859 80.4644H11.0165C3.30375 80.4644 1.85005 80.4524 1.86485 80.389ZM27.9452 65.5573C29.5986 63.002 32.2543 61.37 35.2758 61.0523C35.9602 60.9803 37.1894 61.029 37.9214 61.1571C41.5153 61.7857 44.4913 64.3807 45.6319 67.8804C47.1747 72.6148 45.1782 77.6908 40.8505 80.0368C39.54 80.7472 38.1557 81.1107 36.5539 81.1652C34.3458 81.2404 32.2569 80.6057 30.4632 79.3147C29.8274 78.8572 28.7413 77.7749 28.2888 77.148C27.3538 75.8526 26.7386 74.4113 26.4582 72.8587C26.3334 72.1678 26.3157 70.161 26.4286 69.5122C26.6857 68.0359 27.1865 66.7299 27.9452 65.5573ZM5.35522 84.7995C5.91736 84.1936 6.54814 83.8307 7.36812 83.6413C7.8823 83.5226 9.21569 83.57 9.7409 83.7256C10.8723 84.0609 11.6839 84.826 12.0788 85.9295C12.1691 86.1821 12.2431 86.4124 12.2431 86.4412C12.2431 86.4722 11.8546 86.4936 11.2913 86.4936C10.532 86.4936 10.3395 86.4786 10.3395 86.4195C10.3395 86.253 9.99462 85.6597 9.78675 85.4687C9.00228 84.7478 7.50817 84.8303 6.82072 85.6324C6.34843 86.1834 6.1323 86.9293 6.13045 88.0148C6.12898 88.8694 6.20082 89.2513 6.4758 89.8512C6.85651 90.6818 7.73822 91.1655 8.67645 91.0585C9.67368 90.9447 10.268 90.3466 10.4218 89.302L10.4603 89.0404L9.35297 89.0254L8.24565 89.0104V88.3466V87.6829L10.3259 87.6684L12.4062 87.6539L12.4059 88.0832C12.4057 88.3194 12.3696 88.7553 12.3256 89.052C11.9895 91.3203 10.702 92.4689 8.49018 92.4737C7.73235 92.4753 7.30368 92.4044 6.74284 92.1847C5.33977 91.6349 4.43179 90.3254 4.24769 88.5863C4.0916 87.1118 4.49743 85.724 5.35522 84.7995ZM1.80083 85.332V84.53V83.7279H2.7526H3.70437V84.53V85.332H2.7526H1.80083ZM12.9088 88.0701C12.9011 85.7579 12.9071 83.8334 12.9221 83.7933C12.9669 83.6743 17.423 83.7317 17.8897 83.8572C18.6655 84.066 19.2006 84.4515 19.4599 84.9883C19.5963 85.2709 19.6124 85.3631 19.6122 85.8575C19.6119 86.338 19.5932 86.4513 19.4697 86.7196C19.2871 87.1165 19.015 87.3905 18.6127 87.5827L18.292 87.736L18.7075 87.9367C19.1985 88.1738 19.4929 88.4546 19.6879 88.8721C19.8145 89.1432 19.83 89.2431 19.83 89.7877C19.83 90.3832 19.8247 90.4101 19.6252 90.8206C19.3749 91.3356 19.0104 91.6907 18.4695 91.9465C17.7717 92.2766 17.4774 92.3062 15.0712 92.2892L12.9229 92.2739L12.9088 88.0701ZM20.4555 92.2365C20.4555 92.1869 22.8962 85.2345 23.3988 83.8524C23.4425 83.7321 23.4677 83.7279 24.1458 83.7279C24.642 83.7279 24.8633 83.7482 24.9015 83.7971C24.9604 83.8725 27.8022 91.9742 27.841 92.1771C27.8644 92.2998 27.8565 92.3016 27.2998 92.3016H26.7349L26.3018 91.0286L25.8687 89.7557L24.1274 89.7702L22.3862 89.7848L21.9732 91.0294L21.5602 92.2739L21.0078 92.2897C20.5949 92.3015 20.4555 92.2881 20.4555 92.2365ZM28.831 92.3016V88.0142V83.7268L31.4008 83.7412L33.9705 83.7556V84.1981V84.6406L31.9718 84.6551L29.9731 84.6696V85.1579C29.9731 85.4264 29.957 86.0982 29.9373 86.6507L29.9016 87.6552H31.8431H33.7846L33.7688 88.1116L33.753 88.5679L31.8316 88.5824L29.9101 88.597L29.9496 90.4493L29.9891 92.3016H29.41H28.831ZM34.9357 88.0562C34.9354 85.7213 34.9461 83.792 34.9595 83.7689C34.9728 83.7457 36.1263 83.7333 37.5228 83.7412L40.0619 83.7556V84.1981V84.6406L38.0631 84.6551L36.0644 84.6696V85.8224C36.0644 86.4564 36.0487 87.1282 36.0295 87.3152L35.9945 87.6552H37.9331H39.8715V88.1254V88.5956H37.9544H36.0372L36.0568 90.4486L36.0762 92.3016H35.5063H34.9363L34.9357 88.0562ZM41.0488 88.0286C41.0532 85.6785 41.0593 83.7484 41.0624 83.7398C41.0655 83.731 41.3067 83.731 41.5983 83.7398L42.1285 83.7556L42.1376 88.0286L42.1466 92.3016H41.5937H41.0408L41.0488 88.0286ZM43.1189 88.0286C43.1251 85.6785 43.1312 83.7494 43.1325 83.7417C43.1337 83.7341 43.3793 83.7279 43.6782 83.7279H44.2217L44.2357 87.5584L44.2496 91.3889L46.1668 91.4035L48.0839 91.418V91.8598V92.3016H45.5957H43.1075L43.1189 88.0286ZM49.0444 88.0286C49.0493 85.6785 49.0553 83.7484 49.058 83.7398C49.0607 83.731 49.3015 83.731 49.5931 83.7398L50.1234 83.7556L50.1343 88.0286L50.1453 92.3016H49.5905H49.0357L49.0444 88.0286ZM52.5631 88.0977C53.3767 85.8008 54.0592 83.878 54.0799 83.8247C54.1129 83.7395 54.2014 83.7279 54.8195 83.7279C55.3176 83.7279 55.5364 83.748 55.5727 83.7971C55.6313 83.8764 58.5261 92.1549 58.5261 92.2433C58.5261 92.2804 58.3209 92.3016 57.9621 92.3016H57.398L56.9695 91.0432L56.541 89.7848L54.7999 89.7702L53.0589 89.7557L52.6588 90.9871C52.4387 91.6644 52.2411 92.2382 52.2197 92.2622C52.1982 92.2861 51.9339 92.2986 51.6323 92.2898L51.0839 92.2739L52.5631 88.0977ZM58.5371 84.2589C58.5281 84.049 58.5335 83.8434 58.5491 83.8021C58.5726 83.7398 59.0921 83.7294 61.5839 83.7413L64.5902 83.7556V84.1981V84.6406L63.3824 84.6555L62.1745 84.6704L62.138 84.8689C62.1178 84.9781 62.1123 86.6951 62.1258 88.6845L62.1502 92.3016H61.574H60.9978L60.9993 88.4988L61.0007 84.6959L59.777 84.6683L58.5533 84.6406L58.5371 84.2589ZM65.5448 92.3016L65.5451 88.0143L65.5454 83.7269L68.195 83.7412L70.8447 83.7556V84.1981V84.6406L68.7644 84.6551L66.6841 84.6696L66.6839 85.2635C66.6838 85.5902 66.6678 86.1748 66.6483 86.5628L66.6129 87.268H68.5793H70.5456V87.7382V88.2084H68.5792H66.6128L66.6485 89.0469C66.6681 89.508 66.6841 90.2299 66.6841 90.651V91.4166H68.8052H70.9263V91.8591V92.3016H68.2356H65.5448ZM25.5134 88.7296C25.5134 88.7121 25.2077 87.7872 24.834 86.6742C24.4603 85.5613 24.1455 84.6414 24.1343 84.6301C24.1232 84.6188 23.8129 85.5125 23.4449 86.6163C23.0768 87.7201 22.765 88.6544 22.7519 88.6924C22.7332 88.7465 23.0301 88.7615 24.1207 88.7615C24.8867 88.7615 25.5134 88.7472 25.5134 88.7296ZM56.1875 88.7457C56.1875 88.7369 55.8795 87.8098 55.503 86.6852C55.1265 85.5607 54.809 84.6308 54.7973 84.6189C54.7856 84.6069 54.7634 84.6318 54.748 84.6742C54.6775 84.8687 53.4138 88.7178 53.4138 88.7383C53.4138 88.751 54.0379 88.7615 54.8006 88.7615C55.5634 88.7615 56.1875 88.7544 56.1875 88.7457ZM17.7243 86.2844C17.7467 85.8378 17.6003 85.4895 17.3066 85.291C17.1285 85.1707 17.0773 85.1661 15.9049 85.1661H14.6881L14.7029 86.2032L14.7177 87.2404L15.6422 87.2572C16.7538 87.2774 17.0767 87.2439 17.3069 87.0846C17.6094 86.8752 17.7037 86.6945 17.7243 86.2844ZM1.80083 92.3016V89.1487V85.9958H2.7526H3.70437V89.1487V92.3016H2.7526H1.80083ZM17.9446 89.8651C17.9791 89.2443 17.7603 88.7874 17.3345 88.5907C17.1377 88.4998 16.9647 88.4872 15.8995 88.4861L14.6884 88.4849L14.703 89.7157L14.7177 90.9464H15.9142C17.0632 90.9464 17.1211 90.9412 17.3726 90.8152C17.7472 90.6277 17.918 90.344 17.9446 89.8651ZM9.47337 105.764C9.45191 100.204 10.3142 97.9009 12.9105 96.5848C14.2619 95.9 17.5244 96.1435 18.7525 97.021C19.234 97.3652 19.8912 98.084 20.2127 98.6189C21.0677 100.042 21.5521 105.115 21.1411 108.346C20.4931 113.446 19.2028 114.884 15.2743 114.884C13.3207 114.884 12.5599 114.706 11.7551 114.059C10.2644 112.86 9.4901 110.046 9.47337 105.764ZM48.4979 98.9366C49.0834 97.7022 50.2602 96.6752 51.4753 96.3386C54.1934 95.586 57.3846 96.7613 58.412 98.8929C58.8826 99.8699 59.0797 101.399 59.1695 104.773C59.3681 112.235 58.1073 114.687 53.9195 114.979C51.5567 115.145 49.7864 114.377 48.667 112.703C47.1828 110.484 47.0777 101.931 48.4979 98.9366ZM0 114.686V105.566V96.446H1.63654H3.27307V103.98V111.514H6.18247H9.09187V113.1V114.686H4.54594H0ZM22.9115 114.686V105.566V96.446L24.639 96.45L26.3664 96.4536L28.2612 101.506L30.1563 106.557L30.1705 101.502L30.185 96.446H31.8216H33.4581V105.566V114.686L31.7306 114.679L30.0032 114.673L28.2201 110.02C27.2392 107.461 26.2984 105.198 26.1289 104.991C25.9587 104.783 25.8209 106.867 25.8209 109.65V114.686H24.3662H22.9115ZM35.2765 114.686V105.566V96.446H39.0714C43.5083 96.446 44.4745 96.7597 45.4579 98.5178C46.0907 99.6495 46.1842 100.519 46.1853 105.281C46.1874 113.988 45.6819 114.686 39.3776 114.686H35.2765ZM60.7337 114.686V105.545V96.4044L62.5848 96.5245L64.4363 96.6443L66.3125 101.601L68.189 106.557L68.2909 101.502L68.3927 96.446H70.0183H71.644V105.566V114.686H69.863H68.0818L66.1354 109.699L64.1886 104.713L64.0868 109.699L63.985 114.686H62.3593H60.7337ZM17.7659 104.438C17.6651 101.638 17.4924 100.714 16.9454 100.056C16.0893 99.025 14.7663 98.9826 13.8727 99.9568C12.5813 101.365 12.4537 108.887 13.6847 111.018C14.0266 111.61 14.5561 111.91 15.2569 111.91C17.3953 111.91 17.9732 110.19 17.7659 104.438ZM55.0218 111.208C56.3391 109.62 56.2398 101.459 54.8851 99.9822C53.9701 98.9845 52.6525 99.0163 51.7891 100.056C51.1902 100.778 51.0963 101.525 51.0963 105.566C51.0963 109.607 51.1902 110.354 51.7891 111.076C52.6343 112.094 54.2319 112.159 55.0218 111.208ZM42.2943 111.34C43.3791 110.156 43.5243 102.404 42.5005 100.312C42.2463 99.7934 41.7022 99.6182 40.3457 99.6182H38.5306L38.631 105.665L38.7314 111.712L40.2323 111.831C41.2211 111.91 41.9244 111.742 42.2943 111.34Z" fill="#F0F0F0"/>
</svg>
