<svg width="288" height="29" viewBox="0 0 288 29" fill="none" xmlns="http://www.w3.org/2000/svg">
<path fill-rule="evenodd" clip-rule="evenodd" d="M35.5 20.5H0V19.5H35.5V20.5Z" fill="#828FA1"/>
<path fill-rule="evenodd" clip-rule="evenodd" d="M42.1494 19.5H35.5V20.5H42.1494C46.0629 20.5 49.8947 19.3798 53.192 17.2717L73.8395 4.07082C76.9759 2.06557 80.6208 1 84.3434 1H91.5V0H84.3434C80.4299 0 76.5981 1.12022 73.3008 3.2283L52.6533 16.4292C49.5169 18.4344 45.872 19.5 42.1494 19.5Z" fill="#828FA1"/>
<path fill-rule="evenodd" clip-rule="evenodd" d="M196.5 1H91.5V0H196.5V1Z" fill="#828FA1"/>
<path d="M104.534 16.0137C104.959 16.5566 105.588 16.8281 106.42 16.8281C107.252 16.8281 107.879 16.5586 108.301 16.0195C108.727 15.4766 108.94 14.7109 108.94 13.7227C108.94 12.7227 108.727 11.9473 108.301 11.3965C107.879 10.8457 107.254 10.5703 106.426 10.5703C105.594 10.5703 104.963 10.8477 104.534 11.4023C104.108 11.9531 103.895 12.7266 103.895 13.7227C103.895 14.707 104.108 15.4707 104.534 16.0137ZM106.414 18.123C105.121 18.123 104.1 17.7324 103.35 16.9512C102.604 16.166 102.231 15.084 102.231 13.7051C102.231 12.3184 102.606 11.2363 103.356 10.459C104.106 9.68164 105.127 9.29297 106.42 9.29297C107.713 9.29297 108.733 9.68359 109.479 10.4648C110.225 11.2422 110.598 12.3242 110.598 13.7109C110.598 15.082 110.223 16.1602 109.473 16.9453C108.723 17.7305 107.704 18.123 106.414 18.123ZM115.935 18.123C114.81 18.123 113.957 17.8438 113.375 17.2852C112.793 16.7227 112.502 15.9316 112.502 14.9121V9.41602H114.096V14.7773C114.096 15.4922 114.24 16.0137 114.529 16.3418C114.822 16.6699 115.301 16.834 115.965 16.834C116.617 16.834 117.09 16.6699 117.383 16.3418C117.676 16.0098 117.822 15.4863 117.822 14.7715V9.41602H119.41V14.9238C119.41 15.9355 119.113 16.7227 118.519 17.2852C117.926 17.8438 117.064 18.123 115.935 18.123ZM121.624 18V9.39258H124.806C125.24 9.39258 125.615 9.41211 125.931 9.45117C126.251 9.49023 126.554 9.5625 126.839 9.66797C127.128 9.76953 127.361 9.9082 127.537 10.084C127.716 10.2598 127.857 10.4902 127.958 10.7754C128.064 11.0566 128.117 11.3906 128.117 11.7773C128.117 12.918 127.599 13.668 126.564 14.0273C126.775 14.2656 127.037 14.707 127.349 15.3516L128.626 18H126.892L125.89 15.7559C125.511 14.9512 125.277 14.4746 125.187 14.3262C125.121 14.3223 124.9 14.3203 124.525 14.3203L123.195 14.3086V18H121.624ZM124.947 13.1719C125.556 13.1719 125.994 13.0645 126.259 12.8496C126.525 12.6309 126.658 12.2812 126.658 11.8008C126.658 11.3789 126.523 11.0684 126.253 10.8691C125.984 10.6699 125.572 10.5703 125.017 10.5703H123.195V13.166C123.253 13.166 123.544 13.168 124.068 13.1719C124.591 13.1719 124.884 13.1719 124.947 13.1719ZM133.969 18V9.41602H135.844L138.44 15.6152L141.053 9.41602H142.905V18H141.44V13.7578L141.487 11.3262L141.27 11.9707L139.073 17.4141H137.713L135.563 11.9414L135.346 11.2969L135.399 13.7812V18H133.969ZM145.283 18V9.41602H146.871V18H145.283ZM151.658 18.1172C150.623 18.1172 149.695 17.8789 148.875 17.4023L149.261 16.1426C149.628 16.3457 150.027 16.5098 150.457 16.6348C150.89 16.7598 151.312 16.8223 151.722 16.8223C152.226 16.8223 152.607 16.7148 152.865 16.5C153.123 16.2812 153.251 15.9688 153.251 15.5625C153.251 15.0234 152.892 14.6504 152.173 14.4434C152.123 14.4277 151.98 14.3867 151.746 14.3203C151.511 14.25 151.291 14.1836 151.084 14.1211C150.88 14.0547 150.734 14.0039 150.644 13.9688C149.492 13.5625 148.916 12.8047 148.916 11.6953C148.916 10.918 149.191 10.3184 149.742 9.89648C150.296 9.47461 151.031 9.26367 151.945 9.26367C152.98 9.26367 153.873 9.47656 154.623 9.90234L154.142 11.0625C153.376 10.7188 152.666 10.5469 152.009 10.5469C151.537 10.5469 151.179 10.6309 150.937 10.7988C150.699 10.9629 150.572 11.2383 150.556 11.625C150.556 12.1016 150.792 12.4121 151.265 12.5566C151.359 12.5918 151.589 12.668 151.957 12.7852C152.324 12.9023 152.562 12.9785 152.671 13.0137C153.457 13.2715 154.017 13.5918 154.353 13.9746C154.693 14.3574 154.863 14.8906 154.863 15.5742C154.863 16.3906 154.574 17.0195 153.996 17.4609C153.417 17.8984 152.638 18.1172 151.658 18.1172ZM159.11 18.1172C158.075 18.1172 157.147 17.8789 156.327 17.4023L156.714 16.1426C157.081 16.3457 157.48 16.5098 157.909 16.6348C158.343 16.7598 158.765 16.8223 159.175 16.8223C159.679 16.8223 160.06 16.7148 160.317 16.5C160.575 16.2812 160.704 15.9688 160.704 15.5625C160.704 15.0234 160.345 14.6504 159.626 14.4434C159.575 14.4277 159.433 14.3867 159.198 14.3203C158.964 14.25 158.743 14.1836 158.536 14.1211C158.333 14.0547 158.187 14.0039 158.097 13.9688C156.944 13.5625 156.368 12.8047 156.368 11.6953C156.368 10.918 156.644 10.3184 157.194 9.89648C157.749 9.47461 158.483 9.26367 159.397 9.26367C160.433 9.26367 161.325 9.47656 162.075 9.90234L161.595 11.0625C160.829 10.7188 160.118 10.5469 159.462 10.5469C158.989 10.5469 158.632 10.6309 158.39 10.7988C158.151 10.9629 158.024 11.2383 158.009 11.625C158.009 12.1016 158.245 12.4121 158.718 12.5566C158.812 12.5918 159.042 12.668 159.409 12.7852C159.776 12.9023 160.015 12.9785 160.124 13.0137C160.909 13.2715 161.47 13.5918 161.806 13.9746C162.146 14.3574 162.315 14.8906 162.315 15.5742C162.315 16.3906 162.026 17.0195 161.448 17.4609C160.87 17.8984 160.091 18.1172 159.11 18.1172ZM164.196 18V9.41602H165.784V18H164.196ZM170.119 16.0137C170.545 16.5566 171.174 16.8281 172.006 16.8281C172.838 16.8281 173.465 16.5586 173.887 16.0195C174.313 15.4766 174.525 14.7109 174.525 13.7227C174.525 12.7227 174.313 11.9473 173.887 11.3965C173.465 10.8457 172.84 10.5703 172.012 10.5703C171.18 10.5703 170.549 10.8477 170.119 11.4023C169.693 11.9531 169.481 12.7266 169.481 13.7227C169.481 14.707 169.693 15.4707 170.119 16.0137ZM172 18.123C170.707 18.123 169.686 17.7324 168.936 16.9512C168.19 16.166 167.816 15.084 167.816 13.7051C167.816 12.3184 168.191 11.2363 168.941 10.459C169.691 9.68164 170.713 9.29297 172.006 9.29297C173.299 9.29297 174.318 9.68359 175.065 10.4648C175.811 11.2422 176.184 12.3242 176.184 13.7109C176.184 15.082 175.809 16.1602 175.059 16.9453C174.309 17.7305 173.289 18.123 172 18.123ZM178.17 18V9.41602H179.857C180.162 9.89258 180.781 10.8535 181.714 12.2988C182.648 13.7441 183.216 14.623 183.42 14.9355C183.478 15.0254 183.578 15.1777 183.718 15.3926C183.863 15.6035 183.964 15.7539 184.023 15.8438C183.996 14.5039 183.982 13.8086 183.982 13.7578V9.41602H185.429V18H183.718L179.845 11.9648L179.564 11.502C179.595 12.5332 179.611 13.2578 179.611 13.6758V18H178.17Z" fill="#00FFFF"/>
<path fill-rule="evenodd" clip-rule="evenodd" d="M203.149 1H196.5V0H203.149C207.063 0 210.895 1.12022 214.192 3.2283L234.84 16.4292C237.976 18.4344 241.621 19.5 245.343 19.5H252.5V20.5H245.343C241.43 20.5 237.598 19.3798 234.301 17.2717L213.653 4.07082C210.517 2.06557 206.872 1 203.149 1Z" fill="#828FA1"/>
<path fill-rule="evenodd" clip-rule="evenodd" d="M288 20.5H252.5V19.5H288V20.5Z" fill="#828FA1"/>
</svg>
