<svg width="288" height="29" viewBox="0 0 288 29" fill="none" xmlns="http://www.w3.org/2000/svg">
<path fill-rule="evenodd" clip-rule="evenodd" d="M7 20.5H0V19.5H7V20.5Z" fill="#828FA1"/>
<path fill-rule="evenodd" clip-rule="evenodd" d="M13.6494 19.5H7V20.5H13.6494C17.5629 20.5 21.3947 19.3798 24.692 17.2717L45.3395 4.07082C48.4759 2.06557 52.1208 1 55.8434 1H63V0H55.8434C51.9299 0 48.0981 1.12022 44.8008 3.2283L24.1533 16.4292C21.0169 18.4344 17.372 19.5 13.6494 19.5Z" fill="#828FA1"/>
<path fill-rule="evenodd" clip-rule="evenodd" d="M225 1H63V0H225V1Z" fill="#828FA1"/>
<path d="M105.883 16.0137C106.309 16.5566 106.938 16.8281 107.77 16.8281C108.602 16.8281 109.229 16.5586 109.65 16.0195C110.076 15.4766 110.289 14.7109 110.289 13.7227C110.289 12.7227 110.076 11.9473 109.65 11.3965C109.229 10.8457 108.604 10.5703 107.775 10.5703C106.943 10.5703 106.312 10.8477 105.883 11.4023C105.457 11.9531 105.244 12.7266 105.244 13.7227C105.244 14.707 105.457 15.4707 105.883 16.0137ZM107.764 18.123C106.471 18.123 105.449 17.7324 104.699 16.9512C103.953 16.166 103.58 15.084 103.58 13.7051C103.58 12.3184 103.955 11.2363 104.705 10.459C105.455 9.68164 106.477 9.29297 107.77 9.29297C109.062 9.29297 110.082 9.68359 110.828 10.4648C111.574 11.2422 111.947 12.3242 111.947 13.7109C111.947 15.082 111.572 16.1602 110.822 16.9453C110.072 17.7305 109.053 18.123 107.764 18.123ZM117.285 18.123C116.16 18.123 115.306 17.8438 114.724 17.2852C114.142 16.7227 113.851 15.9316 113.851 14.9121V9.41602H115.445V14.7773C115.445 15.4922 115.589 16.0137 115.878 16.3418C116.171 16.6699 116.65 16.834 117.314 16.834C117.966 16.834 118.439 16.6699 118.732 16.3418C119.025 16.0098 119.171 15.4863 119.171 14.7715V9.41602H120.759V14.9238C120.759 15.9355 120.462 16.7227 119.869 17.2852C119.275 17.8438 118.414 18.123 117.285 18.123ZM122.974 18V9.39258H126.155C126.589 9.39258 126.964 9.41211 127.28 9.45117C127.601 9.49023 127.903 9.5625 128.189 9.66797C128.478 9.76953 128.71 9.9082 128.886 10.084C129.065 10.2598 129.206 10.4902 129.308 10.7754C129.413 11.0566 129.466 11.3906 129.466 11.7773C129.466 12.918 128.948 13.668 127.913 14.0273C128.124 14.2656 128.386 14.707 128.698 15.3516L129.976 18H128.241L127.239 15.7559C126.86 14.9512 126.626 14.4746 126.536 14.3262C126.47 14.3223 126.249 14.3203 125.874 14.3203L124.544 14.3086V18H122.974ZM126.296 13.1719C126.905 13.1719 127.343 13.0645 127.608 12.8496C127.874 12.6309 128.007 12.2812 128.007 11.8008C128.007 11.3789 127.872 11.0684 127.603 10.8691C127.333 10.6699 126.921 10.5703 126.366 10.5703H124.544V13.166C124.603 13.166 124.894 13.168 125.417 13.1719C125.94 13.1719 126.233 13.1719 126.296 13.1719ZM137.275 16.0137C137.701 16.5566 138.33 16.8281 139.162 16.8281C139.994 16.8281 140.621 16.5586 141.043 16.0195C141.469 15.4766 141.682 14.7109 141.682 13.7227C141.682 12.7227 141.469 11.9473 141.043 11.3965C140.621 10.8457 139.996 10.5703 139.168 10.5703C138.336 10.5703 137.705 10.8477 137.275 11.4023C136.85 11.9531 136.637 12.7266 136.637 13.7227C136.637 14.707 136.85 15.4707 137.275 16.0137ZM139.156 18.123C137.863 18.123 136.842 17.7324 136.092 16.9512C135.346 16.166 134.973 15.084 134.973 13.7051C134.973 12.3184 135.348 11.2363 136.098 10.459C136.848 9.68164 137.869 9.29297 139.162 9.29297C140.455 9.29297 141.475 9.68359 142.221 10.4648C142.967 11.2422 143.34 12.3242 143.34 13.7109C143.34 15.082 142.965 16.1602 142.215 16.9453C141.465 17.7305 140.445 18.123 139.156 18.123ZM145.326 18V9.41602H150.406L150.347 10.6758H146.902V13.1133H150.177V14.3613H146.902V18H145.326ZM152.275 18V9.41602H157.355L157.296 10.6758H153.851V13.1133H157.126V14.3613H153.851V18H152.275ZM159.264 18V9.41602H160.852V18H159.264ZM166.975 18.123C165.721 18.123 164.727 17.7285 163.992 16.9395C163.258 16.1504 162.891 15.0605 162.891 13.6699C162.891 12.3496 163.274 11.291 164.039 10.4941C164.809 9.69336 165.815 9.29297 167.057 9.29297C168.061 9.29297 168.91 9.52539 169.606 9.99023L169.108 11.1914C168.44 10.7812 167.768 10.5762 167.092 10.5762C166.303 10.5762 165.678 10.8613 165.217 11.4316C164.76 11.998 164.531 12.7598 164.531 13.7168C164.531 14.709 164.752 15.4766 165.194 16.0195C165.639 16.5625 166.272 16.834 167.092 16.834C167.811 16.834 168.524 16.6543 169.231 16.2949L169.442 17.5371C168.785 17.9277 167.963 18.123 166.975 18.123ZM171.34 18V9.41602H176.543L176.478 10.6758H172.927V12.8906H176.302V14.1504H172.927V16.7344H176.607L176.554 18H171.34ZM180.978 18.1172C179.943 18.1172 179.015 17.8789 178.195 17.4023L178.581 16.1426C178.948 16.3457 179.347 16.5098 179.777 16.6348C180.21 16.7598 180.632 16.8223 181.042 16.8223C181.546 16.8223 181.927 16.7148 182.185 16.5C182.443 16.2812 182.571 15.9688 182.571 15.5625C182.571 15.0234 182.212 14.6504 181.493 14.4434C181.443 14.4277 181.3 14.3867 181.066 14.3203C180.831 14.25 180.611 14.1836 180.404 14.1211C180.2 14.0547 180.054 14.0039 179.964 13.9688C178.812 13.5625 178.236 12.8047 178.236 11.6953C178.236 10.918 178.511 10.3184 179.062 9.89648C179.616 9.47461 180.351 9.26367 181.265 9.26367C182.3 9.26367 183.193 9.47656 183.943 9.90234L183.462 11.0625C182.696 10.7188 181.986 10.5469 181.329 10.5469C180.857 10.5469 180.499 10.6309 180.257 10.7988C180.019 10.9629 179.892 11.2383 179.876 11.625C179.876 12.1016 180.113 12.4121 180.585 12.5566C180.679 12.5918 180.909 12.668 181.277 12.7852C181.644 12.9023 181.882 12.9785 181.991 13.0137C182.777 13.2715 183.337 13.5918 183.673 13.9746C184.013 14.3574 184.183 14.8906 184.183 15.5742C184.183 16.3906 183.894 17.0195 183.316 17.4609C182.738 17.8984 181.958 18.1172 180.978 18.1172Z" fill="#00FFFF"/>
<path fill-rule="evenodd" clip-rule="evenodd" d="M231.649 1H225V0H231.649C235.563 0 239.395 1.12022 242.692 3.2283L263.34 16.4292C266.476 18.4344 270.121 19.5 273.843 19.5H281V20.5H273.843C269.93 20.5 266.098 19.3798 262.801 17.2717L242.153 4.07082C239.017 2.06557 235.372 1 231.649 1Z" fill="#828FA1"/>
<path fill-rule="evenodd" clip-rule="evenodd" d="M288 20.5H281V19.5H288V20.5Z" fill="#828FA1"/>
</svg>
