<svg width="288" height="29" viewBox="0 0 288 29" fill="none" xmlns="http://www.w3.org/2000/svg">
<path fill-rule="evenodd" clip-rule="evenodd" d="M23.5 20.5H0V19.5H23.5V20.5Z" fill="#828FA1"/>
<path fill-rule="evenodd" clip-rule="evenodd" d="M30.1494 19.5H23.5V20.5H30.1494C34.0629 20.5 37.8947 19.3798 41.192 17.2717L61.8395 4.07082C64.9759 2.06557 68.6208 1 72.3434 1H79.5V0H72.3434C68.4299 0 64.5981 1.12022 61.3008 3.2283L40.6533 16.4292C37.5169 18.4344 33.872 19.5 30.1494 19.5Z" fill="#828FA1"/>
<path fill-rule="evenodd" clip-rule="evenodd" d="M208.5 1H79.5V0H208.5V1Z" fill="#828FA1"/>
<path d="M101.891 18L99.5586 9.41602H101.141L102.805 16.0957L104.762 9.45703H106.279L108.137 16.1191L109.836 9.41602H111.418L109.016 18H107.369L105.535 11.7129L103.525 18H101.891ZM112.812 18V9.41602H114.4V12.9258H118.279V9.41602H119.867V18H118.279V14.1797H114.4V18H112.812ZM121.255 18L124.413 9.41016H126.142L129.253 18H127.624L126.774 15.5742H123.769L122.913 18H121.255ZM124.167 14.3906H126.37C125.667 12.1367 125.306 10.9727 125.286 10.8984L124.167 14.3906ZM131.778 18V10.6875H129.276V9.41602H135.862V10.6875H133.372V18H131.778ZM142.47 18L140.138 9.41602H141.72L143.384 16.0957L145.341 9.45703H146.859L148.716 16.1191L150.416 9.41602H151.998L149.595 18H147.949L146.115 11.7129L144.105 18H142.47ZM153.392 18V9.41602H158.595L158.53 10.6758H154.98V12.8906H158.355V14.1504H154.98V16.7344H158.659L158.607 18H153.392ZM165.871 16.7285H167.008C167.988 16.7285 168.735 16.4727 169.246 15.9609C169.758 15.4453 170.014 14.6953 170.014 13.7109C170.014 12.6562 169.75 11.8906 169.223 11.4141C168.695 10.9336 167.901 10.6934 166.838 10.6934H165.871V16.7285ZM164.283 18V9.41602H166.768C167.518 9.41602 168.19 9.50195 168.783 9.67383C169.377 9.8457 169.887 10.1055 170.313 10.4531C170.742 10.7969 171.07 11.2422 171.297 11.7891C171.528 12.332 171.643 12.9609 171.643 13.6758C171.643 15.0625 171.225 16.1309 170.389 16.8809C169.553 17.627 168.395 18 166.914 18H164.283ZM175.586 16.0137C176.011 16.5566 176.64 16.8281 177.472 16.8281C178.304 16.8281 178.931 16.5586 179.353 16.0195C179.779 15.4766 179.992 14.7109 179.992 13.7227C179.992 12.7227 179.779 11.9473 179.353 11.3965C178.931 10.8457 178.306 10.5703 177.478 10.5703C176.646 10.5703 176.015 10.8477 175.586 11.4023C175.16 11.9531 174.947 12.7266 174.947 13.7227C174.947 14.707 175.16 15.4707 175.586 16.0137ZM177.466 18.123C176.174 18.123 175.152 17.7324 174.402 16.9512C173.656 16.166 173.283 15.084 173.283 13.7051C173.283 12.3184 173.658 11.2363 174.408 10.459C175.158 9.68164 176.179 9.29297 177.472 9.29297C178.765 9.29297 179.785 9.68359 180.531 10.4648C181.277 11.2422 181.65 12.3242 181.65 13.7109C181.65 15.082 181.275 16.1602 180.525 16.9453C179.775 17.7305 178.756 18.123 177.466 18.123ZM184.603 15.375C184.642 15.0664 184.726 14.7539 184.855 14.4375C184.984 14.1211 185.124 13.8359 185.277 13.582C185.433 13.3281 185.585 13.082 185.734 12.8438C185.886 12.6055 186.011 12.3691 186.109 12.1348C186.21 11.8965 186.261 11.6777 186.261 11.4785C186.257 11.1348 186.148 10.8633 185.933 10.6641C185.722 10.4648 185.427 10.3652 185.048 10.3652C184.806 10.3652 184.571 10.3965 184.345 10.459C184.118 10.5176 183.945 10.5762 183.823 10.6348C183.706 10.6934 183.571 10.7695 183.419 10.8633L183.009 9.89062C183.329 9.68359 183.661 9.5293 184.005 9.42773C184.349 9.32227 184.751 9.26953 185.212 9.26953C185.489 9.26953 185.759 9.3125 186.021 9.39844C186.286 9.48047 186.529 9.60156 186.747 9.76172C186.97 9.91797 187.148 10.127 187.28 10.3887C187.417 10.6504 187.486 10.9453 187.486 11.2734C187.486 11.5391 187.439 11.8008 187.345 12.0586C187.251 12.3164 187.122 12.5703 186.958 12.8203C186.794 13.0703 186.62 13.3145 186.437 13.5527C186.257 13.791 186.054 14.0762 185.827 14.4082C185.605 14.7363 185.413 15.0586 185.253 15.375H184.603ZM184.913 18.1055C184.659 18.1055 184.445 18.0176 184.269 17.8418C184.093 17.666 184.005 17.457 184.005 17.2148C184.005 16.9688 184.093 16.7559 184.269 16.5762C184.445 16.3965 184.659 16.3066 184.913 16.3066C185.163 16.3066 185.374 16.3965 185.546 16.5762C185.718 16.7559 185.804 16.9688 185.804 17.2148C185.804 17.457 185.718 17.666 185.546 17.8418C185.374 18.0176 185.163 18.1055 184.913 18.1055Z" fill="#00FFFF"/>
<path fill-rule="evenodd" clip-rule="evenodd" d="M215.149 1H208.5V0H215.149C219.063 0 222.895 1.12022 226.192 3.2283L246.84 16.4292C249.976 18.4344 253.621 19.5 257.343 19.5H264.5V20.5H257.343C253.43 20.5 249.598 19.3798 246.301 17.2717L225.653 4.07082C222.517 2.06557 218.872 1 215.149 1Z" fill="#828FA1"/>
<path fill-rule="evenodd" clip-rule="evenodd" d="M288 20.5H264.5V19.5H288V20.5Z" fill="#828FA1"/>
</svg>
