<svg width="1390" height="29" viewBox="0 0 1390 29" fill="none" xmlns="http://www.w3.org/2000/svg">
<path fill-rule="evenodd" clip-rule="evenodd" d="M498 20.5H0V19.5H498V20.5Z" fill="#828FA1"/>
<path fill-rule="evenodd" clip-rule="evenodd" d="M504.649 19.5H498V20.5H504.649C508.563 20.5 512.395 19.3798 515.692 17.2717L536.34 4.07082C539.476 2.06557 543.121 1 546.843 1H554V0H546.843C542.93 0 539.098 1.12022 535.801 3.2283L515.153 16.4292C512.017 18.4344 508.372 19.5 504.649 19.5Z" fill="#828FA1"/>
<path fill-rule="evenodd" clip-rule="evenodd" d="M836 1H554V0H836V1Z" fill="#828FA1"/>
<path d="M598.445 22.1562C597.065 22.1562 595.828 21.8385 594.734 21.2031L595.25 19.5234C595.74 19.7943 596.271 20.013 596.844 20.1797C597.422 20.3464 597.984 20.4297 598.531 20.4297C599.203 20.4297 599.711 20.2865 600.055 20C600.398 19.7083 600.57 19.2917 600.57 18.75C600.57 18.0312 600.091 17.5339 599.133 17.2578C599.065 17.237 598.875 17.1823 598.562 17.0938C598.25 17 597.956 16.9115 597.68 16.8281C597.409 16.7396 597.214 16.6719 597.094 16.625C595.557 16.0833 594.789 15.0729 594.789 13.5938C594.789 12.5573 595.156 11.7578 595.891 11.1953C596.63 10.6328 597.609 10.3516 598.828 10.3516C600.208 10.3516 601.398 10.6354 602.398 11.2031L601.758 12.75C600.737 12.2917 599.789 12.0625 598.914 12.0625C598.284 12.0625 597.807 12.1745 597.484 12.3984C597.167 12.6172 596.997 12.9844 596.977 13.5C596.977 14.1354 597.292 14.5495 597.922 14.7422C598.047 14.7891 598.354 14.8906 598.844 15.0469C599.333 15.2031 599.651 15.3047 599.797 15.3516C600.844 15.6953 601.591 16.1224 602.039 16.6328C602.492 17.1432 602.719 17.8542 602.719 18.7656C602.719 19.8542 602.333 20.6927 601.562 21.2812C600.792 21.8646 599.753 22.1562 598.445 22.1562ZM605.171 22V10.5547H612.109L612.023 12.2344H607.288V15.1875H611.788V16.8672H607.288V20.3125H612.195L612.124 22H605.171ZM614.811 22V10.5547H621.749L621.663 12.2344H616.928V15.1875H621.428V16.8672H616.928V20.3125H621.835L621.764 22H614.811ZM624.443 22V10.5547H626.568V15.7109C626.938 15.2214 627.693 14.3073 628.834 12.9688C629.98 11.6302 630.662 10.8255 630.881 10.5547H633.389L629.061 15.7031L633.662 22H631.178L627.443 16.8672L626.568 17.6016V22H624.443ZM635.677 22V10.5547H637.794V22H635.677ZM640.966 22V10.5547H643.216C643.622 11.1901 644.447 12.4714 645.692 14.3984C646.937 16.3255 647.695 17.4974 647.966 17.9141C648.044 18.0339 648.177 18.237 648.364 18.5234C648.557 18.8047 648.692 19.0052 648.77 19.125C648.734 17.3385 648.716 16.4115 648.716 16.3438V10.5547H650.645V22H648.364L643.2 13.9531L642.825 13.3359C642.867 14.7109 642.888 15.6771 642.888 16.2344V22H640.966ZM658.856 22.1641C657.111 22.1641 655.746 21.638 654.762 20.5859C653.783 19.5339 653.293 18.0938 653.293 16.2656C653.293 15.1042 653.522 14.0833 653.981 13.2031C654.439 12.3177 655.113 11.6276 656.004 11.1328C656.895 10.638 657.947 10.3906 659.16 10.3906C660.551 10.3906 661.744 10.6901 662.738 11.2891L662.051 12.8672C661.103 12.3568 660.153 12.1016 659.199 12.1016C658.043 12.1016 657.134 12.4766 656.473 13.2266C655.811 13.9766 655.481 14.9974 655.481 16.2891C655.481 17.5703 655.775 18.5833 656.363 19.3281C656.952 20.0729 657.814 20.4453 658.949 20.4453C659.679 20.4453 660.34 20.3307 660.934 20.1016V17.4453H658.535L658.551 15.7812H662.926V21.3047C662.218 21.5964 661.546 21.8125 660.91 21.9531C660.28 22.0938 659.595 22.1641 658.856 22.1641ZM673.323 19.3516C673.891 20.0755 674.729 20.4375 675.839 20.4375C676.948 20.4375 677.784 20.0781 678.347 19.3594C678.914 18.6354 679.198 17.6146 679.198 16.2969C679.198 14.9635 678.914 13.9297 678.347 13.1953C677.784 12.4609 676.951 12.0938 675.847 12.0938C674.737 12.0938 673.896 12.4635 673.323 13.2031C672.755 13.9375 672.472 14.9688 672.472 16.2969C672.472 17.6094 672.755 18.6276 673.323 19.3516ZM675.831 22.1641C674.107 22.1641 672.745 21.6432 671.745 20.6016C670.75 19.5547 670.253 18.112 670.253 16.2734C670.253 14.4245 670.753 12.9818 671.753 11.9453C672.753 10.9089 674.115 10.3906 675.839 10.3906C677.563 10.3906 678.922 10.9115 679.917 11.9531C680.912 12.9896 681.409 14.4323 681.409 16.2812C681.409 18.1094 680.909 19.5469 679.909 20.5938C678.909 21.6406 677.55 22.1641 675.831 22.1641ZM688.526 22.1641C687.026 22.1641 685.888 21.7917 685.112 21.0469C684.336 20.2969 683.948 19.2422 683.948 17.8828V10.5547H686.073V17.7031C686.073 18.6562 686.265 19.3516 686.651 19.7891C687.041 20.2266 687.679 20.4453 688.565 20.4453C689.434 20.4453 690.065 20.2266 690.455 19.7891C690.846 19.3464 691.041 18.6484 691.041 17.6953V10.5547H693.158V17.8984C693.158 19.2474 692.763 20.2969 691.971 21.0469C691.179 21.7917 690.031 22.1641 688.526 22.1641ZM698.377 22V12.25H695.041V10.5547H703.822V12.25H700.502V22H698.377ZM709.017 22.1562C707.636 22.1562 706.399 21.8385 705.306 21.2031L705.821 19.5234C706.311 19.7943 706.842 20.013 707.415 20.1797C707.993 20.3464 708.556 20.4297 709.103 20.4297C709.774 20.4297 710.282 20.2865 710.626 20C710.97 19.7083 711.142 19.2917 711.142 18.75C711.142 18.0312 710.662 17.5339 709.704 17.2578C709.636 17.237 709.446 17.1823 709.134 17.0938C708.821 17 708.527 16.9115 708.251 16.8281C707.98 16.7396 707.785 16.6719 707.665 16.625C706.129 16.0833 705.36 15.0729 705.36 13.5938C705.36 12.5573 705.728 11.7578 706.462 11.1953C707.201 10.6328 708.181 10.3516 709.399 10.3516C710.78 10.3516 711.97 10.6354 712.97 11.2031L712.329 12.75C711.308 12.2917 710.36 12.0625 709.485 12.0625C708.855 12.0625 708.379 12.1745 708.056 12.3984C707.738 12.6172 707.569 12.9844 707.548 13.5C707.548 14.1354 707.863 14.5495 708.493 14.7422C708.618 14.7891 708.925 14.8906 709.415 15.0469C709.905 15.2031 710.222 15.3047 710.368 15.3516C711.415 15.6953 712.162 16.1224 712.61 16.6328C713.063 17.1432 713.29 17.8542 713.29 18.7656C713.29 19.8542 712.905 20.6927 712.134 21.2812C711.363 21.8646 710.324 22.1562 709.017 22.1562ZM715.797 22V10.5547H717.914V22H715.797ZM723.211 20.3047H724.726C726.034 20.3047 727.028 19.9635 727.711 19.2812C728.393 18.5938 728.734 17.5938 728.734 16.2812C728.734 14.875 728.382 13.8542 727.679 13.2188C726.976 12.5781 725.916 12.2578 724.5 12.2578H723.211V20.3047ZM721.093 22V10.5547H724.406C725.406 10.5547 726.302 10.6693 727.093 10.8984C727.885 11.1276 728.565 11.474 729.132 11.9375C729.705 12.3958 730.143 12.9896 730.445 13.7188C730.752 14.4427 730.906 15.2812 730.906 16.2344C730.906 18.0833 730.349 19.5078 729.234 20.5078C728.119 21.5026 726.575 22 724.601 22H721.093ZM733.554 22V10.5547H740.491L740.405 12.2344H735.671V15.1875H740.171V16.8672H735.671V20.3125H740.577L740.507 22H733.554ZM748.068 22V10.5547H750.185V15.2344H755.357V10.5547H757.474V22H755.357V16.9062H750.185V22H748.068ZM760.583 22V10.5547H767.521L767.435 12.2344H762.7V15.1875H767.2V16.8672H762.7V20.3125H767.607L767.536 22H760.583ZM770.223 22V10.5547H772.34V20.3125H777.129L777.067 22H770.223ZM779.183 22V10.5234H782.996C783.897 10.5234 784.668 10.6406 785.308 10.875C785.949 11.1042 786.454 11.4792 786.824 12C787.199 12.5208 787.387 13.1745 787.387 13.9609C787.387 14.5078 787.316 14.9948 787.176 15.4219C787.035 15.8438 786.803 16.2292 786.48 16.5781C786.157 16.9219 785.702 17.1875 785.113 17.375C784.53 17.5625 783.824 17.6562 782.996 17.6562C782.288 17.6562 781.712 17.6354 781.269 17.5938V22H779.183ZM782.769 16.125C783.202 16.125 783.577 16.0833 783.894 16C784.217 15.9167 784.467 15.8099 784.644 15.6797C784.827 15.5495 784.97 15.388 785.074 15.1953C785.183 15.0026 785.254 14.8177 785.285 14.6406C785.321 14.4583 785.34 14.2552 785.34 14.0312C785.34 13.401 785.137 12.9219 784.73 12.5938C784.324 12.2656 783.751 12.1016 783.012 12.1016H781.269V16.1094C781.332 16.1198 781.832 16.125 782.769 16.125ZM790.902 18.5C790.954 18.0885 791.066 17.6719 791.238 17.25C791.409 16.8281 791.597 16.4479 791.8 16.1094C792.008 15.7708 792.211 15.4427 792.409 15.125C792.613 14.8073 792.779 14.4922 792.909 14.1797C793.045 13.862 793.113 13.5703 793.113 13.3047C793.107 12.8464 792.961 12.4844 792.675 12.2188C792.394 11.9531 792.001 11.8203 791.495 11.8203C791.172 11.8203 790.86 11.862 790.558 11.9453C790.256 12.0234 790.024 12.1016 789.863 12.1797C789.706 12.2578 789.527 12.3594 789.323 12.4844L788.777 11.1875C789.204 10.9115 789.646 10.7057 790.105 10.5703C790.563 10.4297 791.099 10.3594 791.714 10.3594C792.084 10.3594 792.443 10.4167 792.792 10.5312C793.146 10.6406 793.469 10.8021 793.761 11.0156C794.058 11.224 794.295 11.5026 794.472 11.8516C794.654 12.2005 794.745 12.5938 794.745 13.0312C794.745 13.3854 794.683 13.7344 794.558 14.0781C794.433 14.4219 794.261 14.7604 794.042 15.0938C793.823 15.4271 793.592 15.7526 793.347 16.0703C793.107 16.388 792.836 16.7682 792.534 17.2109C792.238 17.6484 791.982 18.0781 791.769 18.5H790.902ZM791.316 22.1406C790.977 22.1406 790.691 22.0234 790.456 21.7891C790.222 21.5547 790.105 21.276 790.105 20.9531C790.105 20.625 790.222 20.3411 790.456 20.1016C790.691 19.862 790.977 19.7422 791.316 19.7422C791.649 19.7422 791.93 19.862 792.159 20.1016C792.389 20.3411 792.503 20.625 792.503 20.9531C792.503 21.276 792.389 21.5547 792.159 21.7891C791.93 22.0234 791.649 22.1406 791.316 22.1406Z" fill="#00FFFF"/>
<path fill-rule="evenodd" clip-rule="evenodd" d="M842.649 1H836V0H842.649C846.563 0 850.395 1.12022 853.692 3.2283L874.34 16.4292C877.476 18.4344 881.121 19.5 884.843 19.5H892V20.5H884.843C880.93 20.5 877.098 19.3798 873.801 17.2717L853.153 4.07082C850.017 2.06557 846.372 1 842.649 1Z" fill="#828FA1"/>
<path fill-rule="evenodd" clip-rule="evenodd" d="M1390 20.5H892V19.5H1390V20.5Z" fill="#828FA1"/>
</svg>
