<svg width="497" height="161" viewBox="0 0 497 161" fill="none" xmlns="http://www.w3.org/2000/svg">
<mask id="path-1-outside-1_472_17580" maskUnits="userSpaceOnUse" x="-21.08" y="-361.433" width="538.607" height="537.699" fill="black">
<rect fill="white" x="-21.08" y="-361.433" width="538.607" height="537.699"/>
<path fill-rule="evenodd" clip-rule="evenodd" d="M477.253 5.78353C477.326 5.59643 477.399 5.40925 477.472 5.22192C479.215 0.729867 480.839 -3.82299 482.34 -8.43195C490.232 -32.6728 494.712 -58.4658 495.235 -85.1341C495.321 -89.5179 495.3 -93.9253 495.17 -98.3534L404.195 -90.3394C405.937 -59.2307 404.671 -29.2413 400.795 -1.2486C400.169 3.27425 399.474 7.74495 398.713 12.1598L477.205 5.24536L477.253 5.78353ZM414.234 -2.43243L468.02 -7.17053C476.487 -31.2991 481.37 -57.1518 482.046 -83.9723L417.887 -78.3205C418.693 -52.0228 417.403 -26.5556 414.234 -2.43243ZM19.2181 -190.445L19.1765 -190.916C19.1126 -190.753 19.0487 -190.589 18.985 -190.425C17.2409 -185.933 15.6164 -181.38 14.1153 -176.771C6.21953 -152.528 1.73715 -126.732 1.21185 -100.061C1.12551 -95.6773 1.14608 -91.2698 1.27596 -86.8417L92.1114 -94.8434C90.3696 -125.955 91.6355 -155.946 95.5127 -183.941C96.1391 -188.464 96.8336 -192.935 97.5947 -197.349L19.2181 -190.445ZM82.074 -182.757L28.4354 -178.032C19.9648 -153.902 15.0785 -128.046 14.4005 -101.223L78.42 -106.862C77.6135 -133.162 78.9039 -158.632 82.074 -182.757ZM39.8942 44.2687C39.7977 44.1106 39.7014 43.9524 39.6052 43.7941C37.1032 39.676 34.7083 35.4772 32.425 31.2016C20.4163 8.71378 11.4964 -15.8989 6.31876 -42.0651C5.46766 -46.3663 4.71768 -50.7095 4.07171 -55.0922L94.9082 -63.0941C98.632 -32.1599 105.121 -2.85356 113.832 24.0304C115.239 28.374 116.704 32.6545 118.225 36.8683L39.8505 43.7725L39.8942 44.2687ZM100.393 25.2142C93.0549 2.01656 87.3324 -22.8329 83.5289 -48.8666L19.5073 -43.2269C24.8618 -16.9375 34.1897 7.66336 46.7445 29.9402L100.393 25.2142ZM378.079 -222.058C379.6 -217.844 381.066 -213.563 382.473 -209.22C391.185 -182.334 397.674 -153.025 401.399 -122.089L492.372 -130.103C491.726 -134.485 490.976 -138.829 490.124 -143.13C484.944 -169.299 476.021 -193.913 464.009 -216.402C461.725 -220.678 459.329 -224.877 456.827 -228.995C456.727 -229.158 456.628 -229.322 456.528 -229.485L456.573 -228.972L378.079 -222.058ZM449.688 -215.141L395.912 -210.403C403.251 -187.204 408.974 -162.352 412.778 -136.316L476.935 -141.968C471.578 -168.26 462.247 -192.863 449.688 -215.141ZM296.532 125.916C309.233 116.009 322.346 99.4248 333.843 73.9769C335.488 70.3378 337.071 66.5694 338.587 62.6772L291.328 66.8403L296.532 125.916ZM297.868 141.082C293.666 143.745 289.438 145.868 285.221 147.477L277.064 54.8719L357.665 47.7717C356.238 52.4358 354.724 56.9799 353.126 61.3965C350.859 67.6644 348.424 73.6754 345.833 79.4083C331.952 110.132 315.124 130.149 297.868 141.082ZM354.657 2.81572C358.589 -20.6558 360.474 -46.2345 359.85 -73.2079L279.614 -66.1398L286.219 8.84457L354.657 2.81572ZM265.349 -78.1083L372.465 -87.5442C372.703 -83.1198 372.876 -78.7257 372.985 -74.365C373.785 -42.4001 371.166 -12.2239 365.805 15.0587L274.267 23.1225L265.349 -78.1083ZM339.544 147.329C348.91 143.524 357.979 139.143 366.713 134.231C401.676 114.569 431.288 86.3967 453.249 52.5765C456.207 48.0201 459.027 43.3612 461.702 38.6068L391.623 44.7802C383.498 75.4134 371.91 102.414 357.553 124.246C351.957 132.756 345.94 140.48 339.544 147.329ZM381.407 109.278C402.545 94.1307 421.089 75.4392 436.314 54.0683L401.847 57.1046C396.338 75.8912 389.49 93.4199 381.407 109.278ZM233.636 -75.3147L242.553 25.9162L151.133 33.9695C141.085 8.04418 133.231 -21.2095 128.431 -52.8221C127.776 -57.1347 127.178 -61.4912 126.639 -65.8892L233.636 -75.3147ZM141.566 -53.9791C145.667 -27.3119 151.995 -2.45661 159.969 19.9661L228.289 13.9477L221.684 -61.0368L141.566 -53.9791ZM60.968 73.908C64.4332 78.1215 68.0241 82.2157 71.7337 86.1847C99.2135 115.586 133.213 138.116 170.984 151.373C180.446 154.694 190.145 157.433 200.037 159.553C192.54 153.92 185.265 147.357 178.266 139.947C160.346 120.973 144.244 96.4446 130.909 67.7469L60.968 73.908ZM88.6682 84.6929C107.334 103.013 128.78 118.135 152.152 129.343C141.456 115.172 131.681 99.1526 122.998 81.6688L88.6682 84.6929ZM164.868 64.7554C167.087 69.0984 169.373 73.3077 171.718 77.377C175.046 83.1519 178.495 88.6446 182.048 93.8363C201.045 121.599 221.067 138.353 239.933 146.124C244.536 148.02 249.071 149.381 253.505 150.237L245.35 57.6656L164.868 64.7554ZM186.257 76.0962C188.431 79.6632 190.648 83.0969 192.903 86.3925C208.626 109.37 224.391 123.392 238.595 130.942L233.398 71.9435L186.257 76.0962ZM369.668 -119.294C369.129 -123.692 368.531 -128.048 367.876 -132.361C363.075 -163.976 355.22 -193.232 345.171 -219.159L253.634 -211.095L262.552 -109.858L369.668 -119.294ZM274.505 -124.136L354.741 -131.204C350.64 -157.874 344.311 -182.731 336.335 -205.155L267.899 -199.127L274.505 -124.136ZM257.586 -316.191L262.79 -257.122L310.046 -261.285C307.873 -264.85 305.657 -268.282 303.403 -271.575C287.634 -294.621 271.823 -308.658 257.586 -316.191ZM250.837 -242.845L331.436 -249.945C329.216 -254.288 326.93 -258.497 324.585 -262.566C321.258 -268.339 317.81 -273.829 314.259 -279.019C295.22 -306.843 275.152 -323.61 256.25 -331.358C251.647 -333.245 247.113 -334.597 242.68 -335.443L250.837 -242.845ZM435.459 -259.108C431.993 -263.322 428.402 -267.416 424.691 -271.385C397.166 -300.827 363.102 -323.376 325.259 -336.621C315.803 -339.93 306.111 -342.659 296.226 -344.769C303.718 -339.143 310.99 -332.589 317.984 -325.189C335.926 -306.208 352.046 -281.661 365.395 -252.936L435.459 -259.108ZM407.755 -269.893C389.038 -288.257 367.527 -303.407 344.083 -314.621C354.805 -300.428 364.604 -284.378 373.306 -266.858L407.755 -269.893ZM157.722 -247.867L204.86 -252.019L199.663 -311.011C186.997 -301.094 173.927 -284.532 162.463 -259.16C160.82 -255.523 159.238 -251.757 157.722 -247.867ZM143.183 -246.586C141.585 -242.17 140.071 -237.626 138.644 -232.961L219.124 -240.051L210.97 -332.616C206.754 -330.998 202.527 -328.865 198.326 -326.193C181.11 -315.244 164.325 -295.248 150.473 -264.591C147.884 -258.86 145.45 -252.852 143.183 -246.586ZM141.651 -188.005C137.718 -164.532 135.833 -138.951 136.457 -111.975L216.575 -119.033L209.969 -194.024L141.651 -188.005ZM123.322 -110.818C123.431 -106.457 123.604 -102.063 123.842 -97.6386L230.839 -107.064L221.921 -208.301L130.503 -200.248C125.141 -172.964 122.522 -142.785 123.322 -110.818ZM156.668 -332.41C147.301 -328.593 138.233 -324.2 129.5 -319.276C94.6475 -299.625 65.125 -271.513 43.215 -237.78C40.2556 -233.223 37.435 -228.565 34.7589 -223.81L104.685 -229.97C112.794 -260.54 124.352 -287.493 138.669 -309.3C144.261 -317.819 150.275 -325.552 156.668 -332.41ZM60.1514 -239.272C75.3193 -260.556 93.7787 -279.181 114.815 -294.293C106.769 -278.481 99.9507 -261.012 94.4621 -242.294L60.1514 -239.272Z"/>
</mask>
<path fill-rule="evenodd" clip-rule="evenodd" d="M477.253 5.78353C477.326 5.59643 477.399 5.40925 477.472 5.22192C479.215 0.729867 480.839 -3.82299 482.34 -8.43195C490.232 -32.6728 494.712 -58.4658 495.235 -85.1341C495.321 -89.5179 495.3 -93.9253 495.17 -98.3534L404.195 -90.3394C405.937 -59.2307 404.671 -29.2413 400.795 -1.2486C400.169 3.27425 399.474 7.74495 398.713 12.1598L477.205 5.24536L477.253 5.78353ZM414.234 -2.43243L468.02 -7.17053C476.487 -31.2991 481.37 -57.1518 482.046 -83.9723L417.887 -78.3205C418.693 -52.0228 417.403 -26.5556 414.234 -2.43243ZM19.2181 -190.445L19.1765 -190.916C19.1126 -190.753 19.0487 -190.589 18.985 -190.425C17.2409 -185.933 15.6164 -181.38 14.1153 -176.771C6.21953 -152.528 1.73715 -126.732 1.21185 -100.061C1.12551 -95.6773 1.14608 -91.2698 1.27596 -86.8417L92.1114 -94.8434C90.3696 -125.955 91.6355 -155.946 95.5127 -183.941C96.1391 -188.464 96.8336 -192.935 97.5947 -197.349L19.2181 -190.445ZM82.074 -182.757L28.4354 -178.032C19.9648 -153.902 15.0785 -128.046 14.4005 -101.223L78.42 -106.862C77.6135 -133.162 78.9039 -158.632 82.074 -182.757ZM39.8942 44.2687C39.7977 44.1106 39.7014 43.9524 39.6052 43.7941C37.1032 39.676 34.7083 35.4772 32.425 31.2016C20.4163 8.71378 11.4964 -15.8989 6.31876 -42.0651C5.46766 -46.3663 4.71768 -50.7095 4.07171 -55.0922L94.9082 -63.0941C98.632 -32.1599 105.121 -2.85356 113.832 24.0304C115.239 28.374 116.704 32.6545 118.225 36.8683L39.8505 43.7725L39.8942 44.2687ZM100.393 25.2142C93.0549 2.01656 87.3324 -22.8329 83.5289 -48.8666L19.5073 -43.2269C24.8618 -16.9375 34.1897 7.66336 46.7445 29.9402L100.393 25.2142ZM378.079 -222.058C379.6 -217.844 381.066 -213.563 382.473 -209.22C391.185 -182.334 397.674 -153.025 401.399 -122.089L492.372 -130.103C491.726 -134.485 490.976 -138.829 490.124 -143.13C484.944 -169.299 476.021 -193.913 464.009 -216.402C461.725 -220.678 459.329 -224.877 456.827 -228.995C456.727 -229.158 456.628 -229.322 456.528 -229.485L456.573 -228.972L378.079 -222.058ZM449.688 -215.141L395.912 -210.403C403.251 -187.204 408.974 -162.352 412.778 -136.316L476.935 -141.968C471.578 -168.26 462.247 -192.863 449.688 -215.141ZM296.532 125.916C309.233 116.009 322.346 99.4248 333.843 73.9769C335.488 70.3378 337.071 66.5694 338.587 62.6772L291.328 66.8403L296.532 125.916ZM297.868 141.082C293.666 143.745 289.438 145.868 285.221 147.477L277.064 54.8719L357.665 47.7717C356.238 52.4358 354.724 56.9799 353.126 61.3965C350.859 67.6644 348.424 73.6754 345.833 79.4083C331.952 110.132 315.124 130.149 297.868 141.082ZM354.657 2.81572C358.589 -20.6558 360.474 -46.2345 359.85 -73.2079L279.614 -66.1398L286.219 8.84457L354.657 2.81572ZM265.349 -78.1083L372.465 -87.5442C372.703 -83.1198 372.876 -78.7257 372.985 -74.365C373.785 -42.4001 371.166 -12.2239 365.805 15.0587L274.267 23.1225L265.349 -78.1083ZM339.544 147.329C348.91 143.524 357.979 139.143 366.713 134.231C401.676 114.569 431.288 86.3967 453.249 52.5765C456.207 48.0201 459.027 43.3612 461.702 38.6068L391.623 44.7802C383.498 75.4134 371.91 102.414 357.553 124.246C351.957 132.756 345.94 140.48 339.544 147.329ZM381.407 109.278C402.545 94.1307 421.089 75.4392 436.314 54.0683L401.847 57.1046C396.338 75.8912 389.49 93.4199 381.407 109.278ZM233.636 -75.3147L242.553 25.9162L151.133 33.9695C141.085 8.04418 133.231 -21.2095 128.431 -52.8221C127.776 -57.1347 127.178 -61.4912 126.639 -65.8892L233.636 -75.3147ZM141.566 -53.9791C145.667 -27.3119 151.995 -2.45661 159.969 19.9661L228.289 13.9477L221.684 -61.0368L141.566 -53.9791ZM60.968 73.908C64.4332 78.1215 68.0241 82.2157 71.7337 86.1847C99.2135 115.586 133.213 138.116 170.984 151.373C180.446 154.694 190.145 157.433 200.037 159.553C192.54 153.92 185.265 147.357 178.266 139.947C160.346 120.973 144.244 96.4446 130.909 67.7469L60.968 73.908ZM88.6682 84.6929C107.334 103.013 128.78 118.135 152.152 129.343C141.456 115.172 131.681 99.1526 122.998 81.6688L88.6682 84.6929ZM164.868 64.7554C167.087 69.0984 169.373 73.3077 171.718 77.377C175.046 83.1519 178.495 88.6446 182.048 93.8363C201.045 121.599 221.067 138.353 239.933 146.124C244.536 148.02 249.071 149.381 253.505 150.237L245.35 57.6656L164.868 64.7554ZM186.257 76.0962C188.431 79.6632 190.648 83.0969 192.903 86.3925C208.626 109.37 224.391 123.392 238.595 130.942L233.398 71.9435L186.257 76.0962ZM369.668 -119.294C369.129 -123.692 368.531 -128.048 367.876 -132.361C363.075 -163.976 355.22 -193.232 345.171 -219.159L253.634 -211.095L262.552 -109.858L369.668 -119.294ZM274.505 -124.136L354.741 -131.204C350.64 -157.874 344.311 -182.731 336.335 -205.155L267.899 -199.127L274.505 -124.136ZM257.586 -316.191L262.79 -257.122L310.046 -261.285C307.873 -264.85 305.657 -268.282 303.403 -271.575C287.634 -294.621 271.823 -308.658 257.586 -316.191ZM250.837 -242.845L331.436 -249.945C329.216 -254.288 326.93 -258.497 324.585 -262.566C321.258 -268.339 317.81 -273.829 314.259 -279.019C295.22 -306.843 275.152 -323.61 256.25 -331.358C251.647 -333.245 247.113 -334.597 242.68 -335.443L250.837 -242.845ZM435.459 -259.108C431.993 -263.322 428.402 -267.416 424.691 -271.385C397.166 -300.827 363.102 -323.376 325.259 -336.621C315.803 -339.93 306.111 -342.659 296.226 -344.769C303.718 -339.143 310.99 -332.589 317.984 -325.189C335.926 -306.208 352.046 -281.661 365.395 -252.936L435.459 -259.108ZM407.755 -269.893C389.038 -288.257 367.527 -303.407 344.083 -314.621C354.805 -300.428 364.604 -284.378 373.306 -266.858L407.755 -269.893ZM157.722 -247.867L204.86 -252.019L199.663 -311.011C186.997 -301.094 173.927 -284.532 162.463 -259.16C160.82 -255.523 159.238 -251.757 157.722 -247.867ZM143.183 -246.586C141.585 -242.17 140.071 -237.626 138.644 -232.961L219.124 -240.051L210.97 -332.616C206.754 -330.998 202.527 -328.865 198.326 -326.193C181.11 -315.244 164.325 -295.248 150.473 -264.591C147.884 -258.86 145.45 -252.852 143.183 -246.586ZM141.651 -188.005C137.718 -164.532 135.833 -138.951 136.457 -111.975L216.575 -119.033L209.969 -194.024L141.651 -188.005ZM123.322 -110.818C123.431 -106.457 123.604 -102.063 123.842 -97.6386L230.839 -107.064L221.921 -208.301L130.503 -200.248C125.141 -172.964 122.522 -142.785 123.322 -110.818ZM156.668 -332.41C147.301 -328.593 138.233 -324.2 129.5 -319.276C94.6475 -299.625 65.125 -271.513 43.215 -237.78C40.2556 -233.223 37.435 -228.565 34.7589 -223.81L104.685 -229.97C112.794 -260.54 124.352 -287.493 138.669 -309.3C144.261 -317.819 150.275 -325.552 156.668 -332.41ZM60.1514 -239.272C75.3193 -260.556 93.7787 -279.181 114.815 -294.293C106.769 -278.481 99.9507 -261.012 94.4621 -242.294L60.1514 -239.272Z" stroke="url(#paint0_linear_472_17580)" stroke-width="1.97344" mask="url(#path-1-outside-1_472_17580)"/>
<defs>
<linearGradient id="paint0_linear_472_17580" x1="237.502" y1="-18.5509" x2="312.102" y2="144.468" gradientUnits="userSpaceOnUse">
<stop stop-color="#0745F9" stop-opacity="0.42"/>
<stop offset="1" stop-color="#00FFFF"/>
</linearGradient>
</defs>
</svg>
