<svg width="288" height="33" viewBox="0 0 288 33" fill="none" xmlns="http://www.w3.org/2000/svg">
<path fill-rule="evenodd" clip-rule="evenodd" d="M24.5 20.5H0V19.5H24.5V20.5Z" fill="#828FA1"/>
<path fill-rule="evenodd" clip-rule="evenodd" d="M31.1494 19.5H24.5V20.5H31.1494C35.0629 20.5 38.8947 19.3798 42.192 17.2717L62.8395 4.07082C65.9759 2.06557 69.6208 1 73.3434 1H80.5V0H73.3434C69.4299 0 65.5981 1.12022 62.3008 3.2283L41.6533 16.4292C38.5169 18.4344 34.872 19.5 31.1494 19.5Z" fill="#828FA1"/>
<path fill-rule="evenodd" clip-rule="evenodd" d="M207.5 1H80.5V0H207.5V1Z" fill="#828FA1"/>
<path d="M103.198 18L100.866 9.41602H102.448L104.112 16.0957L106.069 9.45703H107.586L109.444 16.1191L111.143 9.41602H112.725L110.323 18H108.676L106.842 11.7129L104.832 18H103.198ZM114.119 18V9.41602H115.707V12.9258H119.586V9.41602H121.174V18H119.586V14.1797H115.707V18H114.119ZM122.562 18L125.72 9.41016H127.449L130.56 18H128.931L128.081 15.5742H125.076L124.22 18H122.562ZM125.474 14.3906H127.677C126.974 12.1367 126.613 10.9727 126.593 10.8984L125.474 14.3906ZM133.085 18V10.6875H130.583V9.41602H137.169V10.6875H134.679V18H133.085ZM143.906 16.7285H145.043C146.023 16.7285 146.77 16.4727 147.281 15.9609C147.793 15.4453 148.049 14.6953 148.049 13.7109C148.049 12.6562 147.785 11.8906 147.258 11.4141C146.73 10.9336 145.936 10.6934 144.873 10.6934H143.906V16.7285ZM142.318 18V9.41602H144.803C145.553 9.41602 146.225 9.50195 146.818 9.67383C147.412 9.8457 147.922 10.1055 148.348 10.4531C148.777 10.7969 149.105 11.2422 149.332 11.7891C149.562 12.332 149.678 12.9609 149.678 13.6758C149.678 15.0625 149.26 16.1309 148.424 16.8809C147.588 17.627 146.43 18 144.949 18H142.318ZM153.621 16.0137C154.046 16.5566 154.675 16.8281 155.507 16.8281C156.339 16.8281 156.966 16.5586 157.388 16.0195C157.814 15.4766 158.027 14.7109 158.027 13.7227C158.027 12.7227 157.814 11.9473 157.388 11.3965C156.966 10.8457 156.341 10.5703 155.513 10.5703C154.681 10.5703 154.05 10.8477 153.621 11.4023C153.195 11.9531 152.982 12.7266 152.982 13.7227C152.982 14.707 153.195 15.4707 153.621 16.0137ZM155.501 18.123C154.209 18.123 153.187 17.7324 152.437 16.9512C151.691 16.166 151.318 15.084 151.318 13.7051C151.318 12.3184 151.693 11.2363 152.443 10.459C153.193 9.68164 154.214 9.29297 155.507 9.29297C156.8 9.29297 157.82 9.68359 158.566 10.4648C159.312 11.2422 159.685 12.3242 159.685 13.7109C159.685 15.082 159.31 16.1602 158.56 16.9453C157.81 17.7305 156.791 18.123 155.501 18.123ZM166.792 18L164.46 9.41602H166.042L167.706 16.0957L169.663 9.45703H171.18L173.038 16.1191L174.737 9.41602H176.319L173.917 18H172.27L170.436 11.7129L168.426 18H166.792ZM177.713 18V9.41602H182.916L182.852 10.6758H179.301V12.8906H182.676V14.1504H179.301V16.7344H182.981L182.928 18H177.713ZM125.901 31V22.416H127.489V25.9258H131.368V22.416H132.956V31H131.368V27.1797H127.489V31H125.901ZM134.344 31L137.502 22.4102H139.231L142.342 31H140.713L139.864 28.5742H136.858L136.002 31H134.344ZM137.256 27.3906H139.459C138.756 25.1367 138.395 23.9727 138.375 23.8984L137.256 27.3906ZM145.523 31L142.4 22.416H144.035L145.852 27.7188C145.922 27.9023 146.084 28.4395 146.338 29.3301C146.354 29.2676 146.426 29.0117 146.555 28.5625C146.684 28.1094 146.768 27.832 146.807 27.7305C146.854 27.5977 147.15 26.7168 147.697 25.0879C148.244 23.4551 148.543 22.5645 148.594 22.416H150.211L147.129 31H145.523ZM151.517 31V22.416H156.72L156.656 23.6758H153.105V25.8906H156.48V27.1504H153.105V29.7344H156.785L156.732 31H151.517ZM159.714 28.375C159.753 28.0664 159.837 27.7539 159.966 27.4375C160.095 27.1211 160.235 26.8359 160.388 26.582C160.544 26.3281 160.696 26.082 160.845 25.8438C160.997 25.6055 161.122 25.3691 161.22 25.1348C161.321 24.8965 161.372 24.6777 161.372 24.4785C161.368 24.1348 161.259 23.8633 161.044 23.6641C160.833 23.4648 160.538 23.3652 160.159 23.3652C159.917 23.3652 159.683 23.3965 159.456 23.459C159.23 23.5176 159.056 23.5762 158.935 23.6348C158.817 23.6934 158.683 23.7695 158.53 23.8633L158.12 22.8906C158.44 22.6836 158.772 22.5293 159.116 22.4277C159.46 22.3223 159.862 22.2695 160.323 22.2695C160.601 22.2695 160.87 22.3125 161.132 22.3984C161.397 22.4805 161.64 22.6016 161.858 22.7617C162.081 22.918 162.259 23.127 162.392 23.3887C162.528 23.6504 162.597 23.9453 162.597 24.2734C162.597 24.5391 162.55 24.8008 162.456 25.0586C162.362 25.3164 162.233 25.5703 162.069 25.8203C161.905 26.0703 161.731 26.3145 161.548 26.5527C161.368 26.791 161.165 27.0762 160.939 27.4082C160.716 27.7363 160.524 28.0586 160.364 28.375H159.714ZM160.024 31.1055C159.771 31.1055 159.556 31.0176 159.38 30.8418C159.204 30.666 159.116 30.457 159.116 30.2148C159.116 29.9688 159.204 29.7559 159.38 29.5762C159.556 29.3965 159.771 29.3066 160.024 29.3066C160.274 29.3066 160.485 29.3965 160.657 29.5762C160.829 29.7559 160.915 29.9688 160.915 30.2148C160.915 30.457 160.829 30.666 160.657 30.8418C160.485 31.0176 160.274 31.1055 160.024 31.1055Z" fill="#00FFFF"/>
<path fill-rule="evenodd" clip-rule="evenodd" d="M214.149 1H207.5V0H214.149C218.063 0 221.895 1.12022 225.192 3.2283L245.84 16.4292C248.976 18.4344 252.621 19.5 256.343 19.5H263.5V20.5H256.343C252.43 20.5 248.598 19.3798 245.301 17.2717L224.653 4.07082C221.517 2.06557 217.872 1 214.149 1Z" fill="#828FA1"/>
<path fill-rule="evenodd" clip-rule="evenodd" d="M288 20.5H263.5V19.5H288V20.5Z" fill="#828FA1"/>
</svg>
