<svg width="1516" height="29" viewBox="0 0 1516 29" fill="none" xmlns="http://www.w3.org/2000/svg">
<path fill-rule="evenodd" clip-rule="evenodd" d="M599.5 20.5H0V19.5H599.5V20.5Z" fill="#828FA1"/>
<path fill-rule="evenodd" clip-rule="evenodd" d="M606.149 19.5H599.5V20.5H606.149C610.063 20.5 613.895 19.3798 617.192 17.2717L637.84 4.07082C640.976 2.06558 644.621 1 648.343 1H655.5V0H648.343C644.43 0 640.598 1.12022 637.301 3.2283L616.653 16.4292C613.517 18.4344 609.872 19.5 606.149 19.5Z" fill="#828FA1"/>
<path fill-rule="evenodd" clip-rule="evenodd" d="M860.5 1H655.5V0H860.5V1Z" fill="#828FA1"/>
<path d="M698.688 22L695.578 10.5547H697.688L699.906 19.4609L702.516 10.6094H704.539L707.016 19.4922L709.281 10.5547H711.391L708.188 22H705.992L703.547 13.6172L700.867 22H698.688ZM713.249 22V10.5547H715.367V15.2344H720.538V10.5547H722.656V22H720.538V16.9062H715.367V22H713.249ZM724.507 22L728.718 10.5469H731.022L735.171 22H732.999L731.866 18.7656H727.858L726.718 22H724.507ZM728.389 17.1875H731.327C730.389 14.1823 729.908 12.6302 729.882 12.5312L728.389 17.1875ZM738.537 22V12.25H735.201V10.5547H743.982V12.25H740.662V22H738.537ZM752.794 22L749.684 10.5547H751.794L754.013 19.4609L756.622 10.6094H758.645L761.122 19.4922L763.388 10.5547H765.497L762.294 22H760.098L757.653 13.6172L754.973 22H752.794ZM767.356 22V10.5547H774.293L774.207 12.2344H769.473V15.1875H773.973V16.8672H769.473V20.3125H774.379L774.309 22H767.356ZM780.612 22L784.823 10.5469H787.128L791.276 22H789.104L787.972 18.7656H783.964L782.823 22H780.612ZM784.495 17.1875H787.433C786.495 14.1823 786.013 12.6302 785.987 12.5312L784.495 17.1875ZM793.002 22V10.5234H797.244C797.823 10.5234 798.323 10.5495 798.744 10.6016C799.171 10.6536 799.575 10.75 799.955 10.8906C800.341 11.026 800.651 11.2109 800.885 11.4453C801.125 11.6797 801.312 11.987 801.448 12.3672C801.588 12.7422 801.658 13.1875 801.658 13.7031C801.658 15.224 800.968 16.224 799.588 16.7031C799.869 17.0208 800.218 17.6094 800.635 18.4688L802.338 22H800.026L798.69 19.0078C798.184 17.9349 797.872 17.2995 797.752 17.1016C797.664 17.0964 797.369 17.0938 796.869 17.0938L795.096 17.0781V22H793.002ZM797.432 15.5625C798.244 15.5625 798.828 15.4193 799.182 15.1328C799.536 14.8411 799.713 14.375 799.713 13.7344C799.713 13.1719 799.533 12.7578 799.174 12.4922C798.815 12.2266 798.265 12.0938 797.526 12.0938H795.096V15.5547C795.174 15.5547 795.562 15.5573 796.26 15.5625C796.958 15.5625 797.349 15.5625 797.432 15.5625ZM804.494 22V10.5547H811.431L811.345 12.2344H806.611V15.1875H811.111V16.8672H806.611V20.3125H811.517L811.447 22H804.494ZM815.423 18.5C815.475 18.0885 815.587 17.6719 815.759 17.25C815.931 16.8281 816.118 16.4479 816.321 16.1094C816.53 15.7708 816.733 15.4427 816.931 15.125C817.134 14.8073 817.3 14.4922 817.431 14.1797C817.566 13.862 817.634 13.5703 817.634 13.3047C817.629 12.8464 817.483 12.4844 817.196 12.2188C816.915 11.9531 816.522 11.8203 816.017 11.8203C815.694 11.8203 815.381 11.862 815.079 11.9453C814.777 12.0234 814.545 12.1016 814.384 12.1797C814.228 12.2578 814.048 12.3594 813.845 12.4844L813.298 11.1875C813.725 10.9115 814.168 10.7057 814.626 10.5703C815.084 10.4297 815.621 10.3594 816.235 10.3594C816.605 10.3594 816.964 10.4167 817.313 10.5312C817.668 10.6406 817.991 10.8021 818.282 11.0156C818.579 11.224 818.816 11.5026 818.993 11.8516C819.175 12.2005 819.267 12.5938 819.267 13.0312C819.267 13.3854 819.204 13.7344 819.079 14.0781C818.954 14.4219 818.782 14.7604 818.563 15.0938C818.345 15.4271 818.113 15.7526 817.868 16.0703C817.629 16.388 817.358 16.7682 817.056 17.2109C816.759 17.6484 816.504 18.0781 816.29 18.5H815.423ZM815.837 22.1406C815.498 22.1406 815.212 22.0234 814.978 21.7891C814.743 21.5547 814.626 21.276 814.626 20.9531C814.626 20.625 814.743 20.3411 814.978 20.1016C815.212 19.862 815.498 19.7422 815.837 19.7422C816.17 19.7422 816.451 19.862 816.681 20.1016C816.91 20.3411 817.024 20.625 817.024 20.9531C817.024 21.276 816.91 21.5547 816.681 21.7891C816.451 22.0234 816.17 22.1406 815.837 22.1406Z" fill="#00FFFF"/>
<path fill-rule="evenodd" clip-rule="evenodd" d="M867.149 1H860.5V0H867.149C871.063 0 874.895 1.12022 878.192 3.2283L898.84 16.4292C901.976 18.4344 905.621 19.5 909.343 19.5H916.5V20.5H909.343C905.43 20.5 901.598 19.3798 898.301 17.2717L877.653 4.07082C874.517 2.06557 870.872 1 867.149 1Z" fill="#828FA1"/>
<path fill-rule="evenodd" clip-rule="evenodd" d="M1516 20.5H916.5V19.5H1516V20.5Z" fill="#828FA1"/>
</svg>
