<svg width="1390" height="29" viewBox="0 0 1390 29" fill="none" xmlns="http://www.w3.org/2000/svg">
<path fill-rule="evenodd" clip-rule="evenodd" d="M545 20.5H0V19.5H545V20.5Z" fill="#828FA1"/>
<path fill-rule="evenodd" clip-rule="evenodd" d="M551.649 19.5H545V20.5H551.649C555.563 20.5 559.395 19.3798 562.692 17.2717L583.34 4.07082C586.476 2.06557 590.121 1 593.843 1H601V0H593.843C589.93 0 586.098 1.12022 582.801 3.2283L562.153 16.4292C559.017 18.4344 555.372 19.5 551.649 19.5Z" fill="#828FA1"/>
<path fill-rule="evenodd" clip-rule="evenodd" d="M789 1H601V0H789V1Z" fill="#828FA1"/>
<path d="M642.234 22V10.5547H644.352V20.3125H649.141L649.078 22H642.234ZM651.249 22V10.5547H658.187L658.101 12.2344H653.367V15.1875H657.867V16.8672H653.367V20.3125H658.273L658.203 22H651.249ZM659.632 22L663.843 10.5469H666.147L670.296 22H668.124L666.991 18.7656H662.983L661.843 22H659.632ZM663.514 17.1875H666.452C665.514 14.1823 665.033 12.6302 665.007 12.5312L663.514 17.1875ZM672.022 22V10.5234H676.264C676.842 10.5234 677.342 10.5495 677.764 10.6016C678.191 10.6536 678.594 10.75 678.975 10.8906C679.36 11.026 679.67 11.2109 679.904 11.4453C680.144 11.6797 680.331 11.987 680.467 12.3672C680.608 12.7422 680.678 13.1875 680.678 13.7031C680.678 15.224 679.988 16.224 678.608 16.7031C678.889 17.0208 679.238 17.6094 679.654 18.4688L681.358 22H679.045L677.709 19.0078C677.204 17.9349 676.891 17.2995 676.772 17.1016C676.683 17.0964 676.389 17.0938 675.889 17.0938L674.115 17.0781V22H672.022ZM676.451 15.5625C677.264 15.5625 677.847 15.4193 678.201 15.1328C678.555 14.8411 678.733 14.375 678.733 13.7344C678.733 13.1719 678.553 12.7578 678.193 12.4922C677.834 12.2266 677.285 12.0938 676.545 12.0938H674.115V15.5547C674.193 15.5547 674.581 15.5573 675.279 15.5625C675.977 15.5625 676.368 15.5625 676.451 15.5625ZM683.513 22V10.5547H685.763C686.169 11.1901 686.995 12.4714 688.24 14.3984C689.484 16.3255 690.242 17.4974 690.513 17.9141C690.591 18.0339 690.724 18.237 690.912 18.5234C691.104 18.8047 691.24 19.0052 691.318 19.125C691.281 17.3385 691.263 16.4115 691.263 16.3438V10.5547H693.193V22H690.912L685.748 13.9531L685.373 13.3359C685.414 14.7109 685.435 15.6771 685.435 16.2344V22H683.513ZM701.168 22V10.5547H703.668L707.129 18.8203L710.613 10.5547H713.082V22H711.129V16.3438L711.192 13.1016L710.903 13.9609L707.973 21.2188H706.16L703.293 13.9219L703.004 13.0625L703.074 16.375V22H701.168ZM718.808 19.3516C719.376 20.0755 720.214 20.4375 721.324 20.4375C722.433 20.4375 723.269 20.0781 723.832 19.3594C724.399 18.6354 724.683 17.6146 724.683 16.2969C724.683 14.9635 724.399 13.9297 723.832 13.1953C723.269 12.4609 722.436 12.0938 721.332 12.0938C720.222 12.0938 719.381 12.4635 718.808 13.2031C718.24 13.9375 717.957 14.9688 717.957 16.2969C717.957 17.6094 718.24 18.6276 718.808 19.3516ZM721.316 22.1641C719.592 22.1641 718.23 21.6432 717.23 20.6016C716.235 19.5547 715.738 18.112 715.738 16.2734C715.738 14.4245 716.238 12.9818 717.238 11.9453C718.238 10.9089 719.6 10.3906 721.324 10.3906C723.048 10.3906 724.407 10.9115 725.402 11.9531C726.397 12.9896 726.894 14.4323 726.894 16.2812C726.894 18.1094 726.394 19.5469 725.394 20.5938C724.394 21.6406 723.035 22.1641 721.316 22.1641ZM729.487 22V10.5234H733.729C734.308 10.5234 734.808 10.5495 735.229 10.6016C735.656 10.6536 736.06 10.75 736.44 10.8906C736.826 11.026 737.136 11.2109 737.37 11.4453C737.61 11.6797 737.797 11.987 737.933 12.3672C738.073 12.7422 738.143 13.1875 738.143 13.7031C738.143 15.224 737.453 16.224 736.073 16.7031C736.354 17.0208 736.703 17.6094 737.12 18.4688L738.823 22H736.511L735.175 19.0078C734.669 17.9349 734.357 17.2995 734.237 17.1016C734.149 17.0964 733.854 17.0938 733.354 17.0938L731.581 17.0781V22H729.487ZM733.917 15.5625C734.729 15.5625 735.313 15.4193 735.667 15.1328C736.021 14.8411 736.198 14.375 736.198 13.7344C736.198 13.1719 736.018 12.7578 735.659 12.4922C735.3 12.2266 734.75 12.0938 734.011 12.0938H731.581V15.5547C731.659 15.5547 732.047 15.5573 732.745 15.5625C733.443 15.5625 733.834 15.5625 733.917 15.5625ZM740.979 22V10.5547H747.916L747.83 12.2344H743.096V15.1875H747.596V16.8672H743.096V20.3125H748.002L747.932 22H740.979Z" fill="#00FFFF"/>
<path fill-rule="evenodd" clip-rule="evenodd" d="M795.649 1H789V0H795.649C799.563 0 803.395 1.12022 806.692 3.2283L827.34 16.4292C830.476 18.4344 834.121 19.5 837.843 19.5H845V20.5H837.843C833.93 20.5 830.098 19.3798 826.801 17.2717L806.153 4.07082C803.017 2.06557 799.372 1 795.649 1Z" fill="#828FA1"/>
<path fill-rule="evenodd" clip-rule="evenodd" d="M1390 20.5H845V19.5H1390V20.5Z" fill="#828FA1"/>
</svg>
