<svg width="103" height="143" viewBox="0 0 103 143" fill="none" xmlns="http://www.w3.org/2000/svg">
<path fill-rule="evenodd" clip-rule="evenodd" d="M41.631 119.987L46.7877 93.2114C43.2891 91.263 41.1564 87.156 42.17 82.6983L42.1705 82.6958C42.9263 79.4109 45.5937 76.6501 48.8694 75.8062C55.2046 74.1358 60.8024 78.9195 60.8024 84.9441C60.8024 88.5026 58.8123 91.6317 55.9366 93.2166L61.0923 119.987H41.631ZM54.7907 92.6459C57.698 91.3747 59.7853 88.3838 59.7853 84.9441C59.7853 79.5604 54.7907 75.2982 49.1253 76.7937C46.218 77.5414 43.8326 80.009 43.1617 82.9252C42.1926 87.1874 44.429 91.0756 47.9326 92.6459L42.8635 118.967H59.8598L54.7907 92.6459Z" fill="url(#paint0_radial_1_3)"/>
<path fill-rule="evenodd" clip-rule="evenodd" d="M91.8373 58.8478H96.6106C99.9651 58.8478 102.649 61.5397 102.649 64.9046V136.763C102.649 140.128 99.9651 142.82 96.6106 142.82H6.03823C2.6837 142.82 0 140.128 0 136.763V64.9046C0 61.5397 2.6837 58.773 6.03823 58.8478H10.8813V40.6025C10.8813 18.1702 29.0703 0 51.3593 0C73.7228 0 91.8373 18.245 91.8373 40.6025V58.8478ZM81.8218 58.5749H90.8202V40.6025C90.8202 18.8072 73.1599 1.0203 51.3593 1.0203C29.6309 1.0203 11.8985 18.7349 11.8985 40.6025V58.5749H20.8968V40.6025C20.8968 23.7382 34.5467 10.0463 51.3593 10.0463C68.1719 10.0463 81.8218 23.7382 81.8218 40.6025V58.5749ZM80.8046 58.8478H21.914V40.6025C21.914 24.3017 35.1085 11.0666 51.3593 11.0666C67.6101 11.0666 80.8046 24.3017 80.8046 40.6025V58.8478ZM6.02693 59.8681L6.01563 59.8679C3.26114 59.8065 1.01718 62.082 1.01718 64.9046V136.763C1.01718 139.564 3.24546 141.799 6.03823 141.799H96.6106C99.4033 141.799 101.632 139.564 101.632 136.763V64.9046C101.632 62.1032 99.4033 59.8681 96.6106 59.8681H6.02693Z" fill="url(#paint1_radial_1_3)"/>
<defs>
<radialGradient id="paint0_radial_1_3" cx="0" cy="0" r="1" gradientUnits="userSpaceOnUse" gradientTransform="translate(987.445 -194.5) rotate(149.956) scale(921.846 881.241)">
<stop stop-color="#032B96"/>
<stop offset="0.451244" stop-color="#2F5BD8"/>
<stop offset="1" stop-color="#00FFFF" stop-opacity="0.43"/>
</radialGradient>
<radialGradient id="paint1_radial_1_3" cx="0" cy="0" r="1" gradientUnits="userSpaceOnUse" gradientTransform="translate(987.445 -194.5) rotate(149.956) scale(921.846 881.241)">
<stop stop-color="#032B96"/>
<stop offset="0.451244" stop-color="#2F5BD8"/>
<stop offset="1" stop-color="#00FFFF" stop-opacity="0.43"/>
</radialGradient>
</defs>
</svg>
