<svg width="1154" height="59" viewBox="0 0 1154 59" fill="none" xmlns="http://www.w3.org/2000/svg">
<path d="M10.555 13.6918V24.469L0.817993 12.686L10.555 0.759338V11.68H252.833C255.818 11.6884 258.772 12.2895 261.524 13.4486C264.277 14.6077 266.773 16.3019 268.87 18.4337L301.232 49.9028C305.081 53.6657 310.181 55.8665 315.551 56.0816H439.983C445.362 55.908 450.477 53.701 454.302 49.9028L486.663 18.4337C490.97 14.146 496.778 11.7215 502.844 11.68H1153.36V13.6918H502.844C497.468 13.8795 492.359 16.0844 488.525 19.8706L456.164 51.3397C454.05 53.4887 451.53 55.1929 448.752 56.3526C445.973 57.5122 442.992 58.1041 439.983 58.0934H316.839C310.773 58.0519 304.965 55.6275 300.659 51.3397L268.154 19.8706C264.329 16.0725 259.214 13.8655 253.835 13.6918H10.555Z" fill="url(#paint0_radial_1_5)"/>
<defs>
<radialGradient id="paint0_radial_1_5" cx="0" cy="0" r="1" gradientUnits="userSpaceOnUse" gradientTransform="translate(801.445 -222.389) rotate(149.956) scale(921.846 881.241)">
<stop stop-color="#032B96"/>
<stop offset="0.451244" stop-color="#2F5BD8"/>
<stop offset="1" stop-color="#00FFFF" stop-opacity="0.43"/>
</radialGradient>
</defs>
</svg>
