<svg width="972" height="70" viewBox="0 0 972 70" fill="none" xmlns="http://www.w3.org/2000/svg">
<path d="M6.58673 6.52675H288.943C297.004 6.6198 304.711 9.86804 310.421 15.5795L353.378 58.6879C356.048 61.4206 359.234 63.5909 362.75 65.0714C366.266 66.5519 370.041 67.3129 373.855 67.3096H539.956C543.745 67.2938 547.493 66.5236 550.983 65.0436C554.474 63.5637 557.637 61.4034 560.289 58.6879L603.246 15.5795C608.973 9.89357 616.669 6.64987 624.725 6.52675H971.103V8.53847H626.157C618.526 8.67812 611.242 11.7664 605.824 17.1602L562.866 60.2685C557.174 66.006 549.456 69.2589 541.388 69.3213H374.571C366.459 69.2657 358.694 66.0146 352.949 60.2685L309.992 17.1602C304.521 11.7574 297.19 8.67086 289.515 8.53847H6.58673V16.0938L0 8.04688L6.58673 0V6.52675Z" fill="url(#paint0_radial_1_6)"/>
<defs>
<radialGradient id="paint0_radial_1_6" cx="0" cy="0" r="1" gradientUnits="userSpaceOnUse" gradientTransform="translate(582.548 -304.623) rotate(149.956) scale(921.846 881.241)">
<stop stop-color="#032B96"/>
<stop offset="0.451244" stop-color="#2F5BD8"/>
<stop offset="1" stop-color="#00FFFF" stop-opacity="0.43"/>
</radialGradient>
</defs>
</svg>
