<svg width="49" height="68" viewBox="0 0 49 68" fill="none" xmlns="http://www.w3.org/2000/svg">
<path fill-rule="evenodd" clip-rule="evenodd" d="M19.0911 57.4278H29.6149L27.118 44.4637C28.4626 43.5732 29.3642 42.0221 29.3642 40.276C29.3642 37.0825 26.3928 34.5401 23.0368 35.4239C21.2898 35.8745 19.8768 37.3378 19.4738 39.0893L19.4733 39.0918C18.9702 41.3045 19.9348 43.3603 21.5886 44.46L19.0911 57.4278ZM28.347 40.276C28.347 41.9068 27.3573 43.325 25.9788 43.9277L28.3823 56.4076H20.3235L22.7271 43.9277C21.0658 43.1832 20.0055 41.3396 20.465 39.3187C20.7831 37.936 21.9142 36.766 23.2926 36.4114C25.9789 35.7024 28.347 37.7233 28.347 40.276Z" fill="url(#paint0_radial_1_2)"/>
<path fill-rule="evenodd" clip-rule="evenodd" d="M43.5438 27.9025V19.2516C43.5438 8.65078 34.955 0 24.3514 0C13.7831 0 5.15881 8.61533 5.15881 19.2516V27.9025H2.86292C1.2724 27.867 0 29.1788 0 30.7743V64.8456C0 66.4411 1.2724 67.7174 2.86292 67.7174H45.8077C47.3982 67.7174 48.6706 66.4411 48.6706 64.8456V30.7743C48.6706 29.1788 47.3982 27.9025 45.8077 27.9025H43.5438ZM42.5267 27.2366H39.3299V19.2516C39.3299 10.9591 32.6184 4.2269 24.3514 4.2269C16.0843 4.2269 9.37268 10.9591 9.37268 19.2516V27.2366H6.17596V19.2516C6.17596 9.18005 14.3436 1.02031 24.3514 1.02031C34.392 1.02031 42.5267 9.21306 42.5267 19.2516V27.2366ZM38.3128 27.9025V19.2516C38.3128 11.5226 32.0567 5.24721 24.3514 5.24721C16.6461 5.24721 10.3899 11.5226 10.3899 19.2516V27.9025H38.3128ZM2.84039 28.9225L2.85168 28.9228H45.8077C46.8364 28.9228 47.6534 29.7423 47.6534 30.7743V64.8456C47.6534 65.8776 46.8364 66.6971 45.8077 66.6971H2.86292C1.83419 66.6971 1.01715 65.8776 1.01715 64.8456V30.7743C1.01715 29.7211 1.84991 28.9004 2.84039 28.9225Z" fill="url(#paint1_radial_1_2)"/>
<defs>
<radialGradient id="paint0_radial_1_2" cx="0" cy="0" r="1" gradientUnits="userSpaceOnUse" gradientTransform="translate(149.822 -270.445) rotate(149.956) scale(921.846 881.241)">
<stop stop-color="#032B96"/>
<stop offset="0.451244" stop-color="#2F5BD8"/>
<stop offset="1" stop-color="#00FFFF" stop-opacity="0.43"/>
</radialGradient>
<radialGradient id="paint1_radial_1_2" cx="0" cy="0" r="1" gradientUnits="userSpaceOnUse" gradientTransform="translate(149.822 -270.445) rotate(149.956) scale(921.846 881.241)">
<stop stop-color="#032B96"/>
<stop offset="0.451244" stop-color="#2F5BD8"/>
<stop offset="1" stop-color="#00FFFF" stop-opacity="0.43"/>
</radialGradient>
</defs>
</svg>
