<svg width="160" height="186" viewBox="0 0 160 186" fill="none" xmlns="http://www.w3.org/2000/svg">
<path fill-rule="evenodd" clip-rule="evenodd" d="M65.7062 127.308L46.7528 96.0445C45.2084 93.3688 46.0508 89.9889 48.5779 88.4398C51.2455 86.8907 54.615 87.7357 56.1593 90.2706L70.6199 114.07L111.896 53.2329C113.581 50.6981 117.091 49.9939 119.618 51.8247C122.145 53.5146 122.847 57.0353 121.022 59.5702L74.9722 127.59C73.9894 128.998 72.3047 129.984 70.4796 129.984H70.3394C68.5142 129.984 66.689 128.998 65.7062 127.308ZM66.5847 126.794L66.5801 126.786L47.6278 95.5242C46.3602 93.3171 47.0686 90.5685 49.0981 89.3167C51.302 88.0442 54.0467 88.7596 55.2914 90.8026L70.5729 115.953L112.737 53.807L112.743 53.7989C114.115 51.7344 116.973 51.1674 119.022 52.6518L119.038 52.663L119.054 52.6736C121.112 54.05 121.677 56.9175 120.198 58.9728L120.189 58.9848L120.181 58.997L74.1389 127.005L74.1351 127.01C73.3249 128.168 71.9416 128.964 70.4796 128.964H70.3394C68.865 128.964 67.3798 128.161 66.5847 126.794Z" fill="url(#paint0_radial_1_4)"/>
<path fill-rule="evenodd" clip-rule="evenodd" d="M83.5354 183.639L95.6094 176.034C135.622 150.685 159.489 107.451 159.489 59.9926V45.3464C159.489 35.4885 151.487 27.4614 141.659 27.4614C138.992 27.4614 136.886 25.3489 136.886 22.6732C136.886 10.1396 126.777 0 114.282 0H45.2074C32.7122 0 22.6038 10.1396 22.6038 22.6732C22.6038 25.3489 20.4978 27.4614 17.8302 27.4614C8.00263 27.4614 0 35.4885 0 45.3464V59.9926C0 107.451 23.8673 150.826 63.88 176.034L75.6732 183.498C75.954 184.062 76.5155 184.484 77.0771 184.766C77.7791 185.188 78.6216 185.329 79.464 185.329H80.3064C81.0083 185.188 81.5698 185.047 82.2719 184.625C82.8333 184.343 83.2547 184.062 83.5354 183.639ZM77.6005 183.891L77.567 183.871L77.5321 183.853C77.0579 183.615 76.7218 183.321 76.5829 183.042L76.4561 182.787L64.4229 175.172L64.421 175.17C24.7053 150.149 1.01721 107.101 1.01721 59.9926V45.3464C1.01721 36.052 8.56436 28.4817 17.8302 28.4817C21.0595 28.4817 23.621 25.9124 23.621 22.6732C23.621 10.7031 33.2739 1.02029 45.2074 1.02029H114.282C126.215 1.02029 135.869 10.7031 135.869 22.6732C135.869 25.9124 138.43 28.4817 141.659 28.4817C150.925 28.4817 158.472 36.052 158.472 45.3464V59.9926C158.472 107.099 134.786 150.008 95.0677 175.171L95.0663 175.172L82.8101 182.891L82.6891 183.073C82.5592 183.269 82.3353 183.452 81.817 183.712L81.7821 183.73L81.7485 183.75C81.2224 184.067 80.81 184.184 80.2045 184.309H79.464C78.719 184.309 78.0835 184.181 77.6005 183.891Z" fill="url(#paint1_radial_1_4)"/>
<defs>
<radialGradient id="paint0_radial_1_4" cx="0" cy="0" r="1" gradientUnits="userSpaceOnUse" gradientTransform="translate(-97.0652 -350.06) rotate(149.956) scale(921.846 881.241)">
<stop stop-color="#032B96"/>
<stop offset="0.451244" stop-color="#2F5BD8"/>
<stop offset="1" stop-color="#00FFFF" stop-opacity="0.43"/>
</radialGradient>
<radialGradient id="paint1_radial_1_4" cx="0" cy="0" r="1" gradientUnits="userSpaceOnUse" gradientTransform="translate(-97.0652 -350.06) rotate(149.956) scale(921.846 881.241)">
<stop stop-color="#032B96"/>
<stop offset="0.451244" stop-color="#2F5BD8"/>
<stop offset="1" stop-color="#00FFFF" stop-opacity="0.43"/>
</radialGradient>
</defs>
</svg>
