<svg width="106" height="124" viewBox="0 0 106 124" fill="none" xmlns="http://www.w3.org/2000/svg">
<path fill-rule="evenodd" clip-rule="evenodd" d="M31.0695 63.8306L43.6655 84.6079C44.3186 85.731 45.5316 86.3861 46.7446 86.3861H46.838C48.0509 86.3861 49.1705 85.731 49.8236 84.7951L80.4275 39.5904C81.6404 37.9058 81.1739 35.566 79.4944 34.4429C77.815 33.2262 75.4823 33.6942 74.3627 35.3788L46.9312 75.8103L37.3209 59.9934C36.2946 58.3087 34.0552 57.7472 32.2824 58.7767C30.6029 59.8062 30.0431 62.0524 31.0695 63.8306ZM44.5394 84.0857L44.5441 84.0938C45.0095 84.8941 45.8825 85.3658 46.7446 85.3658H46.838C47.6878 85.3658 48.506 84.9003 48.9866 84.2153L79.5942 39.005L79.6028 38.993C80.4705 37.788 80.1407 36.1014 78.9302 35.2918L78.9143 35.2812L78.8989 35.27C77.6975 34.3997 76.0161 34.7305 75.209 35.9448L75.2036 35.9529L46.884 77.6933L36.453 60.5254C35.7261 59.3325 34.1117 58.9007 32.8027 59.6535C31.6207 60.3859 31.1949 62.001 31.9446 63.3106L44.5394 84.0857Z" fill="url(#paint0_radial_0_3)"/>
<path fill-rule="evenodd" clip-rule="evenodd" d="M63.5402 116.989L55.5161 122.043C55.3294 122.324 55.0495 122.511 54.6763 122.698C54.2098 122.979 53.8366 123.073 53.3701 123.166H52.8102C52.2504 123.166 51.6906 123.073 51.224 122.792C50.8508 122.605 50.4776 122.324 50.291 121.95L42.4534 116.989C15.8618 100.236 0 71.4102 0 39.8699V30.1364C0 23.585 5.3183 18.2503 11.8496 18.2503C13.6224 18.2503 15.022 16.8465 15.022 15.0682C15.022 6.73859 21.7399 0 30.0439 0H75.9496C84.2538 0 90.9717 6.73859 90.9717 15.0682C90.9717 16.8465 92.3712 18.2503 94.144 18.2503C100.675 18.2503 105.994 23.585 105.994 30.1364V39.8699C105.994 71.4102 90.132 100.143 63.5402 116.989ZM51.7138 121.897L51.7474 121.917C51.9949 122.066 52.3478 122.146 52.8102 122.146H53.2675C53.6333 122.07 53.8595 122 54.153 121.823L54.1865 121.803L54.2214 121.786C54.5513 121.62 54.634 121.531 54.6697 121.477L54.7906 121.295L62.9971 116.127L62.9991 116.125C89.296 99.4647 104.977 71.0576 104.977 39.8699V30.1364C104.977 24.1485 100.114 19.2706 94.144 19.2706C91.8095 19.2706 89.9545 17.4099 89.9545 15.0682C89.9545 7.30209 83.692 1.02031 75.9496 1.02031H30.0439C22.3016 1.02031 16.0391 7.30208 16.0391 15.0682C16.0391 17.41 14.1841 19.2706 11.8496 19.2706C5.88009 19.2706 1.01715 24.1485 1.01715 30.1364V39.8699C1.01715 71.0601 16.6998 99.5595 42.9945 116.125L42.9963 116.126L51.0738 121.239L51.2007 121.493C51.2455 121.583 51.3932 121.736 51.6789 121.879L51.7138 121.897Z" fill="url(#paint1_radial_0_3)"/>
<defs>
<radialGradient id="paint0_radial_0_3" cx="0" cy="0" r="1" gradientUnits="userSpaceOnUse" gradientTransform="translate(479.699 -116.389) rotate(149.956) scale(921.846 881.241)">
<stop stop-color="#032B96"/>
<stop offset="0.451244" stop-color="#2F5BD8"/>
<stop offset="1" stop-color="#00FFFF" stop-opacity="0.43"/>
</radialGradient>
<radialGradient id="paint1_radial_0_3" cx="0" cy="0" r="1" gradientUnits="userSpaceOnUse" gradientTransform="translate(479.699 -116.389) rotate(149.956) scale(921.846 881.241)">
<stop stop-color="#032B96"/>
<stop offset="0.451244" stop-color="#2F5BD8"/>
<stop offset="1" stop-color="#00FFFF" stop-opacity="0.43"/>
</radialGradient>
</defs>
</svg>
