<svg width="455" height="451" viewBox="0 0 455 451" fill="none" xmlns="http://www.w3.org/2000/svg">
<path fill-rule="evenodd" clip-rule="evenodd" d="M172.914 337.084C195.674 346.248 220.653 348.437 244.663 343.369C268.674 338.302 290.627 326.209 307.724 308.633C324.82 291.056 336.284 268.794 340.653 244.684C345.023 220.575 342.099 195.713 332.255 173.269C322.412 150.824 306.095 131.816 285.386 118.668C264.676 105.52 240.514 98.8291 215.98 99.4481C191.447 100.067 167.655 107.968 147.639 122.144C127.623 136.319 112.291 156.126 103.599 179.038C92.0728 209.191 92.8801 242.66 105.847 272.226C118.814 301.792 142.901 325.086 172.914 337.084ZM173.618 335.341L173.614 335.339C144.059 323.524 120.34 300.587 107.571 271.472C94.8024 242.358 94.0073 209.401 105.357 179.708L105.359 179.704C113.919 157.141 129.017 137.636 148.728 123.677C168.439 109.717 191.868 101.936 216.028 101.327C240.187 100.717 263.982 107.306 284.376 120.254C304.769 133.202 320.838 151.92 330.531 174.022C340.225 196.125 343.104 220.608 338.801 244.35C334.499 268.091 323.209 290.015 306.374 307.323C289.538 324.632 267.919 336.541 244.274 341.531C220.63 346.521 196.032 344.366 173.618 335.341Z" fill="url(#paint0_linear_439_15767)"/>
<path fill-rule="evenodd" clip-rule="evenodd" d="M164.531 358.169C161.52 356.954 158.559 355.644 155.653 354.241L155.645 354.259C155.08 353.986 154.517 353.709 153.956 353.428C150.521 351.71 147.16 349.858 143.882 347.878C118.088 332.368 97.5529 309.154 85.3717 281.247C70.0926 246.241 69.1767 206.645 82.821 170.967C93.1354 143.787 111.328 120.293 135.076 103.486C158.823 86.6782 187.047 77.3198 216.143 76.6062C245.239 75.8926 273.886 83.8562 298.425 99.4796C322.964 115.103 342.282 137.677 353.91 164.319C365.539 190.961 368.951 220.46 363.71 249.051C358.469 277.641 344.814 304.024 324.488 324.83C304.162 345.635 278.088 359.92 249.596 365.858C232.394 369.443 214.782 369.888 197.593 367.268C189.724 366.087 181.948 364.257 174.345 361.787L174.355 361.756C171.046 360.68 167.769 359.484 164.531 358.169ZM84.5793 171.638L84.581 171.633C85.7206 168.63 86.9577 165.673 88.289 162.765L93.5898 165.206C92.2948 168.026 91.0931 170.895 89.9877 173.81C88.8584 176.763 87.8353 179.745 86.9182 182.75L81.3442 181.063C82.3103 177.895 83.3886 174.751 84.5793 171.638ZM78.5645 254.392L84.3713 253.022C82.9783 246.896 82.0118 240.694 81.4729 234.463L75.5959 235.003C76.1417 241.512 77.1315 247.99 78.5645 254.392ZM86.2031 252.59C84.8303 246.549 83.878 240.434 83.3472 234.29L83.4122 234.284C82.0005 217.27 83.8083 200.143 88.7395 183.799C88.7854 183.647 88.8316 183.495 88.878 183.343L88.7195 183.295C89.6237 180.332 90.6325 177.392 91.7461 174.48L91.7479 174.475C92.8376 171.602 94.0223 168.773 95.2989 165.993L95.4355 166.056C95.5994 165.697 95.7648 165.339 95.9318 164.981C103.058 149.729 112.961 135.927 125.14 124.28L125.138 124.278C129.616 120.025 134.397 116.066 139.454 112.435L139.466 112.452C139.974 112.084 140.484 111.719 140.996 111.358C141.553 110.966 142.112 110.578 142.673 110.194C164.219 95.6497 189.523 87.5645 215.587 86.9312C242.631 86.274 269.267 93.6691 292.093 108.172C314.92 122.675 332.901 143.628 343.742 168.356C354.583 193.083 357.791 220.462 352.958 246.998C348.125 273.534 335.469 298.023 316.607 317.339C297.744 336.655 273.531 349.921 247.057 355.443C220.584 360.965 193.051 358.493 167.976 348.342L167.268 350.083L167.971 348.34C134.959 335.08 108.475 309.431 94.2195 276.914C91.0356 269.652 88.5185 262.176 86.6703 254.577C86.6579 254.524 86.6455 254.472 86.6331 254.42C86.4889 253.81 86.3488 253.2 86.2129 252.588L86.2031 252.59ZM164.531 358.169L165.24 356.428C168.424 357.721 171.645 358.898 174.898 359.957L176.831 353.551C173.61 352.515 170.42 351.359 167.268 350.083C164.536 348.985 161.847 347.804 159.205 346.542L156.441 352.534C159.319 353.925 162.252 355.223 165.236 356.426L164.531 358.169ZM84.8005 254.852L79.3464 256.138C83.2235 272.671 89.9894 288.392 99.3331 302.58L103.995 299.275C95.0689 285.747 88.5852 270.763 84.8372 255.003C84.825 254.953 84.8127 254.902 84.8005 254.852ZM100.251 304.233C103.988 309.689 108.089 314.87 112.52 319.742L117.125 315.419C112.864 310.779 108.918 305.842 105.32 300.64L100.251 304.233ZM144.841 346.261C148.063 348.199 151.369 350.016 154.751 351.704L157.224 346.345C142.522 339.025 129.265 329.116 118.088 317.094L113.88 321.044C122.979 330.87 133.405 339.354 144.841 346.261ZM86.382 184.551C81.8341 200.223 80.1542 216.491 81.3239 232.589L75.8461 233.093C74.6753 216.206 76.4975 199.246 81.2292 182.992L86.382 184.551ZM94.3859 163.503L89.479 161.243C96.7221 145.939 106.609 132.029 118.687 120.15L122.496 124.211C110.894 135.531 101.369 148.829 94.3859 163.503ZM123.851 122.906L119.76 118.545C124.489 114.021 129.538 109.807 134.879 105.939L138.372 110.898C133.242 114.579 128.393 118.594 123.851 122.906ZM184.219 82.8679C190.589 81.2549 197.077 80.074 203.638 79.3395L204.236 85.7912C197.963 86.46 191.76 87.5555 185.668 89.0638L184.219 82.8679ZM277.186 90.3357C271.075 87.6917 264.796 85.4757 258.394 83.7007L256.436 90.1986C262.524 91.9141 268.495 94.0469 274.305 96.585L277.186 90.3357ZM183.771 89.219C168.723 93.2909 154.473 99.8581 141.613 108.641C141.042 109.027 140.473 109.417 139.908 109.812L136.683 105.234C150.561 95.4176 166.06 88.1153 182.472 83.6604L183.771 89.219ZM330.235 141.245C326.437 136.086 322.282 131.198 317.803 126.615L322.932 121.737C327.659 126.554 332.043 131.697 336.05 137.127L330.235 141.245ZM359.958 187.936C361.602 194.542 362.773 201.249 363.467 208.007L356.312 208.735C355.65 202.288 354.532 195.889 352.963 189.587L359.958 187.936ZM176.691 360.528L178.408 354.84C194.28 359.728 210.91 361.691 227.486 360.633L228.038 366.712C217.945 367.345 207.833 366.904 197.872 365.409C190.717 364.318 183.636 362.689 176.691 360.528ZM249.212 364.019C242.826 365.349 236.383 366.242 229.927 366.7L229.303 359.827C235.376 359.382 241.436 358.535 247.442 357.283C247.729 357.223 248.016 357.162 248.303 357.1L249.882 363.877C249.658 363.925 249.435 363.972 249.212 364.019ZM297.375 335.964C302.695 332.312 307.767 328.28 312.547 323.893L317.366 329.108C312.352 333.7 307.035 337.918 301.458 341.739L297.375 335.964ZM358.092 264.31C356.112 270.881 353.669 277.289 350.788 283.488L344.283 280.499C347.022 274.598 349.343 268.497 351.223 262.243L358.092 264.31ZM351.927 260.492L357.976 262.313C362.887 245.316 364.612 227.559 363.065 209.937L356.798 210.574C358.244 227.371 356.593 244.29 351.927 260.492ZM352.821 187.689L358.932 186.247C354.493 169.255 346.992 153.212 336.796 138.902L331.771 142.461C341.471 156.141 348.603 171.466 352.821 187.689ZM343.682 282.291C336.42 297.513 326.425 311.277 314.191 322.9L318.463 327.523C331.324 315.352 341.82 300.911 349.422 284.928L343.682 282.291ZM299.671 342.47C285.066 352.25 268.805 359.306 251.679 363.296L250.279 357.289C266.62 353.463 282.129 346.707 296.051 337.349L299.671 342.47ZM316.912 124.868C305.221 113.078 291.473 103.517 276.344 96.6553L278.847 91.2273C294.712 98.3363 309.138 108.289 321.408 120.59L316.912 124.868ZM256.493 83.4835C239.892 79.0718 222.628 77.6938 205.536 79.4164L206.068 85.1616C222.416 83.567 238.918 84.9119 254.791 89.1329L256.493 83.4835Z" fill="url(#paint1_linear_439_15767)"/>
<path fill-rule="evenodd" clip-rule="evenodd" d="M84.6674 399.862C55.7263 376.964 33.4262 347.513 18.996 314.652L18.9473 314.675C18.6948 314.101 18.445 313.526 18.1975 312.95C2.54862 276.546 -3.1614 236.641 1.6658 197.299L1.66608 197.297L1.66814 197.297C3.80964 179.87 8.04866 162.458 14.5184 145.402C55.0517 38.5459 170.466 -20.9106 280.638 8.18337C280.915 8.23389 281.182 8.31006 281.445 8.39806C283.606 8.97719 285.764 9.59042 287.919 10.2381C288.091 10.2832 288.259 10.335 288.426 10.3909C290.928 11.1492 293.427 11.9539 295.921 12.8055C299.577 14.0448 303.196 15.3769 306.775 16.7997C333.798 26.4992 358.714 41.3003 380.156 60.4078C402.591 80.3991 420.764 104.695 433.593 131.847C446.421 159 453.643 188.452 454.826 218.449C456.01 248.447 451.132 278.374 440.483 306.448C429.833 334.522 413.631 360.168 392.842 381.856C372.052 403.545 347.101 420.832 319.476 432.688C291.851 444.543 262.117 450.724 232.047 450.862C203.306 450.993 174.822 445.602 148.143 434.995C146.044 434.242 143.956 433.457 141.879 432.641C141.097 432.345 140.314 432.048 139.527 431.749L139.485 431.734C138.753 431.456 138.018 431.177 137.28 430.898C135.123 429.986 132.912 429.03 130.864 428.087L129.018 427.245C127.403 426.49 125.797 425.715 124.19 424.939C124.113 424.9 124.036 424.859 123.958 424.818L123.838 424.754L123.727 424.695C123.341 424.488 122.956 424.281 122.55 424.127C120.652 423.169 118.643 422.121 116.643 421.053C116.429 420.938 116.221 420.809 116.012 420.681L116.01 420.68C115.634 420.448 115.258 420.217 114.853 420.063C113.46 419.296 112.096 418.517 110.739 417.716C109.967 417.279 109.181 416.814 108.395 416.349C107.472 415.803 106.546 415.229 105.634 414.664L105.629 414.66L105.623 414.657C105.315 414.466 105.009 414.276 104.705 414.089C103.496 413.344 102.253 412.561 101.136 411.827L100.789 411.598C99.7718 410.93 98.6994 410.225 97.7729 409.594C97.2581 409.244 96.7454 408.888 96.2326 408.533L96.228 408.53L96.2214 408.525C95.7093 408.17 95.1972 407.815 94.6831 407.465C94.1236 407.037 93.4669 406.549 92.8022 406.081C90.02 404.092 87.2906 402.028 84.6273 399.916L84.6674 399.862ZM87.2693 399.512C90.9657 402.387 94.7693 405.155 98.6777 407.809L119.477 419.083C122.785 420.989 126.158 422.818 129.595 424.567C134.652 427.14 139.847 429.54 145.176 431.755L145.18 431.756C146.075 432.131 146.973 432.5 147.873 432.863C148.043 432.924 148.212 432.985 148.381 433.046L148.788 433.192L148.804 433.198L148.819 433.204L148.828 433.207L148.862 433.22L148.871 433.223L148.888 433.23L148.905 433.236L148.914 433.24L148.949 433.253L148.957 433.256L148.983 433.266L149 433.272L149.009 433.275L149.018 433.279L149.044 433.289L149.052 433.292L149.087 433.305L149.095 433.308L149.113 433.315L149.13 433.321L149.138 433.324L149.147 433.328L149.173 433.337L149.182 433.341L149.207 433.351L149.216 433.354L149.233 433.36L149.251 433.367L149.259 433.37L149.268 433.373L149.285 433.38L149.294 433.383L149.311 433.39L149.32 433.393L149.328 433.396L149.337 433.399L149.371 433.413L149.38 433.416L149.389 433.419L149.406 433.426L149.415 433.429L149.432 433.435L149.44 433.439L149.449 433.442L149.458 433.445L149.466 433.448L149.484 433.455L149.492 433.458L149.518 433.468L149.527 433.471L149.553 433.481L149.561 433.484L149.587 433.494L149.596 433.497L149.622 433.507L149.63 433.51L149.656 433.52L149.665 433.523L149.673 433.527L149.682 433.53L149.691 433.533L149.699 433.536L149.725 433.546L149.734 433.549L149.76 433.559L149.768 433.563L149.785 433.569L149.794 433.572L149.82 433.582L149.829 433.585L149.846 433.592L149.854 433.595L149.88 433.605L149.889 433.608L149.906 433.615L149.915 433.618L149.923 433.621L149.932 433.624L149.941 433.628L149.949 433.631L149.967 433.638L149.975 433.641L149.992 433.647L150.001 433.651L150.018 433.657L150.027 433.66L150.044 433.667L150.053 433.67L150.07 433.677L150.079 433.68L150.096 433.686L150.104 433.69L150.122 433.696L150.13 433.699L150.148 433.706L150.156 433.709L150.173 433.716L150.182 433.719L150.191 433.722L150.199 433.726L150.208 433.729L150.216 433.732L150.225 433.735L150.242 433.742L150.251 433.745L150.268 433.752L150.277 433.755L150.285 433.758L150.294 433.761L150.311 433.768L150.32 433.771L150.329 433.774L150.337 433.778L150.346 433.781L150.354 433.784L150.363 433.787L150.38 433.794L150.389 433.797L150.393 433.799C165.148 438.967 180.394 442.56 195.877 444.528L195.496 443.597L201.248 377.522L203.157 377.726C229.061 380.5 255.247 376.706 279.292 366.697L281.008 365.982L307.64 427.64L308.858 429.452C309.788 429.068 310.716 428.677 311.642 428.28C339.035 416.524 363.776 399.382 384.391 377.876C391.439 370.523 397.956 362.712 403.902 354.502L401.874 353.256L345.841 314.146L346.926 312.605C362.116 291.028 371.618 265.98 374.555 239.77L374.765 237.897L442.69 245.66L444.982 246.061C445.959 236.042 446.254 225.946 445.855 215.842C444.681 186.097 437.521 156.892 424.8 129.968C424.328 128.969 423.849 127.974 423.362 126.983L421.493 127.729L360.479 156.482L359.666 154.81C348.29 131.407 331.195 111.241 309.957 96.1703L308.393 95.0601L347.722 42.0414L348.654 41.0904C336.624 32.938 323.812 25.9781 310.401 20.3171C308.953 19.759 307.498 19.216 306.037 18.6881L306.024 18.6834L301.171 16.8479C291.531 13.6184 281.823 11.0935 272.104 9.2449L250.506 4.35093C249.729 4.2546 248.99 4.16597 248.212 4.08137L248.203 4.08035L245.906 3.85423L245.904 3.85401C243.121 3.58541 240.35 3.35096 237.59 3.17739L237.554 3.59225L237.391 5.46834L231.963 67.9984L230.127 67.8818C204.679 66.265 179.226 70.9455 156.026 81.5076L154.278 82.3036L131.334 29.1794L130.587 27.4508L129.154 24.1333C94.1685 40.6521 64.0972 65.988 41.9056 97.643L46.3752 100.762L47.918 101.839L93.1259 133.389L92.0698 134.925C77.7844 155.705 68.716 179.611 65.6301 204.627L65.402 206.476L10.6212 200.212L8.75109 199.998L3.31687 199.377C-1.12278 238.222 4.92225 277.083 19.9515 312.127L23.229 310.589L24.9353 309.789L77.3093 285.212L78.091 286.963C88.4659 310.214 104.431 330.548 124.568 346.159L126.021 347.286L88.6685 397.627L87.5457 399.14L87.2693 399.512ZM311.123 430.544L314.799 431.933C352.846 416.257 385.743 390.29 409.793 356.97L405.588 355.38C399.548 363.741 392.923 371.694 385.751 379.175C364.961 400.864 340.01 418.151 312.385 430.006L312.068 430.142C311.893 430.217 311.718 430.292 311.542 430.366L311.123 430.544ZM446.833 246.468L451.097 247.744C455.112 206.804 447.574 165.546 429.322 128.642L425.65 127.383C425.936 127.976 426.22 128.57 426.502 129.166C439.331 156.318 446.552 185.771 447.736 215.768C448.141 226.033 447.836 236.29 446.833 246.468ZM123.413 347.644L87.2252 396.415L86.1019 397.929L85.7888 398.351C57.1031 375.642 35.0004 346.437 20.7 313.852L23.9366 312.334L25.6421 311.533L76.3717 287.728C76.6272 288.301 76.8859 288.871 77.148 289.44C87.6613 312.26 103.527 332.227 123.413 347.644ZM198.017 444.79C206.936 445.835 215.929 446.342 224.948 446.301C253.116 446.172 280.987 440.695 307.079 430.178L305.98 428.543L280.015 368.431C256.258 378.321 230.435 382.215 204.829 379.784C204.205 379.725 203.58 379.662 202.956 379.595L197.41 443.307L198.017 444.79ZM308.588 431.595C282.044 442.413 253.653 448.049 224.956 448.18C217.523 448.214 210.107 447.879 202.735 447.179C212.43 448.422 222.219 449.027 232.038 448.982C259.816 448.855 287.305 443.527 313.083 433.294L308.588 431.595ZM350.23 42.1688L349.157 43.2635L311.048 94.6386C311.559 95.0016 312.069 95.3676 312.576 95.7365C333.363 110.865 350.12 130.867 361.36 153.989L420.741 126.005L422.524 125.294C409.966 100.253 392.763 77.7977 371.812 59.1286C364.961 53.0231 357.752 47.361 350.23 42.1688ZM424.477 124.994L428.868 126.499C416.378 102.051 399.441 80.1114 378.903 61.8098C371.578 55.282 363.843 49.261 355.755 43.7792C361.742 48.1311 367.52 52.7848 373.066 57.7266C394.345 76.6882 411.79 99.5226 424.477 124.994ZM438.723 305.783C445.55 287.784 449.985 269.018 451.95 249.961L446.637 248.371C444.61 267.281 440.17 285.899 433.392 303.767C426.647 321.548 417.675 338.355 406.72 353.799L411.992 355.792C422.983 340.369 431.976 323.567 438.723 305.783ZM405.001 352.971C415.947 337.586 424.906 320.832 431.632 303.102C438.381 285.31 442.792 266.767 444.791 247.936L442.42 247.52L376.425 239.979C376.409 240.125 376.392 240.272 376.375 240.418L376.333 240.785C373.289 266.747 363.878 291.558 348.933 313.019L348.772 313.25L348.609 313.482L348.466 313.686L402.908 351.685L405.001 352.971ZM235.715 3.01176C199.143 1.05992 163.193 8.33801 130.85 23.3135L132.274 26.6114L133.021 28.3392L155.246 79.7976C155.817 79.5377 156.389 79.2813 156.963 79.0284C179.98 68.8806 205.116 64.4091 230.246 66.0057L235.506 5.42245L235.669 3.54535L235.715 3.01176ZM3.53824 197.511L8.98834 198.134L10.8586 198.348L63.7621 204.397C66.8849 179.083 76.0617 154.89 90.518 133.862L46.8594 103.393L45.3164 102.316L40.8165 99.1757C30.9673 113.504 22.6809 129.189 16.2785 146.068C9.86507 162.975 5.66231 180.235 3.53824 197.511Z" fill="url(#paint2_linear_439_15767)"/>
<defs>
<linearGradient id="paint0_linear_439_15767" x1="56.8436" y1="112.569" x2="386.644" y2="395.984" gradientUnits="userSpaceOnUse">
<stop stop-color="#2F5BD8"/>
<stop offset="1" stop-color="#011852"/>
</linearGradient>
<linearGradient id="paint1_linear_439_15767" x1="56.8436" y1="112.569" x2="386.644" y2="395.984" gradientUnits="userSpaceOnUse">
<stop stop-color="#2F5BD8"/>
<stop offset="1" stop-color="#011852"/>
</linearGradient>
<linearGradient id="paint2_linear_439_15767" x1="56.8436" y1="112.569" x2="386.644" y2="395.984" gradientUnits="userSpaceOnUse">
<stop stop-color="#2F5BD8"/>
<stop offset="1" stop-color="#011852"/>
</linearGradient>
</defs>
</svg>
