<svg width="229" height="222" viewBox="0 0 229 222" fill="none" xmlns="http://www.w3.org/2000/svg">
<path fill-rule="evenodd" clip-rule="evenodd" d="M55.42 150.041C71.8284 168.751 108.732 162.706 137.523 136.2C166.313 109.693 175.285 73.5349 157.838 55.7696C140.742 38.3484 104.599 45.2072 76.8108 70.7822C49.0229 96.3572 39.3192 131.704 55.42 150.041ZM56.1586 149.397C48.3963 140.557 46.7673 127.513 50.6028 113.377C54.4348 99.2532 63.6968 84.1777 77.4744 71.4972C91.252 58.8168 107.071 50.8062 121.511 48.1109C135.964 45.413 148.894 48.0535 157.136 56.4524C165.543 65.0131 167.679 78.1008 164.069 92.4732C160.462 106.835 151.136 122.34 136.859 135.485C122.583 148.629 106.329 156.665 91.6694 159.115C76.9989 161.566 64.0654 158.413 56.1586 149.397Z" fill="url(#paint0_radial_387_14953)"/>
<path fill-rule="evenodd" clip-rule="evenodd" d="M74.1432 67.8985C43.868 95.7629 33.2976 134.283 50.7369 154.341C68.6082 174.782 108.931 168.274 140.402 139.302C171.874 110.33 181.608 70.8209 162.516 51.4567C143.828 32.5113 104.418 40.0342 74.1432 67.8985ZM139.738 138.587C124.122 152.964 106.344 161.732 90.312 164.389C74.2695 167.049 60.1163 163.58 51.4775 153.7C43.0439 143.999 41.297 129.73 45.4926 114.299C49.6849 98.8799 59.7857 82.4385 74.8068 68.6135C89.8282 54.7883 107.086 46.0393 122.853 43.0823C138.633 40.1229 152.778 42.9791 161.816 52.1413C171.045 61.5018 173.4 75.8264 169.47 91.5441C165.542 107.251 155.355 124.21 139.738 138.587Z" fill="url(#paint1_radial_387_14953)"/>
<path fill-rule="evenodd" clip-rule="evenodd" d="M147.557 138.436C154.78 131.212 161.042 123.098 166.191 114.295C166.366 113.996 166.539 113.696 166.711 113.395L162.646 112.682C157.923 120.935 152.148 128.547 145.466 135.327C145.236 135.56 145.006 135.792 144.774 136.023L147.557 138.436ZM147.509 137.099C154.317 130.184 160.246 122.464 165.164 114.115L163.152 113.762C158.461 121.841 152.767 129.302 146.204 135.968L147.509 137.099Z" fill="url(#paint2_radial_387_14953)"/>
<path fill-rule="evenodd" clip-rule="evenodd" d="M48.4583 161.391L52.3178 157.504C57.0475 161.765 62.8329 164.686 69.074 165.973C69.4112 166.042 69.7498 166.107 70.0895 166.167L67.4734 170.712C60.6987 169.5 54.387 166.502 49.1914 162.038C48.9445 161.826 48.7001 161.61 48.4583 161.391ZM52.3614 158.845C57.0054 162.819 62.5741 165.574 68.5619 166.862L66.9721 169.624C60.6484 168.373 54.7628 165.52 49.8828 161.341L52.3614 158.845Z" fill="url(#paint3_radial_387_14953)"/>
<path fill-rule="evenodd" clip-rule="evenodd" d="M171.487 103.852C175.018 95.9822 177.157 87.5707 177.809 78.9903C177.836 78.6372 177.86 78.2838 177.882 77.9302L173.097 79.629C172.595 87.6186 170.71 95.464 167.528 102.82C167.388 103.144 167.245 103.467 167.1 103.789L171.487 103.852ZM170.854 102.868C174.126 95.4022 176.134 87.455 176.798 79.3491L174.031 80.3315C173.473 88.0775 171.632 95.681 168.585 102.835L170.854 102.868Z" fill="url(#paint4_radial_387_14953)"/>
<path fill-rule="evenodd" clip-rule="evenodd" d="M112.409 163.384L112.019 159.29C120.647 155.243 128.719 150.109 136.037 144.016C136.288 143.807 136.539 143.597 136.788 143.385L138.986 146.314C131.191 152.93 122.574 158.517 113.35 162.938C113.037 163.088 112.723 163.237 112.409 163.384ZM113.059 159.877C121.513 155.848 129.429 150.782 136.623 144.797L137.649 146.165C130.196 152.391 122.001 157.677 113.252 161.903L113.059 159.877Z" fill="url(#paint5_radial_387_14953)"/>
<path fill-rule="evenodd" clip-rule="evenodd" d="M78.0732 167.029L76.02 171.642C76.3752 171.648 76.7303 171.652 77.0853 171.653C85.7247 171.679 94.3118 170.217 102.466 167.329L102.75 162.969C102.416 163.088 102.082 163.204 101.746 163.318C94.1258 165.9 86.1175 167.156 78.0732 167.029ZM101.678 164.369C94.2711 166.832 86.5096 168.063 78.7059 168.012L77.5194 170.678C85.6864 170.655 93.8002 169.285 101.531 166.623L101.678 164.369Z" fill="url(#paint6_radial_387_14953)"/>
<path fill-rule="evenodd" clip-rule="evenodd" d="M172.728 70.6328C172.77 70.9736 172.808 71.3153 172.841 71.6578L177.592 69.4085C176.91 62.5818 174.395 56.0766 170.318 50.5724C170.124 50.311 169.927 50.0519 169.726 49.7951L165.583 53.3017C169.477 58.3423 171.941 64.3265 172.728 70.6328ZM176.543 68.8268L173.659 70.192C172.849 64.1369 170.534 58.3811 166.92 53.4484L169.568 51.2067C173.382 56.3754 175.786 62.4455 176.543 68.8268Z" fill="url(#paint7_radial_387_14953)"/>
<path fill-rule="evenodd" clip-rule="evenodd" d="M136.539 35.7298C136.178 35.7364 135.817 35.7454 135.456 35.757C126.985 36.0285 118.608 37.6836 110.661 40.6582L110.409 44.7657C110.742 44.6405 111.077 44.5178 111.412 44.3975C118.85 41.7316 126.674 40.2916 134.574 40.1371L136.539 35.7298ZM135.014 36.7482L133.932 39.1769C126.277 39.3918 118.701 40.7971 111.477 43.3402L111.6 41.3503C119.121 38.6058 127.022 37.0533 135.014 36.7482Z" fill="url(#paint8_radial_387_14953)"/>
<path fill-rule="evenodd" clip-rule="evenodd" d="M101.059 44.6825L101.423 48.4775C93.1587 52.4776 85.4207 57.477 78.3841 63.3614C78.1331 63.5712 77.8831 63.7822 77.634 63.9943L75.6081 61.2851C83.0859 54.9242 91.3182 49.503 100.118 45.1433C100.431 44.9883 100.745 44.8348 101.059 44.6825ZM100.383 47.9002C92.2938 51.8762 84.7114 56.8046 77.7992 62.5791L76.9432 61.4345C84.0769 55.4603 91.8891 50.3411 100.218 46.1823L100.383 47.9002Z" fill="url(#paint9_radial_387_14953)"/>
<path fill-rule="evenodd" clip-rule="evenodd" d="M164.582 44.6031C164.325 44.3996 164.065 44.1995 163.803 44.0027C158.315 39.8786 151.843 37.2317 145.008 36.3251L142.521 40.7034C142.867 40.7503 143.212 40.8019 143.557 40.8583C149.844 41.889 155.762 44.5073 160.742 48.4708L164.582 44.6031ZM163.107 44.7039C157.952 40.8565 151.913 38.3407 145.53 37.3843L144.07 39.9551C150.102 41.0014 155.792 43.4739 160.661 47.1681L163.107 44.7039Z" fill="url(#paint10_radial_387_14953)"/>
<path fill-rule="evenodd" clip-rule="evenodd" d="M69.2561 71.7586C69.4854 71.5255 69.7157 71.2934 69.9472 71.0624L67.3921 68.8356C60.4491 75.781 54.3853 83.5433 49.3354 91.9485C49.156 92.2469 48.978 92.5462 48.8012 92.8463L52.5765 93.5015C57.2194 85.6003 62.8219 78.2976 69.2561 71.7586ZM67.4383 70.1744L68.5192 71.1164C62.204 77.5406 56.6842 84.6945 52.0786 92.4245L50.368 92.1277C55.1799 84.1752 60.9089 76.8072 67.4383 70.1744Z" fill="url(#paint11_radial_387_14953)"/>
<path fill-rule="evenodd" clip-rule="evenodd" d="M36.9437 135.788C37.3056 142.644 39.4434 149.278 43.1418 155.048C43.3183 155.323 43.4985 155.597 43.6821 155.868L47.8252 152.362C44.2585 147.091 42.1265 140.992 41.6271 134.659C41.5997 134.311 41.5772 133.962 41.5597 133.613L36.9437 135.788ZM37.9619 136.386C38.4093 142.797 40.4496 148.99 43.8965 154.409L46.5309 152.179C43.2256 147.042 41.22 141.184 40.6812 135.104L37.9619 136.386Z" fill="url(#paint12_radial_387_14953)"/>
<path fill-rule="evenodd" clip-rule="evenodd" d="M47.6519 103.024C47.798 102.701 47.9466 102.378 48.0975 102.057L44.0317 101.987C40.4371 109.626 38.1174 117.791 37.1618 126.159C37.1209 126.517 37.0825 126.875 37.0466 127.234L41.6042 125.616C42.3766 117.811 44.42 110.181 47.6519 103.024ZM44.6509 102.973L46.5888 103.006C43.4958 109.96 41.5062 117.348 40.6932 124.905L38.1905 125.794C39.1412 117.905 41.3202 110.206 44.6509 102.973Z" fill="url(#paint13_radial_387_14953)"/>
<path fill-rule="evenodd" clip-rule="evenodd" d="M134.22 2.65632L134.24 2.58153C133.884 2.64771 133.527 2.71563 133.169 2.7853C114.83 6.35991 95.4017 14.5274 76.8621 26.8764L76.8923 26.9537C68.7973 32.3572 60.8865 38.5572 53.3325 45.5152C45.7693 52.4816 38.9369 59.8602 32.888 67.4827L32.7875 67.4344C18.9968 84.8234 9.29333 103.467 4.27481 121.397C4.17701 121.746 4.08099 122.096 3.98676 122.444L4.08444 122.426C-0.375313 138.894 -0.845655 154.716 3.16062 168.338L3.10476 168.373C3.4672 169.584 3.89516 170.865 4.34204 172.085L5.12345 174.286C5.27963 174.726 5.46111 175.237 5.72135 175.667C5.8784 175.926 6.00396 176.221 6.13093 176.519C6.21446 176.715 6.2986 176.913 6.39271 177.103C6.4717 177.262 6.54937 177.422 6.62705 177.582C6.78256 177.902 6.93807 178.222 7.10422 178.538C7.22003 178.758 7.29462 178.903 7.35712 179.025C7.42905 179.165 7.48498 179.274 7.56933 179.43C7.84307 179.936 8.13304 180.449 8.43072 180.946C8.48225 181.091 8.57006 181.229 8.65705 181.366C8.70548 181.442 8.75367 181.517 8.7952 181.594C9.21673 182.288 9.65029 182.977 10.1077 183.659C10.1574 183.799 10.2587 183.92 10.36 184.042C10.405 184.096 10.4501 184.15 10.4906 184.206L10.4942 184.211C10.8596 184.749 11.225 185.287 11.6058 185.792C11.6721 185.879 11.736 185.968 11.7994 186.055C11.8814 186.168 11.9623 186.279 12.0457 186.386C12.5671 187.058 13.0886 187.73 13.6298 188.381C14.1291 188.897 14.6104 189.414 15.0829 189.921C15.5964 190.472 16.1 191.012 16.6065 191.53C16.9863 191.956 17.3738 192.366 17.7613 192.777L17.7641 192.78C18.5733 193.617 19.4431 194.474 20.3368 195.321C21.286 196.198 22.2962 197.442 23.4935 198.917C26.9036 203.118 31.8324 209.189 41.1976 213.953C41.8843 214.302 42.5948 214.644 43.3303 214.978C56.4384 221.431 72.6163 223.281 90.0865 220.756L90.1136 220.785C109.071 218.083 129.192 210.391 148.893 197.602C157.969 191.765 166.889 184.9 175.432 177.035C220.31 135.72 238.396 81.9312 223.072 47.1459C222.877 46.4742 222.621 45.78 222.313 45.0684C218.929 37.266 209.19 27.3732 204.012 22.1144C203.392 21.4841 202.837 20.9203 202.366 20.4346C201.453 19.4194 200.493 18.4212 199.484 17.4399C198.884 16.8495 198.248 16.2717 197.62 15.7178C197.441 15.5544 197.25 15.395 197.06 15.2359L197.058 15.2344C196.569 14.8054 196.072 14.3925 195.563 13.9838C195.38 13.8479 195.209 13.7078 195.038 13.5676C194.392 13.074 193.745 12.5804 193.078 12.1072L192.457 11.6848C191.978 11.3595 191.487 11.0383 191 10.7291L190.148 10.1879C189.697 9.9058 189.235 9.628 188.756 9.34254C188.278 9.05708 187.844 8.82263 187.379 8.57284L186.034 7.85832L184.763 7.238L183.926 6.85227C182.736 6.31021 181.532 5.80049 180.304 5.33913L180.28 5.37016C166.954 0.314877 151.067 -0.470618 134.22 2.65632ZM4.31275 168.762C6.47227 175.786 9.85279 182.188 14.5143 187.748C16.3467 189.934 18.3336 191.94 20.4618 193.769L22.7617 195.634C25.5156 197.741 28.4788 199.575 31.6263 201.141L53.6979 171.489L54.4193 171.828C63.352 176.019 74.367 177.19 86.3199 175.421L87.8019 175.202L79.1262 206.66L79.1183 206.761C79.2704 206.738 79.4226 206.714 79.5749 206.69C98.0528 203.754 117.95 195.926 137.14 183.458L136.949 183.074L127.527 158.967L128.189 158.531C140.587 150.376 151.57 140.265 160.706 128.597L161.195 127.973L184.522 139.239L184.924 139.45C198.883 121.398 208.266 102.288 212.653 84.203C212.679 84.0938 212.705 83.9847 212.732 83.8756L212.787 83.6422L212.678 83.6546L180.447 89.7993L180.783 88.3457C183.49 76.6235 183.182 65.6009 179.689 56.3912L179.407 55.6483L210.756 35.913C209.458 32.7682 207.891 29.7768 206.052 26.9615L204.364 24.5311C202.701 22.2776 200.849 20.15 198.806 18.162C193.61 13.1021 187.472 9.24447 180.614 6.54736L174.856 14.1601L174.17 15.0682L158.992 35.1361L158.298 34.8629C149.111 31.2485 138.14 30.5728 126.383 32.6812L124.858 32.9546L128.072 21.2862L128.385 20.1524L132.859 3.91062C115.011 7.46461 96.1125 15.4089 78.0908 27.3279L84.2097 42.9939L84.5755 43.9305L86.6413 49.2195L85.9873 49.6564C74.1926 57.5365 63.6967 67.1937 54.8771 78.2804L54.3884 78.8947L49.2698 76.436L48.3609 75.9994L33.1688 68.7019C19.8411 85.6448 10.4107 103.758 5.44803 121.173L22.0491 118.003L23.2091 117.781L35.1229 115.506L34.7306 116.998C31.7043 128.508 31.5128 139.482 34.4164 148.847L34.6372 149.559L13.3519 163.038L12.3888 163.648L4.31275 168.762ZM22.7457 118.862L33.783 116.754C33.6914 117.102 33.6024 117.45 33.516 117.798C30.7126 129.061 30.5992 139.845 33.4803 149.138L13.3335 161.896L12.3622 162.511L4.02325 167.791C0.126821 154.317 0.641721 138.625 5.15442 122.221L21.592 119.082L22.7457 118.862ZM33.7904 67.9162L49.0145 75.229L49.9247 75.6662L54.11 77.6766C62.9929 66.5104 73.5641 56.7838 85.4435 48.8472L83.7535 44.5203L83.3872 43.5824L77.2555 27.8836C69.2676 33.2292 61.4584 39.3567 53.9964 46.2299C46.525 53.1117 39.7729 60.3953 33.7904 67.9162ZM129.501 19.7841L133.932 3.70215C150.717 0.517706 166.478 1.24879 179.665 6.18333L173.72 14.0442L173.027 14.96L158.66 33.9558C149.547 30.3704 138.77 29.6318 127.278 31.5375C126.923 31.5963 126.568 31.6576 126.212 31.7214L129.19 20.9116L129.501 19.7841ZM219.596 42.4327C217.207 38.2622 214.263 34.437 210.755 31.0228C209.976 30.2641 209.175 29.5322 208.354 28.8275C209.59 30.9558 210.683 33.1721 211.633 35.4677L219.596 42.4327ZM211.121 36.8206L180.605 56.0438C184.078 65.1994 184.457 76.0465 181.97 87.5244C181.895 87.8694 181.817 88.2149 181.738 88.5609L212.534 82.6899L213.021 82.6342C216.842 65.8258 216.302 50.0155 211.121 36.8206ZM214.048 82.5317C217.822 65.7006 217.76 51.0561 212.526 37.7249L221.107 45.2629C227.93 59.0112 229.171 76.1082 225.192 94.4393L214.048 82.5317ZM213.783 83.6823C209.45 102.092 199.971 121.553 185.802 139.911L185.805 139.913L197.166 151.895C211.324 133.458 220.743 113.956 224.925 95.5863L213.783 83.6823ZM184.315 140.234L184.076 140.109L161.478 129.195C152.276 140.947 141.214 151.131 128.727 159.344L137.847 182.678L137.966 182.918C146.461 177.334 154.812 170.839 162.832 163.455C170.873 156.052 178.046 148.251 184.315 140.234ZM138.403 183.797C146.98 178.167 155.407 171.617 163.496 164.17C171.619 156.691 178.864 148.804 185.193 140.696L185.202 140.701L196.57 152.69C190.226 160.85 182.946 168.791 174.769 176.32C166.607 183.834 158.103 190.427 149.453 196.078L138.412 183.816L138.403 183.797ZM137.576 184.337C118.125 196.957 97.9338 204.85 79.1829 207.738L90.4534 219.717C90.8072 219.664 91.1614 219.609 91.5163 219.553C109.761 216.654 129.39 208.985 148.355 196.789L148.621 196.617L137.593 184.37L137.576 184.337ZM89.2689 219.887L78.0423 207.955L78.046 207.907C60.9934 210.356 46.4904 209.236 33.5644 203.132L41.6744 213.018C54.7505 220.145 71.255 222.377 89.2689 219.887ZM38.9081 211.405L31.3458 202.094C28.9391 200.906 26.6362 199.564 24.448 198.064C25.0874 198.932 25.7551 199.782 26.4514 200.613C30.0438 204.896 34.229 208.49 38.9081 211.405ZM32.4504 201.459C45.2486 207.55 61.0587 209.396 78.1242 206.911L78.1569 206.494L86.4604 176.386C86.1077 176.438 85.7556 176.488 85.4044 176.535C73.7137 178.104 62.8801 176.877 53.999 172.71L32.4504 201.459Z" fill="url(#paint14_radial_387_14953)"/>
<defs>
<radialGradient id="paint0_radial_387_14953" cx="0" cy="0" r="1" gradientUnits="userSpaceOnUse" gradientTransform="translate(225.132 107.351) rotate(-179.756) scale(221.639 214.914)">
<stop offset="0.427893" stop-color="#2F5BD8"/>
<stop offset="1" stop-color="#00FFFF" stop-opacity="0.43"/>
</radialGradient>
<radialGradient id="paint1_radial_387_14953" cx="0" cy="0" r="1" gradientUnits="userSpaceOnUse" gradientTransform="translate(225.132 107.351) rotate(-179.756) scale(221.639 214.914)">
<stop offset="0.427893" stop-color="#2F5BD8"/>
<stop offset="1" stop-color="#00FFFF" stop-opacity="0.43"/>
</radialGradient>
<radialGradient id="paint2_radial_387_14953" cx="0" cy="0" r="1" gradientUnits="userSpaceOnUse" gradientTransform="translate(225.132 107.351) rotate(-179.756) scale(221.639 214.914)">
<stop offset="0.427893" stop-color="#2F5BD8"/>
<stop offset="1" stop-color="#00FFFF" stop-opacity="0.43"/>
</radialGradient>
<radialGradient id="paint3_radial_387_14953" cx="0" cy="0" r="1" gradientUnits="userSpaceOnUse" gradientTransform="translate(225.132 107.351) rotate(-179.756) scale(221.639 214.914)">
<stop offset="0.427893" stop-color="#2F5BD8"/>
<stop offset="1" stop-color="#00FFFF" stop-opacity="0.43"/>
</radialGradient>
<radialGradient id="paint4_radial_387_14953" cx="0" cy="0" r="1" gradientUnits="userSpaceOnUse" gradientTransform="translate(225.132 107.351) rotate(-179.756) scale(221.639 214.914)">
<stop offset="0.427893" stop-color="#2F5BD8"/>
<stop offset="1" stop-color="#00FFFF" stop-opacity="0.43"/>
</radialGradient>
<radialGradient id="paint5_radial_387_14953" cx="0" cy="0" r="1" gradientUnits="userSpaceOnUse" gradientTransform="translate(225.132 107.351) rotate(-179.756) scale(221.639 214.914)">
<stop offset="0.427893" stop-color="#2F5BD8"/>
<stop offset="1" stop-color="#00FFFF" stop-opacity="0.43"/>
</radialGradient>
<radialGradient id="paint6_radial_387_14953" cx="0" cy="0" r="1" gradientUnits="userSpaceOnUse" gradientTransform="translate(225.132 107.351) rotate(-179.756) scale(221.639 214.914)">
<stop offset="0.427893" stop-color="#2F5BD8"/>
<stop offset="1" stop-color="#00FFFF" stop-opacity="0.43"/>
</radialGradient>
<radialGradient id="paint7_radial_387_14953" cx="0" cy="0" r="1" gradientUnits="userSpaceOnUse" gradientTransform="translate(225.132 107.351) rotate(-179.756) scale(221.639 214.914)">
<stop offset="0.427893" stop-color="#2F5BD8"/>
<stop offset="1" stop-color="#00FFFF" stop-opacity="0.43"/>
</radialGradient>
<radialGradient id="paint8_radial_387_14953" cx="0" cy="0" r="1" gradientUnits="userSpaceOnUse" gradientTransform="translate(225.132 107.351) rotate(-179.756) scale(221.639 214.914)">
<stop offset="0.427893" stop-color="#2F5BD8"/>
<stop offset="1" stop-color="#00FFFF" stop-opacity="0.43"/>
</radialGradient>
<radialGradient id="paint9_radial_387_14953" cx="0" cy="0" r="1" gradientUnits="userSpaceOnUse" gradientTransform="translate(225.132 107.351) rotate(-179.756) scale(221.639 214.914)">
<stop offset="0.427893" stop-color="#2F5BD8"/>
<stop offset="1" stop-color="#00FFFF" stop-opacity="0.43"/>
</radialGradient>
<radialGradient id="paint10_radial_387_14953" cx="0" cy="0" r="1" gradientUnits="userSpaceOnUse" gradientTransform="translate(225.132 107.351) rotate(-179.756) scale(221.639 214.914)">
<stop offset="0.427893" stop-color="#2F5BD8"/>
<stop offset="1" stop-color="#00FFFF" stop-opacity="0.43"/>
</radialGradient>
<radialGradient id="paint11_radial_387_14953" cx="0" cy="0" r="1" gradientUnits="userSpaceOnUse" gradientTransform="translate(225.132 107.351) rotate(-179.756) scale(221.639 214.914)">
<stop offset="0.427893" stop-color="#2F5BD8"/>
<stop offset="1" stop-color="#00FFFF" stop-opacity="0.43"/>
</radialGradient>
<radialGradient id="paint12_radial_387_14953" cx="0" cy="0" r="1" gradientUnits="userSpaceOnUse" gradientTransform="translate(225.132 107.351) rotate(-179.756) scale(221.639 214.914)">
<stop offset="0.427893" stop-color="#2F5BD8"/>
<stop offset="1" stop-color="#00FFFF" stop-opacity="0.43"/>
</radialGradient>
<radialGradient id="paint13_radial_387_14953" cx="0" cy="0" r="1" gradientUnits="userSpaceOnUse" gradientTransform="translate(225.132 107.351) rotate(-179.756) scale(221.639 214.914)">
<stop offset="0.427893" stop-color="#2F5BD8"/>
<stop offset="1" stop-color="#00FFFF" stop-opacity="0.43"/>
</radialGradient>
<radialGradient id="paint14_radial_387_14953" cx="0" cy="0" r="1" gradientUnits="userSpaceOnUse" gradientTransform="translate(225.132 107.351) rotate(-179.756) scale(221.639 214.914)">
<stop offset="0.427893" stop-color="#2F5BD8"/>
<stop offset="1" stop-color="#00FFFF" stop-opacity="0.43"/>
</radialGradient>
</defs>
</svg>
