<svg width="159" height="144" viewBox="0 0 159 144" fill="none" xmlns="http://www.w3.org/2000/svg">
<path fill-rule="evenodd" clip-rule="evenodd" d="M111.264 34.5055C112.918 35.5347 114.855 36.0113 116.796 35.867C120.203 35.1279 121.4 31.2475 119.881 27.5056C119.146 25.6968 117.86 24.1681 116.205 23.1389C114.551 22.1097 112.614 21.6331 110.673 21.7774C107.266 22.5165 106.069 26.3969 107.589 30.1388C108.323 31.9476 109.61 33.4763 111.264 34.5055ZM115.821 23.7559C117.345 24.7038 118.531 26.1121 119.207 27.779C119.912 29.5147 119.967 31.2362 119.5 32.5725C119.044 33.8744 118.095 34.8245 116.691 35.146C114.921 35.2668 113.157 34.8273 111.648 33.8885C110.124 32.9406 108.939 31.5323 108.262 29.8654C107.557 28.1297 107.502 26.4082 107.97 25.072C108.425 23.77 109.374 22.8199 110.779 22.4984C112.549 22.3777 114.313 22.8171 115.821 23.7559Z" fill="url(#paint0_linear_387_14957)"/>
<path fill-rule="evenodd" clip-rule="evenodd" d="M83.0507 35.3587C82.3164 33.5499 81.0297 32.0211 79.3755 30.9919C77.7212 29.9627 75.7844 29.4861 73.8433 29.6304C70.4366 30.3695 69.2396 34.25 70.7588 37.9918C71.4932 39.8006 72.7798 41.3294 74.4341 42.3585C76.0884 43.3877 78.0252 43.8644 79.9663 43.72C83.373 42.9809 84.57 39.1005 83.0507 35.3587ZM79.8608 42.999C81.2654 42.6775 82.2145 41.7274 82.6698 40.4255C83.1372 39.0892 83.0822 37.3678 82.3775 35.632C81.7008 33.9651 80.5152 32.5568 78.9916 31.6089C77.4827 30.6702 75.7188 30.2307 73.9487 30.3514C72.5442 30.6729 71.5951 31.6231 71.1398 32.925C70.6724 34.2612 70.7274 35.9827 71.4321 37.7185C72.1088 39.3853 73.2943 40.7936 74.818 41.7415C76.3269 42.6803 78.0908 43.1198 79.8608 42.999Z" fill="url(#paint1_linear_387_14957)"/>
<path fill-rule="evenodd" clip-rule="evenodd" d="M127.099 69.8459C128.753 70.875 130.69 71.3517 132.631 71.2074C136.038 70.4682 137.235 66.5878 135.716 62.846C134.981 61.0372 133.695 59.5084 132.04 58.4793C130.386 57.4501 128.449 56.9734 126.508 57.1178C123.101 57.8569 121.904 61.7373 123.424 65.4791C124.158 67.2879 125.445 68.8167 127.099 69.8459ZM131.656 59.0963C133.18 60.0442 134.366 61.4525 135.042 63.1194C135.747 64.8551 135.802 66.5766 135.335 67.9128C134.879 69.2147 133.93 70.1649 132.526 70.4864C130.756 70.6071 128.992 70.1676 127.483 69.2289C125.959 68.281 124.774 66.8726 124.097 65.2058C123.392 63.47 123.337 61.7486 123.805 60.4123C124.26 59.1104 125.209 58.1602 126.614 57.8387C128.384 57.718 130.147 58.1575 131.656 59.0963Z" fill="url(#paint2_linear_387_14957)"/>
<path d="M86.992 73.0588C87.6687 74.7257 88.8542 76.134 90.3779 77.0819C91.8868 78.0207 93.6507 78.4601 95.4207 78.3394C96.8253 78.0179 97.7744 77.0677 98.2297 75.7658C98.697 74.4296 98.6421 72.7081 97.9374 70.9724L98.6106 70.699C100.13 74.4408 98.9329 78.3213 95.5261 79.0604C93.585 79.2047 91.6483 78.7281 89.994 77.6989C88.3398 76.6697 87.0531 75.1409 86.3187 73.3321C84.7995 69.5903 85.9965 65.7099 89.4032 64.9708C91.3443 64.8264 93.2811 65.3031 94.9354 66.3323C96.5896 67.3615 97.8763 68.8902 98.6106 70.699L97.9374 70.9724C97.2607 69.3055 96.0751 67.8972 94.5515 66.9493C93.0425 66.0105 91.2787 65.571 89.5086 65.6918C88.1041 66.0133 87.155 66.9634 86.6997 68.2653C86.2323 69.6016 86.2873 71.323 86.992 73.0588Z" fill="url(#paint3_linear_387_14957)"/>
<path fill-rule="evenodd" clip-rule="evenodd" d="M108.094 6.07038C111.364 5.50253 114.73 6.01519 117.686 7.53131C120.641 9.04743 123.026 11.4851 124.483 14.478L149.942 71.9451C150.598 73.2439 150.939 74.68 150.938 76.1363C150.936 77.5926 150.591 79.0278 149.931 80.3249C149.271 81.622 148.315 82.7443 147.141 83.6001C145.967 84.4559 144.607 85.021 143.174 85.2494L98.1498 94.7657C94.8792 95.3335 91.5132 94.8209 88.5578 93.3048C85.6023 91.7887 83.2171 89.351 81.7606 86.3581L56.3021 28.8909C55.6456 27.5922 55.3043 26.1561 55.3061 24.6998C55.3079 23.2435 55.6528 21.8082 56.3126 20.5111C56.9724 19.214 57.9284 18.0918 59.1027 17.236C60.277 16.3802 61.6362 15.815 63.0695 15.5867L108.094 6.07038ZM56.959 28.5797L82.4196 86.0517C83.808 88.8981 86.0781 91.216 88.8894 92.6582C91.7007 94.1004 94.9016 94.5892 98.0126 94.052L143.042 84.5347L143.06 84.5318C144.38 84.3215 145.631 83.8011 146.713 83.0128C147.795 82.2246 148.675 81.1907 149.283 79.9955C149.891 78.8002 150.209 77.4776 150.211 76.1354C150.213 74.7932 149.898 73.4697 149.293 72.273L149.285 72.2564L123.824 14.7844C122.436 11.938 120.166 9.62006 117.354 8.17786C114.543 6.73572 111.342 6.24685 108.231 6.7841L63.2019 16.3014L63.1839 16.3043C61.8641 16.5146 60.6123 17.035 59.5307 17.8232C58.4491 18.6115 57.5683 19.6454 56.9603 20.8406C56.3523 22.0358 56.0345 23.3585 56.0328 24.7007C56.0311 26.0429 56.3456 27.3663 56.9506 28.5631L56.959 28.5797Z" fill="url(#paint4_linear_387_14957)"/>
<path fill-rule="evenodd" clip-rule="evenodd" d="M103.349 114.307C105.145 112.69 104.316 111.859 101.462 112.459C98.4081 113.163 95.5469 114.536 93.0832 116.478C91.2877 118.095 92.1164 118.927 94.9707 118.326C98.0245 117.622 100.886 116.25 103.349 114.307ZM101.618 113.169C98.6795 113.847 95.9256 115.167 93.5521 117.034C93.2019 117.351 93.0112 117.593 92.9212 117.753C92.9931 117.77 93.0988 117.786 93.2493 117.792C93.6171 117.807 94.1372 117.758 94.8143 117.616C97.753 116.938 100.507 115.618 102.88 113.751C103.231 113.434 103.421 113.192 103.511 113.032C103.439 113.016 103.334 112.999 103.183 112.993C102.816 112.978 102.295 113.027 101.618 113.169Z" fill="url(#paint5_linear_387_14957)"/>
<path fill-rule="evenodd" clip-rule="evenodd" d="M124.986 101.834C127.84 101.234 128.669 102.065 126.873 103.682C124.41 105.625 121.548 106.997 118.495 107.701C115.64 108.302 114.812 107.47 116.607 105.853C119.071 103.911 121.932 102.538 124.986 101.834ZM126.404 103.127C124.031 104.993 121.277 106.313 118.338 106.992C117.661 107.134 117.141 107.182 116.773 107.167C116.623 107.161 116.517 107.145 116.445 107.128C116.535 106.969 116.726 106.727 117.076 106.409C119.45 104.542 122.203 103.223 125.142 102.544C125.819 102.402 126.339 102.353 126.707 102.368C126.858 102.375 126.963 102.391 127.035 102.407C126.945 102.567 126.755 102.809 126.404 103.127Z" fill="url(#paint6_linear_387_14957)"/>
<path fill-rule="evenodd" clip-rule="evenodd" d="M96.1671 110.195C97.9625 108.578 97.1338 107.746 94.2795 108.347C91.2257 109.051 88.3646 110.423 85.9008 112.366C84.1053 113.983 84.934 114.814 87.7883 114.214C90.8421 113.51 93.7033 112.137 96.1671 110.195ZM87.6319 113.504C90.5707 112.825 93.3246 111.506 95.6981 109.639C96.0484 109.321 96.239 109.079 96.329 108.92C96.2571 108.903 96.1514 108.887 96.0009 108.881C95.6332 108.866 95.1131 108.914 94.4359 109.056C91.4972 109.735 88.7432 111.055 86.3697 112.921C86.0195 113.239 85.8289 113.481 85.7388 113.641C85.8107 113.657 85.9165 113.673 86.0669 113.68C86.4347 113.695 86.9548 113.646 87.6319 113.504Z" fill="url(#paint7_linear_387_14957)"/>
<path fill-rule="evenodd" clip-rule="evenodd" d="M108.786 116.524C111.64 115.923 112.469 116.755 110.673 118.372C108.21 120.315 105.349 121.688 102.295 122.391C99.4403 122.991 98.6117 122.16 100.407 120.543C102.87 118.599 105.732 117.226 108.786 116.524ZM110.204 117.816C107.832 119.684 105.078 121.004 102.138 121.681C101.461 121.823 100.941 121.872 100.573 121.857C100.423 121.85 100.317 121.834 100.245 121.818C100.335 121.658 100.526 121.416 100.876 121.098C103.249 119.23 106.003 117.911 108.942 117.233C109.619 117.091 110.139 117.042 110.507 117.058C110.658 117.064 110.763 117.08 110.835 117.096C110.745 117.256 110.555 117.498 110.204 117.816Z" fill="url(#paint8_linear_387_14957)"/>
<path fill-rule="evenodd" clip-rule="evenodd" d="M77.9851 123.038C74.9312 123.742 72.0701 125.115 69.6063 127.057C67.8109 128.674 68.6395 129.506 71.4938 128.905C74.5477 128.201 77.4088 126.829 79.8726 124.886C81.668 123.269 80.8394 122.438 77.9851 123.038ZM79.4037 124.33C79.7539 124.013 79.9445 123.771 80.0346 123.611C79.9626 123.595 79.8569 123.579 79.7064 123.572C79.3387 123.557 78.8186 123.606 78.1415 123.748C75.2027 124.427 72.4488 125.746 70.0752 127.613C69.725 127.931 69.5344 128.172 69.4444 128.332C69.5163 128.349 69.622 128.365 69.7725 128.371C70.1402 128.386 70.6603 128.338 71.3374 128.195C74.2762 127.517 77.0302 126.197 79.4037 124.33Z" fill="url(#paint9_linear_387_14957)"/>
<path fill-rule="evenodd" clip-rule="evenodd" d="M135.254 94.9505C141.607 93.6108 142.896 96.0592 138.016 100.448L119.141 117.494C113.192 122.427 106.227 125.977 98.7468 127.888L61.1805 135.833C54.8274 137.173 53.5383 134.725 58.3722 130.336L77.2935 113.29C83.2432 108.357 90.2082 104.807 97.6879 102.896L135.254 94.9505ZM137.529 99.9084L118.666 116.944C112.805 121.801 105.946 125.296 98.5815 127.18L61.0306 135.122C59.4797 135.449 58.2944 135.532 57.4661 135.435C56.61 135.335 56.3154 135.071 56.2271 134.9C56.1396 134.73 56.0948 134.34 56.5132 133.588C56.9184 132.861 57.6798 131.947 58.8595 130.875L77.7688 113.84C83.6294 108.983 90.4881 105.488 97.8531 103.604L135.404 95.6615C136.955 95.3344 138.14 95.252 138.968 95.3489C139.824 95.449 140.115 95.7127 140.2 95.8811C140.286 96.0487 140.329 96.4385 139.904 97.1918C139.493 97.9205 138.722 98.8355 137.531 99.9074L137.529 99.9084Z" fill="url(#paint10_linear_387_14957)"/>
<path fill-rule="evenodd" clip-rule="evenodd" d="M15.6953 68.2965C15.4402 70.7165 15.8401 73.1609 16.8528 75.3721C17.8655 77.5834 19.4536 79.4798 21.45 80.8616C24.9488 82.4785 28.0793 79.5219 28.4016 74.2557C28.6566 71.8356 28.2568 69.3913 27.2441 67.18C26.2314 64.9688 24.6432 63.0724 22.6469 61.6905C19.1481 60.0737 16.0176 63.0302 15.6953 68.2965ZM16.418 68.3726L15.6953 68.2965L16.4206 68.3408C16.5746 65.8254 17.3945 63.9691 18.48 62.9395C19.5132 61.9595 20.8316 61.675 22.286 62.3247C24.1501 63.6289 25.6339 65.4093 26.5834 67.4826C27.5419 69.5753 27.9203 71.8889 27.6789 74.1795L27.6772 74.1954L27.6762 74.2113C27.5223 76.7267 26.7024 78.583 25.6169 79.6126C24.5836 80.5926 23.2653 80.8772 21.8108 80.2274C19.9468 78.9232 18.463 77.1428 17.5135 75.0695C16.555 72.9768 16.1765 70.6633 16.418 68.3726Z" fill="url(#paint11_linear_387_14957)"/>
<path d="M54.8785 93.1577C53.8658 90.9464 53.4659 88.5021 53.721 86.082L54.4437 86.1582C54.2022 88.4488 54.5807 90.7624 55.5392 92.8551C56.4893 94.9296 57.9743 96.7109 59.8398 98.0153C61.2924 98.6845 62.6079 98.4016 63.6413 97.4167C64.7277 96.3813 65.548 94.5129 65.702 91.9969L65.703 91.9798L65.7049 91.9628C65.9544 89.6651 65.5799 87.3426 64.6211 85.2413C63.6712 83.1596 62.1829 81.372 60.3119 80.0641C58.8574 79.4143 57.539 79.6989 56.5057 80.6789C55.4202 81.7085 54.6003 83.5648 54.4463 86.0802L53.721 86.0358C54.0433 80.7696 57.1738 77.813 60.6726 79.4299C62.6763 80.8156 64.2691 82.7195 65.2822 84.9397C66.2953 87.1599 66.691 89.6137 66.4273 92.0412C66.105 97.3075 62.9745 100.31 59.4757 98.6472C57.4793 97.2653 55.8912 95.3689 54.8785 93.1577Z" fill="url(#paint12_linear_387_14957)"/>
<path fill-rule="evenodd" clip-rule="evenodd" d="M11.3674 51.713L35.7671 29.6777C36.7147 28.5954 37.9318 27.7852 39.294 27.33C40.6561 26.8748 42.1143 26.791 43.5194 27.087C44.9244 27.3831 46.2258 28.0485 47.2904 29.0151C48.355 29.9816 49.1446 31.2147 49.5782 32.588L74.7605 89.8242C75.9938 93.0085 76.2717 96.4852 75.56 99.826C74.8483 103.167 73.1781 106.226 70.7553 108.626L46.2175 130.661C45.2699 131.743 44.0528 132.554 42.6907 133.009C41.3285 133.464 39.8703 133.548 38.4652 133.252C37.0602 132.956 35.7588 132.29 34.6942 131.324C33.6296 130.357 32.8401 129.124 32.4064 127.751L7.40825 70.5145C6.1693 67.3346 5.884 63.8605 6.58744 60.52C7.29089 57.1794 8.95239 54.1181 11.3674 51.713ZM74.0887 90.1018C75.266 93.1501 75.5304 96.4773 74.8493 99.6747C74.1683 102.871 72.5718 105.799 70.2564 108.097L45.6995 130.15L45.6708 130.182C44.808 131.168 43.7 131.905 42.4603 132.32C41.2207 132.734 39.8937 132.81 38.6151 132.541C37.3364 132.271 36.1519 131.666 35.1826 130.786C34.2134 129.906 33.4943 128.783 33.0993 127.532L33.0877 127.495L8.08009 70.2372C6.89688 67.1926 6.62515 63.8674 7.29851 60.6697C7.97165 57.4731 9.55987 54.5435 11.8678 52.2402L36.2858 30.1884L36.3138 30.1564C37.1766 29.1709 38.2846 28.4335 39.5243 28.0192C40.7639 27.6049 42.0909 27.5286 43.3695 27.7981C44.6482 28.0675 45.8328 28.6731 46.802 29.553C47.7712 30.433 48.4903 31.5559 48.8853 32.8068L48.8972 32.8445L74.0887 90.1018Z" fill="url(#paint13_linear_387_14957)"/>
<path fill-rule="evenodd" clip-rule="evenodd" d="M126.617 7.75537L126.619 7.76049L157.242 76.3316L157.248 76.3489C158.316 79.1104 158.555 82.1247 157.936 85.0207C157.318 87.9168 155.869 90.5684 153.767 92.649L153.755 92.6607L120.171 122.986L120.159 122.996C115.162 127.143 109.31 130.128 103.025 131.733L103.011 131.737L46.0811 143.8L46.0681 143.802C43.2131 144.299 40.2745 143.854 37.6936 142.532C35.1128 141.211 33.0293 139.086 31.7554 136.476L31.7502 136.465L1.03079 67.8825L1.02393 67.8648C-0.0434253 65.1033 -0.282564 62.089 0.335886 59.1929C0.95434 56.2969 2.40347 53.6452 4.50518 51.5647L4.51703 51.5529L38.1017 21.2274L38.1134 21.2177C43.1106 17.0703 48.9622 14.0862 55.2471 12.4804L55.2604 12.477L112.285 0.182469L112.302 0.179611C115.185 -0.298145 118.144 0.183369 120.728 1.55048C123.312 2.91757 125.379 5.09503 126.615 7.75028L126.617 7.75537ZM55.427 13.1845L112.421 0.896494C115.147 0.444763 117.945 0.900011 120.388 2.1928C122.832 3.48559 124.787 5.54496 125.956 8.05679L156.571 76.6109C157.587 79.2405 157.815 82.1111 157.226 84.869C156.637 87.6269 155.257 90.1517 153.256 92.1326L119.695 122.437C114.78 126.516 109.026 129.45 102.845 131.029L45.9434 143.086C43.2439 143.556 40.4653 143.135 38.0248 141.886C35.5842 140.636 33.6135 138.626 32.4085 136.157L1.70173 67.6028C0.685323 64.9731 0.457573 62.1026 1.04653 59.3447C1.63548 56.5868 3.01542 54.0619 5.0164 52.0811L38.5774 21.7769C43.4919 17.6981 49.2466 14.7635 55.427 13.1845Z" fill="url(#paint14_linear_387_14957)"/>
<defs>
<linearGradient id="paint0_linear_387_14957" x1="15.5789" y1="1.13415e-06" x2="126.316" y2="133.895" gradientUnits="userSpaceOnUse">
<stop stop-color="#0C7355"/>
<stop offset="1" stop-color="#00FFFF"/>
</linearGradient>
<linearGradient id="paint1_linear_387_14957" x1="15.5789" y1="1.13415e-06" x2="126.316" y2="133.895" gradientUnits="userSpaceOnUse">
<stop stop-color="#0C7355"/>
<stop offset="1" stop-color="#00FFFF"/>
</linearGradient>
<linearGradient id="paint2_linear_387_14957" x1="15.5789" y1="1.13415e-06" x2="126.316" y2="133.895" gradientUnits="userSpaceOnUse">
<stop stop-color="#0C7355"/>
<stop offset="1" stop-color="#00FFFF"/>
</linearGradient>
<linearGradient id="paint3_linear_387_14957" x1="15.5789" y1="1.13415e-06" x2="126.316" y2="133.895" gradientUnits="userSpaceOnUse">
<stop stop-color="#0C7355"/>
<stop offset="1" stop-color="#00FFFF"/>
</linearGradient>
<linearGradient id="paint4_linear_387_14957" x1="15.5789" y1="1.13415e-06" x2="126.316" y2="133.895" gradientUnits="userSpaceOnUse">
<stop stop-color="#0C7355"/>
<stop offset="1" stop-color="#00FFFF"/>
</linearGradient>
<linearGradient id="paint5_linear_387_14957" x1="15.5789" y1="1.13415e-06" x2="126.316" y2="133.895" gradientUnits="userSpaceOnUse">
<stop stop-color="#0C7355"/>
<stop offset="1" stop-color="#00FFFF"/>
</linearGradient>
<linearGradient id="paint6_linear_387_14957" x1="15.5789" y1="1.13415e-06" x2="126.316" y2="133.895" gradientUnits="userSpaceOnUse">
<stop stop-color="#0C7355"/>
<stop offset="1" stop-color="#00FFFF"/>
</linearGradient>
<linearGradient id="paint7_linear_387_14957" x1="15.5789" y1="1.13415e-06" x2="126.316" y2="133.895" gradientUnits="userSpaceOnUse">
<stop stop-color="#0C7355"/>
<stop offset="1" stop-color="#00FFFF"/>
</linearGradient>
<linearGradient id="paint8_linear_387_14957" x1="15.5789" y1="1.13415e-06" x2="126.316" y2="133.895" gradientUnits="userSpaceOnUse">
<stop stop-color="#0C7355"/>
<stop offset="1" stop-color="#00FFFF"/>
</linearGradient>
<linearGradient id="paint9_linear_387_14957" x1="15.5789" y1="1.13415e-06" x2="126.316" y2="133.895" gradientUnits="userSpaceOnUse">
<stop stop-color="#0C7355"/>
<stop offset="1" stop-color="#00FFFF"/>
</linearGradient>
<linearGradient id="paint10_linear_387_14957" x1="15.5789" y1="1.13415e-06" x2="126.316" y2="133.895" gradientUnits="userSpaceOnUse">
<stop stop-color="#0C7355"/>
<stop offset="1" stop-color="#00FFFF"/>
</linearGradient>
<linearGradient id="paint11_linear_387_14957" x1="15.5789" y1="1.13415e-06" x2="126.316" y2="133.895" gradientUnits="userSpaceOnUse">
<stop stop-color="#0C7355"/>
<stop offset="1" stop-color="#00FFFF"/>
</linearGradient>
<linearGradient id="paint12_linear_387_14957" x1="15.5789" y1="1.13415e-06" x2="126.316" y2="133.895" gradientUnits="userSpaceOnUse">
<stop stop-color="#0C7355"/>
<stop offset="1" stop-color="#00FFFF"/>
</linearGradient>
<linearGradient id="paint13_linear_387_14957" x1="15.5789" y1="1.13415e-06" x2="126.316" y2="133.895" gradientUnits="userSpaceOnUse">
<stop stop-color="#0C7355"/>
<stop offset="1" stop-color="#00FFFF"/>
</linearGradient>
<linearGradient id="paint14_linear_387_14957" x1="15.5789" y1="1.13415e-06" x2="126.316" y2="133.895" gradientUnits="userSpaceOnUse">
<stop stop-color="#0C7355"/>
<stop offset="1" stop-color="#00FFFF"/>
</linearGradient>
</defs>
</svg>
