<svg width="164" height="179" viewBox="0 0 164 179" fill="none" xmlns="http://www.w3.org/2000/svg">
<path fill-rule="evenodd" clip-rule="evenodd" d="M153.477 96.7474C153.477 96.7474 158.599 93.6192 162.003 94.4133C162.901 91.5609 163.065 88.5263 162.479 85.5927C161.891 82.6491 160.567 79.9039 158.633 77.6148L158.603 77.5796L158.577 77.5416L159.321 77.0336C161.354 79.4391 162.744 82.3236 163.362 85.4163C163.98 88.5089 163.804 91.7083 162.853 94.714C162.745 95.1727 162.599 95.6522 162.433 96.1321L148.353 126.218C148.353 126.218 146.541 132.925 135.788 138.263L62.2485 176.876C61.2377 177.729 60.0261 178.301 58.7339 178.541C58.557 178.574 58.3786 178.601 58.199 178.621L58.1987 178.621C56.4061 178.778 54.615 178.303 53.1333 177.277L53.1315 177.276L53.1313 177.277C52.8488 177.08 52.5721 176.876 52.3014 176.664C50.2013 175.022 48.4683 172.95 47.2206 170.58L7.31147 98.742C7.31147 98.742 6.83429 97.8019 6.22806 96.4286L6.22773 96.4232C4.68005 92.9897 3.95364 89.2405 4.10659 85.4751L0.673366 50.7595C0.673366 50.7595 -0.738945 40.6218 15.482 34.3573C31.7028 28.0928 91.5051 1.19559 91.5051 1.19559C95.3024 0.0676583 99.3568 0.166011 103.096 1.47676C106.835 2.78751 110.069 5.2444 112.343 8.50037C120.406 20.0623 159.321 77.0336 159.321 77.0336C158.577 77.5416 158.577 77.5414 158.577 77.5409L158.576 77.539L158.57 77.5312L158.549 77.5003L158.466 77.3778L158.138 76.899L156.89 75.0711C155.81 73.4908 154.258 71.2202 152.371 68.4594C148.597 62.9378 143.481 55.4552 138.112 47.6113C127.375 31.9217 115.633 14.7931 111.604 9.01591C109.439 5.91444 106.358 3.57474 102.798 2.32663C99.2564 1.08512 95.4178 0.985935 91.8187 2.04201L91.7023 2.09436L91.1986 2.3207C90.7565 2.51929 90.106 2.81135 89.2724 3.18527C87.6052 3.93312 85.2054 5.00842 82.2751 6.31834C76.4145 8.93817 68.4311 12.4966 59.9406 16.2509C42.9706 23.7547 23.9417 32.0556 15.8064 35.1974C7.86652 38.2638 4.35603 42.2283 2.79879 45.3134C2.01536 46.8655 1.7113 48.2239 1.60078 49.1809C1.54548 49.6599 1.53865 50.0384 1.54469 50.2901C1.5477 50.4159 1.55392 50.5098 1.55887 50.5685C1.56134 50.5979 1.56349 50.6184 1.56476 50.6297L1.56552 50.6366L1.56567 50.6377L1.56585 50.639L1.56587 50.6392L1.56592 50.6396L1.56781 50.653L1.56958 50.6709L5.0028 85.3865L5.00898 85.449L5.00643 85.5117C4.89751 88.1932 5.25175 90.8661 6.04649 93.4138L4.03878 60.0766C4.03878 60.0766 5.11745 56.5208 11.9883 66.1487L51.1345 132.612C54.3699 140.754 55.8743 149.484 55.5512 158.242L53.2606 176.26C53.3885 176.354 53.5177 176.447 53.6482 176.538C54.8557 177.373 56.2952 177.795 57.7533 177.746C57.1066 176.006 57.0033 172.818 58.1183 167.202L60.0569 151.113C63.5208 144.34 69.1572 138.935 76.0566 135.773L153.477 96.7474ZM52.435 175.613L54.6527 158.169C54.9643 149.572 53.4898 141.003 50.3232 133.009L11.2324 66.6399C9.54397 64.2767 8.23234 62.7521 7.22518 61.7891C6.2009 60.8097 5.55055 60.4688 5.19518 60.3697C5.07129 60.3352 4.99539 60.3334 4.95664 60.3364L7.11691 96.2067C7.38997 96.8209 7.63291 97.339 7.8111 97.7105C7.90694 97.9103 7.98394 98.0674 8.03667 98.1741C8.06303 98.2274 8.08332 98.268 8.09686 98.295L8.1094 98.32L48.0099 170.143L48.0148 170.152L48.0195 170.16C49.1229 172.256 50.6249 174.108 52.435 175.613ZM158.951 81.3419C159.127 88.5553 151.825 92.8575 151.825 92.8575L76.3408 131.122C61.2749 136.962 50.0066 122.761 50.0066 122.761L33.1897 94.023L9.32541 53.2815C4.09147 44.3672 12.9396 39.4919 12.9396 39.4919C12.9396 39.4919 67.6662 15.8512 84.6978 8.00052C101.729 0.149801 106.904 7.45945 106.904 7.45945L138.987 53.1561L158.951 81.3419ZM151.388 92.0691L75.974 130.298C68.8027 133.061 62.5316 131.086 57.9873 128.359C55.7096 126.993 53.8834 125.446 52.6264 124.239C51.9987 123.637 51.5154 123.121 51.1911 122.759C51.029 122.578 50.9068 122.436 50.8263 122.34C50.8072 122.317 50.7904 122.297 50.776 122.28L50.7493 122.247L33.9669 93.5681L33.9667 93.5678L10.1025 52.8264L10.102 52.8256C8.87101 50.7289 8.4987 48.9266 8.5813 47.4153C8.66418 45.8988 9.20908 44.6068 9.91876 43.5439C10.6312 42.477 11.5008 41.655 12.2004 41.097C12.5484 40.8194 12.8496 40.611 13.0607 40.4737C13.1661 40.4052 13.2486 40.3546 13.3028 40.3223L13.3426 40.2988L13.4544 40.2505L13.9157 40.0511C14.3208 39.876 14.917 39.6182 15.682 39.2873C17.2118 38.6255 19.4163 37.6713 22.1149 36.5017C27.512 34.1625 34.8857 30.9619 42.7917 27.5158C58.5996 20.6255 76.5487 12.7485 85.0748 8.81839C93.4663 4.95032 98.8043 4.87726 101.972 5.66023C103.559 6.05248 104.629 6.66578 105.29 7.16084C105.621 7.40917 105.852 7.62943 105.995 7.77997C106.066 7.85524 106.115 7.91305 106.144 7.94815C106.158 7.9657 106.167 7.97756 106.172 7.98306L106.173 7.98444L106.174 7.98639L106.174 7.98647L138.25 53.6736L138.252 53.6766L158.053 81.6328C158.042 84.793 156.463 87.3621 154.788 89.1978C153.932 90.1363 153.069 90.8631 152.42 91.3545C152.096 91.5997 151.827 91.7849 151.642 91.9073C151.549 91.9684 151.478 92.0138 151.431 92.043C151.413 92.054 151.399 92.0627 151.388 92.0691ZM58.679 177.635C59.7755 177.411 60.8025 176.916 61.6643 176.189L61.7393 176.125L61.8263 176.08L135.366 137.466L135.375 137.461L135.384 137.457C140.64 134.848 143.673 131.924 145.385 129.691C146.242 128.573 146.772 127.623 147.085 126.964C147.241 126.635 147.343 126.378 147.404 126.209C147.435 126.125 147.455 126.063 147.467 126.025L147.476 125.997L147.479 125.986L147.48 125.984L147.48 125.983L147.48 125.982L147.481 125.981L147.481 125.98L147.5 125.908L147.534 125.837L161.594 95.7942C161.653 95.6212 161.709 95.4501 161.761 95.2818C161.271 95.1733 160.707 95.1576 160.082 95.2256C159.148 95.3272 158.157 95.6079 157.232 95.9512C156.312 96.293 155.486 96.6863 154.889 96.9956C154.591 97.1497 154.352 97.2819 154.189 97.3746C154.142 97.4017 154.101 97.4253 154.067 97.4452L154.004 97.4817L153.959 97.5088L153.949 97.5149L153.947 97.516L153.947 97.5161L153.947 97.5162L153.916 97.5351L153.883 97.5516L76.462 136.577L76.4471 136.585L76.4319 136.592C69.7652 139.647 64.3095 144.854 60.9316 151.382L59.0124 167.31L59.0083 167.344L59.0016 167.377C58.3405 170.708 58.1225 173.127 58.1812 174.866C58.2258 176.184 58.428 177.061 58.679 177.635ZM95.1034 36.9894C101.057 36.8443 105.771 31.8806 105.625 25.8953C105.479 19.9101 100.529 15.1818 94.5756 15.3268C88.6223 15.4719 83.9083 20.4356 84.0542 26.4209C84.2 32.4062 89.1501 37.1344 95.1034 36.9894ZM106.525 25.8734C106.683 32.3526 101.579 37.7325 95.1253 37.8897C88.6715 38.047 83.3117 32.922 83.1538 26.4428C82.996 19.9637 88.0998 14.5838 94.5536 14.4265C101.007 14.2693 106.367 19.3942 106.525 25.8734ZM139.173 75.1798C139.319 81.1651 134.605 86.1288 128.652 86.2738C122.699 86.4189 117.749 81.6906 117.603 75.7053C117.457 69.72 122.171 64.7563 128.124 64.6113C134.077 64.4662 139.028 69.1945 139.173 75.1798ZM128.674 87.1742C135.128 87.0169 140.232 81.637 140.074 75.1578C139.916 68.6786 134.556 63.5537 128.102 63.7109C121.649 63.8682 116.545 69.2481 116.703 75.7273C116.86 82.2065 122.22 87.3314 128.674 87.1742ZM71.2395 113.89C77.1927 113.745 81.9067 108.781 81.7609 102.796C81.6151 96.8103 76.6649 92.0821 70.7117 92.2271C64.7585 92.3722 60.0445 97.3359 60.1903 103.321C60.3361 109.306 65.2863 114.035 71.2395 113.89ZM82.6612 102.774C82.8191 109.253 77.7152 114.633 71.2614 114.79C64.8076 114.947 59.4478 109.822 59.29 103.343C59.1321 96.8639 64.236 91.4841 70.6898 91.3268C77.1435 91.1696 82.5034 96.2945 82.6612 102.774ZM48.9121 50.7529C49.058 56.7382 44.344 61.7019 38.3907 61.847C32.4375 61.992 27.4873 57.2637 27.3415 51.2785C27.1957 45.2932 31.9097 40.3295 37.8629 40.1844C43.8161 40.0394 48.7663 44.7676 48.9121 50.7529ZM38.4127 62.7473C44.8664 62.59 49.9703 57.2101 49.8124 50.731C49.6546 44.2518 44.2948 39.1268 37.841 39.2841C31.3872 39.4413 26.2833 44.8212 26.4412 51.3004C26.5991 57.7796 31.9589 62.9045 38.4127 62.7473ZM17.515 84.0276C17.2191 82.169 16.4514 79.7098 15.2653 77.109C14.0793 74.5081 12.7266 72.3177 11.5185 70.8782C10.9102 70.1534 10.3723 69.6597 9.944 69.3897C9.62647 69.1896 9.46983 69.1712 9.42143 69.171C9.38995 69.2079 9.30143 69.3389 9.24483 69.711C9.16849 70.2128 9.18924 70.9442 9.33825 71.88C9.6342 73.7386 10.4019 76.1978 11.588 78.7986C12.774 81.3994 14.1267 83.5899 15.3348 85.0294C15.943 85.7542 16.481 86.2479 16.9093 86.5179C17.2268 86.718 17.3835 86.7364 17.4319 86.7366C17.4633 86.6997 17.5519 86.5687 17.6085 86.1966C17.6848 85.6948 17.6641 84.9634 17.515 84.0276ZM16.0837 76.733C18.5033 82.0389 19.2753 86.8868 17.8078 87.5611C16.3404 88.2353 13.1893 84.4806 10.7696 79.1746C8.34995 73.8687 7.57801 69.0207 9.04544 68.3465C10.5129 67.6723 13.664 71.427 16.0837 76.733ZM44.3493 150.763C45.5354 153.363 46.3031 155.823 46.599 157.681C46.748 158.617 46.7688 159.348 46.6924 159.85C46.6358 160.222 46.5473 160.353 46.5158 160.39C46.4674 160.39 46.3108 160.372 45.9933 160.172C45.565 159.902 45.027 159.408 44.4187 158.683C43.2107 157.244 41.858 155.053 40.6719 152.452C39.4859 149.851 38.7182 147.392 38.4222 145.534C38.2732 144.598 38.2525 143.866 38.3288 143.365C38.3854 142.993 38.4739 142.862 38.5054 142.825C38.5538 142.825 38.7105 142.843 39.028 143.043C39.4563 143.313 39.9942 143.807 40.6025 144.532C41.8106 145.971 43.1632 148.162 44.3493 150.763ZM46.8918 161.215C48.3593 160.541 47.5873 155.693 45.1676 150.387C42.748 145.081 39.5968 141.326 38.1294 142C36.662 142.674 37.4339 147.522 39.8536 152.828C42.2733 158.134 45.4244 161.889 46.8918 161.215ZM91.7764 135.187C91.7371 135.161 91.5962 135.09 91.2162 135.087C90.711 135.083 89.9935 135.209 89.0927 135.491C87.3038 136.051 84.9905 137.167 82.5977 138.718C80.2049 140.269 78.2407 141.927 76.9959 143.333C76.3691 144.041 75.9601 144.646 75.7558 145.11C75.6021 145.459 75.6087 145.617 75.6158 145.664C75.655 145.689 75.7959 145.76 76.176 145.763C76.6812 145.767 77.3987 145.642 78.2994 145.36C80.0884 144.799 82.4016 143.684 84.7945 142.132C87.1873 140.581 89.1515 138.923 90.3963 137.517C91.023 136.809 91.4321 136.204 91.6364 135.74C91.7901 135.391 91.7835 135.233 91.7764 135.187ZM92.5362 134.694C93.412 136.055 90.164 139.725 85.2817 142.89C80.3994 146.055 75.7317 147.518 74.8559 146.156C73.9802 144.795 77.2282 141.126 82.1104 137.961C86.9927 134.795 91.6605 133.333 92.5362 134.694ZM89.5147 146.06C89.8948 146.063 90.0356 146.134 90.0749 146.16C90.082 146.206 90.0886 146.364 89.9349 146.713C89.7306 147.177 89.3216 147.782 88.6948 148.49C87.45 149.896 85.4858 151.554 83.093 153.106C80.7002 154.657 78.3869 155.772 76.598 156.333C75.6972 156.615 74.9797 156.74 74.4745 156.736C74.0944 156.734 73.9535 156.662 73.9143 156.637C73.9072 156.59 73.9006 156.432 74.0543 156.083C74.2586 155.619 74.6676 155.015 75.2944 154.306C76.5392 152.9 78.5034 151.242 80.8962 149.691C83.2891 148.14 85.6023 147.024 87.3912 146.464C88.292 146.182 89.0095 146.056 89.5147 146.06ZM83.5802 153.863C88.4625 150.698 91.7105 147.028 90.8347 145.667C89.959 144.306 85.2912 145.768 80.409 148.934C75.5267 152.099 72.2787 155.768 73.1544 157.129C74.0302 158.491 78.698 157.028 83.5802 153.863ZM87.9953 156.432C87.956 156.406 87.8151 156.335 87.4351 156.332C86.9299 156.328 86.2123 156.453 85.3116 156.736C83.5225 157.296 81.2091 158.411 78.816 159.961C76.4229 161.512 74.4584 163.17 73.2134 164.576C72.5865 165.284 72.1773 165.889 71.9729 166.353C71.8192 166.701 71.8258 166.86 71.8329 166.906C71.8721 166.932 72.013 167.003 72.393 167.006C72.8982 167.01 73.6158 166.884 74.5166 166.602C76.3056 166.042 78.619 164.927 81.0121 163.376C83.4052 161.825 85.3697 160.168 86.6148 158.762C87.2416 158.054 87.6508 157.449 87.8552 156.985C88.0089 156.636 88.0024 156.478 87.9953 156.432ZM88.7552 155.939C89.6307 157.301 86.3821 160.969 81.4993 164.134C76.6165 167.298 71.9484 168.76 71.0729 167.399C70.1974 166.037 73.446 162.368 78.3288 159.204C83.2117 156.04 87.8797 154.578 88.7552 155.939ZM137.11 130.818C137.49 130.821 137.631 130.892 137.67 130.918C137.677 130.965 137.684 131.123 137.53 131.472C137.326 131.935 136.917 132.54 136.29 133.248C135.045 134.655 133.081 136.313 130.688 137.864C128.296 139.415 125.982 140.531 124.193 141.091C123.293 141.373 122.575 141.499 122.07 141.495C121.69 141.492 121.549 141.421 121.51 141.395C121.503 141.349 121.496 141.191 121.65 140.842C121.854 140.378 122.263 139.773 122.89 139.065C124.135 137.659 126.099 136.001 128.492 134.449C130.884 132.898 133.198 131.783 134.987 131.222C135.887 130.94 136.605 130.815 137.11 130.818ZM131.176 138.621C136.058 135.456 139.306 131.787 138.43 130.425C137.554 129.064 132.887 130.527 128.004 133.692C123.122 136.857 119.874 140.527 120.75 141.888C121.626 143.249 126.293 141.787 131.176 138.621ZM141.668 119.108C141.629 119.082 141.488 119.011 141.108 119.008C140.603 119.004 139.885 119.129 138.984 119.411C137.195 119.972 134.882 121.086 132.489 122.637C130.096 124.188 128.131 125.846 126.886 127.252C126.259 127.96 125.85 128.565 125.646 129.028C125.492 129.377 125.499 129.536 125.506 129.582C125.545 129.608 125.686 129.679 126.066 129.682C126.571 129.686 127.289 129.56 128.189 129.278C129.979 128.718 132.292 127.603 134.685 126.052C137.078 124.501 139.043 122.844 140.288 121.438C140.915 120.73 141.324 120.125 141.528 119.661C141.682 119.312 141.675 119.154 141.668 119.108ZM142.428 118.615C143.304 119.976 140.055 123.645 135.172 126.81C130.289 129.974 125.621 131.436 124.746 130.074C123.87 128.713 127.119 125.044 132.002 121.88C136.885 118.715 141.553 117.254 142.428 118.615ZM145.506 106.77C145.886 106.773 146.027 106.844 146.066 106.87C146.073 106.916 146.08 107.074 145.926 107.423C145.722 107.887 145.312 108.492 144.686 109.2C143.44 110.606 141.476 112.264 139.083 113.814C136.69 115.365 134.376 116.48 132.587 117.04C131.687 117.322 130.969 117.448 130.464 117.444C130.084 117.441 129.943 117.37 129.904 117.344C129.897 117.298 129.89 117.14 130.044 116.791C130.248 116.327 130.657 115.722 131.284 115.014C132.529 113.608 134.494 111.95 136.887 110.4C139.28 108.849 141.593 107.734 143.382 107.174C144.283 106.891 145.001 106.766 145.506 106.77ZM139.57 114.572C144.453 111.407 147.701 107.739 146.826 106.377C145.95 105.016 141.282 106.478 136.4 109.642C131.517 112.806 128.268 116.475 129.144 117.837C130.019 119.198 134.687 117.736 139.57 114.572Z" fill="url(#paint0_radial_387_14955)"/>
<defs>
<radialGradient id="paint0_radial_387_14955" cx="0" cy="0" r="1" gradientUnits="userSpaceOnUse" gradientTransform="translate(139.227 157.813) rotate(-122.383) scale(187.981 181.709)">
<stop stop-color="#032B96"/>
<stop offset="0.462005" stop-color="#2F5BD8"/>
<stop offset="1" stop-color="#00FFFF" stop-opacity="0.43"/>
</radialGradient>
</defs>
</svg>
