<svg width="80" height="50" viewBox="0 0 80 50" fill="none" xmlns="http://www.w3.org/2000/svg">
<path fill-rule="evenodd" clip-rule="evenodd" d="M45 15C48.866 15 52 11.866 52 8C52 4.13401 48.866 1 45 1C41.134 1 38 4.13401 38 8C38 11.866 41.134 15 45 15ZM45 16C49.4183 16 53 12.4183 53 8C53 3.58172 49.4183 0 45 0C40.5817 0 37 3.58172 37 8C37 8.76485 37.1073 9.50463 37.3078 10.2051L14.1319 19.8617C12.6644 18.1122 10.4621 17 8 17C3.58172 17 0 20.5817 0 25C0 29.4183 3.58172 33 8 33C10.7979 33 13.2603 31.5637 14.6901 29.3882L29.3099 37.6118C28.4818 38.8717 28 40.3796 28 42C28 46.4183 31.5817 50 36 50C40.4183 50 44 46.4183 44 42C44 37.5817 40.4183 34 36 34C33.5645 34 31.3831 35.0884 29.9158 36.8053L15.1861 28.5198C15.7073 27.4577 16 26.263 16 25H64C64 29.4183 67.5817 33 72 33C76.4183 33 80 29.4183 80 25C80 20.5817 76.4183 17 72 17C67.9204 17 64.554 20.0537 64.0619 24H15.9381C15.7876 22.7929 15.3681 21.6693 14.7416 20.691L37.6434 11.1486C38.866 14.0015 41.6996 16 45 16ZM8 32C11.866 32 15 28.866 15 25C15 21.134 11.866 18 8 18C4.13401 18 1 21.134 1 25C1 28.866 4.13401 32 8 32ZM72 32C68.134 32 65 28.866 65 25C65 21.134 68.134 18 72 18C75.866 18 79 21.134 79 25C79 28.866 75.866 32 72 32ZM36 49C39.866 49 43 45.866 43 42C43 38.134 39.866 35 36 35C32.134 35 29 38.134 29 42C29 45.866 32.134 49 36 49Z" fill="url(#paint0_radial_387_15694)"/>
<defs>
<radialGradient id="paint0_radial_387_15694" cx="0" cy="0" r="1" gradientUnits="userSpaceOnUse" gradientTransform="translate(67.0841 44.684) rotate(-136.414) scale(65.9436 72.1233)">
<stop stop-color="#032B96"/>
<stop offset="0.462005" stop-color="#2F5BD8"/>
<stop offset="1" stop-color="#00FFFF" stop-opacity="0.43"/>
</radialGradient>
</defs>
</svg>
