<svg width="82" height="50" viewBox="0 0 82 50" fill="none" xmlns="http://www.w3.org/2000/svg">
<path fill-rule="evenodd" clip-rule="evenodd" d="M50 10C50 14.9706 45.9706 19 41 19C36.0294 19 32 14.9706 32 10C32 5.02944 36.0294 1 41 1C45.9706 1 50 5.02944 50 10ZM51 10C51 15.5228 46.5228 20 41 20C35.4772 20 31 15.5228 31 10C31 4.47715 35.4772 0 41 0C46.5228 0 51 4.47715 51 10ZM24.224 30.2924C23.1547 31.6681 22.2494 33.2549 21.5349 35.0666C20.837 36.8362 20.6197 39.02 20.6246 41.1027C20.6273 42.2829 20.7016 43.4443 20.8059 44.5H4.01561C2.83364 44.5 1.84919 43.6826 1.71051 42.5582C1.58162 41.5132 1.4773 40.238 1.50428 38.9687C1.53138 37.6933 1.69066 36.4573 2.06838 35.4733C4.21499 29.8814 9.03465 27.5 15 27.5C18.6172 27.5 21.8032 28.3791 24.224 30.2924ZM24.8603 29.5206C22.214 27.4214 18.7801 26.5 15 26.5C8.74757 26.5 3.47059 29.0302 1.13481 35.1149C0.697766 36.2534 0.532704 37.6206 0.504504 38.9475C0.476173 40.2806 0.585581 41.6068 0.718032 42.6807C0.924435 44.3541 2.37856 45.5 4.01561 45.5H20.9166C20.9697 45.9343 21.0261 46.342 21.0821 46.7156C21.3296 48.3662 22.7683 49.5 24.4 49.5H58.6001C60.2318 49.5 61.6706 48.3662 61.918 46.7156C61.974 46.342 62.0304 45.9343 62.0835 45.5H77.9844C79.6214 45.5 81.0756 44.3541 81.282 42.6807C81.4144 41.6068 81.5238 40.2806 81.4955 38.9475C81.4673 37.6206 81.3022 36.2534 80.8652 35.1149C78.5294 29.0302 73.2524 26.5 67 26.5C63.4986 26.5 60.2945 27.2903 57.7372 29.0758C53.7726 24.8468 48.0132 23 41.5001 23C34.7629 23 28.8322 24.976 24.8603 29.5206ZM77.9844 44.5H62.1942C62.2985 43.4443 62.3728 42.2829 62.3755 41.1027C62.3804 39.02 62.1631 36.8362 61.4652 35.0666C60.6693 33.0485 59.6367 31.3095 58.4043 29.8305C60.7363 28.2375 63.6875 27.5 67 27.5C72.9653 27.5 77.785 29.8814 79.9316 35.4733C80.3093 36.4573 80.4686 37.6933 80.4957 38.9687C80.5227 40.238 80.4184 41.5132 80.2895 42.5582C80.1508 43.6826 79.1664 44.5 77.9844 44.5ZM22.4652 35.4334C25.629 27.411 32.7449 24 41.5001 24C50.2553 24 57.3711 27.411 60.5349 35.4334C61.1647 37.0303 61.3803 39.0667 61.3756 41.1004C61.3708 43.1257 61.1481 45.1058 60.9291 46.5674C60.7605 47.6919 59.7746 48.5 58.6001 48.5H24.4C23.2255 48.5 22.2397 47.6919 22.0711 46.5674C21.852 45.1058 21.6293 43.1257 21.6246 41.1004C21.6198 39.0667 21.8354 37.0303 22.4652 35.4334ZM66.5 24C70.0899 24 73 21.0899 73 17.5C73 13.9101 70.0899 11 66.5 11C62.9101 11 60 13.9101 60 17.5C60 21.0899 62.9101 24 66.5 24ZM66.5 25C70.6421 25 74 21.6421 74 17.5C74 13.3579 70.6421 10 66.5 10C62.3579 10 59 13.3579 59 17.5C59 21.6421 62.3579 25 66.5 25ZM21 17.5C21 21.0899 18.0899 24 14.5 24C10.9101 24 8 21.0899 8 17.5C8 13.9101 10.9101 11 14.5 11C18.0899 11 21 13.9101 21 17.5ZM22 17.5C22 21.6421 18.6421 25 14.5 25C10.3579 25 7 21.6421 7 17.5C7 13.3579 10.3579 10 14.5 10C18.6421 10 22 13.3579 22 17.5Z" fill="url(#paint0_radial_387_15679)"/>
<defs>
<radialGradient id="paint0_radial_387_15679" cx="0" cy="0" r="1" gradientUnits="userSpaceOnUse" gradientTransform="translate(68.4227 44.2371) rotate(-137.057) scale(66.0668 72.1598)">
<stop stop-color="#032B96"/>
<stop offset="0.462005" stop-color="#2F5BD8"/>
<stop offset="1" stop-color="#00FFFF" stop-opacity="0.43"/>
</radialGradient>
</defs>
</svg>
