<svg width="212" height="151" viewBox="0 0 212 151" fill="none" xmlns="http://www.w3.org/2000/svg">
<path fill-rule="evenodd" clip-rule="evenodd" d="M209.464 113.291C208.597 114.994 207.49 116.569 206.152 118.01C196.611 128.283 175.353 131.7 146.02 125.651C94.0164 114.914 36.3189 78.4394 17.1718 44.1496C11.7341 34.413 11.4295 25.4403 13.5008 18.3002C14.0331 16.4652 14.7223 14.7512 15.5217 13.1764L3.55576 33.8722C-1.41675 46.5186 -0.969228 54.1333 5.87616 66.3751C25.0397 100.664 82.7358 137.144 134.741 147.875C168.192 154.783 191.149 149.357 198.184 135.487L209.464 113.291ZM4.29235 34.2267C1.84394 40.4668 0.764754 45.3874 1.098 50.2175C1.43235 55.0634 3.19452 59.9064 6.58817 65.9753C16.0764 82.9525 35.1649 100.556 58.4297 115.269C81.6802 129.972 109.015 141.733 134.907 147.076C151.566 150.516 165.549 150.87 176.206 148.673C186.867 146.475 194.093 141.75 197.457 135.119L205.011 120.254C200.825 123.934 195.009 126.565 187.826 128.045C176.88 130.301 162.655 129.915 145.854 126.45C119.742 121.059 92.2257 109.214 68.8379 94.4229C45.4645 79.641 26.1267 61.8614 16.4596 44.5489C11.5739 35.8009 10.7401 27.6255 12.0634 20.7862L4.29235 34.2267Z" fill="#0684F9"/>
<path fill-rule="evenodd" clip-rule="evenodd" d="M76.6744 4.57921C50.8944 -0.744359 31.5421 1.47892 21.0257 9.03313C15.8024 12.7852 12.7456 17.857 12.1208 24.0454C11.4932 30.2619 13.3129 37.6885 18.0246 46.1143C27.454 62.9766 46.509 80.3643 69.7223 94.8825C92.9206 109.391 120.183 120.978 145.935 126.292C171.736 131.616 190.994 129.491 201.41 122.038C206.582 118.337 209.589 113.318 210.176 107.169C210.767 100.989 208.922 93.586 204.207 85.1576C194.774 68.292 175.802 50.8026 152.679 36.1846C129.571 21.5756 102.406 9.88987 76.6744 4.57921ZM204.919 84.7578C185.866 50.6921 128.524 14.4465 76.8408 3.77973C25.1544 -6.89351 -1.7362 12.4498 17.3126 46.514C36.3613 80.5783 94.049 116.42 145.768 127.092C197.488 137.763 223.973 118.823 204.919 84.7578Z" fill="#0684F9"/>
<path fill-rule="evenodd" clip-rule="evenodd" d="M175.408 79.2143C168.921 67.6102 155.813 55.5252 139.812 45.4074C123.825 35.2988 105.039 27.2099 87.2855 23.5451C69.4815 19.8697 56.25 21.3708 49.1226 26.4727C45.5952 28.9976 43.5493 32.4093 43.1426 36.5873C42.733 40.7946 43.9792 45.861 47.2177 51.6562C53.6999 63.2562 66.8082 75.3412 82.8118 85.4604C98.8008 95.5703 117.592 103.662 135.35 107.328C153.159 111.005 166.39 109.504 173.515 104.401C177.041 101.876 179.085 98.4641 179.49 94.2856C179.897 90.0776 178.649 85.0104 175.408 79.2143ZM176.12 78.8147C162.959 55.2712 123.179 30.1209 87.4518 22.7456C51.7246 15.3702 33.3535 28.5201 46.5055 52.0557C59.6575 75.5914 99.4463 100.749 135.184 108.128C170.921 115.506 189.282 102.353 176.12 78.8147Z" fill="#0684F9"/>
<path fill-rule="evenodd" clip-rule="evenodd" d="M199.524 84.193C190.714 68.4349 173.12 52.0916 151.622 38.3338C130.137 24.5849 104.837 13.4718 80.7002 8.12494C79.9394 7.95606 79.1768 7.79212 78.4131 7.63321L78.4119 7.63297C72.5889 6.41232 66.6933 5.56476 60.761 5.0956C42.2768 3.74942 29.0569 7.41016 22.3818 14.6363C15.7925 21.7695 15.322 32.7038 23.1218 46.6397C31.7922 62.1452 48.9686 78.2186 70.0052 91.8353C91.0278 105.443 115.826 116.546 139.655 122.156C141.189 122.519 142.722 122.856 144.25 123.167L144.253 123.168C145.778 123.485 147.312 123.778 148.785 124.042C171.015 127.951 187.638 125.753 196.891 119.114L196.912 119.098L196.935 119.084C196.956 119.071 196.976 119.056 196.995 119.039L197.071 118.971L197.142 118.934C201.922 115.443 204.688 110.716 205.203 104.928C205.721 99.1037 203.964 92.1283 199.524 84.193ZM60.8244 4.28162C66.7922 4.75349 72.723 5.60605 78.5807 6.83399C79.3479 6.99362 80.1137 7.15824 80.878 7.32791C129.363 18.0684 182.431 51.9465 200.236 83.7933C209.215 99.8389 207.547 112.357 197.604 119.606C197.583 119.621 197.561 119.635 197.538 119.647C197.484 119.695 197.426 119.739 197.365 119.777C187.839 126.613 170.937 128.767 148.641 124.846C147.162 124.58 145.62 124.286 144.085 123.967C142.549 123.654 141.009 123.315 139.466 122.95C91.6044 111.682 39.9332 78.3771 22.41 47.0397C6.64348 18.8699 23.7007 1.57713 60.8244 4.28162ZM192.762 93.1823L192.942 94.4601C193.062 95.3156 193.131 96.1776 193.147 97.0415L193.17 98.264L185.314 95.1874L185.304 94.6425C185.29 93.9127 185.236 93.1843 185.142 92.4606C185.142 92.4582 185.142 92.4558 185.141 92.4534L184.972 91.3148C184.972 91.3124 184.971 91.31 184.971 91.3075C184.933 91.0848 184.888 90.8891 184.838 90.6723C184.801 90.5129 184.762 90.342 184.721 90.1403L184.44 88.757L192.398 91.3967L192.488 91.8663C192.52 92.0341 192.559 92.2058 192.601 92.3938L192.62 92.4818C192.669 92.6981 192.721 92.9339 192.761 93.1712L192.762 93.1823ZM185.95 92.3463C186.049 93.1023 186.105 93.8632 186.119 94.6256L192.331 97.0585C192.326 96.7611 192.314 96.4639 192.296 96.1672C192.262 95.6348 192.209 95.1039 192.134 94.5756L191.956 93.3088C191.915 93.0667 191.86 92.8205 191.805 92.5763C191.763 92.3891 191.721 92.2031 191.687 92.0212L185.52 89.9759C185.552 90.1319 185.588 90.2899 185.624 90.4482C185.659 90.6006 185.694 90.7532 185.725 90.9044C185.744 90.9964 185.761 91.0878 185.777 91.1783L185.95 92.3463ZM188.038 80.7287L188.05 80.7509C188.192 81.0254 188.339 81.304 188.487 81.5853C189.048 82.6524 189.631 83.7591 190.086 84.8357L190.725 86.3496L182.752 84.3305L182.597 83.9505C182.216 83.0212 181.722 82.0898 181.203 81.1134C181.066 80.8549 180.927 80.5933 180.788 80.3277L179.565 78.3327L187.566 79.9402L188.038 80.7287ZM181.771 80.4418C181.818 80.5308 181.865 80.6197 181.913 80.7086C182.434 81.6902 182.954 82.669 183.352 83.6398L189.334 85.1549C189.201 84.8399 189.057 84.5226 188.905 84.2038C188.555 83.4688 188.164 82.7258 187.774 81.9841C187.624 81.6984 187.473 81.413 187.326 81.1282L187.051 80.6697L181.239 79.5021L181.498 79.9235C181.588 80.0963 181.679 80.2691 181.771 80.4418ZM178.5 69L181.771 74.2563L178.5 69ZM174.741 68.8919L178.5 69L174.741 68.8919ZM166.611 55.8511L166.897 56.0976C169.231 58.1046 171.367 60.1086 173.429 62.1437L174.758 63.4555L167.827 63.7732L167.574 63.5278C165.662 61.6693 163.732 59.8302 161.616 58.0154L160.28 56.869L166.611 55.8511ZM150.957 43.8864L152.004 44.604C153.911 45.9311 155.812 47.2661 157.634 48.6402L158.845 49.5537L153.492 51.4537L153.142 51.1886C151.489 49.9368 149.744 48.7166 147.997 47.4952C147.995 47.4936 147.993 47.4919 147.99 47.4903L146.265 46.337L150.957 43.8864ZM148.631 46.9414C150.321 48.1232 152.021 49.3145 153.635 50.5373L157.142 49.2926C156.882 49.0963 156.62 48.9007 156.356 48.7059C154.789 47.5466 153.169 46.4103 151.537 45.2746L150.899 44.8369L147.863 46.4226L148.459 46.8208L148.465 46.8251C148.52 46.8639 148.576 46.9026 148.631 46.9414ZM133.971 33.5744L134.594 33.9193C137.571 35.5695 140.536 37.2513 143.414 39.0409L144.387 39.6463L140.615 42.6977L140.124 42.3952C137.496 40.7767 134.79 39.2533 132.049 37.7103L131.227 37.2474L133.971 33.5744ZM125.346 29.9635L124.009 33.5746L123.203 33.1914C120.351 31.8349 117.521 30.5551 114.664 29.3326L114.115 29.0977L114.589 24.3432L115.606 24.767C118.729 26.0683 121.851 27.4463 124.937 28.9454L125.553 29.2446L125.346 29.9635ZM97.1687 18.1112C99.0962 18.6624 101.04 19.3164 102.969 19.965C103.227 20.052 103.486 20.1389 103.744 20.2255L104.203 20.3794L105.128 25.6419L103.528 25.1027C101.607 24.4552 99.6998 23.812 97.8114 23.2618L96.7311 22.953L94.9603 17.5123L97.1687 18.1112ZM98.0389 22.4774C99.7528 22.9767 101.481 23.5514 103.205 24.1321C103.398 24.1971 103.592 24.2622 103.785 24.3273L104.086 24.4289L103.483 20.9995C103.224 20.9127 102.965 20.8256 102.707 20.7386C100.845 20.1124 98.9881 19.4878 97.1466 18.9548C97.0788 18.9352 97.0109 18.9156 96.9431 18.8963L96.2039 18.6958L97.3727 22.287L98.0389 22.4774ZM83.2371 15.3526C83.1252 15.3315 83.0131 15.3102 82.9009 15.2887C82.7457 15.2591 82.5904 15.2291 82.435 15.199C82.3679 15.186 82.3008 15.173 82.2336 15.16C81.4833 15.0147 80.7327 14.8693 79.9914 14.7462C79.6326 14.6866 79.2759 14.6322 78.9225 14.5856L81.3995 18.4911C82.72 18.7058 84.0692 18.9341 85.4032 19.2341C85.8989 19.3456 86.3989 19.4553 86.9022 19.5656C87.4177 19.6787 87.9365 19.7925 88.4578 19.9098C88.797 19.9861 89.1373 20.0639 89.4782 20.1439L87.6482 16.3637C86.5467 16.1056 85.446 15.866 84.3446 15.6262C84.2393 15.6033 84.1339 15.5803 84.0286 15.5574C83.924 15.5346 83.8195 15.5118 83.715 15.489C83.5544 15.454 83.3938 15.4188 83.2332 15.3836L83.2304 15.3829L83.239 15.3529L83.2371 15.3526ZM84.2546 14.7708C84.3412 14.7897 84.4278 14.8086 84.5145 14.8274C85.6176 15.0676 86.7273 15.3092 87.8357 15.5689L88.2134 15.6574L90.9596 21.3303L89.2905 20.9387C88.43 20.7368 87.5817 20.5507 86.7358 20.3652C86.2313 20.2546 85.7276 20.1441 85.2228 20.0306C83.9146 19.7364 82.5865 19.5114 81.2671 19.2969L80.9063 19.2382L77.2972 13.5476L79.0307 13.7763C80.1412 13.9228 81.2884 14.145 82.4065 14.3617C82.7379 14.4259 83.0668 14.4896 83.3914 14.5507L84.2703 14.7161L84.2546 14.7708ZM70.1327 13.3701C70.0745 13.3642 70.0164 13.3584 69.9583 13.3527C69.74 13.3312 69.5229 13.3109 69.3069 13.2916C67.2902 13.1119 65.3707 13.0275 63.49 13.0035C63.1151 12.9988 62.7417 12.9964 62.3694 12.9961L66.0934 17.0138C68.0636 17.0426 70.0615 17.1107 72.1467 17.288C72.5181 17.3196 72.8923 17.3547 73.2695 17.3936L70.1241 13.4001L70.1327 13.3701ZM71.0235 13.222L71.1862 12.6557L70.2162 12.5579C67.4553 12.2793 64.8861 12.1815 62.3716 12.1798L60.4979 12.1786L65.7315 17.825L66.0798 17.83C68.3886 17.8638 70.7219 17.9516 73.1842 18.2056L75.1048 18.4038L71.0235 13.222ZM48.6138 14.3289L53.4177 18.2482L53.8574 18.1514C54.8044 17.913 55.836 17.7416 56.8886 17.5869C57.2387 17.5354 57.5911 17.4858 57.9435 17.4362L53.5005 13.4516C53.4474 13.4594 53.3942 13.4672 53.3411 13.475C52.0738 13.6613 50.8107 13.847 49.6267 14.1011C49.4435 14.1404 49.2621 14.1814 49.0829 14.2242L48.6138 14.3289ZM48.901 13.4288C50.2723 13.1013 51.7603 12.8825 53.2099 12.6695C53.2678 12.661 53.3257 12.6525 53.3835 12.6439L53.7614 12.5883L59.796 17.9996L58.0561 18.2445C56.6336 18.4447 55.2667 18.638 54.0548 18.943L54.043 18.946L53.2065 19.1302L46.7944 13.8988L48.901 13.4288ZM42.9422 14.5705L50.2899 19.9231L48.918 20.4725C47.4829 21.0471 46.1028 21.7511 44.7945 22.5758L44.3525 22.8544L37.2769 18.2512L38.3623 17.5717C39.7525 16.7014 41.2123 15.9485 42.7266 15.3208L42.9422 14.5705ZM43.3944 15.9296C42.0753 16.4558 40.7971 17.0792 39.5705 17.7942C39.3092 17.9465 39.0503 18.1029 38.7939 18.2635L44.3608 21.8853C45.4418 21.2039 46.5704 20.6023 47.7376 20.0852C48.0282 19.9564 48.3211 19.8329 48.6164 19.7147L43.4034 15.9172L43.4006 15.9272C43.3985 15.928 43.3965 15.9288 43.3944 15.9296ZM32.7733 22.7565L32.8563 22.6412C33.2353 22.1143 33.6782 21.6078 34.0922 21.1342C34.1725 21.0424 34.2517 20.9518 34.3292 20.8625L34.7709 20.3535L42.0584 24.5609L41.4083 25.3088C41.3638 25.36 41.3194 25.4109 41.2754 25.4615C40.8616 25.9368 40.4737 26.3822 40.1408 26.8408C39.7653 27.3627 39.4232 27.9079 39.1167 28.473L38.7358 29.1752L31.2561 25.3365L31.6347 24.6083C31.9683 23.9667 32.3482 23.3503 32.7712 22.764L32.7733 22.7565ZM33.5151 23.1272C33.2436 23.4957 32.9903 23.8771 32.7561 24.27C32.6166 24.504 32.484 24.742 32.3582 24.9838L38.4 28.0847C38.7233 27.4887 39.0841 26.9137 39.4801 26.3633C39.7169 26.0371 39.9789 25.7181 40.2485 25.4025C40.3841 25.2437 40.5216 25.0859 40.6588 24.9284C40.7037 24.8768 40.7486 24.8253 40.7934 24.7738L34.9446 21.397C34.8629 21.4913 34.7807 21.5852 34.6987 21.6791C34.2845 22.153 33.8721 22.6249 33.518 23.1172L33.5151 23.1272ZM29.4876 33.5673L29.4878 33.5433C29.4978 32.4045 29.59 31.2678 29.7635 30.1419L29.925 29.0936L37.6693 32.4619L37.566 33.0888C37.409 34.0425 37.3295 35.0071 37.3284 35.9733L37.3947 37.569L29.5345 34.5035L29.4876 33.5673ZM36.52 35.4744C36.5435 34.6314 36.624 33.7905 36.7612 32.9577L30.5696 30.2647C30.5265 30.5445 30.4886 30.825 30.4559 31.106C30.3616 31.9169 30.3107 32.7323 30.3035 33.5488L30.3228 33.9343L36.5278 36.3542L36.5127 35.9917C36.5128 35.8192 36.5152 35.6468 36.52 35.4744ZM32.6132 44.0724C32.5541 43.9198 32.4941 43.767 32.4342 43.6141C32.1343 42.8498 31.8345 42.0856 31.6389 41.3511L31.6368 41.3396L31.2213 39.994L30.9245 38.6878L37.0944 40.7395L37.3656 41.9461L37.7484 43.1793C37.884 43.693 38.0746 44.2246 38.2796 44.7598C38.3565 44.9603 38.4354 45.1614 38.5142 45.3622C38.5591 45.4768 38.6041 45.5913 38.6486 45.7057L32.6132 44.0724ZM38.1543 41.7336L37.7893 40.1098L29.8076 37.4557L30.4327 40.2068L30.846 41.5451L30.8507 41.5628C31.0593 42.3465 31.3799 43.1631 31.6798 43.9268C31.7385 44.0764 31.7965 44.224 31.8526 44.3689L32.0014 44.7529L39.996 46.9164L39.4087 45.4079C39.3627 45.2899 39.317 45.1731 39.2717 45.0576C38.9811 44.3166 38.7104 43.626 38.5371 42.9693L38.5326 42.9524L38.1543 41.7336ZM38.8234 56.6809L38.6183 56.3957C37.241 54.4804 35.9623 52.496 34.787 50.4502L33.8866 48.8828L41.8384 50.496L42.0215 50.8167C43.075 52.6625 44.2267 54.4504 45.4715 56.1727L46.5833 57.7111L38.8234 56.6809ZM49.6298 69.1151L49.3757 68.867C49.3412 68.8333 49.3044 68.7978 49.2662 68.7609C49.1412 68.6401 49.0005 68.5041 48.8718 68.3677L46.7734 66.2236L46.7649 66.2143C46.6436 66.0825 46.5234 65.9518 46.4039 65.8221C45.858 65.229 45.3292 64.6545 44.8002 64.0691L43.5174 62.6496L50.8206 62.8607L51.0527 63.1114C51.3132 63.3928 51.5557 63.6617 51.7947 63.9267C52.1402 64.3098 52.4783 64.6847 52.8527 65.0775L52.8557 65.0807L54.7772 67.0521L54.7832 67.0586C54.8461 67.126 54.91 67.1902 54.9846 67.2659C55.0549 67.3372 55.1367 67.4206 55.2138 67.5073L56.3458 68.7811L49.6298 69.1151ZM52.265 65.6448C51.8861 65.2474 51.5298 64.8525 51.1744 64.4587C50.936 64.1944 50.6979 63.9306 50.4537 63.6668L45.4057 63.5209C45.6596 63.8018 45.9134 64.0802 46.1693 64.3597C46.4439 64.6594 46.721 64.9605 47.0035 65.2673C47.1231 65.3973 47.2438 65.5284 47.3656 65.6608L49.4607 67.8015C49.5763 67.9244 49.6992 68.0432 49.8233 68.1632C49.8641 68.2026 49.9051 68.2422 49.946 68.2822L54.6038 68.0505C54.535 67.9731 54.4579 67.895 54.3779 67.814C54.315 67.7503 54.2503 67.6848 54.1865 67.6163L52.265 65.6448ZM63.0723 80.7619L62.7392 80.4995C62.461 80.2803 62.1794 80.0599 61.8965 79.8385C60.9384 79.0887 59.9647 78.3267 59.0518 77.5573L59.0495 77.5554L57.263 76.0725L54.1785 73.4186L60.5295 72.429L62.3993 74.054L64.0374 75.4105C64.8359 76.0792 65.6722 76.7334 66.5219 77.3981C66.8215 77.6324 67.1227 77.8681 67.4246 78.1061L68.654 79.0757L63.0723 80.7619ZM61.8711 74.6772L60.2793 73.2938L56.0516 73.9526L57.79 75.4483L59.5758 76.9306C60.477 77.6902 61.4356 78.4405 62.3924 79.1893C62.6771 79.4121 62.9617 79.6349 63.2445 79.8577L66.9189 78.7477C66.6583 78.5422 66.3966 78.3372 66.1347 78.1324C66.099 78.1045 66.0634 78.0766 66.0278 78.0487C65.1749 77.3816 64.3229 76.7152 63.5131 76.0369L61.8711 74.6772ZM79.9758 92.3118L79.481 92.0045C79.2421 91.8562 79.0023 91.7077 78.7622 91.559C77.576 90.8244 76.38 90.0837 75.2217 89.32C74.9517 89.142 74.6806 88.9637 74.4088 88.7849C73.2956 88.0527 72.1712 87.3131 71.0728 86.5603L69.9462 85.788L74.6424 83.367L75.0432 83.6404C76.2907 84.4915 77.5443 85.3448 78.8333 86.1591C79.1586 86.3646 79.4832 86.5702 79.8077 86.7759C80.7883 87.3972 81.7684 88.0182 82.7645 88.6321L83.739 89.2326L79.9758 92.3118ZM98.7356 102.417L97.2105 101.669L97.206 101.667L95.575 100.88L93.9545 100.057L93.9531 100.056C93.657 99.9049 93.3585 99.7541 93.059 99.6028C92.2737 99.206 91.481 98.8055 90.7053 98.3851L89.9405 97.9706L92.3699 94.1126L93.0425 94.4801C93.6509 94.8126 94.2537 95.1192 94.8692 95.4323C95.2371 95.6195 95.6097 95.809 95.9907 96.0077C95.9925 96.0087 95.9944 96.0096 95.9962 96.0106L97.4814 96.7563L97.4914 96.7613L98.9769 97.4817L98.98 97.4832L100.316 98.1245L98.7356 102.417ZM97.1244 97.491L95.6179 96.7346C95.2513 96.5433 94.8835 96.3562 94.5159 96.1691C93.891 95.8512 93.2669 95.5337 92.6504 95.1968L91.0949 97.6671C91.3343 97.7969 91.575 97.9245 91.8166 98.0507C92.3463 98.3275 92.8807 98.5975 93.4173 98.8686C93.7193 99.0212 94.022 99.1741 94.325 99.3288L95.938 100.148L97.566 100.934L98.2835 101.286L99.2946 98.5402L98.623 98.2179L97.1244 97.491ZM115.528 108.612C114.805 108.347 114.084 108.067 113.362 107.787C112.818 107.576 112.272 107.365 111.725 107.159L111.728 107.149L111.577 107.088C110.071 106.484 108.557 105.877 107.05 105.241L107.385 102.189C107.648 102.299 107.909 102.409 108.17 102.517C109.349 103.009 110.513 103.484 111.694 103.964C113.136 104.549 114.567 105.094 116.001 105.596L116.384 108.92C116.098 108.82 115.813 108.717 115.528 108.612ZM110.74 107.633L110.733 107.658L111.436 107.923C111.967 108.123 112.505 108.331 113.046 108.541C114.063 108.935 115.092 109.334 116.115 109.691L117.344 110.119L116.752 104.994L116.271 104.826C114.852 104.329 113.433 103.789 112.002 103.207C110.561 102.622 109.149 102.044 107.703 101.436L106.694 101.012L106.173 105.758L106.732 105.994C108.068 106.557 109.409 107.099 110.74 107.633ZM130.74 113.458C130.956 113.518 131.172 113.576 131.386 113.632C131.433 113.645 131.481 113.657 131.528 113.669C132.202 113.845 132.87 114.01 133.538 114.174C133.767 114.23 133.995 114.286 134.224 114.343C134.567 114.428 134.912 114.514 135.257 114.603L133.422 110.822C132.941 110.699 132.463 110.583 131.986 110.468C131.086 110.25 130.187 110.032 129.264 109.768C128.792 109.634 128.324 109.505 127.857 109.376C127.238 109.205 126.621 109.035 125.999 108.853C125.685 108.76 125.369 108.665 125.051 108.564L126.19 112.147C127.214 112.476 128.231 112.754 129.241 113.031C129.48 113.096 129.719 113.162 129.958 113.228C130.22 113.3 130.482 113.374 130.743 113.448L130.74 113.458ZM129.733 114.013L129.729 114.027L130.523 114.246C131.472 114.507 132.423 114.741 133.361 114.972C133.931 115.112 134.496 115.251 135.053 115.394L136.762 115.833L133.991 110.124L133.625 110.03C133.124 109.903 132.637 109.785 132.156 109.669C131.267 109.454 130.398 109.243 129.49 108.983C129.002 108.844 128.526 108.713 128.055 108.583C127.133 108.329 126.231 108.081 125.299 107.786L123.796 107.31L125.54 112.796L125.939 112.924C126.979 113.258 128.027 113.545 129.047 113.825C129.277 113.888 129.506 113.95 129.733 114.013ZM136.683 109.521C136.461 109.477 136.239 109.432 136.017 109.387C135.972 109.377 135.926 109.368 135.881 109.359L135.884 109.349C135.838 109.339 135.792 109.33 135.746 109.32C135.526 109.274 135.305 109.228 135.084 109.181C98.52 101.386 58.0842 75.6999 44.6457 51.6598C31.1091 27.4442 49.9971 13.9102 86.7678 21.5024C123.539 29.0947 164.454 54.9713 178.001 79.1897C191.449 103.232 172.921 116.751 136.683 109.521ZM134.858 109.967C116.617 106.071 97.4481 97.7584 81.1147 87.4301C64.539 76.9486 50.7956 64.3349 43.9336 52.0595C40.4999 45.917 39.0707 40.3624 39.5337 35.5869C39.9996 30.7822 42.3746 26.8493 46.3677 23.9897C54.2814 18.3224 68.4893 16.8945 86.9342 20.703C105.43 24.5219 124.942 32.9316 141.53 43.4209C158.104 53.9011 171.846 66.5132 178.713 78.7899C182.149 84.9331 183.58 90.4888 183.117 95.2653C182.651 100.071 180.276 104.005 176.282 106.866C168.367 112.536 154.157 113.966 135.715 110.158L134.854 109.98L134.858 109.967ZM152.742 117.517L149.555 113.518L148.965 113.457L147.655 113.338L146.293 113.171C145.926 113.117 145.561 113.072 145.193 113.026C145.017 113.005 144.84 112.983 144.662 112.96C144.302 112.913 143.938 112.862 143.565 112.799L146.231 116.726C146.891 116.836 147.527 116.915 148.162 116.994C148.504 117.037 148.845 117.079 149.19 117.126L150.649 117.31L152.079 117.447L152.742 117.517ZM151.999 118.26L154.596 118.535L149.979 112.74L149.049 112.645L147.743 112.526L146.404 112.362C145.997 112.303 145.624 112.257 145.259 112.212C144.75 112.149 144.256 112.088 143.704 111.994L141.813 111.672L145.752 117.473L146.095 117.531C146.769 117.644 147.439 117.727 148.086 117.808C148.423 117.85 148.754 117.891 149.077 117.935L150.558 118.121L151.991 118.259L151.999 118.26ZM163.704 117.86C163.713 117.86 163.722 117.859 163.731 117.858C164.008 117.839 164.286 117.822 164.565 117.805C164.636 117.801 164.707 117.796 164.778 117.792C165.215 117.766 165.653 117.739 166.086 117.706C166.453 117.679 166.817 117.646 167.173 117.605L162.901 113.609C161.894 113.718 160.817 113.806 159.696 113.822C159.347 113.827 159.001 113.836 158.656 113.844C158.253 113.854 157.849 113.864 157.441 113.868C157.074 113.872 156.703 113.871 156.323 113.862L160.044 117.89C160.924 117.91 161.768 117.891 162.609 117.872C162.69 117.87 162.77 117.868 162.851 117.867C163.123 117.861 163.394 117.855 163.668 117.851C163.679 117.851 163.689 117.851 163.7 117.851L163.704 117.85L163.701 117.861L163.704 117.86ZM162.615 118.688C161.775 118.708 160.912 118.727 160.024 118.706L159.679 118.698L154.414 112.999L156.345 113.046C157.126 113.065 157.859 113.047 158.614 113.028C158.964 113.02 159.319 113.011 159.686 113.006C160.772 112.99 161.822 112.905 162.815 112.798L163.186 112.758L169.019 118.212L167.265 118.416C166.466 118.508 165.617 118.559 164.798 118.609C164.443 118.63 164.094 118.651 163.757 118.675L162.595 118.757L162.615 118.688ZM177.007 116.579C177.935 116.282 178.821 115.956 179.666 115.615L181.034 115.062L174.249 110.136L173.83 110.304C173.705 110.354 173.581 110.404 173.46 110.454C172.811 110.718 172.206 110.964 171.513 111.142C171.132 111.24 170.8 111.338 170.483 111.432C169.968 111.585 169.493 111.725 168.915 111.832L167.174 112.155L173.677 117.43L174.048 117.36C174.852 117.207 175.584 116.993 176.285 116.788C176.519 116.719 176.749 116.652 176.978 116.588L176.893 116.283L176.989 116.585C176.995 116.583 177.001 116.581 177.007 116.579ZM176.775 115.797C177.352 115.612 177.913 115.415 178.458 115.21C178.764 115.095 179.066 114.978 179.362 114.858L174.133 111.061C174.014 111.109 173.895 111.157 173.776 111.206C173.127 111.47 172.466 111.74 171.714 111.933C171.393 112.015 171.083 112.107 170.773 112.198C170.54 112.267 170.307 112.335 170.069 112.4C169.746 112.488 169.414 112.57 169.062 112.635L173.898 116.558C174.659 116.413 175.337 116.215 176.028 116.013C176.263 115.944 176.5 115.875 176.742 115.807C176.748 115.805 176.754 115.804 176.76 115.802C176.765 115.8 176.77 115.799 176.775 115.797ZM188.111 110.214L188.106 110.219L186.903 111.371L185.104 112.78L177.989 108.313L180.078 106.659L181.137 105.64L181.835 105.005L189.15 109.203L188.111 110.214ZM180.615 107.274L179.401 108.235L185.054 111.784L186.369 110.754L187.543 109.629L187.806 109.374L181.943 106.009L181.693 106.236L180.615 107.274ZM192.078 103.862L191.926 104.28C191.661 105.01 191.335 105.716 190.951 106.391L190.564 107.071L183.072 103.227L183.483 102.489C183.788 101.943 184.049 101.375 184.265 100.788C184.322 100.597 184.395 100.419 184.452 100.279L184.458 100.262C184.525 100.1 184.572 99.9817 184.606 99.8654L185.155 97.9521L192.809 101.426L192.475 102.725L192.493 102.719L192.437 102.876L192.347 103.225L192.326 103.276C192.256 103.448 192.194 103.592 192.137 103.725C192.117 103.772 192.097 103.818 192.078 103.862ZM191.549 103.022C191.5 103.142 191.45 103.258 191.401 103.373C191.313 103.578 191.228 103.777 191.152 103.98C191.15 103.986 191.148 103.992 191.146 103.998C191.145 104.002 191.143 104.005 191.142 104.009L191.16 104.003C191.158 104.007 191.157 104.01 191.156 104.014C191.154 104.02 191.151 104.026 191.149 104.032C191.031 104.356 190.899 104.676 190.755 104.989C190.599 105.329 190.428 105.662 190.243 105.988L184.196 102.886C184.328 102.648 184.453 102.406 184.57 102.16C184.744 101.795 184.901 101.422 185.04 101.043C185.085 100.883 185.148 100.729 185.212 100.573C185.276 100.416 185.341 100.256 185.389 100.09L185.678 99.0863L191.849 101.888L191.571 102.97C191.564 102.987 191.556 103.004 191.549 103.022ZM166.365 56.7171L162.148 57.3952C162.418 57.6273 162.686 57.8598 162.951 58.0926C164.775 59.6968 166.47 61.3162 168.143 62.9416L172.856 62.7256C172.592 62.4648 172.326 62.2047 172.059 61.945C170.254 60.1876 168.383 58.4529 166.365 56.7171ZM134.197 34.6336C136.917 36.141 139.617 37.6699 142.247 39.2807C142.492 39.4312 142.738 39.5825 142.982 39.7345L140.553 41.6997C138.135 40.2107 135.653 38.8029 133.152 37.394C132.921 37.2636 132.689 37.1332 132.457 37.0027L132.436 36.9908L134.197 34.6336ZM124.571 29.71L123.554 32.454C123.308 32.3366 123.061 32.2199 122.815 32.1037C120.203 30.8721 117.606 29.703 114.986 28.5819L115.291 25.5207C115.553 25.63 115.815 25.7398 116.078 25.8502C118.927 27.0497 121.77 28.3149 124.579 29.6799L124.571 29.71ZM39.2807 55.918L44.8102 56.652C44.5926 56.3509 44.3778 56.0478 44.1658 55.7428C43.1486 54.2792 42.1967 52.7711 41.313 51.2226L35.4944 50.0422C35.6763 50.3589 35.8607 50.674 36.0476 50.9877C37.0541 52.6767 38.1328 54.3216 39.2807 55.918ZM81.6034 88.8733C81.8468 89.025 82.0908 89.1765 82.3358 89.3274L79.912 91.3106C79.6713 91.1612 79.4304 91.012 79.1895 90.8628C78.0035 90.1283 76.8191 89.3948 75.6714 88.6381C75.3997 88.4589 75.1273 88.2797 74.8547 88.1004C74.0018 87.5394 73.1468 86.9771 72.3026 86.4082C72.0455 86.2349 71.7894 86.0611 71.5347 85.8865L74.5828 84.3152C75.8291 85.1655 77.094 86.0266 78.3969 86.8497C78.7198 87.0536 79.0428 87.2583 79.3663 87.4633C80.108 87.9332 80.8522 88.4048 81.6034 88.8733Z" fill="#0684F9"/>
<path d="M106.338 68.0339C105.903 67.9477 105.496 67.9033 105.127 67.8991L94.6103 82.5854C93.7112 83.841 94.1809 85.6035 95.5844 86.24L105.799 90.8727C107.231 91.5224 108.898 90.6679 109.211 89.1235L112.807 71.3698C112.559 71.098 112.267 70.8238 111.933 70.5535L108.158 88.5339C107.94 89.5679 106.815 90.1286 105.861 89.6776L96.5741 85.2845C95.6611 84.8526 95.3579 83.7015 95.9388 82.8726L106.338 68.0339Z" fill="#0684F9"/>
<path fill-rule="evenodd" clip-rule="evenodd" d="M150.461 80.0661C155.085 83.8128 157.937 87.7023 158.497 90.9775C159.055 94.2426 157.254 96.5212 153.423 97.3855C150.808 97.9652 147.538 97.8406 143.959 97.1185C136.683 95.6554 128.192 91.7505 121.786 86.5441C116.068 81.889 113.068 77.0174 113.744 73.5017C113.859 72.9074 113.517 72.1482 112.807 71.3698C112.559 71.098 112.267 70.8238 111.933 70.5535L112.188 69.7153C112.471 69.9136 112.748 70.1211 113.019 70.3377C114.72 71.7316 115.633 73.1959 115.436 74.2675C114.809 77.5058 117.589 82.0245 122.874 86.3195C128.797 91.1466 136.647 94.7523 143.38 96.1109C146.68 96.7738 149.717 96.8951 152.113 96.3494L152.115 96.326C155.664 95.5263 157.338 93.4649 156.813 90.4383C156.288 87.4116 153.641 83.8234 149.376 80.3444C143.786 75.8982 137.323 72.6795 130.404 70.8973C128.142 70.3234 126.029 69.2765 124.202 67.8254L123.734 67.4364C121.875 65.9266 120.963 64.3241 121.367 63.2628C121.748 62.2855 123.194 61.8937 125.227 62.2109C131.461 63.1762 135.864 61.9713 137.012 58.9506C138.936 53.9368 131.302 45.4542 120.006 40.0607C116.616 38.4162 113.038 37.1897 109.351 36.4082C102.606 35.0226 97.338 35.9946 96.0541 39.3638C94.8916 42.4042 97.2027 46.8439 102.216 51.2394C103.769 52.6012 104.471 53.968 104.114 54.9136L103.949 55.345C103.566 56.3645 101.984 56.7134 99.8292 56.2713L99.5066 56.2142C97.3013 55.7126 95.2272 54.7517 93.4192 53.3941C87.8067 49.1602 80.6125 45.8673 74.157 44.5723C68.6402 43.4499 64.2546 43.9149 62.0629 45.9026C59.8712 47.8903 60.1514 51.0918 62.8623 54.9083C67.1018 60.8821 76.8437 67.0144 86.0302 69.5005C86.9022 69.7403 87.7608 69.9429 88.5872 70.1078C94.9782 71.3943 99.8215 70.5753 101.521 67.8289C102.092 66.9049 103.674 66.6039 105.756 67.0206L106.341 67.1419C106.52 67.1815 106.697 67.2239 106.873 67.2693L106.338 68.0339C105.903 67.9477 105.496 67.9033 105.127 67.8991C104.169 67.8884 103.463 68.1485 103.158 68.6556C101.314 71.6243 96.0701 72.5123 89.1595 71.1231C88.2712 70.9408 87.3558 70.7366 86.4143 70.4725C76.4783 67.7858 65.9361 61.1424 61.3557 54.6862C58.4142 50.5711 58.1444 47.0622 60.4782 44.9425C62.8121 42.8228 67.5894 42.3051 73.5619 43.5028C80.5312 44.9038 88.3144 48.4764 94.3859 53.0445C95.729 54.0563 97.2706 54.7735 98.9103 55.1492L99.2283 55.2051C100.828 55.5535 101.999 55.2755 102.281 54.5285L102.45 54.0984C102.713 53.4033 102.205 52.3965 101.056 51.3962C95.6267 46.631 93.1372 41.8261 94.3873 38.5429C95.7795 34.908 101.48 33.8568 108.764 35.3268C112.758 36.1678 116.633 37.4953 120.303 39.2797C132.508 45.1192 140.759 54.286 138.685 59.7159C137.436 62.9613 132.677 64.2765 125.942 63.2279C124.409 62.9795 123.344 63.2394 123.04 64.0281C122.737 64.8169 123.418 66.0203 124.81 67.1557L125.285 67.5371C126.656 68.6304 128.245 69.4193 129.945 69.8518C137.428 71.7756 144.418 75.256 150.461 80.0661Z" fill="#0684F9"/>
<path fill-rule="evenodd" clip-rule="evenodd" d="M179.189 68.3283L171.768 67.9043L177.5 75.5L183.352 75.1528L179.189 68.3283ZM181.771 74.2563L178.5 69L174.741 68.8919L173.617 68.8277C174.329 69.7146 177.372 73.6269 178 74.5L181.771 74.2563Z" fill="#0684F9"/>
</svg>
