<svg width="153" height="170" viewBox="0 0 153 170" fill="none" xmlns="http://www.w3.org/2000/svg">
<path fill-rule="evenodd" clip-rule="evenodd" d="M71.5876 135.477C69.5792 135.586 67.659 136.33 66.1029 137.601C63.6594 140.244 64.9447 144.234 68.4451 146.498C70.1371 147.593 72.1305 148.124 74.1389 148.014C76.1473 147.905 78.0675 147.161 79.6236 145.89C82.0671 143.247 80.7818 139.257 77.2814 136.993C75.5894 135.898 73.596 135.367 71.5876 135.477ZM74.0982 147.265C72.2484 147.366 70.4119 146.877 68.8527 145.868C67.2289 144.818 66.1631 143.395 65.7672 141.988C65.3814 140.618 65.6214 139.252 66.6189 138.148C68.0444 136.998 69.7963 136.325 71.6283 136.226C73.4781 136.125 75.3146 136.614 76.8738 137.623C78.4976 138.673 79.5633 140.096 79.9593 141.503C80.3451 142.873 80.105 144.239 79.1076 145.343C77.6821 146.493 75.9302 147.166 74.0982 147.265Z" fill="#02C2FD"/>
<path fill-rule="evenodd" clip-rule="evenodd" d="M94.9426 118.048C96.6346 119.143 98.628 119.674 100.636 119.564C102.645 119.455 104.565 118.711 106.121 117.44C108.565 114.797 107.279 110.807 103.779 108.543C102.087 107.448 100.094 106.917 98.0851 107.026C96.0767 107.136 94.1565 107.88 92.6004 109.151C90.1569 111.793 91.4422 115.784 94.9426 118.048ZM93.1164 109.698C92.1189 110.802 91.8789 112.167 92.2647 113.538C92.6606 114.945 93.7264 116.368 95.3501 117.418C96.9094 118.427 98.7459 118.916 100.596 118.815C102.428 118.715 104.18 118.043 105.605 116.892C106.603 115.789 106.843 114.423 106.457 113.053C106.061 111.646 104.995 110.223 103.371 109.172C101.812 108.164 99.9756 107.675 98.1258 107.775C96.2938 107.875 94.5419 108.548 93.1164 109.698Z" fill="#02C2FD"/>
<path fill-rule="evenodd" clip-rule="evenodd" d="M37.2707 114.969C35.2623 115.079 33.3421 115.822 31.786 117.094C29.3425 119.736 30.6278 123.727 34.1282 125.991C35.8202 127.086 37.8136 127.617 39.822 127.507C41.8304 127.398 43.7505 126.654 45.3067 125.383C47.7502 122.74 46.4648 118.75 42.9645 116.486C41.2724 115.391 39.2791 114.86 37.2707 114.969ZM39.7813 126.758C37.9315 126.859 36.095 126.37 34.5358 125.361C32.912 124.311 31.8462 122.888 31.4503 121.481C31.0645 120.11 31.3045 118.745 32.302 117.641C33.7275 116.491 35.4794 115.818 37.3114 115.718C39.1612 115.618 40.9977 116.107 42.5569 117.115C44.1806 118.166 45.2464 119.589 45.6424 120.996C46.0282 122.366 45.7881 123.732 44.7907 124.835C43.3652 125.986 41.6133 126.658 39.7813 126.758Z" fill="#02C2FD"/>
<path d="M69.287 88.5023C67.7278 87.4935 65.8913 87.0046 64.0415 87.1053C62.2095 87.2051 60.4576 87.8779 59.0321 89.0282C58.0347 90.1318 57.7946 91.4973 58.1804 92.8678C58.5764 94.2745 59.6421 95.6977 61.2659 96.7481L60.8583 97.378C57.3579 95.1135 56.0726 91.1233 58.5161 88.4809C60.0722 87.2094 61.9924 86.4656 64.0008 86.3563C66.0092 86.247 68.0026 86.7777 69.6946 87.8724C73.1949 90.1369 74.4803 94.1271 72.0368 96.7695C70.4807 98.041 68.5605 98.7848 66.5521 98.8941C64.5437 99.0035 62.5503 98.4727 60.8583 97.378L61.2659 96.7481C62.8251 97.7569 64.6616 98.2458 66.5114 98.1451C68.3434 98.0454 70.0953 97.3725 71.5208 96.2222C72.5182 95.1186 72.7583 93.7531 72.3725 92.3826C71.9765 90.9759 70.9108 89.5527 69.287 88.5023Z" fill="#02C2FD"/>
<path fill-rule="evenodd" clip-rule="evenodd" d="M91.1052 157.644C88.6754 160.061 85.5252 161.621 82.1281 162.089C78.731 162.557 75.2705 161.908 72.2666 160.24L16.7096 126.721C15.3853 126.011 14.2464 124.999 13.3857 123.767C12.5249 122.534 11.9668 121.116 11.7568 119.629C11.5467 118.141 11.6908 116.626 12.1771 115.207C12.6635 113.788 13.4784 112.505 14.5553 111.463L46.9981 76.754C49.4279 74.337 52.578 72.7773 55.9751 72.3092C59.3723 71.8412 62.8328 72.49 65.8367 74.1583L121.394 107.677C122.718 108.387 123.857 109.399 124.718 110.632C125.578 111.864 126.136 113.282 126.347 114.77C126.557 116.257 126.412 117.772 125.926 119.191C125.44 120.611 124.625 121.893 123.548 122.935L91.1052 157.644ZM121.022 108.33L65.4608 74.8077C62.6013 73.2228 59.3089 72.6071 56.0775 73.0524C52.8461 73.4976 49.8496 74.9797 47.5367 77.2763L15.0905 111.989L15.0769 112.002C14.0852 112.962 13.3348 114.143 12.8868 115.45C12.4388 116.757 12.3061 118.153 12.4996 119.524C12.6931 120.894 13.2074 122.201 14.0007 123.337C14.794 124.473 15.8437 125.406 17.0639 126.06L17.0808 126.069L72.6424 159.591C75.502 161.175 78.7943 161.791 82.0258 161.346C85.2571 160.901 88.2537 159.419 90.5666 157.122L123.013 122.409L123.026 122.396C124.018 121.437 124.769 120.255 125.216 118.948C125.664 117.641 125.797 116.245 125.604 114.875C125.41 113.504 124.896 112.197 124.103 111.061C123.309 109.925 122.26 108.992 121.039 108.339L121.022 108.33Z" fill="#02C2FD"/>
<path fill-rule="evenodd" clip-rule="evenodd" d="M31.0302 63.3087C30.4692 65.7391 31.6623 65.9515 33.7206 63.7535C35.8864 61.3498 37.4935 58.495 38.4269 55.3933C38.988 52.9629 37.7948 52.7504 35.7365 54.9485C33.5707 57.3522 31.9636 60.207 31.0302 63.3087ZM33.1682 63.246C35.2517 60.932 36.7994 58.1853 37.7013 55.2011C37.8094 54.7251 37.8274 54.4077 37.8089 54.2192C37.7384 54.248 37.6395 54.2969 37.5085 54.3807C37.1884 54.5856 36.7775 54.9349 36.289 55.456C34.2054 57.77 32.6577 60.5166 31.7558 63.5009C31.6477 63.9769 31.6297 64.2943 31.6482 64.4828C31.7187 64.454 31.8177 64.4051 31.9487 64.3212C32.2687 64.1164 32.6796 63.7671 33.1682 63.246Z" fill="#02C2FD"/>
<path fill-rule="evenodd" clip-rule="evenodd" d="M20.1172 86.6681C18.0589 88.8662 16.8658 88.6538 17.4268 86.2233C18.3603 83.1216 19.9673 80.2669 22.1331 77.8631C24.1915 75.6651 25.3846 75.8775 24.8235 78.308C23.8901 81.4097 22.2831 84.2644 20.1172 86.6681ZM18.1524 86.4155C19.0543 83.4313 20.602 80.6847 22.6856 78.3706C23.1741 77.8495 23.5851 77.5002 23.9051 77.2954C24.0361 77.2116 24.1351 77.1626 24.2055 77.1338C24.224 77.3224 24.2061 77.6398 24.098 78.1158C23.1961 81.1 21.6483 83.8466 19.5648 86.1607C19.0762 86.6818 18.6653 87.0311 18.3453 87.2359C18.2143 87.3197 18.1153 87.3687 18.0448 87.3975C18.0263 87.2089 18.0443 86.8915 18.1524 86.4155Z" fill="#02C2FD"/>
<path fill-rule="evenodd" clip-rule="evenodd" d="M39.5393 62.5329C38.9783 64.9634 40.1714 65.1758 42.2297 62.9778C44.3956 60.574 46.0026 57.7193 46.936 54.6176C47.4971 52.1871 46.304 51.9747 44.2456 54.1728C42.0798 56.5765 40.4728 59.4312 39.5393 62.5329ZM44.7981 54.6802C42.7145 56.9943 41.1668 59.7409 40.2649 62.7251C40.1568 63.2011 40.1388 63.5185 40.1574 63.7071C40.2278 63.6783 40.3268 63.6293 40.4578 63.5455C40.7778 63.3407 41.1887 62.9914 41.6773 62.4703C43.7609 60.1562 45.3086 57.4096 46.2105 54.4254C46.3186 53.9494 46.3365 53.632 46.318 53.4434C46.2476 53.4722 46.1486 53.5212 46.0176 53.605C45.6975 53.8098 45.2866 54.1591 44.7981 54.6802Z" fill="#02C2FD"/>
<path fill-rule="evenodd" clip-rule="evenodd" d="M25.12 64.6535C23.0617 66.8515 21.8686 66.6391 22.4296 64.2087C23.3616 61.1063 24.9688 58.2513 27.1359 55.8485C29.1943 53.6504 30.3874 53.8629 29.8263 56.2933C28.8944 59.3956 27.2871 62.2507 25.12 64.6535ZM23.1553 64.4007C24.0557 61.416 25.6035 58.6691 27.6883 56.3561C28.1769 55.8349 28.5878 55.4856 28.9079 55.2807C29.0389 55.1969 29.1379 55.148 29.2083 55.1192C29.2268 55.3077 29.2089 55.6252 29.1007 56.1013C28.2003 59.086 26.6525 61.8328 24.5677 64.1458C24.0791 64.667 23.6682 65.0164 23.3481 65.2212C23.2171 65.3051 23.1181 65.354 23.0477 65.3828C23.0291 65.1942 23.0471 64.8768 23.1553 64.4007Z" fill="#02C2FD"/>
<path fill-rule="evenodd" clip-rule="evenodd" d="M47.3112 40.9054C49.477 38.5016 51.0841 35.6469 52.0175 32.5452C52.5786 30.1148 51.3854 29.9023 49.3271 32.1004C47.1613 34.5041 45.5542 37.3589 44.6208 40.4605C44.0597 42.891 45.2529 43.1034 47.3112 40.9054ZM45.3464 40.6527C45.2383 41.1287 45.2203 41.4461 45.2388 41.6347C45.3093 41.6059 45.4083 41.5569 45.5392 41.4731C45.8593 41.2683 46.2702 40.919 46.7587 40.3979C48.8423 38.0838 50.39 35.3372 51.2919 32.353C51.4001 31.877 51.418 31.5596 51.3995 31.3711C51.329 31.3998 51.2301 31.4488 51.0991 31.5326C50.779 31.7374 50.3681 32.0868 49.8796 32.6079C47.796 34.9219 46.2483 37.6685 45.3464 40.6527Z" fill="#02C2FD"/>
<path fill-rule="evenodd" clip-rule="evenodd" d="M15.5092 98.5699C10.9295 103.465 8.38971 102.158 9.91822 95.557L15.788 69.9653C17.8985 62.2701 21.6871 55.144 26.8814 49.099L53.9469 20.1344C58.5265 15.2394 61.0663 16.5465 59.5768 23.12L53.668 48.739C51.5575 56.4342 47.769 63.5603 42.5746 69.6053L15.5092 98.5699ZM10.6494 95.7246L16.5157 70.1483C18.5963 62.571 22.327 55.5538 27.4403 49.5996L54.4947 20.6469C55.6126 19.452 56.5662 18.6804 57.3241 18.2717C58.1073 17.8494 58.5127 17.8981 58.6888 17.9906C58.8633 18.0823 59.1321 18.3855 59.2233 19.2691C59.3116 20.1245 59.2089 21.3483 58.8455 22.9527L52.9405 48.5555C50.8599 56.133 47.1292 63.1504 42.0158 69.1046L14.9614 98.0574C13.8433 99.2525 12.8899 100.024 12.1327 100.432C11.3495 100.854 10.9475 100.803 10.7752 100.712C10.6037 100.621 10.336 100.317 10.2496 99.4282C10.166 98.5683 10.2757 97.3384 10.6491 95.7262L10.6494 95.7246Z" fill="#02C2FD"/>
<path fill-rule="evenodd" clip-rule="evenodd" d="M132.403 50.3096C131.186 48.1121 129.4 46.2819 127.235 45.0117C125.069 43.7416 122.603 43.0784 120.096 43.092C116.18 43.7967 115.283 48.1506 118.129 52.7946C119.346 54.9922 121.131 56.8223 123.297 58.0925C125.463 59.3627 127.929 60.0258 130.435 60.0122C134.352 59.3075 135.249 54.9536 132.403 50.3096ZM131.747 50.6731L132.403 50.3096L131.763 50.7015C133.122 52.9197 133.528 54.975 133.22 56.4884C132.926 57.929 131.98 58.9503 130.365 59.2622C128.016 59.2632 125.707 58.6363 123.677 57.4454C121.627 56.2433 119.937 54.5111 118.785 52.4311L118.777 52.4167L118.768 52.4027C117.409 50.1845 117.003 48.1292 117.312 46.6158C117.605 45.1752 118.552 44.1539 120.167 43.842C122.515 43.841 124.824 44.4679 126.855 45.6588C128.905 46.8609 130.595 48.5931 131.747 50.6731Z" fill="#02C2FD"/>
<path d="M84.545 52.4897C86.7108 53.7599 88.4962 55.5901 89.7134 57.7876L89.0572 58.1511C87.9051 56.0711 86.2151 54.3389 84.1654 53.1368C82.1336 51.9452 79.823 51.3183 77.473 51.32C75.8484 51.6143 74.9033 52.6326 74.6125 54.0774C74.3067 55.5962 74.7193 57.6619 76.0789 59.8807L76.0881 59.8957L76.0966 59.9112C77.246 62.0019 78.9379 63.7441 80.9929 64.9532C83.0289 66.151 85.346 66.7813 87.7027 66.7793C89.3176 66.4675 90.2641 65.4461 90.5576 64.0055C90.8661 62.4921 90.4603 60.4368 89.1011 58.2186L89.7408 57.8266C92.5864 62.4707 91.6895 66.8246 87.7732 67.5293C85.2581 67.544 82.7838 66.8773 80.6125 65.5998C78.4411 64.3223 76.6535 62.4815 75.4392 60.2727C72.5936 55.6286 73.4632 51.2357 77.4068 50.5701C79.9133 50.5564 82.3793 51.2196 84.545 52.4897Z" fill="#02C2FD"/>
<path fill-rule="evenodd" clip-rule="evenodd" d="M145.882 61.7699L138.294 94.852C138.134 96.3283 137.584 97.7342 136.702 98.9257C135.819 100.117 134.636 101.052 133.272 101.633C131.909 102.215 130.414 102.423 128.941 102.236C127.469 102.049 126.071 101.474 124.891 100.57L69.7044 67.0821C66.776 65.1197 64.4824 62.3443 63.1062 59.0979C61.73 55.8514 61.3313 52.2757 61.9592 48.8115L69.6638 15.6477C69.8244 14.1713 70.374 12.7655 71.2564 11.5739C72.1389 10.3824 73.3224 9.44794 74.686 8.86627C76.0496 8.2846 77.5442 8.0766 79.0168 8.26352C80.4895 8.45046 81.8873 9.02561 83.0672 9.93012L138.098 43.5266C141.029 45.4819 143.327 48.2507 144.71 51.492C146.093 54.7334 146.501 58.306 145.882 61.7699ZM70.1082 66.4496C67.3077 64.569 65.114 61.9121 63.7969 58.805C62.48 55.6985 62.0969 52.2778 62.6941 48.9632L70.4047 15.7735L70.4096 15.7287C70.5558 14.3845 71.0562 13.1047 71.8593 12.0203C72.6624 10.9359 73.7394 10.0856 74.9803 9.55628C76.2212 9.02694 77.5816 8.83754 78.9223 9.00772C80.263 9.17789 81.536 9.70159 82.6107 10.5255L82.6423 10.5497L137.694 44.1589C140.497 46.0328 142.696 48.6838 144.02 51.7865C145.344 54.8882 145.735 58.306 145.147 61.6204L137.553 94.7272L137.549 94.7709C137.402 96.1152 136.902 97.3949 136.099 98.4793C135.296 99.5637 134.219 100.414 132.978 100.943C131.737 101.473 130.377 101.662 129.036 101.492C127.695 101.322 126.422 100.798 125.348 99.9741L125.315 99.9493L70.1082 66.4496Z" fill="#02C2FD"/>
<path fill-rule="evenodd" clip-rule="evenodd" d="M74.4423 167.188L74.4373 167.185L7.9386 127.335L7.92266 127.324C5.38491 125.621 3.39788 123.213 2.20616 120.398C1.01443 117.583 0.669908 114.483 1.21543 111.479L1.21851 111.462L11.6654 65.9303L11.6696 65.9153C13.44 59.4489 16.6219 53.4603 20.9864 48.3808L20.9965 48.369L61.9997 4.45656L62.0093 4.44692C64.1294 2.33585 66.8785 0.972493 69.8435 0.561482C72.8084 0.150493 75.8289 0.714002 78.4517 2.16679L78.4625 2.17277L145.05 41.9757L145.066 41.9867C147.604 43.6897 149.591 46.0971 150.783 48.9122C151.975 51.7274 152.319 54.8278 151.774 57.8317L151.77 57.8486L141.324 103.38L141.319 103.395C139.549 109.862 136.367 115.85 132.003 120.93L131.993 120.94L91.047 165.105L91.0341 165.118C88.8791 167.229 86.0915 168.574 83.0965 168.948C80.1016 169.322 77.0641 168.705 74.4473 167.191L74.4423 167.188ZM131.434 120.441L90.5092 164.582C88.4716 166.578 85.8357 167.85 83.0036 168.204C80.1714 168.558 77.2985 167.974 74.823 166.542L8.34076 126.701C5.92415 125.079 4.0319 122.787 2.89701 120.106C1.76212 117.425 1.43417 114.473 1.95356 111.613L12.3931 66.1133C14.1343 59.754 17.2635 53.8648 21.5554 48.8696L62.5387 4.97847C64.5433 2.98237 67.1426 1.6932 69.9464 1.30453C72.7502 0.915884 75.6071 1.4487 78.0881 2.82301L144.648 42.6096C147.065 44.2313 148.957 46.5238 150.092 49.2047C151.227 51.8856 151.555 54.8378 151.035 57.6977L140.596 103.197C138.855 109.556 135.726 115.446 131.434 120.441Z" fill="#02C2FD"/>
</svg>
