<svg width="81" height="88" viewBox="0 0 81 88" fill="none" xmlns="http://www.w3.org/2000/svg">
<path fill-rule="evenodd" clip-rule="evenodd" d="M74.3873 52.611C74.3873 52.611 77.1508 51.3744 78.8007 51.9938C79.435 50.6213 79.7143 49.1097 79.6122 47.6002C79.5099 46.0855 79.027 44.6226 78.2092 43.3488L78.1966 43.3292L78.1861 43.3084L78.5909 43.1019C79.4503 44.4405 79.9576 45.9776 80.0652 47.569C80.1727 49.1604 79.877 50.7538 79.2058 52.1998C79.1223 52.4229 79.0179 52.6539 78.9037 52.8838L69.9082 67.0609C69.9082 67.0609 68.5663 70.3074 62.8443 72.2869L23.5732 86.8811C23.0125 87.2431 22.3696 87.4515 21.7081 87.4881C21.6176 87.4931 21.5266 87.4949 21.4355 87.4935L21.4354 87.4933C20.5292 87.4555 19.6648 87.1008 18.991 86.4902L18.9901 86.4895L18.9899 86.4903C18.8615 86.3731 18.7365 86.2526 18.615 86.1289C17.6721 85.169 16.9407 84.0168 16.4712 82.7473L1.19703 44.1218C1.19703 44.1218 1.01969 43.6193 0.806014 42.8911L0.806205 42.8883C0.256006 41.0656 0.136859 39.1378 0.458302 37.259L1.00102 19.6227C1.00102 19.6227 0.954696 14.4459 9.47025 12.3567C17.9858 10.2675 49.6278 0.658358 49.6278 0.658358C51.5992 0.339114 53.6194 0.651683 55.4031 1.55191C57.1867 2.45214 58.6437 3.89453 59.568 5.67532C62.8463 11.9983 78.5909 43.1019 78.5909 43.1019C78.1861 43.3084 78.186 43.3083 78.1859 43.3081L78.1854 43.307L78.1832 43.3028L78.1747 43.2859L78.1408 43.219L78.0085 42.9576L77.5032 41.9596C77.0663 41.0968 76.4385 39.8572 75.6749 38.3498C74.1476 35.3351 72.0771 31.2497 69.9042 26.9666C65.5579 18.3995 60.8034 9.04541 59.1654 5.88597C58.2849 4.18969 56.8973 2.81607 55.1989 1.95887C53.5094 1.10619 51.5972 0.807222 49.7295 1.10329L49.6679 1.12198L49.4014 1.20281C49.1675 1.27372 48.8233 1.37799 48.3823 1.51143C47.5003 1.77831 46.2308 2.16189 44.6809 2.6287C41.581 3.56232 37.359 4.82893 32.8708 6.16087C23.9002 8.82302 13.8486 11.7514 9.57776 12.7991C5.40953 13.8218 3.39687 15.5825 2.41776 17.0289C1.92517 17.7565 1.68481 18.4181 1.5673 18.891C1.50849 19.1277 1.48045 19.3171 1.46709 19.4438C1.46041 19.5071 1.45741 19.5546 1.45606 19.5843C1.45539 19.5992 1.45513 19.6097 1.45503 19.6154L1.45496 19.6189L1.45496 19.6195L1.45497 19.6201L1.45496 19.6202L1.45496 19.6204L1.45503 19.6273L1.45475 19.6364L0.912036 37.2728L0.911059 37.3045L0.905705 37.3358C0.676789 38.6738 0.679941 40.0375 0.911422 41.367L2.07698 24.5146C2.07698 24.5146 2.84751 22.8011 5.65545 28.0766L20.898 63.9565C21.9855 68.2502 22.1694 72.727 21.438 77.0993L19.1208 85.9885C19.1785 86.0441 19.2371 86.0989 19.2964 86.153C19.8456 86.6503 20.5377 86.9551 21.2697 87.0255C21.0597 86.1105 21.2154 84.505 22.1382 81.7603L24.154 73.816C26.3262 70.6431 29.4951 68.2983 33.1496 67.1599L74.3873 52.611ZM18.7502 85.6104L20.9937 77.0042C21.7088 72.7121 21.5293 68.3184 20.4666 64.1029L5.24566 28.2738C4.55545 26.9788 3.99903 26.1289 3.55827 25.5805C3.11001 25.0227 2.80712 24.8095 2.63593 24.7367C2.57626 24.7114 2.53844 24.7055 2.51887 24.7046L1.26474 42.8375C1.36127 43.1633 1.44899 43.4389 1.51389 43.6368C1.54879 43.7433 1.57705 43.8271 1.59647 43.884C1.60618 43.9125 1.61368 43.9342 1.61869 43.9486L1.62333 43.9619L16.8942 82.579L16.8961 82.5838L16.8979 82.5886C17.3131 83.7113 17.9434 84.7376 18.7502 85.6104ZM78.1255 45.2389C77.744 48.8686 73.8143 50.5526 73.8143 50.5526L33.5942 64.8454C25.6836 66.7965 20.9752 58.942 20.9752 58.942L14.4392 43.4349L5.16161 21.4494C3.12546 16.6382 7.86539 14.7671 7.86539 14.7671C7.86539 14.7671 36.7585 6.46197 45.7824 3.62977C54.8064 0.797581 56.9175 4.80012 56.9175 4.80012L69.9807 29.8047L78.1255 45.2389ZM73.6475 50.1287L33.4645 64.4084C29.7002 65.3287 26.6941 63.9307 24.6001 62.2681C23.5505 61.4347 22.7383 60.5403 22.1885 59.8534C21.914 59.5104 21.7059 59.2205 21.5674 59.0178C21.4981 58.9165 21.4463 58.8371 21.4123 58.7838C21.4042 58.7712 21.3971 58.76 21.3911 58.7503L21.3799 58.7324L14.8573 43.2572L14.8572 43.257L5.57965 21.2716L5.57946 21.2711C5.10057 20.1395 5.03174 19.2113 5.17136 18.4586C5.31146 17.7033 5.66789 17.0906 6.09178 16.6035C6.51729 16.1146 7.00546 15.7587 7.39146 15.5243C7.58348 15.4076 7.74758 15.3226 7.86202 15.2675C7.91916 15.2399 7.9637 15.2199 7.99288 15.2072L8.01433 15.1981L8.07332 15.1811L8.3169 15.111C8.53076 15.0495 8.84558 14.9589 9.24946 14.8426C10.0572 14.6099 11.2212 14.2744 12.6462 13.8629C15.4961 13.04 19.39 11.9133 23.5661 10.698C31.9159 8.2681 41.4002 5.48232 45.9176 4.0645C50.3638 2.66907 53.0367 2.97899 54.569 3.57738C55.3367 3.87715 55.8317 4.25426 56.1299 4.54551C56.2795 4.6916 56.3806 4.81707 56.442 4.90184C56.4728 4.94423 56.4936 4.97642 56.5056 4.99588C56.5116 5.00561 56.5154 5.01215 56.5171 5.01519L56.5176 5.01595L56.5182 5.01702L56.5182 5.01706L69.5786 30.0164L69.5795 30.0181L77.658 45.3266C77.4464 46.911 76.4902 48.0972 75.5338 48.9092C75.0448 49.3244 74.5659 49.6329 74.2094 49.8372C74.0315 49.9392 73.8851 50.0147 73.7846 50.064C73.7344 50.0887 73.6957 50.1068 73.6704 50.1184C73.6608 50.1228 73.6532 50.1262 73.6475 50.1287ZM21.7397 87.0296C22.3023 86.9888 22.8479 86.8068 23.3259 86.4982L23.3676 86.4713L23.414 86.4541L62.685 71.8598L62.6899 71.858L62.6948 71.8564C65.4913 70.8889 67.1976 69.6194 68.1986 68.6104C68.6999 68.1051 69.0267 67.6629 69.2257 67.3528C69.3253 67.1977 69.393 67.0755 69.4346 66.995C69.4554 66.9547 69.4697 66.9248 69.4782 66.9064L69.4843 66.8931L69.4867 66.8876L69.4871 66.8868L69.4873 66.8863L69.4875 66.8859L69.4877 66.8852L69.4879 66.8849L69.5023 66.8501L69.5235 66.8166L78.5061 52.6598C78.547 52.5769 78.5862 52.4947 78.6231 52.4137C78.3855 52.3275 78.1042 52.2829 77.7875 52.2765C77.314 52.2668 76.8003 52.3432 76.3159 52.4554C75.8337 52.5671 75.3954 52.7108 75.0767 52.8272C74.9178 52.8851 74.7898 52.9359 74.7023 52.9719C74.6768 52.9823 74.6547 52.9915 74.6364 52.9993L74.6029 53.0135L74.5784 53.0242L74.5728 53.0266L74.5719 53.027L74.5718 53.0271L74.5717 53.0271L74.555 53.0346L74.5376 53.0407L33.2999 67.5896L33.2919 67.5924L33.2839 67.5949C29.7527 68.6949 26.6869 70.9524 24.5738 74.0073L22.5781 81.8724L22.5738 81.8892L22.5683 81.9056C22.0212 83.533 21.7547 84.7327 21.671 85.6085C21.6075 86.2727 21.6516 86.7254 21.7397 87.0296ZM49.0974 18.8463C52.0826 19.16 54.7618 16.9763 55.0783 13.9646C55.3949 10.9528 53.2282 8.25975 50.2431 7.946C47.258 7.63225 44.5787 9.81602 44.2622 12.8277C43.9456 15.8394 46.1123 18.5325 49.0974 18.8463ZM55.5298 14.012C55.1871 17.2722 52.2859 19.6394 49.0498 19.2993C45.8137 18.9592 43.4681 16.0405 43.8107 12.7803C44.1534 9.52005 47.0546 7.15284 50.2907 7.49297C53.5268 7.8331 55.8725 10.7518 55.5298 14.012ZM68.6408 40.8639C68.3242 43.8757 65.645 46.0594 62.6599 45.7457C59.6747 45.4319 57.5081 42.7388 57.8246 39.7271C58.1412 36.7154 60.8204 34.5316 63.8055 34.8454C66.7907 35.1591 68.9573 37.8522 68.6408 40.8639ZM62.6123 46.1987C65.8484 46.5388 68.7496 44.1716 69.0922 40.9114C69.4349 37.6512 67.0893 34.7325 63.8532 34.3924C60.617 34.0522 57.7158 36.4194 57.3732 39.6797C57.0305 42.9399 59.3761 45.8586 62.6123 46.1987ZM32.1656 55.8704C35.1507 56.1842 37.83 54.0004 38.1465 50.9887C38.4631 47.977 36.2964 45.2839 33.3113 44.9701C30.3261 44.6564 27.6469 46.8402 27.3303 49.8519C27.0138 52.8636 29.1805 55.5567 32.1656 55.8704ZM38.598 51.0361C38.2553 54.2964 35.3541 56.6636 32.118 56.3235C28.8819 55.9833 26.5362 53.0647 26.8789 49.8044C27.2216 46.5442 30.1227 44.177 33.3589 44.5171C36.595 44.8572 38.9406 47.7759 38.598 51.0361ZM25.1134 22.7512C24.7968 25.7629 22.1176 27.9467 19.1325 27.6329C16.1473 27.3192 13.9807 24.6261 14.2972 21.6144C14.6138 18.6026 17.293 16.4189 20.2781 16.7326C23.2633 17.0464 25.4299 19.7395 25.1134 22.7512ZM19.0849 28.0859C22.321 28.4261 25.2222 26.0589 25.5648 22.7986C25.9075 19.5384 23.5619 16.6197 20.3257 16.2796C17.0896 15.9395 14.1884 18.3067 13.8458 21.5669C13.5031 24.8271 15.8487 27.7458 19.0849 28.0859ZM7.25464 37.4035C7.22765 36.452 7.00392 35.1686 6.5803 33.787C6.15668 32.4054 5.62308 31.2189 5.11289 30.4184C4.856 30.0153 4.61924 29.7327 4.42272 29.5695C4.27703 29.4485 4.19993 29.4291 4.17574 29.4259C4.15761 29.4423 4.10484 29.5023 4.05234 29.6853C3.98153 29.932 3.94431 30.3002 3.95791 30.7793C3.9849 31.7308 4.20863 33.0142 4.63225 34.3958C5.05587 35.7774 5.58947 36.9639 6.09966 37.7644C6.35655 38.1675 6.59331 38.4501 6.78983 38.6133C6.93552 38.7343 7.01262 38.7537 7.03681 38.7569C7.05495 38.7404 7.10771 38.6805 7.16021 38.4975C7.23102 38.2508 7.26824 37.8826 7.25464 37.4035ZM7.01381 33.6515C7.87803 36.4701 7.94846 38.952 7.1711 39.1949C6.39374 39.4378 5.06297 37.3498 4.19874 34.5313C3.33452 31.7127 3.2641 29.2308 4.04145 28.9879C4.81881 28.745 6.14958 30.833 7.01381 33.6515ZM16.3255 72.6202C16.7491 74.0018 16.9728 75.2852 16.9998 76.2367C17.0134 76.7158 16.9762 77.084 16.9054 77.3308C16.8529 77.5137 16.8001 77.5737 16.782 77.5901C16.7578 77.5869 16.6807 77.5675 16.535 77.4465C16.3385 77.2833 16.1017 77.0007 15.8448 76.5977C15.3346 75.7972 14.801 74.6106 14.3774 73.229C13.9538 71.8474 13.7301 70.564 13.7031 69.6126C13.6895 69.1335 13.7267 68.7652 13.7975 68.5185C13.85 68.3355 13.9028 68.2756 13.9209 68.2591C13.9451 68.2624 14.0222 68.2817 14.1679 68.4027C14.3644 68.566 14.6012 68.8486 14.8581 69.2516C15.3683 70.0521 15.9019 71.2386 16.3255 72.6202ZM16.9163 78.0281C17.6936 77.7852 17.6232 75.3034 16.759 72.4848C15.8948 69.6662 14.564 67.5782 13.7866 67.8211C13.0093 68.0641 13.0797 70.5459 13.9439 73.3645C14.8081 76.1831 16.1389 78.271 16.9163 78.0281ZM41.0452 67.8864C41.0272 67.871 40.9614 67.8262 40.7717 67.8001C40.5194 67.7654 40.1526 67.7817 39.684 67.8648C38.7533 68.0298 37.5245 68.439 36.2275 69.0618C34.9305 69.6846 33.8408 70.3886 33.1271 71.0133C32.7678 71.3277 32.524 71.6046 32.3916 71.824C32.2921 71.9891 32.2851 72.0688 32.2857 72.0926C32.3036 72.108 32.3694 72.1528 32.5592 72.1789C32.8115 72.2136 33.1783 72.1973 33.6469 72.1142C34.5775 71.9492 35.8064 71.54 37.1033 70.9172C38.4003 70.2944 39.49 69.5903 40.2037 68.9657C40.5631 68.6512 40.8069 68.3744 40.9392 68.155C41.0387 67.9899 41.0457 67.9102 41.0452 67.8864ZM41.457 67.6886C41.8062 68.4283 39.944 70.058 37.2976 71.3287C34.6513 72.5994 32.223 73.03 31.8738 72.2903C31.5246 71.5507 33.3869 69.921 36.0332 68.6503C38.6795 67.3795 41.1079 66.949 41.457 67.6886ZM39.2072 73.1937C39.397 73.2199 39.4628 73.2647 39.4807 73.2801C39.4812 73.3038 39.4743 73.3836 39.3747 73.5486C39.2424 73.768 38.9986 74.0449 38.6393 74.3594C37.9255 74.984 36.8359 75.688 35.5389 76.3108C34.2419 76.9336 33.0131 77.3429 32.0824 77.5079C31.6138 77.591 31.247 77.6073 30.9947 77.5726C30.805 77.5464 30.7392 77.5016 30.7212 77.4862C30.7207 77.4625 30.7277 77.3827 30.8272 77.2177C30.9595 76.9983 31.2033 76.7214 31.5627 76.4069C32.2764 75.7823 33.366 75.0783 34.663 74.4555C35.96 73.8327 37.1888 73.4234 38.1195 73.2584C38.5881 73.1753 38.9549 73.159 39.2072 73.1937ZM35.7332 76.7224C38.3795 75.4516 40.2417 73.8219 39.8926 73.0823C39.5434 72.3427 37.1151 72.7732 34.4687 74.0439C31.8224 75.3147 29.9602 76.9444 30.3093 77.684C30.6585 78.4236 33.0868 77.9931 35.7332 76.7224ZM37.7729 78.2976C37.7549 78.2822 37.6891 78.2373 37.4994 78.2112C37.2471 78.1764 36.8803 78.1927 36.4117 78.2757C35.481 78.4405 34.2521 78.8496 32.955 79.4721C31.6579 80.0947 30.5681 80.7985 29.8543 81.423C29.4949 81.7374 29.251 82.0143 29.1187 82.2337C29.0191 82.3987 29.0121 82.4784 29.0126 82.5022C29.0306 82.5176 29.0964 82.5624 29.2861 82.5886C29.5384 82.6233 29.9052 82.6071 30.3738 82.5241C31.3045 82.3592 32.5334 81.9502 33.8305 81.3276C35.1276 80.7051 36.2174 80.0012 36.9312 79.3767C37.2906 79.0623 37.5345 78.7855 37.6668 78.5661C37.7664 78.4011 37.7734 78.3213 37.7729 78.2976ZM38.1848 78.0999C38.5338 78.8395 36.6713 80.4689 34.0247 81.7392C31.3782 83.0095 28.9498 83.4396 28.6007 82.6999C28.2517 81.9602 30.1142 80.3308 32.7608 79.0606C35.4073 77.7903 37.8357 77.3602 38.1848 78.0999ZM63.9892 68.6386C64.179 68.6647 64.2448 68.7095 64.2628 68.7249C64.2633 68.7487 64.2563 68.8284 64.1568 68.9935C64.0245 69.2129 63.7807 69.4898 63.4213 69.8042C62.7076 70.4288 61.6179 71.1329 60.3209 71.7557C59.024 72.3785 57.7951 72.7877 56.8645 72.9527C56.3959 73.0358 56.0291 73.0521 55.7768 73.0174C55.587 72.9913 55.5212 72.9465 55.5033 72.9311C55.5027 72.9073 55.5097 72.8276 55.6092 72.6625C55.7415 72.4431 55.9854 72.1662 56.3447 71.8518C57.0584 71.2272 58.1481 70.5231 59.4451 69.9003C60.7421 69.2775 61.9709 68.8683 62.9016 68.7033C63.3702 68.6202 63.737 68.6038 63.9892 68.6386ZM60.5152 72.1672C63.1616 70.8965 65.0238 69.2668 64.6746 68.5271C64.3255 67.7875 61.8971 68.2181 59.2508 69.4888C56.6045 70.7595 54.7422 72.3892 55.0914 73.1289C55.4406 73.8685 57.8689 73.4379 60.5152 72.1672ZM67.0296 63.0603C67.0116 63.0449 66.9458 63.0001 66.7561 62.9739C66.5038 62.9392 66.137 62.9554 65.6684 63.0384C64.7377 63.2033 63.5088 63.6123 62.2117 64.2349C60.9146 64.8574 59.8248 65.5613 59.111 66.1858C58.7516 66.5002 58.5077 66.777 58.3754 66.9964C58.2758 67.1614 58.2688 67.2412 58.2693 67.2649C58.2873 67.2803 58.3531 67.3252 58.5428 67.3513C58.7951 67.3861 59.1619 67.3698 59.6305 67.2868C60.5612 67.122 61.7901 66.7129 63.0872 66.0904C64.3843 65.4678 65.4741 64.764 66.1879 64.1395C66.5473 63.8251 66.7912 63.5482 66.9235 63.3288C67.0231 63.1638 67.0301 63.0841 67.0296 63.0603ZM67.4415 62.8626C67.7905 63.6023 65.928 65.2317 63.2814 66.5019C60.6349 67.7722 58.2065 68.2023 57.8574 67.4626C57.5084 66.723 59.3709 65.0936 62.0175 63.8233C64.664 62.553 67.0924 62.1229 67.4415 62.8626ZM69.7506 57.1209C69.9403 57.1471 70.0061 57.1919 70.0241 57.2073C70.0246 57.231 70.0176 57.3108 69.918 57.4758C69.7857 57.6952 69.5418 57.972 69.1824 58.2865C68.4686 58.9109 67.3788 59.6148 66.0817 60.2374C64.7847 60.8599 63.5558 61.2689 62.6251 61.4338C62.1564 61.5168 61.7896 61.5331 61.5374 61.4983C61.3476 61.4721 61.2818 61.4273 61.2639 61.4119C61.2633 61.3882 61.2703 61.3084 61.3699 61.1434C61.5022 60.924 61.7461 60.6472 62.1055 60.3327C62.8193 59.7083 63.9091 59.0044 65.2062 58.3818C66.5033 57.7593 67.7322 57.3503 68.6629 57.1854C69.1315 57.1024 69.4983 57.0861 69.7506 57.1209ZM66.2759 60.6489C68.9225 59.3787 70.785 57.7493 70.436 57.0096C70.0869 56.2699 67.6585 56.7 65.012 57.9703C62.3654 59.2405 60.5029 60.8699 60.852 61.6096C61.201 62.3493 63.6294 61.9192 66.2759 60.6489Z" fill="#00FFFF"/>
</svg>
