<svg width="720" height="257" viewBox="0 0 720 257" fill="none" xmlns="http://www.w3.org/2000/svg">
<mask id="path-1-outside-1_469_17134" maskUnits="userSpaceOnUse" x="-30.2265" y="-499.097" width="779.319" height="779.319" fill="black">
<rect fill="white" x="-30.2265" y="-499.097" width="779.319" height="779.319"/>
<path fill-rule="evenodd" clip-rule="evenodd" d="M692.367 32.9035C692.473 32.6321 692.579 32.3606 692.685 32.0889C695.217 25.5735 697.575 18.9699 699.755 12.285C711.218 -22.8746 717.726 -60.2849 718.49 -98.9642C718.616 -105.322 718.586 -111.715 718.397 -118.137L586.301 -106.501C588.826 -61.3815 586.984 -17.8853 581.351 22.7153C580.441 29.2752 579.432 35.7595 578.326 42.1629L692.298 32.123L692.367 32.9035ZM600.864 20.9963L678.963 14.1165C691.26 -20.8803 698.355 -58.3772 699.34 -97.2773L606.179 -89.0707C607.346 -50.9292 605.47 -13.9919 600.864 20.9963ZM27.328 -251.637L27.2678 -252.32C27.1748 -252.082 27.0821 -251.845 26.9896 -251.607C24.4565 -245.091 22.097 -238.488 19.9167 -231.803C8.44862 -196.64 1.93648 -159.226 1.16991 -120.543C1.04391 -114.185 1.07314 -107.792 1.26109 -101.37L133.155 -112.988C130.631 -158.111 132.473 -201.611 138.107 -242.214C139.017 -248.774 140.026 -255.258 141.132 -261.662L27.328 -251.637ZM118.594 -240.495L40.7098 -233.634C28.407 -198.635 21.3084 -161.134 20.32 -122.23L113.277 -130.418C112.11 -168.563 113.987 -205.504 118.594 -240.495ZM57.316 88.7845C57.1759 88.5553 57.036 88.3259 56.8964 88.0963C53.264 82.1239 49.7872 76.0343 46.4726 69.8334C29.0392 37.2192 16.091 1.52287 8.5768 -36.4273C7.34162 -42.6656 6.25326 -48.9648 5.31595 -55.3212L137.212 -66.9401C142.614 -22.0744 152.032 20.43 164.676 59.4207C166.719 65.7205 168.846 71.9285 171.054 78.04L57.2526 88.0649L57.316 88.7845ZM145.163 61.1396C134.511 27.4953 126.206 -8.5451 120.687 -46.3032L27.7268 -38.1143C35.4977 0.01453 49.0382 35.6938 67.2647 68.0018L145.163 61.1396ZM548.399 -297.538C550.607 -291.427 552.734 -285.219 554.777 -278.919C567.423 -239.926 576.842 -197.418 582.245 -152.549L714.34 -164.185C713.402 -170.542 712.313 -176.841 711.077 -183.079C703.56 -221.033 690.607 -256.732 673.168 -289.348C669.853 -295.549 666.375 -301.639 662.742 -307.611C662.597 -307.848 662.453 -308.086 662.308 -308.323L662.373 -307.578L548.399 -297.538ZM652.375 -287.516L574.291 -280.638C584.944 -246.991 593.25 -210.947 598.77 -173.186L691.927 -181.392C684.153 -219.525 670.607 -255.207 652.375 -287.516ZM429.942 207.167C448.385 192.796 467.428 168.741 484.126 131.83C486.514 126.552 488.813 121.086 491.016 115.441L422.395 121.486L429.942 207.167ZM431.88 229.164C425.778 233.026 419.639 236.107 413.516 238.44L401.685 104.129L518.719 93.8194C516.647 100.584 514.447 107.175 512.127 113.581C508.834 122.672 505.297 131.391 501.535 139.706C481.374 184.269 456.937 213.304 431.88 229.164ZM514.358 28.6167C520.071 -5.42641 522.811 -42.5255 521.909 -81.6472L405.405 -71.3842L414.985 37.3707L514.358 28.6167ZM384.695 -88.741L540.228 -102.442C540.573 -96.0249 540.823 -89.652 540.981 -83.3273C542.138 -36.9661 538.332 6.80112 530.544 46.3721L397.628 58.0808L384.695 -88.741ZM492.393 238.217C505.993 232.697 519.161 226.342 531.844 219.217C582.614 190.695 625.615 149.83 657.506 100.775C661.803 94.1656 665.898 87.4081 669.783 80.5119L568.027 89.4757C556.225 133.907 539.395 173.07 518.546 204.736C510.419 217.08 501.681 228.284 492.393 238.217ZM553.183 183.024C583.878 161.051 610.806 133.939 632.917 102.941L582.87 107.349C574.869 134.598 564.923 160.022 553.183 183.024ZM338.646 -84.6846L351.58 62.1373L218.837 73.8308C204.251 36.2307 192.851 -6.19714 185.885 -52.0466C184.935 -58.3015 184.067 -64.62 183.285 -70.9987L338.646 -84.6846ZM204.957 -53.7267C210.908 -15.0497 220.093 20.999 231.669 53.5192L330.87 44.7805L321.29 -63.9745L204.957 -53.7267ZM87.9108 131.77C92.9418 137.88 98.1551 143.818 103.541 149.574C143.437 192.213 192.801 224.885 247.644 244.108C261.382 248.923 275.464 252.894 289.827 255.967C278.942 247.798 268.379 238.281 258.219 227.535C232.201 200.018 208.825 164.444 189.466 122.824L87.9108 131.77ZM128.13 147.408C155.23 173.976 186.368 195.906 220.302 212.158C204.774 191.607 190.582 168.374 177.977 143.017L128.13 147.408ZM238.775 118.48C241.997 124.779 245.315 130.884 248.72 136.785C253.551 145.161 258.558 153.127 263.716 160.656C291.296 200.92 320.366 225.217 347.757 236.484C354.441 239.234 361.026 241.208 367.464 242.448L355.636 108.186L238.775 118.48ZM269.831 134.925C272.986 140.099 276.205 145.078 279.479 149.858C302.306 183.182 325.194 203.517 345.817 214.465L338.28 128.896L269.831 134.925ZM536.172 -148.49C535.39 -154.869 534.522 -161.188 533.571 -167.443C526.605 -213.296 515.204 -255.727 500.616 -293.329L367.704 -281.621L380.638 -134.789L536.172 -148.49ZM397.995 -155.499L514.499 -165.762C508.548 -204.443 499.362 -240.495 487.785 -273.018L388.414 -264.264L397.995 -155.499ZM373.457 -434.05L381.004 -348.379L449.62 -354.424C446.466 -359.594 443.249 -364.57 439.977 -369.347C417.083 -402.77 394.128 -423.126 373.457 -434.05ZM363.647 -327.669L480.677 -337.978C477.455 -344.277 474.137 -350.382 470.732 -356.283C465.901 -364.655 460.896 -372.618 455.741 -380.145C428.1 -420.497 398.963 -444.812 371.519 -456.047C364.836 -458.783 358.253 -460.744 351.816 -461.971L363.647 -327.669ZM631.721 -351.284C626.688 -357.394 621.474 -363.332 616.087 -369.088C576.125 -411.786 526.667 -444.487 471.721 -463.691C457.991 -468.489 443.919 -472.445 429.566 -475.504C440.444 -467.346 451.001 -457.841 461.157 -447.11C487.205 -419.583 510.608 -383.982 529.986 -342.322L631.721 -351.284ZM591.495 -366.921C564.321 -393.554 533.089 -415.525 499.051 -431.785C514.617 -411.202 528.843 -387.925 541.475 -362.515L591.495 -366.921ZM228.445 -334.94L296.889 -340.969L289.352 -426.529C270.959 -412.144 251.979 -388.121 235.33 -351.32C232.944 -346.044 230.646 -340.582 228.445 -334.94ZM207.333 -333.08C205.012 -326.674 202.813 -320.083 200.741 -313.318L317.599 -323.612L305.772 -457.866C299.65 -455.519 293.512 -452.424 287.412 -448.548C262.413 -432.666 238.038 -403.661 217.922 -359.195C214.161 -350.883 210.625 -342.168 207.333 -333.08ZM205.1 -248.116C199.386 -214.07 196.645 -176.967 197.548 -137.842L313.88 -148.09L304.298 -256.854L205.1 -248.116ZM178.475 -136.162C178.633 -129.837 178.883 -123.464 179.228 -117.047L334.59 -130.733L321.655 -277.564L188.915 -265.871C181.126 -226.297 177.318 -182.527 178.475 -136.162ZM226.926 -457.559C213.325 -452.022 200.158 -445.649 187.476 -438.506C136.867 -410 93.9966 -369.222 62.1784 -320.293C57.8806 -313.684 53.7845 -306.927 49.8981 -300.03L151.432 -308.975C163.211 -353.314 179.997 -392.408 200.788 -424.039C208.909 -436.395 217.642 -447.612 226.926 -457.559ZM86.7702 -322.46C108.797 -353.331 135.603 -380.348 166.149 -402.269C154.465 -379.335 144.562 -353.997 136.59 -326.848L86.7702 -322.46Z"/>
</mask>
<path fill-rule="evenodd" clip-rule="evenodd" d="M692.367 32.9035C692.473 32.6321 692.579 32.3606 692.685 32.0889C695.217 25.5735 697.575 18.9699 699.755 12.285C711.218 -22.8746 717.726 -60.2849 718.49 -98.9642C718.616 -105.322 718.586 -111.715 718.397 -118.137L586.301 -106.501C588.826 -61.3815 586.984 -17.8853 581.351 22.7153C580.441 29.2752 579.432 35.7595 578.326 42.1629L692.298 32.123L692.367 32.9035ZM600.864 20.9963L678.963 14.1165C691.26 -20.8803 698.355 -58.3772 699.34 -97.2773L606.179 -89.0707C607.346 -50.9292 605.47 -13.9919 600.864 20.9963ZM27.328 -251.637L27.2678 -252.32C27.1748 -252.082 27.0821 -251.845 26.9896 -251.607C24.4565 -245.091 22.097 -238.488 19.9167 -231.803C8.44862 -196.64 1.93648 -159.226 1.16991 -120.543C1.04391 -114.185 1.07314 -107.792 1.26109 -101.37L133.155 -112.988C130.631 -158.111 132.473 -201.611 138.107 -242.214C139.017 -248.774 140.026 -255.258 141.132 -261.662L27.328 -251.637ZM118.594 -240.495L40.7098 -233.634C28.407 -198.635 21.3084 -161.134 20.32 -122.23L113.277 -130.418C112.11 -168.563 113.987 -205.504 118.594 -240.495ZM57.316 88.7845C57.1759 88.5553 57.036 88.3259 56.8964 88.0963C53.264 82.1239 49.7872 76.0343 46.4726 69.8334C29.0392 37.2192 16.091 1.52287 8.5768 -36.4273C7.34162 -42.6656 6.25326 -48.9648 5.31595 -55.3212L137.212 -66.9401C142.614 -22.0744 152.032 20.43 164.676 59.4207C166.719 65.7205 168.846 71.9285 171.054 78.04L57.2526 88.0649L57.316 88.7845ZM145.163 61.1396C134.511 27.4953 126.206 -8.5451 120.687 -46.3032L27.7268 -38.1143C35.4977 0.01453 49.0382 35.6938 67.2647 68.0018L145.163 61.1396ZM548.399 -297.538C550.607 -291.427 552.734 -285.219 554.777 -278.919C567.423 -239.926 576.842 -197.418 582.245 -152.549L714.34 -164.185C713.402 -170.542 712.313 -176.841 711.077 -183.079C703.56 -221.033 690.607 -256.732 673.168 -289.348C669.853 -295.549 666.375 -301.639 662.742 -307.611C662.597 -307.848 662.453 -308.086 662.308 -308.323L662.373 -307.578L548.399 -297.538ZM652.375 -287.516L574.291 -280.638C584.944 -246.991 593.25 -210.947 598.77 -173.186L691.927 -181.392C684.153 -219.525 670.607 -255.207 652.375 -287.516ZM429.942 207.167C448.385 192.796 467.428 168.741 484.126 131.83C486.514 126.552 488.813 121.086 491.016 115.441L422.395 121.486L429.942 207.167ZM431.88 229.164C425.778 233.026 419.639 236.107 413.516 238.44L401.685 104.129L518.719 93.8194C516.647 100.584 514.447 107.175 512.127 113.581C508.834 122.672 505.297 131.391 501.535 139.706C481.374 184.269 456.937 213.304 431.88 229.164ZM514.358 28.6167C520.071 -5.42641 522.811 -42.5255 521.909 -81.6472L405.405 -71.3842L414.985 37.3707L514.358 28.6167ZM384.695 -88.741L540.228 -102.442C540.573 -96.0249 540.823 -89.652 540.981 -83.3273C542.138 -36.9661 538.332 6.80112 530.544 46.3721L397.628 58.0808L384.695 -88.741ZM492.393 238.217C505.993 232.697 519.161 226.342 531.844 219.217C582.614 190.695 625.615 149.83 657.506 100.775C661.803 94.1656 665.898 87.4081 669.783 80.5119L568.027 89.4757C556.225 133.907 539.395 173.07 518.546 204.736C510.419 217.08 501.681 228.284 492.393 238.217ZM553.183 183.024C583.878 161.051 610.806 133.939 632.917 102.941L582.87 107.349C574.869 134.598 564.923 160.022 553.183 183.024ZM338.646 -84.6846L351.58 62.1373L218.837 73.8308C204.251 36.2307 192.851 -6.19714 185.885 -52.0466C184.935 -58.3015 184.067 -64.62 183.285 -70.9987L338.646 -84.6846ZM204.957 -53.7267C210.908 -15.0497 220.093 20.999 231.669 53.5192L330.87 44.7805L321.29 -63.9745L204.957 -53.7267ZM87.9108 131.77C92.9418 137.88 98.1551 143.818 103.541 149.574C143.437 192.213 192.801 224.885 247.644 244.108C261.382 248.923 275.464 252.894 289.827 255.967C278.942 247.798 268.379 238.281 258.219 227.535C232.201 200.018 208.825 164.444 189.466 122.824L87.9108 131.77ZM128.13 147.408C155.23 173.976 186.368 195.906 220.302 212.158C204.774 191.607 190.582 168.374 177.977 143.017L128.13 147.408ZM238.775 118.48C241.997 124.779 245.315 130.884 248.72 136.785C253.551 145.161 258.558 153.127 263.716 160.656C291.296 200.92 320.366 225.217 347.757 236.484C354.441 239.234 361.026 241.208 367.464 242.448L355.636 108.186L238.775 118.48ZM269.831 134.925C272.986 140.099 276.205 145.078 279.479 149.858C302.306 183.182 325.194 203.517 345.817 214.465L338.28 128.896L269.831 134.925ZM536.172 -148.49C535.39 -154.869 534.522 -161.188 533.571 -167.443C526.605 -213.296 515.204 -255.727 500.616 -293.329L367.704 -281.621L380.638 -134.789L536.172 -148.49ZM397.995 -155.499L514.499 -165.762C508.548 -204.443 499.362 -240.495 487.785 -273.018L388.414 -264.264L397.995 -155.499ZM373.457 -434.05L381.004 -348.379L449.62 -354.424C446.466 -359.594 443.249 -364.57 439.977 -369.347C417.083 -402.77 394.128 -423.126 373.457 -434.05ZM363.647 -327.669L480.677 -337.978C477.455 -344.277 474.137 -350.382 470.732 -356.283C465.901 -364.655 460.896 -372.618 455.741 -380.145C428.1 -420.497 398.963 -444.812 371.519 -456.047C364.836 -458.783 358.253 -460.744 351.816 -461.971L363.647 -327.669ZM631.721 -351.284C626.688 -357.394 621.474 -363.332 616.087 -369.088C576.125 -411.786 526.667 -444.487 471.721 -463.691C457.991 -468.489 443.919 -472.445 429.566 -475.504C440.444 -467.346 451.001 -457.841 461.157 -447.11C487.205 -419.583 510.608 -383.982 529.986 -342.322L631.721 -351.284ZM591.495 -366.921C564.321 -393.554 533.089 -415.525 499.051 -431.785C514.617 -411.202 528.843 -387.925 541.475 -362.515L591.495 -366.921ZM228.445 -334.94L296.889 -340.969L289.352 -426.529C270.959 -412.144 251.979 -388.121 235.33 -351.32C232.944 -346.044 230.646 -340.582 228.445 -334.94ZM207.333 -333.08C205.012 -326.674 202.813 -320.083 200.741 -313.318L317.599 -323.612L305.772 -457.866C299.65 -455.519 293.512 -452.424 287.412 -448.548C262.413 -432.666 238.038 -403.661 217.922 -359.195C214.161 -350.883 210.625 -342.168 207.333 -333.08ZM205.1 -248.116C199.386 -214.07 196.645 -176.967 197.548 -137.842L313.88 -148.09L304.298 -256.854L205.1 -248.116ZM178.475 -136.162C178.633 -129.837 178.883 -123.464 179.228 -117.047L334.59 -130.733L321.655 -277.564L188.915 -265.871C181.126 -226.297 177.318 -182.527 178.475 -136.162ZM226.926 -457.559C213.325 -452.022 200.158 -445.649 187.476 -438.506C136.867 -410 93.9966 -369.222 62.1784 -320.293C57.8806 -313.684 53.7845 -306.927 49.8981 -300.03L151.432 -308.975C163.211 -353.314 179.997 -392.408 200.788 -424.039C208.909 -436.395 217.642 -447.612 226.926 -457.559ZM86.7702 -322.46C108.797 -353.331 135.603 -380.348 166.149 -402.269C154.465 -379.335 144.562 -353.997 136.59 -326.848L86.7702 -322.46Z" stroke="url(#paint0_linear_469_17134)" stroke-width="1.97344" mask="url(#path-1-outside-1_469_17134)"/>
<defs>
<linearGradient id="paint0_linear_469_17134" x1="344.252" y1="-2.35621" x2="452.378" y2="234.15" gradientUnits="userSpaceOnUse">
<stop stop-color="#0745F9" stop-opacity="0.42"/>
<stop offset="1" stop-color="#00FFFF"/>
</linearGradient>
</defs>
</svg>
