<svg width="234" height="155" viewBox="0 0 234 155" fill="none" xmlns="http://www.w3.org/2000/svg">
<mask id="path-1-outside-1_473_17730" maskUnits="userSpaceOnUse" x="-19.3676" y="-145.951" width="316.545" height="316.545" fill="black">
<rect fill="white" x="-19.3676" y="-145.951" width="316.545" height="316.545"/>
<path fill-rule="evenodd" clip-rule="evenodd" d="M250.535 95.3118C250.599 95.2202 250.663 95.1285 250.727 95.0367C252.263 92.8354 253.741 90.5854 255.161 88.2888C262.625 76.2099 268.446 62.8421 272.238 48.4799C272.861 46.119 273.43 43.7313 273.942 41.3179L223.601 33.6825C220.452 50.7456 215.821 66.8072 210.038 81.4448C209.103 83.8099 208.139 86.1377 207.146 88.4266L250.58 95.0144L250.535 95.3118ZM217.474 82.5727L247.237 87.087C254.998 75.1445 261.045 61.7974 264.94 47.373L229.437 41.9881C226.414 56.3247 222.365 69.936 217.474 82.5727ZM28.2042 -71.15L28.2437 -71.4104C28.1875 -71.3302 28.1313 -71.2499 28.0753 -71.1695C26.5394 -68.9682 25.0603 -66.7183 23.6407 -64.4218C16.1738 -52.3423 10.3518 -38.9735 6.55835 -24.6099C5.93485 -22.2491 5.36615 -19.8613 4.85396 -17.4481L55.1178 -9.82432C58.2672 -26.8888 62.8987 -42.9516 68.6821 -57.5902C69.6165 -59.9552 70.5809 -62.283 71.574 -64.5719L28.2042 -71.15ZM61.2457 -58.7181L31.5648 -63.2199C23.8012 -51.2769 17.7525 -37.9288 13.8563 -23.503L49.2816 -18.1299C52.3046 -32.4678 56.3544 -46.0804 61.2457 -58.7181ZM8.52724 58.5819C8.49575 58.4836 8.46437 58.3854 8.43309 58.287C7.61934 55.7294 6.87427 53.1421 6.19979 50.5279C2.65238 36.7788 1.05791 22.2863 1.69524 7.44554C1.8 5.00602 1.96507 2.55709 2.19169 0.100491L52.4562 7.72432C50.4039 24.9538 50.064 41.6663 51.2462 57.3603C51.4372 59.896 51.668 62.4051 51.9377 64.8855L8.56883 58.3076L8.52724 58.5819ZM43.8099 56.2324C42.8863 42.7138 43.0552 28.5139 44.4196 13.9257L8.99314 8.55244C8.43543 23.4831 10.2525 38.0229 14.1235 51.7298L43.8099 56.2324ZM226.78 -41.0311C227.05 -38.5507 227.281 -36.0416 227.472 -33.5058C228.655 -17.8107 228.315 -1.09694 226.262 16.1339L276.603 23.7692C276.829 21.3126 276.994 18.8636 277.099 16.424C277.735 1.58168 276.139 -12.9123 272.59 -26.6626C271.915 -29.2768 271.17 -31.8642 270.356 -34.4219C270.323 -34.5236 270.291 -34.6252 270.258 -34.7268L270.215 -34.4432L226.78 -41.0311ZM264.666 -27.8645L234.908 -32.3779C235.832 -18.8582 235.663 -4.65703 234.299 9.93245L269.801 15.3171C270.357 0.384788 268.539 -14.1565 264.666 -27.8645ZM136.823 136.536C145.007 132.847 154.292 125.599 163.869 113.341C165.239 111.588 166.592 109.757 167.926 107.851L141.775 103.884L136.823 136.536ZM135.551 144.919C132.924 145.807 130.354 146.4 127.858 146.716L135.622 95.5306L180.222 102.295C178.836 104.632 177.418 106.891 175.971 109.071C173.918 112.164 171.808 115.097 169.651 117.858C158.088 132.657 146.338 141.274 135.551 144.919ZM184.507 77.5725C189.725 65.3888 194.112 51.7954 197.322 37.1171L152.923 30.383L146.637 71.8286L184.507 77.5725ZM146.77 22.0293L206.043 31.0194C205.589 33.445 205.105 35.8454 204.59 38.2195C200.818 55.622 195.43 71.6067 188.936 85.6647L138.283 77.9819L146.77 22.0293ZM157.308 153.784C162.883 152.958 168.372 151.78 173.75 150.272C195.279 144.233 215.027 132.885 231.374 117.474C233.576 115.398 235.717 113.248 237.792 111.027L199.014 105.145C190.582 120.653 180.751 133.739 170.101 143.663C165.95 147.532 161.674 150.92 157.308 153.784ZM184.993 138.703C198.438 133.288 210.943 125.614 222.003 116.053L202.931 113.16C197.475 122.601 191.459 131.185 184.993 138.703ZM129.221 19.3676L120.735 75.3203L70.1473 67.6475C68.1143 52.2962 67.708 35.4326 69.2661 17.6943C69.4786 15.2744 69.7277 12.8382 70.0142 10.3874L129.221 19.3676ZM76.5344 18.7967C75.2479 33.7669 75.4061 48.0495 76.7766 61.2326L114.581 66.9666L120.868 25.5209L76.5344 18.7967ZM16.0449 77.3939C17.3679 80.13 18.7747 82.818 20.2623 85.4539C31.2819 104.98 46.7375 121.646 65.4565 133.791C70.1456 136.833 75.0396 139.591 80.1198 142.04C76.7996 138.005 73.7213 133.497 70.9047 128.566C63.6924 115.94 58.196 100.548 54.7468 83.264L16.0449 77.3939ZM29.633 86.8752C37.3354 99.245 46.9646 110.25 58.1518 119.391C54.2218 110.315 51.0332 100.36 48.6293 89.7565L29.633 86.8752ZM73.5379 86.1141C74.1691 88.7563 74.8535 91.3349 75.5887 93.8455C76.6321 97.4085 77.7779 100.835 79.0195 104.112C85.6593 121.635 94.3024 133.336 103.501 140.023C105.745 141.655 108.023 142.989 110.312 144.035L118.073 92.8689L73.5379 86.1141ZM83.634 95.0658C84.3424 97.2821 85.0919 99.4319 85.88 101.512C91.3753 116.015 98.071 125.677 104.773 131.632L109.719 99.0222L83.634 95.0658ZM208.704 13.4708C208.991 11.0199 209.24 8.58376 209.452 6.16387C211.011 -11.5759 210.604 -28.4408 208.571 -43.793L157.919 -51.4756L149.432 4.48064L208.704 13.4708ZM157.785 -1.6727L202.184 5.06146C203.471 -9.9101 203.312 -24.1941 201.941 -37.3782L164.072 -43.122L157.785 -1.6727ZM173.886 -107.826L168.934 -75.1776L195.083 -71.2115C194.375 -73.4264 193.626 -75.5749 192.838 -77.6539C187.327 -92.1999 180.608 -101.876 173.886 -107.826ZM160.58 -69.0243L205.18 -62.2597C204.548 -64.902 203.864 -67.4806 203.129 -69.9912C202.086 -73.5528 200.94 -76.9776 199.699 -80.2534C193.045 -97.8151 184.378 -109.529 175.157 -116.209C172.912 -117.836 170.634 -119.164 168.343 -120.206L160.58 -69.0243ZM262.741 -53.5291C261.418 -56.2653 260.01 -58.9534 258.522 -61.5894C247.484 -81.1437 231.996 -97.8288 213.236 -109.976C208.549 -113.011 203.657 -115.763 198.579 -118.205C201.898 -114.175 204.975 -109.672 207.791 -104.747C215.014 -92.115 220.518 -76.7102 223.971 -59.4096L262.741 -53.5291ZM249.151 -63.0108C241.427 -75.4115 231.766 -86.4406 220.54 -95.5935C224.482 -86.5026 227.679 -76.528 230.088 -65.9021L249.151 -63.0108ZM110.795 -83.9958L136.878 -80.0396L141.824 -112.646C133.657 -108.946 124.398 -101.704 114.849 -89.4829C113.48 -87.731 112.128 -85.9012 110.795 -83.9958ZM102.749 -85.2161C101.303 -83.0364 99.8845 -80.7768 98.4981 -78.4406L143.032 -71.686L150.792 -122.849C148.295 -122.528 145.724 -121.93 143.097 -121.037C132.329 -117.378 120.605 -108.766 109.068 -93.9997C106.911 -91.2394 104.802 -88.3083 102.749 -85.2161ZM94.2126 -53.7179C88.994 -41.5332 84.6071 -27.9386 81.3964 -13.2589L125.73 -6.53472L132.016 -47.984L94.2126 -53.7179ZM74.1281 -14.3613C73.6135 -11.9873 73.129 -9.58678 72.6759 -7.16122L131.883 1.81896L140.37 -54.1373L89.7837 -61.81C83.2894 -47.7511 77.9003 -31.7652 74.1281 -14.3613ZM121.346 -129.883C115.769 -129.051 110.279 -127.867 104.9 -126.352C83.4326 -120.304 63.74 -108.977 47.4321 -93.6063C45.2294 -91.5301 43.0884 -89.3802 41.0131 -87.1596L79.7068 -81.2907C88.1218 -96.7661 97.9294 -109.83 108.555 -119.747C112.705 -123.62 116.98 -127.014 121.346 -129.883ZM56.8039 -92.1849C67.8214 -101.706 80.2722 -109.355 93.6568 -114.765C87.218 -107.267 81.2258 -98.7117 75.7897 -89.3052L56.8039 -92.1849Z"/>
</mask>
<path fill-rule="evenodd" clip-rule="evenodd" d="M250.535 95.3118C250.599 95.2202 250.663 95.1285 250.727 95.0367C252.263 92.8354 253.741 90.5854 255.161 88.2888C262.625 76.2099 268.446 62.8421 272.238 48.4799C272.861 46.119 273.43 43.7313 273.942 41.3179L223.601 33.6825C220.452 50.7456 215.821 66.8072 210.038 81.4448C209.103 83.8099 208.139 86.1377 207.146 88.4266L250.58 95.0144L250.535 95.3118ZM217.474 82.5727L247.237 87.087C254.998 75.1445 261.045 61.7974 264.94 47.373L229.437 41.9881C226.414 56.3247 222.365 69.936 217.474 82.5727ZM28.2042 -71.15L28.2437 -71.4104C28.1875 -71.3302 28.1313 -71.2499 28.0753 -71.1695C26.5394 -68.9682 25.0603 -66.7183 23.6407 -64.4218C16.1738 -52.3423 10.3518 -38.9735 6.55835 -24.6099C5.93485 -22.2491 5.36615 -19.8613 4.85396 -17.4481L55.1178 -9.82432C58.2672 -26.8888 62.8987 -42.9516 68.6821 -57.5902C69.6165 -59.9552 70.5809 -62.283 71.574 -64.5719L28.2042 -71.15ZM61.2457 -58.7181L31.5648 -63.2199C23.8012 -51.2769 17.7525 -37.9288 13.8563 -23.503L49.2816 -18.1299C52.3046 -32.4678 56.3544 -46.0804 61.2457 -58.7181ZM8.52724 58.5819C8.49575 58.4836 8.46437 58.3854 8.43309 58.287C7.61934 55.7294 6.87427 53.1421 6.19979 50.5279C2.65238 36.7788 1.05791 22.2863 1.69524 7.44554C1.8 5.00602 1.96507 2.55709 2.19169 0.100491L52.4562 7.72432C50.4039 24.9538 50.064 41.6663 51.2462 57.3603C51.4372 59.896 51.668 62.4051 51.9377 64.8855L8.56883 58.3076L8.52724 58.5819ZM43.8099 56.2324C42.8863 42.7138 43.0552 28.5139 44.4196 13.9257L8.99314 8.55244C8.43543 23.4831 10.2525 38.0229 14.1235 51.7298L43.8099 56.2324ZM226.78 -41.0311C227.05 -38.5507 227.281 -36.0416 227.472 -33.5058C228.655 -17.8107 228.315 -1.09694 226.262 16.1339L276.603 23.7692C276.829 21.3126 276.994 18.8636 277.099 16.424C277.735 1.58168 276.139 -12.9123 272.59 -26.6626C271.915 -29.2768 271.17 -31.8642 270.356 -34.4219C270.323 -34.5236 270.291 -34.6252 270.258 -34.7268L270.215 -34.4432L226.78 -41.0311ZM264.666 -27.8645L234.908 -32.3779C235.832 -18.8582 235.663 -4.65703 234.299 9.93245L269.801 15.3171C270.357 0.384788 268.539 -14.1565 264.666 -27.8645ZM136.823 136.536C145.007 132.847 154.292 125.599 163.869 113.341C165.239 111.588 166.592 109.757 167.926 107.851L141.775 103.884L136.823 136.536ZM135.551 144.919C132.924 145.807 130.354 146.4 127.858 146.716L135.622 95.5306L180.222 102.295C178.836 104.632 177.418 106.891 175.971 109.071C173.918 112.164 171.808 115.097 169.651 117.858C158.088 132.657 146.338 141.274 135.551 144.919ZM184.507 77.5725C189.725 65.3888 194.112 51.7954 197.322 37.1171L152.923 30.383L146.637 71.8286L184.507 77.5725ZM146.77 22.0293L206.043 31.0194C205.589 33.445 205.105 35.8454 204.59 38.2195C200.818 55.622 195.43 71.6067 188.936 85.6647L138.283 77.9819L146.77 22.0293ZM157.308 153.784C162.883 152.958 168.372 151.78 173.75 150.272C195.279 144.233 215.027 132.885 231.374 117.474C233.576 115.398 235.717 113.248 237.792 111.027L199.014 105.145C190.582 120.653 180.751 133.739 170.101 143.663C165.95 147.532 161.674 150.92 157.308 153.784ZM184.993 138.703C198.438 133.288 210.943 125.614 222.003 116.053L202.931 113.16C197.475 122.601 191.459 131.185 184.993 138.703ZM129.221 19.3676L120.735 75.3203L70.1473 67.6475C68.1143 52.2962 67.708 35.4326 69.2661 17.6943C69.4786 15.2744 69.7277 12.8382 70.0142 10.3874L129.221 19.3676ZM76.5344 18.7967C75.2479 33.7669 75.4061 48.0495 76.7766 61.2326L114.581 66.9666L120.868 25.5209L76.5344 18.7967ZM16.0449 77.3939C17.3679 80.13 18.7747 82.818 20.2623 85.4539C31.2819 104.98 46.7375 121.646 65.4565 133.791C70.1456 136.833 75.0396 139.591 80.1198 142.04C76.7996 138.005 73.7213 133.497 70.9047 128.566C63.6924 115.94 58.196 100.548 54.7468 83.264L16.0449 77.3939ZM29.633 86.8752C37.3354 99.245 46.9646 110.25 58.1518 119.391C54.2218 110.315 51.0332 100.36 48.6293 89.7565L29.633 86.8752ZM73.5379 86.1141C74.1691 88.7563 74.8535 91.3349 75.5887 93.8455C76.6321 97.4085 77.7779 100.835 79.0195 104.112C85.6593 121.635 94.3024 133.336 103.501 140.023C105.745 141.655 108.023 142.989 110.312 144.035L118.073 92.8689L73.5379 86.1141ZM83.634 95.0658C84.3424 97.2821 85.0919 99.4319 85.88 101.512C91.3753 116.015 98.071 125.677 104.773 131.632L109.719 99.0222L83.634 95.0658ZM208.704 13.4708C208.991 11.0199 209.24 8.58376 209.452 6.16387C211.011 -11.5759 210.604 -28.4408 208.571 -43.793L157.919 -51.4756L149.432 4.48064L208.704 13.4708ZM157.785 -1.6727L202.184 5.06146C203.471 -9.9101 203.312 -24.1941 201.941 -37.3782L164.072 -43.122L157.785 -1.6727ZM173.886 -107.826L168.934 -75.1776L195.083 -71.2115C194.375 -73.4264 193.626 -75.5749 192.838 -77.6539C187.327 -92.1999 180.608 -101.876 173.886 -107.826ZM160.58 -69.0243L205.18 -62.2597C204.548 -64.902 203.864 -67.4806 203.129 -69.9912C202.086 -73.5528 200.94 -76.9776 199.699 -80.2534C193.045 -97.8151 184.378 -109.529 175.157 -116.209C172.912 -117.836 170.634 -119.164 168.343 -120.206L160.58 -69.0243ZM262.741 -53.5291C261.418 -56.2653 260.01 -58.9534 258.522 -61.5894C247.484 -81.1437 231.996 -97.8288 213.236 -109.976C208.549 -113.011 203.657 -115.763 198.579 -118.205C201.898 -114.175 204.975 -109.672 207.791 -104.747C215.014 -92.115 220.518 -76.7102 223.971 -59.4096L262.741 -53.5291ZM249.151 -63.0108C241.427 -75.4115 231.766 -86.4406 220.54 -95.5935C224.482 -86.5026 227.679 -76.528 230.088 -65.9021L249.151 -63.0108ZM110.795 -83.9958L136.878 -80.0396L141.824 -112.646C133.657 -108.946 124.398 -101.704 114.849 -89.4829C113.48 -87.731 112.128 -85.9012 110.795 -83.9958ZM102.749 -85.2161C101.303 -83.0364 99.8845 -80.7768 98.4981 -78.4406L143.032 -71.686L150.792 -122.849C148.295 -122.528 145.724 -121.93 143.097 -121.037C132.329 -117.378 120.605 -108.766 109.068 -93.9997C106.911 -91.2394 104.802 -88.3083 102.749 -85.2161ZM94.2126 -53.7179C88.994 -41.5332 84.6071 -27.9386 81.3964 -13.2589L125.73 -6.53472L132.016 -47.984L94.2126 -53.7179ZM74.1281 -14.3613C73.6135 -11.9873 73.129 -9.58678 72.6759 -7.16122L131.883 1.81896L140.37 -54.1373L89.7837 -61.81C83.2894 -47.7511 77.9003 -31.7652 74.1281 -14.3613ZM121.346 -129.883C115.769 -129.051 110.279 -127.867 104.9 -126.352C83.4326 -120.304 63.74 -108.977 47.4321 -93.6063C45.2294 -91.5301 43.0884 -89.3802 41.0131 -87.1596L79.7068 -81.2907C88.1218 -96.7661 97.9294 -109.83 108.555 -119.747C112.705 -123.62 116.98 -127.014 121.346 -129.883ZM56.8039 -92.1849C67.8214 -101.706 80.2722 -109.355 93.6568 -114.765C87.218 -107.267 81.2258 -98.7117 75.7897 -89.3052L56.8039 -92.1849Z" stroke="url(#paint0_linear_473_17730)" stroke-width="1.97344" mask="url(#path-1-outside-1_473_17730)"/>
<defs>
<linearGradient id="paint0_linear_473_17730" x1="123.848" y1="50.593" x2="142.747" y2="148.638" gradientUnits="userSpaceOnUse">
<stop stop-color="#0745F9" stop-opacity="0.42"/>
<stop offset="1" stop-color="#00FFFF"/>
</linearGradient>
</defs>
</svg>
