<svg width="1390" height="29" viewBox="0 0 1390 29" fill="none" xmlns="http://www.w3.org/2000/svg">
<path fill-rule="evenodd" clip-rule="evenodd" d="M533.5 20.5H0V19.5H533.5V20.5Z" fill="#828FA1"/>
<path fill-rule="evenodd" clip-rule="evenodd" d="M540.149 19.5H533.5V20.5H540.149C544.063 20.5 547.895 19.3798 551.192 17.2717L571.84 4.07082C574.976 2.06557 578.621 1 582.343 1H589.5V0H582.343C578.43 0 574.598 1.12022 571.301 3.2283L550.653 16.4292C547.517 18.4344 543.872 19.5 540.149 19.5Z" fill="#828FA1"/>
<path fill-rule="evenodd" clip-rule="evenodd" d="M800.5 1H589.5V0H800.5V1Z" fill="#828FA1"/>
<path d="M630.734 22V10.5547H632.852V15.2344H638.023V10.5547H640.141V22H638.023V16.9062H632.852V22H630.734ZM645.859 19.3516C646.426 20.0755 647.265 20.4375 648.374 20.4375C649.484 20.4375 650.32 20.0781 650.882 19.3594C651.45 18.6354 651.734 17.6146 651.734 16.2969C651.734 14.9635 651.45 13.9297 650.882 13.1953C650.32 12.4609 649.486 12.0938 648.382 12.0938C647.273 12.0938 646.432 12.4635 645.859 13.2031C645.291 13.9375 645.007 14.9688 645.007 16.2969C645.007 17.6094 645.291 18.6276 645.859 19.3516ZM648.367 22.1641C646.643 22.1641 645.281 21.6432 644.281 20.6016C643.286 19.5547 642.788 18.112 642.788 16.2734C642.788 14.4245 643.288 12.9818 644.288 11.9453C645.288 10.9089 646.65 10.3906 648.374 10.3906C650.098 10.3906 651.458 10.9115 652.453 11.9531C653.447 12.9896 653.945 14.4323 653.945 16.2812C653.945 18.1094 653.445 19.5469 652.445 20.5938C651.445 21.6406 650.085 22.1641 648.367 22.1641ZM656.593 22V10.5547H658.71V20.3125H663.499L663.436 22H656.593ZM667.732 20.3047H669.248C670.555 20.3047 671.55 19.9635 672.232 19.2812C672.915 18.5938 673.256 17.5938 673.256 16.2812C673.256 14.875 672.904 13.8542 672.201 13.2188C671.498 12.5781 670.438 12.2578 669.022 12.2578H667.732V20.3047ZM665.615 22V10.5547H668.928C669.928 10.5547 670.824 10.6693 671.615 10.8984C672.407 11.1276 673.087 11.474 673.654 11.9375C674.227 12.3958 674.665 12.9896 674.967 13.7188C675.274 14.4427 675.428 15.2812 675.428 16.2344C675.428 18.0833 674.871 19.5078 673.756 20.5078C672.641 21.5026 671.097 22 669.123 22H665.615ZM678.13 22V10.5547H680.248V22H678.13ZM683.419 22V10.5547H685.669C686.075 11.1901 686.901 12.4714 688.145 14.3984C689.39 16.3255 690.148 17.4974 690.419 17.9141C690.497 18.0339 690.63 18.237 690.817 18.5234C691.01 18.8047 691.145 19.0052 691.223 19.125C691.187 17.3385 691.169 16.4115 691.169 16.3438V10.5547H693.098V22H690.817L685.653 13.9531L685.278 13.3359C685.32 14.7109 685.341 15.6771 685.341 16.2344V22H683.419ZM701.309 22.1641C699.564 22.1641 698.199 21.638 697.215 20.5859C696.236 19.5339 695.746 18.0938 695.746 16.2656C695.746 15.1042 695.975 14.0833 696.434 13.2031C696.892 12.3177 697.567 11.6276 698.457 11.1328C699.348 10.638 700.4 10.3906 701.613 10.3906C703.004 10.3906 704.197 10.6901 705.192 11.2891L704.504 12.8672C703.556 12.3568 702.606 12.1016 701.652 12.1016C700.496 12.1016 699.587 12.4766 698.926 13.2266C698.264 13.9766 697.934 14.9974 697.934 16.2891C697.934 17.5703 698.228 18.5833 698.817 19.3281C699.405 20.0729 700.267 20.4453 701.402 20.4453C702.132 20.4453 702.793 20.3307 703.387 20.1016V17.4453H700.988L701.004 15.7812H705.379V21.3047C704.671 21.5964 703.999 21.8125 703.363 21.9531C702.733 22.0938 702.048 22.1641 701.309 22.1641ZM713.167 22V10.5547H715.417C715.823 11.1901 716.649 12.4714 717.893 14.3984C719.138 16.3255 719.896 17.4974 720.167 17.9141C720.245 18.0339 720.378 18.237 720.565 18.5234C720.758 18.8047 720.893 19.0052 720.972 19.125C720.935 17.3385 720.917 16.4115 720.917 16.3438V10.5547H722.847V22H720.565L715.401 13.9531L715.026 13.3359C715.068 14.7109 715.089 15.6771 715.089 16.2344V22H713.167ZM725.948 22V10.5547H732.885L732.799 12.2344H728.065V15.1875H732.565V16.8672H728.065V20.3125H732.971L732.901 22H725.948ZM737.541 22L734.431 10.5547H736.541L738.759 19.4609L741.369 10.6094H743.392L745.869 19.4922L748.134 10.5547H750.244L747.041 22H744.845L742.4 13.6172L739.72 22H737.541ZM755.47 22.1562C754.089 22.1562 752.853 21.8385 751.759 21.2031L752.274 19.5234C752.764 19.7943 753.295 20.013 753.868 20.1797C754.446 20.3464 755.009 20.4297 755.556 20.4297C756.228 20.4297 756.735 20.2865 757.079 20C757.423 19.7083 757.595 19.2917 757.595 18.75C757.595 18.0312 757.116 17.5339 756.157 17.2578C756.089 17.237 755.899 17.1823 755.587 17.0938C755.274 17 754.98 16.9115 754.704 16.8281C754.433 16.7396 754.238 16.6719 754.118 16.625C752.582 16.0833 751.813 15.0729 751.813 13.5938C751.813 12.5573 752.181 11.7578 752.915 11.1953C753.655 10.6328 754.634 10.3516 755.853 10.3516C757.233 10.3516 758.423 10.6354 759.423 11.2031L758.782 12.75C757.761 12.2917 756.813 12.0625 755.938 12.0625C755.308 12.0625 754.832 12.1745 754.509 12.3984C754.191 12.6172 754.022 12.9844 754.001 13.5C754.001 14.1354 754.316 14.5495 754.946 14.7422C755.071 14.7891 755.379 14.8906 755.868 15.0469C756.358 15.2031 756.675 15.3047 756.821 15.3516C757.868 15.6953 758.616 16.1224 759.063 16.6328C759.517 17.1432 759.743 17.8542 759.743 18.7656C759.743 19.8542 759.358 20.6927 758.587 21.2812C757.816 21.8646 756.777 22.1562 755.47 22.1562Z" fill="#00FFFF"/>
<path fill-rule="evenodd" clip-rule="evenodd" d="M807.149 1H800.5V0H807.149C811.063 0 814.895 1.12022 818.192 3.2283L838.84 16.4292C841.976 18.4344 845.621 19.5 849.343 19.5H856.5V20.5H849.343C845.43 20.5 841.598 19.3798 838.301 17.2717L817.653 4.07082C814.517 2.06557 810.872 1 807.149 1Z" fill="#828FA1"/>
<path fill-rule="evenodd" clip-rule="evenodd" d="M1390 20.5H856.5V19.5H1390V20.5Z" fill="#828FA1"/>
</svg>
