<svg width="150" height="150" viewBox="0 0 150 150" fill="none" xmlns="http://www.w3.org/2000/svg">
<path d="M47.1159 61.564L44 64.6408L50.2317 70.2818C50.2317 69.3943 50.5779 68.6792 51.0972 68.1664C51.6953 67.5758 52.3863 67.2049 52.8283 67.2049L47.1159 61.564Z" fill="white"/>
<path d="M52.7544 59.4561L48.0522 61.0044L52.7544 65.647V59.4561Z" fill="white"/>
<path d="M55.127 70.1333C55.127 69.1625 54.3298 68.3755 53.3467 68.3755C52.3635 68.3755 51.5664 69.1625 51.5664 70.1333C51.5664 70.8975 52.0634 71.5413 52.7533 71.7834V74.1131C52.2844 74.3804 51.5664 74.9093 51.5664 75.6411C51.5664 76.3901 52.4698 77.7464 52.8582 78.3021V78.3021C53.0956 78.6413 53.5978 78.6413 53.8352 78.3021V78.3021C54.2235 77.7466 55.127 76.3901 55.127 75.6412C55.127 74.9093 54.409 74.3804 53.9401 74.1131V71.7834C54.63 71.5413 55.127 70.8975 55.127 70.1333Z" fill="white"/>
<path d="M64.1297 70.1108L64.1291 70.1102C64.1147 70.0822 62.5539 67.3219 59.6766 65.658C57.792 64.5673 55.1735 63.8783 53.9404 63.7602V65.3068C53.9405 65.3309 53.9592 65.3289 54.1889 65.4016C55.3138 65.7578 58.5963 66.7541 60.7333 68.8641C61.0456 69.1724 61.331 69.4917 61.5968 69.8141C62.6539 70.0394 63.5037 70.0945 63.8812 70.1069L64.1297 70.1108Z" fill="white"/>
<path d="M65.0059 65.5513C64.8826 65.4254 63.5175 64.0002 61.4475 62.8891C60.2498 62.2463 57.3706 61.8621 56.716 61.7781C55.967 61.6819 54.646 61.6401 53.9404 61.6401V63.1539C55.2722 63.269 58.1741 63.6465 60.3167 64.8864C60.8952 65.2211 61.4205 65.5942 61.8965 65.9805C63.3238 65.9491 64.4471 65.7015 64.8611 65.5948L65.0059 65.5513Z" fill="white"/>
<path d="M65.2917 60.7561C65.1254 60.6564 62.6304 59 58.0944 59C56.516 59 55.2375 59 53.9404 59.1983V61.0565C54.511 60.9789 55.1753 60.9186 55.9241 60.9186C57.0565 60.9186 58.7801 61.0519 59.799 61.3152C60.5639 61.5121 61.3006 61.7824 61.9427 62.0772C63.6398 61.6395 64.8655 60.9996 65.1775 60.8254L65.2917 60.7561Z" fill="white"/>
<path d="M59.8546 69.9316C57.9527 68.0538 55.0098 66.5704 53.9404 66.2222V67.2622C55.2931 67.5344 56.3141 68.7178 56.3141 70.1324C56.3141 70.6488 56.1665 71.1271 55.9279 71.5489C56.1703 71.8426 56.4194 72.136 56.7042 72.4172C59.2151 74.897 63.1163 75.6993 63.2512 75.7318C63.2147 75.5842 62.3604 72.4058 59.8546 69.9316Z" fill="white"/>
<path d="M68.4361 77.8054C68.315 77.8054 68.212 77.7601 68.1272 77.6693C68.0424 77.5786 68 77.4684 68 77.3388V64.6804C68 64.5379 68.0363 64.4212 68.109 64.3304C68.1938 64.2397 68.3028 64.1943 68.4361 64.1943H72.8696C76.431 64.1943 78.248 65.9573 78.3207 69.4832C78.3449 70.2351 78.357 70.7406 78.357 70.9999C78.357 71.2462 78.3449 71.7453 78.3207 72.4971C78.2722 74.3119 77.818 75.6536 76.9579 76.5221C76.0979 77.3777 74.7654 77.8054 72.9605 77.8054H68.4361ZM72.8696 75.5693C73.8872 75.5693 74.62 75.3295 75.0682 74.8499C75.5164 74.3573 75.7526 73.5536 75.7769 72.4388C75.8011 71.661 75.8132 71.1749 75.8132 70.9804C75.8132 70.773 75.8011 70.2934 75.7769 69.5416C75.7526 68.4786 75.4982 67.6943 75.0137 67.1888C74.5413 66.6832 73.7963 66.4304 72.7788 66.4304H70.5257V75.5693H72.8696Z" fill="white"/>
<path d="M86.2088 77.9999C84.5735 77.9999 83.3016 77.5527 82.3931 76.6582C81.4846 75.7638 81.0303 74.4092 81.0303 72.5943V64.6804C81.0303 64.5379 81.0667 64.4212 81.1393 64.3304C81.2241 64.2397 81.3332 64.1943 81.4664 64.1943H83.1199C83.2531 64.1943 83.3561 64.2397 83.4288 64.3304C83.5136 64.4212 83.556 64.5379 83.556 64.6804V72.5943C83.556 73.6314 83.7861 74.4156 84.2464 74.9471C84.7068 75.4656 85.3609 75.7249 86.2088 75.7249C87.0568 75.7249 87.7048 75.4656 88.153 74.9471C88.6134 74.4156 88.8435 73.6314 88.8435 72.5943V64.6804C88.8435 64.5379 88.8859 64.4212 88.9707 64.3304C89.0555 64.2397 89.1645 64.1943 89.2978 64.1943H90.9331C91.0663 64.1943 91.1693 64.2397 91.242 64.3304C91.3268 64.4212 91.3692 64.5379 91.3692 64.6804V72.5943C91.3692 74.4092 90.9149 75.7638 90.0064 76.6582C89.11 77.5527 87.8441 77.9999 86.2088 77.9999Z" fill="white"/>
<path d="M93.6942 77.8054C93.5852 77.8054 93.4944 77.7666 93.4217 77.6888C93.349 77.611 93.3127 77.5138 93.3127 77.3971C93.3127 77.3193 93.3308 77.2416 93.3672 77.1638L97.4373 70.8638L93.6216 64.836C93.5852 64.7712 93.5671 64.6934 93.5671 64.6027C93.5671 64.486 93.6034 64.3888 93.6761 64.311C93.7488 64.2332 93.8396 64.1943 93.9486 64.1943H95.802C96.02 64.1943 96.2078 64.3175 96.3653 64.5638L99.0363 68.7638L101.725 64.5638C101.883 64.3175 102.071 64.1943 102.289 64.1943H104.051C104.16 64.1943 104.251 64.2332 104.324 64.311C104.397 64.3888 104.433 64.486 104.433 64.6027C104.433 64.6934 104.409 64.7712 104.36 64.836L100.563 70.8638L104.633 77.1638C104.681 77.2675 104.705 77.3453 104.705 77.3971C104.705 77.5138 104.663 77.611 104.578 77.6888C104.506 77.7666 104.421 77.8054 104.324 77.8054H102.398C102.168 77.8054 101.986 77.6888 101.853 77.4554L98.9454 73.061L96.0927 77.4554C95.9352 77.6888 95.7475 77.8054 95.5294 77.8054H93.6942Z" fill="white"/>
<path d="M49.0286 93C47.4604 93 46.2444 92.5727 45.3807 91.7181C44.5284 90.8634 44.0739 89.6597 44.017 88.1069C44.0057 87.7819 44 87.2523 44 86.5181C44 85.7718 44.0057 85.2301 44.017 84.8931C44.0739 83.3523 44.5341 82.1546 45.3978 81.3C46.2728 80.4333 47.4831 80 49.0286 80C50.04 80 50.9208 80.1866 51.6708 80.5597C52.4208 80.9208 53.0004 81.4204 53.4095 82.0583C53.8186 82.6843 54.0345 83.3944 54.0573 84.1889V84.225C54.0573 84.3213 54.0175 84.4056 53.9379 84.4778C53.8698 84.538 53.7902 84.5681 53.6993 84.5681H52.0799C51.9435 84.5681 51.8413 84.538 51.7731 84.4778C51.7049 84.4176 51.6481 84.3032 51.6026 84.1347C51.4208 83.3764 51.1196 82.8468 50.6992 82.5458C50.2787 82.2329 49.7162 82.0764 49.0116 82.0764C47.3752 82.0764 46.5228 83.0454 46.4547 84.9833C46.4433 85.3083 46.4376 85.8079 46.4376 86.4819C46.4376 87.156 46.4433 87.6676 46.4547 88.0167C46.5228 89.9546 47.3752 90.9236 49.0116 90.9236C49.7162 90.9236 50.2787 90.7671 50.6992 90.4542C51.131 90.1412 51.4321 89.6116 51.6026 88.8653C51.6367 88.6968 51.6878 88.5824 51.756 88.5222C51.8356 88.462 51.9435 88.4319 52.0799 88.4319H53.6993C53.8016 88.4319 53.8868 88.4681 53.955 88.5403C54.0345 88.6125 54.0686 88.7028 54.0573 88.8111C54.0345 89.6056 53.8186 90.3218 53.4095 90.9597C53.0004 91.5856 52.4208 92.0852 51.6708 92.4583C50.9208 92.8194 50.04 93 49.0286 93Z" fill="white"/>
<path d="M55.5536 92.8194C55.4627 92.8194 55.3775 92.7833 55.2979 92.7111C55.2297 92.6389 55.1956 92.5486 55.1956 92.4403L55.2297 92.2778L59.3379 80.6319C59.4174 80.331 59.6163 80.1806 59.9345 80.1806H61.7925C62.088 80.1806 62.2869 80.331 62.3891 80.6319L66.4973 92.2778C66.5086 92.3139 66.5143 92.3681 66.5143 92.4403C66.5143 92.5486 66.4802 92.6389 66.412 92.7111C66.3439 92.7833 66.2643 92.8194 66.1734 92.8194H64.6904C64.5426 92.8194 64.429 92.7833 64.3494 92.7111C64.2699 92.6389 64.2188 92.5606 64.196 92.4764L63.3949 90.2736H58.3321L57.531 92.4764C57.4401 92.7051 57.2753 92.8194 57.0366 92.8194H55.5536ZM62.7982 88.1972L60.855 82.6181L58.9288 88.1972H62.7982Z" fill="white"/>
<path d="M72.4224 93C71.411 93 70.5417 92.8375 69.8144 92.5125C69.0871 92.1875 68.5359 91.7602 68.1609 91.2306C67.7859 90.7009 67.587 90.1292 67.5643 89.5153C67.5643 89.4069 67.5984 89.3167 67.6665 89.2444C67.7347 89.1722 67.8199 89.1361 67.9222 89.1361H69.4393C69.5757 89.1361 69.678 89.1662 69.7462 89.2264C69.8257 89.2745 69.8996 89.3588 69.9678 89.4792C70.0814 89.8884 70.3428 90.2315 70.7519 90.5083C71.161 90.7852 71.7179 90.9236 72.4224 90.9236C73.2293 90.9236 73.8373 90.7852 74.2464 90.5083C74.6555 90.2194 74.86 89.8222 74.86 89.3167C74.86 88.9796 74.7521 88.7028 74.5362 88.4861C74.3316 88.2694 74.0191 88.0829 73.5986 87.9264C73.1895 87.7699 72.5758 87.5773 71.7576 87.3486C70.4167 87.0116 69.4337 86.5662 68.8086 86.0125C68.195 85.4468 67.8881 84.6463 67.8881 83.6111C67.8881 82.913 68.0643 82.2931 68.4166 81.7514C68.7802 81.2097 69.2973 80.7824 69.9678 80.4694C70.6496 80.1565 71.4394 80 72.3372 80C73.2691 80 74.0759 80.1745 74.7578 80.5236C75.4396 80.8727 75.9567 81.312 76.309 81.8417C76.6726 82.3593 76.8658 82.8769 76.8885 83.3944C76.8885 83.5028 76.8544 83.5931 76.7863 83.6653C76.7181 83.7375 76.6328 83.7736 76.5306 83.7736H74.9453C74.7066 83.7736 74.5418 83.6593 74.4509 83.4306C74.3827 83.0454 74.1555 82.7264 73.7691 82.4736C73.3827 82.2088 72.9054 82.0764 72.3372 82.0764C71.7008 82.0764 71.2008 82.2028 70.8371 82.4556C70.4735 82.7083 70.2917 83.0755 70.2917 83.5569C70.2917 83.894 70.3826 84.1708 70.5644 84.3875C70.7462 84.6042 71.0303 84.7968 71.4167 84.9653C71.8144 85.1338 72.3827 85.3204 73.1213 85.525C74.1214 85.7657 74.9169 86.0366 75.5078 86.3375C76.1101 86.6384 76.5533 87.0176 76.8374 87.475C77.1215 87.9324 77.2636 88.5162 77.2636 89.2264C77.2636 89.9968 77.059 90.6708 76.6499 91.2486C76.2521 91.8144 75.6839 92.2477 74.9453 92.5486C74.218 92.8495 73.377 93 72.4224 93Z" fill="white"/>
<path d="M79.9671 92.8194C79.8535 92.8194 79.7569 92.7773 79.6773 92.6931C79.5978 92.6088 79.558 92.5065 79.558 92.3861V80.6139C79.558 80.4815 79.5978 80.3792 79.6773 80.3069C79.7569 80.2227 79.8535 80.1806 79.9671 80.1806H81.5695C81.6945 80.1806 81.7911 80.2227 81.8592 80.3069C81.9388 80.3792 81.9786 80.4815 81.9786 80.6139V92.3861C81.9786 92.5065 81.9388 92.6088 81.8592 92.6931C81.7911 92.7773 81.6945 92.8194 81.5695 92.8194H79.9671Z" fill="white"/>
<path d="M85.4019 92.8194C85.2883 92.8194 85.1917 92.7773 85.1121 92.6931C85.0326 92.6088 84.9928 92.5065 84.9928 92.3861V80.6319C84.9928 80.4995 85.0269 80.3912 85.0951 80.3069C85.1746 80.2227 85.2769 80.1806 85.4019 80.1806H86.7145C86.8509 80.1806 86.9531 80.2106 87.0213 80.2708C87.0895 80.319 87.152 80.3852 87.2088 80.4694L92.1181 88.5583V80.6319C92.1181 80.4995 92.1522 80.3912 92.2204 80.3069C92.3 80.2227 92.4022 80.1806 92.5272 80.1806H93.9591C94.0841 80.1806 94.1864 80.2227 94.266 80.3069C94.3455 80.3912 94.3853 80.4995 94.3853 80.6319V92.3681C94.3853 92.5005 94.3455 92.6088 94.266 92.6931C94.1864 92.7773 94.0898 92.8194 93.9762 92.8194H92.6466C92.4534 92.8194 92.2886 92.7231 92.1522 92.5306L87.26 84.6222V92.3861C87.26 92.5185 87.2202 92.6269 87.1406 92.7111C87.0611 92.7833 86.9588 92.8194 86.8338 92.8194H85.4019Z" fill="white"/>
<path d="M101.971 93C100.426 93 99.2212 92.5847 98.3576 91.7542C97.4939 90.9236 97.0393 89.6898 96.9939 88.0528C96.9825 87.7037 96.9768 87.1921 96.9768 86.5181C96.9768 85.8319 96.9825 85.3144 96.9939 84.9653C97.0393 83.3644 97.5053 82.1366 98.3917 81.2819C99.2781 80.4273 100.471 80 101.971 80C103.471 80 104.665 80.4273 105.551 81.2819C106.449 82.1366 106.92 83.3644 106.966 84.9653C106.989 85.6634 107 86.181 107 86.5181C107 86.8431 106.989 87.3546 106.966 88.0528C106.909 89.6898 106.449 90.9236 105.585 91.7542C104.721 92.5847 103.517 93 101.971 93ZM101.971 90.9236C102.733 90.9236 103.341 90.6829 103.795 90.2014C104.25 89.7079 104.494 88.9616 104.528 87.9625C104.551 87.2403 104.562 86.7528 104.562 86.5C104.562 86.2231 104.551 85.7356 104.528 85.0375C104.494 84.0384 104.25 83.2981 103.795 82.8167C103.341 82.3231 102.733 82.0764 101.971 82.0764C101.221 82.0764 100.619 82.3231 100.164 82.8167C99.7099 83.2981 99.4656 84.0384 99.4315 85.0375C99.4201 85.3866 99.4144 85.8741 99.4144 86.5C99.4144 87.1139 99.4201 87.6014 99.4315 87.9625C99.4656 88.9616 99.7042 89.7079 100.147 90.2014C100.602 90.6829 101.21 90.9236 101.971 90.9236Z" fill="white"/>
<rect x="0.441177" y="0.441177" width="149.118" height="149.118" rx="74.5588" stroke="#828FA1" stroke-width="0.882353"/>
</svg>
