<svg width="63" height="34" viewBox="0 0 63 34" fill="none" xmlns="http://www.w3.org/2000/svg">
<path d="M3.11586 2.56445L0 5.64132L6.23171 11.2822C6.23171 10.3948 6.57788 9.67971 7.09719 9.1669C7.69528 8.57629 8.38629 8.20538 8.82826 8.20538L3.11586 2.56445Z" fill="white"/>
<path d="M8.75492 0.457031L4.05273 2.00537L8.75492 6.64794V0.457031Z" fill="white"/>
<path d="M11.127 11.1328C11.127 10.162 10.3298 9.375 9.34668 9.375C8.36351 9.375 7.56641 10.162 7.56641 11.1328C7.56641 11.8971 8.0634 12.5408 8.75326 12.783V15.1126C8.28439 15.3799 7.56641 15.9088 7.56641 16.6406C7.56641 17.3896 8.46983 18.7459 8.85819 19.3016V19.3016C9.09556 19.6408 9.5978 19.6408 9.83517 19.3016V19.3016C10.2235 18.7461 11.127 17.3896 11.127 16.6407C11.127 15.9088 10.409 15.3799 9.94011 15.1126V12.783C10.63 12.5408 11.127 11.8971 11.127 11.1328Z" fill="white"/>
<path d="M20.1287 11.1103L20.1281 11.1097C20.1137 11.0817 18.5529 8.32142 15.6756 6.6575C13.791 5.56683 11.1725 4.87781 9.93945 4.75971V6.30634C9.93948 6.33038 9.95819 6.32842 10.1879 6.40116C11.3128 6.75729 14.5954 7.75366 16.7323 9.86359C17.0446 10.172 17.3301 10.4912 17.5959 10.8136C18.6529 11.0389 19.5027 11.094 19.8802 11.1064L20.1287 11.1103Z" fill="white"/>
<path d="M21.005 6.55182C20.8816 6.42594 19.5165 5.00072 17.4465 3.88964C16.2488 3.24678 13.3697 2.86263 12.7151 2.77856C11.966 2.68236 10.645 2.64058 9.93945 2.64063V4.15442C11.2713 4.26947 14.1732 4.64696 16.3157 5.88686C16.8943 6.22163 17.4195 6.59469 17.8955 6.98104C19.3228 6.9496 20.4462 6.70196 20.8602 6.5953L21.005 6.55182Z" fill="white"/>
<path d="M21.2907 1.75609C21.1244 1.65645 18.6294 0 14.0934 0C12.515 0 11.2365 0 9.93945 0.198321V2.05652C10.51 1.97886 11.1744 1.91859 11.9231 1.91859C13.0556 1.91859 14.7791 2.05195 15.798 2.31515C16.5629 2.51214 17.2996 2.78236 17.9417 3.07716C19.6389 2.63955 20.8645 1.99961 21.1765 1.82536L21.2907 1.75609Z" fill="white"/>
<path d="M15.8536 10.9321C13.9517 9.05427 11.0089 7.57085 9.93945 7.22266V8.26266C11.2921 8.53487 12.3132 9.71831 12.3132 11.1329C12.3132 11.6493 12.1656 12.1276 11.927 12.5493C12.1693 12.8431 12.4184 13.1365 12.7032 13.4177C15.2141 15.8975 19.1153 16.6998 19.2502 16.7323C19.2137 16.5847 18.3594 13.4063 15.8536 10.9321Z" fill="white"/>
<path d="M24.4361 18.8064C24.315 18.8064 24.212 18.7611 24.1272 18.6703C24.0424 18.5796 24 18.4694 24 18.3398V5.68142C24 5.53883 24.0363 5.42216 24.109 5.33142C24.1938 5.24068 24.3028 5.19531 24.4361 5.19531H28.8696C32.431 5.19531 34.248 6.95828 34.3207 10.4842C34.3449 11.2361 34.357 11.7416 34.357 12.0009C34.357 12.2472 34.3449 12.7462 34.3207 13.4981C34.2722 15.3129 33.818 16.6546 32.9579 17.5231C32.0979 18.3786 30.7654 18.8064 28.9605 18.8064H24.4361ZM28.8696 16.5703C29.8872 16.5703 30.62 16.3305 31.0682 15.8509C31.5164 15.3583 31.7526 14.5546 31.7769 13.4398C31.8011 12.662 31.8132 12.1759 31.8132 11.9814C31.8132 11.774 31.8011 11.2944 31.7769 10.5425C31.7526 9.47957 31.4982 8.69531 31.0137 8.18976C30.5413 7.6842 29.7963 7.43142 28.7788 7.43142H26.5257V16.5703H28.8696Z" fill="white"/>
<path d="M42.2088 19.0009C40.5735 19.0009 39.3016 18.5536 38.3931 17.6592C37.4846 16.7648 37.0303 15.4101 37.0303 13.5953V5.68142C37.0303 5.53883 37.0667 5.42216 37.1393 5.33142C37.2241 5.24068 37.3332 5.19531 37.4664 5.19531H39.1199C39.2531 5.19531 39.3561 5.24068 39.4288 5.33142C39.5136 5.42216 39.556 5.53883 39.556 5.68142V13.5953C39.556 14.6323 39.7861 15.4166 40.2464 15.9481C40.7068 16.4666 41.3609 16.7259 42.2088 16.7259C43.0568 16.7259 43.7048 16.4666 44.153 15.9481C44.6134 15.4166 44.8435 14.6323 44.8435 13.5953V5.68142C44.8435 5.53883 44.8859 5.42216 44.9707 5.33142C45.0555 5.24068 45.1645 5.19531 45.2978 5.19531H46.9331C47.0663 5.19531 47.1693 5.24068 47.242 5.33142C47.3268 5.42216 47.3692 5.53883 47.3692 5.68142V13.5953C47.3692 15.4101 46.9149 16.7648 46.0064 17.6592C45.11 18.5536 43.8441 19.0009 42.2088 19.0009Z" fill="white"/>
<path d="M49.6942 18.8064C49.5852 18.8064 49.4944 18.7675 49.4217 18.6898C49.349 18.612 49.3127 18.5148 49.3127 18.3981C49.3127 18.3203 49.3308 18.2425 49.3672 18.1648L53.4373 11.8648L49.6216 5.83698C49.5852 5.77216 49.5671 5.69439 49.5671 5.60365C49.5671 5.48698 49.6034 5.38976 49.6761 5.31198C49.7488 5.2342 49.8396 5.19531 49.9486 5.19531H51.802C52.02 5.19531 52.2078 5.31846 52.3653 5.56476L55.0363 9.76476L57.7255 5.56476C57.883 5.31846 58.0707 5.19531 58.2888 5.19531H60.0513C60.1603 5.19531 60.2511 5.2342 60.3238 5.31198C60.3965 5.38976 60.4328 5.48698 60.4328 5.60365C60.4328 5.69439 60.4086 5.77216 60.3602 5.83698L56.5626 11.8648L60.6327 18.1648C60.6812 18.2685 60.7054 18.3462 60.7054 18.3981C60.7054 18.5148 60.663 18.612 60.5782 18.6898C60.5055 18.7675 60.4207 18.8064 60.3238 18.8064H58.3978C58.1676 18.8064 57.9859 18.6898 57.8527 18.4564L54.9454 14.062L52.0927 18.4564C51.9352 18.6898 51.7475 18.8064 51.5294 18.8064H49.6942Z" fill="white"/>
<path d="M5.02863 34C3.46038 34 2.24442 33.5727 1.38075 32.7181C0.528435 31.8634 0.0738698 30.6597 0.017049 29.1069C0.00568491 28.7819 0 28.2523 0 27.5181C0 26.7718 0.00568491 26.2301 0.017049 25.8931C0.0738698 24.3523 0.534113 23.1546 1.39779 22.3C2.27283 21.4333 3.48311 21 5.02863 21C6.04004 21 6.92077 21.1866 7.6708 21.5597C8.42083 21.9208 9.0004 22.4204 9.40951 23.0583C9.81862 23.6843 10.0345 24.3944 10.0573 25.1889V25.225C10.0573 25.3213 10.0175 25.4056 9.93794 25.4778C9.86976 25.538 9.79021 25.5681 9.6993 25.5681H8.0799C7.94353 25.5681 7.84126 25.538 7.77307 25.4778C7.70489 25.4176 7.64807 25.3032 7.60261 25.1347C7.42078 24.3764 7.11963 23.8468 6.69916 23.5458C6.27869 23.2329 5.71617 23.0764 5.01159 23.0764C3.37515 23.0764 2.52284 24.0454 2.45466 25.9833C2.44329 26.3083 2.43761 26.8079 2.43761 27.4819C2.43761 28.156 2.44329 28.6676 2.45466 29.0167C2.52284 30.9546 3.37515 31.9236 5.01159 31.9236C5.71617 31.9236 6.27869 31.7671 6.69916 31.4542C7.131 31.1412 7.43215 30.6116 7.60261 29.8653C7.6367 29.6968 7.68785 29.5824 7.75603 29.5222C7.83558 29.462 7.94353 29.4319 8.0799 29.4319H9.6993C9.80157 29.4319 9.8868 29.4681 9.95499 29.5403C10.0345 29.6125 10.0686 29.7028 10.0573 29.8111C10.0345 30.6056 9.81862 31.3218 9.40951 31.9597C9.0004 32.5856 8.42083 33.0852 7.6708 33.4583C6.92077 33.8194 6.04004 34 5.02863 34Z" fill="white"/>
<path d="M11.5536 33.8194C11.4627 33.8194 11.3775 33.7833 11.2979 33.7111C11.2297 33.6389 11.1956 33.5486 11.1956 33.4403L11.2297 33.2778L15.3379 21.6319C15.4174 21.331 15.6163 21.1806 15.9345 21.1806H17.7925C18.088 21.1806 18.2869 21.331 18.3891 21.6319L22.4973 33.2778C22.5086 33.3139 22.5143 33.3681 22.5143 33.4403C22.5143 33.5486 22.4802 33.6389 22.412 33.7111C22.3439 33.7833 22.2643 33.8194 22.1734 33.8194H20.6904C20.5426 33.8194 20.429 33.7833 20.3494 33.7111C20.2699 33.6389 20.2188 33.5606 20.196 33.4764L19.3949 31.2736H14.3321L13.531 33.4764C13.4401 33.7051 13.2753 33.8194 13.0366 33.8194H11.5536ZM18.7982 29.1972L16.855 23.6181L14.9288 29.1972H18.7982Z" fill="white"/>
<path d="M28.4224 34C27.411 34 26.5417 33.8375 25.8144 33.5125C25.0871 33.1875 24.5359 32.7602 24.1609 32.2306C23.7859 31.7009 23.587 31.1292 23.5643 30.5153C23.5643 30.4069 23.5984 30.3167 23.6665 30.2444C23.7347 30.1722 23.8199 30.1361 23.9222 30.1361H25.4393C25.5757 30.1361 25.678 30.1662 25.7462 30.2264C25.8257 30.2745 25.8996 30.3588 25.9678 30.4792C26.0814 30.8884 26.3428 31.2315 26.7519 31.5083C27.161 31.7852 27.7179 31.9236 28.4224 31.9236C29.2293 31.9236 29.8373 31.7852 30.2464 31.5083C30.6555 31.2194 30.86 30.8222 30.86 30.3167C30.86 29.9796 30.7521 29.7028 30.5362 29.4861C30.3316 29.2694 30.0191 29.0829 29.5986 28.9264C29.1895 28.7699 28.5758 28.5773 27.7576 28.3486C26.4167 28.0116 25.4337 27.5662 24.8086 27.0125C24.195 26.4468 23.8881 25.6463 23.8881 24.6111C23.8881 23.913 24.0643 23.2931 24.4166 22.7514C24.7802 22.2097 25.2973 21.7824 25.9678 21.4694C26.6496 21.1565 27.4394 21 28.3372 21C29.2691 21 30.0759 21.1745 30.7578 21.5236C31.4396 21.8727 31.9567 22.312 32.309 22.8417C32.6726 23.3593 32.8658 23.8769 32.8885 24.3944C32.8885 24.5028 32.8544 24.5931 32.7863 24.6653C32.7181 24.7375 32.6328 24.7736 32.5306 24.7736H30.9453C30.7066 24.7736 30.5418 24.6593 30.4509 24.4306C30.3827 24.0454 30.1555 23.7264 29.7691 23.4736C29.3827 23.2088 28.9054 23.0764 28.3372 23.0764C27.7008 23.0764 27.2008 23.2028 26.8371 23.4556C26.4735 23.7083 26.2917 24.0755 26.2917 24.5569C26.2917 24.894 26.3826 25.1708 26.5644 25.3875C26.7462 25.6042 27.0303 25.7968 27.4167 25.9653C27.8144 26.1338 28.3827 26.3204 29.1213 26.525C30.1214 26.7657 30.9169 27.0366 31.5078 27.3375C32.1101 27.6384 32.5533 28.0176 32.8374 28.475C33.1215 28.9324 33.2636 29.5162 33.2636 30.2264C33.2636 30.9968 33.059 31.6708 32.6499 32.2486C32.2521 32.8144 31.6839 33.2477 30.9453 33.5486C30.218 33.8495 29.377 34 28.4224 34Z" fill="white"/>
<path d="M35.9671 33.8194C35.8535 33.8194 35.7569 33.7773 35.6773 33.6931C35.5978 33.6088 35.558 33.5065 35.558 33.3861V21.6139C35.558 21.4815 35.5978 21.3792 35.6773 21.3069C35.7569 21.2227 35.8535 21.1806 35.9671 21.1806H37.5695C37.6945 21.1806 37.7911 21.2227 37.8592 21.3069C37.9388 21.3792 37.9786 21.4815 37.9786 21.6139V33.3861C37.9786 33.5065 37.9388 33.6088 37.8592 33.6931C37.7911 33.7773 37.6945 33.8194 37.5695 33.8194H35.9671Z" fill="white"/>
<path d="M41.4019 33.8194C41.2883 33.8194 41.1917 33.7773 41.1121 33.6931C41.0326 33.6088 40.9928 33.5065 40.9928 33.3861V21.6319C40.9928 21.4995 41.0269 21.3912 41.0951 21.3069C41.1746 21.2227 41.2769 21.1806 41.4019 21.1806H42.7145C42.8509 21.1806 42.9531 21.2106 43.0213 21.2708C43.0895 21.319 43.152 21.3852 43.2088 21.4694L48.1181 29.5583V21.6319C48.1181 21.4995 48.1522 21.3912 48.2204 21.3069C48.3 21.2227 48.4022 21.1806 48.5272 21.1806H49.9591C50.0841 21.1806 50.1864 21.2227 50.266 21.3069C50.3455 21.3912 50.3853 21.4995 50.3853 21.6319V33.3681C50.3853 33.5005 50.3455 33.6088 50.266 33.6931C50.1864 33.7773 50.0898 33.8194 49.9762 33.8194H48.6466C48.4534 33.8194 48.2886 33.7231 48.1522 33.5306L43.26 25.6222V33.3861C43.26 33.5185 43.2202 33.6269 43.1406 33.7111C43.0611 33.7833 42.9588 33.8194 42.8338 33.8194H41.4019Z" fill="white"/>
<path d="M57.9714 34C56.4258 34 55.2212 33.5847 54.3576 32.7542C53.4939 31.9236 53.0393 30.6898 52.9939 29.0528C52.9825 28.7037 52.9768 28.1921 52.9768 27.5181C52.9768 26.8319 52.9825 26.3144 52.9939 25.9653C53.0393 24.3644 53.5053 23.1366 54.3917 22.2819C55.2781 21.4273 56.4713 21 57.9714 21C59.4714 21 60.6647 21.4273 61.5511 22.2819C62.4488 23.1366 62.9205 24.3644 62.9659 25.9653C62.9886 26.6634 63 27.181 63 27.5181C63 27.8431 62.9886 28.3546 62.9659 29.0528C62.9091 30.6898 62.4488 31.9236 61.5852 32.7542C60.7215 33.5847 59.5169 34 57.9714 34ZM57.9714 31.9236C58.7328 31.9236 59.3408 31.6829 59.7953 31.2014C60.2499 30.7079 60.4942 29.9616 60.5283 28.9625C60.551 28.2403 60.5624 27.7528 60.5624 27.5C60.5624 27.2231 60.551 26.7356 60.5283 26.0375C60.4942 25.0384 60.2499 24.2981 59.7953 23.8167C59.3408 23.3231 58.7328 23.0764 57.9714 23.0764C57.2213 23.0764 56.6191 23.3231 56.1645 23.8167C55.7099 24.2981 55.4656 25.0384 55.4315 26.0375C55.4201 26.3866 55.4144 26.8741 55.4144 27.5C55.4144 28.1139 55.4201 28.6014 55.4315 28.9625C55.4656 29.9616 55.7042 30.7079 56.1474 31.2014C56.602 31.6829 57.21 31.9236 57.9714 31.9236Z" fill="white"/>
</svg>
