<svg width="151" height="150" viewBox="0 0 151 150" fill="none" xmlns="http://www.w3.org/2000/svg">
<path d="M58.3408 74C61.1839 74 63.4159 72.7699 65.0135 70.9V64.6019H57.5421V67.6527H61.6772V69.6208C61.0429 70.2357 59.727 70.8754 58.3408 70.8754C55.4979 70.8754 53.4304 68.5874 53.4304 65.4877C53.4304 62.3877 55.4979 60.0998 58.3408 60.0998C60.0091 60.0998 61.3483 61.0838 62.0531 62.2401L64.8257 60.6657C63.6509 58.7222 61.6068 57 58.3408 57C53.7593 57 50 60.2967 50 65.4877C50 70.654 53.7593 74 58.3408 74ZM72.9314 73.9753C74.6936 73.9753 76.4793 73.4094 77.607 72.3269L76.2913 70.3097C75.563 71.0478 74.2237 71.4906 73.2604 71.4906C71.3338 71.4906 70.1826 70.2357 69.9946 68.7352H78.4295V68.0462C78.4295 64.1591 76.1269 61.5021 72.7436 61.5021C69.2896 61.5021 66.8696 64.2822 66.8696 67.7265C66.8696 71.5398 69.4776 73.9753 72.9314 73.9753V73.9753ZM75.5394 66.6193H69.9476C70.0885 65.4385 70.8875 63.987 72.7436 63.987C74.7173 63.987 75.4689 65.4877 75.5394 66.6193V66.6193ZM84.3972 73.9753C85.6425 73.9753 86.4414 73.6308 86.8877 73.2125L86.2534 70.8509C86.089 71.023 85.6659 71.1954 85.2196 71.1954C84.5616 71.1954 84.1858 70.6295 84.1858 69.8915V64.5281H86.4884V61.7973H84.1858V58.5498H81.1783V61.7973H79.2987V64.5281H81.1783V70.7278C81.1783 72.8437 82.306 73.9753 84.3972 73.9753V73.9753Z" fill="#EDD938"/>
<path d="M56.6256 93.9507C60.8547 93.9507 62.8989 91.6874 62.8989 88.6859C62.8989 82.56 53.9001 84.3069 53.9001 81.6989C53.9001 80.715 54.699 80.0506 56.1321 80.0506C57.7299 80.0506 59.4217 80.6165 60.6903 81.8467L62.5465 79.288C60.9957 77.7873 58.9281 77 56.4376 77C52.7488 77 50.4934 79.2635 50.4934 81.9941C50.4934 88.1693 59.5156 86.1765 59.5156 89.0797C59.5156 90.0145 58.6227 90.9001 56.79 90.9001C54.6285 90.9001 52.9134 89.8915 51.8091 88.6859L50 91.343C51.4567 92.893 53.6182 93.9507 56.6256 93.9507V93.9507ZM68.0678 93.6555V77.2459H65.084V93.6555H68.0678ZM76.2911 93.9507C80.0504 93.9507 82.306 91.097 82.306 87.702C82.306 84.3314 80.0504 81.4775 76.2911 81.4775C72.5554 81.4775 70.2998 84.3314 70.2998 87.702C70.2998 91.097 72.5554 93.9507 76.2911 93.9507V93.9507ZM76.2911 91.1708C74.4352 91.1708 73.4014 89.5715 73.4014 87.702C73.4014 85.8567 74.4352 84.2576 76.2911 84.2576C78.1474 84.2576 79.2046 85.8567 79.2046 87.702C79.2046 89.5715 78.1474 91.1708 76.2911 91.1708ZM88.3209 93.9507C89.566 93.9507 90.3649 93.6063 90.8112 93.188L90.1769 90.8263C90.0125 90.9985 89.5896 91.1708 89.1431 91.1708C88.4853 91.1708 88.1095 90.6049 88.1095 89.8669V84.5036H90.412V81.7727H88.1095V78.5253H85.102V81.7727H83.2223V84.5036H85.102V90.7033C85.102 92.8192 86.2297 93.9507 88.3209 93.9507V93.9507ZM96.5442 93.9507C99.6926 93.9507 101.455 92.3024 101.455 90.1374C101.455 85.3401 94.7351 86.8162 94.7351 85.0449C94.7351 84.3807 95.44 83.8639 96.5206 83.8639C97.9068 83.8639 99.1991 84.479 99.8805 85.2416L101.079 83.1014C99.951 82.1665 98.4238 81.4775 96.4972 81.4775C93.5133 81.4775 91.845 83.2242 91.845 85.2171C91.845 89.8915 98.5884 88.2924 98.5884 90.2605C98.5884 90.9985 97.9775 91.5398 96.6852 91.5398C95.2754 91.5398 93.5838 90.7278 92.7615 89.916L91.4692 92.1055C92.6676 93.2618 94.5706 93.9507 96.5442 93.9507V93.9507Z" fill="#FEFEFE"/>
<rect x="0.941177" y="0.441177" width="149.118" height="149.118" rx="74.5588" stroke="#828FA1" stroke-width="0.882353"/>
</svg>
