<svg width="52" height="37" viewBox="0 0 52 37" fill="none" xmlns="http://www.w3.org/2000/svg">
<path d="M8.34081 17C11.1839 17 13.4159 15.7699 15.0135 13.9V7.60192H7.54208V10.6527H11.6772V12.6208C11.0429 13.2357 9.72701 13.8754 8.34081 13.8754C5.49793 13.8754 3.43035 11.5874 3.43035 8.48773C3.43035 5.38768 5.49793 3.09985 8.34081 3.09985C10.0091 3.09985 11.3483 4.0838 12.0531 5.24008L14.8257 3.66572C13.6509 1.72216 11.6068 0 8.34081 0C3.75933 0 0 3.29672 0 8.48773C0 13.654 3.75933 17 8.34081 17ZM22.9314 16.9753C24.6936 16.9753 26.4793 16.4094 27.607 15.3269L26.2913 13.3097C25.563 14.0478 24.2237 14.4906 23.2604 14.4906C21.3338 14.4906 20.1826 13.2357 19.9946 11.7352H28.4295V11.0462C28.4295 7.15911 26.1269 4.50207 22.7436 4.50207C19.2896 4.50207 16.8696 7.28218 16.8696 10.7265C16.8696 14.5398 19.4776 16.9753 22.9314 16.9753ZM25.5394 9.61928H19.9476C20.0885 8.43847 20.8875 6.98698 22.7436 6.98698C24.7173 6.98698 25.4689 8.48773 25.5394 9.61928ZM34.3972 16.9753C35.6425 16.9753 36.4414 16.6308 36.8877 16.2125L36.2534 13.8509C36.089 14.023 35.6659 14.1954 35.2196 14.1954C34.5616 14.1954 34.1858 13.6295 34.1858 12.8915V7.52812H36.4884V4.79727H34.1858V1.54982H31.1783V4.79727H29.2987V7.52812H31.1783V13.7278C31.1783 15.8437 32.306 16.9753 34.3972 16.9753Z" fill="#EDD938"/>
<path d="M6.62564 36.9507C10.8547 36.9507 12.8989 34.6874 12.8989 31.6859C12.8989 25.56 3.9001 27.3069 3.9001 24.6989C3.9001 23.715 4.69901 23.0506 6.13207 23.0506C7.72991 23.0506 9.42165 23.6165 10.6903 24.8467L12.5465 22.288C10.9957 20.7873 8.92809 20 6.43762 20C2.74878 20 0.493371 22.2635 0.493371 24.9941C0.493371 31.1693 9.51557 29.1765 9.51557 32.0797C9.51557 33.0145 8.62274 33.9001 6.79003 33.9001C4.62853 33.9001 2.91336 32.8915 1.80909 31.6859L0 34.343C1.45668 35.893 3.61818 36.9507 6.62564 36.9507ZM18.0678 36.6555V20.2459H15.084V36.6555H18.0678ZM26.2911 36.9507C30.0504 36.9507 32.306 34.097 32.306 30.702C32.306 27.3314 30.0504 24.4775 26.2911 24.4775C22.5554 24.4775 20.2998 27.3314 20.2998 30.702C20.2998 34.097 22.5554 36.9507 26.2911 36.9507ZM26.2911 34.1708C24.4352 34.1708 23.4014 32.5715 23.4014 30.702C23.4014 28.8567 24.4352 27.2576 26.2911 27.2576C28.1474 27.2576 29.2046 28.8567 29.2046 30.702C29.2046 32.5715 28.1474 34.1708 26.2911 34.1708ZM38.3209 36.9507C39.566 36.9507 40.3649 36.6063 40.8112 36.188L40.1769 33.8264C40.0125 33.9985 39.5896 34.1708 39.1431 34.1708C38.4853 34.1708 38.1095 33.6049 38.1095 32.8669V27.5036H40.412V24.7727H38.1095V21.5253H35.102V24.7727H33.2223V27.5036H35.102V33.7033C35.102 35.8192 36.2297 36.9507 38.3209 36.9507ZM46.5442 36.9507C49.6926 36.9507 51.4547 35.3024 51.4547 33.1374C51.4547 28.3401 44.7351 29.8162 44.7351 28.0449C44.7351 27.3807 45.44 26.8639 46.5206 26.8639C47.9068 26.8639 49.1991 27.4791 49.8805 28.2416L51.0787 26.1014C49.951 25.1665 48.4238 24.4775 46.4972 24.4775C43.5133 24.4775 41.845 26.2242 41.845 28.2171C41.845 32.8915 48.5884 31.2924 48.5884 33.2605C48.5884 33.9985 47.9775 34.5398 46.6852 34.5398C45.2754 34.5398 43.5838 33.7278 42.7615 32.916L41.4692 35.1055C42.6675 36.2618 44.5706 36.9507 46.5442 36.9507Z" fill="#FEFEFE"/>
</svg>
