<svg width="37" height="22" viewBox="0 0 37 22" fill="none" xmlns="http://www.w3.org/2000/svg">
<path d="M0 17.8727C0 15.9771 1.44244 14.6318 3.39278 14.6318C4.46952 14.6318 5.38374 15.0191 5.97291 15.7529L5.03837 16.609C4.61174 16.1198 4.08352 15.8752 3.47404 15.8752C2.29571 15.8752 1.46275 16.6905 1.46275 17.8931C1.46275 19.0957 2.29571 19.911 3.47404 19.911C4.10384 19.911 4.63205 19.6664 5.03837 19.1568L5.97291 20.0129C5.38374 20.7467 4.48984 21.1339 3.39278 21.1339C1.44244 21.1136 0 19.7479 0 17.8727Z" fill="white"/>
<path d="M10.9309 19.666H8.02575L7.47721 21.0113H5.99414L8.77744 14.7334H10.1996L13.0032 21.0113H11.4795L10.9309 19.666ZM10.484 18.545L9.4885 16.1398L8.49302 18.545H10.484Z" fill="white"/>
<path d="M13.1641 20.3796L13.6516 19.279C14.1799 19.6662 14.9722 19.9312 15.7239 19.9312C16.5772 19.9312 16.9225 19.6459 16.9225 19.2586C16.9225 18.0764 13.286 18.8917 13.286 16.5681C13.286 15.5082 14.1392 14.6113 15.927 14.6113C16.7194 14.6113 17.5117 14.7948 18.1009 15.1617L17.6539 16.2623C17.0647 15.9362 16.4756 15.7731 15.927 15.7731C15.0738 15.7731 14.7284 16.0993 14.7284 16.4865C14.7284 17.6484 18.365 16.8534 18.365 19.1567C18.365 20.1962 17.4914 21.093 15.7036 21.093C14.7284 21.1134 13.7126 20.8077 13.1641 20.3796Z" fill="white"/>
<path d="M19.3613 14.7334H20.8038V21.0113H19.3613V14.7334Z" fill="white"/>
<path d="M28.0365 14.7334V21.0113H26.8379L23.7092 17.1997V21.0113H22.2871V14.7334H23.4858L26.5941 18.545V14.7334H28.0365Z" fill="white"/>
<path d="M29.1328 17.8727C29.1328 15.9975 30.5752 14.6318 32.5662 14.6318C34.5369 14.6318 35.9996 15.9975 35.9996 17.8727C35.9996 19.7479 34.5369 21.1136 32.5662 21.1136C30.5752 21.1136 29.1328 19.7275 29.1328 17.8727ZM34.4962 17.8727C34.4962 16.6701 33.6633 15.8548 32.5459 15.8548C31.4285 15.8548 30.5956 16.6701 30.5956 17.8727C30.5956 19.0753 31.4285 19.8906 32.5459 19.8906C33.6633 19.8702 34.4962 19.0549 34.4962 17.8727Z" fill="white"/>
<path d="M5.73084 4.6875V10.9451H4.53607L1.41752 7.14584V10.9451H0V4.6875H1.19477L4.29307 8.48675V4.6875H5.73084Z" fill="white"/>
<path d="M7.20898 4.6875H8.64676V10.9451H7.20898V4.6875Z" fill="white"/>
<path d="M15.8356 4.6875V10.9451H14.6408L11.5425 7.14584V10.9451H10.125V4.6875H11.3198L14.4181 8.48675V4.6875H15.8356Z" fill="white"/>
<path d="M22.1543 9.78702V10.9451H17.3145V4.6875H22.0328V5.84556H18.7522V7.20679H21.648V8.32421H18.7522V9.78702H22.1543Z" fill="white"/>
<path d="M32.9122 7.19375L29.8242 4.08669C29.5903 3.85131 29.1926 3.85131 28.9353 4.08669L25.8473 7.19375C25.6134 7.42914 25.6134 7.82929 25.8473 8.08821L28.9353 11.1953C29.1692 11.4307 29.5669 11.4307 29.8242 11.1953L32.9122 8.08821C33.1461 7.82929 33.1461 7.42914 32.9122 7.19375ZM27.9995 8.25298C27.8124 8.44129 27.5317 8.44129 27.3445 8.25298C27.1574 8.06467 27.1574 7.78221 27.3445 7.59391C27.5317 7.4056 27.8124 7.4056 27.9995 7.59391C28.1867 7.78221 28.1867 8.06467 27.9995 8.25298ZM28.327 7.26437C28.1399 7.07606 28.1399 6.7936 28.327 6.6053C28.5142 6.41699 28.7949 6.41699 28.9821 6.6053C29.1692 6.7936 29.1692 7.07606 28.9821 7.26437C28.7949 7.45268 28.5142 7.45268 28.327 7.26437ZM29.4499 9.71235C29.2628 9.90066 28.9821 9.90066 28.7949 9.71235C28.6078 9.52405 28.6078 9.24159 28.7949 9.05328C28.9821 8.86497 29.2628 8.86497 29.4499 9.05328C29.6371 9.24159 29.6371 9.52405 29.4499 9.71235ZM29.2862 6.2993C29.099 6.11099 29.099 5.82853 29.2862 5.64022C29.4733 5.45192 29.754 5.45192 29.9412 5.64022C30.1283 5.82853 30.1283 6.11099 29.9412 6.2993C29.754 6.46407 29.4733 6.46407 29.2862 6.2993ZM30.4325 8.72375C30.2453 8.91205 29.9646 8.91205 29.7774 8.72375C29.5903 8.53544 29.5903 8.25298 29.7774 8.06467C29.9646 7.87637 30.2453 7.87637 30.4325 8.06467C30.5962 8.25298 30.5962 8.55898 30.4325 8.72375ZM31.3916 7.75867C31.2044 7.94698 30.9237 7.94698 30.7366 7.75867C30.5494 7.57037 30.5494 7.28791 30.7366 7.0996C30.9237 6.91129 31.2044 6.91129 31.3916 7.0996C31.5787 7.28791 31.5787 7.57037 31.3916 7.75867Z" fill="#E45809"/>
<path d="M35.6957 0.626953H31.3211C30.9702 0.626953 30.6895 0.909413 30.6895 1.26249V4.06355L32.9118 6.29969H35.6957C36.0466 6.29969 36.3273 6.01723 36.3273 5.66416V1.26249C36.3273 0.909413 36.0466 0.626953 35.6957 0.626953ZM32.8183 2.7454C32.6311 2.93371 32.3504 2.93371 32.1632 2.7454C31.9761 2.5571 31.9761 2.27464 32.1632 2.08633C32.3504 1.89802 32.6311 1.89802 32.8183 2.08633C33.0054 2.27464 32.982 2.58064 32.8183 2.7454ZM33.7774 3.73401C33.5902 3.92232 33.3095 3.92232 33.1224 3.73401C32.9352 3.54571 32.9352 3.26325 33.1224 3.07494C33.3095 2.88663 33.5902 2.88663 33.7774 3.07494C33.9645 3.26325 33.9645 3.54571 33.7774 3.73401ZM34.7365 4.69909C34.5494 4.88739 34.2687 4.88739 34.0815 4.69909C33.8944 4.51078 33.8944 4.22832 34.0815 4.04001C34.2687 3.85171 34.5494 3.85171 34.7365 4.04001C34.9237 4.22832 34.9237 4.51078 34.7365 4.69909Z" fill="#E45809"/>
</svg>
