<svg width="150" height="150" viewBox="0 0 150 150" fill="none" xmlns="http://www.w3.org/2000/svg">
<rect x="0.441177" y="0.441177" width="149.118" height="149.118" rx="74.5588" stroke="#828FA1" stroke-width="0.882353"/>
<path d="M45 84.7886C45 81.6293 47.4441 79.3872 50.7489 79.3872C52.5734 79.3872 54.1225 80.0327 55.1208 81.2556L53.5372 82.6824C52.8143 81.8671 51.9193 81.4595 50.8866 81.4595C48.89 81.4595 47.4786 82.8183 47.4786 84.8226C47.4786 86.8269 48.89 88.1858 50.8866 88.1858C51.9537 88.1858 52.8488 87.7781 53.5372 86.9288L55.1208 88.3556C54.1225 89.5786 52.6078 90.224 50.7489 90.224C47.4441 90.1901 45 87.914 45 84.7886Z" fill="white"/>
<path d="M63.5204 87.7777H58.5977L57.6683 90.0198H55.1553L59.8714 79.5566H62.2811L67.0317 90.0198H64.4499L63.5204 87.7777ZM62.7631 85.9093L61.0763 81.9007L59.3895 85.9093H62.7631Z" fill="white"/>
<path d="M67.3071 88.9669L68.1333 87.1324C69.0283 87.7779 70.3709 88.2195 71.6446 88.2195C73.0904 88.2195 73.6756 87.7439 73.6756 87.0985C73.6756 85.1281 67.5137 86.487 67.5137 82.6143C67.5137 80.8478 68.9595 79.353 71.9888 79.353C73.3314 79.353 74.6739 79.6588 75.6723 80.2703L74.9149 82.1047C73.9166 81.5612 72.9183 81.2894 71.9888 81.2894C70.543 81.2894 69.9578 81.8329 69.9578 82.4784C69.9578 84.4147 76.1198 83.0899 76.1198 86.9286C76.1198 88.6611 74.6395 90.1559 71.6102 90.1559C69.9578 90.1899 68.2366 89.6803 67.3071 88.9669Z" fill="white"/>
<path d="M77.8066 79.5566H80.2508V90.0198H77.8066V79.5566Z" fill="white"/>
<path d="M92.5058 79.5566V90.0198H90.4747L85.1734 83.6672V90.0198H82.7637V79.5566H84.7947L90.0616 85.9093V79.5566H92.5058Z" fill="white"/>
<path d="M94.3647 84.7886C94.3647 81.6633 96.8089 79.3872 100.182 79.3872C103.522 79.3872 106 81.6633 106 84.7886C106 87.914 103.522 90.1901 100.182 90.1901C96.8089 90.1901 94.3647 87.88 94.3647 84.7886ZM103.453 84.7886C103.453 82.7843 102.041 81.4255 100.148 81.4255C98.2547 81.4255 96.8433 82.7843 96.8433 84.7886C96.8433 86.7929 98.2547 88.1518 100.148 88.1518C102.041 88.1178 103.453 86.759 103.453 84.7886Z" fill="white"/>
<path d="M54.7106 62.8125V73.2418H52.6861L47.4019 66.9097V73.2418H45V62.8125H47.0245L52.2744 69.1446V62.8125H54.7106Z" fill="white"/>
<path d="M57.2153 62.8125H59.6516V73.2418H57.2153V62.8125Z" fill="white"/>
<path d="M71.833 62.8125V73.2418H69.8086L64.5587 66.9097V73.2418H62.1567V62.8125H64.1812L69.4311 69.1446V62.8125H71.833Z" fill="white"/>
<path d="M82.5382 71.3117V73.2418H74.3374V62.8125H82.3323V64.7426H76.7736V67.0113H81.6804V68.8737H76.7736V71.3117H82.5382Z" fill="white"/>
<path d="M102.295 73.18C102.135 73.1761 101.974 73.1735 101.814 73.1634C101.372 73.1362 100.939 73.0248 100.538 72.8351C99.6531 72.4171 99.0028 71.7631 98.6077 70.8544C98.4322 70.4625 98.3308 70.0409 98.3087 69.6113C98.2748 69.0081 98.4175 68.4081 98.719 67.8863C98.7576 67.8197 98.7987 67.755 98.8429 67.6814H98.7658C98.5843 67.6854 98.4028 67.6998 98.2221 67.6911C97.8889 67.6731 97.5604 67.6034 97.2482 67.4845C96.3058 67.1321 95.6075 66.5154 95.234 65.5585C95.0546 65.0985 94.9688 64.6205 95.0234 64.1241C95.0701 63.6739 95.2087 63.2383 95.4307 62.8451C95.4476 62.8149 95.4627 62.7834 95.4809 62.7484C95.3824 62.7365 95.2834 62.7304 95.1842 62.73C95.0204 62.7383 94.8566 62.7545 94.6937 62.7759C93.8413 62.8875 93.0085 63.1194 92.2199 63.4649C91.3836 63.8262 90.6123 64.3248 89.9371 64.9404C89.2257 65.597 88.6604 66.3543 88.2847 67.2542C88.0853 67.7335 87.9574 68.2401 87.9052 68.7573C87.8744 69.0545 87.9026 69.3601 87.9234 69.6603C87.9425 69.8589 87.9742 70.056 88.0183 70.2504C88.1089 70.7442 88.2796 71.2196 88.5234 71.6572C88.5884 71.7706 88.6703 71.8761 88.7474 71.9881C88.7448 71.7903 88.724 71.6077 88.7435 71.4292C88.7869 71.0833 88.8883 70.7474 89.0433 70.436C89.2494 70.0046 89.5194 69.6076 89.844 69.2585C89.9471 69.1473 90.0645 69.0502 90.1758 68.9469C90.1735 68.9655 90.1689 68.9837 90.162 69.0011C90.0207 69.2664 89.8903 69.5365 89.821 69.8328C89.7673 70.0609 89.7045 70.2872 89.6633 70.5174C89.6394 70.6793 89.6265 70.8426 89.6248 71.0063C89.6071 71.3281 89.6227 71.6508 89.6715 71.9693C89.7192 72.2841 89.8091 72.5908 89.9389 72.8811C90.0255 73.0645 90.107 73.2501 90.2066 73.4251C90.4642 73.8754 90.8005 74.2748 91.1992 74.6039C91.5544 74.9013 91.9459 75.1513 92.3642 75.348C92.7029 75.5066 93.0557 75.6325 93.4178 75.724C93.4577 75.7341 93.4993 75.7389 93.5573 75.749C93.5378 75.7118 93.5292 75.6908 93.5166 75.6724C93.0916 75.0338 92.93 74.3155 92.9101 73.5608C92.9015 73.2846 92.9083 73.0081 92.9304 72.7327C92.9537 72.493 92.99 72.2548 93.0392 72.0192C93.1085 71.6555 93.2034 71.2987 93.3732 70.9687C93.3967 70.9281 93.4226 70.8889 93.4508 70.8514C93.4633 70.8628 93.4663 70.8645 93.4668 70.8663C93.4702 70.8789 93.4737 70.8916 93.4763 70.9043C93.631 71.7097 93.9096 72.4657 94.3675 73.1476C94.7869 73.7709 95.3146 74.2796 95.9705 74.6398C96.7144 75.0482 97.512 75.2478 98.3612 75.1996C98.6231 75.1901 98.8838 75.1598 99.141 75.109C100.304 74.856 101.328 74.3334 102.168 73.4698C102.25 73.3784 102.327 73.2829 102.399 73.1835L102.383 73.1634C102.354 73.172 102.325 73.1775 102.295 73.18V73.18ZM90.1784 68.9442L90.1854 68.9364C90.1854 68.9394 90.1854 68.9421 90.1854 68.9451L90.1784 68.9442Z" fill="#E45809"/>
<path d="M103.919 68.8578C103.782 68.8909 103.663 68.9764 103.586 69.0963C103.461 69.2754 103.308 69.4342 103.083 69.457C102.854 69.4766 102.623 69.4799 102.393 69.4666C102.136 69.4561 101.88 69.4286 101.624 69.4032C101.505 69.3914 101.387 69.369 101.268 69.3498C101.157 69.3314 101.045 69.3012 100.933 69.2942C100.888 69.2902 100.844 69.3009 100.805 69.3245C100.767 69.3481 100.737 69.3835 100.72 69.4255C100.681 69.513 100.72 69.5905 100.784 69.6514C101.093 69.9538 101.419 70.2305 101.828 70.3928C102.061 70.4824 102.269 70.6275 102.435 70.8157C102.573 70.975 102.676 71.1475 102.587 71.3746C102.562 71.4407 102.623 71.5309 102.685 71.5235C102.748 71.5183 102.81 71.5022 102.868 71.4758C103.261 71.2696 103.615 70.994 103.912 70.662C104.192 70.3596 104.302 69.9998 104.317 69.6352C104.315 69.3874 104.282 69.1821 104.189 68.9904C104.13 68.863 104.055 68.8276 103.919 68.8578Z" fill="#E45809"/>
<path d="M104.943 65.3782C104.84 65.0351 104.631 64.768 104.353 64.5575C104.18 64.4262 103.991 64.3238 103.817 64.1973C103.031 63.6265 102.315 62.9625 101.685 62.2197C101.606 62.1205 101.544 62.0081 101.503 61.8874C101.464 61.7776 101.464 61.6537 101.438 61.5373C101.367 61.2183 101.198 60.9302 100.955 60.7148C100.708 60.5024 100.434 60.3256 100.139 60.1895C100.011 60.1278 99.8792 60.0722 99.7682 60.0214C100.371 59.6078 100.405 59.1815 100.281 58.8536C99.9428 58.2334 98.8844 57.9152 98.4053 57.7996C98.1453 57.7401 97.852 57.6845 97.524 57.6385C92.0205 56.6983 89.0939 60.7857 89.0939 60.7857C87.3358 62.8272 86.9745 65.1296 87.0014 66.7789C87.0014 66.8275 87.0014 66.8765 87.0014 66.9251C87.0014 66.9422 87.0014 66.9588 87.0014 66.9759C87.0014 67.0223 87.0044 67.0687 87.0057 67.1151C87.0057 67.1405 87.0096 67.1659 87.0113 67.1917C87.033 67.7471 87.1032 68.4422 87.2973 69.0025C87.2973 68.9653 87.2973 68.929 87.2973 68.8922C87.3049 68.6039 87.3304 68.3163 87.3735 68.0312C87.444 67.6789 87.5368 67.3315 87.6512 66.9912C87.6696 66.9472 87.6852 66.902 87.698 66.856C87.774 66.6415 87.8582 66.4296 87.9506 66.2204C88.5737 64.8245 89.5273 63.6051 90.7273 62.6696C91.4065 62.1357 92.1647 61.7133 92.9741 61.4178C93.5946 61.1876 94.2452 61.0509 94.9051 61.012C95.3774 60.9899 95.8507 61.0174 96.3174 61.0943C96.499 61.1227 96.674 61.1578 96.8638 61.1131C97.2562 61.0218 97.6338 60.8744 97.985 60.6754C97.6332 60.9091 95.8279 62.2411 96.658 64.4616C97.5245 66.7785 99.8922 66.4909 100.534 66.2051C100.516 66.2738 100.501 66.3307 100.488 66.388C100.422 66.6673 100.371 66.9474 100.416 67.2376C100.443 67.4606 100.512 67.6764 100.619 67.8732C100.949 68.4396 101.474 68.6642 102.092 68.7079C102.393 68.7227 102.695 68.6867 102.986 68.6016C103.58 68.4414 104.079 68.1393 104.433 67.6171C104.527 67.4779 104.563 67.3296 104.511 67.172C104.445 66.9553 104.335 66.7547 104.189 66.5826C104.043 66.4105 103.864 66.2705 103.662 66.1714C103.498 66.0904 103.41 65.9591 103.411 65.7726C103.411 65.65 103.498 65.5752 103.617 65.5638C103.79 65.5472 103.946 65.6873 103.994 65.8575C104.032 65.9755 104.085 66.0878 104.153 66.1915C104.194 66.2485 104.246 66.2969 104.305 66.3338C104.568 66.5246 104.839 66.3727 104.93 66.1311C105.019 65.8888 105.023 65.6233 104.943 65.3782V65.3782ZM98.0491 60.6579L98.0452 60.6443L98.0569 60.6382C98.0549 60.645 98.0523 60.6516 98.0491 60.6579V60.6579ZM101.632 63.9491C101.185 63.8116 100.737 63.6736 100.289 63.535C100.172 63.4987 100.053 63.4658 99.9372 63.4238C99.9047 63.4124 99.8623 63.3765 99.8588 63.3477C99.8523 63.2921 99.9069 63.2921 99.948 63.289L101.198 63.1866C101.199 63.1882 101.199 63.1898 101.198 63.1914C101.293 63.1857 101.388 63.1783 101.483 63.1748C101.514 63.1708 101.545 63.1793 101.571 63.1985C101.596 63.2177 101.612 63.2461 101.617 63.2776C101.66 63.4641 101.704 63.6501 101.749 63.8366C101.775 63.9412 101.735 63.9806 101.632 63.9491Z" fill="#E45809"/>
<path d="M97.8741 56.7077C98.2924 56.7668 98.6665 56.8382 98.9981 56.9147C99.3919 57.0092 99.7771 57.1374 100.15 57.2979L101.863 52.3222C101.375 52.6153 100.919 52.9012 100.45 53.1544C100.122 53.3299 99.974 53.5038 100.031 53.9196C100.072 54.2612 99.9956 54.6066 99.8152 54.8976C99.6348 55.1886 99.3615 55.4073 99.0412 55.5171C98.7229 55.6443 98.3727 55.6638 98.0427 55.5726C97.7126 55.4814 97.4202 55.2843 97.2088 55.0106C97.0016 54.7397 96.8857 54.4081 96.8781 54.0648C96.8706 53.7216 96.9718 53.385 97.1668 53.1049C97.2701 52.9552 97.3928 52.8235 97.4779 52.7144C96.9374 51.7747 96.2572 50.8654 95.7565 50C95.2625 50.8699 94.5922 51.7848 94.0589 52.7279C94.1451 52.8348 94.2689 52.967 94.3728 53.1161C94.57 53.3945 94.6739 53.7302 94.6691 54.0735C94.6644 54.4167 94.5512 54.7493 94.3463 55.0219C94.1373 55.2976 93.8465 55.4973 93.5172 55.5913C93.1879 55.6854 92.8376 55.6688 92.5183 55.5441C92.1969 55.4374 91.9216 55.221 91.7389 54.9314C91.5561 54.6419 91.4771 54.297 91.5153 53.9551C91.5706 53.5387 91.4197 53.3665 91.0909 53.1932C90.6162 52.9445 90.1587 52.662 89.668 52.3728L91.2589 56.3549C91.2589 56.3549 91.2672 56.3746 91.2832 56.405L91.4335 56.7803L91.6457 57.3142H91.7187C93.3549 56.6542 95.4123 56.2834 97.8741 56.7077Z" fill="#E45809"/>
</svg>
