<svg width="61" height="41" viewBox="0 0 61 41" fill="none" xmlns="http://www.w3.org/2000/svg">
<path d="M0 34.7901C0 31.6308 2.44413 29.3887 5.74887 29.3887C7.57336 29.3887 9.12246 30.0341 10.1208 31.2571L8.53724 32.6839C7.81433 31.8686 6.9193 31.4609 5.88657 31.4609C3.88996 31.4609 2.47855 32.8198 2.47855 34.8241C2.47855 36.8284 3.88996 38.1872 5.88657 38.1872C6.95372 38.1872 7.84876 37.7796 8.53724 36.9303L10.1208 38.3571C9.12246 39.58 7.60778 40.2255 5.74887 40.2255C2.44413 40.1915 0 37.9155 0 34.7901Z" fill="white"/>
<path d="M18.5194 37.7777H13.5967L12.6673 40.0198H10.1543L14.8704 29.5566H17.2802L22.0307 40.0198H19.4489L18.5194 37.7777ZM17.7621 35.9093L16.0753 31.9007L14.3885 35.9093H17.7621Z" fill="white"/>
<path d="M22.3066 38.9674L23.1328 37.1329C24.0279 37.7784 25.3704 38.22 26.6441 38.22C28.0899 38.22 28.6751 37.7444 28.6751 37.099C28.6751 35.1286 22.5132 36.4875 22.5132 32.6148C22.5132 30.8483 23.959 29.3535 26.9884 29.3535C28.3309 29.3535 29.6735 29.6593 30.6718 30.2707L29.9144 32.1052C28.9161 31.5616 27.9178 31.2899 26.9884 31.2899C25.5425 31.2899 24.9573 31.8334 24.9573 32.4789C24.9573 34.4152 31.1193 33.0904 31.1193 36.9291C31.1193 38.6616 29.639 40.1564 26.6097 40.1564C24.9573 40.1903 23.2361 39.6808 22.3066 38.9674Z" fill="white"/>
<path d="M32.8066 29.5566H35.2508V40.0198H32.8066V29.5566Z" fill="white"/>
<path d="M47.5058 29.5566V40.0198H45.4747L40.1734 33.6672V40.0198H37.7637V29.5566H39.7947L45.0616 35.9093V29.5566H47.5058Z" fill="white"/>
<path d="M49.3652 34.7901C49.3652 31.6647 51.8094 29.3887 55.1829 29.3887C58.5221 29.3887 61.0007 31.6647 61.0007 34.7901C61.0007 37.9155 58.5221 40.1915 55.1829 40.1915C51.8094 40.1915 49.3652 37.8815 49.3652 34.7901ZM58.4533 34.7901C58.4533 32.7858 57.0419 31.4269 55.1485 31.4269C53.2552 31.4269 51.8438 32.7858 51.8438 34.7901C51.8438 36.7944 53.2552 38.1533 55.1485 38.1533C57.0419 38.1193 58.4533 36.7604 58.4533 34.7901Z" fill="white"/>
<path d="M9.71059 12.8125V23.2418H7.68612L2.40191 16.9097V23.2418H0V12.8125H2.02447L7.27437 19.1446V12.8125H9.71059Z" fill="white"/>
<path d="M12.2148 12.8125H14.6511V23.2418H12.2148V12.8125Z" fill="white"/>
<path d="M26.8325 12.8125V23.2418H24.8081L19.5582 16.9097V23.2418H17.1562V12.8125H19.1807L24.4306 19.1446V12.8125H26.8325Z" fill="white"/>
<path d="M37.5387 21.3117V23.2418H29.3379V12.8125H37.3328V14.7426H31.7741V17.0113H36.6809V18.8737H31.7741V21.3117H37.5387Z" fill="white"/>
<path d="M57.2941 23.1805C57.1338 23.1766 56.973 23.1739 56.8127 23.1639C56.3709 23.1367 55.9381 23.0253 55.5372 22.8356C54.6521 22.4176 54.0018 21.7636 53.6067 20.8549C53.4312 20.463 53.3298 20.0414 53.3078 19.6118C53.2738 19.0086 53.4165 18.4086 53.718 17.8868C53.7566 17.8202 53.7978 17.7555 53.842 17.6819H53.7648C53.5833 17.6859 53.4018 17.7003 53.2211 17.6915C52.8879 17.6736 52.5594 17.6039 52.2472 17.4849C51.3049 17.1326 50.6065 16.5158 50.233 15.559C50.0537 15.099 49.9679 14.621 50.0225 14.1246C50.0691 13.6744 50.2078 13.2388 50.4297 12.8456C50.4466 12.8154 50.4618 12.7839 50.48 12.7489C50.3815 12.737 50.2824 12.7309 50.1832 12.7305C50.0194 12.7388 49.8557 12.755 49.6928 12.7764C48.8403 12.888 48.0076 13.1199 47.2189 13.4654C46.3827 13.8267 45.6113 14.3253 44.9362 14.9409C44.2248 15.5975 43.6594 16.3548 43.2838 17.2547C43.0843 17.734 42.9564 18.2406 42.9042 18.7578C42.8735 19.055 42.9016 19.3606 42.9224 19.6608C42.9416 19.8594 42.9733 20.0564 43.0173 20.2509C43.1079 20.7447 43.2786 21.2201 43.5225 21.6577C43.5875 21.7711 43.6693 21.8766 43.7465 21.9886C43.7439 21.7908 43.7231 21.6082 43.7426 21.4296C43.786 21.0838 43.8873 20.7479 44.0424 20.4365C44.2484 20.0051 44.5184 19.6081 44.843 19.259C44.9461 19.1478 45.0635 19.0507 45.1749 18.9474C45.1726 18.966 45.1679 18.9842 45.161 19.0016C45.0198 19.2669 44.8894 19.537 44.82 19.8333C44.7663 20.0613 44.7035 20.2876 44.6623 20.5179C44.6384 20.6798 44.6255 20.8431 44.6238 21.0068C44.6061 21.3286 44.6218 21.6513 44.6706 21.9698C44.7182 22.2846 44.8082 22.5913 44.9379 22.8816C45.0245 23.065 45.106 23.2505 45.2056 23.4256C45.4633 23.8759 45.7996 24.2753 46.1982 24.6044C46.5534 24.9018 46.945 25.1518 47.3632 25.3485C47.7019 25.5071 48.0547 25.633 48.4168 25.7245C48.4567 25.7346 48.4983 25.7394 48.5564 25.7495C48.5369 25.7123 48.5282 25.6913 48.5156 25.6729C48.0906 25.0342 47.929 24.316 47.9091 23.5613C47.9005 23.2851 47.9073 23.0086 47.9294 22.7332C47.9527 22.4935 47.989 22.2553 48.0382 22.0197C48.1075 21.6559 48.2024 21.2992 48.3722 20.9692C48.3958 20.9286 48.4216 20.8894 48.4498 20.8519C48.4623 20.8632 48.4654 20.865 48.4658 20.8667C48.4693 20.8794 48.4727 20.8921 48.4753 20.9048C48.63 21.7102 48.9086 22.4662 49.3665 23.1481C49.7859 23.7714 50.3136 24.2801 50.9695 24.6403C51.7134 25.0487 52.511 25.2483 53.3602 25.2001C53.6221 25.1906 53.8828 25.1603 54.14 25.1095C55.3029 24.8565 56.3271 24.3339 57.1671 23.4703C57.2489 23.3789 57.326 23.2834 57.398 23.184L57.382 23.1639C57.3533 23.1724 57.3239 23.178 57.2941 23.1805ZM45.1775 18.9447L45.1844 18.9369C45.1844 18.9399 45.1844 18.9425 45.1844 18.9456L45.1775 18.9447Z" fill="#E45809"/>
<path d="M58.92 18.8578C58.7826 18.8909 58.6633 18.9764 58.5868 19.0963C58.4612 19.2754 58.3082 19.4342 58.0834 19.457C57.854 19.4766 57.6235 19.4799 57.3937 19.4666C57.1367 19.4561 56.8803 19.4286 56.6242 19.4032C56.5051 19.3914 56.3872 19.369 56.269 19.3498C56.1572 19.3314 56.0458 19.3012 55.9336 19.2942C55.8889 19.2902 55.8441 19.3009 55.8057 19.3245C55.7674 19.3481 55.7375 19.3835 55.7205 19.4255C55.6819 19.513 55.7205 19.5905 55.7846 19.6514C56.0939 19.9538 56.4197 20.2305 56.8287 20.3928C57.0616 20.4824 57.2697 20.6275 57.4353 20.8157C57.5735 20.975 57.6761 21.1475 57.5878 21.3746C57.5622 21.4407 57.6237 21.5309 57.6852 21.5235C57.7484 21.5183 57.8103 21.5022 57.8681 21.4758C58.2615 21.2696 58.6152 20.994 58.9126 20.662C59.1925 20.3596 59.3025 19.9998 59.3173 19.6352C59.3151 19.3874 59.2822 19.1821 59.1899 18.9904C59.131 18.863 59.0556 18.8276 58.92 18.8578Z" fill="#E45809"/>
<path d="M59.9425 15.3782C59.8398 15.0351 59.6314 14.768 59.3529 14.5575C59.1796 14.4262 58.9911 14.3238 58.8174 14.1973C58.0309 13.6265 57.315 12.9625 56.6849 12.2197C56.6056 12.1205 56.5441 12.0081 56.5034 11.8874C56.4635 11.7776 56.4644 11.6537 56.4375 11.5373C56.3671 11.2183 56.1981 10.9302 55.9549 10.7148C55.7083 10.5024 55.4338 10.3256 55.1391 10.1895C55.0113 10.1278 54.8792 10.0722 54.7682 10.0214C55.3713 9.60781 55.4051 9.18147 55.2812 8.85362C54.9428 8.23338 53.8844 7.91516 53.4053 7.7996C53.1453 7.74007 52.852 7.68448 52.524 7.63852C47.0205 6.69831 44.0939 10.7857 44.0939 10.7857C42.3358 12.8272 41.9745 15.1296 42.0014 16.7789C42.0014 16.8275 42.0014 16.8765 42.0014 16.9251C42.0014 16.9422 42.0014 16.9588 42.0014 16.9759C42.0014 17.0223 42.0044 17.0687 42.0057 17.1151C42.0057 17.1405 42.0096 17.1659 42.0113 17.1917C42.033 17.7471 42.1032 18.4422 42.2973 19.0025C42.2973 18.9653 42.2973 18.929 42.2973 18.8922C42.3049 18.6039 42.3304 18.3163 42.3735 18.0312C42.444 17.6789 42.5368 17.3315 42.6512 16.9912C42.6696 16.9472 42.6852 16.902 42.698 16.856C42.774 16.6415 42.8582 16.4296 42.9506 16.2204C43.5737 14.8245 44.5273 13.6051 45.7273 12.6696C46.4065 12.1357 47.1647 11.7133 47.9741 11.4178C48.5946 11.1876 49.2452 11.0509 49.9051 11.012C50.3774 10.9899 50.8507 11.0174 51.3174 11.0943C51.499 11.1227 51.674 11.1578 51.8638 11.1131C52.2562 11.0218 52.6338 10.8744 52.985 10.6754C52.6332 10.9091 50.8279 12.2411 51.658 14.4616C52.5245 16.7785 54.8922 16.4909 55.5342 16.2051C55.5165 16.2738 55.5013 16.3307 55.4879 16.388C55.422 16.6673 55.3713 16.9474 55.4155 17.2376C55.4425 17.4606 55.5115 17.6764 55.6187 17.8732C55.9493 18.4396 56.4739 18.6642 57.0917 18.7079C57.3934 18.7227 57.6955 18.6867 57.9855 18.6016C58.5799 18.4414 59.0786 18.1393 59.4326 17.6171C59.527 17.4779 59.5625 17.3296 59.5106 17.172C59.4446 16.9553 59.3353 16.7547 59.1894 16.5826C59.0434 16.4105 58.864 16.2705 58.6623 16.1714C58.4985 16.0904 58.4097 15.9591 58.411 15.7726C58.411 15.65 58.4976 15.5752 58.6168 15.5638C58.7901 15.5472 58.9456 15.6873 58.9937 15.8575C59.0318 15.9755 59.0852 16.0878 59.1527 16.1915C59.1938 16.2485 59.2457 16.2969 59.3052 16.3338C59.5677 16.5246 59.8385 16.3727 59.9304 16.1311C60.0189 15.8888 60.0231 15.6233 59.9425 15.3782ZM53.0491 10.6579L53.0452 10.6443L53.0569 10.6382C53.0549 10.645 53.0523 10.6516 53.0491 10.6579ZM56.6321 13.9491C56.1847 13.8116 55.737 13.6736 55.289 13.535C55.1716 13.4987 55.0529 13.4658 54.9372 13.4238C54.9047 13.4124 54.8623 13.3765 54.8588 13.3477C54.8523 13.2921 54.9069 13.2921 54.948 13.289L56.1984 13.1866C56.1986 13.1882 56.1986 13.1898 56.1984 13.1914C56.2933 13.1857 56.3877 13.1783 56.4826 13.1748C56.5139 13.1708 56.5454 13.1793 56.5705 13.1985C56.5956 13.2177 56.6123 13.2461 56.6169 13.2776C56.6602 13.4641 56.7036 13.6501 56.7495 13.8366C56.775 13.9412 56.7347 13.9806 56.6321 13.9491Z" fill="#E45809"/>
<path d="M52.8741 6.70768C53.2924 6.76676 53.6665 6.83822 53.9981 6.91474C54.3919 7.00917 54.7771 7.13735 55.1497 7.29792L56.8628 2.32217C56.3748 2.61532 55.9195 2.90116 55.4498 3.15437C55.1215 3.32992 54.974 3.50379 55.0314 3.91961C55.072 4.26122 54.9956 4.60661 54.8152 4.89759C54.6348 5.18856 54.3615 5.40734 54.0412 5.51705C53.7228 5.64431 53.3727 5.66378 53.0427 5.57257C52.7126 5.48136 52.4202 5.28432 52.2088 5.01064C52.0016 4.73972 51.8857 4.40808 51.8781 4.06482C51.8706 3.72157 51.9718 3.38496 52.1668 3.10485C52.2701 2.95518 52.3928 2.82351 52.4779 2.71436C51.9374 1.77468 51.2572 0.865398 50.7565 0C50.2625 0.869899 49.5922 1.78481 49.0589 2.72786C49.1451 2.83477 49.2689 2.967 49.3728 3.11611C49.57 3.39454 49.6739 3.73022 49.6691 4.07347C49.6644 4.41671 49.5512 4.74927 49.3463 5.02189C49.1373 5.29757 48.8465 5.49726 48.5172 5.59133C48.1879 5.68539 47.8376 5.66882 47.5183 5.54406C47.1969 5.43737 46.9216 5.22097 46.7389 4.93145C46.5561 4.64192 46.4771 4.29703 46.5153 3.95506C46.5706 3.53868 46.4197 3.3665 46.0909 3.19319C45.6162 2.94449 45.1587 2.66203 44.668 2.37281L46.2589 6.35488C46.2589 6.35488 46.2672 6.37457 46.2832 6.40496L46.4335 6.78026L46.6457 7.31424H46.7187C48.3549 6.65422 50.4123 6.28342 52.8741 6.70768Z" fill="#E45809"/>
</svg>
