<svg width="61" height="31" viewBox="0 0 61 31" fill="none" xmlns="http://www.w3.org/2000/svg">
<path d="M31.2686 9.81721C31.2686 6.99942 33.5597 4.71094 36.4157 4.71094C38.4008 4.71094 40.1427 5.83962 40.9899 7.4976L38.7853 8.61069C38.3537 7.74669 37.4828 7.20179 36.4157 7.20179C34.8933 7.20179 33.7558 8.31491 33.7558 9.81721C33.7558 11.3195 34.8933 12.4326 36.4157 12.4326C37.4828 12.4326 38.3537 11.8877 38.7853 11.0237L40.9899 12.1368C40.1347 13.7948 38.4008 14.9235 36.4157 14.9235C33.5597 14.9235 31.2686 12.635 31.2686 9.81721Z" fill="white"/>
<path d="M49.6366 7.05441H47.1807V14.7916H44.6384V7.05441H42.1826V4.85156H49.6366V7.05441Z" fill="white"/>
<path d="M20.0244 9.81721C20.0244 6.99942 22.3155 4.71094 25.1716 4.71094C28.012 4.71094 30.3188 6.99942 30.3188 9.81721C30.3188 12.635 28.012 14.9235 25.1716 14.9235C22.3077 14.9235 20.0244 12.635 20.0244 9.81721ZM27.8079 9.81721C27.8079 8.30712 26.6703 7.20179 25.1716 7.20179C23.6494 7.20179 22.5117 8.31491 22.5117 9.81721C22.5117 11.3195 23.6494 12.4326 25.1716 12.4326C26.6703 12.4404 27.8079 11.3273 27.8079 9.81721Z" fill="white"/>
<path d="M50.5078 9.81721C50.5078 6.99942 52.7989 4.71094 55.655 4.71094C58.4953 4.71094 60.8021 6.99942 60.8021 9.81721C60.8021 12.635 58.4953 14.9235 55.655 14.9235C52.7989 14.9235 50.5078 12.635 50.5078 9.81721ZM58.2915 9.81721C58.2915 8.30712 57.1536 7.20179 55.655 7.20179C54.1329 7.20179 52.995 8.31491 52.995 9.81721C52.995 11.3195 54.1329 12.4326 55.655 12.4326C57.1616 12.4404 58.2915 11.3273 58.2915 9.81721Z" fill="white"/>
<path d="M50 25.5C50 22.4649 52.4482 20 55.5 20C58.535 20 61 22.4649 61 25.5C61 28.5351 58.535 31 55.5 31C52.4396 31 50 28.5351 50 25.5ZM58.317 25.5C58.317 23.8735 57.1014 22.6829 55.5 22.6829C53.8733 22.6829 52.6577 23.8819 52.6577 25.5C52.6577 27.1181 53.8733 28.3171 55.5 28.3171C57.1014 28.3254 58.317 27.1265 58.317 25.5Z" fill="white"/>
<path d="M1 25.5C1 22.4649 3.35671 20 6.29452 20C8.33645 20 10.1282 21.2157 11 23.0015L8.73197 24.2005C8.288 23.2698 7.39212 22.6829 6.29452 22.6829C4.72886 22.6829 3.55844 23.8819 3.55844 25.5C3.55844 27.1181 4.72886 28.3171 6.29452 28.3171C7.39212 28.3171 8.288 27.7302 8.73197 26.7996L11 27.9985C10.1203 29.7843 8.33645 31 6.29452 31C3.35671 31 1 28.5351 1 25.5Z" fill="white"/>
<path d="M19.4216 29.072H15.6042L15.0064 31H12L15.9457 20H19.0543L23 31H20.0194L19.4216 29.072ZM18.7299 26.7997L17.5085 22.9178L16.3046 26.7997H18.7299Z" fill="white"/>
<path d="M23 28.5351L25.2097 27.1433C25.5836 27.9482 26.3231 28.4428 27.2453 28.4428C27.9347 28.4428 28.2919 28.141 28.2919 27.7134C28.2919 26.0869 23.4652 26.984 23.4652 23.2698C23.4652 20.981 25.326 20 27.0041 20C28.3333 20 29.5879 20.6037 30.4185 21.5846L28.6492 23.3201C28.0843 22.7165 27.5028 22.3895 26.9708 22.3895C26.5474 22.3895 26.1901 22.6075 26.1901 23.0686C26.1901 24.6951 31 23.6723 31 27.7469C31 29.8011 29.2473 31 27.212 31C25.2596 31 23.706 29.8933 23 28.5351Z" fill="white"/>
<path d="M32.5 20H35.5V31H32.5V20Z" fill="white"/>
<path d="M48 20V31H44.9671L39.8827 24.2519V31H37V20H40.0152L45.1173 26.7222V20H48Z" fill="white"/>
<path d="M16.7442 6.79494C16.0495 5.74645 15.6989 5.21908 15.1732 4.34637C14.6474 3.4737 13.0262 3.02794 12.4441 2.90239C12.4441 2.90239 12.4441 2.90239 12.4379 2.90239C12.1875 2.81448 11.9246 2.73286 11.6554 2.67007C8.81374 2.01085 6.07843 3.26024 4.85161 5.79039C4.00036 7.54832 4.29453 9.70179 5.5777 11.0202C6.82954 12.3073 8.87007 12.3952 10.1157 11.2149C11.3112 10.0785 11.2987 8.52776 10.1219 7.49183C9.18305 6.66309 7.1613 7.14024 6.89839 8.27663C6.86085 8.42729 6.84472 8.51647 6.87963 8.56543C6.89839 8.60234 6.88768 8.64132 6.91971 8.667C7.0136 8.74234 7.24265 8.81027 7.50554 8.54031C7.85608 8.18872 8.03133 8.3645 8.20032 8.3645C8.36934 8.3645 8.55084 8.18872 8.72611 8.18872C8.90135 8.18872 8.82625 8.3645 9.07662 8.3645C9.42714 8.3645 9.2519 8.54031 9.42714 8.71609C9.61866 8.89284 9.31878 9.04339 9.42714 9.24347C9.60242 9.41928 9.60242 9.59506 9.42714 9.77085C9.16883 9.94668 9.2519 10.1224 9.07662 10.2982C8.90138 10.474 8.55084 10.2982 8.38184 10.474C8.21285 10.6435 8.06261 10.7 7.71209 10.6749C6.94221 10.5054 6.28499 9.87131 6.09721 8.99861C5.8093 7.64249 6.87963 6.20477 8.32552 6.01014C10.3535 5.73389 12.056 7.44786 11.8182 9.53857C11.5866 11.6041 9.75888 13.0544 7.61821 12.8598C5.74045 12.6903 4.21942 11.3028 3.7187 9.29997C3.1178 6.90166 4.1631 4.27732 6.27874 2.86471C8.30674 1.50859 10.4724 1.37046 12.7258 2.14897C13.2766 2.33732 14.1904 2.72033 13.8156 2.26868C13.8156 2.26868 13.2105 1.71697 12.691 1.36538C12.1652 1.0138 11.0426 0.631598 10.5168 0.462083C9.99104 0.28629 8.47573 -0.0648401 7.29307 0.010421C6.09353 0.0867558 5.54242 0.349595 5.04392 0.612631C4.66908 0.810425 4.19693 1.02011 3.91938 1.13955C3.39456 1.36538 3.3196 1.44064 2.94473 1.81702C2.5307 2.23273 2.31425 2.54788 2.12006 2.79559C1.82017 3.17812 0.996978 4 0.701717 4.88004C0.701717 4.82802 0.670422 5.037 0.701717 4.88004C-0.800509 8.40218 0.114707 13.0058 3.39456 15.2912C4.80916 16.2706 5.20929 16.7214 6.91971 16.8719C7.79265 16.9488 9.91708 17.0977 11.1181 16.5708C12.7823 15.8407 13.0701 15.5406 14.1154 14.8437C15.1607 14.1468 15.6864 13.6195 16.0307 12.3952C16.3812 11.1709 16.5565 10.6498 16.9007 9.77085C17.1143 8.99861 17.1892 7.68646 16.7442 6.79494ZM5.54639 8.0757C5.24594 8.38962 4.87664 8.27663 4.78903 7.84969C4.68886 7.34743 4.82657 6.90166 5.10198 6.56892C5.49007 6.18592 5.83433 6.26756 5.93447 6.71332C6.04714 7.23441 5.90319 7.69902 5.54639 8.0757ZM8.94517 4.79214C8.5258 5.28813 7.98126 5.533 7.34282 5.56438C7.00481 5.58323 6.67307 5.50788 6.53537 5.16258C6.40391 4.8361 6.62926 4.59124 6.82954 4.36522C7.299 3.93828 7.8373 3.69971 8.47573 3.73739C8.73864 3.74994 9.00152 3.819 9.12044 4.10154C9.22686 4.36522 9.12044 4.58497 8.94517 4.79214ZM10.7666 5.65855C10.6728 5.51414 10.5163 5.3258 10.4161 5.10605C10.172 4.59124 10.3786 4.13921 10.9231 3.96969C11.0295 3.93828 11.1359 3.9069 11.2486 3.9069C12.3878 3.88179 13.3267 4.30243 13.9901 5.24419C14.4471 5.89085 14.1592 6.52496 13.3705 6.62542C12.369 6.75097 11.549 6.34288 10.7666 5.65855ZM15.4611 10.0659C15.217 11.2149 14.3908 12.0122 13.6083 11.849C12.8259 11.6857 12.3878 10.6184 12.6319 9.46948C12.876 8.32056 13.7022 7.52321 14.4847 7.68646C15.267 7.84969 15.6989 8.91699 15.4611 10.0659Z" fill="white"/>
</svg>
