<svg width="151" height="150" viewBox="0 0 151 150" fill="none" xmlns="http://www.w3.org/2000/svg">
<path d="M76.2686 68.8167C76.2686 65.9989 78.5597 63.7104 81.4157 63.7104C83.4008 63.7104 85.1427 64.8391 85.9899 66.4971L83.7853 67.6102C83.3537 66.7462 82.4828 66.2013 81.4157 66.2013C79.8933 66.2013 78.7558 67.3144 78.7558 68.8167C78.7558 70.319 79.8933 71.4321 81.4157 71.4321C82.4828 71.4321 83.3537 70.8872 83.7853 70.0232L85.9899 71.1363C85.1347 72.7943 83.4008 73.923 81.4157 73.923C78.5597 73.923 76.2686 71.6345 76.2686 68.8167Z" fill="white"/>
<path d="M94.6366 66.0534H92.1807V73.7907H89.6384V66.0534H87.1826V63.8506H94.6366V66.0534Z" fill="white"/>
<path d="M65.0244 68.8167C65.0244 65.9989 67.3155 63.7104 70.1716 63.7104C73.012 63.7104 75.3188 65.9989 75.3188 68.8167C75.3188 71.6345 73.012 73.923 70.1716 73.923C67.3077 73.923 65.0244 71.6345 65.0244 68.8167ZM72.8079 68.8167C72.8079 67.3066 71.6703 66.2013 70.1716 66.2013C68.6494 66.2013 67.5117 67.3144 67.5117 68.8167C67.5117 70.319 68.6494 71.4321 70.1716 71.4321C71.6703 71.4399 72.8079 70.3268 72.8079 68.8167Z" fill="white"/>
<path d="M95.5078 68.8172C95.5078 65.9994 97.7989 63.7109 100.655 63.7109C103.495 63.7109 105.802 65.9994 105.802 68.8172C105.802 71.635 103.495 73.9235 100.655 73.9235C97.7989 73.9235 95.5078 71.635 95.5078 68.8172ZM103.291 68.8172C103.291 67.3071 102.154 66.2018 100.655 66.2018C99.1329 66.2018 97.995 67.3149 97.995 68.8172C97.995 70.3195 99.1329 71.4326 100.655 71.4326C102.162 71.4404 103.291 70.3273 103.291 68.8172Z" fill="white"/>
<path d="M95 84.5C95 81.4649 97.4482 79 100.5 79C103.535 79 106 81.4649 106 84.5C106 87.5351 103.535 90 100.5 90C97.4396 90 95 87.5351 95 84.5ZM103.317 84.5C103.317 82.8735 102.101 81.6829 100.5 81.6829C98.8733 81.6829 97.6577 82.8819 97.6577 84.5C97.6577 86.1181 98.8733 87.3171 100.5 87.3171C102.101 87.3254 103.317 86.1265 103.317 84.5Z" fill="white"/>
<path d="M46 84.5C46 81.4649 48.3567 79 51.2945 79C53.3364 79 55.1282 80.2157 56 82.0015L53.732 83.2005C53.288 82.2698 52.3921 81.6829 51.2945 81.6829C49.7289 81.6829 48.5584 82.8819 48.5584 84.5C48.5584 86.1181 49.7289 87.3171 51.2945 87.3171C52.3921 87.3171 53.288 86.7302 53.732 85.7996L56 86.9985C55.1203 88.7843 53.3364 90 51.2945 90C48.3567 90 46 87.5351 46 84.5Z" fill="white"/>
<path d="M64.4216 88.072H60.6042L60.0064 90H57L60.9457 79H64.0543L68 90H65.0194L64.4216 88.072ZM63.7299 85.7997L62.5085 81.9178L61.3046 85.7997H63.7299Z" fill="white"/>
<path d="M68 87.5351L70.2097 86.1433C70.5836 86.9482 71.3231 87.4428 72.2453 87.4428C72.9347 87.4428 73.2919 87.141 73.2919 86.7134C73.2919 85.0869 68.4652 85.984 68.4652 82.2698C68.4652 79.981 70.326 79 72.0041 79C73.3333 79 74.5879 79.6037 75.4185 80.5846L73.6492 82.3201C73.0843 81.7165 72.5028 81.3895 71.9708 81.3895C71.5474 81.3895 71.1901 81.6075 71.1901 82.0686C71.1901 83.6951 76 82.6723 76 86.7469C76 88.8011 74.2473 90 72.212 90C70.2596 90 68.706 88.8933 68 87.5351Z" fill="white"/>
<path d="M77.5 79H80.5V90H77.5V79Z" fill="white"/>
<path d="M93 79V90H89.9671L84.8827 83.2519V90H82V79H85.0152L90.1173 85.7222V79H93Z" fill="white"/>
<path d="M61.7442 65.7949C61.0495 64.7465 60.6989 64.2191 60.1732 63.3464C59.6474 62.4737 58.0262 62.0279 57.4441 61.9024C57.4441 61.9024 57.4441 61.9024 57.4379 61.9024C57.1875 61.8145 56.9246 61.7329 56.6554 61.6701C53.8137 61.0109 51.0784 62.2602 49.8516 64.7904C49.0004 66.5483 49.2945 68.7018 50.5777 70.0202C51.8295 71.3073 53.8701 71.3952 55.1157 70.2149C56.3112 69.0785 56.2987 67.5278 55.1219 66.4918C54.183 65.6631 52.1613 66.1402 51.8984 67.2766C51.8609 67.4273 51.8447 67.5165 51.8796 67.5654C51.8984 67.6023 51.8877 67.6413 51.9197 67.667C52.0136 67.7423 52.2427 67.8103 52.5055 67.5403C52.8561 67.1887 53.0313 67.3645 53.2003 67.3645C53.3693 67.3645 53.5508 67.1887 53.7261 67.1887C53.9014 67.1887 53.8262 67.3645 54.0766 67.3645C54.4271 67.3645 54.2519 67.5403 54.4271 67.7161C54.6187 67.8928 54.3188 68.0434 54.4271 68.2435C54.6024 68.4193 54.6024 68.5951 54.4271 68.7708C54.1688 68.9467 54.2519 69.1224 54.0766 69.2982C53.9014 69.474 53.5508 69.2982 53.3818 69.474C53.2128 69.6435 53.0626 69.7 52.7121 69.6749C51.9422 69.5054 51.285 68.8713 51.0972 67.9986C50.8093 66.6425 51.8796 65.2048 53.3255 65.0101C55.3535 64.7339 57.056 66.4479 56.8182 68.5386C56.5866 70.6041 54.7589 72.0544 52.6182 71.8598C50.7404 71.6903 49.2194 70.3028 48.7187 68.3C48.1178 65.9017 49.1631 63.2773 51.2787 61.8647C53.3067 60.5086 55.4724 60.3705 57.7258 61.149C58.2766 61.3373 59.1904 61.7203 58.8156 61.2687C58.8156 61.2687 58.2105 60.717 57.691 60.3654C57.1652 60.0138 56.0426 59.6316 55.5168 59.4621C54.991 59.2863 53.4757 58.9352 52.2931 59.0104C51.0935 59.0868 50.5424 59.3496 50.0439 59.6126C49.6691 59.8104 49.1969 60.0201 48.9194 60.1395C48.3946 60.3654 48.3196 60.4406 47.9447 60.817C47.5307 61.2327 47.3142 61.5479 47.1201 61.7956C46.8202 62.1781 45.997 63 45.7017 63.88C45.7017 63.828 45.6704 64.037 45.7017 63.88C44.1995 67.4022 45.1147 72.0058 48.3946 74.2912C49.8092 75.2706 50.2093 75.7214 51.9197 75.8719C52.7927 75.9488 54.9171 76.0977 56.1181 75.5708C57.7823 74.8407 58.0701 74.5406 59.1154 73.8437C60.1607 73.1468 60.6864 72.6195 61.0307 71.3952C61.3812 70.1709 61.5565 69.6498 61.9007 68.7708C62.1143 67.9986 62.1892 66.6865 61.7442 65.7949ZM50.5464 67.0757C50.2459 67.3896 49.8766 67.2766 49.789 66.8497C49.6889 66.3474 49.8266 65.9017 50.102 65.5689C50.4901 65.1859 50.8343 65.2676 50.9345 65.7133C51.0471 66.2344 50.9032 66.699 50.5464 67.0757ZM53.9452 63.7921C53.5258 64.2881 52.9813 64.533 52.3428 64.5644C52.0048 64.5832 51.6731 64.5079 51.5354 64.1626C51.4039 63.8361 51.6293 63.5912 51.8295 63.3652C52.299 62.9383 52.8373 62.6997 53.4757 62.7374C53.7386 62.7499 54.0015 62.819 54.1204 63.1015C54.2269 63.3652 54.1204 63.585 53.9452 63.7921ZM55.7666 64.6585C55.6728 64.5141 55.5163 64.3258 55.4161 64.1061C55.172 63.5912 55.3786 63.1392 55.9231 62.9697C56.0295 62.9383 56.1359 62.9069 56.2486 62.9069C57.3878 62.8818 58.3267 63.3024 58.9901 64.2442C59.4471 64.8909 59.1592 65.525 58.3705 65.6254C57.369 65.751 56.549 65.3429 55.7666 64.6585ZM60.4611 69.0659C60.217 70.2149 59.3908 71.0122 58.6083 70.849C57.8259 70.6857 57.3878 69.6184 57.6319 68.4695C57.876 67.3206 58.7022 66.5232 59.4847 66.6865C60.267 66.8497 60.6989 67.917 60.4611 69.0659Z" fill="white"/>
<rect x="0.941177" y="0.441177" width="149.118" height="149.118" rx="74.5588" stroke="#828FA1" stroke-width="0.882353"/>
</svg>
