<svg width="49" height="31" viewBox="0 0 49 31" fill="none" xmlns="http://www.w3.org/2000/svg">
<path d="M13.3292 8.24222C13.3292 11.7117 10.7976 13.8657 6.76947 13.8657H4.18198V17.8701H0V2.58984H6.75551C10.7976 2.58984 13.3292 4.75828 13.3292 8.24222ZM9.10525 8.24222C9.10525 6.82555 8.23808 6.00151 6.50373 6.00151H4.18198V10.4685H6.50373C8.23808 10.4685 9.10525 9.6445 9.10525 8.24222Z" fill="#1CC68D"/>
<path d="M14.8232 2.53133C14.8232 1.28809 15.7883 0.333984 17.2709 0.333984C18.7534 0.333984 19.7185 1.23027 19.7185 2.47351C19.7185 3.78903 18.7534 4.74315 17.2709 4.74315C15.7883 4.72869 14.8232 3.77458 14.8232 2.53133ZM15.2708 6.04422H19.271V17.8695H15.2568V6.04422H15.2708Z" fill="#1CC68D"/>
<path d="M34.0582 11.1039V17.8694H30.0441V11.7833C30.0441 10.0775 29.3308 9.35468 28.1699 9.35468C26.8832 9.35468 25.8901 10.1787 25.8901 12.1447V17.8694H21.876V6.04418H25.6943V7.33081C26.6034 6.34775 27.8902 5.8418 29.3308 5.8418C32.0162 5.8418 34.0582 7.44645 34.0582 11.1039Z" fill="#1CC68D"/>
<path d="M42.4618 5.88477C38.7273 5.88477 36 8.4146 36 11.9709C36 15.556 38.7273 18.1003 42.4618 18.1003C46.2381 18.1003 48.9235 15.5416 48.9235 11.9709C48.9235 8.4146 46.2521 5.88477 42.4618 5.88477ZM45.1751 13.7056C44.8535 14.0381 44.4199 14.2116 43.9583 14.2116H43.9443C43.4688 14.2116 43.0352 14.0092 42.7135 13.6622C42.7695 13.908 42.8114 14.1971 42.8814 14.385C43.1331 15.0934 43.5527 15.397 43.5248 15.397H41.4128C41.3848 15.397 41.8044 15.0934 42.0561 14.385C42.1261 14.1971 42.168 13.908 42.224 13.6622C41.9023 14.0092 41.4687 14.2116 40.9932 14.2116H40.9792C40.5176 14.2116 40.084 14.0236 39.7624 13.7056C39.4407 13.3731 39.2588 12.9394 39.2728 12.4913C39.2728 11.7106 39.7763 11.3059 40.4197 10.7854C40.5456 10.6842 40.6715 10.583 40.7974 10.4674C41.7344 9.65786 42.4757 8.57361 42.4757 8.57361C42.4757 8.57361 43.217 9.65786 44.1541 10.4674C44.28 10.583 44.4059 10.6842 44.5318 10.7854C45.1612 11.3059 45.6647 11.7106 45.6786 12.4913C45.6786 12.9539 45.4969 13.3876 45.1751 13.7056Z" fill="#1CC68D"/>
<path d="M0 25.7367C0 22.6931 2.2567 20.5312 5.33004 20.5312C7.11883 20.5312 8.55888 21.2045 9.49475 22.4181L7.75176 24.049C7.14624 23.2904 6.39393 22.8732 5.46744 22.8732C3.87123 22.8732 2.77043 24.0205 2.77043 25.7367C2.77043 27.4529 3.8806 28.6002 5.46744 28.6002C6.39393 28.6002 7.14624 28.183 7.75176 27.4245L9.49475 29.0553C8.54987 30.269 7.10945 30.9422 5.33004 30.9422C2.2567 30.9422 0 28.7804 0 25.7367Z" fill="white"/>
<path d="M17.5948 26.4393V30.744H15.1457V29.7389C14.7696 30.4785 14.0263 30.8673 12.9346 30.8673C11.1368 30.8673 10.1367 29.8243 10.1367 28.4779C10.1367 27.0461 11.1458 26.1548 13.4759 26.1548H14.9712C14.9254 25.3678 14.4208 24.9222 13.3749 24.9222C12.6594 24.9222 11.8523 25.1782 11.3384 25.5954L10.4487 23.7465C11.311 23.1586 12.5768 22.8457 13.7605 22.8457C16.2006 22.8552 17.5948 23.974 17.5948 26.4393ZM14.9712 28.2503V27.5771H13.8337C12.9898 27.5771 12.6872 27.89 12.6872 28.3641C12.6872 28.8192 13.045 29.1511 13.6685 29.1511C14.2466 29.1511 14.7602 28.8666 14.9712 28.2503Z" fill="white"/>
<path d="M18.6689 30.0711L19.458 28.2126C20.1461 28.6583 21.1642 28.9238 22.0723 28.9238C22.9624 28.9238 23.2466 28.7246 23.2466 28.3928C23.2466 27.3498 18.8157 28.535 18.8157 25.4345C18.8157 23.9743 20.1184 22.8555 22.4669 22.8555C23.5218 22.8555 24.6776 23.083 25.4299 23.5097L24.6412 25.3587C23.8889 24.932 23.146 24.7898 22.4853 24.7898C21.5956 24.7898 21.2836 25.0458 21.2836 25.3302C21.2836 26.4016 25.6961 25.2449 25.6961 28.3169C25.6961 29.7487 24.4209 30.8675 21.9901 30.8675C20.7149 30.877 19.4029 30.5452 18.6689 30.0711Z" fill="white"/>
<path d="M26.54 20.6834C26.54 19.868 27.173 19.2422 28.1453 19.2422C29.1176 19.2422 29.7509 19.8301 29.7509 20.6455C29.7509 21.5083 29.1176 22.1341 28.1453 22.1341C27.182 22.1246 26.54 21.4988 26.54 20.6834ZM26.8336 22.9875H29.4663V30.7435H26.8336V22.9875Z" fill="white"/>
<path d="M39.1532 26.3068V30.7443H36.5205V26.7525C36.5205 25.6336 36.0527 25.1595 35.291 25.1595C34.4471 25.1595 33.7958 25.7 33.7958 26.9895V30.7443H31.1631V22.9882H33.6674V23.8321C34.2639 23.1873 35.1078 22.8555 36.0527 22.8555C37.8141 22.8555 39.1532 23.9079 39.1532 26.3068Z" fill="white"/>
<path d="M40.4473 26.8473C40.4473 24.5148 42.2361 22.8555 44.6856 22.8555C47.1625 22.8555 48.9238 24.5148 48.9238 26.8473C48.9238 29.1988 47.1625 30.8675 44.6856 30.8675C42.227 30.877 40.4473 29.1988 40.4473 26.8473ZM46.2634 26.8473C46.2634 25.6715 45.5846 25.0173 44.6856 25.0173C43.7958 25.0173 43.1077 25.6715 43.1077 26.8473C43.1077 28.0325 43.7958 28.7057 44.6856 28.7057C45.5846 28.7152 46.2634 28.042 46.2634 26.8473Z" fill="white"/>
</svg>
