<svg width="150" height="150" viewBox="0 0 150 150" fill="none" xmlns="http://www.w3.org/2000/svg">
<path d="M64.3292 67.2408C64.3292 70.7103 61.7976 72.8643 57.7695 72.8643H55.182V76.8686H51V61.5884H57.7555C61.7976 61.5884 64.3292 63.7568 64.3292 67.2408ZM60.1053 67.2408C60.1053 65.8241 59.2381 65 57.5037 65H55.182V69.4671H57.5037C59.2381 69.4671 60.1053 68.643 60.1053 67.2408Z" fill="#1CC68D"/>
<path d="M65.8237 61.5308C65.8237 60.2876 66.7888 59.3335 68.2714 59.3335C69.7539 59.3335 70.719 60.2298 70.719 61.473C70.719 62.7885 69.7539 63.7427 68.2714 63.7427C66.7888 63.7282 65.8237 62.7741 65.8237 61.5308ZM66.2713 65.0437H70.2714V76.869H66.2573V65.0437H66.2713Z" fill="#1CC68D"/>
<path d="M85.0577 70.1029V76.8684H81.0436V70.7823C81.0436 69.0765 80.3303 68.3537 79.1694 68.3537C77.8827 68.3537 76.8896 69.1777 76.8896 71.1437V76.8684H72.8755V65.0432H76.6938V66.3298C77.6029 65.3468 78.8897 64.8408 80.3303 64.8408C83.0157 64.8408 85.0577 66.4455 85.0577 70.1029Z" fill="#1CC68D"/>
<path d="M93.4623 64.8848C89.7278 64.8848 87.0005 67.4146 87.0005 70.9709C87.0005 74.556 89.7278 77.1003 93.4623 77.1003C97.2386 77.1003 99.924 74.5416 99.924 70.9709C99.924 67.4146 97.2526 64.8848 93.4623 64.8848ZM96.1756 72.7056C95.854 73.0381 95.4203 73.2116 94.9588 73.2116H94.9448C94.4693 73.2116 94.0357 73.0092 93.714 72.6622C93.77 72.908 93.8119 73.1971 93.8819 73.385C94.1336 74.0934 94.5532 74.397 94.5252 74.397H92.4133C92.3853 74.397 92.8049 74.0934 93.0566 73.385C93.1266 73.1971 93.1685 72.908 93.2244 72.6622C92.9028 73.0092 92.4692 73.2116 91.9937 73.2116H91.9797C91.5181 73.2116 91.0845 73.0236 90.7629 72.7056C90.4411 72.3731 90.2593 71.9394 90.2733 71.4913C90.2733 70.7106 90.7768 70.3059 91.4202 69.7854C91.5461 69.6842 91.6719 69.583 91.7979 69.4674C92.7349 68.6579 93.4762 67.5736 93.4762 67.5736C93.4762 67.5736 94.2175 68.6579 95.1546 69.4674C95.2805 69.583 95.4064 69.6842 95.5322 69.7854C96.1617 70.3059 96.6652 70.7106 96.6791 71.4913C96.6791 71.9539 96.4973 72.3876 96.1756 72.7056Z" fill="#1CC68D"/>
<path d="M51 84.7362C51 81.6926 53.2567 79.5308 56.33 79.5308C58.1188 79.5308 59.5589 80.204 60.4948 81.4176L58.7518 83.0485C58.1462 82.2899 57.3939 81.8727 56.4674 81.8727C54.8712 81.8727 53.7704 83.02 53.7704 84.7362C53.7704 86.4524 54.8806 87.5997 56.4674 87.5997C57.3939 87.5997 58.1462 87.1825 58.7518 86.424L60.4948 88.0549C59.5499 89.2685 58.1095 89.9417 56.33 89.9417C53.2567 89.9417 51 87.7799 51 84.7362Z" fill="white"/>
<path d="M68.5948 85.4378V89.7425H66.1457V88.7375C65.7696 89.477 65.0263 89.8658 63.9346 89.8658C62.1368 89.8658 61.1367 88.8228 61.1367 87.4764C61.1367 86.0446 62.1458 85.1534 64.4759 85.1534H65.9712C65.9254 84.3664 65.4208 83.9208 64.3749 83.9208C63.6594 83.9208 62.8523 84.1768 62.3384 84.5939L61.4487 82.745C62.311 82.1572 63.5768 81.8442 64.7605 81.8442C67.2006 81.8537 68.5948 82.9726 68.5948 85.4378ZM65.9712 87.2488V86.5756H64.8337C63.9898 86.5756 63.6872 86.8885 63.6872 87.3626C63.6872 87.8178 64.045 88.1496 64.6685 88.1496C65.2466 88.1496 65.7602 87.8652 65.9712 87.2488Z" fill="white"/>
<path d="M69.6689 89.0691L70.458 87.2107C71.1461 87.6563 72.1642 87.9218 73.0723 87.9218C73.9624 87.9218 74.2466 87.7227 74.2466 87.3908C74.2466 86.3478 69.8157 87.5331 69.8157 84.4325C69.8157 82.9724 71.1184 81.8535 73.4669 81.8535C74.5218 81.8535 75.6776 82.0811 76.4299 82.5078L75.6412 84.3567C74.8889 83.93 74.146 83.7878 73.4853 83.7878C72.5956 83.7878 72.2836 84.0438 72.2836 84.3283C72.2836 85.3997 76.6961 84.2429 76.6961 87.315C76.6961 88.7467 75.4209 89.8656 72.9901 89.8656C71.7149 89.8751 70.4029 89.5432 69.6689 89.0691Z" fill="white"/>
<path d="M77.5396 79.6824C77.5396 78.867 78.1725 78.2412 79.1448 78.2412C80.1171 78.2412 80.7504 78.8291 80.7504 79.6445C80.7504 80.5073 80.1171 81.1331 79.1448 81.1331C78.1815 81.1237 77.5396 80.4979 77.5396 79.6824ZM77.8331 81.9865H80.4658V89.7426H77.8331V81.9865Z" fill="white"/>
<path d="M90.1537 85.3049V89.7423H87.5209V85.7505C87.5209 84.6317 87.0532 84.1576 86.2915 84.1576C85.4476 84.1576 84.7963 84.698 84.7963 85.9875V89.7423H82.1636V81.9863H84.6679V82.8301C85.2644 82.1854 86.1083 81.8535 87.0532 81.8535C88.8146 81.8535 90.1537 82.906 90.1537 85.3049Z" fill="white"/>
<path d="M91.4473 85.8453C91.4473 83.5128 93.2361 81.8535 95.6856 81.8535C98.1625 81.8535 99.9238 83.5128 99.9238 85.8453C99.9238 88.1968 98.1625 89.8656 95.6856 89.8656C93.227 89.8751 91.4473 88.1968 91.4473 85.8453ZM97.2634 85.8453C97.2634 84.6696 96.5846 84.0154 95.6856 84.0154C94.7958 84.0154 94.1077 84.6696 94.1077 85.8453C94.1077 87.0305 94.7958 87.7038 95.6856 87.7038C96.5846 87.7132 97.2634 87.04 97.2634 85.8453Z" fill="white"/>
<rect x="0.441177" y="0.441177" width="149.118" height="149.118" rx="74.5588" stroke="#828FA1" stroke-width="0.882353"/>
</svg>
