<svg width="65" height="55" viewBox="0 0 65 55" fill="none" xmlns="http://www.w3.org/2000/svg">
<mask id="path-1-inside-1_387_14834" fill="white">
<path fill-rule="evenodd" clip-rule="evenodd" d="M32.6433 0L0.878906 54.9995H64.4077L32.6433 0ZM32.6433 0.575159L1.37717 54.7119H63.9095L32.6433 0.575159Z"/>
</mask>
<path fill-rule="evenodd" clip-rule="evenodd" d="M32.6433 0L0.878906 54.9995H64.4077L32.6433 0ZM32.6433 0.575159L1.37717 54.7119H63.9095L32.6433 0.575159Z" fill="url(#paint0_linear_387_14834)"/>
<path d="M32.6433 0L32.898 -0.147094L32.6433 -0.588085L32.3886 -0.147094L32.6433 0ZM0.878906 54.9995L0.624216 54.8524L0.369401 55.2936H0.878906V54.9995ZM64.4077 54.9995V55.2936H64.9172L64.6624 54.8524L64.4077 54.9995ZM1.37717 54.7119L1.12248 54.5648L0.867666 55.006H1.37717V54.7119ZM32.6433 0.575159L32.898 0.428066L32.6433 -0.0129256L32.3886 0.428066L32.6433 0.575159ZM63.9095 54.7119V55.006H64.419L64.1642 54.5648L63.9095 54.7119ZM1.63186 54.859L32.898 0.722253L32.3886 0.428066L1.12248 54.5648L1.63186 54.859ZM63.9095 54.4178H1.37717V55.006H63.9095V54.4178ZM32.3886 0.722253L63.6548 54.859L64.1642 54.5648L32.898 0.428066L32.3886 0.722253ZM1.1336 55.1466L32.898 0.147094L32.3886 -0.147094L0.624216 54.8524L1.1336 55.1466ZM64.4077 54.7054H0.878906V55.2936H64.4077V54.7054ZM32.3886 0.147094L64.153 55.1466L64.6624 54.8524L32.898 -0.147094L32.3886 0.147094Z" fill="url(#paint1_linear_387_14834)" mask="url(#path-1-inside-1_387_14834)"/>
<defs>
<linearGradient id="paint0_linear_387_14834" x1="7.13213" y1="4.33177e-07" x2="48.9852" y2="53.1825" gradientUnits="userSpaceOnUse">
<stop stop-color="#0C7355"/>
<stop offset="1" stop-color="#00FFFF"/>
</linearGradient>
<linearGradient id="paint1_linear_387_14834" x1="7.13213" y1="4.33177e-07" x2="48.9852" y2="53.1825" gradientUnits="userSpaceOnUse">
<stop stop-color="#0C7355"/>
<stop offset="1" stop-color="#00FFFF"/>
</linearGradient>
</defs>
</svg>
