<svg width="84" height="73" viewBox="0 0 84 73" fill="none" xmlns="http://www.w3.org/2000/svg">
<mask id="path-1-inside-1_387_14835" fill="white">
<path fill-rule="evenodd" clip-rule="evenodd" d="M41.9948 0.647461L0.230469 72.9997H83.7591L41.9948 0.647461ZM41.9948 1.20997L0.717516 72.7185H83.272L41.9948 1.20997Z"/>
</mask>
<path fill-rule="evenodd" clip-rule="evenodd" d="M41.9948 0.647461L0.230469 72.9997H83.7591L41.9948 0.647461ZM41.9948 1.20997L0.717516 72.7185H83.272L41.9948 1.20997Z" fill="url(#paint0_linear_387_14835)"/>
<path d="M41.9948 0.647461L42.2495 0.500425L41.9948 0.0591436L41.7401 0.500425L41.9948 0.647461ZM0.230469 72.9997L-0.0242549 72.8527L-0.278903 73.2938H0.230469V72.9997ZM83.7591 72.9997V73.2938H84.2685L84.0138 72.8527L83.7591 72.9997ZM0.717516 72.7185L0.462793 72.5714L0.208145 73.0126H0.717516V72.7185ZM41.9948 1.20997L42.2495 1.06293L41.9948 0.62165L41.7401 1.06293L41.9948 1.20997ZM83.272 72.7185V73.0126H83.7814L83.5268 72.5714L83.272 72.7185ZM0.97224 72.8655L42.2495 1.357L41.7401 1.06293L0.462793 72.5714L0.97224 72.8655ZM83.272 72.4244H0.717516V73.0126H83.272V72.4244ZM41.7401 1.357L83.0173 72.8655L83.5268 72.5714L42.2495 1.06293L41.7401 1.357ZM0.485192 73.1468L42.2495 0.794497L41.7401 0.500425L-0.0242549 72.8527L0.485192 73.1468ZM83.7591 72.7056H0.230469V73.2938H83.7591V72.7056ZM41.7401 0.794497L83.5044 73.1468L84.0138 72.8527L42.2495 0.500425L41.7401 0.794497Z" fill="url(#paint1_linear_387_14835)" mask="url(#path-1-inside-1_387_14835)"/>
<defs>
<linearGradient id="paint0_linear_387_14835" x1="8.4523" y1="0.647462" x2="63.5172" y2="70.5812" gradientUnits="userSpaceOnUse">
<stop stop-color="#0C7355"/>
<stop offset="1" stop-color="#00FFFF"/>
</linearGradient>
<linearGradient id="paint1_linear_387_14835" x1="8.4523" y1="0.647462" x2="63.5172" y2="70.5812" gradientUnits="userSpaceOnUse">
<stop stop-color="#0C7355"/>
<stop offset="1" stop-color="#00FFFF"/>
</linearGradient>
</defs>
</svg>
