<svg width="103" height="108" viewBox="0 0 103 108" fill="none" xmlns="http://www.w3.org/2000/svg">
<path fill-rule="evenodd" clip-rule="evenodd" d="M94.4782 0.502684C93.7009 0.684833 93.1008 1.02009 92.621 1.5401C91.6281 2.6164 91.671 4.27228 92.7255 5.56923L93.0187 5.92982L92.5887 6.2273C92.0601 6.59304 91.4882 7.15254 91.2202 7.56607C90.7686 8.26291 90.6012 9.22162 90.7767 10.1058C91.1101 11.7848 92.4584 12.8307 94.5688 13.0472C95.9925 13.1932 97.3121 12.8686 98.298 12.1296L98.637 11.8756L99.0594 12.3193L99.4818 12.763L101.043 12.7472L102.604 12.7313L101.436 11.4971C100.719 10.7388 100.283 10.2375 100.306 10.1972C100.327 10.1611 100.399 10.0569 100.466 9.96565C100.671 9.68742 101.075 8.77595 101.215 8.27857C101.362 7.75059 101.497 6.96989 101.552 6.32875L101.588 5.90006H100.419H99.2499L99.2122 6.32875C99.1916 6.5645 99.1404 6.93167 99.0987 7.14463C99.0177 7.55761 98.6948 8.49982 98.6343 8.49982C98.5901 8.49982 96.7897 6.55764 96.7897 6.5099C96.7897 6.49126 97.0333 6.27244 97.3311 6.02364C97.9456 5.51015 98.2404 5.1578 98.5084 4.61678C99.3498 2.91731 98.6448 1.24887 96.8163 0.612815C96.4366 0.480725 96.2823 0.459429 95.5932 0.443941C95.0576 0.431882 94.6999 0.450744 94.4782 0.502684ZM95.9184 2.53974C96.6202 2.90437 96.7134 3.70282 96.1328 4.37533C95.936 4.60339 95.2694 5.13806 95.2131 5.11311C95.1032 5.0646 94.4177 4.23251 94.3348 4.04704C94.1371 3.60475 94.239 3.0213 94.5685 2.70866C94.8966 2.39736 95.4993 2.32196 95.9184 2.53974ZM96.7089 9.87305C97.2595 10.4543 97.2581 10.4102 96.7353 10.683C95.2422 11.4621 93.4402 10.8337 93.2239 9.45864C93.1421 8.93835 93.482 8.31651 94.1454 7.77261L94.4589 7.51557L95.3396 8.43638C95.8239 8.94283 96.4401 9.58935 96.7089 9.87305ZM18.3363 45.153C11.4866 64.4908 5.87448 80.3466 5.86479 80.388C5.85 80.4515 7.3037 80.4634 15.0165 80.4634H24.1858L24.239 80.339C24.2683 80.2705 27.8651 68.64 32.232 54.4935C36.5989 40.3469 40.1904 28.7289 40.2133 28.6757C40.2408 28.6115 42.8934 37.2917 48.1113 54.5212L55.968 80.4634H65.2903H74.6126L74.5807 80.339C74.5631 80.2705 69.0603 64.4148 62.3522 45.1039L50.1556 9.9933H40.4729H30.7902L18.3363 45.153ZM39.2758 61.0513C36.2542 61.369 33.5986 63.001 31.9452 65.5563C31.1864 66.7289 30.6856 68.0349 30.4286 69.5112C30.3156 70.16 30.3334 72.1668 30.4582 72.8577C30.7385 74.4103 31.3537 75.8516 32.2888 77.147C32.7413 77.7739 33.8274 78.8562 34.4631 79.3138C36.2569 80.6047 38.3458 81.2394 40.5539 81.1642C42.1556 81.1098 43.5399 80.7462 44.8504 80.0358C49.1782 77.6898 51.1747 72.6139 49.6318 67.8795C48.4913 64.3797 45.5153 61.7847 41.9213 61.1561C41.1894 61.028 39.9601 60.9794 39.2758 61.0513ZM11.3681 83.6404C10.5481 83.8297 9.91731 84.1926 9.35517 84.7985C8.49738 85.7231 8.09155 87.1108 8.24764 88.5853C8.43174 90.3245 9.33972 91.6339 10.7428 92.1837C11.3036 92.4034 11.7323 92.4744 12.4901 92.4727C14.702 92.4679 15.9894 91.3193 16.3256 89.051C16.3696 88.7543 16.4057 88.3184 16.4059 88.0823L16.4062 87.6529L14.3259 87.6674L12.2456 87.6819V88.3457V89.0094L13.3529 89.0244L14.4603 89.0394L14.4218 89.301C14.2679 90.3457 13.6736 90.9437 12.6764 91.0575C11.7382 91.1645 10.8565 90.6808 10.4758 89.8503C10.2008 89.2503 10.1289 88.8684 10.1304 88.0138C10.1322 86.9283 10.3484 86.1824 10.8207 85.6314C11.5081 84.8294 13.0022 84.7469 13.7867 85.4677C13.9946 85.6587 14.3395 86.252 14.3395 86.4185C14.3395 86.4777 14.5319 86.4926 15.2913 86.4926C15.8545 86.4926 16.243 86.4712 16.243 86.4402C16.243 86.4114 16.1691 86.1812 16.0787 85.9286C15.6838 84.825 14.8722 84.0599 13.7409 83.7246C13.2156 83.569 11.8822 83.5216 11.3681 83.6404ZM5.80078 84.529V85.331H6.75255H7.70431V84.529V83.7269H6.75255H5.80078V84.529ZM16.9221 83.7923C16.907 83.8324 16.901 85.757 16.9088 88.0691L16.9229 92.273L19.0711 92.2882C21.4773 92.3053 21.7717 92.2756 22.4694 91.9456C23.0103 91.6897 23.3749 91.3346 23.6251 90.8196C23.8246 90.4092 23.83 90.3823 23.83 89.7868C23.83 89.2421 23.8145 89.1422 23.6879 88.8711C23.4929 88.4536 23.1985 88.1728 22.7074 87.9357L22.2919 87.7351L22.6126 87.5818C23.015 87.3895 23.287 87.1155 23.4696 86.7187C23.5932 86.4503 23.6119 86.337 23.6121 85.8565C23.6124 85.3621 23.5962 85.2699 23.4598 84.9873C23.2006 84.4505 22.6655 84.065 21.8897 83.8563C21.423 83.7307 16.9668 83.6733 16.9221 83.7923ZM27.3987 83.8514C26.8961 85.2335 24.4554 92.186 24.4554 92.2356C24.4554 92.2871 24.5948 92.3005 25.0078 92.2887L25.5601 92.273L25.9731 91.0284L26.3861 89.7838L28.1274 89.7692L29.8686 89.7547L30.3017 91.0276L30.7348 92.3006H31.2998C31.8564 92.3006 31.8643 92.2988 31.8409 92.1762C31.8022 91.9732 28.9603 83.8715 28.9014 83.7961C28.8632 83.7472 28.642 83.7269 28.1457 83.7269C27.4677 83.7269 27.4424 83.7311 27.3987 83.8514ZM32.831 88.0132V92.3006H33.41H33.989L33.9495 90.4483L33.91 88.596L35.8315 88.5815L37.7529 88.5669L37.7687 88.1106L37.7845 87.6542H35.8431H33.9015L33.9373 86.6497C33.957 86.0973 33.9731 85.4255 33.9731 85.1569V84.6687L35.9718 84.6541L37.9705 84.6396V84.1971V83.7546L35.4007 83.7402L32.831 83.7258V88.0132ZM38.9594 83.7679C38.946 83.791 38.9354 85.7203 38.9357 88.0553L38.9363 92.3006H39.5062H40.0762L40.0567 90.4476L40.0372 88.5946H41.9543H43.8714V88.1244V87.6542H41.933H39.9945L40.0295 87.3142C40.0487 87.1273 40.0644 86.4555 40.0644 85.8215V84.6687L42.0631 84.6541L44.0618 84.6396V84.1971V83.7546L41.5228 83.7402C40.1263 83.7323 38.9728 83.7448 38.9594 83.7679ZM45.0623 83.7388C45.0593 83.7475 45.0531 85.6775 45.0487 88.0276L45.0408 92.3006H45.5937H46.1466L46.1375 88.0276L46.1285 83.7546L45.5982 83.7388C45.3066 83.73 45.0654 83.73 45.0623 83.7388ZM47.1324 83.7408C47.1312 83.7484 47.125 85.6775 47.1188 88.0276L47.1075 92.3006H49.5956H52.0838V91.8588V91.417L50.1667 91.4025L48.2496 91.3879L48.2356 87.5574L48.2216 83.7269H47.6781C47.3792 83.7269 47.1336 83.7331 47.1324 83.7408ZM53.058 83.7388C53.0553 83.7475 53.0492 85.6775 53.0444 88.0276L53.0356 92.3006H53.5904H54.1453L54.1343 88.0276L54.1233 83.7546L53.5931 83.7388C53.3014 83.73 53.0606 83.73 53.058 83.7388ZM58.0798 83.8237C58.0592 83.877 57.3766 85.7998 56.5631 88.0967L55.0839 92.273L55.6322 92.2888C55.9338 92.2976 56.1981 92.2851 56.2196 92.2612C56.241 92.2372 56.4387 91.6635 56.6587 90.9861L57.0589 89.7547L58.7999 89.7692L60.541 89.7838L60.9695 91.0422L61.398 92.3006H61.962C62.3208 92.3006 62.5261 92.2794 62.5261 92.2424C62.5261 92.1539 59.6313 83.8755 59.5726 83.7961C59.5363 83.747 59.3175 83.7269 58.8194 83.7269C58.2013 83.7269 58.1129 83.7385 58.0798 83.8237ZM62.5491 83.8011C62.5335 83.8424 62.528 84.048 62.537 84.2579L62.5533 84.6396L63.777 84.6673L65.0007 84.6949L64.9992 88.4978L64.9977 92.3006H65.574H66.1502L66.1258 88.6835C66.1123 86.6942 66.1178 84.9771 66.1379 84.8679L66.1745 84.6694L67.3824 84.6545L68.5902 84.6396V84.1971V83.7546L65.5838 83.7403C63.092 83.7284 62.5726 83.7388 62.5491 83.8011ZM69.5451 88.0133L69.5448 92.3006H72.2355H74.9262V91.8581V91.4156H72.8052H70.6841V90.65C70.6841 90.2289 70.668 89.507 70.6484 89.0459L70.6127 88.2074H72.5791H74.5455V87.7372V87.267H72.5792H70.6129L70.6483 86.5618C70.6677 86.1739 70.6837 85.5892 70.6839 85.2626L70.6841 84.6686L72.7644 84.6541L74.8447 84.6396V84.1971V83.7546L72.195 83.7403L69.5453 83.7259L69.5451 88.0133ZM28.834 86.6732C29.2077 87.7862 29.5134 88.7111 29.5134 88.7287C29.5134 88.7462 28.8867 88.7605 28.1207 88.7605C27.0301 88.7605 26.7332 88.7455 26.7518 88.6914C26.7649 88.6534 27.0768 87.7191 27.4448 86.6153C27.8129 85.5115 28.1231 84.6178 28.1343 84.6291C28.1454 84.6405 28.4603 85.5603 28.834 86.6732ZM59.5029 86.6843C59.8794 87.8088 60.1874 88.736 60.1874 88.7447C60.1874 88.7534 59.5634 88.7605 58.8006 88.7605C58.0378 88.7605 57.4137 88.7501 57.4137 88.7373C57.4137 88.7168 58.6774 84.8677 58.748 84.6732C58.7634 84.6308 58.7855 84.6059 58.7972 84.6179C58.8089 84.6298 59.1265 85.5597 59.5029 86.6843ZM21.3065 85.29C21.6003 85.4885 21.7467 85.8368 21.7242 86.2834C21.7036 86.6935 21.6094 86.8742 21.3069 87.0836C21.0767 87.243 20.7537 87.2764 19.6422 87.2562L18.7176 87.2394L18.7028 86.2022L18.688 85.1651H19.9049C21.0773 85.1651 21.1285 85.1697 21.3065 85.29ZM5.80078 89.1477V92.3006H6.75255H7.70431V89.1477V85.9948H6.75255H5.80078V89.1477ZM21.3345 88.5898C21.7603 88.7864 21.979 89.2434 21.9445 89.8641C21.9179 90.343 21.7472 90.6267 21.3726 90.8143C21.121 90.9402 21.0631 90.9454 19.9141 90.9454H18.7176L18.703 89.7147L18.6884 88.4839L19.8995 88.4852C20.9647 88.4862 21.1376 88.4988 21.3345 88.5898Z" fill="#F0F0F0"/>
<path fill-rule="evenodd" clip-rule="evenodd" d="M22.8293 96.2322C22.4003 96.3549 21.8325 96.6279 21.5675 96.8391C21.3024 97.0502 20.972 97.4706 20.8331 97.7733C20.6942 98.076 20.5793 98.617 20.5776 98.9755C20.576 99.334 20.6489 99.8745 20.7395 100.177C20.8385 100.506 21.1487 100.968 21.515 101.331C21.8968 101.71 22.6566 102.204 23.5418 102.65C24.3207 103.042 25.1003 103.49 25.2743 103.646C25.4483 103.802 25.6758 104.091 25.78 104.29C25.8843 104.488 25.9695 104.805 25.9695 104.995C25.9695 105.185 25.8719 105.487 25.7525 105.668C25.6301 105.853 25.311 106.055 25.0199 106.133C24.6834 106.223 24.307 106.226 23.9369 106.144C23.6248 106.075 23.2822 105.932 23.1755 105.826C23.0689 105.721 22.948 105.386 22.9069 105.082L22.832 104.53H21.7033H20.5747V105.082C20.5747 105.385 20.6482 105.876 20.7381 106.173C20.828 106.47 21.0955 106.905 21.3327 107.14C21.5698 107.374 22.0533 107.664 22.407 107.783C22.8346 107.927 23.5093 108 24.4185 108C25.3111 108 26.0038 107.927 26.4114 107.789C26.7877 107.662 27.2229 107.374 27.5054 107.065C27.7635 106.782 28.039 106.321 28.1178 106.041C28.1964 105.76 28.2606 105.201 28.2603 104.797C28.2599 104.306 28.1541 103.838 27.9412 103.386C27.7662 103.014 27.3955 102.524 27.1177 102.297C26.8399 102.07 25.9612 101.55 25.1652 101.141C24.3692 100.732 23.5644 100.245 23.3766 100.059C23.1889 99.8732 22.9991 99.5419 22.9548 99.3226C22.9105 99.1035 22.9305 98.7777 22.9993 98.5986C23.0681 98.4196 23.2446 98.2094 23.3916 98.1316C23.5387 98.0536 23.9863 97.99 24.3861 97.99C24.9689 97.99 25.1707 98.0504 25.4025 98.2947C25.5617 98.4623 25.7419 98.8376 25.803 99.1288L25.9142 99.6583H26.9872H28.06L28.0421 98.9652C28.0313 98.5527 27.9018 98.0221 27.7222 97.6551C27.5427 97.2881 27.2143 96.9031 26.9116 96.7049C26.6319 96.5217 26.0778 96.2861 25.6804 96.1813C25.283 96.0767 24.6545 95.9952 24.2836 96.0002C23.9127 96.0052 23.2584 96.1097 22.8293 96.2322ZM2.76824 96.4638C2.69595 96.6521 2.63661 96.8772 2.63634 96.9643C2.6362 97.0513 2.03171 99.5223 1.29315 102.456C0.554595 105.389 -0.0268278 107.811 0.000955756 107.839C0.0288742 107.866 0.50146 107.894 1.05133 107.9C1.6012 107.906 2.11359 107.872 2.18979 107.826C2.26613 107.779 2.4045 107.364 2.49743 106.903C2.59049 106.442 2.72333 105.837 2.79292 105.56L2.9193 105.055L4.35704 105.093L5.79462 105.13L5.89741 105.664C5.95392 105.958 6.07247 106.529 6.16094 106.932C6.24929 107.336 6.36446 107.715 6.41679 107.775C6.46912 107.835 7.00551 107.895 7.60892 107.909L8.70584 107.933L8.6264 107.466C8.5827 107.209 8.46388 106.669 8.36245 106.265C8.26103 105.861 7.98899 104.69 7.75795 103.662C7.52692 102.635 7.21834 101.283 7.07213 100.659C6.92593 100.035 6.71783 99.1495 6.6098 98.6907C6.50163 98.2319 6.31538 97.4661 6.19588 96.989L5.97859 96.1214H4.43917C2.91081 96.1214 2.8988 96.1238 2.76824 96.4638ZM9.51237 96.2215C9.51089 96.2766 9.51048 98.9042 9.51156 102.061C9.51264 105.217 9.51386 107.83 9.51426 107.867C9.51467 107.903 9.9855 107.926 10.5605 107.918L11.6057 107.902L11.6098 104.488C11.6119 102.61 11.6536 101.035 11.7021 100.986C11.7508 100.938 11.8297 101.13 11.8775 101.413C11.9252 101.696 12.0775 102.408 12.216 102.995C12.3544 103.582 12.6004 104.633 12.7626 105.331C12.9249 106.028 13.1279 106.894 13.2137 107.254L13.3697 107.909L14.4827 107.905C15.0947 107.902 15.6098 107.877 15.6272 107.85C15.6447 107.822 15.7978 107.229 15.9675 106.532C16.1373 105.834 16.4584 104.513 16.6811 103.596C16.9037 102.678 17.1578 101.687 17.2456 101.393C17.3813 100.939 17.4153 101.386 17.4726 104.378L17.5401 107.896L18.4504 107.889C18.9512 107.885 19.4064 107.878 19.462 107.874C19.5176 107.87 19.5499 105.239 19.5337 102.027L19.5043 96.1881H17.9931H16.482L16.2417 97.2559C16.1095 97.8431 15.7831 99.2546 15.5163 100.392C15.2495 101.53 14.9368 102.867 14.8212 103.362C14.7056 103.857 14.5652 104.263 14.5092 104.263C14.4533 104.263 14.3307 103.888 14.2368 103.429C14.1429 102.97 13.8676 101.754 13.625 100.726C13.3824 99.6983 13.0801 98.347 12.9533 97.723C12.8266 97.0991 12.6666 96.4834 12.5978 96.355C12.4905 96.1542 12.265 96.1214 10.9941 96.1214C10.1807 96.1214 9.51399 96.1664 9.51237 96.2215ZM28.6221 96.2104C28.5726 96.2593 28.5321 96.7398 28.5321 97.2782V98.2569H29.8118H31.0913L31.1268 103.084L31.1621 107.912L32.2187 107.9C32.7997 107.894 33.3026 107.861 33.3364 107.828C33.3699 107.795 33.4104 105.643 33.4262 103.046L33.4549 98.3236L34.7699 98.2855L36.0849 98.2473V97.1843V96.1214H32.3985C30.3708 96.1214 28.6714 96.1615 28.6221 96.2104ZM36.8219 96.2858C36.7858 96.3789 36.7721 99.0261 36.7915 102.168L36.8267 107.882L40.1311 107.882L43.4354 107.882L43.4748 106.877L43.5141 105.871L41.3169 105.834L39.1195 105.798V104.463V103.128L41.182 103.092L43.2443 103.055L43.2051 102.047L43.1657 101.038L41.1426 101.016L39.1195 100.993V99.6583V98.3236L41.2775 98.2569L43.4354 98.1902V97.1892V96.1881L40.1614 96.1524C37.6154 96.1246 36.873 96.1542 36.8219 96.2858ZM44.6142 102.014L44.6493 107.907L45.7282 107.907L46.8072 107.907L46.8746 105.518L46.9421 103.128L47.5932 103.087C47.9513 103.065 48.3271 103.114 48.4284 103.197C48.5297 103.281 48.9215 104.29 49.2991 105.441C49.6767 106.591 50.0377 107.616 50.1009 107.717C50.1828 107.847 50.5514 107.905 51.3777 107.917C52.0742 107.927 52.5387 107.88 52.5376 107.8C52.5367 107.726 52.29 107.006 51.9894 106.198C51.6888 105.391 51.2852 104.274 51.0923 103.717L50.7419 102.705L51.2937 102.159C51.7186 101.738 51.871 101.465 51.9563 100.969C52.0173 100.615 52.0594 99.9052 52.0498 99.3914C52.0401 98.8775 51.9619 98.2014 51.8757 97.8889C51.7881 97.5711 51.5172 97.1208 51.2611 96.8674C50.9413 96.551 50.5945 96.3699 50.1135 96.2677C49.7342 96.1872 48.3338 96.1214 47.0014 96.1214H44.579L44.6142 102.014ZM53.5157 101.995L53.5508 107.896L56.1596 107.882C58.3982 107.87 58.8481 107.833 59.3291 107.618C59.6374 107.481 60.0234 107.225 60.1867 107.049C60.3502 106.872 60.5799 106.501 60.6972 106.223C60.8147 105.945 60.9761 105.045 61.056 104.223C61.1369 103.39 61.1643 101.9 61.1178 100.86C61.0716 99.8318 60.9511 98.6833 60.8495 98.3072C60.7481 97.9312 60.5246 97.4355 60.3529 97.2058C60.1812 96.976 59.7641 96.6537 59.4258 96.4895C58.8653 96.2174 58.5745 96.1867 56.1457 96.1422L53.4805 96.0935L53.5157 101.995ZM64.3451 96.2475C64.2989 96.3216 63.9307 97.72 63.5268 99.3549C63.1232 100.99 62.7024 102.658 62.5916 103.062C62.481 103.465 62.1727 104.688 61.9066 105.778C61.6404 106.868 61.452 107.789 61.4879 107.824C61.5237 107.86 62.0286 107.894 62.6096 107.901L63.6662 107.912L63.8847 107.055C64.0047 106.584 64.1564 105.958 64.2218 105.664L64.3405 105.13L65.7758 105.093L67.2113 105.055L67.3546 105.693C67.4335 106.044 67.5711 106.677 67.6604 107.099C67.7497 107.521 67.8585 107.869 67.9024 107.872C67.9462 107.875 68.4676 107.884 69.061 107.892C70.0504 107.906 70.1365 107.886 70.0975 107.653C70.0741 107.514 69.9347 106.859 69.7877 106.198C69.6407 105.538 69.4063 104.517 69.2667 103.929C69.1273 103.342 68.8491 102.141 68.6486 101.26C68.4482 100.379 68.0948 98.8775 67.8634 97.9232L67.4426 96.1881L65.9359 96.1505C65.0254 96.1278 64.396 96.1661 64.3451 96.2475ZM70.9452 96.2838C70.9088 96.3781 70.8946 99.0322 70.914 102.182L70.9492 107.909L71.9608 107.909H72.9723L73.0397 104.384C73.0768 102.446 73.1456 100.92 73.1924 100.993C73.2393 101.066 73.3176 101.337 73.3663 101.594C73.4151 101.85 73.5466 102.451 73.6588 102.928C73.7709 103.405 74.0685 104.688 74.3202 105.779C74.5717 106.87 74.8105 107.795 74.8505 107.835C74.8906 107.874 75.3807 107.907 75.9395 107.907C76.4983 107.907 76.9864 107.876 77.024 107.839C77.0616 107.802 77.3873 106.576 77.7478 105.116C78.1083 103.656 78.4771 102.146 78.5673 101.76C78.6577 101.374 78.771 101.035 78.8191 101.005C78.8674 100.976 78.8851 102.507 78.8584 104.409C78.8237 106.878 78.8526 107.869 78.9594 107.874C79.0417 107.878 79.5186 107.885 80.0193 107.889L80.9297 107.896L80.9648 102.009L81 96.1214H79.5117C78.0704 96.1214 78.0195 96.1314 77.9019 96.4373C77.8351 96.6111 77.7147 97.0766 77.634 97.4717C77.5535 97.8669 77.3751 98.6706 77.2375 99.2579C77.1001 99.8452 76.7861 101.197 76.5398 102.261C76.2937 103.325 76.073 104.221 76.0495 104.252C76.0261 104.282 75.9691 104.27 75.9229 104.224C75.8768 104.179 75.7311 103.643 75.5991 103.034C75.4672 102.425 75.2271 101.357 75.0654 100.659C74.9038 99.9619 74.6841 99.001 74.5771 98.5238C74.4703 98.0467 74.307 97.326 74.2142 96.9222L74.0455 96.1881L72.5286 96.1504C71.3903 96.1221 70.9951 96.1553 70.9452 96.2838ZM49.4537 98.4808C49.6955 98.72 49.7471 98.9309 49.7543 99.7067C49.7612 100.442 49.7088 100.703 49.5118 100.918C49.2942 101.156 49.1004 101.193 48.0676 101.193H46.8746V99.7473C46.8746 98.952 46.9202 98.2558 46.9758 98.2003C47.0314 98.1446 47.546 98.1201 48.1194 98.1456C48.9696 98.1834 49.2155 98.2451 49.4537 98.4808ZM58.061 98.3196C58.2718 98.4275 58.5215 98.7127 58.6159 98.9536C58.7202 99.2197 58.8101 100.281 58.8456 101.662C58.8801 103.014 58.8434 104.256 58.7547 104.732C58.6515 105.285 58.5127 105.602 58.3037 105.761C58.0744 105.936 57.7333 105.993 56.8889 105.995L55.7762 105.998V102.061V98.1234H56.727C57.2996 98.1234 57.8303 98.2015 58.061 98.3196ZM4.64338 99.8251C4.73738 100.394 4.89449 101.19 4.99241 101.594C5.09032 101.997 5.20579 102.523 5.24895 102.761L5.32743 103.195H4.3867C3.67269 103.195 3.44598 103.15 3.44598 103.009C3.44598 102.907 3.62805 102.07 3.85059 101.148C4.07313 100.227 4.25521 99.3192 4.25521 99.1316C4.25521 98.9441 4.30404 98.7908 4.36379 98.7908C4.42353 98.7908 4.54937 99.2562 4.64338 99.8251ZM66.296 100.726C66.4592 101.534 66.6234 102.419 66.6609 102.695L66.7291 103.195H65.7618C64.9035 103.195 64.8023 103.169 64.865 102.962C64.9039 102.833 65.0267 102.338 65.138 101.861C65.2493 101.383 65.4339 100.599 65.5484 100.117C65.6629 99.6351 65.7607 99.1246 65.7658 98.9824C65.7746 98.733 65.7788 98.7332 65.8871 98.991C65.9489 99.1378 66.1328 99.9186 66.296 100.726Z" fill="#F0F0F0"/>
</svg>
