<svg width="61" height="41" viewBox="0 0 61 41" fill="none" xmlns="http://www.w3.org/2000/svg">
<path d="M0 34.7886C0 31.6293 2.44413 29.3872 5.74887 29.3872C7.57336 29.3872 9.12246 30.0327 10.1208 31.2556L8.53724 32.6824C7.81433 31.8671 6.9193 31.4595 5.88657 31.4595C3.88996 31.4595 2.47855 32.8183 2.47855 34.8226C2.47855 36.8269 3.88996 38.1858 5.88657 38.1858C6.95372 38.1858 7.84876 37.7781 8.53724 36.9288L10.1208 38.3556C9.12246 39.5786 7.60778 40.224 5.74887 40.224C2.44413 40.1901 0 37.914 0 34.7886Z" fill="white"/>
<path d="M18.5203 37.7779H13.5976L12.6681 40.02H10.1552L14.8713 29.5569H17.281L22.0316 40.02H19.4497L18.5203 37.7779ZM17.763 35.9095L16.0762 31.9009L14.3894 35.9095H17.763Z" fill="white"/>
<path d="M22.307 38.9669L23.1332 37.1324C24.0282 37.7779 25.3708 38.2195 26.6445 38.2195C28.0903 38.2195 28.6755 37.7439 28.6755 37.0985C28.6755 35.1281 22.5135 36.487 22.5135 32.6143C22.5135 30.8478 23.9594 29.353 26.9887 29.353C28.3313 29.353 29.6738 29.6588 30.6721 30.2703L29.9148 32.1047C28.9165 31.5612 27.9182 31.2894 26.9887 31.2894C25.5429 31.2894 24.9577 31.8329 24.9577 32.4784C24.9577 34.4147 31.1196 33.0899 31.1196 36.9286C31.1196 38.6611 29.6394 40.1559 26.6101 40.1559C24.9577 40.1898 23.2365 39.6803 22.307 38.9669Z" fill="white"/>
<path d="M32.8065 29.5569H35.2506V40.02H32.8065V29.5569Z" fill="white"/>
<path d="M47.5056 29.5569V40.02H45.4746L40.1733 33.6674V40.02H37.7635V29.5569H39.7946L45.0615 35.9095V29.5569H47.5056Z" fill="white"/>
<path d="M49.3645 34.7886C49.3645 31.6633 51.8086 29.3872 55.1822 29.3872C58.5214 29.3872 60.9999 31.6633 60.9999 34.7886C60.9999 37.914 58.5214 40.1901 55.1822 40.1901C51.8086 40.1901 49.3645 37.88 49.3645 34.7886ZM58.4525 34.7886C58.4525 32.7843 57.0411 31.4255 55.1478 31.4255C53.2545 31.4255 51.8431 32.7843 51.8431 34.7886C51.8431 36.7929 53.2545 38.1518 55.1478 38.1518C57.0411 38.1178 58.4525 36.759 58.4525 34.7886Z" fill="white"/>
<path d="M9.71059 12.8126V23.2419H7.68612L2.40191 16.9098V23.2419H0V12.8126H2.02447L7.27437 19.1447V12.8126H9.71059Z" fill="white"/>
<path d="M12.2155 12.8125H14.6517V23.2418H12.2155V12.8125Z" fill="white"/>
<path d="M26.8329 12.8125V23.2418H24.8084L19.5585 16.9097V23.2418H17.1566V12.8125H19.1811L24.431 19.1446V12.8125H26.8329Z" fill="white"/>
<path d="M37.5385 21.3117V23.2418H29.3376V12.8125H37.3326V14.7426H31.7739V17.0113H36.6806V18.8737H31.7739V21.3117H37.5385Z" fill="white"/>
<path d="M57.2949 23.18C57.1346 23.1761 56.9739 23.1735 56.8136 23.1634C56.3717 23.1362 55.939 23.0248 55.5381 22.8351C54.653 22.4171 54.0027 21.7631 53.6076 20.8544C53.4321 20.4625 53.3307 20.0409 53.3086 19.6113C53.2747 19.0081 53.4174 18.4081 53.7189 17.8863C53.7575 17.8197 53.7986 17.755 53.8428 17.6814H53.7657C53.5842 17.6854 53.4026 17.6998 53.222 17.6911C52.8888 17.6731 52.5603 17.6034 52.248 17.4845C51.3057 17.1321 50.6073 16.5154 50.2339 15.5585C50.0545 15.0985 49.9687 14.6205 50.0233 14.1241C50.0699 13.6739 50.2086 13.2383 50.4306 12.8451C50.4475 12.8149 50.4626 12.7834 50.4808 12.7484C50.3823 12.7365 50.2832 12.7304 50.184 12.73C50.0203 12.7383 49.8565 12.7545 49.6936 12.7759C48.8412 12.8875 48.0084 13.1194 47.2198 13.4649C46.3835 13.8262 45.6122 14.3248 44.937 14.9404C44.2256 15.597 43.6602 16.3543 43.2846 17.2542C43.0852 17.7335 42.9573 18.2401 42.9051 18.7573C42.8743 19.0545 42.9025 19.3601 42.9233 19.6603C42.9424 19.8589 42.9741 20.056 43.0182 20.2504C43.1087 20.7442 43.2794 21.2196 43.5233 21.6572C43.5883 21.7706 43.6702 21.8761 43.7473 21.9881C43.7447 21.7903 43.7239 21.6077 43.7434 21.4292C43.7868 21.0833 43.8882 20.7474 44.0432 20.436C44.2493 20.0046 44.5192 19.6076 44.8439 19.2585C44.947 19.1473 45.0644 19.0502 45.1757 18.9469C45.1734 18.9655 45.1688 18.9837 45.1619 19.0011C45.0206 19.2664 44.8902 19.5365 44.8209 19.8328C44.7672 20.0609 44.7044 20.2872 44.6632 20.5174C44.6393 20.6793 44.6264 20.8426 44.6246 21.0063C44.6069 21.3281 44.6226 21.6508 44.6714 21.9693C44.7191 22.2841 44.809 22.5908 44.9387 22.8811C45.0254 23.0645 45.1068 23.2501 45.2065 23.4251C45.4641 23.8754 45.8004 24.2748 46.1991 24.6039C46.5543 24.9013 46.9458 25.1513 47.364 25.348C47.7028 25.5066 48.0555 25.6325 48.4177 25.724C48.4576 25.7341 48.4992 25.7389 48.5572 25.749C48.5377 25.7118 48.529 25.6908 48.5165 25.6724C48.0915 25.0338 47.9299 24.3155 47.9099 23.5608C47.9013 23.2846 47.9081 23.0081 47.9303 22.7327C47.9536 22.493 47.9899 22.2548 48.039 22.0192C48.1084 21.6555 48.2032 21.2987 48.3731 20.9687C48.3966 20.9281 48.4225 20.8889 48.4506 20.8514C48.4632 20.8628 48.4662 20.8645 48.4667 20.8663C48.4701 20.8789 48.4736 20.8916 48.4762 20.9043C48.6309 21.7097 48.9094 22.4657 49.3674 23.1476C49.7868 23.7709 50.3145 24.2796 50.9704 24.6398C51.7143 25.0482 52.5119 25.2478 53.361 25.1996C53.6229 25.1901 53.8837 25.1598 54.1409 25.109C55.3037 24.856 56.3279 24.3334 57.168 23.4698C57.2498 23.3784 57.3268 23.2829 57.3989 23.1835L57.3829 23.1634C57.3542 23.172 57.3247 23.1775 57.2949 23.18ZM45.1783 18.9442L45.1853 18.9364C45.1853 18.9394 45.1853 18.9421 45.1853 18.9451L45.1783 18.9442Z" fill="#E45809"/>
<path d="M58.9196 18.8577C58.7823 18.8908 58.6629 18.9763 58.5865 19.0962C58.4608 19.2752 58.3079 19.4341 58.083 19.4569C57.8536 19.4765 57.6231 19.4797 57.3933 19.4665C57.1364 19.456 56.8799 19.4284 56.6239 19.4031C56.5047 19.3912 56.3869 19.3689 56.2686 19.3496C56.1568 19.3313 56.0455 19.3011 55.9333 19.2941C55.8885 19.2901 55.8437 19.3007 55.8053 19.3244C55.767 19.348 55.7371 19.3834 55.7201 19.4254C55.6815 19.5129 55.7201 19.5904 55.7842 19.6512C56.0936 19.9537 56.4194 20.2303 56.8283 20.3927C57.0613 20.4823 57.2693 20.6274 57.4349 20.8156C57.5731 20.9749 57.6758 21.1473 57.5874 21.3745C57.5618 21.4406 57.6233 21.5308 57.6849 21.5233C57.7481 21.5182 57.8099 21.5021 57.8677 21.4756C58.2611 21.2694 58.6148 20.9939 58.9123 20.6619C59.1921 20.3595 59.3022 19.9997 59.3169 19.635C59.3147 19.3873 59.2818 19.182 59.1895 18.9903C59.1306 18.8629 59.0552 18.8275 58.9196 18.8577Z" fill="#E45809"/>
<path d="M59.9425 15.3782C59.8398 15.0351 59.6314 14.768 59.3529 14.5575C59.1796 14.4262 58.9911 14.3238 58.8174 14.1973C58.0309 13.6265 57.315 12.9625 56.6849 12.2197C56.6056 12.1205 56.5441 12.0081 56.5034 11.8874C56.4635 11.7776 56.4644 11.6537 56.4375 11.5373C56.3671 11.2183 56.1981 10.9302 55.9549 10.7148C55.7083 10.5024 55.4338 10.3256 55.1391 10.1895C55.0113 10.1278 54.8792 10.0722 54.7682 10.0214C55.3713 9.60781 55.4051 9.18147 55.2812 8.85362C54.9428 8.23338 53.8844 7.91516 53.4053 7.7996C53.1453 7.74007 52.852 7.68448 52.524 7.63852C47.0205 6.69831 44.0939 10.7857 44.0939 10.7857C42.3358 12.8272 41.9745 15.1296 42.0014 16.7789C42.0014 16.8275 42.0014 16.8765 42.0014 16.9251C42.0014 16.9422 42.0014 16.9588 42.0014 16.9759C42.0014 17.0223 42.0044 17.0687 42.0057 17.1151C42.0057 17.1405 42.0096 17.1659 42.0113 17.1917C42.033 17.7471 42.1032 18.4422 42.2973 19.0025C42.2973 18.9653 42.2973 18.929 42.2973 18.8922C42.3049 18.6039 42.3304 18.3163 42.3735 18.0312C42.444 17.6789 42.5368 17.3315 42.6512 16.9912C42.6696 16.9472 42.6852 16.902 42.698 16.856C42.774 16.6415 42.8582 16.4296 42.9506 16.2204C43.5737 14.8245 44.5273 13.6051 45.7273 12.6696C46.4065 12.1357 47.1647 11.7133 47.9741 11.4178C48.5946 11.1876 49.2452 11.0509 49.9051 11.012C50.3774 10.9899 50.8507 11.0174 51.3174 11.0943C51.499 11.1227 51.674 11.1578 51.8638 11.1131C52.2562 11.0218 52.6338 10.8744 52.985 10.6754C52.6332 10.9091 50.8279 12.2411 51.658 14.4616C52.5245 16.7785 54.8922 16.4909 55.5342 16.2051C55.5165 16.2738 55.5013 16.3307 55.4879 16.388C55.422 16.6673 55.3713 16.9474 55.4155 17.2376C55.4425 17.4606 55.5115 17.6764 55.6187 17.8732C55.9493 18.4396 56.4739 18.6642 57.0917 18.7079C57.3934 18.7227 57.6955 18.6867 57.9855 18.6016C58.5799 18.4414 59.0786 18.1393 59.4326 17.6171C59.527 17.4779 59.5625 17.3296 59.5106 17.172C59.4446 16.9553 59.3353 16.7547 59.1894 16.5826C59.0434 16.4105 58.864 16.2705 58.6623 16.1714C58.4985 16.0904 58.4097 15.9591 58.411 15.7726C58.411 15.65 58.4976 15.5752 58.6168 15.5638C58.7901 15.5472 58.9456 15.6873 58.9937 15.8575C59.0318 15.9755 59.0852 16.0878 59.1527 16.1915C59.1938 16.2485 59.2457 16.2969 59.3052 16.3338C59.5677 16.5246 59.8385 16.3727 59.9304 16.1311C60.0189 15.8888 60.0231 15.6233 59.9425 15.3782ZM53.0491 10.6579L53.0452 10.6443L53.0569 10.6382C53.0549 10.645 53.0523 10.6516 53.0491 10.6579ZM56.6321 13.9491C56.1847 13.8116 55.737 13.6736 55.289 13.535C55.1716 13.4987 55.0529 13.4658 54.9372 13.4238C54.9047 13.4124 54.8623 13.3765 54.8588 13.3477C54.8523 13.2921 54.9069 13.2921 54.948 13.289L56.1984 13.1866C56.1986 13.1882 56.1986 13.1898 56.1984 13.1914C56.2933 13.1857 56.3877 13.1783 56.4826 13.1748C56.5139 13.1708 56.5454 13.1793 56.5705 13.1985C56.5956 13.2177 56.6123 13.2461 56.6169 13.2776C56.6602 13.4641 56.7036 13.6501 56.7495 13.8366C56.775 13.9412 56.7347 13.9806 56.6321 13.9491Z" fill="#E45809"/>
<path d="M52.8742 6.70768C53.2925 6.76676 53.6666 6.83822 53.9982 6.91474C54.392 7.00917 54.7772 7.13735 55.1498 7.29792L56.8629 2.32217C56.3749 2.61532 55.9196 2.90116 55.4499 3.15437C55.1216 3.32992 54.9741 3.50379 55.0316 3.91961C55.0721 4.26122 54.9957 4.60661 54.8153 4.89759C54.635 5.18856 54.3616 5.40734 54.0413 5.51705C53.723 5.64431 53.3728 5.66378 53.0428 5.57257C52.7128 5.48136 52.4203 5.28432 52.2089 5.01064C52.0017 4.73972 51.8858 4.40808 51.8782 4.06482C51.8707 3.72157 51.9719 3.38496 52.1669 3.10485C52.2702 2.95518 52.3929 2.82351 52.478 2.71436C51.9376 1.77468 51.2573 0.865398 50.7566 0C50.2626 0.869899 49.5923 1.78481 49.0591 2.72786C49.1453 2.83477 49.269 2.967 49.3729 3.11611C49.5701 3.39454 49.674 3.73022 49.6693 4.07347C49.6645 4.41671 49.5513 4.74927 49.3464 5.02189C49.1374 5.29757 48.8467 5.49726 48.5174 5.59133C48.188 5.68539 47.8377 5.66882 47.5184 5.54406C47.1971 5.43737 46.9217 5.22097 46.739 4.93145C46.5562 4.64192 46.4773 4.29703 46.5154 3.95506C46.5707 3.53868 46.4198 3.3665 46.091 3.19319C45.6164 2.94449 45.1588 2.66203 44.6681 2.37281L46.259 6.35488C46.259 6.35488 46.2673 6.37457 46.2833 6.40496L46.4336 6.78026L46.6458 7.31424H46.7188C48.355 6.65422 50.4124 6.28342 52.8742 6.70768Z" fill="#E45809"/>
</svg>
